<?xml version="1.0" encoding="utf-8"?>
<svg xmlns="http://www.w3.org/2000/svg" xmlns:xlink="http://www.w3.org/1999/xlink" width="600" height="400" viewBox="0 0 2400 1600">
<defs>
  <clipPath id="clip450">
    <rect x="0" y="0" width="2400" height="1600"/>
  </clipPath>
</defs>
<path clip-path="url(#clip450)" d="M0 1600 L2400 1600 L2400 0 L0 0  Z" fill="#ffffff" fill-rule="evenodd" fill-opacity="1"/>
<defs>
  <clipPath id="clip451">
    <rect x="480" y="0" width="1681" height="1600"/>
  </clipPath>
</defs>
<path clip-path="url(#clip450)" d="M217.783 1423.18 L2352.76 1423.18 L2352.76 47.2441 L217.783 47.2441  Z" fill="#ffffff" fill-rule="evenodd" fill-opacity="1"/>
<defs>
  <clipPath id="clip452">
    <rect x="217" y="47" width="2136" height="1377"/>
  </clipPath>
</defs>
<polyline clip-path="url(#clip452)" style="stroke:#000000; stroke-linecap:round; stroke-linejoin:round; stroke-width:2; stroke-opacity:0.1; fill:none" points="274.607,1423.18 274.607,47.2441 "/>
<polyline clip-path="url(#clip452)" style="stroke:#000000; stroke-linecap:round; stroke-linejoin:round; stroke-width:2; stroke-opacity:0.1; fill:none" points="779.175,1423.18 779.175,47.2441 "/>
<polyline clip-path="url(#clip452)" style="stroke:#000000; stroke-linecap:round; stroke-linejoin:round; stroke-width:2; stroke-opacity:0.1; fill:none" points="1285.13,1423.18 1285.13,47.2441 "/>
<polyline clip-path="url(#clip452)" style="stroke:#000000; stroke-linecap:round; stroke-linejoin:round; stroke-width:2; stroke-opacity:0.1; fill:none" points="1789.69,1423.18 1789.69,47.2441 "/>
<polyline clip-path="url(#clip452)" style="stroke:#000000; stroke-linecap:round; stroke-linejoin:round; stroke-width:2; stroke-opacity:0.1; fill:none" points="2294.26,1423.18 2294.26,47.2441 "/>
<polyline clip-path="url(#clip452)" style="stroke:#000000; stroke-linecap:round; stroke-linejoin:round; stroke-width:2; stroke-opacity:0.1; fill:none" points="217.783,1366.12 2352.76,1366.12 "/>
<polyline clip-path="url(#clip452)" style="stroke:#000000; stroke-linecap:round; stroke-linejoin:round; stroke-width:2; stroke-opacity:0.1; fill:none" points="217.783,1083.8 2352.76,1083.8 "/>
<polyline clip-path="url(#clip452)" style="stroke:#000000; stroke-linecap:round; stroke-linejoin:round; stroke-width:2; stroke-opacity:0.1; fill:none" points="217.783,801.468 2352.76,801.468 "/>
<polyline clip-path="url(#clip452)" style="stroke:#000000; stroke-linecap:round; stroke-linejoin:round; stroke-width:2; stroke-opacity:0.1; fill:none" points="217.783,519.141 2352.76,519.141 "/>
<polyline clip-path="url(#clip452)" style="stroke:#000000; stroke-linecap:round; stroke-linejoin:round; stroke-width:2; stroke-opacity:0.1; fill:none" points="217.783,236.814 2352.76,236.814 "/>
<polyline clip-path="url(#clip450)" style="stroke:#000000; stroke-linecap:round; stroke-linejoin:round; stroke-width:4; stroke-opacity:1; fill:none" points="217.783,1423.18 2352.76,1423.18 "/>
<polyline clip-path="url(#clip450)" style="stroke:#000000; stroke-linecap:round; stroke-linejoin:round; stroke-width:4; stroke-opacity:1; fill:none" points="274.607,1423.18 274.607,1404.28 "/>
<polyline clip-path="url(#clip450)" style="stroke:#000000; stroke-linecap:round; stroke-linejoin:round; stroke-width:4; stroke-opacity:1; fill:none" points="779.175,1423.18 779.175,1404.28 "/>
<polyline clip-path="url(#clip450)" style="stroke:#000000; stroke-linecap:round; stroke-linejoin:round; stroke-width:4; stroke-opacity:1; fill:none" points="1285.13,1423.18 1285.13,1404.28 "/>
<polyline clip-path="url(#clip450)" style="stroke:#000000; stroke-linecap:round; stroke-linejoin:round; stroke-width:4; stroke-opacity:1; fill:none" points="1789.69,1423.18 1789.69,1404.28 "/>
<polyline clip-path="url(#clip450)" style="stroke:#000000; stroke-linecap:round; stroke-linejoin:round; stroke-width:4; stroke-opacity:1; fill:none" points="2294.26,1423.18 2294.26,1404.28 "/>
<path clip-path="url(#clip450)" d="M146.401 1481.64 L162.721 1481.64 L162.721 1485.58 L140.776 1485.58 L140.776 1481.64 Q143.438 1478.89 148.022 1474.26 Q152.628 1469.61 153.809 1468.27 Q156.054 1465.74 156.934 1464.01 Q157.837 1462.25 157.837 1460.56 Q157.837 1457.8 155.892 1456.07 Q153.971 1454.33 150.869 1454.33 Q148.67 1454.33 146.216 1455.09 Q143.786 1455.86 141.008 1457.41 L141.008 1452.69 Q143.832 1451.55 146.286 1450.97 Q148.739 1450.39 150.776 1450.39 Q156.147 1450.39 159.341 1453.08 Q162.536 1455.77 162.536 1460.26 Q162.536 1462.39 161.725 1464.31 Q160.938 1466.2 158.832 1468.8 Q158.253 1469.47 155.151 1472.69 Q152.05 1475.88 146.401 1481.64 Z" fill="#000000" fill-rule="nonzero" fill-opacity="1" /><path clip-path="url(#clip450)" d="M182.535 1454.1 Q178.924 1454.1 177.096 1457.66 Q175.29 1461.2 175.29 1468.33 Q175.29 1475.44 177.096 1479.01 Q178.924 1482.55 182.535 1482.55 Q186.17 1482.55 187.975 1479.01 Q189.804 1475.44 189.804 1468.33 Q189.804 1461.2 187.975 1457.66 Q186.17 1454.1 182.535 1454.1 M182.535 1450.39 Q188.346 1450.39 191.401 1455 Q194.48 1459.58 194.48 1468.33 Q194.48 1477.06 191.401 1481.67 Q188.346 1486.25 182.535 1486.25 Q176.725 1486.25 173.647 1481.67 Q170.591 1477.06 170.591 1468.33 Q170.591 1459.58 173.647 1455 Q176.725 1450.39 182.535 1450.39 Z" fill="#000000" fill-rule="nonzero" fill-opacity="1" /><path clip-path="url(#clip450)" d="M203.508 1481.64 L211.146 1481.64 L211.146 1455.28 L202.836 1456.95 L202.836 1452.69 L211.1 1451.02 L215.776 1451.02 L215.776 1481.64 L223.415 1481.64 L223.415 1485.58 L203.508 1485.58 L203.508 1481.64 Z" fill="#000000" fill-rule="nonzero" fill-opacity="1" /><path clip-path="url(#clip450)" d="M232.998 1484.86 L232.998 1480.6 Q234.757 1481.44 236.563 1481.88 Q238.369 1482.32 240.105 1482.32 Q244.734 1482.32 247.165 1479.21 Q249.618 1476.09 249.966 1469.75 Q248.623 1471.74 246.563 1472.8 Q244.503 1473.87 242.003 1473.87 Q236.818 1473.87 233.785 1470.74 Q230.776 1467.59 230.776 1462.15 Q230.776 1456.83 233.924 1453.61 Q237.072 1450.39 242.304 1450.39 Q248.299 1450.39 251.447 1455 Q254.618 1459.58 254.618 1468.33 Q254.618 1476.51 250.73 1481.39 Q246.864 1486.25 240.313 1486.25 Q238.554 1486.25 236.748 1485.9 Q234.943 1485.56 232.998 1484.86 M242.304 1470.21 Q245.452 1470.21 247.281 1468.06 Q249.132 1465.9 249.132 1462.15 Q249.132 1458.43 247.281 1456.27 Q245.452 1454.1 242.304 1454.1 Q239.156 1454.1 237.304 1456.27 Q235.475 1458.43 235.475 1462.15 Q235.475 1465.9 237.304 1468.06 Q239.156 1470.21 242.304 1470.21 Z" fill="#000000" fill-rule="nonzero" fill-opacity="1" /><path clip-path="url(#clip450)" d="M260.267 1470.7 L272.743 1470.7 L272.743 1474.49 L260.267 1474.49 L260.267 1470.7 Z" fill="#000000" fill-rule="nonzero" fill-opacity="1" /><path clip-path="url(#clip450)" d="M290.128 1454.1 Q286.516 1454.1 284.688 1457.66 Q282.882 1461.2 282.882 1468.33 Q282.882 1475.44 284.688 1479.01 Q286.516 1482.55 290.128 1482.55 Q293.762 1482.55 295.567 1479.01 Q297.396 1475.44 297.396 1468.33 Q297.396 1461.2 295.567 1457.66 Q293.762 1454.1 290.128 1454.1 M290.128 1450.39 Q295.938 1450.39 298.993 1455 Q302.072 1459.58 302.072 1468.33 Q302.072 1477.06 298.993 1481.67 Q295.938 1486.25 290.128 1486.25 Q284.317 1486.25 281.239 1481.67 Q278.183 1477.06 278.183 1468.33 Q278.183 1459.58 281.239 1455 Q284.317 1450.39 290.128 1450.39 Z" fill="#000000" fill-rule="nonzero" fill-opacity="1" /><path clip-path="url(#clip450)" d="M311.1 1481.64 L318.738 1481.64 L318.738 1455.28 L310.428 1456.95 L310.428 1452.69 L318.692 1451.02 L323.368 1451.02 L323.368 1481.64 L331.007 1481.64 L331.007 1485.58 L311.1 1485.58 L311.1 1481.64 Z" fill="#000000" fill-rule="nonzero" fill-opacity="1" /><path clip-path="url(#clip450)" d="M337.697 1470.7 L350.173 1470.7 L350.173 1474.49 L337.697 1474.49 L337.697 1470.7 Z" fill="#000000" fill-rule="nonzero" fill-opacity="1" /><path clip-path="url(#clip450)" d="M367.558 1454.1 Q363.947 1454.1 362.118 1457.66 Q360.312 1461.2 360.312 1468.33 Q360.312 1475.44 362.118 1479.01 Q363.947 1482.55 367.558 1482.55 Q371.192 1482.55 372.997 1479.01 Q374.826 1475.44 374.826 1468.33 Q374.826 1461.2 372.997 1457.66 Q371.192 1454.1 367.558 1454.1 M367.558 1450.39 Q373.368 1450.39 376.423 1455 Q379.502 1459.58 379.502 1468.33 Q379.502 1477.06 376.423 1481.67 Q373.368 1486.25 367.558 1486.25 Q361.747 1486.25 358.669 1481.67 Q355.613 1477.06 355.613 1468.33 Q355.613 1459.58 358.669 1455 Q361.747 1450.39 367.558 1450.39 Z" fill="#000000" fill-rule="nonzero" fill-opacity="1" /><path clip-path="url(#clip450)" d="M388.53 1481.64 L396.169 1481.64 L396.169 1455.28 L387.858 1456.95 L387.858 1452.69 L396.122 1451.02 L400.798 1451.02 L400.798 1481.64 L408.437 1481.64 L408.437 1485.58 L388.53 1485.58 L388.53 1481.64 Z" fill="#000000" fill-rule="nonzero" fill-opacity="1" /><path clip-path="url(#clip450)" d="M650.97 1481.64 L667.289 1481.64 L667.289 1485.58 L645.345 1485.58 L645.345 1481.64 Q648.007 1478.89 652.59 1474.26 Q657.196 1469.61 658.377 1468.27 Q660.622 1465.74 661.502 1464.01 Q662.405 1462.25 662.405 1460.56 Q662.405 1457.8 660.46 1456.07 Q658.539 1454.33 655.437 1454.33 Q653.238 1454.33 650.784 1455.09 Q648.354 1455.86 645.576 1457.41 L645.576 1452.69 Q648.4 1451.55 650.854 1450.97 Q653.308 1450.39 655.345 1450.39 Q660.715 1450.39 663.909 1453.08 Q667.104 1455.77 667.104 1460.26 Q667.104 1462.39 666.294 1464.31 Q665.507 1466.2 663.4 1468.8 Q662.821 1469.47 659.72 1472.69 Q656.618 1475.88 650.97 1481.64 Z" fill="#000000" fill-rule="nonzero" fill-opacity="1" /><path clip-path="url(#clip450)" d="M687.104 1454.1 Q683.493 1454.1 681.664 1457.66 Q679.858 1461.2 679.858 1468.33 Q679.858 1475.44 681.664 1479.01 Q683.493 1482.55 687.104 1482.55 Q690.738 1482.55 692.543 1479.01 Q694.372 1475.44 694.372 1468.33 Q694.372 1461.2 692.543 1457.66 Q690.738 1454.1 687.104 1454.1 M687.104 1450.39 Q692.914 1450.39 695.969 1455 Q699.048 1459.58 699.048 1468.33 Q699.048 1477.06 695.969 1481.67 Q692.914 1486.25 687.104 1486.25 Q681.293 1486.25 678.215 1481.67 Q675.159 1477.06 675.159 1468.33 Q675.159 1459.58 678.215 1455 Q681.293 1450.39 687.104 1450.39 Z" fill="#000000" fill-rule="nonzero" fill-opacity="1" /><path clip-path="url(#clip450)" d="M711.293 1481.64 L727.613 1481.64 L727.613 1485.58 L705.668 1485.58 L705.668 1481.64 Q708.33 1478.89 712.914 1474.26 Q717.52 1469.61 718.701 1468.27 Q720.946 1465.74 721.826 1464.01 Q722.728 1462.25 722.728 1460.56 Q722.728 1457.8 720.784 1456.07 Q718.863 1454.33 715.761 1454.33 Q713.562 1454.33 711.108 1455.09 Q708.678 1455.86 705.9 1457.41 L705.9 1452.69 Q708.724 1451.55 711.178 1450.97 Q713.631 1450.39 715.668 1450.39 Q721.039 1450.39 724.233 1453.08 Q727.427 1455.77 727.427 1460.26 Q727.427 1462.39 726.617 1464.31 Q725.83 1466.2 723.724 1468.8 Q723.145 1469.47 720.043 1472.69 Q716.941 1475.88 711.293 1481.64 Z" fill="#000000" fill-rule="nonzero" fill-opacity="1" /><path clip-path="url(#clip450)" d="M747.427 1454.1 Q743.816 1454.1 741.988 1457.66 Q740.182 1461.2 740.182 1468.33 Q740.182 1475.44 741.988 1479.01 Q743.816 1482.55 747.427 1482.55 Q751.062 1482.55 752.867 1479.01 Q754.696 1475.44 754.696 1468.33 Q754.696 1461.2 752.867 1457.66 Q751.062 1454.1 747.427 1454.1 M747.427 1450.39 Q753.238 1450.39 756.293 1455 Q759.372 1459.58 759.372 1468.33 Q759.372 1477.06 756.293 1481.67 Q753.238 1486.25 747.427 1486.25 Q741.617 1486.25 738.539 1481.67 Q735.483 1477.06 735.483 1468.33 Q735.483 1459.58 738.539 1455 Q741.617 1450.39 747.427 1450.39 Z" fill="#000000" fill-rule="nonzero" fill-opacity="1" /><path clip-path="url(#clip450)" d="M764.835 1470.7 L777.311 1470.7 L777.311 1474.49 L764.835 1474.49 L764.835 1470.7 Z" fill="#000000" fill-rule="nonzero" fill-opacity="1" /><path clip-path="url(#clip450)" d="M794.696 1454.1 Q791.085 1454.1 789.256 1457.66 Q787.45 1461.2 787.45 1468.33 Q787.45 1475.44 789.256 1479.01 Q791.085 1482.55 794.696 1482.55 Q798.33 1482.55 800.135 1479.01 Q801.964 1475.44 801.964 1468.33 Q801.964 1461.2 800.135 1457.66 Q798.33 1454.1 794.696 1454.1 M794.696 1450.39 Q800.506 1450.39 803.561 1455 Q806.64 1459.58 806.64 1468.33 Q806.64 1477.06 803.561 1481.67 Q800.506 1486.25 794.696 1486.25 Q788.886 1486.25 785.807 1481.67 Q782.751 1477.06 782.751 1468.33 Q782.751 1459.58 785.807 1455 Q788.886 1450.39 794.696 1450.39 Z" fill="#000000" fill-rule="nonzero" fill-opacity="1" /><path clip-path="url(#clip450)" d="M815.668 1481.64 L823.307 1481.64 L823.307 1455.28 L814.996 1456.95 L814.996 1452.69 L823.26 1451.02 L827.936 1451.02 L827.936 1481.64 L835.575 1481.64 L835.575 1485.58 L815.668 1485.58 L815.668 1481.64 Z" fill="#000000" fill-rule="nonzero" fill-opacity="1" /><path clip-path="url(#clip450)" d="M842.265 1470.7 L854.742 1470.7 L854.742 1474.49 L842.265 1474.49 L842.265 1470.7 Z" fill="#000000" fill-rule="nonzero" fill-opacity="1" /><path clip-path="url(#clip450)" d="M872.126 1454.1 Q868.515 1454.1 866.686 1457.66 Q864.88 1461.2 864.88 1468.33 Q864.88 1475.44 866.686 1479.01 Q868.515 1482.55 872.126 1482.55 Q875.76 1482.55 877.566 1479.01 Q879.394 1475.44 879.394 1468.33 Q879.394 1461.2 877.566 1457.66 Q875.76 1454.1 872.126 1454.1 M872.126 1450.39 Q877.936 1450.39 880.991 1455 Q884.07 1459.58 884.07 1468.33 Q884.07 1477.06 880.991 1481.67 Q877.936 1486.25 872.126 1486.25 Q866.316 1486.25 863.237 1481.67 Q860.181 1477.06 860.181 1468.33 Q860.181 1459.58 863.237 1455 Q866.316 1450.39 872.126 1450.39 Z" fill="#000000" fill-rule="nonzero" fill-opacity="1" /><path clip-path="url(#clip450)" d="M893.098 1481.64 L900.737 1481.64 L900.737 1455.28 L892.427 1456.95 L892.427 1452.69 L900.69 1451.02 L905.366 1451.02 L905.366 1481.64 L913.005 1481.64 L913.005 1485.58 L893.098 1485.58 L893.098 1481.64 Z" fill="#000000" fill-rule="nonzero" fill-opacity="1" /><path clip-path="url(#clip450)" d="M1156.92 1481.64 L1173.24 1481.64 L1173.24 1485.58 L1151.3 1485.58 L1151.3 1481.64 Q1153.96 1478.89 1158.54 1474.26 Q1163.15 1469.61 1164.33 1468.27 Q1166.57 1465.74 1167.45 1464.01 Q1168.36 1462.25 1168.36 1460.56 Q1168.36 1457.8 1166.41 1456.07 Q1164.49 1454.33 1161.39 1454.33 Q1159.19 1454.33 1156.73 1455.09 Q1154.3 1455.86 1151.53 1457.41 L1151.53 1452.69 Q1154.35 1451.55 1156.8 1450.97 Q1159.26 1450.39 1161.3 1450.39 Q1166.67 1450.39 1169.86 1453.08 Q1173.05 1455.77 1173.05 1460.26 Q1173.05 1462.39 1172.24 1464.31 Q1171.46 1466.2 1169.35 1468.8 Q1168.77 1469.47 1165.67 1472.69 Q1162.57 1475.88 1156.92 1481.64 Z" fill="#000000" fill-rule="nonzero" fill-opacity="1" /><path clip-path="url(#clip450)" d="M1193.05 1454.1 Q1189.44 1454.1 1187.61 1457.66 Q1185.81 1461.2 1185.81 1468.33 Q1185.81 1475.44 1187.61 1479.01 Q1189.44 1482.55 1193.05 1482.55 Q1196.69 1482.55 1198.49 1479.01 Q1200.32 1475.44 1200.32 1468.33 Q1200.32 1461.2 1198.49 1457.66 Q1196.69 1454.1 1193.05 1454.1 M1193.05 1450.39 Q1198.86 1450.39 1201.92 1455 Q1205 1459.58 1205 1468.33 Q1205 1477.06 1201.92 1481.67 Q1198.86 1486.25 1193.05 1486.25 Q1187.24 1486.25 1184.17 1481.67 Q1181.11 1477.06 1181.11 1468.33 Q1181.11 1459.58 1184.17 1455 Q1187.24 1450.39 1193.05 1450.39 Z" fill="#000000" fill-rule="nonzero" fill-opacity="1" /><path clip-path="url(#clip450)" d="M1217.24 1481.64 L1233.56 1481.64 L1233.56 1485.58 L1211.62 1485.58 L1211.62 1481.64 Q1214.28 1478.89 1218.86 1474.26 Q1223.47 1469.61 1224.65 1468.27 Q1226.9 1465.74 1227.78 1464.01 Q1228.68 1462.25 1228.68 1460.56 Q1228.68 1457.8 1226.73 1456.07 Q1224.81 1454.33 1221.71 1454.33 Q1219.51 1454.33 1217.06 1455.09 Q1214.63 1455.86 1211.85 1457.41 L1211.85 1452.69 Q1214.67 1451.55 1217.13 1450.97 Q1219.58 1450.39 1221.62 1450.39 Q1226.99 1450.39 1230.18 1453.08 Q1233.38 1455.77 1233.38 1460.26 Q1233.38 1462.39 1232.57 1464.31 Q1231.78 1466.2 1229.67 1468.8 Q1229.1 1469.47 1225.99 1472.69 Q1222.89 1475.88 1217.24 1481.64 Z" fill="#000000" fill-rule="nonzero" fill-opacity="1" /><path clip-path="url(#clip450)" d="M1244.19 1481.64 L1251.83 1481.64 L1251.83 1455.28 L1243.52 1456.95 L1243.52 1452.69 L1251.78 1451.02 L1256.46 1451.02 L1256.46 1481.64 L1264.1 1481.64 L1264.1 1485.58 L1244.19 1485.58 L1244.19 1481.64 Z" fill="#000000" fill-rule="nonzero" fill-opacity="1" /><path clip-path="url(#clip450)" d="M1270.79 1470.7 L1283.26 1470.7 L1283.26 1474.49 L1270.79 1474.49 L1270.79 1470.7 Z" fill="#000000" fill-rule="nonzero" fill-opacity="1" /><path clip-path="url(#clip450)" d="M1300.65 1454.1 Q1297.04 1454.1 1295.21 1457.66 Q1293.4 1461.2 1293.4 1468.33 Q1293.4 1475.44 1295.21 1479.01 Q1297.04 1482.55 1300.65 1482.55 Q1304.28 1482.55 1306.09 1479.01 Q1307.91 1475.44 1307.91 1468.33 Q1307.91 1461.2 1306.09 1457.66 Q1304.28 1454.1 1300.65 1454.1 M1300.65 1450.39 Q1306.46 1450.39 1309.51 1455 Q1312.59 1459.58 1312.59 1468.33 Q1312.59 1477.06 1309.51 1481.67 Q1306.46 1486.25 1300.65 1486.25 Q1294.84 1486.25 1291.76 1481.67 Q1288.7 1477.06 1288.7 1468.33 Q1288.7 1459.58 1291.76 1455 Q1294.84 1450.39 1300.65 1450.39 Z" fill="#000000" fill-rule="nonzero" fill-opacity="1" /><path clip-path="url(#clip450)" d="M1321.62 1481.64 L1329.26 1481.64 L1329.26 1455.28 L1320.95 1456.95 L1320.95 1452.69 L1329.21 1451.02 L1333.89 1451.02 L1333.89 1481.64 L1341.53 1481.64 L1341.53 1485.58 L1321.62 1485.58 L1321.62 1481.64 Z" fill="#000000" fill-rule="nonzero" fill-opacity="1" /><path clip-path="url(#clip450)" d="M1348.22 1470.7 L1360.69 1470.7 L1360.69 1474.49 L1348.22 1474.49 L1348.22 1470.7 Z" fill="#000000" fill-rule="nonzero" fill-opacity="1" /><path clip-path="url(#clip450)" d="M1378.08 1454.1 Q1374.47 1454.1 1372.64 1457.66 Q1370.83 1461.2 1370.83 1468.33 Q1370.83 1475.44 1372.64 1479.01 Q1374.47 1482.55 1378.08 1482.55 Q1381.71 1482.55 1383.52 1479.01 Q1385.34 1475.44 1385.34 1468.33 Q1385.34 1461.2 1383.52 1457.66 Q1381.71 1454.1 1378.08 1454.1 M1378.08 1450.39 Q1383.89 1450.39 1386.94 1455 Q1390.02 1459.58 1390.02 1468.33 Q1390.02 1477.06 1386.94 1481.67 Q1383.89 1486.25 1378.08 1486.25 Q1372.27 1486.25 1369.19 1481.67 Q1366.13 1477.06 1366.13 1468.33 Q1366.13 1459.58 1369.19 1455 Q1372.27 1450.39 1378.08 1450.39 Z" fill="#000000" fill-rule="nonzero" fill-opacity="1" /><path clip-path="url(#clip450)" d="M1399.05 1481.64 L1406.69 1481.64 L1406.69 1455.28 L1398.38 1456.95 L1398.38 1452.69 L1406.64 1451.02 L1411.32 1451.02 L1411.32 1481.64 L1418.96 1481.64 L1418.96 1485.58 L1399.05 1485.58 L1399.05 1481.64 Z" fill="#000000" fill-rule="nonzero" fill-opacity="1" /><path clip-path="url(#clip450)" d="M1661.49 1481.64 L1677.81 1481.64 L1677.81 1485.58 L1655.86 1485.58 L1655.86 1481.64 Q1658.53 1478.89 1663.11 1474.26 Q1667.72 1469.61 1668.9 1468.27 Q1671.14 1465.74 1672.02 1464.01 Q1672.92 1462.25 1672.92 1460.56 Q1672.92 1457.8 1670.98 1456.07 Q1669.06 1454.33 1665.96 1454.33 Q1663.76 1454.33 1661.3 1455.09 Q1658.87 1455.86 1656.09 1457.41 L1656.09 1452.69 Q1658.92 1451.55 1661.37 1450.97 Q1663.83 1450.39 1665.86 1450.39 Q1671.23 1450.39 1674.43 1453.08 Q1677.62 1455.77 1677.62 1460.26 Q1677.62 1462.39 1676.81 1464.31 Q1676.03 1466.2 1673.92 1468.8 Q1673.34 1469.47 1670.24 1472.69 Q1667.14 1475.88 1661.49 1481.64 Z" fill="#000000" fill-rule="nonzero" fill-opacity="1" /><path clip-path="url(#clip450)" d="M1697.62 1454.1 Q1694.01 1454.1 1692.18 1457.66 Q1690.38 1461.2 1690.38 1468.33 Q1690.38 1475.44 1692.18 1479.01 Q1694.01 1482.55 1697.62 1482.55 Q1701.26 1482.55 1703.06 1479.01 Q1704.89 1475.44 1704.89 1468.33 Q1704.89 1461.2 1703.06 1457.66 Q1701.26 1454.1 1697.62 1454.1 M1697.62 1450.39 Q1703.43 1450.39 1706.49 1455 Q1709.57 1459.58 1709.57 1468.33 Q1709.57 1477.06 1706.49 1481.67 Q1703.43 1486.25 1697.62 1486.25 Q1691.81 1486.25 1688.73 1481.67 Q1685.68 1477.06 1685.68 1468.33 Q1685.68 1459.58 1688.73 1455 Q1691.81 1450.39 1697.62 1450.39 Z" fill="#000000" fill-rule="nonzero" fill-opacity="1" /><path clip-path="url(#clip450)" d="M1721.81 1481.64 L1738.13 1481.64 L1738.13 1485.58 L1716.19 1485.58 L1716.19 1481.64 Q1718.85 1478.89 1723.43 1474.26 Q1728.04 1469.61 1729.22 1468.27 Q1731.46 1465.74 1732.34 1464.01 Q1733.25 1462.25 1733.25 1460.56 Q1733.25 1457.8 1731.3 1456.07 Q1729.38 1454.33 1726.28 1454.33 Q1724.08 1454.33 1721.63 1455.09 Q1719.2 1455.86 1716.42 1457.41 L1716.42 1452.69 Q1719.24 1451.55 1721.7 1450.97 Q1724.15 1450.39 1726.19 1450.39 Q1731.56 1450.39 1734.75 1453.08 Q1737.95 1455.77 1737.95 1460.26 Q1737.95 1462.39 1737.14 1464.31 Q1736.35 1466.2 1734.24 1468.8 Q1733.66 1469.47 1730.56 1472.69 Q1727.46 1475.88 1721.81 1481.64 Z" fill="#000000" fill-rule="nonzero" fill-opacity="1" /><path clip-path="url(#clip450)" d="M1751.97 1481.64 L1768.29 1481.64 L1768.29 1485.58 L1746.35 1485.58 L1746.35 1481.64 Q1749.01 1478.89 1753.59 1474.26 Q1758.2 1469.61 1759.38 1468.27 Q1761.63 1465.74 1762.51 1464.01 Q1763.41 1462.25 1763.41 1460.56 Q1763.41 1457.8 1761.46 1456.07 Q1759.54 1454.33 1756.44 1454.33 Q1754.24 1454.33 1751.79 1455.09 Q1749.36 1455.86 1746.58 1457.41 L1746.58 1452.69 Q1749.4 1451.55 1751.86 1450.97 Q1754.31 1450.39 1756.35 1450.39 Q1761.72 1450.39 1764.91 1453.08 Q1768.11 1455.77 1768.11 1460.26 Q1768.11 1462.39 1767.3 1464.31 Q1766.51 1466.2 1764.4 1468.8 Q1763.83 1469.47 1760.72 1472.69 Q1757.62 1475.88 1751.97 1481.64 Z" fill="#000000" fill-rule="nonzero" fill-opacity="1" /><path clip-path="url(#clip450)" d="M1775.35 1470.7 L1787.83 1470.7 L1787.83 1474.49 L1775.35 1474.49 L1775.35 1470.7 Z" fill="#000000" fill-rule="nonzero" fill-opacity="1" /><path clip-path="url(#clip450)" d="M1805.21 1454.1 Q1801.6 1454.1 1799.77 1457.66 Q1797.97 1461.2 1797.97 1468.33 Q1797.97 1475.44 1799.77 1479.01 Q1801.6 1482.55 1805.21 1482.55 Q1808.85 1482.55 1810.65 1479.01 Q1812.48 1475.44 1812.48 1468.33 Q1812.48 1461.2 1810.65 1457.66 Q1808.85 1454.1 1805.21 1454.1 M1805.21 1450.39 Q1811.02 1450.39 1814.08 1455 Q1817.16 1459.58 1817.16 1468.33 Q1817.16 1477.06 1814.08 1481.67 Q1811.02 1486.25 1805.21 1486.25 Q1799.4 1486.25 1796.33 1481.67 Q1793.27 1477.06 1793.27 1468.33 Q1793.27 1459.58 1796.33 1455 Q1799.4 1450.39 1805.21 1450.39 Z" fill="#000000" fill-rule="nonzero" fill-opacity="1" /><path clip-path="url(#clip450)" d="M1826.19 1481.64 L1833.83 1481.64 L1833.83 1455.28 L1825.52 1456.95 L1825.52 1452.69 L1833.78 1451.02 L1838.45 1451.02 L1838.45 1481.64 L1846.09 1481.64 L1846.09 1485.58 L1826.19 1485.58 L1826.19 1481.64 Z" fill="#000000" fill-rule="nonzero" fill-opacity="1" /><path clip-path="url(#clip450)" d="M1852.78 1470.7 L1865.26 1470.7 L1865.26 1474.49 L1852.78 1474.49 L1852.78 1470.7 Z" fill="#000000" fill-rule="nonzero" fill-opacity="1" /><path clip-path="url(#clip450)" d="M1882.64 1454.1 Q1879.03 1454.1 1877.2 1457.66 Q1875.4 1461.2 1875.4 1468.33 Q1875.4 1475.44 1877.2 1479.01 Q1879.03 1482.55 1882.64 1482.55 Q1886.28 1482.55 1888.08 1479.01 Q1889.91 1475.44 1889.91 1468.33 Q1889.91 1461.2 1888.08 1457.66 Q1886.28 1454.1 1882.64 1454.1 M1882.64 1450.39 Q1888.45 1450.39 1891.51 1455 Q1894.59 1459.58 1894.59 1468.33 Q1894.59 1477.06 1891.51 1481.67 Q1888.45 1486.25 1882.64 1486.25 Q1876.83 1486.25 1873.76 1481.67 Q1870.7 1477.06 1870.7 1468.33 Q1870.7 1459.58 1873.76 1455 Q1876.83 1450.39 1882.64 1450.39 Z" fill="#000000" fill-rule="nonzero" fill-opacity="1" /><path clip-path="url(#clip450)" d="M1903.62 1481.64 L1911.26 1481.64 L1911.26 1455.28 L1902.95 1456.95 L1902.95 1452.69 L1911.21 1451.02 L1915.89 1451.02 L1915.89 1481.64 L1923.52 1481.64 L1923.52 1485.58 L1903.62 1485.58 L1903.62 1481.64 Z" fill="#000000" fill-rule="nonzero" fill-opacity="1" /><path clip-path="url(#clip450)" d="M2166.06 1481.64 L2182.38 1481.64 L2182.38 1485.58 L2160.43 1485.58 L2160.43 1481.64 Q2163.09 1478.89 2167.68 1474.26 Q2172.28 1469.61 2173.46 1468.27 Q2175.71 1465.74 2176.59 1464.01 Q2177.49 1462.25 2177.49 1460.56 Q2177.49 1457.8 2175.55 1456.07 Q2173.63 1454.33 2170.52 1454.33 Q2168.32 1454.33 2165.87 1455.09 Q2163.44 1455.86 2160.66 1457.41 L2160.66 1452.69 Q2163.49 1451.55 2165.94 1450.97 Q2168.39 1450.39 2170.43 1450.39 Q2175.8 1450.39 2179 1453.08 Q2182.19 1455.77 2182.19 1460.26 Q2182.19 1462.39 2181.38 1464.31 Q2180.59 1466.2 2178.49 1468.8 Q2177.91 1469.47 2174.81 1472.69 Q2171.7 1475.88 2166.06 1481.64 Z" fill="#000000" fill-rule="nonzero" fill-opacity="1" /><path clip-path="url(#clip450)" d="M2202.19 1454.1 Q2198.58 1454.1 2196.75 1457.66 Q2194.95 1461.2 2194.95 1468.33 Q2194.95 1475.44 2196.75 1479.01 Q2198.58 1482.55 2202.19 1482.55 Q2205.82 1482.55 2207.63 1479.01 Q2209.46 1475.44 2209.46 1468.33 Q2209.46 1461.2 2207.63 1457.66 Q2205.82 1454.1 2202.19 1454.1 M2202.19 1450.39 Q2208 1450.39 2211.06 1455 Q2214.13 1459.58 2214.13 1468.33 Q2214.13 1477.06 2211.06 1481.67 Q2208 1486.25 2202.19 1486.25 Q2196.38 1486.25 2193.3 1481.67 Q2190.25 1477.06 2190.25 1468.33 Q2190.25 1459.58 2193.3 1455 Q2196.38 1450.39 2202.19 1450.39 Z" fill="#000000" fill-rule="nonzero" fill-opacity="1" /><path clip-path="url(#clip450)" d="M2226.38 1481.64 L2242.7 1481.64 L2242.7 1485.58 L2220.76 1485.58 L2220.76 1481.64 Q2223.42 1478.89 2228 1474.26 Q2232.61 1469.61 2233.79 1468.27 Q2236.03 1465.74 2236.91 1464.01 Q2237.82 1462.25 2237.82 1460.56 Q2237.82 1457.8 2235.87 1456.07 Q2233.95 1454.33 2230.85 1454.33 Q2228.65 1454.33 2226.19 1455.09 Q2223.76 1455.86 2220.99 1457.41 L2220.99 1452.69 Q2223.81 1451.55 2226.26 1450.97 Q2228.72 1450.39 2230.76 1450.39 Q2236.13 1450.39 2239.32 1453.08 Q2242.51 1455.77 2242.51 1460.26 Q2242.51 1462.39 2241.7 1464.31 Q2240.92 1466.2 2238.81 1468.8 Q2238.23 1469.47 2235.13 1472.69 Q2232.03 1475.88 2226.38 1481.64 Z" fill="#000000" fill-rule="nonzero" fill-opacity="1" /><path clip-path="url(#clip450)" d="M2266.68 1466.95 Q2270.04 1467.66 2271.91 1469.93 Q2273.81 1472.2 2273.81 1475.53 Q2273.81 1480.65 2270.29 1483.45 Q2266.77 1486.25 2260.29 1486.25 Q2258.12 1486.25 2255.8 1485.81 Q2253.51 1485.39 2251.06 1484.54 L2251.06 1480.02 Q2253 1481.16 2255.32 1481.74 Q2257.63 1482.32 2260.15 1482.32 Q2264.55 1482.32 2266.84 1480.58 Q2269.16 1478.84 2269.16 1475.53 Q2269.16 1472.48 2267 1470.77 Q2264.88 1469.03 2261.06 1469.03 L2257.03 1469.03 L2257.03 1465.19 L2261.24 1465.19 Q2264.69 1465.19 2266.52 1463.82 Q2268.35 1462.43 2268.35 1459.84 Q2268.35 1457.18 2266.45 1455.77 Q2264.57 1454.33 2261.06 1454.33 Q2259.13 1454.33 2256.94 1454.75 Q2254.74 1455.16 2252.1 1456.04 L2252.1 1451.88 Q2254.76 1451.14 2257.07 1450.77 Q2259.41 1450.39 2261.47 1450.39 Q2266.8 1450.39 2269.9 1452.83 Q2273 1455.23 2273 1459.35 Q2273 1462.22 2271.36 1464.21 Q2269.71 1466.18 2266.68 1466.95 Z" fill="#000000" fill-rule="nonzero" fill-opacity="1" /><path clip-path="url(#clip450)" d="M2279.92 1470.7 L2292.4 1470.7 L2292.4 1474.49 L2279.92 1474.49 L2279.92 1470.7 Z" fill="#000000" fill-rule="nonzero" fill-opacity="1" /><path clip-path="url(#clip450)" d="M2309.78 1454.1 Q2306.17 1454.1 2304.34 1457.66 Q2302.54 1461.2 2302.54 1468.33 Q2302.54 1475.44 2304.34 1479.01 Q2306.17 1482.55 2309.78 1482.55 Q2313.42 1482.55 2315.22 1479.01 Q2317.05 1475.44 2317.05 1468.33 Q2317.05 1461.2 2315.22 1457.66 Q2313.42 1454.1 2309.78 1454.1 M2309.78 1450.39 Q2315.59 1450.39 2318.65 1455 Q2321.73 1459.58 2321.73 1468.33 Q2321.73 1477.06 2318.65 1481.67 Q2315.59 1486.25 2309.78 1486.25 Q2303.97 1486.25 2300.89 1481.67 Q2297.84 1477.06 2297.84 1468.33 Q2297.84 1459.58 2300.89 1455 Q2303.97 1450.39 2309.78 1450.39 Z" fill="#000000" fill-rule="nonzero" fill-opacity="1" /><path clip-path="url(#clip450)" d="M2330.75 1481.64 L2338.39 1481.64 L2338.39 1455.28 L2330.08 1456.95 L2330.08 1452.69 L2338.35 1451.02 L2343.02 1451.02 L2343.02 1481.64 L2350.66 1481.64 L2350.66 1485.58 L2330.75 1485.58 L2330.75 1481.64 Z" fill="#000000" fill-rule="nonzero" fill-opacity="1" /><path clip-path="url(#clip450)" d="M2357.35 1470.7 L2369.83 1470.7 L2369.83 1474.49 L2357.35 1474.49 L2357.35 1470.7 Z" fill="#000000" fill-rule="nonzero" fill-opacity="1" /><path clip-path="url(#clip450)" d="M2387.21 1454.1 Q2383.6 1454.1 2381.77 1457.66 Q2379.97 1461.2 2379.97 1468.33 Q2379.97 1475.44 2381.77 1479.01 Q2383.6 1482.55 2387.21 1482.55 Q2390.85 1482.55 2392.65 1479.01 Q2394.48 1475.44 2394.48 1468.33 Q2394.48 1461.2 2392.65 1457.66 Q2390.85 1454.1 2387.21 1454.1 M2387.21 1450.39 Q2393.02 1450.39 2396.08 1455 Q2399.16 1459.58 2399.16 1468.33 Q2399.16 1477.06 2396.08 1481.67 Q2393.02 1486.25 2387.21 1486.25 Q2381.4 1486.25 2378.32 1481.67 Q2375.27 1477.06 2375.27 1468.33 Q2375.27 1459.58 2378.32 1455 Q2381.4 1450.39 2387.21 1450.39 Z" fill="#000000" fill-rule="nonzero" fill-opacity="1" /><path clip-path="url(#clip450)" d="M2408.18 1481.64 L2415.82 1481.64 L2415.82 1455.28 L2407.51 1456.95 L2407.51 1452.69 L2415.78 1451.02 L2420.45 1451.02 L2420.45 1481.64 L2428.09 1481.64 L2428.09 1485.58 L2408.18 1485.58 L2408.18 1481.64 Z" fill="#000000" fill-rule="nonzero" fill-opacity="1" /><path clip-path="url(#clip450)" d="M1218.73 1525.81 L1218.73 1562.76 L1226.5 1562.76 Q1236.33 1562.76 1240.88 1558.3 Q1245.47 1553.85 1245.47 1544.24 Q1245.47 1534.69 1240.88 1530.26 Q1236.33 1525.81 1226.5 1525.81 L1218.73 1525.81 M1212.3 1520.52 L1225.51 1520.52 Q1239.32 1520.52 1245.79 1526.28 Q1252.25 1532.01 1252.25 1544.24 Q1252.25 1556.52 1245.75 1562.28 Q1239.26 1568.04 1225.51 1568.04 L1212.3 1568.04 L1212.3 1520.52 Z" fill="#000000" fill-rule="nonzero" fill-opacity="1" /><path clip-path="url(#clip450)" d="M1278.44 1550.12 Q1271.34 1550.12 1268.61 1551.75 Q1265.87 1553.37 1265.87 1557.29 Q1265.87 1560.4 1267.91 1562.25 Q1269.98 1564.07 1273.51 1564.07 Q1278.38 1564.07 1281.31 1560.63 Q1284.27 1557.16 1284.27 1551.43 L1284.27 1550.12 L1278.44 1550.12 M1290.12 1547.71 L1290.12 1568.04 L1284.27 1568.04 L1284.27 1562.63 Q1282.26 1565.88 1279.27 1567.44 Q1276.28 1568.97 1271.95 1568.97 Q1266.47 1568.97 1263.23 1565.91 Q1260.01 1562.82 1260.01 1557.67 Q1260.01 1551.65 1264.02 1548.6 Q1268.07 1545.54 1276.06 1545.54 L1284.27 1545.54 L1284.27 1544.97 Q1284.27 1540.93 1281.59 1538.73 Q1278.95 1536.5 1274.15 1536.5 Q1271.09 1536.5 1268.19 1537.23 Q1265.3 1537.97 1262.62 1539.43 L1262.62 1534.02 Q1265.84 1532.78 1268.86 1532.17 Q1271.89 1531.54 1274.75 1531.54 Q1282.48 1531.54 1286.3 1535.55 Q1290.12 1539.56 1290.12 1547.71 Z" fill="#000000" fill-rule="nonzero" fill-opacity="1" /><path clip-path="url(#clip450)" d="M1307.98 1522.27 L1307.98 1532.4 L1320.04 1532.4 L1320.04 1536.95 L1307.98 1536.95 L1307.98 1556.3 Q1307.98 1560.66 1309.16 1561.9 Q1310.37 1563.14 1314.03 1563.14 L1320.04 1563.14 L1320.04 1568.04 L1314.03 1568.04 Q1307.25 1568.04 1304.67 1565.53 Q1302.09 1562.98 1302.09 1556.3 L1302.09 1536.95 L1297.79 1536.95 L1297.79 1532.4 L1302.09 1532.4 L1302.09 1522.27 L1307.98 1522.27 Z" fill="#000000" fill-rule="nonzero" fill-opacity="1" /><path clip-path="url(#clip450)" d="M1358.24 1548.76 L1358.24 1551.62 L1331.31 1551.62 Q1331.69 1557.67 1334.94 1560.85 Q1338.22 1564 1344.04 1564 Q1347.41 1564 1350.57 1563.17 Q1353.75 1562.35 1356.87 1560.69 L1356.87 1566.23 Q1353.72 1567.57 1350.41 1568.27 Q1347.1 1568.97 1343.69 1568.97 Q1335.16 1568.97 1330.16 1564 Q1325.2 1559.04 1325.2 1550.57 Q1325.2 1541.82 1329.91 1536.69 Q1334.65 1531.54 1342.67 1531.54 Q1349.87 1531.54 1354.03 1536.18 Q1358.24 1540.8 1358.24 1548.76 M1352.38 1547.04 Q1352.32 1542.23 1349.67 1539.37 Q1347.06 1536.5 1342.74 1536.5 Q1337.83 1536.5 1334.87 1539.27 Q1331.95 1542.04 1331.5 1547.07 L1352.38 1547.04 Z" fill="#000000" fill-rule="nonzero" fill-opacity="1" /><polyline clip-path="url(#clip450)" style="stroke:#000000; stroke-linecap:round; stroke-linejoin:round; stroke-width:4; stroke-opacity:1; fill:none" points="217.783,1423.18 217.783,47.2441 "/>
<polyline clip-path="url(#clip450)" style="stroke:#000000; stroke-linecap:round; stroke-linejoin:round; stroke-width:4; stroke-opacity:1; fill:none" points="217.783,1366.12 236.681,1366.12 "/>
<polyline clip-path="url(#clip450)" style="stroke:#000000; stroke-linecap:round; stroke-linejoin:round; stroke-width:4; stroke-opacity:1; fill:none" points="217.783,1083.8 236.681,1083.8 "/>
<polyline clip-path="url(#clip450)" style="stroke:#000000; stroke-linecap:round; stroke-linejoin:round; stroke-width:4; stroke-opacity:1; fill:none" points="217.783,801.468 236.681,801.468 "/>
<polyline clip-path="url(#clip450)" style="stroke:#000000; stroke-linecap:round; stroke-linejoin:round; stroke-width:4; stroke-opacity:1; fill:none" points="217.783,519.141 236.681,519.141 "/>
<polyline clip-path="url(#clip450)" style="stroke:#000000; stroke-linecap:round; stroke-linejoin:round; stroke-width:4; stroke-opacity:1; fill:none" points="217.783,236.814 236.681,236.814 "/>
<path clip-path="url(#clip450)" d="M115.418 1379.47 L123.056 1379.47 L123.056 1353.1 L114.746 1354.77 L114.746 1350.51 L123.01 1348.84 L127.686 1348.84 L127.686 1379.47 L135.325 1379.47 L135.325 1383.4 L115.418 1383.4 L115.418 1379.47 Z" fill="#000000" fill-rule="nonzero" fill-opacity="1" /><path clip-path="url(#clip450)" d="M144.769 1377.52 L149.653 1377.52 L149.653 1383.4 L144.769 1383.4 L144.769 1377.52 Z" fill="#000000" fill-rule="nonzero" fill-opacity="1" /><path clip-path="url(#clip450)" d="M169.839 1351.92 Q166.227 1351.92 164.399 1355.49 Q162.593 1359.03 162.593 1366.16 Q162.593 1373.26 164.399 1376.83 Q166.227 1380.37 169.839 1380.37 Q173.473 1380.37 175.278 1376.83 Q177.107 1373.26 177.107 1366.16 Q177.107 1359.03 175.278 1355.49 Q173.473 1351.92 169.839 1351.92 M169.839 1348.22 Q175.649 1348.22 178.704 1352.82 Q181.783 1357.41 181.783 1366.16 Q181.783 1374.88 178.704 1379.49 Q175.649 1384.07 169.839 1384.07 Q164.028 1384.07 160.95 1379.49 Q157.894 1374.88 157.894 1366.16 Q157.894 1357.41 160.95 1352.82 Q164.028 1348.22 169.839 1348.22 Z" fill="#000000" fill-rule="nonzero" fill-opacity="1" /><path clip-path="url(#clip450)" d="M117.015 1097.14 L124.654 1097.14 L124.654 1070.77 L116.343 1072.44 L116.343 1068.18 L124.607 1066.52 L129.283 1066.52 L129.283 1097.14 L136.922 1097.14 L136.922 1101.08 L117.015 1101.08 L117.015 1097.14 Z" fill="#000000" fill-rule="nonzero" fill-opacity="1" /><path clip-path="url(#clip450)" d="M146.366 1095.2 L151.251 1095.2 L151.251 1101.08 L146.366 1101.08 L146.366 1095.2 Z" fill="#000000" fill-rule="nonzero" fill-opacity="1" /><path clip-path="url(#clip450)" d="M165.464 1097.14 L181.783 1097.14 L181.783 1101.08 L159.839 1101.08 L159.839 1097.14 Q162.501 1094.39 167.084 1089.76 Q171.69 1085.1 172.871 1083.76 Q175.116 1081.24 175.996 1079.5 Q176.899 1077.74 176.899 1076.05 Q176.899 1073.3 174.954 1071.56 Q173.033 1069.83 169.931 1069.83 Q167.732 1069.83 165.278 1070.59 Q162.848 1071.35 160.07 1072.9 L160.07 1068.18 Q162.894 1067.05 165.348 1066.47 Q167.802 1065.89 169.839 1065.89 Q175.209 1065.89 178.403 1068.58 Q181.598 1071.26 181.598 1075.75 Q181.598 1077.88 180.788 1079.8 Q180.001 1081.7 177.894 1084.29 Q177.315 1084.96 174.214 1088.18 Q171.112 1091.38 165.464 1097.14 Z" fill="#000000" fill-rule="nonzero" fill-opacity="1" /><path clip-path="url(#clip450)" d="M114.931 814.813 L122.57 814.813 L122.57 788.447 L114.26 790.114 L114.26 785.855 L122.524 784.188 L127.2 784.188 L127.2 814.813 L134.839 814.813 L134.839 818.748 L114.931 818.748 L114.931 814.813 Z" fill="#000000" fill-rule="nonzero" fill-opacity="1" /><path clip-path="url(#clip450)" d="M144.283 812.868 L149.167 812.868 L149.167 818.748 L144.283 818.748 L144.283 812.868 Z" fill="#000000" fill-rule="nonzero" fill-opacity="1" /><path clip-path="url(#clip450)" d="M172.2 788.262 L160.394 806.711 L172.2 806.711 L172.2 788.262 M170.973 784.188 L176.852 784.188 L176.852 806.711 L181.783 806.711 L181.783 810.6 L176.852 810.6 L176.852 818.748 L172.2 818.748 L172.2 810.6 L156.598 810.6 L156.598 806.086 L170.973 784.188 Z" fill="#000000" fill-rule="nonzero" fill-opacity="1" /><path clip-path="url(#clip450)" d="M115.256 532.486 L122.894 532.486 L122.894 506.12 L114.584 507.787 L114.584 503.528 L122.848 501.861 L127.524 501.861 L127.524 532.486 L135.163 532.486 L135.163 536.421 L115.256 536.421 L115.256 532.486 Z" fill="#000000" fill-rule="nonzero" fill-opacity="1" /><path clip-path="url(#clip450)" d="M144.607 530.541 L149.491 530.541 L149.491 536.421 L144.607 536.421 L144.607 530.541 Z" fill="#000000" fill-rule="nonzero" fill-opacity="1" /><path clip-path="url(#clip450)" d="M170.255 517.277 Q167.107 517.277 165.255 519.43 Q163.427 521.583 163.427 525.333 Q163.427 529.06 165.255 531.236 Q167.107 533.388 170.255 533.388 Q173.403 533.388 175.232 531.236 Q177.084 529.06 177.084 525.333 Q177.084 521.583 175.232 519.43 Q173.403 517.277 170.255 517.277 M179.538 502.625 L179.538 506.884 Q177.778 506.051 175.973 505.611 Q174.19 505.171 172.431 505.171 Q167.802 505.171 165.348 508.296 Q162.917 511.421 162.57 517.74 Q163.936 515.727 165.996 514.662 Q168.056 513.574 170.533 513.574 Q175.741 513.574 178.751 516.745 Q181.783 519.893 181.783 525.333 Q181.783 530.657 178.635 533.875 Q175.487 537.092 170.255 537.092 Q164.26 537.092 161.089 532.509 Q157.917 527.902 157.917 519.176 Q157.917 510.981 161.806 506.12 Q165.695 501.236 172.246 501.236 Q174.005 501.236 175.788 501.583 Q177.593 501.93 179.538 502.625 Z" fill="#000000" fill-rule="nonzero" fill-opacity="1" /><path clip-path="url(#clip450)" d="M115.51 250.159 L123.149 250.159 L123.149 223.793 L114.839 225.46 L114.839 221.2 L123.103 219.534 L127.779 219.534 L127.779 250.159 L135.417 250.159 L135.417 254.094 L115.51 254.094 L115.51 250.159 Z" fill="#000000" fill-rule="nonzero" fill-opacity="1" /><path clip-path="url(#clip450)" d="M144.862 248.214 L149.746 248.214 L149.746 254.094 L144.862 254.094 L144.862 248.214 Z" fill="#000000" fill-rule="nonzero" fill-opacity="1" /><path clip-path="url(#clip450)" d="M169.931 237.682 Q166.598 237.682 164.677 239.464 Q162.778 241.247 162.778 244.372 Q162.778 247.497 164.677 249.279 Q166.598 251.061 169.931 251.061 Q173.264 251.061 175.186 249.279 Q177.107 247.473 177.107 244.372 Q177.107 241.247 175.186 239.464 Q173.288 237.682 169.931 237.682 M165.255 235.691 Q162.246 234.95 160.556 232.89 Q158.89 230.83 158.89 227.867 Q158.89 223.724 161.829 221.316 Q164.792 218.909 169.931 218.909 Q175.093 218.909 178.033 221.316 Q180.973 223.724 180.973 227.867 Q180.973 230.83 179.283 232.89 Q177.616 234.95 174.63 235.691 Q178.01 236.478 179.885 238.77 Q181.783 241.061 181.783 244.372 Q181.783 249.395 178.704 252.08 Q175.649 254.765 169.931 254.765 Q164.214 254.765 161.135 252.08 Q158.079 249.395 158.079 244.372 Q158.079 241.061 159.978 238.77 Q161.876 236.478 165.255 235.691 M163.542 228.307 Q163.542 230.992 165.209 232.497 Q166.899 234.001 169.931 234.001 Q172.94 234.001 174.63 232.497 Q176.343 230.992 176.343 228.307 Q176.343 225.622 174.63 224.117 Q172.94 222.612 169.931 222.612 Q166.899 222.612 165.209 224.117 Q163.542 225.622 163.542 228.307 Z" fill="#000000" fill-rule="nonzero" fill-opacity="1" /><path clip-path="url(#clip450)" d="M20.1444 1028.58 L26.9239 1028.58 Q23.9002 1031.82 22.4043 1035.51 Q20.9083 1039.17 20.9083 1043.31 Q20.9083 1051.46 25.9054 1055.79 Q30.8707 1060.12 40.2919 1060.12 Q49.6813 1060.12 54.6784 1055.79 Q59.6436 1051.46 59.6436 1043.31 Q59.6436 1039.17 58.1477 1035.51 Q56.6518 1031.82 53.6281 1028.58 L60.3439 1028.58 Q62.6355 1031.95 63.7814 1035.74 Q64.9272 1039.49 64.9272 1043.69 Q64.9272 1054.48 58.3387 1060.69 Q51.7183 1066.9 40.2919 1066.9 Q28.8336 1066.9 22.2451 1060.69 Q15.6248 1054.48 15.6248 1043.69 Q15.6248 1039.43 16.7706 1035.67 Q17.8846 1031.89 20.1444 1028.58 Z" fill="#000000" fill-rule="nonzero" fill-opacity="1" /><path clip-path="url(#clip450)" d="M49.9359 1019.5 L28.3562 1019.5 L28.3562 1013.65 L49.7131 1013.65 Q54.7739 1013.65 57.3202 1011.67 Q59.8346 1009.7 59.8346 1005.75 Q59.8346 1001.01 56.8109 998.275 Q53.7872 995.506 48.5673 995.506 L28.3562 995.506 L28.3562 989.649 L64.0042 989.649 L64.0042 995.506 L58.5296 995.506 Q61.7762 997.638 63.3676 1000.47 Q64.9272 1003.27 64.9272 1007 Q64.9272 1013.14 61.1078 1016.32 Q57.2883 1019.5 49.9359 1019.5 M27.4968 1004.77 L27.4968 1004.77 Z" fill="#000000" fill-rule="nonzero" fill-opacity="1" /><path clip-path="url(#clip450)" d="M35.1993 949.832 Q31.2526 947.636 29.3747 944.58 Q27.4968 941.525 27.4968 937.387 Q27.4968 931.817 31.4117 928.793 Q35.2948 925.769 42.4881 925.769 L64.0042 925.769 L64.0042 931.658 L42.679 931.658 Q37.5546 931.658 35.072 933.472 Q32.5894 935.286 32.5894 939.01 Q32.5894 943.562 35.6131 946.203 Q38.6368 948.845 43.8567 948.845 L64.0042 948.845 L64.0042 954.733 L42.679 954.733 Q37.5228 954.733 35.072 956.548 Q32.5894 958.362 32.5894 962.149 Q32.5894 966.637 35.6449 969.279 Q38.6686 971.921 43.8567 971.921 L64.0042 971.921 L64.0042 977.809 L28.3562 977.809 L28.3562 971.921 L33.8944 971.921 Q30.616 969.916 29.0564 967.115 Q27.4968 964.314 27.4968 960.462 Q27.4968 956.579 29.4702 953.874 Q31.4436 951.137 35.1993 949.832 Z" fill="#000000" fill-rule="nonzero" fill-opacity="1" /><path clip-path="url(#clip450)" d="M35.1993 886.334 Q31.2526 884.138 29.3747 881.082 Q27.4968 878.027 27.4968 873.889 Q27.4968 868.319 31.4117 865.295 Q35.2948 862.271 42.4881 862.271 L64.0042 862.271 L64.0042 868.16 L42.679 868.16 Q37.5546 868.16 35.072 869.974 Q32.5894 871.788 32.5894 875.512 Q32.5894 880.064 35.6131 882.705 Q38.6368 885.347 43.8567 885.347 L64.0042 885.347 L64.0042 891.235 L42.679 891.235 Q37.5228 891.235 35.072 893.05 Q32.5894 894.864 32.5894 898.651 Q32.5894 903.139 35.6449 905.781 Q38.6686 908.423 43.8567 908.423 L64.0042 908.423 L64.0042 914.311 L28.3562 914.311 L28.3562 908.423 L33.8944 908.423 Q30.616 906.418 29.0564 903.617 Q27.4968 900.816 27.4968 896.965 Q27.4968 893.081 29.4702 890.376 Q31.4436 887.639 35.1993 886.334 Z" fill="#000000" fill-rule="nonzero" fill-opacity="1" /><path clip-path="url(#clip450)" d="M49.9359 851.195 L28.3562 851.195 L28.3562 845.339 L49.7131 845.339 Q54.7739 845.339 57.3202 843.365 Q59.8346 841.392 59.8346 837.445 Q59.8346 832.703 56.8109 829.966 Q53.7872 827.196 48.5673 827.196 L28.3562 827.196 L28.3562 821.34 L64.0042 821.34 L64.0042 827.196 L58.5296 827.196 Q61.7762 829.329 63.3676 832.162 Q64.9272 834.963 64.9272 838.687 Q64.9272 844.829 61.1078 848.012 Q57.2883 851.195 49.9359 851.195 M27.4968 836.459 L27.4968 836.459 Z" fill="#000000" fill-rule="nonzero" fill-opacity="1" /><path clip-path="url(#clip450)" d="M14.479 809.277 L14.479 803.421 L64.0042 803.421 L64.0042 809.277 L14.479 809.277 Z" fill="#000000" fill-rule="nonzero" fill-opacity="1" /><path clip-path="url(#clip450)" d="M46.0847 774.966 Q46.0847 782.064 47.7079 784.801 Q49.3312 787.538 53.2461 787.538 Q56.3653 787.538 58.2114 785.501 Q60.0256 783.432 60.0256 779.899 Q60.0256 775.029 56.5881 772.101 Q53.1188 769.141 47.3897 769.141 L46.0847 769.141 L46.0847 774.966 M43.6657 763.285 L64.0042 763.285 L64.0042 769.141 L58.5933 769.141 Q61.8398 771.146 63.3994 774.138 Q64.9272 777.13 64.9272 781.459 Q64.9272 786.933 61.8716 790.18 Q58.7843 793.395 53.6281 793.395 Q47.6125 793.395 44.5569 789.384 Q41.5014 785.342 41.5014 777.353 L41.5014 769.141 L40.9285 769.141 Q36.8862 769.141 34.6901 771.815 Q32.4621 774.457 32.4621 779.263 Q32.4621 782.318 33.1941 785.215 Q33.9262 788.111 35.3903 790.785 L29.9795 790.785 Q28.7381 787.57 28.1334 784.546 Q27.4968 781.522 27.4968 778.658 Q27.4968 770.924 31.5072 767.104 Q35.5176 763.285 43.6657 763.285 Z" fill="#000000" fill-rule="nonzero" fill-opacity="1" /><path clip-path="url(#clip450)" d="M18.2347 745.429 L28.3562 745.429 L28.3562 733.366 L32.9077 733.366 L32.9077 745.429 L52.2594 745.429 Q56.6199 745.429 57.8613 744.251 Q59.1026 743.042 59.1026 739.382 L59.1026 733.366 L64.0042 733.366 L64.0042 739.382 Q64.0042 746.161 61.4897 748.739 Q58.9434 751.317 52.2594 751.317 L32.9077 751.317 L32.9077 755.614 L28.3562 755.614 L28.3562 751.317 L18.2347 751.317 L18.2347 745.429 Z" fill="#000000" fill-rule="nonzero" fill-opacity="1" /><path clip-path="url(#clip450)" d="M28.3562 725.663 L28.3562 719.807 L64.0042 719.807 L64.0042 725.663 L28.3562 725.663 M14.479 725.663 L14.479 719.807 L21.895 719.807 L21.895 725.663 L14.479 725.663 Z" fill="#000000" fill-rule="nonzero" fill-opacity="1" /><path clip-path="url(#clip450)" d="M28.3562 711.754 L28.3562 705.548 L58.275 694.408 L28.3562 683.268 L28.3562 677.061 L64.0042 690.429 L64.0042 698.386 L28.3562 711.754 Z" fill="#000000" fill-rule="nonzero" fill-opacity="1" /><path clip-path="url(#clip450)" d="M44.7161 638.485 L47.5806 638.485 L47.5806 665.412 Q53.6281 665.03 56.8109 661.784 Q59.9619 658.505 59.9619 652.681 Q59.9619 649.307 59.1344 646.156 Q58.3069 642.973 56.6518 639.854 L62.1899 639.854 Q63.5267 643.005 64.227 646.315 Q64.9272 649.625 64.9272 653.031 Q64.9272 661.561 59.9619 666.558 Q54.9967 671.523 46.5303 671.523 Q37.7774 671.523 32.6531 666.812 Q27.4968 662.07 27.4968 654.049 Q27.4968 646.856 32.1438 642.686 Q36.7589 638.485 44.7161 638.485 M42.9973 644.342 Q38.1912 644.405 35.3266 647.047 Q32.4621 649.657 32.4621 653.986 Q32.4621 658.887 35.2312 661.847 Q38.0002 664.775 43.0292 665.221 L42.9973 644.342 Z" fill="#000000" fill-rule="nonzero" fill-opacity="1" /><path clip-path="url(#clip450)" d="M41.7242 585.363 Q42.4244 583.294 44.7161 581.353 Q47.0077 579.379 51.0181 577.406 L64.0042 570.881 L64.0042 577.788 L51.8138 583.867 Q47.0395 586.223 45.48 588.451 Q43.9204 590.647 43.9204 594.466 L43.9204 601.468 L64.0042 601.468 L64.0042 607.898 L16.4842 607.898 L16.4842 593.384 Q16.4842 585.236 19.8898 581.226 Q23.2955 577.215 30.1704 577.215 Q34.6582 577.215 37.6183 579.316 Q40.5784 581.385 41.7242 585.363 M21.7677 601.468 L38.6368 601.468 L38.6368 593.384 Q38.6368 588.737 36.5043 586.382 Q34.34 583.995 30.1704 583.995 Q26.0009 583.995 23.9002 586.382 Q21.7677 588.737 21.7677 593.384 L21.7677 601.468 Z" fill="#000000" fill-rule="nonzero" fill-opacity="1" /><path clip-path="url(#clip450)" d="M44.7161 535.297 L47.5806 535.297 L47.5806 562.224 Q53.6281 561.842 56.8109 558.595 Q59.9619 555.317 59.9619 549.492 Q59.9619 546.119 59.1344 542.968 Q58.3069 539.785 56.6518 536.666 L62.1899 536.666 Q63.5267 539.817 64.227 543.127 Q64.9272 546.437 64.9272 549.843 Q64.9272 558.373 59.9619 563.37 Q54.9967 568.335 46.5303 568.335 Q37.7774 568.335 32.6531 563.624 Q27.4968 558.882 27.4968 550.861 Q27.4968 543.668 32.1438 539.498 Q36.7589 535.297 44.7161 535.297 M42.9973 541.153 Q38.1912 541.217 35.3266 543.859 Q32.4621 546.469 32.4621 550.797 Q32.4621 555.699 35.2312 558.659 Q38.0002 561.587 43.0292 562.033 L42.9973 541.153 Z" fill="#000000" fill-rule="nonzero" fill-opacity="1" /><path clip-path="url(#clip450)" d="M18.2347 519.892 L28.3562 519.892 L28.3562 507.829 L32.9077 507.829 L32.9077 519.892 L52.2594 519.892 Q56.6199 519.892 57.8613 518.714 Q59.1026 517.505 59.1026 513.845 L59.1026 507.829 L64.0042 507.829 L64.0042 513.845 Q64.0042 520.624 61.4897 523.202 Q58.9434 525.78 52.2594 525.78 L32.9077 525.78 L32.9077 530.077 L28.3562 530.077 L28.3562 525.78 L18.2347 525.78 L18.2347 519.892 Z" fill="#000000" fill-rule="nonzero" fill-opacity="1" /><path clip-path="url(#clip450)" d="M49.9359 500.731 L28.3562 500.731 L28.3562 494.875 L49.7131 494.875 Q54.7739 494.875 57.3202 492.901 Q59.8346 490.928 59.8346 486.981 Q59.8346 482.239 56.8109 479.502 Q53.7872 476.732 48.5673 476.732 L28.3562 476.732 L28.3562 470.876 L64.0042 470.876 L64.0042 476.732 L58.5296 476.732 Q61.7762 478.865 63.3676 481.698 Q64.9272 484.499 64.9272 488.223 Q64.9272 494.365 61.1078 497.548 Q57.2883 500.731 49.9359 500.731 M27.4968 485.995 L27.4968 485.995 Z" fill="#000000" fill-rule="nonzero" fill-opacity="1" /><path clip-path="url(#clip450)" d="M33.8307 438.156 Q33.2578 439.143 33.0032 440.321 Q32.7167 441.466 32.7167 442.867 Q32.7167 447.832 35.9632 450.506 Q39.1779 453.148 45.2253 453.148 L64.0042 453.148 L64.0042 459.036 L28.3562 459.036 L28.3562 453.148 L33.8944 453.148 Q30.6479 451.301 29.0883 448.341 Q27.4968 445.381 27.4968 441.148 Q27.4968 440.543 27.5923 439.811 Q27.656 439.079 27.8151 438.188 L33.8307 438.156 Z" fill="#000000" fill-rule="nonzero" fill-opacity="1" /><path clip-path="url(#clip450)" d="M42.4881 403.527 L64.0042 403.527 L64.0042 409.383 L42.679 409.383 Q37.6183 409.383 35.1038 411.357 Q32.5894 413.33 32.5894 417.277 Q32.5894 422.019 35.6131 424.756 Q38.6368 427.494 43.8567 427.494 L64.0042 427.494 L64.0042 433.382 L28.3562 433.382 L28.3562 427.494 L33.8944 427.494 Q30.6797 425.393 29.0883 422.56 Q27.4968 419.696 27.4968 415.972 Q27.4968 409.829 31.3163 406.678 Q35.1038 403.527 42.4881 403.527 Z" fill="#000000" fill-rule="nonzero" fill-opacity="1" /><polyline clip-path="url(#clip452)" style="stroke:#009af9; stroke-linecap:round; stroke-linejoin:round; stroke-width:4; stroke-opacity:1; fill:none" points="278.207,1374.71 279.589,1356.01 283.736,1328.98 285.119,1316.61 286.501,1317.92 287.883,1305.79 289.266,1303.25 293.413,1332.71 294.795,1335.54 296.178,1327.1 297.56,1324.56 298.942,1318.66 304.472,1331.1 305.854,1327.25 307.237,1333.4 308.619,1320.96 312.766,1329.22 314.149,1322.72 315.531,1304.65 316.913,1302.13 318.296,1294.08 322.443,1282 323.825,1286.96 325.208,1287.39 326.59,1289.03 327.972,1283 332.119,1282.25 333.502,1277.06 334.884,1270.19 336.267,1267.5 337.649,1261.65 343.178,1259.1 344.561,1258.17 345.943,1253.12 347.326,1227.56 351.473,1227.37 352.855,1235.77 354.238,1250.64 355.62,1255.75 357.002,1250.3 361.149,1251.24 362.532,1239.38 363.914,1247.07 365.297,1246.59 366.679,1250.26 370.768,1245.64 372.151,1238.13 373.533,1231.01 374.916,1270.64 376.298,1249.59 380.445,1250.46 381.827,1250.04 383.21,1255.69 384.592,1249.77 385.975,1265.96 390.122,1261.78 391.504,1262.8 392.887,1274.17 394.269,1265.64 395.651,1260.02 399.798,1256.09 401.181,1260.71 402.563,1254.95 403.946,1244.36 405.328,1233.06 409.475,1229.68 410.857,1231.68 412.24,1225.5 413.622,1221.84 415.005,1218.43 419.152,1215.87 420.534,1217.55 421.916,1212.2 423.299,1208.92 428.828,1197.52 430.211,1195.69 431.593,1205.71 432.975,1203.95 434.358,1205.6 438.505,1203.56 439.887,1191.22 441.27,1196.62 442.652,1197.15 444.035,1174.17 448.182,1187.61 449.564,1195.61 450.946,1194.3 452.329,1195.76 453.711,1200.39 457.858,1233.35 459.241,1229.5 460.623,1221.18 462.005,1208.05 463.388,1204.72 467.535,1209.3 468.917,1194.25 470.3,1201.93 471.682,1225.98 473.064,1225.39 478.594,1248.77 479.976,1263.88 481.359,1211.76 482.741,1224.28 486.888,1211.83 488.271,1191.95 489.653,1195.86 491.035,1181.16 492.418,1168.12 496.565,1157.47 497.947,1156.47 499.33,1148.33 500.712,1140.24 502.094,1145.71 506.242,1144.73 507.624,1131.4 509.006,1124.38 510.389,1120.9 511.771,1130.3 515.918,1134.74 517.301,1143.3 518.683,1142.74 520.065,1136.76 521.448,1143.75 525.595,1128.27 526.977,1116.25 528.36,1105.04 531.124,1092.08 535.272,1104.85 536.654,1097.62 538.036,1085.71 539.419,1081.05 540.801,1065.11 544.948,1067.77 546.331,1052.84 547.713,1061.65 549.095,1069.6 550.478,1075.89 554.625,1090.47 556.007,1088.08 557.39,1073.47 558.772,1082.79 560.154,1057.09 564.301,1071.68 565.684,1088.21 567.066,1087.68 568.449,1089.85 569.831,1072.41 573.978,1101.06 575.36,1081.55 576.743,1080.18 578.125,1053.97 579.508,1059.3 583.655,1068.3 585.037,1061.74 586.42,1072.6 587.802,1072.08 589.184,1049.1 593.331,1025.68 594.714,1033.26 596.096,1022.18 597.479,1022.97 598.861,1043.15 603.008,1024.72 604.39,1036.62 605.773,1020.51 607.155,944.733 608.538,947.34 614.067,937.783 615.449,918.318 616.832,908.448 618.214,893.221 622.361,901.706 623.744,921.967 625.126,916.156 626.508,914.847 627.891,912.971 632.038,932.239 633.42,896.013 634.803,908.036 636.185,909.345 637.568,925.118 641.715,916.808 643.097,923.177 644.479,917.878 645.862,911.656 647.244,908.652 651.391,909.798 652.774,917.437 654.156,924.229 655.538,922.159 656.921,904.979 661.068,904.63 662.45,915.153 663.833,909.602 665.215,908.485 666.597,899.884 670.745,900.891 672.127,892.3 673.509,904.827 674.892,890.192 676.274,888.175 680.421,888.583 681.804,887.867 683.186,899.698 684.568,886.415 685.951,885.073 690.098,883.827 691.48,898.375 692.863,877.954 694.245,873.978 695.627,871.583 699.832,880.512 701.215,868.858 702.597,874.99 703.979,873.967 705.362,876.662 709.509,877.797 710.891,874.611 712.274,870.145 713.656,850.254 715.038,847.982 719.185,848.789 720.568,855.125 721.95,854.355 723.333,852.522 724.715,858.432 728.862,853.535 730.244,860.196 731.627,850.399 734.392,863.369 738.539,884.346 739.921,903.508 741.303,897.677 742.686,900.121 744.068,895.98 748.215,897.926 749.598,886.63 750.98,896.304 752.363,874.515 753.745,874.393 757.892,881.719 759.274,878.177 760.657,876.95 762.039,866.955 763.422,863.874 767.569,852.25 768.951,849.126 771.716,847.827 773.098,843.275 777.245,844.512 778.628,845.835 781.392,844.602 782.775,854.713 786.922,857.759 788.304,871.414 789.687,876.617 791.069,867.591 792.451,867.307 796.599,861.081 797.981,844.822 799.363,844.588 800.746,826.926 802.128,826.322 807.658,828.522 809.04,833.169 810.422,825.771 811.805,839.898 815.952,852.983 817.334,842.257 818.717,848.95 820.099,850.414 821.481,869.287 825.629,848.273 827.011,834.73 828.393,835.487 829.776,840.985 831.158,851.335 835.305,839.608 836.688,835.276 838.07,818.047 839.452,811.422 840.835,818.878 846.364,805.625 847.747,793.191 849.129,784.059 850.511,788.807 854.659,816.556 856.041,843.348 857.423,845.036 858.806,897.684 860.188,945.802 864.335,879.041 865.718,914.096 867.1,883.714 868.482,905.865 869.865,915.524 873.954,964.808 875.337,884.923 876.719,975.421 878.101,1137.38 879.484,1073.61 883.631,1269.02 885.013,1171.04 886.396,1334.87 887.778,1357.33 889.16,1356.43 893.308,1384.24 894.69,1213.75 896.072,1206.19 897.455,1172.45 898.837,1235.21 902.984,1204.29 904.367,1185.77 905.749,1184.8 907.131,1140.31 908.514,1149.25 912.661,1081.78 914.043,1079 915.426,1053.21 916.808,1007.78 922.337,1001.53 923.72,948.703 925.102,968.817 926.485,904.485 927.867,859.155 932.014,915.154 933.397,978.181 934.779,953.529 936.161,933.843 937.544,958.638 941.691,929.59 943.073,929.788 944.456,897.819 945.838,902.937 947.22,947.027 951.367,938.848 952.75,977.514 954.132,966.323 955.515,986.781 956.897,962.466 961.044,924.036 962.426,933.344 963.809,945.874 965.191,949.649 966.574,938.408 970.721,888.975 972.103,890.309 973.485,887.493 974.868,877.308 976.25,874.216 981.78,843.383 983.162,789.767 984.545,822.716 985.927,800.857 990.074,760.303 991.456,761.679 992.839,755.889 994.221,777.844 995.604,751.595 999.751,732.103 1001.13,743.942 1002.52,737.114 1003.9,813.153 1005.28,810.494 1009.43,774.363 1010.81,763.74 1012.19,775.039 1013.57,764.612 1014.96,783.76 1019.1,744.652 1020.49,771.199 1021.87,782.55 1023.25,775.402 1024.63,800.212 1028.78,784.088 1030.16,782.13 1031.55,786.802 1032.93,790.048 1038.46,801.715 1039.84,798.47 1041.22,801.348 1042.6,792.655 1043.99,798.281 1048.13,818 1049.52,796.6 1050.9,777.523 1052.28,791.396 1053.66,797.558 1057.81,784.103 1059.19,783.118 1060.58,765.781 1061.96,780.623 1063.34,774.177 1067.49,781.718 1068.87,792.835 1070.25,787.602 1071.63,786.253 1073.02,793.195 1077.16,774.986 1078.55,760.624 1079.93,758.216 1081.31,767.206 1082.69,749.32 1086.84,743.398 1088.22,749.601 1089.61,721.734 1090.99,721.576 1092.37,707.363 1096.52,691.51 1097.9,707.93 1099.28,701.323 1100.66,730.122 1102.05,723.095 1106.19,720.204 1107.58,716.14 1108.96,708.607 1110.34,724.084 1111.72,713.558 1115.87,712.39 1117.25,727.007 1118.64,698.059 1120.02,748.53 1121.4,761.26 1126.93,765.818 1128.31,745.347 1129.69,765.685 1131.08,750.897 1135.22,721.379 1136.61,743.366 1137.99,737.795 1139.37,739.914 1140.75,735.309 1144.9,779.096 1146.28,761.592 1147.67,786.837 1149.05,787.388 1150.43,775.028 1154.58,753.97 1155.96,751.853 1157.34,745.729 1158.72,722.767 1160.11,733.7 1164.25,718.509 1165.64,725.193 1167.02,695.157 1168.4,657.797 1169.78,655.876 1173.93,657.866 1175.31,651.267 1176.7,665.683 1178.08,658.986 1179.46,678.876 1183.61,698.339 1184.99,694.973 1186.37,685.769 1187.75,697.676 1189.14,695.002 1193.28,736.523 1194.67,720.005 1196.05,761.338 1197.43,740.436 1198.81,754.464 1203.02,735.431 1204.4,701.188 1205.78,682.062 1207.17,656.135 1208.55,640.34 1212.69,673.33 1214.08,680.306 1215.46,641.787 1216.84,595.477 1218.22,578.079 1222.37,534.781 1223.75,554.437 1225.14,566.112 1226.52,557.031 1227.9,556.406 1232.05,548.985 1233.43,531.746 1234.81,524.388 1237.58,521.842 1241.72,541.192 1243.11,529.284 1244.49,536.342 1245.87,534.803 1247.25,553.125 1251.4,536.299 1252.78,544.698 1254.17,559.652 1255.55,555.427 1256.93,570.666 1261.08,571.602 1262.46,557.124 1263.84,546.789 1265.22,543.624 1266.61,555.198 1270.75,557.396 1272.14,543.658 1273.52,560.385 1274.9,557.891 1280.43,555.038 1281.81,550.684 1283.2,544.222 1284.58,533.232 1290.11,551.689 1291.49,557.422 1292.87,499.694 1294.25,498.986 1295.64,526.265 1299.78,541.43 1301.17,525.327 1302.55,500.448 1303.93,521.806 1305.31,527.567 1310.84,538.397 1312.23,526.66 1313.61,538.85 1314.99,536.137 1319.14,528.724 1320.52,501.982 1321.9,529.951 1323.28,563.657 1324.67,596.59 1328.81,593.765 1330.2,585.822 1331.58,583.303 1332.96,574.454 1334.34,575.272 1338.49,539.225 1339.87,516.741 1341.26,527.238 1342.64,533.99 1344.02,539.179 1349.55,538.061 1350.93,534.105 1352.31,524.336 1353.7,527.846 1357.84,531.266 1359.23,568.442 1360.61,569.624 1361.99,600.881 1363.37,586.394 1367.52,562.513 1368.9,595.584 1370.29,617.036 1371.67,658.901 1373.05,642.886 1377.2,629.633 1378.58,610.236 1379.96,594.727 1381.34,570.61 1382.73,551.645 1386.82,527.153 1388.2,517.918 1389.58,544.04 1390.96,610.107 1392.35,568.372 1396.49,524.728 1397.88,515.753 1399.26,527.2 1400.64,515.538 1402.02,482.101 1406.17,491.356 1407.55,495.089 1408.93,489.955 1410.32,467.042 1415.85,429.605 1417.23,424.553 1418.61,421.312 1419.99,408.362 1421.38,397.166 1425.52,401.755 1426.91,390.457 1428.29,385.929 1429.67,382.942 1431.05,382.34 1435.2,387.214 1436.58,375.943 1437.96,376.008 1439.35,382.815 1440.73,381.83 1444.88,373.519 1446.26,365.205 1447.64,377.017 1449.02,346.607 1450.41,353.636 1454.55,337.879 1455.94,347.026 1457.32,349.046 1458.7,338.045 1460.08,321.022 1464.23,335.455 1465.61,370.719 1466.99,417.146 1468.38,403.278 1469.76,384.348 1473.91,395.241 1475.29,395.026 1476.67,425.257 1478.05,395.73 1479.44,403.653 1483.58,419.209 1484.97,424.795 1486.35,409.216 1487.73,369.542 1489.11,378.941 1494.64,379.099 1496.02,364.292 1497.41,352.453 1498.79,337.999 1502.94,327.838 1504.32,308.808 1505.7,330.656 1507.08,332.879 1508.47,314.549 1512.61,310.521 1514,303.448 1515.38,304.365 1516.76,302.099 1518.14,319.414 1522.29,313.345 1523.67,311.166 1525.05,319.176 1526.44,314.689 1527.82,316.483 1531.97,305.504 1533.35,293.282 1534.73,287.376 1536.11,273.574 1537.5,260.451 1543.03,262.844 1544.41,247.074 1545.79,266.634 1547.17,251.73 1551.32,255.44 1552.7,257.024 1554.08,249.25 1555.47,258.424 1556.85,267.685 1561,279.784 1562.38,228.749 1563.76,235.76 1565.14,230.466 1566.53,207.161 1570.67,211.055 1572.06,188.212 1573.44,203.247 1574.82,195.077 1576.2,189.702 1580.35,197.943 1581.73,199.726 1583.11,196.683 1584.5,179.61 1585.88,176.087 1590.03,201.451 1591.41,196.717 1592.79,191.071 1594.17,191.482 1595.56,182.044 1599.7,174.048 1601.09,206.2 1602.47,230.285 1603.85,232.402 1605.23,212.393 1609.38,209.91 1610.76,214.552 1612.14,189.588 1613.53,243.626 1614.91,247.742 1619.06,247.48 1620.44,260.474 1621.82,256.223 1623.2,237.854 1624.59,252.747 1630.12,274.319 1631.5,260.668 1632.88,280.522 1634.26,296.774 1638.41,288.429 1639.79,306.855 1641.17,287.927 1642.56,267.546 1643.94,256.047 1648.09,260.663 1649.47,281.892 1650.85,278.877 1652.23,266.787 1653.62,266.867 1657.76,269.156 1659.15,284.276 1660.53,289.432 1661.91,317.071 1663.29,319.184 1667.44,339.615 1668.82,340.305 1670.2,342.484 1671.59,307.305 1672.97,332.843 1677.12,340.312 1678.5,341.076 1679.88,342.447 1681.26,306.037 1682.65,297.641 1686.79,299.918 1688.18,306.179 1689.56,278.904 1690.94,264.935 1692.32,257.285 1696.47,248.526 1697.85,260.583 1699.23,268.137 1700.62,240.908 1702,248.004 1706.15,215.906 1707.53,210.767 1708.91,182.975 1710.29,171.995 1711.68,157.136 1715.88,179.354 1717.26,192.986 1718.65,196.235 1720.03,180.391 1721.41,161.119 1725.56,136.804 1726.94,116.085 1728.32,140.322 1729.7,156.742 1731.09,166.594 1735.23,172.99 1736.62,164.507 1738,170.329 1740.76,188.939 1744.91,177.539 1746.29,209.71 1747.68,218.341 1749.06,225.847 1750.44,210.945 1754.59,185.21 1755.97,165.608 1757.35,181.554 1758.73,189.989 1760.12,174.504 1764.26,172.631 1765.65,176.991 1767.03,161.464 1768.41,176.799 1769.79,201.587 1773.94,212.589 1775.32,190.253 1776.7,198.352 1778.09,170.402 1783.62,155.83 1785,145.673 1786.38,116.255 1787.76,101.927 1789.15,98.5792 1793.29,102.214 1794.68,128.756 1796.06,138.833 1797.44,125.751 1798.82,129.237 1802.97,135.202 1804.35,155.191 1805.73,152.078 1807.12,169.598 1808.5,214.389 1814.03,219.659 1815.41,217.474 1816.79,281.22 1818.18,298.476 1822.32,269.603 1823.71,291.656 1825.09,326.712 1826.47,312.281 1827.85,302.261 1832,267.456 1833.38,247.679 1834.76,267.446 1836.15,276.319 1837.53,296.442 1841.68,303.149 1843.06,269.572 1844.44,251.419 1845.82,295.476 1847.21,317.908 1851.35,327.123 1852.74,325.449 1854.12,332.029 1855.5,343.751 1856.88,326.398 1862.41,380.148 1863.79,412.117 1865.18,389.191 1866.56,331.44 1870.71,329.247 1872.09,333.897 1873.47,291.491 1874.85,291.807 1876.24,277.612 1880.38,331.937 1881.77,353.399 1883.15,330.642 1884.53,331.686 1885.91,363.824 1890,369.042 1891.38,337.712 1892.77,336.565 1894.15,266.616 1895.53,219.634 1899.68,219.391 1901.06,211.301 1902.44,242.418 1903.83,235.224 1905.21,217.777 1909.36,188.936 1910.74,177.76 1912.12,181.579 1913.5,205.162 1914.89,189.137 1919.03,178.587 1920.41,184.657 1921.8,154.131 1923.18,147.888 1924.56,140.724 1928.71,160.861 1930.09,165.271 1931.47,148.169 1932.86,155.366 1938.39,155.024 1939.77,112.503 1941.15,95.738 1942.53,134.799 1943.92,178.809 1948.06,182.866 1949.44,218.741 1950.83,227.624 1952.21,200.918 1953.59,282.089 1957.74,271.27 1959.12,267.365 1960.5,219.186 1961.89,281.883 1963.27,288.381 1967.42,324.38 1968.8,353.892 1970.18,365.648 1971.56,362.295 1972.95,332.151 1977.09,328.617 1978.47,330.389 1979.86,453.676 1981.24,459.334 1982.62,515.754 1986.77,473.066 1988.15,478.906 1989.53,469.73 1990.92,323.63 1992.3,276.393 1997.83,302.265 1999.21,331.699 2000.59,282.999 2001.98,291.824 2006.12,263.941 2007.5,255.038 2008.89,266.414 2010.27,246.927 2011.65,282.878 2015.8,353.011 2017.18,345.474 2018.56,317.905 2019.95,364.194 2021.33,366.588 2026.86,330.393 2028.24,325.315 2029.62,294.191 2031.01,244.192 2035.15,251.404 2036.53,288.347 2037.92,291.875 2039.3,294.151 2040.68,273.318 2046.21,251.673 2047.59,247.534 2048.98,225.732 2050.36,216.754 2054.51,211.034 2055.89,236.019 2057.27,232.468 2058.65,225.099 2060.03,244.615 2064.18,228.495 2065.56,203.907 2066.95,191.331 2068.33,197.915 2069.71,207.724 2073.86,207.293 2075.24,249.855 2076.62,213.793 2078.01,184.438 2079.39,160.354 2083.54,137.154 2084.92,133.456 2086.3,92.3743 2087.68,110.937 2089.06,124.731 2093.21,97.3229 2094.59,109.857 2095.98,89.8595 2097.36,88.9173 2098.74,86.1857 2102.89,92.3628 2104.27,86.4408 2105.65,107.8 2107.04,104.735 2108.42,101.661 2112.57,166.093 2113.95,159.676 2115.33,154.436 2116.71,165.958 2118.09,251.965 2122.24,256.016 2123.62,273.498 2125.01,283.794 2126.39,253.323 2127.77,266.935 2133.3,273.998 2134.68,216.686 2136.07,196.839 2137.45,172.457 2141.6,149.889 2142.98,208.53 2144.36,235.429 2145.74,257.201 2147.12,256.671 2151.27,237.874 2152.65,250.517 2154.04,280.942 2155.42,306.273 2156.8,303.957 2160.95,335.401 2162.33,339.39 2163.71,296.252 2165.1,348.152 2166.48,349.903 2170.63,306.818 2172.01,263.665 2173.39,291.666 2174.77,284.367 2176.15,308.292 2180.3,310.142 2181.68,291.93 2183.07,298.803 2184.45,259.755 2185.83,299.756 2189.98,286.365 2191.36,272.15 2192.74,280.594 2194.13,290.236 2195.51,261.061 2199.66,258.832 2201.04,229.113 2202.42,230.404 2203.8,239.695 2205.18,202.276 2209.33,230.738 2210.71,242.976 2212.1,271.996 2213.48,275.68 2214.86,251.008 2219.07,230.969 2220.45,222.841 2221.83,269.173 2223.21,198.887 2224.6,205.083 2228.74,215.347 2230.13,167.151 2231.51,171.142 2232.89,175.769 2234.27,157.552 2238.42,113.439 2239.8,99.5663 2241.18,94.3519 2243.95,92.15 2248.1,129.386 2249.48,149.632 2250.86,129.577 2252.24,192.696 2253.63,173.448 2257.77,184.946 2259.16,187.024 2260.54,165.463 2261.92,166.374 2263.3,186.856 2267.45,179.054 2268.83,189.752 2270.21,180.477 2271.6,203.384 2272.98,197.82 2277.13,221.829 2278.51,228.173 2279.89,197.188 2281.27,193.748 2282.66,176.8 2288.19,191.262 2289.57,195.083 2290.95,159.895 2292.33,160.172 "/>
</svg>
