<?xml version="1.0" encoding="utf-8"?>
<svg xmlns="http://www.w3.org/2000/svg" xmlns:xlink="http://www.w3.org/1999/xlink" width="600" height="400" viewBox="0 0 2400 1600">
<defs>
  <clipPath id="clip810">
    <rect x="0" y="0" width="2400" height="1600"/>
  </clipPath>
</defs>
<path clip-path="url(#clip810)" d="M0 1600 L2400 1600 L2400 0 L0 0  Z" fill="#ffffff" fill-rule="evenodd" fill-opacity="1"/>
<defs>
  <clipPath id="clip811">
    <rect x="480" y="0" width="1681" height="1600"/>
  </clipPath>
</defs>
<path clip-path="url(#clip810)" d="M217.783 1423.18 L2352.76 1423.18 L2352.76 47.2441 L217.783 47.2441  Z" fill="#ffffff" fill-rule="evenodd" fill-opacity="1"/>
<defs>
  <clipPath id="clip812">
    <rect x="217" y="47" width="2136" height="1377"/>
  </clipPath>
</defs>
<polyline clip-path="url(#clip812)" style="stroke:#000000; stroke-linecap:round; stroke-linejoin:round; stroke-width:2; stroke-opacity:0.1; fill:none" points="274.607,1423.18 274.607,47.2441 "/>
<polyline clip-path="url(#clip812)" style="stroke:#000000; stroke-linecap:round; stroke-linejoin:round; stroke-width:2; stroke-opacity:0.1; fill:none" points="779.175,1423.18 779.175,47.2441 "/>
<polyline clip-path="url(#clip812)" style="stroke:#000000; stroke-linecap:round; stroke-linejoin:round; stroke-width:2; stroke-opacity:0.1; fill:none" points="1285.13,1423.18 1285.13,47.2441 "/>
<polyline clip-path="url(#clip812)" style="stroke:#000000; stroke-linecap:round; stroke-linejoin:round; stroke-width:2; stroke-opacity:0.1; fill:none" points="1789.69,1423.18 1789.69,47.2441 "/>
<polyline clip-path="url(#clip812)" style="stroke:#000000; stroke-linecap:round; stroke-linejoin:round; stroke-width:2; stroke-opacity:0.1; fill:none" points="2294.26,1423.18 2294.26,47.2441 "/>
<polyline clip-path="url(#clip812)" style="stroke:#000000; stroke-linecap:round; stroke-linejoin:round; stroke-width:2; stroke-opacity:0.1; fill:none" points="217.783,1378.77 2352.76,1378.77 "/>
<polyline clip-path="url(#clip812)" style="stroke:#000000; stroke-linecap:round; stroke-linejoin:round; stroke-width:2; stroke-opacity:0.1; fill:none" points="217.783,1105.41 2352.76,1105.41 "/>
<polyline clip-path="url(#clip812)" style="stroke:#000000; stroke-linecap:round; stroke-linejoin:round; stroke-width:2; stroke-opacity:0.1; fill:none" points="217.783,832.057 2352.76,832.057 "/>
<polyline clip-path="url(#clip812)" style="stroke:#000000; stroke-linecap:round; stroke-linejoin:round; stroke-width:2; stroke-opacity:0.1; fill:none" points="217.783,558.703 2352.76,558.703 "/>
<polyline clip-path="url(#clip812)" style="stroke:#000000; stroke-linecap:round; stroke-linejoin:round; stroke-width:2; stroke-opacity:0.1; fill:none" points="217.783,285.348 2352.76,285.348 "/>
<polyline clip-path="url(#clip810)" style="stroke:#000000; stroke-linecap:round; stroke-linejoin:round; stroke-width:4; stroke-opacity:1; fill:none" points="217.783,1423.18 2352.76,1423.18 "/>
<polyline clip-path="url(#clip810)" style="stroke:#000000; stroke-linecap:round; stroke-linejoin:round; stroke-width:4; stroke-opacity:1; fill:none" points="274.607,1423.18 274.607,1404.28 "/>
<polyline clip-path="url(#clip810)" style="stroke:#000000; stroke-linecap:round; stroke-linejoin:round; stroke-width:4; stroke-opacity:1; fill:none" points="779.175,1423.18 779.175,1404.28 "/>
<polyline clip-path="url(#clip810)" style="stroke:#000000; stroke-linecap:round; stroke-linejoin:round; stroke-width:4; stroke-opacity:1; fill:none" points="1285.13,1423.18 1285.13,1404.28 "/>
<polyline clip-path="url(#clip810)" style="stroke:#000000; stroke-linecap:round; stroke-linejoin:round; stroke-width:4; stroke-opacity:1; fill:none" points="1789.69,1423.18 1789.69,1404.28 "/>
<polyline clip-path="url(#clip810)" style="stroke:#000000; stroke-linecap:round; stroke-linejoin:round; stroke-width:4; stroke-opacity:1; fill:none" points="2294.26,1423.18 2294.26,1404.28 "/>
<path clip-path="url(#clip810)" d="M146.401 1481.64 L162.721 1481.64 L162.721 1485.58 L140.776 1485.58 L140.776 1481.64 Q143.438 1478.89 148.022 1474.26 Q152.628 1469.61 153.809 1468.27 Q156.054 1465.74 156.934 1464.01 Q157.837 1462.25 157.837 1460.56 Q157.837 1457.8 155.892 1456.07 Q153.971 1454.33 150.869 1454.33 Q148.67 1454.33 146.216 1455.09 Q143.786 1455.86 141.008 1457.41 L141.008 1452.69 Q143.832 1451.55 146.286 1450.97 Q148.739 1450.39 150.776 1450.39 Q156.147 1450.39 159.341 1453.08 Q162.536 1455.77 162.536 1460.26 Q162.536 1462.39 161.725 1464.31 Q160.938 1466.2 158.832 1468.8 Q158.253 1469.47 155.151 1472.69 Q152.05 1475.88 146.401 1481.64 Z" fill="#000000" fill-rule="nonzero" fill-opacity="1" /><path clip-path="url(#clip810)" d="M182.535 1454.1 Q178.924 1454.1 177.096 1457.66 Q175.29 1461.2 175.29 1468.33 Q175.29 1475.44 177.096 1479.01 Q178.924 1482.55 182.535 1482.55 Q186.17 1482.55 187.975 1479.01 Q189.804 1475.44 189.804 1468.33 Q189.804 1461.2 187.975 1457.66 Q186.17 1454.1 182.535 1454.1 M182.535 1450.39 Q188.346 1450.39 191.401 1455 Q194.48 1459.58 194.48 1468.33 Q194.48 1477.06 191.401 1481.67 Q188.346 1486.25 182.535 1486.25 Q176.725 1486.25 173.647 1481.67 Q170.591 1477.06 170.591 1468.33 Q170.591 1459.58 173.647 1455 Q176.725 1450.39 182.535 1450.39 Z" fill="#000000" fill-rule="nonzero" fill-opacity="1" /><path clip-path="url(#clip810)" d="M203.508 1481.64 L211.146 1481.64 L211.146 1455.28 L202.836 1456.95 L202.836 1452.69 L211.1 1451.02 L215.776 1451.02 L215.776 1481.64 L223.415 1481.64 L223.415 1485.58 L203.508 1485.58 L203.508 1481.64 Z" fill="#000000" fill-rule="nonzero" fill-opacity="1" /><path clip-path="url(#clip810)" d="M232.998 1484.86 L232.998 1480.6 Q234.757 1481.44 236.563 1481.88 Q238.369 1482.32 240.105 1482.32 Q244.734 1482.32 247.165 1479.21 Q249.618 1476.09 249.966 1469.75 Q248.623 1471.74 246.563 1472.8 Q244.503 1473.87 242.003 1473.87 Q236.818 1473.87 233.785 1470.74 Q230.776 1467.59 230.776 1462.15 Q230.776 1456.83 233.924 1453.61 Q237.072 1450.39 242.304 1450.39 Q248.299 1450.39 251.447 1455 Q254.618 1459.58 254.618 1468.33 Q254.618 1476.51 250.73 1481.39 Q246.864 1486.25 240.313 1486.25 Q238.554 1486.25 236.748 1485.9 Q234.943 1485.56 232.998 1484.86 M242.304 1470.21 Q245.452 1470.21 247.281 1468.06 Q249.132 1465.9 249.132 1462.15 Q249.132 1458.43 247.281 1456.27 Q245.452 1454.1 242.304 1454.1 Q239.156 1454.1 237.304 1456.27 Q235.475 1458.43 235.475 1462.15 Q235.475 1465.9 237.304 1468.06 Q239.156 1470.21 242.304 1470.21 Z" fill="#000000" fill-rule="nonzero" fill-opacity="1" /><path clip-path="url(#clip810)" d="M260.267 1470.7 L272.743 1470.7 L272.743 1474.49 L260.267 1474.49 L260.267 1470.7 Z" fill="#000000" fill-rule="nonzero" fill-opacity="1" /><path clip-path="url(#clip810)" d="M290.128 1454.1 Q286.516 1454.1 284.688 1457.66 Q282.882 1461.2 282.882 1468.33 Q282.882 1475.44 284.688 1479.01 Q286.516 1482.55 290.128 1482.55 Q293.762 1482.55 295.567 1479.01 Q297.396 1475.44 297.396 1468.33 Q297.396 1461.2 295.567 1457.66 Q293.762 1454.1 290.128 1454.1 M290.128 1450.39 Q295.938 1450.39 298.993 1455 Q302.072 1459.58 302.072 1468.33 Q302.072 1477.06 298.993 1481.67 Q295.938 1486.25 290.128 1486.25 Q284.317 1486.25 281.239 1481.67 Q278.183 1477.06 278.183 1468.33 Q278.183 1459.58 281.239 1455 Q284.317 1450.39 290.128 1450.39 Z" fill="#000000" fill-rule="nonzero" fill-opacity="1" /><path clip-path="url(#clip810)" d="M311.1 1481.64 L318.738 1481.64 L318.738 1455.28 L310.428 1456.95 L310.428 1452.69 L318.692 1451.02 L323.368 1451.02 L323.368 1481.64 L331.007 1481.64 L331.007 1485.58 L311.1 1485.58 L311.1 1481.64 Z" fill="#000000" fill-rule="nonzero" fill-opacity="1" /><path clip-path="url(#clip810)" d="M337.697 1470.7 L350.173 1470.7 L350.173 1474.49 L337.697 1474.49 L337.697 1470.7 Z" fill="#000000" fill-rule="nonzero" fill-opacity="1" /><path clip-path="url(#clip810)" d="M367.558 1454.1 Q363.947 1454.1 362.118 1457.66 Q360.312 1461.2 360.312 1468.33 Q360.312 1475.44 362.118 1479.01 Q363.947 1482.55 367.558 1482.55 Q371.192 1482.55 372.997 1479.01 Q374.826 1475.44 374.826 1468.33 Q374.826 1461.2 372.997 1457.66 Q371.192 1454.1 367.558 1454.1 M367.558 1450.39 Q373.368 1450.39 376.423 1455 Q379.502 1459.58 379.502 1468.33 Q379.502 1477.06 376.423 1481.67 Q373.368 1486.25 367.558 1486.25 Q361.747 1486.25 358.669 1481.67 Q355.613 1477.06 355.613 1468.33 Q355.613 1459.58 358.669 1455 Q361.747 1450.39 367.558 1450.39 Z" fill="#000000" fill-rule="nonzero" fill-opacity="1" /><path clip-path="url(#clip810)" d="M388.53 1481.64 L396.169 1481.64 L396.169 1455.28 L387.858 1456.95 L387.858 1452.69 L396.122 1451.02 L400.798 1451.02 L400.798 1481.64 L408.437 1481.64 L408.437 1485.58 L388.53 1485.58 L388.53 1481.64 Z" fill="#000000" fill-rule="nonzero" fill-opacity="1" /><path clip-path="url(#clip810)" d="M650.97 1481.64 L667.289 1481.64 L667.289 1485.58 L645.345 1485.58 L645.345 1481.64 Q648.007 1478.89 652.59 1474.26 Q657.196 1469.61 658.377 1468.27 Q660.622 1465.74 661.502 1464.01 Q662.405 1462.25 662.405 1460.56 Q662.405 1457.8 660.46 1456.07 Q658.539 1454.33 655.437 1454.33 Q653.238 1454.33 650.784 1455.09 Q648.354 1455.86 645.576 1457.41 L645.576 1452.69 Q648.4 1451.55 650.854 1450.97 Q653.308 1450.39 655.345 1450.39 Q660.715 1450.39 663.909 1453.08 Q667.104 1455.77 667.104 1460.26 Q667.104 1462.39 666.294 1464.31 Q665.507 1466.2 663.4 1468.8 Q662.821 1469.47 659.72 1472.69 Q656.618 1475.88 650.97 1481.64 Z" fill="#000000" fill-rule="nonzero" fill-opacity="1" /><path clip-path="url(#clip810)" d="M687.104 1454.1 Q683.493 1454.1 681.664 1457.66 Q679.858 1461.2 679.858 1468.33 Q679.858 1475.44 681.664 1479.01 Q683.493 1482.55 687.104 1482.55 Q690.738 1482.55 692.543 1479.01 Q694.372 1475.44 694.372 1468.33 Q694.372 1461.2 692.543 1457.66 Q690.738 1454.1 687.104 1454.1 M687.104 1450.39 Q692.914 1450.39 695.969 1455 Q699.048 1459.58 699.048 1468.33 Q699.048 1477.06 695.969 1481.67 Q692.914 1486.25 687.104 1486.25 Q681.293 1486.25 678.215 1481.67 Q675.159 1477.06 675.159 1468.33 Q675.159 1459.58 678.215 1455 Q681.293 1450.39 687.104 1450.39 Z" fill="#000000" fill-rule="nonzero" fill-opacity="1" /><path clip-path="url(#clip810)" d="M711.293 1481.64 L727.613 1481.64 L727.613 1485.58 L705.668 1485.58 L705.668 1481.64 Q708.33 1478.89 712.914 1474.26 Q717.52 1469.61 718.701 1468.27 Q720.946 1465.74 721.826 1464.01 Q722.728 1462.25 722.728 1460.56 Q722.728 1457.8 720.784 1456.07 Q718.863 1454.33 715.761 1454.33 Q713.562 1454.33 711.108 1455.09 Q708.678 1455.86 705.9 1457.41 L705.9 1452.69 Q708.724 1451.55 711.178 1450.97 Q713.631 1450.39 715.668 1450.39 Q721.039 1450.39 724.233 1453.08 Q727.427 1455.77 727.427 1460.26 Q727.427 1462.39 726.617 1464.31 Q725.83 1466.2 723.724 1468.8 Q723.145 1469.47 720.043 1472.69 Q716.941 1475.88 711.293 1481.64 Z" fill="#000000" fill-rule="nonzero" fill-opacity="1" /><path clip-path="url(#clip810)" d="M747.427 1454.1 Q743.816 1454.1 741.988 1457.66 Q740.182 1461.2 740.182 1468.33 Q740.182 1475.44 741.988 1479.01 Q743.816 1482.55 747.427 1482.55 Q751.062 1482.55 752.867 1479.01 Q754.696 1475.44 754.696 1468.33 Q754.696 1461.2 752.867 1457.66 Q751.062 1454.1 747.427 1454.1 M747.427 1450.39 Q753.238 1450.39 756.293 1455 Q759.372 1459.58 759.372 1468.33 Q759.372 1477.06 756.293 1481.67 Q753.238 1486.25 747.427 1486.25 Q741.617 1486.25 738.539 1481.67 Q735.483 1477.06 735.483 1468.33 Q735.483 1459.58 738.539 1455 Q741.617 1450.39 747.427 1450.39 Z" fill="#000000" fill-rule="nonzero" fill-opacity="1" /><path clip-path="url(#clip810)" d="M764.835 1470.7 L777.311 1470.7 L777.311 1474.49 L764.835 1474.49 L764.835 1470.7 Z" fill="#000000" fill-rule="nonzero" fill-opacity="1" /><path clip-path="url(#clip810)" d="M794.696 1454.1 Q791.085 1454.1 789.256 1457.66 Q787.45 1461.2 787.45 1468.33 Q787.45 1475.44 789.256 1479.01 Q791.085 1482.55 794.696 1482.55 Q798.33 1482.55 800.135 1479.01 Q801.964 1475.44 801.964 1468.33 Q801.964 1461.2 800.135 1457.66 Q798.33 1454.1 794.696 1454.1 M794.696 1450.39 Q800.506 1450.39 803.561 1455 Q806.64 1459.58 806.64 1468.33 Q806.64 1477.06 803.561 1481.67 Q800.506 1486.25 794.696 1486.25 Q788.886 1486.25 785.807 1481.67 Q782.751 1477.06 782.751 1468.33 Q782.751 1459.58 785.807 1455 Q788.886 1450.39 794.696 1450.39 Z" fill="#000000" fill-rule="nonzero" fill-opacity="1" /><path clip-path="url(#clip810)" d="M815.668 1481.64 L823.307 1481.64 L823.307 1455.28 L814.996 1456.95 L814.996 1452.69 L823.26 1451.02 L827.936 1451.02 L827.936 1481.64 L835.575 1481.64 L835.575 1485.58 L815.668 1485.58 L815.668 1481.64 Z" fill="#000000" fill-rule="nonzero" fill-opacity="1" /><path clip-path="url(#clip810)" d="M842.265 1470.7 L854.742 1470.7 L854.742 1474.49 L842.265 1474.49 L842.265 1470.7 Z" fill="#000000" fill-rule="nonzero" fill-opacity="1" /><path clip-path="url(#clip810)" d="M872.126 1454.1 Q868.515 1454.1 866.686 1457.66 Q864.88 1461.2 864.88 1468.33 Q864.88 1475.44 866.686 1479.01 Q868.515 1482.55 872.126 1482.55 Q875.76 1482.55 877.566 1479.01 Q879.394 1475.44 879.394 1468.33 Q879.394 1461.2 877.566 1457.66 Q875.76 1454.1 872.126 1454.1 M872.126 1450.39 Q877.936 1450.39 880.991 1455 Q884.07 1459.58 884.07 1468.33 Q884.07 1477.06 880.991 1481.67 Q877.936 1486.25 872.126 1486.25 Q866.316 1486.25 863.237 1481.67 Q860.181 1477.06 860.181 1468.33 Q860.181 1459.58 863.237 1455 Q866.316 1450.39 872.126 1450.39 Z" fill="#000000" fill-rule="nonzero" fill-opacity="1" /><path clip-path="url(#clip810)" d="M893.098 1481.64 L900.737 1481.64 L900.737 1455.28 L892.427 1456.95 L892.427 1452.69 L900.69 1451.02 L905.366 1451.02 L905.366 1481.64 L913.005 1481.64 L913.005 1485.58 L893.098 1485.58 L893.098 1481.64 Z" fill="#000000" fill-rule="nonzero" fill-opacity="1" /><path clip-path="url(#clip810)" d="M1156.92 1481.64 L1173.24 1481.64 L1173.24 1485.58 L1151.3 1485.58 L1151.3 1481.64 Q1153.96 1478.89 1158.54 1474.26 Q1163.15 1469.61 1164.33 1468.27 Q1166.57 1465.74 1167.45 1464.01 Q1168.36 1462.25 1168.36 1460.56 Q1168.36 1457.8 1166.41 1456.07 Q1164.49 1454.33 1161.39 1454.33 Q1159.19 1454.33 1156.73 1455.09 Q1154.3 1455.86 1151.53 1457.41 L1151.53 1452.69 Q1154.35 1451.55 1156.8 1450.97 Q1159.26 1450.39 1161.3 1450.39 Q1166.67 1450.39 1169.86 1453.08 Q1173.05 1455.77 1173.05 1460.26 Q1173.05 1462.39 1172.24 1464.31 Q1171.46 1466.2 1169.35 1468.8 Q1168.77 1469.47 1165.67 1472.69 Q1162.57 1475.88 1156.92 1481.64 Z" fill="#000000" fill-rule="nonzero" fill-opacity="1" /><path clip-path="url(#clip810)" d="M1193.05 1454.1 Q1189.44 1454.1 1187.61 1457.66 Q1185.81 1461.2 1185.81 1468.33 Q1185.81 1475.44 1187.61 1479.01 Q1189.44 1482.55 1193.05 1482.55 Q1196.69 1482.55 1198.49 1479.01 Q1200.32 1475.44 1200.32 1468.33 Q1200.32 1461.2 1198.49 1457.66 Q1196.69 1454.1 1193.05 1454.1 M1193.05 1450.39 Q1198.86 1450.39 1201.92 1455 Q1205 1459.58 1205 1468.33 Q1205 1477.06 1201.92 1481.67 Q1198.86 1486.25 1193.05 1486.25 Q1187.24 1486.25 1184.17 1481.67 Q1181.11 1477.06 1181.11 1468.33 Q1181.11 1459.58 1184.17 1455 Q1187.24 1450.39 1193.05 1450.39 Z" fill="#000000" fill-rule="nonzero" fill-opacity="1" /><path clip-path="url(#clip810)" d="M1217.24 1481.64 L1233.56 1481.64 L1233.56 1485.58 L1211.62 1485.58 L1211.62 1481.64 Q1214.28 1478.89 1218.86 1474.26 Q1223.47 1469.61 1224.65 1468.27 Q1226.9 1465.74 1227.78 1464.01 Q1228.68 1462.25 1228.68 1460.56 Q1228.68 1457.8 1226.73 1456.07 Q1224.81 1454.33 1221.71 1454.33 Q1219.51 1454.33 1217.06 1455.09 Q1214.63 1455.86 1211.85 1457.41 L1211.85 1452.69 Q1214.67 1451.55 1217.13 1450.97 Q1219.58 1450.39 1221.62 1450.39 Q1226.99 1450.39 1230.18 1453.08 Q1233.38 1455.77 1233.38 1460.26 Q1233.38 1462.39 1232.57 1464.31 Q1231.78 1466.2 1229.67 1468.8 Q1229.1 1469.47 1225.99 1472.69 Q1222.89 1475.88 1217.24 1481.64 Z" fill="#000000" fill-rule="nonzero" fill-opacity="1" /><path clip-path="url(#clip810)" d="M1244.19 1481.64 L1251.83 1481.64 L1251.83 1455.28 L1243.52 1456.95 L1243.52 1452.69 L1251.78 1451.02 L1256.46 1451.02 L1256.46 1481.64 L1264.1 1481.64 L1264.1 1485.58 L1244.19 1485.58 L1244.19 1481.64 Z" fill="#000000" fill-rule="nonzero" fill-opacity="1" /><path clip-path="url(#clip810)" d="M1270.79 1470.7 L1283.26 1470.7 L1283.26 1474.49 L1270.79 1474.49 L1270.79 1470.7 Z" fill="#000000" fill-rule="nonzero" fill-opacity="1" /><path clip-path="url(#clip810)" d="M1300.65 1454.1 Q1297.04 1454.1 1295.21 1457.66 Q1293.4 1461.2 1293.4 1468.33 Q1293.4 1475.44 1295.21 1479.01 Q1297.04 1482.55 1300.65 1482.55 Q1304.28 1482.55 1306.09 1479.01 Q1307.91 1475.44 1307.91 1468.33 Q1307.91 1461.2 1306.09 1457.66 Q1304.28 1454.1 1300.65 1454.1 M1300.65 1450.39 Q1306.46 1450.39 1309.51 1455 Q1312.59 1459.58 1312.59 1468.33 Q1312.59 1477.06 1309.51 1481.67 Q1306.46 1486.25 1300.65 1486.25 Q1294.84 1486.25 1291.76 1481.67 Q1288.7 1477.06 1288.7 1468.33 Q1288.7 1459.58 1291.76 1455 Q1294.84 1450.39 1300.65 1450.39 Z" fill="#000000" fill-rule="nonzero" fill-opacity="1" /><path clip-path="url(#clip810)" d="M1321.62 1481.64 L1329.26 1481.64 L1329.26 1455.28 L1320.95 1456.95 L1320.95 1452.69 L1329.21 1451.02 L1333.89 1451.02 L1333.89 1481.64 L1341.53 1481.64 L1341.53 1485.58 L1321.62 1485.58 L1321.62 1481.64 Z" fill="#000000" fill-rule="nonzero" fill-opacity="1" /><path clip-path="url(#clip810)" d="M1348.22 1470.7 L1360.69 1470.7 L1360.69 1474.49 L1348.22 1474.49 L1348.22 1470.7 Z" fill="#000000" fill-rule="nonzero" fill-opacity="1" /><path clip-path="url(#clip810)" d="M1378.08 1454.1 Q1374.47 1454.1 1372.64 1457.66 Q1370.83 1461.2 1370.83 1468.33 Q1370.83 1475.44 1372.64 1479.01 Q1374.47 1482.55 1378.08 1482.55 Q1381.71 1482.55 1383.52 1479.01 Q1385.34 1475.44 1385.34 1468.33 Q1385.34 1461.2 1383.52 1457.66 Q1381.71 1454.1 1378.08 1454.1 M1378.08 1450.39 Q1383.89 1450.39 1386.94 1455 Q1390.02 1459.58 1390.02 1468.33 Q1390.02 1477.06 1386.94 1481.67 Q1383.89 1486.25 1378.08 1486.25 Q1372.27 1486.25 1369.19 1481.67 Q1366.13 1477.06 1366.13 1468.33 Q1366.13 1459.58 1369.19 1455 Q1372.27 1450.39 1378.08 1450.39 Z" fill="#000000" fill-rule="nonzero" fill-opacity="1" /><path clip-path="url(#clip810)" d="M1399.05 1481.64 L1406.69 1481.64 L1406.69 1455.28 L1398.38 1456.95 L1398.38 1452.69 L1406.64 1451.02 L1411.32 1451.02 L1411.32 1481.64 L1418.96 1481.64 L1418.96 1485.58 L1399.05 1485.58 L1399.05 1481.64 Z" fill="#000000" fill-rule="nonzero" fill-opacity="1" /><path clip-path="url(#clip810)" d="M1661.49 1481.64 L1677.81 1481.64 L1677.81 1485.58 L1655.86 1485.58 L1655.86 1481.64 Q1658.53 1478.89 1663.11 1474.26 Q1667.72 1469.61 1668.9 1468.27 Q1671.14 1465.74 1672.02 1464.01 Q1672.92 1462.25 1672.92 1460.56 Q1672.92 1457.8 1670.98 1456.07 Q1669.06 1454.33 1665.96 1454.33 Q1663.76 1454.33 1661.3 1455.09 Q1658.87 1455.86 1656.09 1457.41 L1656.09 1452.69 Q1658.92 1451.55 1661.37 1450.97 Q1663.83 1450.39 1665.86 1450.39 Q1671.23 1450.39 1674.43 1453.08 Q1677.62 1455.77 1677.62 1460.26 Q1677.62 1462.39 1676.81 1464.31 Q1676.03 1466.2 1673.92 1468.8 Q1673.34 1469.47 1670.24 1472.69 Q1667.14 1475.88 1661.49 1481.64 Z" fill="#000000" fill-rule="nonzero" fill-opacity="1" /><path clip-path="url(#clip810)" d="M1697.62 1454.1 Q1694.01 1454.1 1692.18 1457.66 Q1690.38 1461.2 1690.38 1468.33 Q1690.38 1475.44 1692.18 1479.01 Q1694.01 1482.55 1697.62 1482.55 Q1701.26 1482.55 1703.06 1479.01 Q1704.89 1475.44 1704.89 1468.33 Q1704.89 1461.2 1703.06 1457.66 Q1701.26 1454.1 1697.62 1454.1 M1697.62 1450.39 Q1703.43 1450.39 1706.49 1455 Q1709.57 1459.58 1709.57 1468.33 Q1709.57 1477.06 1706.49 1481.67 Q1703.43 1486.25 1697.62 1486.25 Q1691.81 1486.25 1688.73 1481.67 Q1685.68 1477.06 1685.68 1468.33 Q1685.68 1459.58 1688.73 1455 Q1691.81 1450.39 1697.62 1450.39 Z" fill="#000000" fill-rule="nonzero" fill-opacity="1" /><path clip-path="url(#clip810)" d="M1721.81 1481.64 L1738.13 1481.64 L1738.13 1485.58 L1716.19 1485.58 L1716.19 1481.64 Q1718.85 1478.89 1723.43 1474.26 Q1728.04 1469.61 1729.22 1468.27 Q1731.46 1465.74 1732.34 1464.01 Q1733.25 1462.25 1733.25 1460.56 Q1733.25 1457.8 1731.3 1456.07 Q1729.38 1454.33 1726.28 1454.33 Q1724.08 1454.33 1721.63 1455.09 Q1719.2 1455.86 1716.42 1457.41 L1716.42 1452.69 Q1719.24 1451.55 1721.7 1450.97 Q1724.15 1450.39 1726.19 1450.39 Q1731.56 1450.39 1734.75 1453.08 Q1737.95 1455.77 1737.95 1460.26 Q1737.95 1462.39 1737.14 1464.31 Q1736.35 1466.2 1734.24 1468.8 Q1733.66 1469.47 1730.56 1472.69 Q1727.46 1475.88 1721.81 1481.64 Z" fill="#000000" fill-rule="nonzero" fill-opacity="1" /><path clip-path="url(#clip810)" d="M1751.97 1481.64 L1768.29 1481.64 L1768.29 1485.58 L1746.35 1485.58 L1746.35 1481.64 Q1749.01 1478.89 1753.59 1474.26 Q1758.2 1469.61 1759.38 1468.27 Q1761.63 1465.74 1762.51 1464.01 Q1763.41 1462.25 1763.41 1460.56 Q1763.41 1457.8 1761.46 1456.07 Q1759.54 1454.33 1756.44 1454.33 Q1754.24 1454.33 1751.79 1455.09 Q1749.36 1455.86 1746.58 1457.41 L1746.58 1452.69 Q1749.4 1451.55 1751.86 1450.97 Q1754.31 1450.39 1756.35 1450.39 Q1761.72 1450.39 1764.91 1453.08 Q1768.11 1455.77 1768.11 1460.26 Q1768.11 1462.39 1767.3 1464.31 Q1766.51 1466.2 1764.4 1468.8 Q1763.83 1469.47 1760.72 1472.69 Q1757.62 1475.88 1751.97 1481.64 Z" fill="#000000" fill-rule="nonzero" fill-opacity="1" /><path clip-path="url(#clip810)" d="M1775.35 1470.7 L1787.83 1470.7 L1787.83 1474.49 L1775.35 1474.49 L1775.35 1470.7 Z" fill="#000000" fill-rule="nonzero" fill-opacity="1" /><path clip-path="url(#clip810)" d="M1805.21 1454.1 Q1801.6 1454.1 1799.77 1457.66 Q1797.97 1461.2 1797.97 1468.33 Q1797.97 1475.44 1799.77 1479.01 Q1801.6 1482.55 1805.21 1482.55 Q1808.85 1482.55 1810.65 1479.01 Q1812.48 1475.44 1812.48 1468.33 Q1812.48 1461.2 1810.65 1457.66 Q1808.85 1454.1 1805.21 1454.1 M1805.21 1450.39 Q1811.02 1450.39 1814.08 1455 Q1817.16 1459.58 1817.16 1468.33 Q1817.16 1477.06 1814.08 1481.67 Q1811.02 1486.25 1805.21 1486.25 Q1799.4 1486.25 1796.33 1481.67 Q1793.27 1477.06 1793.27 1468.33 Q1793.27 1459.58 1796.33 1455 Q1799.4 1450.39 1805.21 1450.39 Z" fill="#000000" fill-rule="nonzero" fill-opacity="1" /><path clip-path="url(#clip810)" d="M1826.19 1481.64 L1833.83 1481.64 L1833.83 1455.28 L1825.52 1456.95 L1825.52 1452.69 L1833.78 1451.02 L1838.45 1451.02 L1838.45 1481.64 L1846.09 1481.64 L1846.09 1485.58 L1826.19 1485.58 L1826.19 1481.64 Z" fill="#000000" fill-rule="nonzero" fill-opacity="1" /><path clip-path="url(#clip810)" d="M1852.78 1470.7 L1865.26 1470.7 L1865.26 1474.49 L1852.78 1474.49 L1852.78 1470.7 Z" fill="#000000" fill-rule="nonzero" fill-opacity="1" /><path clip-path="url(#clip810)" d="M1882.64 1454.1 Q1879.03 1454.1 1877.2 1457.66 Q1875.4 1461.2 1875.4 1468.33 Q1875.4 1475.44 1877.2 1479.01 Q1879.03 1482.55 1882.64 1482.55 Q1886.28 1482.55 1888.08 1479.01 Q1889.91 1475.44 1889.91 1468.33 Q1889.91 1461.2 1888.08 1457.66 Q1886.28 1454.1 1882.64 1454.1 M1882.64 1450.39 Q1888.45 1450.39 1891.51 1455 Q1894.59 1459.58 1894.59 1468.33 Q1894.59 1477.06 1891.51 1481.67 Q1888.45 1486.25 1882.64 1486.25 Q1876.83 1486.25 1873.76 1481.67 Q1870.7 1477.06 1870.7 1468.33 Q1870.7 1459.58 1873.76 1455 Q1876.83 1450.39 1882.64 1450.39 Z" fill="#000000" fill-rule="nonzero" fill-opacity="1" /><path clip-path="url(#clip810)" d="M1903.62 1481.64 L1911.26 1481.64 L1911.26 1455.28 L1902.95 1456.95 L1902.95 1452.69 L1911.21 1451.02 L1915.89 1451.02 L1915.89 1481.64 L1923.52 1481.64 L1923.52 1485.58 L1903.62 1485.58 L1903.62 1481.64 Z" fill="#000000" fill-rule="nonzero" fill-opacity="1" /><path clip-path="url(#clip810)" d="M2166.06 1481.64 L2182.38 1481.64 L2182.38 1485.58 L2160.43 1485.58 L2160.43 1481.64 Q2163.09 1478.89 2167.68 1474.26 Q2172.28 1469.61 2173.46 1468.27 Q2175.71 1465.74 2176.59 1464.01 Q2177.49 1462.25 2177.49 1460.56 Q2177.49 1457.8 2175.55 1456.07 Q2173.63 1454.33 2170.52 1454.33 Q2168.32 1454.33 2165.87 1455.09 Q2163.44 1455.86 2160.66 1457.41 L2160.66 1452.69 Q2163.49 1451.55 2165.94 1450.97 Q2168.39 1450.39 2170.43 1450.39 Q2175.8 1450.39 2179 1453.08 Q2182.19 1455.77 2182.19 1460.26 Q2182.19 1462.39 2181.38 1464.31 Q2180.59 1466.2 2178.49 1468.8 Q2177.91 1469.47 2174.81 1472.69 Q2171.7 1475.88 2166.06 1481.64 Z" fill="#000000" fill-rule="nonzero" fill-opacity="1" /><path clip-path="url(#clip810)" d="M2202.19 1454.1 Q2198.58 1454.1 2196.75 1457.66 Q2194.95 1461.2 2194.95 1468.33 Q2194.95 1475.44 2196.75 1479.01 Q2198.58 1482.55 2202.19 1482.55 Q2205.82 1482.55 2207.63 1479.01 Q2209.46 1475.44 2209.46 1468.33 Q2209.46 1461.2 2207.63 1457.66 Q2205.82 1454.1 2202.19 1454.1 M2202.19 1450.39 Q2208 1450.39 2211.06 1455 Q2214.13 1459.58 2214.13 1468.33 Q2214.13 1477.06 2211.06 1481.67 Q2208 1486.25 2202.19 1486.25 Q2196.38 1486.25 2193.3 1481.67 Q2190.25 1477.06 2190.25 1468.33 Q2190.25 1459.58 2193.3 1455 Q2196.38 1450.39 2202.19 1450.39 Z" fill="#000000" fill-rule="nonzero" fill-opacity="1" /><path clip-path="url(#clip810)" d="M2226.38 1481.64 L2242.7 1481.64 L2242.7 1485.58 L2220.76 1485.58 L2220.76 1481.64 Q2223.42 1478.89 2228 1474.26 Q2232.61 1469.61 2233.79 1468.27 Q2236.03 1465.74 2236.91 1464.01 Q2237.82 1462.25 2237.82 1460.56 Q2237.82 1457.8 2235.87 1456.07 Q2233.95 1454.33 2230.85 1454.33 Q2228.65 1454.33 2226.19 1455.09 Q2223.76 1455.86 2220.99 1457.41 L2220.99 1452.69 Q2223.81 1451.55 2226.26 1450.97 Q2228.72 1450.39 2230.76 1450.39 Q2236.13 1450.39 2239.32 1453.08 Q2242.51 1455.77 2242.51 1460.26 Q2242.51 1462.39 2241.7 1464.31 Q2240.92 1466.2 2238.81 1468.8 Q2238.23 1469.47 2235.13 1472.69 Q2232.03 1475.88 2226.38 1481.64 Z" fill="#000000" fill-rule="nonzero" fill-opacity="1" /><path clip-path="url(#clip810)" d="M2266.68 1466.95 Q2270.04 1467.66 2271.91 1469.93 Q2273.81 1472.2 2273.81 1475.53 Q2273.81 1480.65 2270.29 1483.45 Q2266.77 1486.25 2260.29 1486.25 Q2258.12 1486.25 2255.8 1485.81 Q2253.51 1485.39 2251.06 1484.54 L2251.06 1480.02 Q2253 1481.16 2255.32 1481.74 Q2257.63 1482.32 2260.15 1482.32 Q2264.55 1482.32 2266.84 1480.58 Q2269.16 1478.84 2269.16 1475.53 Q2269.16 1472.48 2267 1470.77 Q2264.88 1469.03 2261.06 1469.03 L2257.03 1469.03 L2257.03 1465.19 L2261.24 1465.19 Q2264.69 1465.19 2266.52 1463.82 Q2268.35 1462.43 2268.35 1459.84 Q2268.35 1457.18 2266.45 1455.77 Q2264.57 1454.33 2261.06 1454.33 Q2259.13 1454.33 2256.94 1454.75 Q2254.74 1455.16 2252.1 1456.04 L2252.1 1451.88 Q2254.76 1451.14 2257.07 1450.77 Q2259.41 1450.39 2261.47 1450.39 Q2266.8 1450.39 2269.9 1452.83 Q2273 1455.23 2273 1459.35 Q2273 1462.22 2271.36 1464.21 Q2269.71 1466.18 2266.68 1466.95 Z" fill="#000000" fill-rule="nonzero" fill-opacity="1" /><path clip-path="url(#clip810)" d="M2279.92 1470.7 L2292.4 1470.7 L2292.4 1474.49 L2279.92 1474.49 L2279.92 1470.7 Z" fill="#000000" fill-rule="nonzero" fill-opacity="1" /><path clip-path="url(#clip810)" d="M2309.78 1454.1 Q2306.17 1454.1 2304.34 1457.66 Q2302.54 1461.2 2302.54 1468.33 Q2302.54 1475.44 2304.34 1479.01 Q2306.17 1482.55 2309.78 1482.55 Q2313.42 1482.55 2315.22 1479.01 Q2317.05 1475.44 2317.05 1468.33 Q2317.05 1461.2 2315.22 1457.66 Q2313.42 1454.1 2309.78 1454.1 M2309.78 1450.39 Q2315.59 1450.39 2318.65 1455 Q2321.73 1459.58 2321.73 1468.33 Q2321.73 1477.06 2318.65 1481.67 Q2315.59 1486.25 2309.78 1486.25 Q2303.97 1486.25 2300.89 1481.67 Q2297.84 1477.06 2297.84 1468.33 Q2297.84 1459.58 2300.89 1455 Q2303.97 1450.39 2309.78 1450.39 Z" fill="#000000" fill-rule="nonzero" fill-opacity="1" /><path clip-path="url(#clip810)" d="M2330.75 1481.64 L2338.39 1481.64 L2338.39 1455.28 L2330.08 1456.95 L2330.08 1452.69 L2338.35 1451.02 L2343.02 1451.02 L2343.02 1481.64 L2350.66 1481.64 L2350.66 1485.58 L2330.75 1485.58 L2330.75 1481.64 Z" fill="#000000" fill-rule="nonzero" fill-opacity="1" /><path clip-path="url(#clip810)" d="M2357.35 1470.7 L2369.83 1470.7 L2369.83 1474.49 L2357.35 1474.49 L2357.35 1470.7 Z" fill="#000000" fill-rule="nonzero" fill-opacity="1" /><path clip-path="url(#clip810)" d="M2387.21 1454.1 Q2383.6 1454.1 2381.77 1457.66 Q2379.97 1461.2 2379.97 1468.33 Q2379.97 1475.44 2381.77 1479.01 Q2383.6 1482.55 2387.21 1482.55 Q2390.85 1482.55 2392.65 1479.01 Q2394.48 1475.44 2394.48 1468.33 Q2394.48 1461.2 2392.65 1457.66 Q2390.85 1454.1 2387.21 1454.1 M2387.21 1450.39 Q2393.02 1450.39 2396.08 1455 Q2399.16 1459.58 2399.16 1468.33 Q2399.16 1477.06 2396.08 1481.67 Q2393.02 1486.25 2387.21 1486.25 Q2381.4 1486.25 2378.32 1481.67 Q2375.27 1477.06 2375.27 1468.33 Q2375.27 1459.58 2378.32 1455 Q2381.4 1450.39 2387.21 1450.39 Z" fill="#000000" fill-rule="nonzero" fill-opacity="1" /><path clip-path="url(#clip810)" d="M2408.18 1481.64 L2415.82 1481.64 L2415.82 1455.28 L2407.51 1456.95 L2407.51 1452.69 L2415.78 1451.02 L2420.45 1451.02 L2420.45 1481.64 L2428.09 1481.64 L2428.09 1485.58 L2408.18 1485.58 L2408.18 1481.64 Z" fill="#000000" fill-rule="nonzero" fill-opacity="1" /><path clip-path="url(#clip810)" d="M1218.73 1525.81 L1218.73 1562.76 L1226.5 1562.76 Q1236.33 1562.76 1240.88 1558.3 Q1245.47 1553.85 1245.47 1544.24 Q1245.47 1534.69 1240.88 1530.26 Q1236.33 1525.81 1226.5 1525.81 L1218.73 1525.81 M1212.3 1520.52 L1225.51 1520.52 Q1239.32 1520.52 1245.79 1526.28 Q1252.25 1532.01 1252.25 1544.24 Q1252.25 1556.52 1245.75 1562.28 Q1239.26 1568.04 1225.51 1568.04 L1212.3 1568.04 L1212.3 1520.52 Z" fill="#000000" fill-rule="nonzero" fill-opacity="1" /><path clip-path="url(#clip810)" d="M1278.44 1550.12 Q1271.34 1550.12 1268.61 1551.75 Q1265.87 1553.37 1265.87 1557.29 Q1265.87 1560.4 1267.91 1562.25 Q1269.98 1564.07 1273.51 1564.07 Q1278.38 1564.07 1281.31 1560.63 Q1284.27 1557.16 1284.27 1551.43 L1284.27 1550.12 L1278.44 1550.12 M1290.12 1547.71 L1290.12 1568.04 L1284.27 1568.04 L1284.27 1562.63 Q1282.26 1565.88 1279.27 1567.44 Q1276.28 1568.97 1271.95 1568.97 Q1266.47 1568.97 1263.23 1565.91 Q1260.01 1562.82 1260.01 1557.67 Q1260.01 1551.65 1264.02 1548.6 Q1268.07 1545.54 1276.06 1545.54 L1284.27 1545.54 L1284.27 1544.97 Q1284.27 1540.93 1281.59 1538.73 Q1278.95 1536.5 1274.15 1536.5 Q1271.09 1536.5 1268.19 1537.23 Q1265.3 1537.97 1262.62 1539.43 L1262.62 1534.02 Q1265.84 1532.78 1268.86 1532.17 Q1271.89 1531.54 1274.75 1531.54 Q1282.48 1531.54 1286.3 1535.55 Q1290.12 1539.56 1290.12 1547.71 Z" fill="#000000" fill-rule="nonzero" fill-opacity="1" /><path clip-path="url(#clip810)" d="M1307.98 1522.27 L1307.98 1532.4 L1320.04 1532.4 L1320.04 1536.95 L1307.98 1536.95 L1307.98 1556.3 Q1307.98 1560.66 1309.16 1561.9 Q1310.37 1563.14 1314.03 1563.14 L1320.04 1563.14 L1320.04 1568.04 L1314.03 1568.04 Q1307.25 1568.04 1304.67 1565.53 Q1302.09 1562.98 1302.09 1556.3 L1302.09 1536.95 L1297.79 1536.95 L1297.79 1532.4 L1302.09 1532.4 L1302.09 1522.27 L1307.98 1522.27 Z" fill="#000000" fill-rule="nonzero" fill-opacity="1" /><path clip-path="url(#clip810)" d="M1358.24 1548.76 L1358.24 1551.62 L1331.31 1551.62 Q1331.69 1557.67 1334.94 1560.85 Q1338.22 1564 1344.04 1564 Q1347.41 1564 1350.57 1563.17 Q1353.75 1562.35 1356.87 1560.69 L1356.87 1566.23 Q1353.72 1567.57 1350.41 1568.27 Q1347.1 1568.97 1343.69 1568.97 Q1335.16 1568.97 1330.16 1564 Q1325.2 1559.04 1325.2 1550.57 Q1325.2 1541.82 1329.91 1536.69 Q1334.65 1531.54 1342.67 1531.54 Q1349.87 1531.54 1354.03 1536.18 Q1358.24 1540.8 1358.24 1548.76 M1352.38 1547.04 Q1352.32 1542.23 1349.67 1539.37 Q1347.06 1536.5 1342.74 1536.5 Q1337.83 1536.5 1334.87 1539.27 Q1331.95 1542.04 1331.5 1547.07 L1352.38 1547.04 Z" fill="#000000" fill-rule="nonzero" fill-opacity="1" /><polyline clip-path="url(#clip810)" style="stroke:#000000; stroke-linecap:round; stroke-linejoin:round; stroke-width:4; stroke-opacity:1; fill:none" points="217.783,1423.18 217.783,47.2441 "/>
<polyline clip-path="url(#clip810)" style="stroke:#000000; stroke-linecap:round; stroke-linejoin:round; stroke-width:4; stroke-opacity:1; fill:none" points="217.783,1378.77 236.681,1378.77 "/>
<polyline clip-path="url(#clip810)" style="stroke:#000000; stroke-linecap:round; stroke-linejoin:round; stroke-width:4; stroke-opacity:1; fill:none" points="217.783,1105.41 236.681,1105.41 "/>
<polyline clip-path="url(#clip810)" style="stroke:#000000; stroke-linecap:round; stroke-linejoin:round; stroke-width:4; stroke-opacity:1; fill:none" points="217.783,832.057 236.681,832.057 "/>
<polyline clip-path="url(#clip810)" style="stroke:#000000; stroke-linecap:round; stroke-linejoin:round; stroke-width:4; stroke-opacity:1; fill:none" points="217.783,558.703 236.681,558.703 "/>
<polyline clip-path="url(#clip810)" style="stroke:#000000; stroke-linecap:round; stroke-linejoin:round; stroke-width:4; stroke-opacity:1; fill:none" points="217.783,285.348 236.681,285.348 "/>
<path clip-path="url(#clip810)" d="M115.418 1392.11 L123.056 1392.11 L123.056 1365.75 L114.746 1367.41 L114.746 1363.15 L123.01 1361.49 L127.686 1361.49 L127.686 1392.11 L135.325 1392.11 L135.325 1396.05 L115.418 1396.05 L115.418 1392.11 Z" fill="#000000" fill-rule="nonzero" fill-opacity="1" /><path clip-path="url(#clip810)" d="M144.769 1390.17 L149.653 1390.17 L149.653 1396.05 L144.769 1396.05 L144.769 1390.17 Z" fill="#000000" fill-rule="nonzero" fill-opacity="1" /><path clip-path="url(#clip810)" d="M169.839 1364.57 Q166.227 1364.57 164.399 1368.13 Q162.593 1371.67 162.593 1378.8 Q162.593 1385.91 164.399 1389.47 Q166.227 1393.01 169.839 1393.01 Q173.473 1393.01 175.278 1389.47 Q177.107 1385.91 177.107 1378.8 Q177.107 1371.67 175.278 1368.13 Q173.473 1364.57 169.839 1364.57 M169.839 1360.86 Q175.649 1360.86 178.704 1365.47 Q181.783 1370.05 181.783 1378.8 Q181.783 1387.53 178.704 1392.13 Q175.649 1396.72 169.839 1396.72 Q164.028 1396.72 160.95 1392.13 Q157.894 1387.53 157.894 1378.8 Q157.894 1370.05 160.95 1365.47 Q164.028 1360.86 169.839 1360.86 Z" fill="#000000" fill-rule="nonzero" fill-opacity="1" /><path clip-path="url(#clip810)" d="M117.015 1118.76 L124.654 1118.76 L124.654 1092.39 L116.343 1094.06 L116.343 1089.8 L124.607 1088.13 L129.283 1088.13 L129.283 1118.76 L136.922 1118.76 L136.922 1122.69 L117.015 1122.69 L117.015 1118.76 Z" fill="#000000" fill-rule="nonzero" fill-opacity="1" /><path clip-path="url(#clip810)" d="M146.366 1116.81 L151.251 1116.81 L151.251 1122.69 L146.366 1122.69 L146.366 1116.81 Z" fill="#000000" fill-rule="nonzero" fill-opacity="1" /><path clip-path="url(#clip810)" d="M165.464 1118.76 L181.783 1118.76 L181.783 1122.69 L159.839 1122.69 L159.839 1118.76 Q162.501 1116 167.084 1111.37 Q171.69 1106.72 172.871 1105.38 Q175.116 1102.85 175.996 1101.12 Q176.899 1099.36 176.899 1097.67 Q176.899 1094.91 174.954 1093.18 Q173.033 1091.44 169.931 1091.44 Q167.732 1091.44 165.278 1092.21 Q162.848 1092.97 160.07 1094.52 L160.07 1089.8 Q162.894 1088.66 165.348 1088.09 Q167.802 1087.51 169.839 1087.51 Q175.209 1087.51 178.403 1090.19 Q181.598 1092.88 181.598 1097.37 Q181.598 1099.5 180.788 1101.42 Q180.001 1103.32 177.894 1105.91 Q177.315 1106.58 174.214 1109.8 Q171.112 1112.99 165.464 1118.76 Z" fill="#000000" fill-rule="nonzero" fill-opacity="1" /><path clip-path="url(#clip810)" d="M114.931 845.402 L122.57 845.402 L122.57 819.037 L114.26 820.703 L114.26 816.444 L122.524 814.777 L127.2 814.777 L127.2 845.402 L134.839 845.402 L134.839 849.337 L114.931 849.337 L114.931 845.402 Z" fill="#000000" fill-rule="nonzero" fill-opacity="1" /><path clip-path="url(#clip810)" d="M144.283 843.458 L149.167 843.458 L149.167 849.337 L144.283 849.337 L144.283 843.458 Z" fill="#000000" fill-rule="nonzero" fill-opacity="1" /><path clip-path="url(#clip810)" d="M172.2 818.851 L160.394 837.3 L172.2 837.3 L172.2 818.851 M170.973 814.777 L176.852 814.777 L176.852 837.3 L181.783 837.3 L181.783 841.189 L176.852 841.189 L176.852 849.337 L172.2 849.337 L172.2 841.189 L156.598 841.189 L156.598 836.675 L170.973 814.777 Z" fill="#000000" fill-rule="nonzero" fill-opacity="1" /><path clip-path="url(#clip810)" d="M115.256 572.048 L122.894 572.048 L122.894 545.682 L114.584 547.349 L114.584 543.089 L122.848 541.423 L127.524 541.423 L127.524 572.048 L135.163 572.048 L135.163 575.983 L115.256 575.983 L115.256 572.048 Z" fill="#000000" fill-rule="nonzero" fill-opacity="1" /><path clip-path="url(#clip810)" d="M144.607 570.103 L149.491 570.103 L149.491 575.983 L144.607 575.983 L144.607 570.103 Z" fill="#000000" fill-rule="nonzero" fill-opacity="1" /><path clip-path="url(#clip810)" d="M170.255 556.839 Q167.107 556.839 165.255 558.992 Q163.427 561.145 163.427 564.895 Q163.427 568.622 165.255 570.798 Q167.107 572.95 170.255 572.95 Q173.403 572.95 175.232 570.798 Q177.084 568.622 177.084 564.895 Q177.084 561.145 175.232 558.992 Q173.403 556.839 170.255 556.839 M179.538 542.187 L179.538 546.446 Q177.778 545.613 175.973 545.173 Q174.19 544.733 172.431 544.733 Q167.802 544.733 165.348 547.858 Q162.917 550.983 162.57 557.302 Q163.936 555.289 165.996 554.224 Q168.056 553.136 170.533 553.136 Q175.741 553.136 178.751 556.307 Q181.783 559.455 181.783 564.895 Q181.783 570.219 178.635 573.437 Q175.487 576.654 170.255 576.654 Q164.26 576.654 161.089 572.071 Q157.917 567.464 157.917 558.738 Q157.917 550.543 161.806 545.682 Q165.695 540.798 172.246 540.798 Q174.005 540.798 175.788 541.145 Q177.593 541.492 179.538 542.187 Z" fill="#000000" fill-rule="nonzero" fill-opacity="1" /><path clip-path="url(#clip810)" d="M115.51 298.693 L123.149 298.693 L123.149 272.328 L114.839 273.994 L114.839 269.735 L123.103 268.068 L127.779 268.068 L127.779 298.693 L135.417 298.693 L135.417 302.628 L115.51 302.628 L115.51 298.693 Z" fill="#000000" fill-rule="nonzero" fill-opacity="1" /><path clip-path="url(#clip810)" d="M144.862 296.749 L149.746 296.749 L149.746 302.628 L144.862 302.628 L144.862 296.749 Z" fill="#000000" fill-rule="nonzero" fill-opacity="1" /><path clip-path="url(#clip810)" d="M169.931 286.216 Q166.598 286.216 164.677 287.999 Q162.778 289.781 162.778 292.906 Q162.778 296.031 164.677 297.813 Q166.598 299.596 169.931 299.596 Q173.264 299.596 175.186 297.813 Q177.107 296.008 177.107 292.906 Q177.107 289.781 175.186 287.999 Q173.288 286.216 169.931 286.216 M165.255 284.226 Q162.246 283.485 160.556 281.425 Q158.89 279.365 158.89 276.402 Q158.89 272.258 161.829 269.851 Q164.792 267.443 169.931 267.443 Q175.093 267.443 178.033 269.851 Q180.973 272.258 180.973 276.402 Q180.973 279.365 179.283 281.425 Q177.616 283.485 174.63 284.226 Q178.01 285.013 179.885 287.304 Q181.783 289.596 181.783 292.906 Q181.783 297.929 178.704 300.614 Q175.649 303.3 169.931 303.3 Q164.214 303.3 161.135 300.614 Q158.079 297.929 158.079 292.906 Q158.079 289.596 159.978 287.304 Q161.876 285.013 165.255 284.226 M163.542 276.841 Q163.542 279.527 165.209 281.031 Q166.899 282.536 169.931 282.536 Q172.94 282.536 174.63 281.031 Q176.343 279.527 176.343 276.841 Q176.343 274.156 174.63 272.652 Q172.94 271.147 169.931 271.147 Q166.899 271.147 165.209 272.652 Q163.542 274.156 163.542 276.841 Z" fill="#000000" fill-rule="nonzero" fill-opacity="1" /><path clip-path="url(#clip810)" d="M20.1444 1028.58 L26.9239 1028.58 Q23.9002 1031.82 22.4043 1035.51 Q20.9083 1039.17 20.9083 1043.31 Q20.9083 1051.46 25.9054 1055.79 Q30.8707 1060.12 40.2919 1060.12 Q49.6813 1060.12 54.6784 1055.79 Q59.6436 1051.46 59.6436 1043.31 Q59.6436 1039.17 58.1477 1035.51 Q56.6518 1031.82 53.6281 1028.58 L60.3439 1028.58 Q62.6355 1031.95 63.7814 1035.74 Q64.9272 1039.49 64.9272 1043.69 Q64.9272 1054.48 58.3387 1060.69 Q51.7183 1066.9 40.2919 1066.9 Q28.8336 1066.9 22.2451 1060.69 Q15.6248 1054.48 15.6248 1043.69 Q15.6248 1039.43 16.7706 1035.67 Q17.8846 1031.89 20.1444 1028.58 Z" fill="#000000" fill-rule="nonzero" fill-opacity="1" /><path clip-path="url(#clip810)" d="M49.9359 1019.5 L28.3562 1019.5 L28.3562 1013.65 L49.7131 1013.65 Q54.7739 1013.65 57.3202 1011.67 Q59.8346 1009.7 59.8346 1005.75 Q59.8346 1001.01 56.8109 998.275 Q53.7872 995.506 48.5673 995.506 L28.3562 995.506 L28.3562 989.649 L64.0042 989.649 L64.0042 995.506 L58.5296 995.506 Q61.7762 997.638 63.3676 1000.47 Q64.9272 1003.27 64.9272 1007 Q64.9272 1013.14 61.1078 1016.32 Q57.2883 1019.5 49.9359 1019.5 M27.4968 1004.77 L27.4968 1004.77 Z" fill="#000000" fill-rule="nonzero" fill-opacity="1" /><path clip-path="url(#clip810)" d="M35.1993 949.832 Q31.2526 947.636 29.3747 944.58 Q27.4968 941.525 27.4968 937.387 Q27.4968 931.817 31.4117 928.793 Q35.2948 925.769 42.4881 925.769 L64.0042 925.769 L64.0042 931.658 L42.679 931.658 Q37.5546 931.658 35.072 933.472 Q32.5894 935.286 32.5894 939.01 Q32.5894 943.562 35.6131 946.203 Q38.6368 948.845 43.8567 948.845 L64.0042 948.845 L64.0042 954.733 L42.679 954.733 Q37.5228 954.733 35.072 956.548 Q32.5894 958.362 32.5894 962.149 Q32.5894 966.637 35.6449 969.279 Q38.6686 971.921 43.8567 971.921 L64.0042 971.921 L64.0042 977.809 L28.3562 977.809 L28.3562 971.921 L33.8944 971.921 Q30.616 969.916 29.0564 967.115 Q27.4968 964.314 27.4968 960.462 Q27.4968 956.579 29.4702 953.874 Q31.4436 951.137 35.1993 949.832 Z" fill="#000000" fill-rule="nonzero" fill-opacity="1" /><path clip-path="url(#clip810)" d="M35.1993 886.334 Q31.2526 884.138 29.3747 881.082 Q27.4968 878.027 27.4968 873.889 Q27.4968 868.319 31.4117 865.295 Q35.2948 862.271 42.4881 862.271 L64.0042 862.271 L64.0042 868.16 L42.679 868.16 Q37.5546 868.16 35.072 869.974 Q32.5894 871.788 32.5894 875.512 Q32.5894 880.064 35.6131 882.705 Q38.6368 885.347 43.8567 885.347 L64.0042 885.347 L64.0042 891.235 L42.679 891.235 Q37.5228 891.235 35.072 893.05 Q32.5894 894.864 32.5894 898.651 Q32.5894 903.139 35.6449 905.781 Q38.6686 908.423 43.8567 908.423 L64.0042 908.423 L64.0042 914.311 L28.3562 914.311 L28.3562 908.423 L33.8944 908.423 Q30.616 906.418 29.0564 903.617 Q27.4968 900.816 27.4968 896.965 Q27.4968 893.081 29.4702 890.376 Q31.4436 887.639 35.1993 886.334 Z" fill="#000000" fill-rule="nonzero" fill-opacity="1" /><path clip-path="url(#clip810)" d="M49.9359 851.195 L28.3562 851.195 L28.3562 845.339 L49.7131 845.339 Q54.7739 845.339 57.3202 843.365 Q59.8346 841.392 59.8346 837.445 Q59.8346 832.703 56.8109 829.966 Q53.7872 827.196 48.5673 827.196 L28.3562 827.196 L28.3562 821.34 L64.0042 821.34 L64.0042 827.196 L58.5296 827.196 Q61.7762 829.329 63.3676 832.162 Q64.9272 834.963 64.9272 838.687 Q64.9272 844.829 61.1078 848.012 Q57.2883 851.195 49.9359 851.195 M27.4968 836.459 L27.4968 836.459 Z" fill="#000000" fill-rule="nonzero" fill-opacity="1" /><path clip-path="url(#clip810)" d="M14.479 809.277 L14.479 803.421 L64.0042 803.421 L64.0042 809.277 L14.479 809.277 Z" fill="#000000" fill-rule="nonzero" fill-opacity="1" /><path clip-path="url(#clip810)" d="M46.0847 774.966 Q46.0847 782.064 47.7079 784.801 Q49.3312 787.538 53.2461 787.538 Q56.3653 787.538 58.2114 785.501 Q60.0256 783.432 60.0256 779.899 Q60.0256 775.029 56.5881 772.101 Q53.1188 769.141 47.3897 769.141 L46.0847 769.141 L46.0847 774.966 M43.6657 763.285 L64.0042 763.285 L64.0042 769.141 L58.5933 769.141 Q61.8398 771.146 63.3994 774.138 Q64.9272 777.13 64.9272 781.459 Q64.9272 786.933 61.8716 790.18 Q58.7843 793.395 53.6281 793.395 Q47.6125 793.395 44.5569 789.384 Q41.5014 785.342 41.5014 777.353 L41.5014 769.141 L40.9285 769.141 Q36.8862 769.141 34.6901 771.815 Q32.4621 774.457 32.4621 779.263 Q32.4621 782.318 33.1941 785.215 Q33.9262 788.111 35.3903 790.785 L29.9795 790.785 Q28.7381 787.57 28.1334 784.546 Q27.4968 781.522 27.4968 778.658 Q27.4968 770.924 31.5072 767.104 Q35.5176 763.285 43.6657 763.285 Z" fill="#000000" fill-rule="nonzero" fill-opacity="1" /><path clip-path="url(#clip810)" d="M18.2347 745.429 L28.3562 745.429 L28.3562 733.366 L32.9077 733.366 L32.9077 745.429 L52.2594 745.429 Q56.6199 745.429 57.8613 744.251 Q59.1026 743.042 59.1026 739.382 L59.1026 733.366 L64.0042 733.366 L64.0042 739.382 Q64.0042 746.161 61.4897 748.739 Q58.9434 751.317 52.2594 751.317 L32.9077 751.317 L32.9077 755.614 L28.3562 755.614 L28.3562 751.317 L18.2347 751.317 L18.2347 745.429 Z" fill="#000000" fill-rule="nonzero" fill-opacity="1" /><path clip-path="url(#clip810)" d="M28.3562 725.663 L28.3562 719.807 L64.0042 719.807 L64.0042 725.663 L28.3562 725.663 M14.479 725.663 L14.479 719.807 L21.895 719.807 L21.895 725.663 L14.479 725.663 Z" fill="#000000" fill-rule="nonzero" fill-opacity="1" /><path clip-path="url(#clip810)" d="M28.3562 711.754 L28.3562 705.548 L58.275 694.408 L28.3562 683.268 L28.3562 677.061 L64.0042 690.429 L64.0042 698.386 L28.3562 711.754 Z" fill="#000000" fill-rule="nonzero" fill-opacity="1" /><path clip-path="url(#clip810)" d="M44.7161 638.485 L47.5806 638.485 L47.5806 665.412 Q53.6281 665.03 56.8109 661.784 Q59.9619 658.505 59.9619 652.681 Q59.9619 649.307 59.1344 646.156 Q58.3069 642.973 56.6518 639.854 L62.1899 639.854 Q63.5267 643.005 64.227 646.315 Q64.9272 649.625 64.9272 653.031 Q64.9272 661.561 59.9619 666.558 Q54.9967 671.523 46.5303 671.523 Q37.7774 671.523 32.6531 666.812 Q27.4968 662.07 27.4968 654.049 Q27.4968 646.856 32.1438 642.686 Q36.7589 638.485 44.7161 638.485 M42.9973 644.342 Q38.1912 644.405 35.3266 647.047 Q32.4621 649.657 32.4621 653.986 Q32.4621 658.887 35.2312 661.847 Q38.0002 664.775 43.0292 665.221 L42.9973 644.342 Z" fill="#000000" fill-rule="nonzero" fill-opacity="1" /><path clip-path="url(#clip810)" d="M41.7242 585.363 Q42.4244 583.294 44.7161 581.353 Q47.0077 579.379 51.0181 577.406 L64.0042 570.881 L64.0042 577.788 L51.8138 583.867 Q47.0395 586.223 45.48 588.451 Q43.9204 590.647 43.9204 594.466 L43.9204 601.468 L64.0042 601.468 L64.0042 607.898 L16.4842 607.898 L16.4842 593.384 Q16.4842 585.236 19.8898 581.226 Q23.2955 577.215 30.1704 577.215 Q34.6582 577.215 37.6183 579.316 Q40.5784 581.385 41.7242 585.363 M21.7677 601.468 L38.6368 601.468 L38.6368 593.384 Q38.6368 588.737 36.5043 586.382 Q34.34 583.995 30.1704 583.995 Q26.0009 583.995 23.9002 586.382 Q21.7677 588.737 21.7677 593.384 L21.7677 601.468 Z" fill="#000000" fill-rule="nonzero" fill-opacity="1" /><path clip-path="url(#clip810)" d="M44.7161 535.297 L47.5806 535.297 L47.5806 562.224 Q53.6281 561.842 56.8109 558.595 Q59.9619 555.317 59.9619 549.492 Q59.9619 546.119 59.1344 542.968 Q58.3069 539.785 56.6518 536.666 L62.1899 536.666 Q63.5267 539.817 64.227 543.127 Q64.9272 546.437 64.9272 549.843 Q64.9272 558.373 59.9619 563.37 Q54.9967 568.335 46.5303 568.335 Q37.7774 568.335 32.6531 563.624 Q27.4968 558.882 27.4968 550.861 Q27.4968 543.668 32.1438 539.498 Q36.7589 535.297 44.7161 535.297 M42.9973 541.153 Q38.1912 541.217 35.3266 543.859 Q32.4621 546.469 32.4621 550.797 Q32.4621 555.699 35.2312 558.659 Q38.0002 561.587 43.0292 562.033 L42.9973 541.153 Z" fill="#000000" fill-rule="nonzero" fill-opacity="1" /><path clip-path="url(#clip810)" d="M18.2347 519.892 L28.3562 519.892 L28.3562 507.829 L32.9077 507.829 L32.9077 519.892 L52.2594 519.892 Q56.6199 519.892 57.8613 518.714 Q59.1026 517.505 59.1026 513.845 L59.1026 507.829 L64.0042 507.829 L64.0042 513.845 Q64.0042 520.624 61.4897 523.202 Q58.9434 525.78 52.2594 525.78 L32.9077 525.78 L32.9077 530.077 L28.3562 530.077 L28.3562 525.78 L18.2347 525.78 L18.2347 519.892 Z" fill="#000000" fill-rule="nonzero" fill-opacity="1" /><path clip-path="url(#clip810)" d="M49.9359 500.731 L28.3562 500.731 L28.3562 494.875 L49.7131 494.875 Q54.7739 494.875 57.3202 492.901 Q59.8346 490.928 59.8346 486.981 Q59.8346 482.239 56.8109 479.502 Q53.7872 476.732 48.5673 476.732 L28.3562 476.732 L28.3562 470.876 L64.0042 470.876 L64.0042 476.732 L58.5296 476.732 Q61.7762 478.865 63.3676 481.698 Q64.9272 484.499 64.9272 488.223 Q64.9272 494.365 61.1078 497.548 Q57.2883 500.731 49.9359 500.731 M27.4968 485.995 L27.4968 485.995 Z" fill="#000000" fill-rule="nonzero" fill-opacity="1" /><path clip-path="url(#clip810)" d="M33.8307 438.156 Q33.2578 439.143 33.0032 440.321 Q32.7167 441.466 32.7167 442.867 Q32.7167 447.832 35.9632 450.506 Q39.1779 453.148 45.2253 453.148 L64.0042 453.148 L64.0042 459.036 L28.3562 459.036 L28.3562 453.148 L33.8944 453.148 Q30.6479 451.301 29.0883 448.341 Q27.4968 445.381 27.4968 441.148 Q27.4968 440.543 27.5923 439.811 Q27.656 439.079 27.8151 438.188 L33.8307 438.156 Z" fill="#000000" fill-rule="nonzero" fill-opacity="1" /><path clip-path="url(#clip810)" d="M42.4881 403.527 L64.0042 403.527 L64.0042 409.383 L42.679 409.383 Q37.6183 409.383 35.1038 411.357 Q32.5894 413.33 32.5894 417.277 Q32.5894 422.019 35.6131 424.756 Q38.6368 427.494 43.8567 427.494 L64.0042 427.494 L64.0042 433.382 L28.3562 433.382 L28.3562 427.494 L33.8944 427.494 Q30.6797 425.393 29.0883 422.56 Q27.4968 419.696 27.4968 415.972 Q27.4968 409.829 31.3163 406.678 Q35.1038 403.527 42.4881 403.527 Z" fill="#000000" fill-rule="nonzero" fill-opacity="1" /><polyline clip-path="url(#clip812)" style="stroke:#009af9; stroke-linecap:round; stroke-linejoin:round; stroke-width:4; stroke-opacity:1; fill:none" points="278.207,1384.24 279.589,1369.15 283.736,1339.68 285.119,1327.54 286.501,1325.62 287.883,1313.59 289.266,1310.94 293.413,1340.84 294.795,1345.2 296.178,1337.76 297.56,1334.11 298.942,1329.47 304.472,1337.8 305.854,1333.34 307.237,1341.92 308.619,1333.07 312.766,1339.29 314.149,1331.51 315.531,1316.4 316.913,1313.82 318.296,1309.34 322.443,1296.94 323.825,1301.06 325.208,1300.77 326.59,1299.33 327.972,1295.89 332.119,1292.9 333.502,1288.37 334.884,1280.55 336.267,1278.63 337.649,1273.28 343.178,1270.67 344.561,1270.32 345.943,1266.34 347.326,1244.58 351.473,1244.93 352.855,1251.41 354.238,1264.97 355.62,1269.83 357.002,1263.37 361.149,1265.69 362.532,1253.28 363.914,1260.91 365.297,1259.97 366.679,1264.73 370.768,1262.23 372.151,1255.8 373.533,1247.17 374.916,1295.17 376.298,1273.52 380.445,1270.7 381.827,1269.53 383.21,1273 384.592,1269.6 385.975,1281.43 390.122,1275.87 391.504,1276.74 392.887,1285.71 394.269,1277.4 395.651,1274.04 399.798,1273.91 401.181,1279.51 402.563,1275.41 403.946,1262.82 405.328,1249.19 409.475,1247.07 410.857,1249.84 412.24,1244.63 413.622,1241 415.005,1238.06 419.152,1233.27 420.534,1236.26 421.916,1230.28 423.299,1228.55 428.828,1216.88 430.211,1213.87 431.593,1215.99 432.975,1213.25 434.358,1215.21 438.505,1214.67 439.887,1205.83 441.27,1214.81 442.652,1213.03 444.035,1194.08 448.182,1206.8 449.564,1215.07 450.946,1214.58 452.329,1213.03 453.711,1218.17 457.858,1248.57 459.241,1247.99 460.623,1240.22 462.005,1226.31 463.388,1222.74 467.535,1226.89 468.917,1211.94 470.3,1215.68 471.682,1238.07 473.064,1236.03 478.594,1259.59 479.976,1276.54 481.359,1217.21 482.741,1225.8 486.888,1212.11 488.271,1194.69 489.653,1196.23 491.035,1180.92 492.418,1165.57 496.565,1154.84 497.947,1153.77 499.33,1144.41 500.712,1138.64 502.094,1143.32 506.242,1142.71 507.624,1132.26 509.006,1123.13 510.389,1120.09 511.771,1127.29 515.918,1135.41 517.301,1142.44 518.683,1143.3 520.065,1137.55 521.448,1145.92 525.595,1131.87 526.977,1119.81 528.36,1107.24 531.124,1094.33 535.272,1107.19 536.654,1099.28 538.036,1088.13 539.419,1083.22 540.801,1067.75 544.948,1069.64 546.331,1052.05 547.713,1058.9 549.095,1068.82 550.478,1077.31 554.625,1095.45 556.007,1094.46 557.39,1080.09 558.772,1090.11 560.154,1063.67 564.301,1079.54 565.684,1097.46 567.066,1096.88 568.449,1101.49 569.831,1081.02 573.978,1107.52 575.36,1088.18 576.743,1086.49 578.125,1059.57 579.508,1065.44 583.655,1075.54 585.037,1071.25 586.42,1082.41 587.802,1080.9 589.184,1059.96 593.331,1036.77 594.714,1047.49 596.096,1036.5 597.479,1035.99 598.861,1057.09 603.008,1037.8 604.39,1049.25 605.773,1031.58 607.155,945.322 608.538,949.872 614.067,939.16 615.449,922.22 616.832,913.781 618.214,898.316 622.361,909.412 623.744,933.659 625.126,931.103 626.508,927.473 627.891,924.919 632.038,950.924 633.42,913.597 634.803,923.922 636.185,920.278 637.568,935.429 641.715,925.458 643.097,930.158 644.479,927.435 645.862,921.172 647.244,917.026 651.391,919.635 652.774,925.102 654.156,933.534 655.538,934.172 656.921,915.204 661.068,915.187 662.45,921.675 663.833,915.766 665.215,917.995 666.597,909.66 670.745,911.35 672.127,905.693 673.509,917.843 674.892,904.425 676.274,899.793 680.421,900.819 681.804,899.423 683.186,914.574 684.568,901.886 685.951,902.342 690.098,901.829 691.48,916.283 692.863,897.051 694.245,896.339 695.627,895.308 699.832,908.028 701.215,895.364 702.597,899.904 703.979,899.673 705.362,904.863 709.509,907.128 710.891,903.665 712.274,898.02 713.656,878.527 715.038,876.615 719.185,878.717 720.568,886.511 721.95,881.826 723.333,880.549 724.715,885.435 728.862,882.224 730.244,890.307 731.627,882.547 734.392,895.992 738.539,917.152 739.921,934.649 741.303,929.514 742.686,929.994 744.068,927.311 748.215,927.018 749.598,918.187 750.98,927.052 752.363,905.954 753.745,907.358 757.892,917.902 759.274,911.902 760.657,910.401 762.039,898.41 763.422,898.024 767.569,890.18 768.951,885.884 771.716,886.94 773.098,880.292 777.245,880.253 778.628,882.606 781.392,881.815 782.775,892.037 786.922,898.53 788.304,913.929 789.687,918.874 791.069,909.823 792.451,908.634 796.599,903.496 797.981,882.426 799.363,884.352 800.746,868.066 802.128,866.368 807.658,868.477 809.04,876.647 810.422,870.095 811.805,884.679 815.952,893.064 817.334,883.663 818.717,888.055 820.099,887.971 821.481,907.983 825.629,888.421 827.011,875.556 828.393,869.55 829.776,878.479 831.158,886.443 835.305,877.207 836.688,873.013 838.07,854.85 839.452,846.015 840.835,853.006 846.364,836.938 847.747,821.295 849.129,811.923 850.511,813.219 854.659,837.983 856.041,863.927 857.423,864.325 858.806,913.597 860.188,966.192 864.335,896.371 865.718,934.648 867.1,909.816 868.482,933.622 869.865,937.682 873.954,972.35 875.337,895.674 876.719,985.183 878.101,1150.92 879.484,1094.43 883.631,1273.34 885.013,1169.45 886.396,1320.05 887.778,1351.57 889.16,1347.72 893.308,1375.64 894.69,1217.08 896.072,1215.92 897.455,1184.03 898.837,1233.31 902.984,1206.07 904.367,1184.73 905.749,1178.84 907.131,1130.57 908.514,1133 912.661,1066.54 914.043,1066.41 915.426,1046.34 916.808,1003.06 922.337,994.783 923.72,941.96 925.102,960.455 926.485,894.999 927.867,848.67 932.014,903.957 933.397,960.852 934.779,937.781 936.161,922.542 937.544,949.257 941.691,921.679 943.073,923.975 944.456,902.243 945.838,903.218 947.22,944.364 951.367,932.276 952.75,970.32 954.132,961.182 955.515,982.465 956.897,962.283 961.044,921.075 962.426,932.534 963.809,942.437 965.191,945.5 966.574,932.559 970.721,889.058 972.103,896.039 973.485,894.715 974.868,883.484 976.25,881.299 981.78,854.215 983.162,800.34 984.545,832.261 985.927,808.754 990.074,774.295 991.456,775.733 992.839,777.235 994.221,804.502 995.604,781.138 999.751,780.637 1001.13,790.367 1002.52,781.181 1003.9,845.369 1005.28,847.238 1009.43,811.677 1010.81,799.526 1012.19,811.131 1013.57,800.28 1014.96,822.127 1019.1,782.207 1020.49,807.493 1021.87,813.52 1023.25,808.899 1024.63,828.794 1028.78,816.4 1030.16,817.03 1031.55,819.312 1032.93,821.361 1038.46,833.269 1039.84,824.272 1041.22,832.5 1042.6,821.335 1043.99,827.628 1048.13,846.246 1049.52,824.576 1050.9,810.659 1052.28,823.122 1053.66,827.505 1057.81,806.695 1059.19,808.326 1060.58,788.134 1061.96,805.562 1063.34,795.959 1067.49,809.44 1068.87,817.678 1070.25,803.769 1071.63,801.374 1073.02,810.868 1077.16,795.165 1078.55,780.437 1079.93,776.488 1081.31,788.631 1082.69,770.108 1086.84,771.833 1088.22,778.813 1089.61,748.31 1090.99,748.773 1092.37,732.596 1096.52,715.371 1097.9,731.586 1099.28,723.546 1100.66,751.992 1102.05,743.433 1106.19,741.558 1107.58,735.88 1108.96,723.547 1110.34,740.767 1111.72,735.231 1115.87,733.974 1117.25,747.28 1118.64,717.865 1120.02,767.078 1121.4,778.851 1126.93,789.645 1128.31,764.97 1129.69,781.04 1131.08,760.533 1135.22,736.718 1136.61,751.503 1137.99,747.565 1139.37,749.313 1140.75,739.042 1144.9,781.615 1146.28,760.678 1147.67,783.092 1149.05,781.506 1150.43,769.21 1154.58,751.055 1155.96,748.249 1157.34,744.141 1158.72,727.192 1160.11,736.387 1164.25,720.371 1165.64,728.527 1167.02,703.194 1168.4,664.929 1169.78,658.546 1173.93,662.044 1175.31,653.872 1176.7,669.434 1178.08,660.199 1179.46,678.462 1183.61,699.731 1184.99,696.661 1186.37,687.624 1187.75,705.197 1189.14,699.507 1193.28,737.287 1194.67,720.869 1196.05,758.085 1197.43,739.856 1198.81,753.814 1203.02,737.503 1204.4,702.85 1205.78,684.378 1207.17,662.529 1208.55,643.193 1212.69,684.422 1214.08,692.301 1215.46,656.41 1216.84,610.96 1218.22,597.93 1222.37,560.936 1223.75,583.401 1225.14,596.213 1226.52,588.101 1227.9,587.626 1232.05,585.305 1233.43,570.242 1234.81,557.23 1237.58,552.934 1241.72,564.9 1243.11,553.022 1244.49,562.975 1245.87,568.75 1247.25,589.135 1251.4,574.685 1252.78,586.601 1254.17,599.364 1255.55,598.999 1256.93,612.549 1261.08,611.308 1262.46,597.94 1263.84,585.006 1265.22,580.943 1266.61,592.526 1270.75,594.432 1272.14,579.536 1273.52,596.316 1274.9,592.566 1280.43,593.469 1281.81,585.296 1283.2,579.885 1284.58,569.659 1290.11,583.085 1291.49,593.275 1292.87,530.516 1294.25,529.682 1295.64,548.769 1299.78,562.877 1301.17,547.179 1302.55,525.858 1303.93,550.428 1305.31,555.798 1310.84,574.853 1312.23,565.737 1313.61,576.901 1314.99,573.975 1319.14,570.242 1320.52,558.426 1321.9,605.472 1323.28,625.289 1324.67,658.437 1328.81,658.705 1330.2,645.917 1331.58,644.258 1332.96,635.462 1334.34,639.73 1338.49,604.418 1339.87,576.522 1341.26,584.387 1342.64,596.692 1344.02,603.12 1349.55,598.867 1350.93,594.501 1352.31,584.076 1353.7,591.933 1357.84,598.844 1359.23,633.284 1360.61,640.203 1361.99,668.428 1363.37,651.984 1367.52,628.448 1368.9,663.814 1370.29,688.207 1371.67,727.24 1373.05,712.499 1377.2,697.86 1378.58,677.571 1379.96,663.167 1381.34,643.005 1382.73,622.411 1386.82,596.46 1388.2,587.134 1389.58,621.745 1390.96,684.409 1392.35,637.806 1396.49,594.019 1397.88,577.873 1399.26,584.838 1400.64,574.232 1402.02,540.619 1406.17,546.76 1407.55,553.093 1408.93,549.045 1410.32,533.037 1415.85,492.24 1417.23,489.859 1418.61,486.152 1419.99,475.952 1421.38,467.353 1425.52,465.438 1426.91,450.147 1428.29,445.334 1429.67,437.981 1431.05,438.589 1435.2,440.717 1436.58,428.252 1437.96,433.69 1439.35,443.837 1440.73,449.934 1444.88,449.203 1446.26,440.877 1447.64,450.092 1449.02,421.735 1450.41,424.144 1454.55,405.056 1455.94,410.232 1457.32,411.93 1458.7,399.101 1460.08,386.017 1464.23,397.054 1465.61,433.793 1466.99,482.317 1468.38,471.942 1469.76,465.668 1473.91,483.728 1475.29,481.404 1476.67,507.882 1478.05,479.875 1479.44,482.591 1483.58,511.154 1484.97,508.626 1486.35,496.98 1487.73,460.323 1489.11,470.096 1494.64,474.687 1496.02,464.124 1497.41,446.311 1498.79,434.656 1502.94,428.817 1504.32,419.314 1505.7,434.726 1507.08,431.404 1508.47,412.754 1512.61,408.634 1514,396.654 1515.38,397.07 1516.76,389.804 1518.14,401.837 1522.29,394.466 1523.67,392.225 1525.05,400.264 1526.44,398.596 1527.82,402.87 1531.97,390.11 1533.35,377.569 1534.73,373.56 1536.11,356.071 1537.5,342.571 1543.03,343.225 1544.41,325.901 1545.79,343.591 1547.17,331.452 1551.32,336.629 1552.7,335.42 1554.08,328.833 1555.47,333.036 1556.85,339.21 1561,348.109 1562.38,302.07 1563.76,309.306 1565.14,300.438 1566.53,276.19 1570.67,279.113 1572.06,259.763 1573.44,273.926 1574.82,261.116 1576.2,256.933 1580.35,263.006 1581.73,262.047 1583.11,259.15 1584.5,243.462 1585.88,241.84 1590.03,263.679 1591.41,255.492 1592.79,250.056 1594.17,247.91 1595.56,237.045 1599.7,227.854 1601.09,266.659 1602.47,289.062 1603.85,288.427 1605.23,271.113 1609.38,270.31 1610.76,272.934 1612.14,247.823 1613.53,305.015 1614.91,312.145 1619.06,312.793 1620.44,328.149 1621.82,325.449 1623.2,308.195 1624.59,324.867 1630.12,342.748 1631.5,321.512 1632.88,345.289 1634.26,357.647 1638.41,350.916 1639.79,367.949 1641.17,352.225 1642.56,330.048 1643.94,319.325 1648.09,321.768 1649.47,343.756 1650.85,343.153 1652.23,336.041 1653.62,339.193 1657.76,344.112 1659.15,355.664 1660.53,356.933 1661.91,388.066 1663.29,395.233 1667.44,416.642 1668.82,420.066 1670.2,416.231 1671.59,382.225 1672.97,402.299 1677.12,409.573 1678.5,411.434 1679.88,411.694 1681.26,377.334 1682.65,368.728 1686.79,368.963 1688.18,374.642 1689.56,348.403 1690.94,332.298 1692.32,326.951 1696.47,319.164 1697.85,329.668 1699.23,337.14 1700.62,315.809 1702,324.881 1706.15,301.578 1707.53,295.181 1708.91,270.79 1710.29,263.132 1711.68,247.417 1715.88,276.942 1717.26,291.364 1718.65,293.28 1720.03,286.072 1721.41,266.131 1725.56,239.706 1726.94,214.176 1728.32,242.391 1729.7,253.567 1731.09,257.573 1735.23,260.128 1736.62,252.469 1738,259.383 1740.76,272.891 1744.91,267.117 1746.29,297.301 1747.68,302.774 1749.06,320.757 1750.44,298.596 1754.59,272.203 1755.97,258.527 1757.35,275.029 1758.73,278.365 1760.12,265.917 1764.26,255.68 1765.65,261.099 1767.03,249.563 1768.41,262.803 1769.79,293.371 1773.94,304.376 1775.32,287.871 1776.7,297.825 1778.09,276.388 1783.62,261.089 1785,246.6 1786.38,211.72 1787.76,196.676 1789.15,191.501 1793.29,196.484 1794.68,223.498 1796.06,231.181 1797.44,216.019 1798.82,217.765 1802.97,226.673 1804.35,254.935 1805.73,253.346 1807.12,273.528 1808.5,318.71 1814.03,324.708 1815.41,312.333 1816.79,375.352 1818.18,386.164 1822.32,354.541 1823.71,377.938 1825.09,420.565 1826.47,412.883 1827.85,409.292 1832,375.971 1833.38,362.795 1834.76,383.796 1836.15,390.699 1837.53,415.482 1841.68,424.04 1843.06,393.843 1844.44,376.322 1845.82,413.015 1847.21,433.555 1851.35,439.755 1852.74,444.328 1854.12,453.448 1855.5,461.354 1856.88,439.262 1862.41,496.375 1863.79,526.099 1865.18,507.732 1866.56,448.118 1870.71,448.848 1872.09,446.975 1873.47,407.778 1874.85,406.097 1876.24,386.104 1880.38,446.392 1881.77,464.336 1883.15,432.109 1884.53,433.876 1885.91,462.704 1890,462.548 1891.38,431.85 1892.77,434.271 1894.15,361.977 1895.53,313.836 1899.68,316.123 1901.06,313.897 1902.44,345.138 1903.83,342.523 1905.21,326.789 1909.36,297.451 1910.74,283.66 1912.12,286.068 1913.5,310.333 1914.89,289.955 1919.03,285.402 1920.41,284.404 1921.8,241.632 1923.18,233.547 1924.56,219.968 1928.71,243.797 1930.09,243.545 1931.47,227.618 1932.86,227.526 1938.39,225.65 1939.77,184.641 1941.15,167.439 1942.53,202.695 1943.92,248.5 1948.06,252.782 1949.44,284.648 1950.83,296.964 1952.21,273.202 1953.59,353.195 1957.74,344.755 1959.12,343.72 1960.5,295.649 1961.89,360.032 1963.27,363.071 1967.42,393.302 1968.8,422.596 1970.18,424.989 1971.56,419.491 1972.95,396.039 1977.09,392.225 1978.47,406.973 1979.86,542.869 1981.24,548.333 1982.62,612.722 1986.77,570.589 1988.15,571.01 1989.53,567.592 1990.92,409.174 1992.3,363.254 1997.83,390.693 1999.21,418.077 2000.59,368.689 2001.98,370.455 2006.12,338.101 2007.5,330.593 2008.89,342.229 2010.27,316.603 2011.65,350.892 2015.8,411.128 2017.18,403.951 2018.56,379.593 2019.95,412.123 2021.33,420.592 2026.86,378.442 2028.24,370.525 2029.62,338.292 2031.01,291.519 2035.15,298.272 2036.53,331.008 2037.92,326.332 2039.3,330.44 2040.68,305.484 2046.21,286.096 2047.59,275.345 2048.98,262.733 2050.36,258.333 2054.51,249.268 2055.89,280.792 2057.27,279.848 2058.65,271.757 2060.03,297.937 2064.18,282.154 2065.56,261.863 2066.95,250.829 2068.33,260.229 2069.71,259.471 2073.86,258.496 2075.24,304.299 2076.62,272.029 2078.01,247.646 2079.39,222.809 2083.54,198.995 2084.92,197.2 2086.3,159.789 2087.68,179.054 2089.06,190.118 2093.21,162.664 2094.59,171.029 2095.98,155.965 2097.36,158.352 2098.74,156.402 2102.89,160.012 2104.27,148.458 2105.65,164.723 2107.04,162.005 2108.42,158.619 2112.57,217.125 2113.95,212.389 2115.33,207.656 2116.71,223.923 2118.09,308.657 2122.24,306.493 2123.62,317.443 2125.01,323.951 2126.39,288.286 2127.77,301.344 2133.3,307.494 2134.68,249.543 2136.07,229.475 2137.45,214.12 2141.6,193.852 2142.98,245.287 2144.36,266.598 2145.74,285.287 2147.12,282.703 2151.27,260.064 2152.65,270.485 2154.04,302.912 2155.42,326.002 2156.8,319.301 2160.95,348.249 2162.33,356.881 2163.71,311.501 2165.1,353.5 2166.48,352.787 2170.63,308.245 2172.01,275.816 2173.39,303.565 2174.77,291.746 2176.15,312.407 2180.3,310.804 2181.68,292.637 2183.07,301.272 2184.45,263.815 2185.83,305.307 2189.98,296.005 2191.36,282.645 2192.74,287.895 2194.13,297.525 2195.51,274.562 2199.66,271.129 2201.04,241.037 2202.42,232.232 2203.8,234.514 2205.18,192.589 2209.33,224.153 2210.71,236.874 2212.1,266.013 2213.48,266.378 2214.86,246.336 2219.07,227.324 2220.45,220.015 2221.83,266.879 2223.21,193.724 2224.6,210.97 2228.74,221.506 2230.13,165.069 2231.51,166.21 2232.89,169.268 2234.27,149.885 2238.42,106.4 2239.8,92.57 2241.18,89.7176 2243.95,86.1857 2248.1,120.423 2249.48,142.346 2250.86,123.374 2252.24,200.826 2253.63,172.603 2257.77,181.368 2259.16,182.821 2260.54,160.004 2261.92,163.93 2263.3,188.834 2267.45,183.172 2268.83,195.452 2270.21,179.758 2271.6,197.529 2272.98,193.556 2277.13,219.195 2278.51,227.899 2279.89,195.427 2281.27,190.799 2282.66,175.735 2288.19,189.463 2289.57,191.443 2290.95,160.764 2292.33,159.654 "/>
</svg>
