<?xml version="1.0" encoding="utf-8"?>
<svg xmlns="http://www.w3.org/2000/svg" xmlns:xlink="http://www.w3.org/1999/xlink" width="600" height="400" viewBox="0 0 2400 1600">
<defs>
  <clipPath id="clip140">
    <rect x="0" y="0" width="2400" height="1600"/>
  </clipPath>
</defs>
<path clip-path="url(#clip140)" d="M0 1600 L2400 1600 L2400 0 L0 0  Z" fill="#ffffff" fill-rule="evenodd" fill-opacity="1"/>
<defs>
  <clipPath id="clip141">
    <rect x="480" y="0" width="1681" height="1600"/>
  </clipPath>
</defs>
<path clip-path="url(#clip140)" d="M203.964 1369.92 L2352.76 1369.92 L2352.76 47.2441 L203.964 47.2441  Z" fill="#ffffff" fill-rule="evenodd" fill-opacity="1"/>
<defs>
  <clipPath id="clip142">
    <rect x="203" y="47" width="2150" height="1324"/>
  </clipPath>
</defs>
<polyline clip-path="url(#clip142)" style="stroke:#000000; stroke-linecap:round; stroke-linejoin:round; stroke-width:2; stroke-opacity:0.1; fill:none" points="352.996,1369.92 352.996,47.2441 "/>
<polyline clip-path="url(#clip142)" style="stroke:#000000; stroke-linecap:round; stroke-linejoin:round; stroke-width:2; stroke-opacity:0.1; fill:none" points="430.11,1369.92 430.11,47.2441 "/>
<polyline clip-path="url(#clip142)" style="stroke:#000000; stroke-linecap:round; stroke-linejoin:round; stroke-width:2; stroke-opacity:0.1; fill:none" points="507.224,1369.92 507.224,47.2441 "/>
<polyline clip-path="url(#clip142)" style="stroke:#000000; stroke-linecap:round; stroke-linejoin:round; stroke-width:2; stroke-opacity:0.1; fill:none" points="584.337,1369.92 584.337,47.2441 "/>
<polyline clip-path="url(#clip142)" style="stroke:#000000; stroke-linecap:round; stroke-linejoin:round; stroke-width:2; stroke-opacity:0.1; fill:none" points="661.451,1369.92 661.451,47.2441 "/>
<polyline clip-path="url(#clip142)" style="stroke:#000000; stroke-linecap:round; stroke-linejoin:round; stroke-width:2; stroke-opacity:0.1; fill:none" points="738.564,1369.92 738.564,47.2441 "/>
<polyline clip-path="url(#clip142)" style="stroke:#000000; stroke-linecap:round; stroke-linejoin:round; stroke-width:2; stroke-opacity:0.1; fill:none" points="815.678,1369.92 815.678,47.2441 "/>
<polyline clip-path="url(#clip142)" style="stroke:#000000; stroke-linecap:round; stroke-linejoin:round; stroke-width:2; stroke-opacity:0.1; fill:none" points="892.792,1369.92 892.792,47.2441 "/>
<polyline clip-path="url(#clip142)" style="stroke:#000000; stroke-linecap:round; stroke-linejoin:round; stroke-width:2; stroke-opacity:0.1; fill:none" points="969.905,1369.92 969.905,47.2441 "/>
<polyline clip-path="url(#clip142)" style="stroke:#000000; stroke-linecap:round; stroke-linejoin:round; stroke-width:2; stroke-opacity:0.1; fill:none" points="1047.02,1369.92 1047.02,47.2441 "/>
<polyline clip-path="url(#clip142)" style="stroke:#000000; stroke-linecap:round; stroke-linejoin:round; stroke-width:2; stroke-opacity:0.1; fill:none" points="1124.13,1369.92 1124.13,47.2441 "/>
<polyline clip-path="url(#clip142)" style="stroke:#000000; stroke-linecap:round; stroke-linejoin:round; stroke-width:2; stroke-opacity:0.1; fill:none" points="1201.25,1369.92 1201.25,47.2441 "/>
<polyline clip-path="url(#clip142)" style="stroke:#000000; stroke-linecap:round; stroke-linejoin:round; stroke-width:2; stroke-opacity:0.1; fill:none" points="1278.36,1369.92 1278.36,47.2441 "/>
<polyline clip-path="url(#clip142)" style="stroke:#000000; stroke-linecap:round; stroke-linejoin:round; stroke-width:2; stroke-opacity:0.1; fill:none" points="1355.47,1369.92 1355.47,47.2441 "/>
<polyline clip-path="url(#clip142)" style="stroke:#000000; stroke-linecap:round; stroke-linejoin:round; stroke-width:2; stroke-opacity:0.1; fill:none" points="1432.59,1369.92 1432.59,47.2441 "/>
<polyline clip-path="url(#clip142)" style="stroke:#000000; stroke-linecap:round; stroke-linejoin:round; stroke-width:2; stroke-opacity:0.1; fill:none" points="1509.7,1369.92 1509.7,47.2441 "/>
<polyline clip-path="url(#clip142)" style="stroke:#000000; stroke-linecap:round; stroke-linejoin:round; stroke-width:2; stroke-opacity:0.1; fill:none" points="1586.81,1369.92 1586.81,47.2441 "/>
<polyline clip-path="url(#clip142)" style="stroke:#000000; stroke-linecap:round; stroke-linejoin:round; stroke-width:2; stroke-opacity:0.1; fill:none" points="1663.93,1369.92 1663.93,47.2441 "/>
<polyline clip-path="url(#clip142)" style="stroke:#000000; stroke-linecap:round; stroke-linejoin:round; stroke-width:2; stroke-opacity:0.1; fill:none" points="1741.04,1369.92 1741.04,47.2441 "/>
<polyline clip-path="url(#clip142)" style="stroke:#000000; stroke-linecap:round; stroke-linejoin:round; stroke-width:2; stroke-opacity:0.1; fill:none" points="1818.16,1369.92 1818.16,47.2441 "/>
<polyline clip-path="url(#clip142)" style="stroke:#000000; stroke-linecap:round; stroke-linejoin:round; stroke-width:2; stroke-opacity:0.1; fill:none" points="1895.27,1369.92 1895.27,47.2441 "/>
<polyline clip-path="url(#clip142)" style="stroke:#000000; stroke-linecap:round; stroke-linejoin:round; stroke-width:2; stroke-opacity:0.1; fill:none" points="1972.38,1369.92 1972.38,47.2441 "/>
<polyline clip-path="url(#clip142)" style="stroke:#000000; stroke-linecap:round; stroke-linejoin:round; stroke-width:2; stroke-opacity:0.1; fill:none" points="2049.5,1369.92 2049.5,47.2441 "/>
<polyline clip-path="url(#clip142)" style="stroke:#000000; stroke-linecap:round; stroke-linejoin:round; stroke-width:2; stroke-opacity:0.1; fill:none" points="2126.61,1369.92 2126.61,47.2441 "/>
<polyline clip-path="url(#clip142)" style="stroke:#000000; stroke-linecap:round; stroke-linejoin:round; stroke-width:2; stroke-opacity:0.1; fill:none" points="2203.72,1369.92 2203.72,47.2441 "/>
<polyline clip-path="url(#clip142)" style="stroke:#000000; stroke-linecap:round; stroke-linejoin:round; stroke-width:2; stroke-opacity:0.1; fill:none" points="203.964,1369.92 2352.76,1369.92 "/>
<polyline clip-path="url(#clip142)" style="stroke:#000000; stroke-linecap:round; stroke-linejoin:round; stroke-width:2; stroke-opacity:0.1; fill:none" points="203.964,1030.14 2352.76,1030.14 "/>
<polyline clip-path="url(#clip142)" style="stroke:#000000; stroke-linecap:round; stroke-linejoin:round; stroke-width:2; stroke-opacity:0.1; fill:none" points="203.964,690.354 2352.76,690.354 "/>
<polyline clip-path="url(#clip142)" style="stroke:#000000; stroke-linecap:round; stroke-linejoin:round; stroke-width:2; stroke-opacity:0.1; fill:none" points="203.964,350.573 2352.76,350.573 "/>
<polyline clip-path="url(#clip140)" style="stroke:#000000; stroke-linecap:round; stroke-linejoin:round; stroke-width:4; stroke-opacity:1; fill:none" points="203.964,1369.92 2352.76,1369.92 "/>
<polyline clip-path="url(#clip140)" style="stroke:#000000; stroke-linecap:round; stroke-linejoin:round; stroke-width:4; stroke-opacity:1; fill:none" points="352.996,1369.92 352.996,1351.02 "/>
<polyline clip-path="url(#clip140)" style="stroke:#000000; stroke-linecap:round; stroke-linejoin:round; stroke-width:4; stroke-opacity:1; fill:none" points="430.11,1369.92 430.11,1351.02 "/>
<polyline clip-path="url(#clip140)" style="stroke:#000000; stroke-linecap:round; stroke-linejoin:round; stroke-width:4; stroke-opacity:1; fill:none" points="507.224,1369.92 507.224,1351.02 "/>
<polyline clip-path="url(#clip140)" style="stroke:#000000; stroke-linecap:round; stroke-linejoin:round; stroke-width:4; stroke-opacity:1; fill:none" points="584.337,1369.92 584.337,1351.02 "/>
<polyline clip-path="url(#clip140)" style="stroke:#000000; stroke-linecap:round; stroke-linejoin:round; stroke-width:4; stroke-opacity:1; fill:none" points="661.451,1369.92 661.451,1351.02 "/>
<polyline clip-path="url(#clip140)" style="stroke:#000000; stroke-linecap:round; stroke-linejoin:round; stroke-width:4; stroke-opacity:1; fill:none" points="738.564,1369.92 738.564,1351.02 "/>
<polyline clip-path="url(#clip140)" style="stroke:#000000; stroke-linecap:round; stroke-linejoin:round; stroke-width:4; stroke-opacity:1; fill:none" points="815.678,1369.92 815.678,1351.02 "/>
<polyline clip-path="url(#clip140)" style="stroke:#000000; stroke-linecap:round; stroke-linejoin:round; stroke-width:4; stroke-opacity:1; fill:none" points="892.792,1369.92 892.792,1351.02 "/>
<polyline clip-path="url(#clip140)" style="stroke:#000000; stroke-linecap:round; stroke-linejoin:round; stroke-width:4; stroke-opacity:1; fill:none" points="969.905,1369.92 969.905,1351.02 "/>
<polyline clip-path="url(#clip140)" style="stroke:#000000; stroke-linecap:round; stroke-linejoin:round; stroke-width:4; stroke-opacity:1; fill:none" points="1047.02,1369.92 1047.02,1351.02 "/>
<polyline clip-path="url(#clip140)" style="stroke:#000000; stroke-linecap:round; stroke-linejoin:round; stroke-width:4; stroke-opacity:1; fill:none" points="1124.13,1369.92 1124.13,1351.02 "/>
<polyline clip-path="url(#clip140)" style="stroke:#000000; stroke-linecap:round; stroke-linejoin:round; stroke-width:4; stroke-opacity:1; fill:none" points="1201.25,1369.92 1201.25,1351.02 "/>
<polyline clip-path="url(#clip140)" style="stroke:#000000; stroke-linecap:round; stroke-linejoin:round; stroke-width:4; stroke-opacity:1; fill:none" points="1278.36,1369.92 1278.36,1351.02 "/>
<polyline clip-path="url(#clip140)" style="stroke:#000000; stroke-linecap:round; stroke-linejoin:round; stroke-width:4; stroke-opacity:1; fill:none" points="1355.47,1369.92 1355.47,1351.02 "/>
<polyline clip-path="url(#clip140)" style="stroke:#000000; stroke-linecap:round; stroke-linejoin:round; stroke-width:4; stroke-opacity:1; fill:none" points="1432.59,1369.92 1432.59,1351.02 "/>
<polyline clip-path="url(#clip140)" style="stroke:#000000; stroke-linecap:round; stroke-linejoin:round; stroke-width:4; stroke-opacity:1; fill:none" points="1509.7,1369.92 1509.7,1351.02 "/>
<polyline clip-path="url(#clip140)" style="stroke:#000000; stroke-linecap:round; stroke-linejoin:round; stroke-width:4; stroke-opacity:1; fill:none" points="1586.81,1369.92 1586.81,1351.02 "/>
<polyline clip-path="url(#clip140)" style="stroke:#000000; stroke-linecap:round; stroke-linejoin:round; stroke-width:4; stroke-opacity:1; fill:none" points="1663.93,1369.92 1663.93,1351.02 "/>
<polyline clip-path="url(#clip140)" style="stroke:#000000; stroke-linecap:round; stroke-linejoin:round; stroke-width:4; stroke-opacity:1; fill:none" points="1741.04,1369.92 1741.04,1351.02 "/>
<polyline clip-path="url(#clip140)" style="stroke:#000000; stroke-linecap:round; stroke-linejoin:round; stroke-width:4; stroke-opacity:1; fill:none" points="1818.16,1369.92 1818.16,1351.02 "/>
<polyline clip-path="url(#clip140)" style="stroke:#000000; stroke-linecap:round; stroke-linejoin:round; stroke-width:4; stroke-opacity:1; fill:none" points="1895.27,1369.92 1895.27,1351.02 "/>
<polyline clip-path="url(#clip140)" style="stroke:#000000; stroke-linecap:round; stroke-linejoin:round; stroke-width:4; stroke-opacity:1; fill:none" points="1972.38,1369.92 1972.38,1351.02 "/>
<polyline clip-path="url(#clip140)" style="stroke:#000000; stroke-linecap:round; stroke-linejoin:round; stroke-width:4; stroke-opacity:1; fill:none" points="2049.5,1369.92 2049.5,1351.02 "/>
<polyline clip-path="url(#clip140)" style="stroke:#000000; stroke-linecap:round; stroke-linejoin:round; stroke-width:4; stroke-opacity:1; fill:none" points="2126.61,1369.92 2126.61,1351.02 "/>
<polyline clip-path="url(#clip140)" style="stroke:#000000; stroke-linecap:round; stroke-linejoin:round; stroke-width:4; stroke-opacity:1; fill:none" points="2203.72,1369.92 2203.72,1351.02 "/>
<path clip-path="url(#clip140)" d="M340.323 1465.25 L357.522 1471.59 L357.522 1458.88 L340.323 1465.25 M335.716 1467.89 L335.716 1462.59 L370.276 1449.42 L370.276 1454.28 L361.411 1457.43 L361.411 1473 L370.276 1476.15 L370.276 1481.08 L335.716 1467.89 Z" fill="#000000" fill-rule="nonzero" fill-opacity="1" /><path clip-path="url(#clip140)" d="M340.323 1431.5 L357.522 1437.84 L357.522 1425.13 L340.323 1431.5 M335.716 1434.14 L335.716 1428.84 L370.276 1415.67 L370.276 1420.53 L361.411 1423.68 L361.411 1439.25 L370.276 1442.4 L370.276 1447.33 L335.716 1434.14 Z" fill="#000000" fill-rule="nonzero" fill-opacity="1" /><path clip-path="url(#clip140)" d="M335.716 1410.62 L335.716 1405.94 L366.341 1405.94 L366.341 1389.12 L370.276 1389.12 L370.276 1410.62 L335.716 1410.62 Z" fill="#000000" fill-rule="nonzero" fill-opacity="1" /><path clip-path="url(#clip140)" d="M417.436 1493.84 L434.635 1500.18 L434.635 1487.47 L417.436 1493.84 M412.83 1496.48 L412.83 1491.18 L447.39 1478 L447.39 1482.87 L438.524 1486.01 L438.524 1501.59 L447.39 1504.74 L447.39 1509.67 L412.83 1496.48 Z" fill="#000000" fill-rule="nonzero" fill-opacity="1" /><path clip-path="url(#clip140)" d="M417.436 1460.09 L434.635 1466.43 L434.635 1453.72 L417.436 1460.09 M412.83 1462.73 L412.83 1457.43 L447.39 1444.25 L447.39 1449.12 L438.524 1452.26 L438.524 1467.84 L447.39 1470.99 L447.39 1475.92 L412.83 1462.73 Z" fill="#000000" fill-rule="nonzero" fill-opacity="1" /><path clip-path="url(#clip140)" d="M416.673 1434.53 L429.659 1434.53 L429.659 1428.65 Q429.659 1425.39 427.969 1423.61 Q426.279 1421.82 423.154 1421.82 Q420.052 1421.82 418.362 1423.61 Q416.673 1425.39 416.673 1428.65 L416.673 1434.53 M412.83 1439.21 L412.83 1428.65 Q412.83 1422.84 415.469 1419.88 Q418.085 1416.89 423.154 1416.89 Q428.27 1416.89 430.885 1419.88 Q433.501 1422.84 433.501 1428.65 L433.501 1434.53 L447.39 1434.53 L447.39 1439.21 L412.83 1439.21 Z" fill="#000000" fill-rule="nonzero" fill-opacity="1" /><path clip-path="url(#clip140)" d="M412.83 1410.62 L412.83 1405.94 L443.455 1405.94 L443.455 1389.12 L447.39 1389.12 L447.39 1410.62 L412.83 1410.62 Z" fill="#000000" fill-rule="nonzero" fill-opacity="1" /><path clip-path="url(#clip140)" d="M494.55 1476.78 L511.749 1483.12 L511.749 1470.41 L494.55 1476.78 M489.944 1479.42 L489.944 1474.12 L524.504 1460.94 L524.504 1465.81 L515.638 1468.95 L515.638 1484.53 L524.504 1487.68 L524.504 1492.61 L489.944 1479.42 Z" fill="#000000" fill-rule="nonzero" fill-opacity="1" /><path clip-path="url(#clip140)" d="M489.944 1455.9 L489.944 1448.93 L513.462 1440.11 L489.944 1431.25 L489.944 1424.28 L524.504 1424.28 L524.504 1428.84 L494.157 1428.84 L517.86 1437.75 L517.86 1442.45 L494.157 1451.36 L524.504 1451.36 L524.504 1455.9 L489.944 1455.9 Z" fill="#000000" fill-rule="nonzero" fill-opacity="1" /><path clip-path="url(#clip140)" d="M492.606 1389.12 L497.536 1389.12 Q495.337 1391.48 494.249 1394.16 Q493.161 1396.82 493.161 1399.83 Q493.161 1405.76 496.795 1408.91 Q500.407 1412.06 507.258 1412.06 Q514.087 1412.06 517.721 1408.91 Q521.332 1405.76 521.332 1399.83 Q521.332 1396.82 520.244 1394.16 Q519.156 1391.48 516.957 1389.12 L521.842 1389.12 Q523.508 1391.57 524.342 1394.32 Q525.175 1397.06 525.175 1400.11 Q525.175 1407.96 520.383 1412.47 Q515.569 1416.99 507.258 1416.99 Q498.925 1416.99 494.133 1412.47 Q489.319 1407.96 489.319 1400.11 Q489.319 1397.01 490.152 1394.28 Q490.962 1391.52 492.606 1389.12 Z" fill="#000000" fill-rule="nonzero" fill-opacity="1" /><path clip-path="url(#clip140)" d="M585.113 1441.48 L597.775 1441.48 L597.775 1433.98 Q597.775 1430.2 596.224 1428.4 Q594.65 1426.57 591.432 1426.57 Q588.191 1426.57 586.664 1428.4 Q585.113 1430.2 585.113 1433.98 L585.113 1441.48 M570.9 1441.48 L581.316 1441.48 L581.316 1434.56 Q581.316 1431.13 580.043 1429.46 Q578.747 1427.77 576.108 1427.77 Q573.492 1427.77 572.196 1429.46 Q570.9 1431.13 570.9 1434.56 L570.9 1441.48 M567.057 1446.15 L567.057 1434.21 Q567.057 1428.86 569.279 1425.97 Q571.502 1423.07 575.599 1423.07 Q578.77 1423.07 580.645 1424.56 Q582.52 1426.04 582.983 1428.91 Q583.724 1425.46 586.085 1423.56 Q588.423 1421.64 591.941 1421.64 Q596.571 1421.64 599.094 1424.79 Q601.617 1427.94 601.617 1433.75 L601.617 1446.15 L567.057 1446.15 Z" fill="#000000" fill-rule="nonzero" fill-opacity="1" /><path clip-path="url(#clip140)" d="M585.113 1408.95 L597.775 1408.95 L597.775 1401.45 Q597.775 1397.68 596.224 1395.88 Q594.65 1394.05 591.432 1394.05 Q588.191 1394.05 586.664 1395.88 Q585.113 1397.68 585.113 1401.45 L585.113 1408.95 M570.9 1408.95 L581.316 1408.95 L581.316 1402.03 Q581.316 1398.61 580.043 1396.94 Q578.747 1395.25 576.108 1395.25 Q573.492 1395.25 572.196 1396.94 Q570.9 1398.61 570.9 1402.03 L570.9 1408.95 M567.057 1413.63 L567.057 1401.69 Q567.057 1396.34 569.279 1393.44 Q571.502 1390.55 575.599 1390.55 Q578.77 1390.55 580.645 1392.03 Q582.52 1393.51 582.983 1396.38 Q583.724 1392.94 586.085 1391.04 Q588.423 1389.12 591.941 1389.12 Q596.571 1389.12 599.094 1392.26 Q601.617 1395.41 601.617 1401.22 L601.617 1413.63 L567.057 1413.63 Z" fill="#000000" fill-rule="nonzero" fill-opacity="1" /><path clip-path="url(#clip140)" d="M662.226 1471.29 L674.888 1471.29 L674.888 1463.79 Q674.888 1460.02 673.337 1458.21 Q671.763 1456.38 668.546 1456.38 Q665.305 1456.38 663.777 1458.21 Q662.226 1460.02 662.226 1463.79 L662.226 1471.29 M648.013 1471.29 L658.43 1471.29 L658.43 1464.37 Q658.43 1460.94 657.157 1459.28 Q655.861 1457.59 653.222 1457.59 Q650.606 1457.59 649.31 1459.28 Q648.013 1460.94 648.013 1464.37 L648.013 1471.29 M644.171 1475.97 L644.171 1464.02 Q644.171 1458.68 646.393 1455.78 Q648.615 1452.89 652.712 1452.89 Q655.884 1452.89 657.759 1454.37 Q659.634 1455.85 660.097 1458.72 Q660.837 1455.27 663.199 1453.38 Q665.536 1451.45 669.055 1451.45 Q673.685 1451.45 676.208 1454.6 Q678.731 1457.75 678.731 1463.56 L678.731 1475.97 L644.171 1475.97 Z" fill="#000000" fill-rule="nonzero" fill-opacity="1" /><path clip-path="url(#clip140)" d="M662.226 1438.77 L674.888 1438.77 L674.888 1431.27 Q674.888 1427.5 673.337 1425.69 Q671.763 1423.86 668.546 1423.86 Q665.305 1423.86 663.777 1425.69 Q662.226 1427.5 662.226 1431.27 L662.226 1438.77 M648.013 1438.77 L658.43 1438.77 L658.43 1431.85 Q658.43 1428.42 657.157 1426.75 Q655.861 1425.07 653.222 1425.07 Q650.606 1425.07 649.31 1426.75 Q648.013 1428.42 648.013 1431.85 L648.013 1438.77 M644.171 1443.44 L644.171 1431.5 Q644.171 1426.15 646.393 1423.26 Q648.615 1420.37 652.712 1420.37 Q655.884 1420.37 657.759 1421.85 Q659.634 1423.33 660.097 1426.2 Q660.837 1422.75 663.199 1420.85 Q665.536 1418.93 669.055 1418.93 Q673.685 1418.93 676.208 1422.08 Q678.731 1425.23 678.731 1431.04 L678.731 1443.44 L644.171 1443.44 Z" fill="#000000" fill-rule="nonzero" fill-opacity="1" /><path clip-path="url(#clip140)" d="M644.171 1418.26 L644.171 1413.24 L658.384 1403.65 L644.171 1394.14 L644.171 1389.12 L662.273 1401.34 L678.731 1401.34 L678.731 1406.04 L662.273 1406.04 L644.171 1418.26 Z" fill="#000000" fill-rule="nonzero" fill-opacity="1" /><path clip-path="url(#clip140)" d="M725.127 1498.81 L752.002 1498.81 L752.002 1493.17 Q752.002 1486.01 748.761 1482.7 Q745.52 1479.37 738.53 1479.37 Q731.585 1479.37 728.368 1482.7 Q725.127 1486.01 725.127 1493.17 L725.127 1498.81 M721.284 1503.49 L721.284 1493.88 Q721.284 1483.84 725.474 1479.14 Q729.641 1474.44 738.53 1474.44 Q747.465 1474.44 751.655 1479.16 Q755.844 1483.88 755.844 1493.88 L755.844 1503.49 L721.284 1503.49 Z" fill="#000000" fill-rule="nonzero" fill-opacity="1" /><path clip-path="url(#clip140)" d="M721.284 1466.99 L721.284 1445.13 L725.22 1445.13 L725.22 1462.31 L735.451 1462.31 L735.451 1445.85 L739.386 1445.85 L739.386 1462.31 L751.909 1462.31 L751.909 1444.72 L755.844 1444.72 L755.844 1466.99 L721.284 1466.99 Z" fill="#000000" fill-rule="nonzero" fill-opacity="1" /><path clip-path="url(#clip140)" d="M721.284 1437.03 L721.284 1432.36 L751.909 1432.36 L751.909 1415.53 L755.844 1415.53 L755.844 1437.03 L721.284 1437.03 Z" fill="#000000" fill-rule="nonzero" fill-opacity="1" /><path clip-path="url(#clip140)" d="M721.284 1410.62 L721.284 1405.94 L751.909 1405.94 L751.909 1389.12 L755.844 1389.12 L755.844 1410.62 L721.284 1410.62 Z" fill="#000000" fill-rule="nonzero" fill-opacity="1" /><path clip-path="url(#clip140)" d="M802.241 1449.14 L829.116 1449.14 L829.116 1443.49 Q829.116 1436.34 825.875 1433.03 Q822.634 1429.69 815.643 1429.69 Q808.699 1429.69 805.481 1433.03 Q802.241 1436.34 802.241 1443.49 L802.241 1449.14 M798.398 1453.81 L798.398 1444.21 Q798.398 1434.16 802.588 1429.46 Q806.755 1424.76 815.643 1424.76 Q824.578 1424.76 828.768 1429.49 Q832.958 1434.21 832.958 1444.21 L832.958 1453.81 L798.398 1453.81 Z" fill="#000000" fill-rule="nonzero" fill-opacity="1" /><path clip-path="url(#clip140)" d="M828.028 1393.75 L818.745 1393.75 L818.745 1401.38 L814.903 1401.38 L814.903 1389.12 L829.741 1389.12 Q831.662 1391.82 832.657 1395.09 Q833.629 1398.35 833.629 1402.06 Q833.629 1410.16 828.907 1414.74 Q824.162 1419.3 815.713 1419.3 Q807.241 1419.3 802.518 1414.74 Q797.773 1410.16 797.773 1402.06 Q797.773 1398.68 798.606 1395.64 Q799.44 1392.59 801.06 1390.02 L806.037 1390.02 Q803.838 1392.61 802.727 1395.53 Q801.616 1398.44 801.616 1401.66 Q801.616 1408.01 805.157 1411.2 Q808.699 1414.37 815.713 1414.37 Q822.704 1414.37 826.245 1411.2 Q829.787 1408.01 829.787 1401.66 Q829.787 1399.19 829.37 1397.24 Q828.93 1395.3 828.028 1393.75 Z" fill="#000000" fill-rule="nonzero" fill-opacity="1" /><path clip-path="url(#clip140)" d="M879.354 1476.69 L906.229 1476.69 L906.229 1471.04 Q906.229 1463.88 902.988 1460.57 Q899.748 1457.24 892.757 1457.24 Q885.813 1457.24 882.595 1460.57 Q879.354 1463.88 879.354 1471.04 L879.354 1476.69 M875.512 1481.36 L875.512 1471.75 Q875.512 1461.71 879.701 1457.01 Q883.868 1452.31 892.757 1452.31 Q901.692 1452.31 905.882 1457.03 Q910.072 1461.75 910.072 1471.75 L910.072 1481.36 L875.512 1481.36 Z" fill="#000000" fill-rule="nonzero" fill-opacity="1" /><path clip-path="url(#clip140)" d="M893.868 1428.47 Q894.377 1426.96 896.044 1425.55 Q897.711 1424.12 900.627 1422.68 L910.072 1417.94 L910.072 1422.96 L901.206 1427.38 Q897.734 1429.09 896.6 1430.71 Q895.465 1432.31 895.465 1435.09 L895.465 1440.18 L910.072 1440.18 L910.072 1444.86 L875.512 1444.86 L875.512 1434.3 Q875.512 1428.38 877.989 1425.46 Q880.465 1422.54 885.465 1422.54 Q888.729 1422.54 890.882 1424.07 Q893.035 1425.57 893.868 1428.47 M879.354 1440.18 L891.623 1440.18 L891.623 1434.3 Q891.623 1430.92 890.072 1429.21 Q888.498 1427.47 885.465 1427.47 Q882.433 1427.47 880.905 1429.21 Q879.354 1430.92 879.354 1434.3 L879.354 1440.18 Z" fill="#000000" fill-rule="nonzero" fill-opacity="1" /><path clip-path="url(#clip140)" d="M876.646 1391.2 L881.206 1391.2 Q879.933 1393.86 879.308 1396.22 Q878.683 1398.58 878.683 1400.78 Q878.683 1404.6 880.164 1406.69 Q881.646 1408.75 884.377 1408.75 Q886.669 1408.75 887.85 1407.38 Q889.007 1405.99 889.725 1402.15 L890.303 1399.32 Q891.299 1394.09 893.822 1391.62 Q896.322 1389.12 900.535 1389.12 Q905.558 1389.12 908.15 1392.5 Q910.743 1395.85 910.743 1402.36 Q910.743 1404.81 910.187 1407.59 Q909.632 1410.34 908.544 1413.31 L903.729 1413.31 Q905.326 1410.46 906.137 1407.73 Q906.947 1405 906.947 1402.36 Q906.947 1398.35 905.373 1396.18 Q903.799 1394 900.882 1394 Q898.336 1394 896.9 1395.57 Q895.465 1397.13 894.748 1400.69 L894.192 1403.54 Q893.15 1408.77 890.928 1411.11 Q888.706 1413.44 884.748 1413.44 Q880.164 1413.44 877.526 1410.23 Q874.887 1406.99 874.887 1401.32 Q874.887 1398.88 875.327 1396.36 Q875.766 1393.84 876.646 1391.2 Z" fill="#000000" fill-rule="nonzero" fill-opacity="1" /><path clip-path="url(#clip140)" d="M982.255 1465.46 L972.972 1465.46 L972.972 1473.1 L969.13 1473.1 L969.13 1460.83 L983.968 1460.83 Q985.889 1463.54 986.884 1466.8 Q987.857 1470.06 987.857 1473.77 Q987.857 1481.87 983.134 1486.45 Q978.389 1491.01 969.94 1491.01 Q961.468 1491.01 956.746 1486.45 Q952 1481.87 952 1473.77 Q952 1470.39 952.834 1467.36 Q953.667 1464.3 955.287 1461.73 L960.264 1461.73 Q958.065 1464.32 956.954 1467.24 Q955.843 1470.16 955.843 1473.38 Q955.843 1479.72 959.385 1482.91 Q962.926 1486.08 969.94 1486.08 Q976.931 1486.08 980.472 1482.91 Q984.014 1479.72 984.014 1473.38 Q984.014 1470.9 983.597 1468.95 Q983.158 1467.01 982.255 1465.46 Z" fill="#000000" fill-rule="nonzero" fill-opacity="1" /><path clip-path="url(#clip140)" d="M952.625 1452.29 L952.625 1445.32 L976.144 1436.5 L952.625 1427.63 L952.625 1420.67 L987.185 1420.67 L987.185 1425.23 L956.838 1425.23 L980.542 1434.14 L980.542 1438.84 L956.838 1447.75 L987.185 1447.75 L987.185 1452.29 L952.625 1452.29 Z" fill="#000000" fill-rule="nonzero" fill-opacity="1" /><path clip-path="url(#clip140)" d="M952.625 1411.38 L952.625 1389.53 L956.56 1389.53 L956.56 1406.71 L966.792 1406.71 L966.792 1390.25 L970.727 1390.25 L970.727 1406.71 L983.25 1406.71 L983.25 1389.12 L987.185 1389.12 L987.185 1411.38 L952.625 1411.38 Z" fill="#000000" fill-rule="nonzero" fill-opacity="1" /><path clip-path="url(#clip140)" d="M1029.74 1490.62 L1029.74 1485.94 L1064.3 1485.94 L1064.3 1490.62 L1029.74 1490.62 Z" fill="#000000" fill-rule="nonzero" fill-opacity="1" /><path clip-path="url(#clip140)" d="M1029.74 1476.64 L1029.74 1470.34 L1058.65 1455.02 L1029.74 1455.02 L1029.74 1450.48 L1064.3 1450.48 L1064.3 1456.78 L1035.39 1472.1 L1064.3 1472.1 L1064.3 1476.64 L1029.74 1476.64 Z" fill="#000000" fill-rule="nonzero" fill-opacity="1" /><path clip-path="url(#clip140)" d="M1029.74 1445.97 L1029.74 1416.73 L1033.67 1416.73 L1033.67 1429 L1064.3 1429 L1064.3 1433.7 L1033.67 1433.7 L1033.67 1445.97 L1029.74 1445.97 Z" fill="#000000" fill-rule="nonzero" fill-opacity="1" /><path clip-path="url(#clip140)" d="M1032.4 1389.12 L1037.33 1389.12 Q1035.13 1391.48 1034.04 1394.16 Q1032.96 1396.82 1032.96 1399.83 Q1032.96 1405.76 1036.59 1408.91 Q1040.2 1412.06 1047.05 1412.06 Q1053.88 1412.06 1057.52 1408.91 Q1061.13 1405.76 1061.13 1399.83 Q1061.13 1396.82 1060.04 1394.16 Q1058.95 1391.48 1056.75 1389.12 L1061.64 1389.12 Q1063.3 1391.57 1064.14 1394.32 Q1064.97 1397.06 1064.97 1400.11 Q1064.97 1407.96 1060.18 1412.47 Q1055.36 1416.99 1047.05 1416.99 Q1038.72 1416.99 1033.93 1412.47 Q1029.11 1407.96 1029.11 1400.11 Q1029.11 1397.01 1029.95 1394.28 Q1030.76 1391.52 1032.4 1389.12 Z" fill="#000000" fill-rule="nonzero" fill-opacity="1" /><path clip-path="url(#clip140)" d="M1106.85 1497.84 L1106.85 1493.17 L1137.48 1493.17 L1137.48 1476.34 L1141.41 1476.34 L1141.41 1497.84 L1106.85 1497.84 Z" fill="#000000" fill-rule="nonzero" fill-opacity="1" /><path clip-path="url(#clip140)" d="M1106.85 1474.32 L1106.85 1469.63 L1127.85 1469.63 Q1133.4 1469.63 1135.86 1467.61 Q1138.29 1465.6 1138.29 1461.08 Q1138.29 1456.59 1135.86 1454.58 Q1133.4 1452.56 1127.85 1452.56 L1106.85 1452.56 L1106.85 1447.87 L1128.43 1447.87 Q1135.19 1447.87 1138.63 1451.22 Q1142.08 1454.56 1142.08 1461.08 Q1142.08 1467.63 1138.63 1470.99 Q1135.19 1474.32 1128.43 1474.32 L1106.85 1474.32 Z" fill="#000000" fill-rule="nonzero" fill-opacity="1" /><path clip-path="url(#clip140)" d="M1106.85 1439.09 L1106.85 1434.42 L1137.48 1434.42 L1137.48 1417.59 L1141.41 1417.59 L1141.41 1439.09 L1106.85 1439.09 Z" fill="#000000" fill-rule="nonzero" fill-opacity="1" /><path clip-path="url(#clip140)" d="M1106.85 1415.57 L1106.85 1410.88 L1127.85 1410.88 Q1133.4 1410.88 1135.86 1408.86 Q1138.29 1406.85 1138.29 1402.33 Q1138.29 1397.84 1135.86 1395.83 Q1133.4 1393.82 1127.85 1393.82 L1106.85 1393.82 L1106.85 1389.12 L1128.43 1389.12 Q1135.19 1389.12 1138.63 1392.47 Q1142.08 1395.81 1142.08 1402.33 Q1142.08 1408.88 1138.63 1412.24 Q1135.19 1415.57 1128.43 1415.57 L1106.85 1415.57 Z" fill="#000000" fill-rule="nonzero" fill-opacity="1" /><path clip-path="url(#clip140)" d="M1183.97 1520.85 L1183.97 1513.88 L1207.48 1505.06 L1183.97 1496.2 L1183.97 1489.23 L1218.53 1489.23 L1218.53 1493.79 L1188.18 1493.79 L1211.88 1502.7 L1211.88 1507.4 L1188.18 1516.31 L1218.53 1516.31 L1218.53 1520.85 L1183.97 1520.85 Z" fill="#000000" fill-rule="nonzero" fill-opacity="1" /><path clip-path="url(#clip140)" d="M1188.57 1468.4 L1205.77 1474.74 L1205.77 1462.03 L1188.57 1468.4 M1183.97 1471.04 L1183.97 1465.74 L1218.53 1452.56 L1218.53 1457.43 L1209.66 1460.57 L1209.66 1476.15 L1218.53 1479.3 L1218.53 1484.23 L1183.97 1471.04 Z" fill="#000000" fill-rule="nonzero" fill-opacity="1" /><path clip-path="url(#clip140)" d="M1202.32 1431.13 Q1202.83 1429.63 1204.5 1428.21 Q1206.17 1426.78 1209.08 1425.34 L1218.53 1420.6 L1218.53 1425.62 L1209.66 1430.04 Q1206.19 1431.75 1205.05 1433.38 Q1203.92 1434.97 1203.92 1437.75 L1203.92 1442.84 L1218.53 1442.84 L1218.53 1447.52 L1183.97 1447.52 L1183.97 1436.96 Q1183.97 1431.04 1186.44 1428.12 Q1188.92 1425.2 1193.92 1425.2 Q1197.18 1425.2 1199.34 1426.73 Q1201.49 1428.24 1202.32 1431.13 M1187.81 1442.84 L1200.08 1442.84 L1200.08 1436.96 Q1200.08 1433.58 1198.53 1431.87 Q1196.95 1430.13 1193.92 1430.13 Q1190.89 1430.13 1189.36 1431.87 Q1187.81 1433.58 1187.81 1436.96 L1187.81 1442.84 Z" fill="#000000" fill-rule="nonzero" fill-opacity="1" /><path clip-path="url(#clip140)" d="M1188.57 1404.95 L1205.77 1411.29 L1205.77 1398.58 L1188.57 1404.95 M1183.97 1407.59 L1183.97 1402.29 L1218.53 1389.12 L1218.53 1393.98 L1209.66 1397.13 L1209.66 1412.7 L1218.53 1415.85 L1218.53 1420.78 L1183.97 1407.59 Z" fill="#000000" fill-rule="nonzero" fill-opacity="1" /><path clip-path="url(#clip140)" d="M1261.08 1467.8 L1261.08 1460.83 L1284.6 1452.01 L1261.08 1443.14 L1261.08 1436.18 L1295.64 1436.18 L1295.64 1440.74 L1265.29 1440.74 L1289 1449.65 L1289 1454.35 L1265.29 1463.26 L1295.64 1463.26 L1295.64 1467.8 L1261.08 1467.8 Z" fill="#000000" fill-rule="nonzero" fill-opacity="1" /><path clip-path="url(#clip140)" d="M1263.74 1401.01 L1268.67 1401.01 Q1266.47 1403.38 1265.39 1406.06 Q1264.3 1408.72 1264.3 1411.73 Q1264.3 1417.66 1267.93 1420.81 Q1271.54 1423.95 1278.39 1423.95 Q1285.22 1423.95 1288.86 1420.81 Q1292.47 1417.66 1292.47 1411.73 Q1292.47 1408.72 1291.38 1406.06 Q1290.29 1403.38 1288.09 1401.01 L1292.98 1401.01 Q1294.64 1403.47 1295.48 1406.22 Q1296.31 1408.95 1296.31 1412.01 Q1296.31 1419.86 1291.52 1424.37 Q1286.7 1428.88 1278.39 1428.88 Q1270.06 1428.88 1265.27 1424.37 Q1260.45 1419.86 1260.45 1412.01 Q1260.45 1408.91 1261.29 1406.18 Q1262.1 1403.42 1263.74 1401.01 Z" fill="#000000" fill-rule="nonzero" fill-opacity="1" /><path clip-path="url(#clip140)" d="M1261.08 1393.79 L1261.08 1389.12 L1295.64 1389.12 L1295.64 1393.79 L1261.08 1393.79 Z" fill="#000000" fill-rule="nonzero" fill-opacity="1" /><path clip-path="url(#clip140)" d="M1338.19 1510.99 L1338.19 1504.02 L1361.71 1495.2 L1338.19 1486.34 L1338.19 1479.37 L1372.75 1479.37 L1372.75 1483.93 L1342.41 1483.93 L1366.11 1492.84 L1366.11 1497.54 L1342.41 1506.45 L1372.75 1506.45 L1372.75 1510.99 L1338.19 1510.99 Z" fill="#000000" fill-rule="nonzero" fill-opacity="1" /><path clip-path="url(#clip140)" d="M1339.33 1449.37 L1343.89 1449.37 Q1342.61 1452.03 1341.99 1454.39 Q1341.36 1456.75 1341.36 1458.95 Q1341.36 1462.77 1342.85 1464.86 Q1344.33 1466.92 1347.06 1466.92 Q1349.35 1466.92 1350.53 1465.55 Q1351.69 1464.16 1352.41 1460.32 L1352.98 1457.5 Q1353.98 1452.26 1356.5 1449.79 Q1359 1447.29 1363.22 1447.29 Q1368.24 1447.29 1370.83 1450.67 Q1373.42 1454.02 1373.42 1460.53 Q1373.42 1462.98 1372.87 1465.76 Q1372.31 1468.51 1371.23 1471.48 L1366.41 1471.48 Q1368.01 1468.63 1368.82 1465.9 Q1369.63 1463.17 1369.63 1460.53 Q1369.63 1456.52 1368.05 1454.35 Q1366.48 1452.17 1363.56 1452.17 Q1361.02 1452.17 1359.58 1453.75 Q1358.15 1455.3 1357.43 1458.86 L1356.87 1461.71 Q1355.83 1466.94 1353.61 1469.28 Q1351.39 1471.62 1347.43 1471.62 Q1342.85 1471.62 1340.21 1468.4 Q1337.57 1465.16 1337.57 1459.49 Q1337.57 1457.06 1338.01 1454.53 Q1338.45 1452.01 1339.33 1449.37 Z" fill="#000000" fill-rule="nonzero" fill-opacity="1" /><path clip-path="url(#clip140)" d="M1338.19 1440 L1338.19 1420.13 L1342.13 1420.13 L1342.13 1435.32 L1352.31 1435.32 L1352.31 1421.62 L1356.25 1421.62 L1356.25 1435.32 L1372.75 1435.32 L1372.75 1440 L1338.19 1440 Z" fill="#000000" fill-rule="nonzero" fill-opacity="1" /><path clip-path="url(#clip140)" d="M1338.19 1418.35 L1338.19 1389.12 L1342.13 1389.12 L1342.13 1401.38 L1372.75 1401.38 L1372.75 1406.08 L1342.13 1406.08 L1342.13 1418.35 L1338.19 1418.35 Z" fill="#000000" fill-rule="nonzero" fill-opacity="1" /><path clip-path="url(#clip140)" d="M1415.31 1510.55 L1415.31 1504.25 L1444.22 1488.93 L1415.31 1488.93 L1415.31 1484.39 L1449.87 1484.39 L1449.87 1490.69 L1420.96 1506.01 L1449.87 1506.01 L1449.87 1510.55 L1415.31 1510.55 Z" fill="#000000" fill-rule="nonzero" fill-opacity="1" /><path clip-path="url(#clip140)" d="M1415.31 1475.09 L1415.31 1470.41 L1429.91 1470.41 L1415.31 1454.9 L1415.31 1448.88 L1431.42 1466.04 L1449.87 1447.66 L1449.87 1453.81 L1433.22 1470.41 L1449.87 1470.41 L1449.87 1475.09 L1415.31 1475.09 Z" fill="#000000" fill-rule="nonzero" fill-opacity="1" /><path clip-path="url(#clip140)" d="M1415.31 1444 L1415.31 1439.32 L1445.93 1439.32 L1445.93 1422.5 L1449.87 1422.5 L1449.87 1444 L1415.31 1444 Z" fill="#000000" fill-rule="nonzero" fill-opacity="1" /><path clip-path="url(#clip140)" d="M1419.91 1404.95 L1437.11 1411.29 L1437.11 1398.58 L1419.91 1404.95 M1415.31 1407.59 L1415.31 1402.29 L1449.87 1389.12 L1449.87 1393.98 L1441 1397.13 L1441 1412.7 L1449.87 1415.85 L1449.87 1420.78 L1415.31 1407.59 Z" fill="#000000" fill-rule="nonzero" fill-opacity="1" /><path clip-path="url(#clip140)" d="M1492.42 1512.75 L1492.42 1506.45 L1521.33 1491.13 L1492.42 1491.13 L1492.42 1486.59 L1526.98 1486.59 L1526.98 1492.89 L1498.07 1508.21 L1526.98 1508.21 L1526.98 1512.75 L1492.42 1512.75 Z" fill="#000000" fill-rule="nonzero" fill-opacity="1" /><path clip-path="url(#clip140)" d="M1526.98 1468.38 L1492.42 1481.57 L1492.42 1476.69 L1521.52 1465.74 L1492.42 1454.76 L1492.42 1449.9 L1526.98 1463.07 L1526.98 1468.38 Z" fill="#000000" fill-rule="nonzero" fill-opacity="1" /><path clip-path="url(#clip140)" d="M1497.03 1436.34 L1514.23 1442.68 L1514.23 1429.97 L1497.03 1436.34 M1492.42 1438.98 L1492.42 1433.68 L1526.98 1420.5 L1526.98 1425.37 L1518.11 1428.51 L1518.11 1444.09 L1526.98 1447.24 L1526.98 1452.17 L1492.42 1438.98 Z" fill="#000000" fill-rule="nonzero" fill-opacity="1" /><path clip-path="url(#clip140)" d="M1492.42 1417.13 L1492.42 1412.1 L1505.27 1403.51 L1492.42 1394.88 L1492.42 1389.86 L1509.02 1400.97 L1526.98 1389.12 L1526.98 1394.14 L1512.28 1403.86 L1526.98 1413.65 L1526.98 1418.7 L1508.53 1406.36 L1492.42 1417.13 Z" fill="#000000" fill-rule="nonzero" fill-opacity="1" /><path clip-path="url(#clip140)" d="M1569.53 1520.06 L1569.53 1513.77 L1598.45 1498.44 L1569.53 1498.44 L1569.53 1493.91 L1604.09 1493.91 L1604.09 1500.2 L1575.18 1515.53 L1604.09 1515.53 L1604.09 1520.06 L1569.53 1520.06 Z" fill="#000000" fill-rule="nonzero" fill-opacity="1" /><path clip-path="url(#clip140)" d="M1604.09 1475.69 L1569.53 1488.88 L1569.53 1484 L1598.63 1473.05 L1569.53 1462.08 L1569.53 1457.22 L1604.09 1470.39 L1604.09 1475.69 Z" fill="#000000" fill-rule="nonzero" fill-opacity="1" /><path clip-path="url(#clip140)" d="M1573.38 1447.5 L1600.25 1447.5 L1600.25 1441.85 Q1600.25 1434.69 1597.01 1431.38 Q1593.77 1428.05 1586.78 1428.05 Q1579.84 1428.05 1576.62 1431.38 Q1573.38 1434.69 1573.38 1441.85 L1573.38 1447.5 M1569.53 1452.17 L1569.53 1442.57 Q1569.53 1432.52 1573.72 1427.82 Q1577.89 1423.12 1586.78 1423.12 Q1595.71 1423.12 1599.9 1427.84 Q1604.09 1432.57 1604.09 1442.57 L1604.09 1452.17 L1569.53 1452.17 Z" fill="#000000" fill-rule="nonzero" fill-opacity="1" /><path clip-path="url(#clip140)" d="M1574.14 1404.95 L1591.34 1411.29 L1591.34 1398.58 L1574.14 1404.95 M1569.53 1407.59 L1569.53 1402.29 L1604.09 1389.12 L1604.09 1393.98 L1595.23 1397.13 L1595.23 1412.7 L1604.09 1415.85 L1604.09 1420.78 L1569.53 1407.59 Z" fill="#000000" fill-rule="nonzero" fill-opacity="1" /><path clip-path="url(#clip140)" d="M1650.49 1500.83 L1663.48 1500.83 L1663.48 1494.95 Q1663.48 1491.69 1661.79 1489.9 Q1660.1 1488.12 1656.97 1488.12 Q1653.87 1488.12 1652.18 1489.9 Q1650.49 1491.69 1650.49 1494.95 L1650.49 1500.83 M1646.65 1505.5 L1646.65 1494.95 Q1646.65 1489.14 1649.29 1486.18 Q1651.9 1483.19 1656.97 1483.19 Q1662.09 1483.19 1664.7 1486.18 Q1667.32 1489.14 1667.32 1494.95 L1667.32 1500.83 L1681.21 1500.83 L1681.21 1505.5 L1646.65 1505.5 Z" fill="#000000" fill-rule="nonzero" fill-opacity="1" /><path clip-path="url(#clip140)" d="M1651.25 1468.4 L1668.45 1474.74 L1668.45 1462.03 L1651.25 1468.4 M1646.65 1471.04 L1646.65 1465.74 L1681.21 1452.56 L1681.21 1457.43 L1672.34 1460.57 L1672.34 1476.15 L1681.21 1479.3 L1681.21 1484.23 L1646.65 1471.04 Z" fill="#000000" fill-rule="nonzero" fill-opacity="1" /><path clip-path="url(#clip140)" d="M1665 1431.13 Q1665.51 1429.63 1667.18 1428.21 Q1668.85 1426.78 1671.76 1425.34 L1681.21 1420.6 L1681.21 1425.62 L1672.34 1430.04 Q1668.87 1431.75 1667.74 1433.38 Q1666.6 1434.97 1666.6 1437.75 L1666.6 1442.84 L1681.21 1442.84 L1681.21 1447.52 L1646.65 1447.52 L1646.65 1436.96 Q1646.65 1431.04 1649.12 1428.12 Q1651.6 1425.2 1656.6 1425.2 Q1659.87 1425.2 1662.02 1426.73 Q1664.17 1428.24 1665 1431.13 M1650.49 1442.84 L1662.76 1442.84 L1662.76 1436.96 Q1662.76 1433.58 1661.21 1431.87 Q1659.63 1430.13 1656.6 1430.13 Q1653.57 1430.13 1652.04 1431.87 Q1650.49 1433.58 1650.49 1436.96 L1650.49 1442.84 Z" fill="#000000" fill-rule="nonzero" fill-opacity="1" /><path clip-path="url(#clip140)" d="M1651.25 1404.95 L1668.45 1411.29 L1668.45 1398.58 L1651.25 1404.95 M1646.65 1407.59 L1646.65 1402.29 L1681.21 1389.12 L1681.21 1393.98 L1672.34 1397.13 L1672.34 1412.7 L1681.21 1415.85 L1681.21 1420.78 L1646.65 1407.59 Z" fill="#000000" fill-rule="nonzero" fill-opacity="1" /><path clip-path="url(#clip140)" d="M1727.6 1499.35 L1740.59 1499.35 L1740.59 1493.47 Q1740.59 1490.2 1738.9 1488.42 Q1737.21 1486.64 1734.09 1486.64 Q1730.98 1486.64 1729.29 1488.42 Q1727.6 1490.2 1727.6 1493.47 L1727.6 1499.35 M1723.76 1504.02 L1723.76 1493.47 Q1723.76 1487.66 1726.4 1484.69 Q1729.02 1481.71 1734.09 1481.71 Q1739.2 1481.71 1741.82 1484.69 Q1744.43 1487.66 1744.43 1493.47 L1744.43 1499.35 L1758.32 1499.35 L1758.32 1504.02 L1723.76 1504.02 Z" fill="#000000" fill-rule="nonzero" fill-opacity="1" /><path clip-path="url(#clip140)" d="M1723.76 1475.44 L1723.76 1470.76 L1754.39 1470.76 L1754.39 1453.93 L1758.32 1453.93 L1758.32 1475.44 L1723.76 1475.44 Z" fill="#000000" fill-rule="nonzero" fill-opacity="1" /><path clip-path="url(#clip140)" d="M1723.76 1449.02 L1723.76 1442.73 L1752.67 1427.4 L1723.76 1427.4 L1723.76 1422.87 L1758.32 1422.87 L1758.32 1429.16 L1729.41 1444.49 L1758.32 1444.49 L1758.32 1449.02 L1723.76 1449.02 Z" fill="#000000" fill-rule="nonzero" fill-opacity="1" /><path clip-path="url(#clip140)" d="M1723.76 1418.35 L1723.76 1389.12 L1727.7 1389.12 L1727.7 1401.38 L1758.32 1401.38 L1758.32 1406.08 L1727.7 1406.08 L1727.7 1418.35 L1723.76 1418.35 Z" fill="#000000" fill-rule="nonzero" fill-opacity="1" /><path clip-path="url(#clip140)" d="M1802.01 1483.47 L1806.57 1483.47 Q1805.3 1486.13 1804.67 1488.49 Q1804.05 1490.85 1804.05 1493.05 Q1804.05 1496.87 1805.53 1498.95 Q1807.01 1501.01 1809.74 1501.01 Q1812.03 1501.01 1813.21 1499.65 Q1814.37 1498.26 1815.09 1494.42 L1815.67 1491.59 Q1816.66 1486.36 1819.19 1483.88 Q1821.69 1481.38 1825.9 1481.38 Q1830.92 1481.38 1833.51 1484.76 Q1836.11 1488.12 1836.11 1494.62 Q1836.11 1497.08 1835.55 1499.86 Q1835 1502.61 1833.91 1505.57 L1829.09 1505.57 Q1830.69 1502.73 1831.5 1500 Q1832.31 1497.26 1832.31 1494.62 Q1832.31 1490.62 1830.74 1488.44 Q1829.16 1486.27 1826.25 1486.27 Q1823.7 1486.27 1822.26 1487.84 Q1820.83 1489.39 1820.11 1492.96 L1819.56 1495.81 Q1818.51 1501.04 1816.29 1503.37 Q1814.07 1505.71 1810.11 1505.71 Q1805.53 1505.71 1802.89 1502.5 Q1800.25 1499.25 1800.25 1493.58 Q1800.25 1491.15 1800.69 1488.63 Q1801.13 1486.11 1802.01 1483.47 Z" fill="#000000" fill-rule="nonzero" fill-opacity="1" /><path clip-path="url(#clip140)" d="M1805.48 1461.66 L1822.68 1468 L1822.68 1455.3 L1805.48 1461.66 M1800.88 1464.3 L1800.88 1459 L1835.44 1445.83 L1835.44 1450.69 L1826.57 1453.84 L1826.57 1469.42 L1835.44 1472.56 L1835.44 1477.5 L1800.88 1464.3 Z" fill="#000000" fill-rule="nonzero" fill-opacity="1" /><path clip-path="url(#clip140)" d="M1835.44 1434.9 L1800.88 1448.1 L1800.88 1443.21 L1829.97 1432.26 L1800.88 1421.29 L1800.88 1416.43 L1835.44 1429.6 L1835.44 1434.9 Z" fill="#000000" fill-rule="nonzero" fill-opacity="1" /><path clip-path="url(#clip140)" d="M1800.88 1411.38 L1800.88 1389.53 L1804.81 1389.53 L1804.81 1406.71 L1815.04 1406.71 L1815.04 1390.25 L1818.98 1390.25 L1818.98 1406.71 L1831.5 1406.71 L1831.5 1389.12 L1835.44 1389.12 L1835.44 1411.38 L1800.88 1411.38 Z" fill="#000000" fill-rule="nonzero" fill-opacity="1" /><path clip-path="url(#clip140)" d="M1879.12 1492.06 L1883.68 1492.06 Q1882.41 1494.72 1881.78 1497.08 Q1881.16 1499.44 1881.16 1501.64 Q1881.16 1505.46 1882.64 1507.54 Q1884.12 1509.6 1886.85 1509.6 Q1889.15 1509.6 1890.33 1508.24 Q1891.48 1506.85 1892.2 1503 L1892.78 1500.18 Q1893.78 1494.95 1896.3 1492.47 Q1898.8 1489.97 1903.01 1489.97 Q1908.03 1489.97 1910.63 1493.35 Q1913.22 1496.71 1913.22 1503.21 Q1913.22 1505.67 1912.66 1508.44 Q1912.11 1511.2 1911.02 1514.16 L1906.21 1514.16 Q1907.8 1511.31 1908.61 1508.58 Q1909.42 1505.85 1909.42 1503.21 Q1909.42 1499.21 1907.85 1497.03 Q1906.28 1494.86 1903.36 1494.86 Q1900.81 1494.86 1899.38 1496.43 Q1897.94 1497.98 1897.22 1501.55 L1896.67 1504.39 Q1895.63 1509.62 1893.41 1511.96 Q1891.18 1514.3 1887.22 1514.3 Q1882.64 1514.3 1880 1511.08 Q1877.36 1507.84 1877.36 1502.17 Q1877.36 1499.74 1877.8 1497.22 Q1878.24 1494.69 1879.12 1492.06 Z" fill="#000000" fill-rule="nonzero" fill-opacity="1" /><path clip-path="url(#clip140)" d="M1896.04 1478 L1908.71 1478 L1908.71 1470.5 Q1908.71 1466.73 1907.16 1464.93 Q1905.58 1463.1 1902.36 1463.1 Q1899.12 1463.1 1897.59 1464.93 Q1896.04 1466.73 1896.04 1470.5 L1896.04 1478 M1881.83 1478 L1892.25 1478 L1892.25 1471.08 Q1892.25 1467.66 1890.97 1465.99 Q1889.68 1464.3 1887.04 1464.3 Q1884.42 1464.3 1883.13 1465.99 Q1881.83 1467.66 1881.83 1471.08 L1881.83 1478 M1877.99 1482.68 L1877.99 1470.74 Q1877.99 1465.39 1880.21 1462.5 Q1882.43 1459.6 1886.53 1459.6 Q1889.7 1459.6 1891.58 1461.08 Q1893.45 1462.56 1893.91 1465.44 Q1894.66 1461.99 1897.02 1460.09 Q1899.35 1458.17 1902.87 1458.17 Q1907.5 1458.17 1910.03 1461.31 Q1912.55 1464.46 1912.55 1470.27 L1912.55 1482.68 L1877.99 1482.68 Z" fill="#000000" fill-rule="nonzero" fill-opacity="1" /><path clip-path="url(#clip140)" d="M1877.99 1450.69 L1877.99 1445.99 L1898.98 1445.99 Q1904.54 1445.99 1906.99 1443.98 Q1909.42 1441.96 1909.42 1437.45 Q1909.42 1432.96 1906.99 1430.94 Q1904.54 1428.93 1898.98 1428.93 L1877.99 1428.93 L1877.99 1424.23 L1899.56 1424.23 Q1906.32 1424.23 1909.77 1427.59 Q1913.22 1430.92 1913.22 1437.45 Q1913.22 1444 1909.77 1447.36 Q1906.32 1450.69 1899.56 1450.69 L1877.99 1450.69 Z" fill="#000000" fill-rule="nonzero" fill-opacity="1" /><path clip-path="url(#clip140)" d="M1877.99 1417.13 L1877.99 1412.1 L1890.84 1403.51 L1877.99 1394.88 L1877.99 1389.86 L1894.59 1400.97 L1912.55 1389.12 L1912.55 1394.14 L1897.85 1403.86 L1912.55 1413.65 L1912.55 1418.7 L1894.1 1406.36 L1877.99 1417.13 Z" fill="#000000" fill-rule="nonzero" fill-opacity="1" /><path clip-path="url(#clip140)" d="M1956.24 1450.09 L1960.8 1450.09 Q1959.52 1452.75 1958.9 1455.11 Q1958.27 1457.47 1958.27 1459.67 Q1958.27 1463.49 1959.75 1465.57 Q1961.24 1467.63 1963.97 1467.63 Q1966.26 1467.63 1967.44 1466.27 Q1968.6 1464.88 1969.32 1461.04 L1969.89 1458.21 Q1970.89 1452.98 1973.41 1450.5 Q1975.91 1448 1980.13 1448 Q1985.15 1448 1987.74 1451.38 Q1990.33 1454.74 1990.33 1461.25 Q1990.33 1463.7 1989.78 1466.48 Q1989.22 1469.23 1988.13 1472.19 L1983.32 1472.19 Q1984.92 1469.35 1985.73 1466.62 Q1986.54 1463.88 1986.54 1461.25 Q1986.54 1457.24 1984.96 1455.06 Q1983.39 1452.89 1980.47 1452.89 Q1977.93 1452.89 1976.49 1454.46 Q1975.06 1456.01 1974.34 1459.58 L1973.78 1462.43 Q1972.74 1467.66 1970.52 1470 Q1968.3 1472.33 1964.34 1472.33 Q1959.75 1472.33 1957.12 1469.12 Q1954.48 1465.88 1954.48 1460.2 Q1954.48 1457.77 1954.92 1455.25 Q1955.36 1452.73 1956.24 1450.09 Z" fill="#000000" fill-rule="nonzero" fill-opacity="1" /><path clip-path="url(#clip140)" d="M1955.1 1440.71 L1955.1 1436.04 L1989.66 1436.04 L1989.66 1440.71 L1955.1 1440.71 Z" fill="#000000" fill-rule="nonzero" fill-opacity="1" /><path clip-path="url(#clip140)" d="M1973.46 1410.34 Q1973.97 1408.84 1975.63 1407.43 Q1977.3 1405.99 1980.22 1404.56 L1989.66 1399.81 L1989.66 1404.83 L1980.8 1409.26 Q1977.32 1410.97 1976.19 1412.59 Q1975.06 1414.19 1975.06 1416.96 L1975.06 1422.06 L1989.66 1422.06 L1989.66 1426.73 L1955.1 1426.73 L1955.1 1416.18 Q1955.1 1410.25 1957.58 1407.33 Q1960.06 1404.42 1965.06 1404.42 Q1968.32 1404.42 1970.47 1405.94 Q1972.63 1407.45 1973.46 1410.34 M1958.94 1422.06 L1971.21 1422.06 L1971.21 1416.18 Q1971.21 1412.8 1969.66 1411.08 Q1968.09 1409.35 1965.06 1409.35 Q1962.02 1409.35 1960.5 1411.08 Q1958.94 1412.8 1958.94 1416.18 L1958.94 1422.06 Z" fill="#000000" fill-rule="nonzero" fill-opacity="1" /><path clip-path="url(#clip140)" d="M1955.1 1393.79 L1955.1 1389.12 L1989.66 1389.12 L1989.66 1393.79 L1955.1 1393.79 Z" fill="#000000" fill-rule="nonzero" fill-opacity="1" /><path clip-path="url(#clip140)" d="M2033.35 1453.79 L2037.91 1453.79 Q2036.64 1456.45 2036.01 1458.81 Q2035.39 1461.18 2035.39 1463.38 Q2035.39 1467.19 2036.87 1469.28 Q2038.35 1471.34 2041.08 1471.34 Q2043.37 1471.34 2044.55 1469.97 Q2045.71 1468.58 2046.43 1464.74 L2047.01 1461.92 Q2048 1456.69 2050.53 1454.21 Q2053.03 1451.71 2057.24 1451.71 Q2062.26 1451.71 2064.85 1455.09 Q2067.45 1458.44 2067.45 1464.95 Q2067.45 1467.4 2066.89 1470.18 Q2066.34 1472.94 2065.25 1475.9 L2060.43 1475.9 Q2062.03 1473.05 2062.84 1470.32 Q2063.65 1467.59 2063.65 1464.95 Q2063.65 1460.94 2062.08 1458.77 Q2060.5 1456.59 2057.59 1456.59 Q2055.04 1456.59 2053.6 1458.17 Q2052.17 1459.72 2051.45 1463.28 L2050.9 1466.13 Q2049.85 1471.36 2047.63 1473.7 Q2045.41 1476.04 2041.45 1476.04 Q2036.87 1476.04 2034.23 1472.82 Q2031.59 1469.58 2031.59 1463.91 Q2031.59 1461.48 2032.03 1458.95 Q2032.47 1456.43 2033.35 1453.79 Z" fill="#000000" fill-rule="nonzero" fill-opacity="1" /><path clip-path="url(#clip140)" d="M2032.22 1449.21 L2032.22 1419.97 L2036.15 1419.97 L2036.15 1432.24 L2066.78 1432.24 L2066.78 1436.94 L2036.15 1436.94 L2036.15 1449.21 L2032.22 1449.21 Z" fill="#000000" fill-rule="nonzero" fill-opacity="1" /><path clip-path="url(#clip140)" d="M2032.22 1417.13 L2032.22 1412.1 L2045.06 1403.51 L2032.22 1394.88 L2032.22 1389.86 L2048.81 1400.97 L2066.78 1389.12 L2066.78 1394.14 L2052.08 1403.86 L2066.78 1413.65 L2066.78 1418.7 L2048.33 1406.36 L2032.22 1417.13 Z" fill="#000000" fill-rule="nonzero" fill-opacity="1" /><path clip-path="url(#clip140)" d="M2109.33 1503.58 L2109.33 1474.35 L2113.26 1474.35 L2113.26 1486.62 L2143.89 1486.62 L2143.89 1491.31 L2113.26 1491.31 L2113.26 1503.58 L2109.33 1503.58 Z" fill="#000000" fill-rule="nonzero" fill-opacity="1" /><path clip-path="url(#clip140)" d="M2109.33 1469.83 L2109.33 1465.16 L2139.95 1465.16 L2139.95 1448.33 L2143.89 1448.33 L2143.89 1469.83 L2109.33 1469.83 Z" fill="#000000" fill-rule="nonzero" fill-opacity="1" /><path clip-path="url(#clip140)" d="M2127.69 1427.03 Q2128.2 1425.53 2129.86 1424.12 Q2131.53 1422.68 2134.45 1421.25 L2143.89 1416.5 L2143.89 1421.52 L2135.02 1425.94 Q2131.55 1427.66 2130.42 1429.28 Q2129.28 1430.88 2129.28 1433.65 L2129.28 1438.75 L2143.89 1438.75 L2143.89 1443.42 L2109.33 1443.42 L2109.33 1432.87 Q2109.33 1426.94 2111.81 1424.02 Q2114.28 1421.11 2119.28 1421.11 Q2122.55 1421.11 2124.7 1422.63 Q2126.85 1424.14 2127.69 1427.03 M2113.17 1438.75 L2125.44 1438.75 L2125.44 1432.87 Q2125.44 1429.49 2123.89 1427.77 Q2122.32 1426.04 2119.28 1426.04 Q2116.25 1426.04 2114.72 1427.77 Q2113.17 1429.49 2113.17 1432.87 L2113.17 1438.75 Z" fill="#000000" fill-rule="nonzero" fill-opacity="1" /><path clip-path="url(#clip140)" d="M2109.33 1418.26 L2109.33 1413.24 L2123.54 1403.65 L2109.33 1394.14 L2109.33 1389.12 L2127.43 1401.34 L2143.89 1401.34 L2143.89 1406.04 L2127.43 1406.04 L2109.33 1418.26 Z" fill="#000000" fill-rule="nonzero" fill-opacity="1" /><path clip-path="url(#clip140)" d="M2186.44 1507.84 L2186.44 1478.61 L2190.38 1478.61 L2190.38 1490.87 L2221 1490.87 L2221 1495.57 L2190.38 1495.57 L2190.38 1507.84 L2186.44 1507.84 Z" fill="#000000" fill-rule="nonzero" fill-opacity="1" /><path clip-path="url(#clip140)" d="M2187.58 1453.38 L2192.14 1453.38 Q2190.86 1456.04 2190.24 1458.4 Q2189.61 1460.76 2189.61 1462.96 Q2189.61 1466.78 2191.1 1468.86 Q2192.58 1470.92 2195.31 1470.92 Q2197.6 1470.92 2198.78 1469.56 Q2199.94 1468.17 2200.66 1464.32 L2201.23 1461.5 Q2202.23 1456.27 2204.75 1453.79 Q2207.25 1451.29 2211.47 1451.29 Q2216.49 1451.29 2219.08 1454.67 Q2221.67 1458.03 2221.67 1464.53 Q2221.67 1466.99 2221.12 1469.76 Q2220.56 1472.52 2219.48 1475.48 L2214.66 1475.48 Q2216.26 1472.63 2217.07 1469.9 Q2217.88 1467.17 2217.88 1464.53 Q2217.88 1460.53 2216.3 1458.35 Q2214.73 1456.18 2211.81 1456.18 Q2209.27 1456.18 2207.83 1457.75 Q2206.4 1459.3 2205.68 1462.87 L2205.12 1465.71 Q2204.08 1470.94 2201.86 1473.28 Q2199.64 1475.62 2195.68 1475.62 Q2191.1 1475.62 2188.46 1472.4 Q2185.82 1469.16 2185.82 1463.49 Q2185.82 1461.06 2186.26 1458.54 Q2186.7 1456.01 2187.58 1453.38 Z" fill="#000000" fill-rule="nonzero" fill-opacity="1" /><path clip-path="url(#clip140)" d="M2186.44 1444 L2186.44 1439.32 L2217.07 1439.32 L2217.07 1422.5 L2221 1422.5 L2221 1444 L2186.44 1444 Z" fill="#000000" fill-rule="nonzero" fill-opacity="1" /><path clip-path="url(#clip140)" d="M2191.05 1404.95 L2208.25 1411.29 L2208.25 1398.58 L2191.05 1404.95 M2186.44 1407.59 L2186.44 1402.29 L2221 1389.12 L2221 1393.98 L2212.14 1397.13 L2212.14 1412.7 L2221 1415.85 L2221 1420.78 L2186.44 1407.59 Z" fill="#000000" fill-rule="nonzero" fill-opacity="1" /><path clip-path="url(#clip140)" d="M1195.91 1553.49 L1187.19 1577.14 L1204.66 1577.14 L1195.91 1553.49 M1192.28 1547.16 L1199.57 1547.16 L1217.68 1594.68 L1210.99 1594.68 L1206.67 1582.49 L1185.25 1582.49 L1180.92 1594.68 L1174.14 1594.68 L1192.28 1547.16 Z" fill="#000000" fill-rule="nonzero" fill-opacity="1" /><path clip-path="url(#clip140)" d="M1247.09 1560.08 L1247.09 1565.62 Q1244.61 1564.34 1241.93 1563.71 Q1239.26 1563.07 1236.39 1563.07 Q1232.03 1563.07 1229.84 1564.41 Q1227.67 1565.74 1227.67 1568.42 Q1227.67 1570.45 1229.23 1571.63 Q1230.79 1572.78 1235.5 1573.83 L1237.51 1574.27 Q1243.75 1575.61 1246.36 1578.06 Q1249 1580.48 1249 1584.84 Q1249 1589.81 1245.05 1592.7 Q1241.14 1595.6 1234.26 1595.6 Q1231.4 1595.6 1228.28 1595.03 Q1225.19 1594.48 1221.75 1593.37 L1221.75 1587.32 Q1225 1589.01 1228.15 1589.87 Q1231.3 1590.7 1234.39 1590.7 Q1238.53 1590.7 1240.75 1589.3 Q1242.98 1587.86 1242.98 1585.29 Q1242.98 1582.9 1241.36 1581.63 Q1239.77 1580.35 1234.32 1579.18 L1232.29 1578.7 Q1226.85 1577.55 1224.43 1575.2 Q1222.01 1572.81 1222.01 1568.67 Q1222.01 1563.64 1225.57 1560.91 Q1229.14 1558.17 1235.69 1558.17 Q1238.94 1558.17 1241.8 1558.65 Q1244.67 1559.12 1247.09 1560.08 Z" fill="#000000" fill-rule="nonzero" fill-opacity="1" /><path clip-path="url(#clip140)" d="M1281.05 1560.08 L1281.05 1565.62 Q1278.57 1564.34 1275.89 1563.71 Q1273.22 1563.07 1270.35 1563.07 Q1265.99 1563.07 1263.8 1564.41 Q1261.63 1565.74 1261.63 1568.42 Q1261.63 1570.45 1263.19 1571.63 Q1264.75 1572.78 1269.46 1573.83 L1271.47 1574.27 Q1277.71 1575.61 1280.32 1578.06 Q1282.96 1580.48 1282.96 1584.84 Q1282.96 1589.81 1279.01 1592.7 Q1275.1 1595.6 1268.22 1595.6 Q1265.36 1595.6 1262.24 1595.03 Q1259.15 1594.48 1255.71 1593.37 L1255.71 1587.32 Q1258.96 1589.01 1262.11 1589.87 Q1265.26 1590.7 1268.35 1590.7 Q1272.49 1590.7 1274.72 1589.3 Q1276.94 1587.86 1276.94 1585.29 Q1276.94 1582.9 1275.32 1581.63 Q1273.73 1580.35 1268.29 1579.18 L1266.25 1578.7 Q1260.81 1577.55 1258.39 1575.2 Q1255.97 1572.81 1255.97 1568.67 Q1255.97 1563.64 1259.53 1560.91 Q1263.1 1558.17 1269.65 1558.17 Q1272.9 1558.17 1275.77 1558.65 Q1278.63 1559.12 1281.05 1560.08 Z" fill="#000000" fill-rule="nonzero" fill-opacity="1" /><path clip-path="url(#clip140)" d="M1322.78 1575.39 L1322.78 1578.25 L1295.85 1578.25 Q1296.23 1584.3 1299.48 1587.48 Q1302.76 1590.63 1308.58 1590.63 Q1311.95 1590.63 1315.11 1589.81 Q1318.29 1588.98 1321.41 1587.32 L1321.41 1592.86 Q1318.26 1594.2 1314.95 1594.9 Q1311.64 1595.6 1308.23 1595.6 Q1299.7 1595.6 1294.7 1590.63 Q1289.74 1585.67 1289.74 1577.2 Q1289.74 1568.45 1294.45 1563.32 Q1299.19 1558.17 1307.21 1558.17 Q1314.41 1558.17 1318.58 1562.82 Q1322.78 1567.43 1322.78 1575.39 M1316.92 1573.67 Q1316.86 1568.86 1314.21 1566 Q1311.6 1563.13 1307.28 1563.13 Q1302.37 1563.13 1299.41 1565.9 Q1296.49 1568.67 1296.04 1573.7 L1316.92 1573.67 Z" fill="#000000" fill-rule="nonzero" fill-opacity="1" /><path clip-path="url(#clip140)" d="M1338.18 1548.91 L1338.18 1559.03 L1350.24 1559.03 L1350.24 1563.58 L1338.18 1563.58 L1338.18 1582.93 Q1338.18 1587.29 1339.36 1588.53 Q1340.57 1589.77 1344.23 1589.77 L1350.24 1589.77 L1350.24 1594.68 L1344.23 1594.68 Q1337.45 1594.68 1334.87 1592.16 Q1332.29 1589.61 1332.29 1582.93 L1332.29 1563.58 L1328 1563.58 L1328 1559.03 L1332.29 1559.03 L1332.29 1548.91 L1338.18 1548.91 Z" fill="#000000" fill-rule="nonzero" fill-opacity="1" /><path clip-path="url(#clip140)" d="M1380.67 1560.08 L1380.67 1565.62 Q1378.19 1564.34 1375.52 1563.71 Q1372.84 1563.07 1369.98 1563.07 Q1365.62 1563.07 1363.42 1564.41 Q1361.26 1565.74 1361.26 1568.42 Q1361.26 1570.45 1362.82 1571.63 Q1364.38 1572.78 1369.09 1573.83 L1371.09 1574.27 Q1377.33 1575.61 1379.94 1578.06 Q1382.58 1580.48 1382.58 1584.84 Q1382.58 1589.81 1378.64 1592.7 Q1374.72 1595.6 1367.85 1595.6 Q1364.98 1595.6 1361.86 1595.03 Q1358.77 1594.48 1355.34 1593.37 L1355.34 1587.32 Q1358.58 1589.01 1361.73 1589.87 Q1364.89 1590.7 1367.97 1590.7 Q1372.11 1590.7 1374.34 1589.3 Q1376.57 1587.86 1376.57 1585.29 Q1376.57 1582.9 1374.94 1581.63 Q1373.35 1580.35 1367.91 1579.18 L1365.87 1578.7 Q1360.43 1577.55 1358.01 1575.2 Q1355.59 1572.81 1355.59 1568.67 Q1355.59 1563.64 1359.16 1560.91 Q1362.72 1558.17 1369.28 1558.17 Q1372.52 1558.17 1375.39 1558.65 Q1378.25 1559.12 1380.67 1560.08 Z" fill="#000000" fill-rule="nonzero" fill-opacity="1" /><polyline clip-path="url(#clip140)" style="stroke:#000000; stroke-linecap:round; stroke-linejoin:round; stroke-width:4; stroke-opacity:1; fill:none" points="203.964,1369.92 203.964,47.2441 "/>
<polyline clip-path="url(#clip140)" style="stroke:#000000; stroke-linecap:round; stroke-linejoin:round; stroke-width:4; stroke-opacity:1; fill:none" points="203.964,1369.92 222.861,1369.92 "/>
<polyline clip-path="url(#clip140)" style="stroke:#000000; stroke-linecap:round; stroke-linejoin:round; stroke-width:4; stroke-opacity:1; fill:none" points="203.964,1030.14 222.861,1030.14 "/>
<polyline clip-path="url(#clip140)" style="stroke:#000000; stroke-linecap:round; stroke-linejoin:round; stroke-width:4; stroke-opacity:1; fill:none" points="203.964,690.354 222.861,690.354 "/>
<polyline clip-path="url(#clip140)" style="stroke:#000000; stroke-linecap:round; stroke-linejoin:round; stroke-width:4; stroke-opacity:1; fill:none" points="203.964,350.573 222.861,350.573 "/>
<path clip-path="url(#clip140)" d="M156.019 1355.71 Q152.408 1355.71 150.579 1359.28 Q148.774 1362.82 148.774 1369.95 Q148.774 1377.06 150.579 1380.62 Q152.408 1384.16 156.019 1384.16 Q159.653 1384.16 161.459 1380.62 Q163.288 1377.06 163.288 1369.95 Q163.288 1362.82 161.459 1359.28 Q159.653 1355.71 156.019 1355.71 M156.019 1352.01 Q161.829 1352.01 164.885 1356.62 Q167.964 1361.2 167.964 1369.95 Q167.964 1378.68 164.885 1383.28 Q161.829 1387.87 156.019 1387.87 Q150.209 1387.87 147.13 1383.28 Q144.075 1378.68 144.075 1369.95 Q144.075 1361.2 147.13 1356.62 Q150.209 1352.01 156.019 1352.01 Z" fill="#000000" fill-rule="nonzero" fill-opacity="1" /><path clip-path="url(#clip140)" d="M116.668 1043.48 L124.306 1043.48 L124.306 1017.11 L115.996 1018.78 L115.996 1014.52 L124.26 1012.86 L128.936 1012.86 L128.936 1043.48 L136.575 1043.48 L136.575 1047.42 L116.668 1047.42 L116.668 1043.48 Z" fill="#000000" fill-rule="nonzero" fill-opacity="1" /><path clip-path="url(#clip140)" d="M156.019 1015.93 Q152.408 1015.93 150.579 1019.5 Q148.774 1023.04 148.774 1030.17 Q148.774 1037.28 150.579 1040.84 Q152.408 1044.38 156.019 1044.38 Q159.653 1044.38 161.459 1040.84 Q163.288 1037.28 163.288 1030.17 Q163.288 1023.04 161.459 1019.5 Q159.653 1015.93 156.019 1015.93 M156.019 1012.23 Q161.829 1012.23 164.885 1016.84 Q167.964 1021.42 167.964 1030.17 Q167.964 1038.9 164.885 1043.5 Q161.829 1048.09 156.019 1048.09 Q150.209 1048.09 147.13 1043.5 Q144.075 1038.9 144.075 1030.17 Q144.075 1021.42 147.13 1016.84 Q150.209 1012.23 156.019 1012.23 Z" fill="#000000" fill-rule="nonzero" fill-opacity="1" /><path clip-path="url(#clip140)" d="M119.885 703.699 L136.204 703.699 L136.204 707.634 L114.26 707.634 L114.26 703.699 Q116.922 700.944 121.505 696.314 Q126.112 691.662 127.292 690.319 Q129.538 687.796 130.417 686.06 Q131.32 684.301 131.32 682.611 Q131.32 679.856 129.376 678.12 Q127.455 676.384 124.353 676.384 Q122.154 676.384 119.7 677.148 Q117.269 677.912 114.492 679.463 L114.492 674.74 Q117.316 673.606 119.769 673.027 Q122.223 672.449 124.26 672.449 Q129.63 672.449 132.825 675.134 Q136.019 677.819 136.019 682.31 Q136.019 684.439 135.209 686.361 Q134.422 688.259 132.316 690.851 Q131.737 691.523 128.635 694.74 Q125.533 697.935 119.885 703.699 Z" fill="#000000" fill-rule="nonzero" fill-opacity="1" /><path clip-path="url(#clip140)" d="M156.019 676.152 Q152.408 676.152 150.579 679.717 Q148.774 683.259 148.774 690.389 Q148.774 697.495 150.579 701.06 Q152.408 704.601 156.019 704.601 Q159.653 704.601 161.459 701.06 Q163.288 697.495 163.288 690.389 Q163.288 683.259 161.459 679.717 Q159.653 676.152 156.019 676.152 M156.019 672.449 Q161.829 672.449 164.885 677.055 Q167.964 681.639 167.964 690.389 Q167.964 699.115 164.885 703.722 Q161.829 708.305 156.019 708.305 Q150.209 708.305 147.13 703.722 Q144.075 699.115 144.075 690.389 Q144.075 681.639 147.13 677.055 Q150.209 672.449 156.019 672.449 Z" fill="#000000" fill-rule="nonzero" fill-opacity="1" /><path clip-path="url(#clip140)" d="M130.024 349.218 Q133.38 349.936 135.255 352.205 Q137.154 354.473 137.154 357.806 Q137.154 362.922 133.635 365.723 Q130.117 368.524 123.635 368.524 Q121.459 368.524 119.144 368.084 Q116.853 367.667 114.399 366.811 L114.399 362.297 Q116.343 363.431 118.658 364.01 Q120.973 364.589 123.496 364.589 Q127.894 364.589 130.186 362.853 Q132.501 361.116 132.501 357.806 Q132.501 354.751 130.348 353.038 Q128.218 351.302 124.399 351.302 L120.371 351.302 L120.371 347.459 L124.584 347.459 Q128.033 347.459 129.862 346.093 Q131.691 344.705 131.691 342.112 Q131.691 339.45 129.792 338.038 Q127.917 336.603 124.399 336.603 Q122.478 336.603 120.279 337.019 Q118.08 337.436 115.441 338.316 L115.441 334.149 Q118.103 333.408 120.418 333.038 Q122.755 332.668 124.816 332.668 Q130.14 332.668 133.242 335.098 Q136.343 337.506 136.343 341.626 Q136.343 344.496 134.7 346.487 Q133.056 348.455 130.024 349.218 Z" fill="#000000" fill-rule="nonzero" fill-opacity="1" /><path clip-path="url(#clip140)" d="M156.019 336.371 Q152.408 336.371 150.579 339.936 Q148.774 343.478 148.774 350.607 Q148.774 357.714 150.579 361.279 Q152.408 364.82 156.019 364.82 Q159.653 364.82 161.459 361.279 Q163.288 357.714 163.288 350.607 Q163.288 343.478 161.459 339.936 Q159.653 336.371 156.019 336.371 M156.019 332.668 Q161.829 332.668 164.885 337.274 Q167.964 341.857 167.964 350.607 Q167.964 359.334 164.885 363.941 Q161.829 368.524 156.019 368.524 Q150.209 368.524 147.13 363.941 Q144.075 359.334 144.075 350.607 Q144.075 341.857 147.13 337.274 Q150.209 332.668 156.019 332.668 Z" fill="#000000" fill-rule="nonzero" fill-opacity="1" /><path clip-path="url(#clip140)" d="M21.7677 1093.43 L39.6235 1093.43 L39.6235 1085.35 Q39.6235 1080.86 37.3 1078.41 Q34.9765 1075.96 30.6797 1075.96 Q26.4147 1075.96 24.0912 1078.41 Q21.7677 1080.86 21.7677 1085.35 L21.7677 1093.43 M16.4842 1099.86 L16.4842 1085.35 Q16.4842 1077.36 20.1126 1073.29 Q23.7092 1069.18 30.6797 1069.18 Q37.7138 1069.18 41.3104 1073.29 Q44.907 1077.36 44.907 1085.35 L44.907 1093.43 L64.0042 1093.43 L64.0042 1099.86 L16.4842 1099.86 Z" fill="#000000" fill-rule="nonzero" fill-opacity="1" /><path clip-path="url(#clip140)" d="M44.7161 1032.64 L47.5806 1032.64 L47.5806 1059.57 Q53.6281 1059.19 56.8109 1055.94 Q59.9619 1052.66 59.9619 1046.84 Q59.9619 1043.46 59.1344 1040.31 Q58.3069 1037.13 56.6518 1034.01 L62.1899 1034.01 Q63.5267 1037.16 64.227 1040.47 Q64.9272 1043.78 64.9272 1047.19 Q64.9272 1055.72 59.9619 1060.72 Q54.9967 1065.68 46.5303 1065.68 Q37.7774 1065.68 32.6531 1060.97 Q27.4968 1056.23 27.4968 1048.21 Q27.4968 1041.01 32.1438 1036.84 Q36.7589 1032.64 44.7161 1032.64 M42.9973 1038.5 Q38.1912 1038.56 35.3266 1041.2 Q32.4621 1043.81 32.4621 1048.14 Q32.4621 1053.04 35.2312 1056 Q38.0002 1058.93 43.0292 1059.38 L42.9973 1038.5 Z" fill="#000000" fill-rule="nonzero" fill-opacity="1" /><path clip-path="url(#clip140)" d="M33.8307 1002.37 Q33.2578 1003.36 33.0032 1004.54 Q32.7167 1005.68 32.7167 1007.08 Q32.7167 1012.05 35.9632 1014.72 Q39.1779 1017.36 45.2253 1017.36 L64.0042 1017.36 L64.0042 1023.25 L28.3562 1023.25 L28.3562 1017.36 L33.8944 1017.36 Q30.6479 1015.52 29.0883 1012.56 Q27.4968 1009.6 27.4968 1005.37 Q27.4968 1004.76 27.5923 1004.03 Q27.656 1003.3 27.8151 1002.41 L33.8307 1002.37 Z" fill="#000000" fill-rule="nonzero" fill-opacity="1" /><path clip-path="url(#clip140)" d="M29.7248 972.009 L35.1993 972.009 Q33.8307 974.492 33.1623 977.006 Q32.4621 979.489 32.4621 982.035 Q32.4621 987.732 36.0905 990.883 Q39.6872 994.034 46.212 994.034 Q52.7369 994.034 56.3653 990.883 Q59.9619 987.732 59.9619 982.035 Q59.9619 979.489 59.2935 977.006 Q58.5933 974.492 57.2247 972.009 L62.6355 972.009 Q63.7814 974.46 64.3543 977.102 Q64.9272 979.712 64.9272 982.672 Q64.9272 990.724 59.8664 995.467 Q54.8057 1000.21 46.212 1000.21 Q37.491 1000.21 32.4939 995.435 Q27.4968 990.629 27.4968 982.29 Q27.4968 979.584 28.0697 977.006 Q28.6108 974.428 29.7248 972.009 Z" fill="#000000" fill-rule="nonzero" fill-opacity="1" /><path clip-path="url(#clip140)" d="M44.7161 931.332 L47.5806 931.332 L47.5806 958.259 Q53.6281 957.877 56.8109 954.631 Q59.9619 951.352 59.9619 945.528 Q59.9619 942.154 59.1344 939.003 Q58.3069 935.82 56.6518 932.701 L62.1899 932.701 Q63.5267 935.852 64.227 939.162 Q64.9272 942.472 64.9272 945.878 Q64.9272 954.408 59.9619 959.405 Q54.9967 964.37 46.5303 964.37 Q37.7774 964.37 32.6531 959.66 Q27.4968 954.917 27.4968 946.896 Q27.4968 939.703 32.1438 935.534 Q36.7589 931.332 44.7161 931.332 M42.9973 937.189 Q38.1912 937.252 35.3266 939.894 Q32.4621 942.504 32.4621 946.833 Q32.4621 951.734 35.2312 954.694 Q38.0002 957.623 43.0292 958.068 L42.9973 937.189 Z" fill="#000000" fill-rule="nonzero" fill-opacity="1" /><path clip-path="url(#clip140)" d="M42.4881 892.088 L64.0042 892.088 L64.0042 897.944 L42.679 897.944 Q37.6183 897.944 35.1038 899.917 Q32.5894 901.891 32.5894 905.838 Q32.5894 910.58 35.6131 913.317 Q38.6368 916.054 43.8567 916.054 L64.0042 916.054 L64.0042 921.943 L28.3562 921.943 L28.3562 916.054 L33.8944 916.054 Q30.6797 913.954 29.0883 911.121 Q27.4968 908.256 27.4968 904.533 Q27.4968 898.39 31.3163 895.239 Q35.1038 892.088 42.4881 892.088 Z" fill="#000000" fill-rule="nonzero" fill-opacity="1" /><path clip-path="url(#clip140)" d="M18.2347 874.614 L28.3562 874.614 L28.3562 862.551 L32.9077 862.551 L32.9077 874.614 L52.2594 874.614 Q56.6199 874.614 57.8613 873.436 Q59.1026 872.227 59.1026 868.566 L59.1026 862.551 L64.0042 862.551 L64.0042 868.566 Q64.0042 875.346 61.4897 877.924 Q58.9434 880.502 52.2594 880.502 L32.9077 880.502 L32.9077 884.799 L28.3562 884.799 L28.3562 880.502 L18.2347 880.502 L18.2347 874.614 Z" fill="#000000" fill-rule="nonzero" fill-opacity="1" /><path clip-path="url(#clip140)" d="M46.0847 838.647 Q46.0847 845.745 47.7079 848.482 Q49.3312 851.22 53.2461 851.22 Q56.3653 851.22 58.2114 849.183 Q60.0256 847.114 60.0256 843.581 Q60.0256 838.711 56.5881 835.783 Q53.1188 832.823 47.3897 832.823 L46.0847 832.823 L46.0847 838.647 M43.6657 826.966 L64.0042 826.966 L64.0042 832.823 L58.5933 832.823 Q61.8398 834.828 63.3994 837.82 Q64.9272 840.812 64.9272 845.14 Q64.9272 850.615 61.8716 853.862 Q58.7843 857.076 53.6281 857.076 Q47.6125 857.076 44.5569 853.066 Q41.5014 849.024 41.5014 841.035 L41.5014 832.823 L40.9285 832.823 Q36.8862 832.823 34.6901 835.496 Q32.4621 838.138 32.4621 842.944 Q32.4621 846 33.1941 848.896 Q33.9262 851.793 35.3903 854.466 L29.9795 854.466 Q28.7381 851.252 28.1334 848.228 Q27.4968 845.204 27.4968 842.34 Q27.4968 834.605 31.5072 830.786 Q35.5176 826.966 43.6657 826.966 Z" fill="#000000" fill-rule="nonzero" fill-opacity="1" /><path clip-path="url(#clip140)" d="M45.7664 791.446 Q39.4007 791.446 35.8996 794.088 Q32.3984 796.697 32.3984 801.44 Q32.3984 806.151 35.8996 808.792 Q39.4007 811.402 45.7664 811.402 Q52.1003 811.402 55.6014 808.792 Q59.1026 806.151 59.1026 801.44 Q59.1026 796.697 55.6014 794.088 Q52.1003 791.446 45.7664 791.446 M59.58 785.589 Q68.683 785.589 73.1071 789.632 Q77.5631 793.674 77.5631 802.013 Q77.5631 805.1 77.0857 807.837 Q76.6401 810.575 75.6852 813.153 L69.9879 813.153 Q71.3884 810.575 72.0568 808.06 Q72.7252 805.546 72.7252 802.936 Q72.7252 797.175 69.7015 794.31 Q66.7096 791.446 60.6303 791.446 L57.7339 791.446 Q60.885 793.26 62.4446 796.093 Q64.0042 798.925 64.0042 802.872 Q64.0042 809.429 59.0071 813.439 Q54.01 817.45 45.7664 817.45 Q37.491 817.45 32.4939 813.439 Q27.4968 809.429 27.4968 802.872 Q27.4968 798.925 29.0564 796.093 Q30.616 793.26 33.7671 791.446 L28.3562 791.446 L28.3562 785.589 L59.58 785.589 Z" fill="#000000" fill-rule="nonzero" fill-opacity="1" /><path clip-path="url(#clip140)" d="M44.7161 743.035 L47.5806 743.035 L47.5806 769.961 Q53.6281 769.58 56.8109 766.333 Q59.9619 763.055 59.9619 757.23 Q59.9619 753.856 59.1344 750.705 Q58.3069 747.522 56.6518 744.403 L62.1899 744.403 Q63.5267 747.554 64.227 750.864 Q64.9272 754.175 64.9272 757.58 Q64.9272 766.11 59.9619 771.107 Q54.9967 776.073 46.5303 776.073 Q37.7774 776.073 32.6531 771.362 Q27.4968 766.619 27.4968 758.599 Q27.4968 751.405 32.1438 747.236 Q36.7589 743.035 44.7161 743.035 M42.9973 748.891 Q38.1912 748.955 35.3266 751.596 Q32.4621 754.206 32.4621 758.535 Q32.4621 763.437 35.2312 766.397 Q38.0002 769.325 43.0292 769.771 L42.9973 748.891 Z" fill="#000000" fill-rule="nonzero" fill-opacity="1" /><path clip-path="url(#clip140)" d="M20.1444 676.863 L26.9239 676.863 Q23.9002 680.11 22.4043 683.802 Q20.9083 687.462 20.9083 691.6 Q20.9083 699.748 25.9054 704.076 Q30.8707 708.405 40.2919 708.405 Q49.6813 708.405 54.6784 704.076 Q59.6436 699.748 59.6436 691.6 Q59.6436 687.462 58.1477 683.802 Q56.6518 680.11 53.6281 676.863 L60.3439 676.863 Q62.6355 680.237 63.7814 684.024 Q64.9272 687.78 64.9272 691.982 Q64.9272 702.771 58.3387 708.978 Q51.7183 715.185 40.2919 715.185 Q28.8336 715.185 22.2451 708.978 Q15.6248 702.771 15.6248 691.982 Q15.6248 687.717 16.7706 683.961 Q17.8846 680.173 20.1444 676.863 Z" fill="#000000" fill-rule="nonzero" fill-opacity="1" /><path clip-path="url(#clip140)" d="M32.4621 653.374 Q32.4621 658.084 36.1542 660.821 Q39.8145 663.559 46.212 663.559 Q52.6095 663.559 56.3017 660.853 Q59.9619 658.116 59.9619 653.374 Q59.9619 648.695 56.2698 645.958 Q52.5777 643.22 46.212 643.22 Q39.8781 643.22 36.186 645.958 Q32.4621 648.695 32.4621 653.374 M27.4968 653.374 Q27.4968 645.735 32.4621 641.374 Q37.4273 637.014 46.212 637.014 Q54.9649 637.014 59.9619 641.374 Q64.9272 645.735 64.9272 653.374 Q64.9272 661.044 59.9619 665.405 Q54.9649 669.733 46.212 669.733 Q37.4273 669.733 32.4621 665.405 Q27.4968 661.044 27.4968 653.374 Z" fill="#000000" fill-rule="nonzero" fill-opacity="1" /><path clip-path="url(#clip140)" d="M35.1993 599.552 Q31.2526 597.355 29.3747 594.3 Q27.4968 591.244 27.4968 587.107 Q27.4968 581.537 31.4117 578.513 Q35.2948 575.489 42.4881 575.489 L64.0042 575.489 L64.0042 581.377 L42.679 581.377 Q37.5546 581.377 35.072 583.192 Q32.5894 585.006 32.5894 588.73 Q32.5894 593.281 35.6131 595.923 Q38.6368 598.565 43.8567 598.565 L64.0042 598.565 L64.0042 604.453 L42.679 604.453 Q37.5228 604.453 35.072 606.267 Q32.5894 608.082 32.5894 611.869 Q32.5894 616.357 35.6449 618.999 Q38.6686 621.641 43.8567 621.641 L64.0042 621.641 L64.0042 627.529 L28.3562 627.529 L28.3562 621.641 L33.8944 621.641 Q30.616 619.635 29.0564 616.834 Q27.4968 614.034 27.4968 610.182 Q27.4968 606.299 29.4702 603.594 Q31.4436 600.856 35.1993 599.552 Z" fill="#000000" fill-rule="nonzero" fill-opacity="1" /><path clip-path="url(#clip140)" d="M58.657 558.143 L77.5631 558.143 L77.5631 564.031 L28.3562 564.031 L28.3562 558.143 L33.7671 558.143 Q30.5842 556.297 29.0564 553.496 Q27.4968 550.663 27.4968 546.748 Q27.4968 540.255 32.6531 536.213 Q37.8093 532.139 46.212 532.139 Q54.6147 532.139 59.771 536.213 Q64.9272 540.255 64.9272 546.748 Q64.9272 550.663 63.3994 553.496 Q61.8398 556.297 58.657 558.143 M46.212 538.218 Q39.7508 538.218 36.0905 540.892 Q32.3984 543.533 32.3984 548.18 Q32.3984 552.827 36.0905 555.501 Q39.7508 558.143 46.212 558.143 Q52.6732 558.143 56.3653 555.501 Q60.0256 552.827 60.0256 548.18 Q60.0256 543.533 56.3653 540.892 Q52.6732 538.218 46.212 538.218 Z" fill="#000000" fill-rule="nonzero" fill-opacity="1" /><path clip-path="url(#clip140)" d="M32.4621 508.617 Q32.4621 513.328 36.1542 516.065 Q39.8145 518.803 46.212 518.803 Q52.6095 518.803 56.3017 516.097 Q59.9619 513.36 59.9619 508.617 Q59.9619 503.939 56.2698 501.201 Q52.5777 498.464 46.212 498.464 Q39.8781 498.464 36.186 501.201 Q32.4621 503.939 32.4621 508.617 M27.4968 508.617 Q27.4968 500.979 32.4621 496.618 Q37.4273 492.258 46.212 492.258 Q54.9649 492.258 59.9619 496.618 Q64.9272 500.979 64.9272 508.617 Q64.9272 516.288 59.9619 520.649 Q54.9649 524.977 46.212 524.977 Q37.4273 524.977 32.4621 520.649 Q27.4968 516.288 27.4968 508.617 Z" fill="#000000" fill-rule="nonzero" fill-opacity="1" /><path clip-path="url(#clip140)" d="M29.4065 459.824 L34.9447 459.824 Q33.6716 462.307 33.035 464.98 Q32.3984 467.654 32.3984 470.519 Q32.3984 474.879 33.7352 477.075 Q35.072 479.24 37.7456 479.24 Q39.7826 479.24 40.9603 477.68 Q42.1061 476.12 43.1565 471.41 L43.6021 469.405 Q44.9389 463.166 47.3897 460.556 Q49.8086 457.915 54.1691 457.915 Q59.1344 457.915 62.0308 461.861 Q64.9272 465.776 64.9272 472.651 Q64.9272 475.516 64.3543 478.635 Q63.8132 481.722 62.6992 485.16 L56.6518 485.16 Q58.3387 481.913 59.198 478.762 Q60.0256 475.611 60.0256 472.524 Q60.0256 468.386 58.6251 466.158 Q57.1929 463.93 54.6147 463.93 Q52.2276 463.93 50.9545 465.553 Q49.6813 467.145 48.5037 472.588 L48.0262 474.625 Q46.8804 480.067 44.5251 482.486 Q42.138 484.905 38.0002 484.905 Q32.9713 484.905 30.2341 481.34 Q27.4968 477.776 27.4968 471.219 Q27.4968 467.972 27.9743 465.108 Q28.4517 462.243 29.4065 459.824 Z" fill="#000000" fill-rule="nonzero" fill-opacity="1" /><path clip-path="url(#clip140)" d="M28.3562 448.589 L28.3562 442.732 L64.0042 442.732 L64.0042 448.589 L28.3562 448.589 M14.479 448.589 L14.479 442.732 L21.895 442.732 L21.895 448.589 L14.479 448.589 Z" fill="#000000" fill-rule="nonzero" fill-opacity="1" /><path clip-path="url(#clip140)" d="M18.2347 424.686 L28.3562 424.686 L28.3562 412.623 L32.9077 412.623 L32.9077 424.686 L52.2594 424.686 Q56.6199 424.686 57.8613 423.508 Q59.1026 422.298 59.1026 418.638 L59.1026 412.623 L64.0042 412.623 L64.0042 418.638 Q64.0042 425.418 61.4897 427.996 Q58.9434 430.574 52.2594 430.574 L32.9077 430.574 L32.9077 434.871 L28.3562 434.871 L28.3562 430.574 L18.2347 430.574 L18.2347 424.686 Z" fill="#000000" fill-rule="nonzero" fill-opacity="1" /><path clip-path="url(#clip140)" d="M28.3562 404.92 L28.3562 399.064 L64.0042 399.064 L64.0042 404.92 L28.3562 404.92 M14.479 404.92 L14.479 399.064 L21.895 399.064 L21.895 404.92 L14.479 404.92 Z" fill="#000000" fill-rule="nonzero" fill-opacity="1" /><path clip-path="url(#clip140)" d="M32.4621 372.996 Q32.4621 377.707 36.1542 380.444 Q39.8145 383.181 46.212 383.181 Q52.6095 383.181 56.3017 380.476 Q59.9619 377.738 59.9619 372.996 Q59.9619 368.317 56.2698 365.58 Q52.5777 362.843 46.212 362.843 Q39.8781 362.843 36.186 365.58 Q32.4621 368.317 32.4621 372.996 M27.4968 372.996 Q27.4968 365.357 32.4621 360.997 Q37.4273 356.636 46.212 356.636 Q54.9649 356.636 59.9619 360.997 Q64.9272 365.357 64.9272 372.996 Q64.9272 380.667 59.9619 385.027 Q54.9649 389.356 46.212 389.356 Q37.4273 389.356 32.4621 385.027 Q27.4968 380.667 27.4968 372.996 Z" fill="#000000" fill-rule="nonzero" fill-opacity="1" /><path clip-path="url(#clip140)" d="M42.4881 317.296 L64.0042 317.296 L64.0042 323.153 L42.679 323.153 Q37.6183 323.153 35.1038 325.126 Q32.5894 327.099 32.5894 331.046 Q32.5894 335.788 35.6131 338.526 Q38.6368 341.263 43.8567 341.263 L64.0042 341.263 L64.0042 347.151 L28.3562 347.151 L28.3562 341.263 L33.8944 341.263 Q30.6797 339.162 29.0883 336.33 Q27.4968 333.465 27.4968 329.741 Q27.4968 323.598 31.3163 320.447 Q35.1038 317.296 42.4881 317.296 Z" fill="#000000" fill-rule="nonzero" fill-opacity="1" /><path clip-path="url(#clip142)" d="M322.151 1369.92 L322.151 1369.92 L383.842 1369.92 L383.842 1369.92 L322.151 1369.92 L322.151 1369.92  Z" fill="#009af9" fill-rule="evenodd" fill-opacity="1"/>
<polyline clip-path="url(#clip142)" style="stroke:#000000; stroke-linecap:round; stroke-linejoin:round; stroke-width:4; stroke-opacity:1; fill:none" points="322.151,1369.92 322.151,1369.92 383.842,1369.92 383.842,1369.92 322.151,1369.92 "/>
<path clip-path="url(#clip142)" d="M399.265 1369.53 L399.265 1369.92 L460.955 1369.92 L460.955 1369.53 L399.265 1369.53 L399.265 1369.53  Z" fill="#009af9" fill-rule="evenodd" fill-opacity="1"/>
<polyline clip-path="url(#clip142)" style="stroke:#000000; stroke-linecap:round; stroke-linejoin:round; stroke-width:4; stroke-opacity:1; fill:none" points="399.265,1369.53 399.265,1369.92 460.955,1369.92 460.955,1369.53 399.265,1369.53 "/>
<path clip-path="url(#clip142)" d="M476.378 1369.92 L476.378 1369.92 L538.069 1369.92 L538.069 1369.92 L476.378 1369.92 L476.378 1369.92  Z" fill="#009af9" fill-rule="evenodd" fill-opacity="1"/>
<polyline clip-path="url(#clip142)" style="stroke:#000000; stroke-linecap:round; stroke-linejoin:round; stroke-width:4; stroke-opacity:1; fill:none" points="476.378,1369.92 476.378,1369.92 538.069,1369.92 538.069,1369.92 476.378,1369.92 "/>
<path clip-path="url(#clip142)" d="M553.492 1369.85 L553.492 1369.92 L615.183 1369.92 L615.183 1369.85 L553.492 1369.85 L553.492 1369.85  Z" fill="#009af9" fill-rule="evenodd" fill-opacity="1"/>
<polyline clip-path="url(#clip142)" style="stroke:#000000; stroke-linecap:round; stroke-linejoin:round; stroke-width:4; stroke-opacity:1; fill:none" points="553.492,1369.85 553.492,1369.92 615.183,1369.92 615.183,1369.85 553.492,1369.85 "/>
<path clip-path="url(#clip142)" d="M630.605 1369.92 L630.605 1369.92 L692.296 1369.92 L692.296 1369.92 L630.605 1369.92 L630.605 1369.92  Z" fill="#009af9" fill-rule="evenodd" fill-opacity="1"/>
<polyline clip-path="url(#clip142)" style="stroke:#000000; stroke-linecap:round; stroke-linejoin:round; stroke-width:4; stroke-opacity:1; fill:none" points="630.605,1369.92 630.605,1369.92 692.296,1369.92 692.296,1369.92 630.605,1369.92 "/>
<path clip-path="url(#clip142)" d="M707.719 1369.91 L707.719 1369.92 L769.41 1369.92 L769.41 1369.91 L707.719 1369.91 L707.719 1369.91  Z" fill="#009af9" fill-rule="evenodd" fill-opacity="1"/>
<polyline clip-path="url(#clip142)" style="stroke:#000000; stroke-linecap:round; stroke-linejoin:round; stroke-width:4; stroke-opacity:1; fill:none" points="707.719,1369.91 707.719,1369.92 769.41,1369.92 769.41,1369.91 707.719,1369.91 "/>
<path clip-path="url(#clip142)" d="M784.833 47.2441 L784.833 1369.92 L846.524 1369.92 L846.524 47.2441 L784.833 47.2441 L784.833 47.2441  Z" fill="#009af9" fill-rule="evenodd" fill-opacity="1"/>
<polyline clip-path="url(#clip142)" style="stroke:#000000; stroke-linecap:round; stroke-linejoin:round; stroke-width:4; stroke-opacity:1; fill:none" points="784.833,47.2441 784.833,1369.92 846.524,1369.92 846.524,47.2441 784.833,47.2441 "/>
<path clip-path="url(#clip142)" d="M861.946 1289.36 L861.946 1369.92 L923.637 1369.92 L923.637 1289.36 L861.946 1289.36 L861.946 1289.36  Z" fill="#009af9" fill-rule="evenodd" fill-opacity="1"/>
<polyline clip-path="url(#clip142)" style="stroke:#000000; stroke-linecap:round; stroke-linejoin:round; stroke-width:4; stroke-opacity:1; fill:none" points="861.946,1289.36 861.946,1369.92 923.637,1369.92 923.637,1289.36 861.946,1289.36 "/>
<path clip-path="url(#clip142)" d="M939.06 1369.92 L939.06 1369.92 L1000.75 1369.92 L1000.75 1369.92 L939.06 1369.92 L939.06 1369.92  Z" fill="#009af9" fill-rule="evenodd" fill-opacity="1"/>
<polyline clip-path="url(#clip142)" style="stroke:#000000; stroke-linecap:round; stroke-linejoin:round; stroke-width:4; stroke-opacity:1; fill:none" points="939.06,1369.92 939.06,1369.92 1000.75,1369.92 1000.75,1369.92 939.06,1369.92 "/>
<path clip-path="url(#clip142)" d="M1016.17 1369.91 L1016.17 1369.92 L1077.86 1369.92 L1077.86 1369.91 L1016.17 1369.91 L1016.17 1369.91  Z" fill="#009af9" fill-rule="evenodd" fill-opacity="1"/>
<polyline clip-path="url(#clip142)" style="stroke:#000000; stroke-linecap:round; stroke-linejoin:round; stroke-width:4; stroke-opacity:1; fill:none" points="1016.17,1369.91 1016.17,1369.92 1077.86,1369.92 1077.86,1369.91 1016.17,1369.91 "/>
<path clip-path="url(#clip142)" d="M1093.29 1369.92 L1093.29 1369.92 L1154.98 1369.92 L1154.98 1369.92 L1093.29 1369.92 L1093.29 1369.92  Z" fill="#009af9" fill-rule="evenodd" fill-opacity="1"/>
<polyline clip-path="url(#clip142)" style="stroke:#000000; stroke-linecap:round; stroke-linejoin:round; stroke-width:4; stroke-opacity:1; fill:none" points="1093.29,1369.92 1093.29,1369.92 1154.98,1369.92 1154.98,1369.92 1093.29,1369.92 "/>
<path clip-path="url(#clip142)" d="M1170.4 1369.92 L1170.4 1369.92 L1232.09 1369.92 L1232.09 1369.92 L1170.4 1369.92 L1170.4 1369.92  Z" fill="#009af9" fill-rule="evenodd" fill-opacity="1"/>
<polyline clip-path="url(#clip142)" style="stroke:#000000; stroke-linecap:round; stroke-linejoin:round; stroke-width:4; stroke-opacity:1; fill:none" points="1170.4,1369.92 1170.4,1369.92 1232.09,1369.92 1232.09,1369.92 1170.4,1369.92 "/>
<path clip-path="url(#clip142)" d="M1247.51 328.711 L1247.51 1369.92 L1309.21 1369.92 L1309.21 328.711 L1247.51 328.711 L1247.51 328.711  Z" fill="#009af9" fill-rule="evenodd" fill-opacity="1"/>
<polyline clip-path="url(#clip142)" style="stroke:#000000; stroke-linecap:round; stroke-linejoin:round; stroke-width:4; stroke-opacity:1; fill:none" points="1247.51,328.711 1247.51,1369.92 1309.21,1369.92 1309.21,328.711 1247.51,328.711 "/>
<path clip-path="url(#clip142)" d="M1324.63 1352.86 L1324.63 1369.92 L1386.32 1369.92 L1386.32 1352.86 L1324.63 1352.86 L1324.63 1352.86  Z" fill="#009af9" fill-rule="evenodd" fill-opacity="1"/>
<polyline clip-path="url(#clip142)" style="stroke:#000000; stroke-linecap:round; stroke-linejoin:round; stroke-width:4; stroke-opacity:1; fill:none" points="1324.63,1352.86 1324.63,1369.92 1386.32,1369.92 1386.32,1352.86 1324.63,1352.86 "/>
<path clip-path="url(#clip142)" d="M1401.74 1341.15 L1401.74 1369.92 L1463.43 1369.92 L1463.43 1341.15 L1401.74 1341.15 L1401.74 1341.15  Z" fill="#009af9" fill-rule="evenodd" fill-opacity="1"/>
<polyline clip-path="url(#clip142)" style="stroke:#000000; stroke-linecap:round; stroke-linejoin:round; stroke-width:4; stroke-opacity:1; fill:none" points="1401.74,1341.15 1401.74,1369.92 1463.43,1369.92 1463.43,1341.15 1401.74,1341.15 "/>
<path clip-path="url(#clip142)" d="M1478.86 1369.9 L1478.86 1369.92 L1540.55 1369.92 L1540.55 1369.9 L1478.86 1369.9 L1478.86 1369.9  Z" fill="#009af9" fill-rule="evenodd" fill-opacity="1"/>
<polyline clip-path="url(#clip142)" style="stroke:#000000; stroke-linecap:round; stroke-linejoin:round; stroke-width:4; stroke-opacity:1; fill:none" points="1478.86,1369.9 1478.86,1369.92 1540.55,1369.92 1540.55,1369.9 1478.86,1369.9 "/>
<path clip-path="url(#clip142)" d="M1555.97 1369.92 L1555.97 1369.92 L1617.66 1369.92 L1617.66 1369.92 L1555.97 1369.92 L1555.97 1369.92  Z" fill="#009af9" fill-rule="evenodd" fill-opacity="1"/>
<polyline clip-path="url(#clip142)" style="stroke:#000000; stroke-linecap:round; stroke-linejoin:round; stroke-width:4; stroke-opacity:1; fill:none" points="1555.97,1369.92 1555.97,1369.92 1617.66,1369.92 1617.66,1369.92 1555.97,1369.92 "/>
<path clip-path="url(#clip142)" d="M1633.08 1369.92 L1633.08 1369.92 L1694.77 1369.92 L1694.77 1369.92 L1633.08 1369.92 L1633.08 1369.92  Z" fill="#009af9" fill-rule="evenodd" fill-opacity="1"/>
<polyline clip-path="url(#clip142)" style="stroke:#000000; stroke-linecap:round; stroke-linejoin:round; stroke-width:4; stroke-opacity:1; fill:none" points="1633.08,1369.92 1633.08,1369.92 1694.77,1369.92 1694.77,1369.92 1633.08,1369.92 "/>
<path clip-path="url(#clip142)" d="M1710.2 1369.92 L1710.2 1369.92 L1771.89 1369.92 L1771.89 1369.92 L1710.2 1369.92 L1710.2 1369.92  Z" fill="#009af9" fill-rule="evenodd" fill-opacity="1"/>
<polyline clip-path="url(#clip142)" style="stroke:#000000; stroke-linecap:round; stroke-linejoin:round; stroke-width:4; stroke-opacity:1; fill:none" points="1710.2,1369.92 1710.2,1369.92 1771.89,1369.92 1771.89,1369.92 1710.2,1369.92 "/>
<path clip-path="url(#clip142)" d="M1787.31 1369.92 L1787.31 1369.92 L1849 1369.92 L1849 1369.92 L1787.31 1369.92 L1787.31 1369.92  Z" fill="#009af9" fill-rule="evenodd" fill-opacity="1"/>
<polyline clip-path="url(#clip142)" style="stroke:#000000; stroke-linecap:round; stroke-linejoin:round; stroke-width:4; stroke-opacity:1; fill:none" points="1787.31,1369.92 1787.31,1369.92 1849,1369.92 1849,1369.92 1787.31,1369.92 "/>
<path clip-path="url(#clip142)" d="M1864.42 1088.6 L1864.42 1369.92 L1926.11 1369.92 L1926.11 1088.6 L1864.42 1088.6 L1864.42 1088.6  Z" fill="#009af9" fill-rule="evenodd" fill-opacity="1"/>
<polyline clip-path="url(#clip142)" style="stroke:#000000; stroke-linecap:round; stroke-linejoin:round; stroke-width:4; stroke-opacity:1; fill:none" points="1864.42,1088.6 1864.42,1369.92 1926.11,1369.92 1926.11,1088.6 1864.42,1088.6 "/>
<path clip-path="url(#clip142)" d="M1941.54 869.209 L1941.54 1369.92 L2003.23 1369.92 L2003.23 869.209 L1941.54 869.209 L1941.54 869.209  Z" fill="#009af9" fill-rule="evenodd" fill-opacity="1"/>
<polyline clip-path="url(#clip142)" style="stroke:#000000; stroke-linecap:round; stroke-linejoin:round; stroke-width:4; stroke-opacity:1; fill:none" points="1941.54,869.209 1941.54,1369.92 2003.23,1369.92 2003.23,869.209 1941.54,869.209 "/>
<path clip-path="url(#clip142)" d="M2018.65 1244.87 L2018.65 1369.92 L2080.34 1369.92 L2080.34 1244.87 L2018.65 1244.87 L2018.65 1244.87  Z" fill="#009af9" fill-rule="evenodd" fill-opacity="1"/>
<polyline clip-path="url(#clip142)" style="stroke:#000000; stroke-linecap:round; stroke-linejoin:round; stroke-width:4; stroke-opacity:1; fill:none" points="2018.65,1244.87 2018.65,1369.92 2080.34,1369.92 2080.34,1244.87 2018.65,1244.87 "/>
<path clip-path="url(#clip142)" d="M2095.76 1369.92 L2095.76 1369.92 L2157.45 1369.92 L2157.45 1369.92 L2095.76 1369.92 L2095.76 1369.92  Z" fill="#009af9" fill-rule="evenodd" fill-opacity="1"/>
<polyline clip-path="url(#clip142)" style="stroke:#000000; stroke-linecap:round; stroke-linejoin:round; stroke-width:4; stroke-opacity:1; fill:none" points="2095.76,1369.92 2095.76,1369.92 2157.45,1369.92 2157.45,1369.92 2095.76,1369.92 "/>
<path clip-path="url(#clip142)" d="M2172.88 1369.92 L2172.88 1369.92 L2234.57 1369.92 L2234.57 1369.92 L2172.88 1369.92 L2172.88 1369.92  Z" fill="#009af9" fill-rule="evenodd" fill-opacity="1"/>
<polyline clip-path="url(#clip142)" style="stroke:#000000; stroke-linecap:round; stroke-linejoin:round; stroke-width:4; stroke-opacity:1; fill:none" points="2172.88,1369.92 2172.88,1369.92 2234.57,1369.92 2234.57,1369.92 2172.88,1369.92 "/>
<circle clip-path="url(#clip142)" style="fill:#009af9; stroke:none; fill-opacity:0" cx="352.996" cy="1369.92" r="2"/>
<circle clip-path="url(#clip142)" style="fill:#009af9; stroke:none; fill-opacity:0" cx="430.11" cy="1369.53" r="2"/>
<circle clip-path="url(#clip142)" style="fill:#009af9; stroke:none; fill-opacity:0" cx="507.224" cy="1369.92" r="2"/>
<circle clip-path="url(#clip142)" style="fill:#009af9; stroke:none; fill-opacity:0" cx="584.337" cy="1369.85" r="2"/>
<circle clip-path="url(#clip142)" style="fill:#009af9; stroke:none; fill-opacity:0" cx="661.451" cy="1369.92" r="2"/>
<circle clip-path="url(#clip142)" style="fill:#009af9; stroke:none; fill-opacity:0" cx="738.564" cy="1369.91" r="2"/>
<circle clip-path="url(#clip142)" style="fill:#009af9; stroke:none; fill-opacity:0" cx="815.678" cy="47.2441" r="2"/>
<circle clip-path="url(#clip142)" style="fill:#009af9; stroke:none; fill-opacity:0" cx="892.792" cy="1289.36" r="2"/>
<circle clip-path="url(#clip142)" style="fill:#009af9; stroke:none; fill-opacity:0" cx="969.905" cy="1369.92" r="2"/>
<circle clip-path="url(#clip142)" style="fill:#009af9; stroke:none; fill-opacity:0" cx="1047.02" cy="1369.91" r="2"/>
<circle clip-path="url(#clip142)" style="fill:#009af9; stroke:none; fill-opacity:0" cx="1124.13" cy="1369.92" r="2"/>
<circle clip-path="url(#clip142)" style="fill:#009af9; stroke:none; fill-opacity:0" cx="1201.25" cy="1369.92" r="2"/>
<circle clip-path="url(#clip142)" style="fill:#009af9; stroke:none; fill-opacity:0" cx="1278.36" cy="328.711" r="2"/>
<circle clip-path="url(#clip142)" style="fill:#009af9; stroke:none; fill-opacity:0" cx="1355.47" cy="1352.86" r="2"/>
<circle clip-path="url(#clip142)" style="fill:#009af9; stroke:none; fill-opacity:0" cx="1432.59" cy="1341.15" r="2"/>
<circle clip-path="url(#clip142)" style="fill:#009af9; stroke:none; fill-opacity:0" cx="1509.7" cy="1369.9" r="2"/>
<circle clip-path="url(#clip142)" style="fill:#009af9; stroke:none; fill-opacity:0" cx="1586.81" cy="1369.92" r="2"/>
<circle clip-path="url(#clip142)" style="fill:#009af9; stroke:none; fill-opacity:0" cx="1663.93" cy="1369.92" r="2"/>
<circle clip-path="url(#clip142)" style="fill:#009af9; stroke:none; fill-opacity:0" cx="1741.04" cy="1369.92" r="2"/>
<circle clip-path="url(#clip142)" style="fill:#009af9; stroke:none; fill-opacity:0" cx="1818.16" cy="1369.92" r="2"/>
<circle clip-path="url(#clip142)" style="fill:#009af9; stroke:none; fill-opacity:0" cx="1895.27" cy="1088.6" r="2"/>
<circle clip-path="url(#clip142)" style="fill:#009af9; stroke:none; fill-opacity:0" cx="1972.38" cy="869.209" r="2"/>
<circle clip-path="url(#clip142)" style="fill:#009af9; stroke:none; fill-opacity:0" cx="2049.5" cy="1244.87" r="2"/>
<circle clip-path="url(#clip142)" style="fill:#009af9; stroke:none; fill-opacity:0" cx="2126.61" cy="1369.92" r="2"/>
<circle clip-path="url(#clip142)" style="fill:#009af9; stroke:none; fill-opacity:0" cx="2203.72" cy="1369.92" r="2"/>
</svg>
