<?xml version="1.0" encoding="utf-8"?>
<svg xmlns="http://www.w3.org/2000/svg" xmlns:xlink="http://www.w3.org/1999/xlink" width="600" height="400" viewBox="0 0 2400 1600">
<defs>
  <clipPath id="clip020">
    <rect x="0" y="0" width="2400" height="1600"/>
  </clipPath>
</defs>
<path clip-path="url(#clip020)" d="M0 1600 L2400 1600 L2400 0 L0 0  Z" fill="#ffffff" fill-rule="evenodd" fill-opacity="1"/>
<defs>
  <clipPath id="clip021">
    <rect x="480" y="0" width="1681" height="1600"/>
  </clipPath>
</defs>
<path clip-path="url(#clip020)" d="M217.783 1423.18 L2352.76 1423.18 L2352.76 47.2441 L217.783 47.2441  Z" fill="#ffffff" fill-rule="evenodd" fill-opacity="1"/>
<defs>
  <clipPath id="clip022">
    <rect x="217" y="47" width="2136" height="1377"/>
  </clipPath>
</defs>
<polyline clip-path="url(#clip022)" style="stroke:#000000; stroke-linecap:round; stroke-linejoin:round; stroke-width:2; stroke-opacity:0.1; fill:none" points="274.607,1423.18 274.607,47.2441 "/>
<polyline clip-path="url(#clip022)" style="stroke:#000000; stroke-linecap:round; stroke-linejoin:round; stroke-width:2; stroke-opacity:0.1; fill:none" points="779.175,1423.18 779.175,47.2441 "/>
<polyline clip-path="url(#clip022)" style="stroke:#000000; stroke-linecap:round; stroke-linejoin:round; stroke-width:2; stroke-opacity:0.1; fill:none" points="1285.13,1423.18 1285.13,47.2441 "/>
<polyline clip-path="url(#clip022)" style="stroke:#000000; stroke-linecap:round; stroke-linejoin:round; stroke-width:2; stroke-opacity:0.1; fill:none" points="1789.69,1423.18 1789.69,47.2441 "/>
<polyline clip-path="url(#clip022)" style="stroke:#000000; stroke-linecap:round; stroke-linejoin:round; stroke-width:2; stroke-opacity:0.1; fill:none" points="2294.26,1423.18 2294.26,47.2441 "/>
<polyline clip-path="url(#clip022)" style="stroke:#000000; stroke-linecap:round; stroke-linejoin:round; stroke-width:2; stroke-opacity:0.1; fill:none" points="217.783,1365.94 2352.76,1365.94 "/>
<polyline clip-path="url(#clip022)" style="stroke:#000000; stroke-linecap:round; stroke-linejoin:round; stroke-width:2; stroke-opacity:0.1; fill:none" points="217.783,1083.38 2352.76,1083.38 "/>
<polyline clip-path="url(#clip022)" style="stroke:#000000; stroke-linecap:round; stroke-linejoin:round; stroke-width:2; stroke-opacity:0.1; fill:none" points="217.783,800.833 2352.76,800.833 "/>
<polyline clip-path="url(#clip022)" style="stroke:#000000; stroke-linecap:round; stroke-linejoin:round; stroke-width:2; stroke-opacity:0.1; fill:none" points="217.783,518.281 2352.76,518.281 "/>
<polyline clip-path="url(#clip022)" style="stroke:#000000; stroke-linecap:round; stroke-linejoin:round; stroke-width:2; stroke-opacity:0.1; fill:none" points="217.783,235.729 2352.76,235.729 "/>
<polyline clip-path="url(#clip020)" style="stroke:#000000; stroke-linecap:round; stroke-linejoin:round; stroke-width:4; stroke-opacity:1; fill:none" points="217.783,1423.18 2352.76,1423.18 "/>
<polyline clip-path="url(#clip020)" style="stroke:#000000; stroke-linecap:round; stroke-linejoin:round; stroke-width:4; stroke-opacity:1; fill:none" points="274.607,1423.18 274.607,1404.28 "/>
<polyline clip-path="url(#clip020)" style="stroke:#000000; stroke-linecap:round; stroke-linejoin:round; stroke-width:4; stroke-opacity:1; fill:none" points="779.175,1423.18 779.175,1404.28 "/>
<polyline clip-path="url(#clip020)" style="stroke:#000000; stroke-linecap:round; stroke-linejoin:round; stroke-width:4; stroke-opacity:1; fill:none" points="1285.13,1423.18 1285.13,1404.28 "/>
<polyline clip-path="url(#clip020)" style="stroke:#000000; stroke-linecap:round; stroke-linejoin:round; stroke-width:4; stroke-opacity:1; fill:none" points="1789.69,1423.18 1789.69,1404.28 "/>
<polyline clip-path="url(#clip020)" style="stroke:#000000; stroke-linecap:round; stroke-linejoin:round; stroke-width:4; stroke-opacity:1; fill:none" points="2294.26,1423.18 2294.26,1404.28 "/>
<path clip-path="url(#clip020)" d="M146.401 1481.64 L162.721 1481.64 L162.721 1485.58 L140.776 1485.58 L140.776 1481.64 Q143.438 1478.89 148.022 1474.26 Q152.628 1469.61 153.809 1468.27 Q156.054 1465.74 156.934 1464.01 Q157.837 1462.25 157.837 1460.56 Q157.837 1457.8 155.892 1456.07 Q153.971 1454.33 150.869 1454.33 Q148.67 1454.33 146.216 1455.09 Q143.786 1455.86 141.008 1457.41 L141.008 1452.69 Q143.832 1451.55 146.286 1450.97 Q148.739 1450.39 150.776 1450.39 Q156.147 1450.39 159.341 1453.08 Q162.536 1455.77 162.536 1460.26 Q162.536 1462.39 161.725 1464.31 Q160.938 1466.2 158.832 1468.8 Q158.253 1469.47 155.151 1472.69 Q152.05 1475.88 146.401 1481.64 Z" fill="#000000" fill-rule="nonzero" fill-opacity="1" /><path clip-path="url(#clip020)" d="M182.535 1454.1 Q178.924 1454.1 177.096 1457.66 Q175.29 1461.2 175.29 1468.33 Q175.29 1475.44 177.096 1479.01 Q178.924 1482.55 182.535 1482.55 Q186.17 1482.55 187.975 1479.01 Q189.804 1475.44 189.804 1468.33 Q189.804 1461.2 187.975 1457.66 Q186.17 1454.1 182.535 1454.1 M182.535 1450.39 Q188.346 1450.39 191.401 1455 Q194.48 1459.58 194.48 1468.33 Q194.48 1477.06 191.401 1481.67 Q188.346 1486.25 182.535 1486.25 Q176.725 1486.25 173.647 1481.67 Q170.591 1477.06 170.591 1468.33 Q170.591 1459.58 173.647 1455 Q176.725 1450.39 182.535 1450.39 Z" fill="#000000" fill-rule="nonzero" fill-opacity="1" /><path clip-path="url(#clip020)" d="M203.508 1481.64 L211.146 1481.64 L211.146 1455.28 L202.836 1456.95 L202.836 1452.69 L211.1 1451.02 L215.776 1451.02 L215.776 1481.64 L223.415 1481.64 L223.415 1485.58 L203.508 1485.58 L203.508 1481.64 Z" fill="#000000" fill-rule="nonzero" fill-opacity="1" /><path clip-path="url(#clip020)" d="M232.998 1484.86 L232.998 1480.6 Q234.757 1481.44 236.563 1481.88 Q238.369 1482.32 240.105 1482.32 Q244.734 1482.32 247.165 1479.21 Q249.618 1476.09 249.966 1469.75 Q248.623 1471.74 246.563 1472.8 Q244.503 1473.87 242.003 1473.87 Q236.818 1473.87 233.785 1470.74 Q230.776 1467.59 230.776 1462.15 Q230.776 1456.83 233.924 1453.61 Q237.072 1450.39 242.304 1450.39 Q248.299 1450.39 251.447 1455 Q254.618 1459.58 254.618 1468.33 Q254.618 1476.51 250.73 1481.39 Q246.864 1486.25 240.313 1486.25 Q238.554 1486.25 236.748 1485.9 Q234.943 1485.56 232.998 1484.86 M242.304 1470.21 Q245.452 1470.21 247.281 1468.06 Q249.132 1465.9 249.132 1462.15 Q249.132 1458.43 247.281 1456.27 Q245.452 1454.1 242.304 1454.1 Q239.156 1454.1 237.304 1456.27 Q235.475 1458.43 235.475 1462.15 Q235.475 1465.9 237.304 1468.06 Q239.156 1470.21 242.304 1470.21 Z" fill="#000000" fill-rule="nonzero" fill-opacity="1" /><path clip-path="url(#clip020)" d="M260.267 1470.7 L272.743 1470.7 L272.743 1474.49 L260.267 1474.49 L260.267 1470.7 Z" fill="#000000" fill-rule="nonzero" fill-opacity="1" /><path clip-path="url(#clip020)" d="M290.128 1454.1 Q286.516 1454.1 284.688 1457.66 Q282.882 1461.2 282.882 1468.33 Q282.882 1475.44 284.688 1479.01 Q286.516 1482.55 290.128 1482.55 Q293.762 1482.55 295.567 1479.01 Q297.396 1475.44 297.396 1468.33 Q297.396 1461.2 295.567 1457.66 Q293.762 1454.1 290.128 1454.1 M290.128 1450.39 Q295.938 1450.39 298.993 1455 Q302.072 1459.58 302.072 1468.33 Q302.072 1477.06 298.993 1481.67 Q295.938 1486.25 290.128 1486.25 Q284.317 1486.25 281.239 1481.67 Q278.183 1477.06 278.183 1468.33 Q278.183 1459.58 281.239 1455 Q284.317 1450.39 290.128 1450.39 Z" fill="#000000" fill-rule="nonzero" fill-opacity="1" /><path clip-path="url(#clip020)" d="M311.1 1481.64 L318.738 1481.64 L318.738 1455.28 L310.428 1456.95 L310.428 1452.69 L318.692 1451.02 L323.368 1451.02 L323.368 1481.64 L331.007 1481.64 L331.007 1485.58 L311.1 1485.58 L311.1 1481.64 Z" fill="#000000" fill-rule="nonzero" fill-opacity="1" /><path clip-path="url(#clip020)" d="M337.697 1470.7 L350.173 1470.7 L350.173 1474.49 L337.697 1474.49 L337.697 1470.7 Z" fill="#000000" fill-rule="nonzero" fill-opacity="1" /><path clip-path="url(#clip020)" d="M367.558 1454.1 Q363.947 1454.1 362.118 1457.66 Q360.312 1461.2 360.312 1468.33 Q360.312 1475.44 362.118 1479.01 Q363.947 1482.55 367.558 1482.55 Q371.192 1482.55 372.997 1479.01 Q374.826 1475.44 374.826 1468.33 Q374.826 1461.2 372.997 1457.66 Q371.192 1454.1 367.558 1454.1 M367.558 1450.39 Q373.368 1450.39 376.423 1455 Q379.502 1459.58 379.502 1468.33 Q379.502 1477.06 376.423 1481.67 Q373.368 1486.25 367.558 1486.25 Q361.747 1486.25 358.669 1481.67 Q355.613 1477.06 355.613 1468.33 Q355.613 1459.58 358.669 1455 Q361.747 1450.39 367.558 1450.39 Z" fill="#000000" fill-rule="nonzero" fill-opacity="1" /><path clip-path="url(#clip020)" d="M388.53 1481.64 L396.169 1481.64 L396.169 1455.28 L387.858 1456.95 L387.858 1452.69 L396.122 1451.02 L400.798 1451.02 L400.798 1481.64 L408.437 1481.64 L408.437 1485.58 L388.53 1485.58 L388.53 1481.64 Z" fill="#000000" fill-rule="nonzero" fill-opacity="1" /><path clip-path="url(#clip020)" d="M650.97 1481.64 L667.289 1481.64 L667.289 1485.58 L645.345 1485.58 L645.345 1481.64 Q648.007 1478.89 652.59 1474.26 Q657.196 1469.61 658.377 1468.27 Q660.622 1465.74 661.502 1464.01 Q662.405 1462.25 662.405 1460.56 Q662.405 1457.8 660.46 1456.07 Q658.539 1454.33 655.437 1454.33 Q653.238 1454.33 650.784 1455.09 Q648.354 1455.86 645.576 1457.41 L645.576 1452.69 Q648.4 1451.55 650.854 1450.97 Q653.308 1450.39 655.345 1450.39 Q660.715 1450.39 663.909 1453.08 Q667.104 1455.77 667.104 1460.26 Q667.104 1462.39 666.294 1464.31 Q665.507 1466.2 663.4 1468.8 Q662.821 1469.47 659.72 1472.69 Q656.618 1475.88 650.97 1481.64 Z" fill="#000000" fill-rule="nonzero" fill-opacity="1" /><path clip-path="url(#clip020)" d="M687.104 1454.1 Q683.493 1454.1 681.664 1457.66 Q679.858 1461.2 679.858 1468.33 Q679.858 1475.44 681.664 1479.01 Q683.493 1482.55 687.104 1482.55 Q690.738 1482.55 692.543 1479.01 Q694.372 1475.44 694.372 1468.33 Q694.372 1461.2 692.543 1457.66 Q690.738 1454.1 687.104 1454.1 M687.104 1450.39 Q692.914 1450.39 695.969 1455 Q699.048 1459.58 699.048 1468.33 Q699.048 1477.06 695.969 1481.67 Q692.914 1486.25 687.104 1486.25 Q681.293 1486.25 678.215 1481.67 Q675.159 1477.06 675.159 1468.33 Q675.159 1459.58 678.215 1455 Q681.293 1450.39 687.104 1450.39 Z" fill="#000000" fill-rule="nonzero" fill-opacity="1" /><path clip-path="url(#clip020)" d="M711.293 1481.64 L727.613 1481.64 L727.613 1485.58 L705.668 1485.58 L705.668 1481.64 Q708.33 1478.89 712.914 1474.26 Q717.52 1469.61 718.701 1468.27 Q720.946 1465.74 721.826 1464.01 Q722.728 1462.25 722.728 1460.56 Q722.728 1457.8 720.784 1456.07 Q718.863 1454.33 715.761 1454.33 Q713.562 1454.33 711.108 1455.09 Q708.678 1455.86 705.9 1457.41 L705.9 1452.69 Q708.724 1451.55 711.178 1450.97 Q713.631 1450.39 715.668 1450.39 Q721.039 1450.39 724.233 1453.08 Q727.427 1455.77 727.427 1460.26 Q727.427 1462.39 726.617 1464.31 Q725.83 1466.2 723.724 1468.8 Q723.145 1469.47 720.043 1472.69 Q716.941 1475.88 711.293 1481.64 Z" fill="#000000" fill-rule="nonzero" fill-opacity="1" /><path clip-path="url(#clip020)" d="M747.427 1454.1 Q743.816 1454.1 741.988 1457.66 Q740.182 1461.2 740.182 1468.33 Q740.182 1475.44 741.988 1479.01 Q743.816 1482.55 747.427 1482.55 Q751.062 1482.55 752.867 1479.01 Q754.696 1475.44 754.696 1468.33 Q754.696 1461.2 752.867 1457.66 Q751.062 1454.1 747.427 1454.1 M747.427 1450.39 Q753.238 1450.39 756.293 1455 Q759.372 1459.58 759.372 1468.33 Q759.372 1477.06 756.293 1481.67 Q753.238 1486.25 747.427 1486.25 Q741.617 1486.25 738.539 1481.67 Q735.483 1477.06 735.483 1468.33 Q735.483 1459.58 738.539 1455 Q741.617 1450.39 747.427 1450.39 Z" fill="#000000" fill-rule="nonzero" fill-opacity="1" /><path clip-path="url(#clip020)" d="M764.835 1470.7 L777.311 1470.7 L777.311 1474.49 L764.835 1474.49 L764.835 1470.7 Z" fill="#000000" fill-rule="nonzero" fill-opacity="1" /><path clip-path="url(#clip020)" d="M794.696 1454.1 Q791.085 1454.1 789.256 1457.66 Q787.45 1461.2 787.45 1468.33 Q787.45 1475.44 789.256 1479.01 Q791.085 1482.55 794.696 1482.55 Q798.33 1482.55 800.135 1479.01 Q801.964 1475.44 801.964 1468.33 Q801.964 1461.2 800.135 1457.66 Q798.33 1454.1 794.696 1454.1 M794.696 1450.39 Q800.506 1450.39 803.561 1455 Q806.64 1459.58 806.64 1468.33 Q806.64 1477.06 803.561 1481.67 Q800.506 1486.25 794.696 1486.25 Q788.886 1486.25 785.807 1481.67 Q782.751 1477.06 782.751 1468.33 Q782.751 1459.58 785.807 1455 Q788.886 1450.39 794.696 1450.39 Z" fill="#000000" fill-rule="nonzero" fill-opacity="1" /><path clip-path="url(#clip020)" d="M815.668 1481.64 L823.307 1481.64 L823.307 1455.28 L814.996 1456.95 L814.996 1452.69 L823.26 1451.02 L827.936 1451.02 L827.936 1481.64 L835.575 1481.64 L835.575 1485.58 L815.668 1485.58 L815.668 1481.64 Z" fill="#000000" fill-rule="nonzero" fill-opacity="1" /><path clip-path="url(#clip020)" d="M842.265 1470.7 L854.742 1470.7 L854.742 1474.49 L842.265 1474.49 L842.265 1470.7 Z" fill="#000000" fill-rule="nonzero" fill-opacity="1" /><path clip-path="url(#clip020)" d="M872.126 1454.1 Q868.515 1454.1 866.686 1457.66 Q864.88 1461.2 864.88 1468.33 Q864.88 1475.44 866.686 1479.01 Q868.515 1482.55 872.126 1482.55 Q875.76 1482.55 877.566 1479.01 Q879.394 1475.44 879.394 1468.33 Q879.394 1461.2 877.566 1457.66 Q875.76 1454.1 872.126 1454.1 M872.126 1450.39 Q877.936 1450.39 880.991 1455 Q884.07 1459.58 884.07 1468.33 Q884.07 1477.06 880.991 1481.67 Q877.936 1486.25 872.126 1486.25 Q866.316 1486.25 863.237 1481.67 Q860.181 1477.06 860.181 1468.33 Q860.181 1459.58 863.237 1455 Q866.316 1450.39 872.126 1450.39 Z" fill="#000000" fill-rule="nonzero" fill-opacity="1" /><path clip-path="url(#clip020)" d="M893.098 1481.64 L900.737 1481.64 L900.737 1455.28 L892.427 1456.95 L892.427 1452.69 L900.69 1451.02 L905.366 1451.02 L905.366 1481.64 L913.005 1481.64 L913.005 1485.58 L893.098 1485.58 L893.098 1481.64 Z" fill="#000000" fill-rule="nonzero" fill-opacity="1" /><path clip-path="url(#clip020)" d="M1156.92 1481.64 L1173.24 1481.64 L1173.24 1485.58 L1151.3 1485.58 L1151.3 1481.64 Q1153.96 1478.89 1158.54 1474.26 Q1163.15 1469.61 1164.33 1468.27 Q1166.57 1465.74 1167.45 1464.01 Q1168.36 1462.25 1168.36 1460.56 Q1168.36 1457.8 1166.41 1456.07 Q1164.49 1454.33 1161.39 1454.33 Q1159.19 1454.33 1156.73 1455.09 Q1154.3 1455.86 1151.53 1457.41 L1151.53 1452.69 Q1154.35 1451.55 1156.8 1450.97 Q1159.26 1450.39 1161.3 1450.39 Q1166.67 1450.39 1169.86 1453.08 Q1173.05 1455.77 1173.05 1460.26 Q1173.05 1462.39 1172.24 1464.31 Q1171.46 1466.2 1169.35 1468.8 Q1168.77 1469.47 1165.67 1472.69 Q1162.57 1475.88 1156.92 1481.64 Z" fill="#000000" fill-rule="nonzero" fill-opacity="1" /><path clip-path="url(#clip020)" d="M1193.05 1454.1 Q1189.44 1454.1 1187.61 1457.66 Q1185.81 1461.2 1185.81 1468.33 Q1185.81 1475.44 1187.61 1479.01 Q1189.44 1482.55 1193.05 1482.55 Q1196.69 1482.55 1198.49 1479.01 Q1200.32 1475.44 1200.32 1468.33 Q1200.32 1461.2 1198.49 1457.66 Q1196.69 1454.1 1193.05 1454.1 M1193.05 1450.39 Q1198.86 1450.39 1201.92 1455 Q1205 1459.58 1205 1468.33 Q1205 1477.06 1201.92 1481.67 Q1198.86 1486.25 1193.05 1486.25 Q1187.24 1486.25 1184.17 1481.67 Q1181.11 1477.06 1181.11 1468.33 Q1181.11 1459.58 1184.17 1455 Q1187.24 1450.39 1193.05 1450.39 Z" fill="#000000" fill-rule="nonzero" fill-opacity="1" /><path clip-path="url(#clip020)" d="M1217.24 1481.64 L1233.56 1481.64 L1233.56 1485.58 L1211.62 1485.58 L1211.62 1481.64 Q1214.28 1478.89 1218.86 1474.26 Q1223.47 1469.61 1224.65 1468.27 Q1226.9 1465.74 1227.78 1464.01 Q1228.68 1462.25 1228.68 1460.56 Q1228.68 1457.8 1226.73 1456.07 Q1224.81 1454.33 1221.71 1454.33 Q1219.51 1454.33 1217.06 1455.09 Q1214.63 1455.86 1211.85 1457.41 L1211.85 1452.69 Q1214.67 1451.55 1217.13 1450.97 Q1219.58 1450.39 1221.62 1450.39 Q1226.99 1450.39 1230.18 1453.08 Q1233.38 1455.77 1233.38 1460.26 Q1233.38 1462.39 1232.57 1464.31 Q1231.78 1466.2 1229.67 1468.8 Q1229.1 1469.47 1225.99 1472.69 Q1222.89 1475.88 1217.24 1481.64 Z" fill="#000000" fill-rule="nonzero" fill-opacity="1" /><path clip-path="url(#clip020)" d="M1244.19 1481.64 L1251.83 1481.64 L1251.83 1455.28 L1243.52 1456.95 L1243.52 1452.69 L1251.78 1451.02 L1256.46 1451.02 L1256.46 1481.64 L1264.1 1481.64 L1264.1 1485.58 L1244.19 1485.58 L1244.19 1481.64 Z" fill="#000000" fill-rule="nonzero" fill-opacity="1" /><path clip-path="url(#clip020)" d="M1270.79 1470.7 L1283.26 1470.7 L1283.26 1474.49 L1270.79 1474.49 L1270.79 1470.7 Z" fill="#000000" fill-rule="nonzero" fill-opacity="1" /><path clip-path="url(#clip020)" d="M1300.65 1454.1 Q1297.04 1454.1 1295.21 1457.66 Q1293.4 1461.2 1293.4 1468.33 Q1293.4 1475.44 1295.21 1479.01 Q1297.04 1482.55 1300.65 1482.55 Q1304.28 1482.55 1306.09 1479.01 Q1307.91 1475.44 1307.91 1468.33 Q1307.91 1461.2 1306.09 1457.66 Q1304.28 1454.1 1300.65 1454.1 M1300.65 1450.39 Q1306.46 1450.39 1309.51 1455 Q1312.59 1459.58 1312.59 1468.33 Q1312.59 1477.06 1309.51 1481.67 Q1306.46 1486.25 1300.65 1486.25 Q1294.84 1486.25 1291.76 1481.67 Q1288.7 1477.06 1288.7 1468.33 Q1288.7 1459.58 1291.76 1455 Q1294.84 1450.39 1300.65 1450.39 Z" fill="#000000" fill-rule="nonzero" fill-opacity="1" /><path clip-path="url(#clip020)" d="M1321.62 1481.64 L1329.26 1481.64 L1329.26 1455.28 L1320.95 1456.95 L1320.95 1452.69 L1329.21 1451.02 L1333.89 1451.02 L1333.89 1481.64 L1341.53 1481.64 L1341.53 1485.58 L1321.62 1485.58 L1321.62 1481.64 Z" fill="#000000" fill-rule="nonzero" fill-opacity="1" /><path clip-path="url(#clip020)" d="M1348.22 1470.7 L1360.69 1470.7 L1360.69 1474.49 L1348.22 1474.49 L1348.22 1470.7 Z" fill="#000000" fill-rule="nonzero" fill-opacity="1" /><path clip-path="url(#clip020)" d="M1378.08 1454.1 Q1374.47 1454.1 1372.64 1457.66 Q1370.83 1461.2 1370.83 1468.33 Q1370.83 1475.44 1372.64 1479.01 Q1374.47 1482.55 1378.08 1482.55 Q1381.71 1482.55 1383.52 1479.01 Q1385.34 1475.44 1385.34 1468.33 Q1385.34 1461.2 1383.52 1457.66 Q1381.71 1454.1 1378.08 1454.1 M1378.08 1450.39 Q1383.89 1450.39 1386.94 1455 Q1390.02 1459.58 1390.02 1468.33 Q1390.02 1477.06 1386.94 1481.67 Q1383.89 1486.25 1378.08 1486.25 Q1372.27 1486.25 1369.19 1481.67 Q1366.13 1477.06 1366.13 1468.33 Q1366.13 1459.58 1369.19 1455 Q1372.27 1450.39 1378.08 1450.39 Z" fill="#000000" fill-rule="nonzero" fill-opacity="1" /><path clip-path="url(#clip020)" d="M1399.05 1481.64 L1406.69 1481.64 L1406.69 1455.28 L1398.38 1456.95 L1398.38 1452.69 L1406.64 1451.02 L1411.32 1451.02 L1411.32 1481.64 L1418.96 1481.64 L1418.96 1485.58 L1399.05 1485.58 L1399.05 1481.64 Z" fill="#000000" fill-rule="nonzero" fill-opacity="1" /><path clip-path="url(#clip020)" d="M1661.49 1481.64 L1677.81 1481.64 L1677.81 1485.58 L1655.86 1485.58 L1655.86 1481.64 Q1658.53 1478.89 1663.11 1474.26 Q1667.72 1469.61 1668.9 1468.27 Q1671.14 1465.74 1672.02 1464.01 Q1672.92 1462.25 1672.92 1460.56 Q1672.92 1457.8 1670.98 1456.07 Q1669.06 1454.33 1665.96 1454.33 Q1663.76 1454.33 1661.3 1455.09 Q1658.87 1455.86 1656.09 1457.41 L1656.09 1452.69 Q1658.92 1451.55 1661.37 1450.97 Q1663.83 1450.39 1665.86 1450.39 Q1671.23 1450.39 1674.43 1453.08 Q1677.62 1455.77 1677.62 1460.26 Q1677.62 1462.39 1676.81 1464.31 Q1676.03 1466.2 1673.92 1468.8 Q1673.34 1469.47 1670.24 1472.69 Q1667.14 1475.88 1661.49 1481.64 Z" fill="#000000" fill-rule="nonzero" fill-opacity="1" /><path clip-path="url(#clip020)" d="M1697.62 1454.1 Q1694.01 1454.1 1692.18 1457.66 Q1690.38 1461.2 1690.38 1468.33 Q1690.38 1475.44 1692.18 1479.01 Q1694.01 1482.55 1697.62 1482.55 Q1701.26 1482.55 1703.06 1479.01 Q1704.89 1475.44 1704.89 1468.33 Q1704.89 1461.2 1703.06 1457.66 Q1701.26 1454.1 1697.62 1454.1 M1697.62 1450.39 Q1703.43 1450.39 1706.49 1455 Q1709.57 1459.58 1709.57 1468.33 Q1709.57 1477.06 1706.49 1481.67 Q1703.43 1486.25 1697.62 1486.25 Q1691.81 1486.25 1688.73 1481.67 Q1685.68 1477.06 1685.68 1468.33 Q1685.68 1459.58 1688.73 1455 Q1691.81 1450.39 1697.62 1450.39 Z" fill="#000000" fill-rule="nonzero" fill-opacity="1" /><path clip-path="url(#clip020)" d="M1721.81 1481.64 L1738.13 1481.64 L1738.13 1485.58 L1716.19 1485.58 L1716.19 1481.64 Q1718.85 1478.89 1723.43 1474.26 Q1728.04 1469.61 1729.22 1468.27 Q1731.46 1465.74 1732.34 1464.01 Q1733.25 1462.25 1733.25 1460.56 Q1733.25 1457.8 1731.3 1456.07 Q1729.38 1454.33 1726.28 1454.33 Q1724.08 1454.33 1721.63 1455.09 Q1719.2 1455.86 1716.42 1457.41 L1716.42 1452.69 Q1719.24 1451.55 1721.7 1450.97 Q1724.15 1450.39 1726.19 1450.39 Q1731.56 1450.39 1734.75 1453.08 Q1737.95 1455.77 1737.95 1460.26 Q1737.95 1462.39 1737.14 1464.31 Q1736.35 1466.2 1734.24 1468.8 Q1733.66 1469.47 1730.56 1472.69 Q1727.46 1475.88 1721.81 1481.64 Z" fill="#000000" fill-rule="nonzero" fill-opacity="1" /><path clip-path="url(#clip020)" d="M1751.97 1481.64 L1768.29 1481.64 L1768.29 1485.58 L1746.35 1485.58 L1746.35 1481.64 Q1749.01 1478.89 1753.59 1474.26 Q1758.2 1469.61 1759.38 1468.27 Q1761.63 1465.74 1762.51 1464.01 Q1763.41 1462.25 1763.41 1460.56 Q1763.41 1457.8 1761.46 1456.07 Q1759.54 1454.33 1756.44 1454.33 Q1754.24 1454.33 1751.79 1455.09 Q1749.36 1455.86 1746.58 1457.41 L1746.58 1452.69 Q1749.4 1451.55 1751.86 1450.97 Q1754.31 1450.39 1756.35 1450.39 Q1761.72 1450.39 1764.91 1453.08 Q1768.11 1455.77 1768.11 1460.26 Q1768.11 1462.39 1767.3 1464.31 Q1766.51 1466.2 1764.4 1468.8 Q1763.83 1469.47 1760.72 1472.69 Q1757.62 1475.88 1751.97 1481.64 Z" fill="#000000" fill-rule="nonzero" fill-opacity="1" /><path clip-path="url(#clip020)" d="M1775.35 1470.7 L1787.83 1470.7 L1787.83 1474.49 L1775.35 1474.49 L1775.35 1470.7 Z" fill="#000000" fill-rule="nonzero" fill-opacity="1" /><path clip-path="url(#clip020)" d="M1805.21 1454.1 Q1801.6 1454.1 1799.77 1457.66 Q1797.97 1461.2 1797.97 1468.33 Q1797.97 1475.44 1799.77 1479.01 Q1801.6 1482.55 1805.21 1482.55 Q1808.85 1482.55 1810.65 1479.01 Q1812.48 1475.44 1812.48 1468.33 Q1812.48 1461.2 1810.65 1457.66 Q1808.85 1454.1 1805.21 1454.1 M1805.21 1450.39 Q1811.02 1450.39 1814.08 1455 Q1817.16 1459.58 1817.16 1468.33 Q1817.16 1477.06 1814.08 1481.67 Q1811.02 1486.25 1805.21 1486.25 Q1799.4 1486.25 1796.33 1481.67 Q1793.27 1477.06 1793.27 1468.33 Q1793.27 1459.58 1796.33 1455 Q1799.4 1450.39 1805.21 1450.39 Z" fill="#000000" fill-rule="nonzero" fill-opacity="1" /><path clip-path="url(#clip020)" d="M1826.19 1481.64 L1833.83 1481.64 L1833.83 1455.28 L1825.52 1456.95 L1825.52 1452.69 L1833.78 1451.02 L1838.45 1451.02 L1838.45 1481.64 L1846.09 1481.64 L1846.09 1485.58 L1826.19 1485.58 L1826.19 1481.64 Z" fill="#000000" fill-rule="nonzero" fill-opacity="1" /><path clip-path="url(#clip020)" d="M1852.78 1470.7 L1865.26 1470.7 L1865.26 1474.49 L1852.78 1474.49 L1852.78 1470.7 Z" fill="#000000" fill-rule="nonzero" fill-opacity="1" /><path clip-path="url(#clip020)" d="M1882.64 1454.1 Q1879.03 1454.1 1877.2 1457.66 Q1875.4 1461.2 1875.4 1468.33 Q1875.4 1475.44 1877.2 1479.01 Q1879.03 1482.55 1882.64 1482.55 Q1886.28 1482.55 1888.08 1479.01 Q1889.91 1475.44 1889.91 1468.33 Q1889.91 1461.2 1888.08 1457.66 Q1886.28 1454.1 1882.64 1454.1 M1882.64 1450.39 Q1888.45 1450.39 1891.51 1455 Q1894.59 1459.58 1894.59 1468.33 Q1894.59 1477.06 1891.51 1481.67 Q1888.45 1486.25 1882.64 1486.25 Q1876.83 1486.25 1873.76 1481.67 Q1870.7 1477.06 1870.7 1468.33 Q1870.7 1459.58 1873.76 1455 Q1876.83 1450.39 1882.64 1450.39 Z" fill="#000000" fill-rule="nonzero" fill-opacity="1" /><path clip-path="url(#clip020)" d="M1903.62 1481.64 L1911.26 1481.64 L1911.26 1455.28 L1902.95 1456.95 L1902.95 1452.69 L1911.21 1451.02 L1915.89 1451.02 L1915.89 1481.64 L1923.52 1481.64 L1923.52 1485.58 L1903.62 1485.58 L1903.62 1481.64 Z" fill="#000000" fill-rule="nonzero" fill-opacity="1" /><path clip-path="url(#clip020)" d="M2166.06 1481.64 L2182.38 1481.64 L2182.38 1485.58 L2160.43 1485.58 L2160.43 1481.64 Q2163.09 1478.89 2167.68 1474.26 Q2172.28 1469.61 2173.46 1468.27 Q2175.71 1465.74 2176.59 1464.01 Q2177.49 1462.25 2177.49 1460.56 Q2177.49 1457.8 2175.55 1456.07 Q2173.63 1454.33 2170.52 1454.33 Q2168.32 1454.33 2165.87 1455.09 Q2163.44 1455.86 2160.66 1457.41 L2160.66 1452.69 Q2163.49 1451.55 2165.94 1450.97 Q2168.39 1450.39 2170.43 1450.39 Q2175.8 1450.39 2179 1453.08 Q2182.19 1455.77 2182.19 1460.26 Q2182.19 1462.39 2181.38 1464.31 Q2180.59 1466.2 2178.49 1468.8 Q2177.91 1469.47 2174.81 1472.69 Q2171.7 1475.88 2166.06 1481.64 Z" fill="#000000" fill-rule="nonzero" fill-opacity="1" /><path clip-path="url(#clip020)" d="M2202.19 1454.1 Q2198.58 1454.1 2196.75 1457.66 Q2194.95 1461.2 2194.95 1468.33 Q2194.95 1475.44 2196.75 1479.01 Q2198.58 1482.55 2202.19 1482.55 Q2205.82 1482.55 2207.63 1479.01 Q2209.46 1475.44 2209.46 1468.33 Q2209.46 1461.2 2207.63 1457.66 Q2205.82 1454.1 2202.19 1454.1 M2202.19 1450.39 Q2208 1450.39 2211.06 1455 Q2214.13 1459.58 2214.13 1468.33 Q2214.13 1477.06 2211.06 1481.67 Q2208 1486.25 2202.19 1486.25 Q2196.38 1486.25 2193.3 1481.67 Q2190.25 1477.06 2190.25 1468.33 Q2190.25 1459.58 2193.3 1455 Q2196.38 1450.39 2202.19 1450.39 Z" fill="#000000" fill-rule="nonzero" fill-opacity="1" /><path clip-path="url(#clip020)" d="M2226.38 1481.64 L2242.7 1481.64 L2242.7 1485.58 L2220.76 1485.58 L2220.76 1481.64 Q2223.42 1478.89 2228 1474.26 Q2232.61 1469.61 2233.79 1468.27 Q2236.03 1465.74 2236.91 1464.01 Q2237.82 1462.25 2237.82 1460.56 Q2237.82 1457.8 2235.87 1456.07 Q2233.95 1454.33 2230.85 1454.33 Q2228.65 1454.33 2226.19 1455.09 Q2223.76 1455.86 2220.99 1457.41 L2220.99 1452.69 Q2223.81 1451.55 2226.26 1450.97 Q2228.72 1450.39 2230.76 1450.39 Q2236.13 1450.39 2239.32 1453.08 Q2242.51 1455.77 2242.51 1460.26 Q2242.51 1462.39 2241.7 1464.31 Q2240.92 1466.2 2238.81 1468.8 Q2238.23 1469.47 2235.13 1472.69 Q2232.03 1475.88 2226.38 1481.64 Z" fill="#000000" fill-rule="nonzero" fill-opacity="1" /><path clip-path="url(#clip020)" d="M2266.68 1466.95 Q2270.04 1467.66 2271.91 1469.93 Q2273.81 1472.2 2273.81 1475.53 Q2273.81 1480.65 2270.29 1483.45 Q2266.77 1486.25 2260.29 1486.25 Q2258.12 1486.25 2255.8 1485.81 Q2253.51 1485.39 2251.06 1484.54 L2251.06 1480.02 Q2253 1481.16 2255.32 1481.74 Q2257.63 1482.32 2260.15 1482.32 Q2264.55 1482.32 2266.84 1480.58 Q2269.16 1478.84 2269.16 1475.53 Q2269.16 1472.48 2267 1470.77 Q2264.88 1469.03 2261.06 1469.03 L2257.03 1469.03 L2257.03 1465.19 L2261.24 1465.19 Q2264.69 1465.19 2266.52 1463.82 Q2268.35 1462.43 2268.35 1459.84 Q2268.35 1457.18 2266.45 1455.77 Q2264.57 1454.33 2261.06 1454.33 Q2259.13 1454.33 2256.94 1454.75 Q2254.74 1455.16 2252.1 1456.04 L2252.1 1451.88 Q2254.76 1451.14 2257.07 1450.77 Q2259.41 1450.39 2261.47 1450.39 Q2266.8 1450.39 2269.9 1452.83 Q2273 1455.23 2273 1459.35 Q2273 1462.22 2271.36 1464.21 Q2269.71 1466.18 2266.68 1466.95 Z" fill="#000000" fill-rule="nonzero" fill-opacity="1" /><path clip-path="url(#clip020)" d="M2279.92 1470.7 L2292.4 1470.7 L2292.4 1474.49 L2279.92 1474.49 L2279.92 1470.7 Z" fill="#000000" fill-rule="nonzero" fill-opacity="1" /><path clip-path="url(#clip020)" d="M2309.78 1454.1 Q2306.17 1454.1 2304.34 1457.66 Q2302.54 1461.2 2302.54 1468.33 Q2302.54 1475.44 2304.34 1479.01 Q2306.17 1482.55 2309.78 1482.55 Q2313.42 1482.55 2315.22 1479.01 Q2317.05 1475.44 2317.05 1468.33 Q2317.05 1461.2 2315.22 1457.66 Q2313.42 1454.1 2309.78 1454.1 M2309.78 1450.39 Q2315.59 1450.39 2318.65 1455 Q2321.73 1459.58 2321.73 1468.33 Q2321.73 1477.06 2318.65 1481.67 Q2315.59 1486.25 2309.78 1486.25 Q2303.97 1486.25 2300.89 1481.67 Q2297.84 1477.06 2297.84 1468.33 Q2297.84 1459.58 2300.89 1455 Q2303.97 1450.39 2309.78 1450.39 Z" fill="#000000" fill-rule="nonzero" fill-opacity="1" /><path clip-path="url(#clip020)" d="M2330.75 1481.64 L2338.39 1481.64 L2338.39 1455.28 L2330.08 1456.95 L2330.08 1452.69 L2338.35 1451.02 L2343.02 1451.02 L2343.02 1481.64 L2350.66 1481.64 L2350.66 1485.58 L2330.75 1485.58 L2330.75 1481.64 Z" fill="#000000" fill-rule="nonzero" fill-opacity="1" /><path clip-path="url(#clip020)" d="M2357.35 1470.7 L2369.83 1470.7 L2369.83 1474.49 L2357.35 1474.49 L2357.35 1470.7 Z" fill="#000000" fill-rule="nonzero" fill-opacity="1" /><path clip-path="url(#clip020)" d="M2387.21 1454.1 Q2383.6 1454.1 2381.77 1457.66 Q2379.97 1461.2 2379.97 1468.33 Q2379.97 1475.44 2381.77 1479.01 Q2383.6 1482.55 2387.21 1482.55 Q2390.85 1482.55 2392.65 1479.01 Q2394.48 1475.44 2394.48 1468.33 Q2394.48 1461.2 2392.65 1457.66 Q2390.85 1454.1 2387.21 1454.1 M2387.21 1450.39 Q2393.02 1450.39 2396.08 1455 Q2399.16 1459.58 2399.16 1468.33 Q2399.16 1477.06 2396.08 1481.67 Q2393.02 1486.25 2387.21 1486.25 Q2381.4 1486.25 2378.32 1481.67 Q2375.27 1477.06 2375.27 1468.33 Q2375.27 1459.58 2378.32 1455 Q2381.4 1450.39 2387.21 1450.39 Z" fill="#000000" fill-rule="nonzero" fill-opacity="1" /><path clip-path="url(#clip020)" d="M2408.18 1481.64 L2415.82 1481.64 L2415.82 1455.28 L2407.51 1456.95 L2407.51 1452.69 L2415.78 1451.02 L2420.45 1451.02 L2420.45 1481.64 L2428.09 1481.64 L2428.09 1485.58 L2408.18 1485.58 L2408.18 1481.64 Z" fill="#000000" fill-rule="nonzero" fill-opacity="1" /><path clip-path="url(#clip020)" d="M1218.73 1525.81 L1218.73 1562.76 L1226.5 1562.76 Q1236.33 1562.76 1240.88 1558.3 Q1245.47 1553.85 1245.47 1544.24 Q1245.47 1534.69 1240.88 1530.26 Q1236.33 1525.81 1226.5 1525.81 L1218.73 1525.81 M1212.3 1520.52 L1225.51 1520.52 Q1239.32 1520.52 1245.79 1526.28 Q1252.25 1532.01 1252.25 1544.24 Q1252.25 1556.52 1245.75 1562.28 Q1239.26 1568.04 1225.51 1568.04 L1212.3 1568.04 L1212.3 1520.52 Z" fill="#000000" fill-rule="nonzero" fill-opacity="1" /><path clip-path="url(#clip020)" d="M1278.44 1550.12 Q1271.34 1550.12 1268.61 1551.75 Q1265.87 1553.37 1265.87 1557.29 Q1265.87 1560.4 1267.91 1562.25 Q1269.98 1564.07 1273.51 1564.07 Q1278.38 1564.07 1281.31 1560.63 Q1284.27 1557.16 1284.27 1551.43 L1284.27 1550.12 L1278.44 1550.12 M1290.12 1547.71 L1290.12 1568.04 L1284.27 1568.04 L1284.27 1562.63 Q1282.26 1565.88 1279.27 1567.44 Q1276.28 1568.97 1271.95 1568.97 Q1266.47 1568.97 1263.23 1565.91 Q1260.01 1562.82 1260.01 1557.67 Q1260.01 1551.65 1264.02 1548.6 Q1268.07 1545.54 1276.06 1545.54 L1284.27 1545.54 L1284.27 1544.97 Q1284.27 1540.93 1281.59 1538.73 Q1278.95 1536.5 1274.15 1536.5 Q1271.09 1536.5 1268.19 1537.23 Q1265.3 1537.97 1262.62 1539.43 L1262.62 1534.02 Q1265.84 1532.78 1268.86 1532.17 Q1271.89 1531.54 1274.75 1531.54 Q1282.48 1531.54 1286.3 1535.55 Q1290.12 1539.56 1290.12 1547.71 Z" fill="#000000" fill-rule="nonzero" fill-opacity="1" /><path clip-path="url(#clip020)" d="M1307.98 1522.27 L1307.98 1532.4 L1320.04 1532.4 L1320.04 1536.95 L1307.98 1536.95 L1307.98 1556.3 Q1307.98 1560.66 1309.16 1561.9 Q1310.37 1563.14 1314.03 1563.14 L1320.04 1563.14 L1320.04 1568.04 L1314.03 1568.04 Q1307.25 1568.04 1304.67 1565.53 Q1302.09 1562.98 1302.09 1556.3 L1302.09 1536.95 L1297.79 1536.95 L1297.79 1532.4 L1302.09 1532.4 L1302.09 1522.27 L1307.98 1522.27 Z" fill="#000000" fill-rule="nonzero" fill-opacity="1" /><path clip-path="url(#clip020)" d="M1358.24 1548.76 L1358.24 1551.62 L1331.31 1551.62 Q1331.69 1557.67 1334.94 1560.85 Q1338.22 1564 1344.04 1564 Q1347.41 1564 1350.57 1563.17 Q1353.75 1562.35 1356.87 1560.69 L1356.87 1566.23 Q1353.72 1567.57 1350.41 1568.27 Q1347.1 1568.97 1343.69 1568.97 Q1335.16 1568.97 1330.16 1564 Q1325.2 1559.04 1325.2 1550.57 Q1325.2 1541.82 1329.91 1536.69 Q1334.65 1531.54 1342.67 1531.54 Q1349.87 1531.54 1354.03 1536.18 Q1358.24 1540.8 1358.24 1548.76 M1352.38 1547.04 Q1352.32 1542.23 1349.67 1539.37 Q1347.06 1536.5 1342.74 1536.5 Q1337.83 1536.5 1334.87 1539.27 Q1331.95 1542.04 1331.5 1547.07 L1352.38 1547.04 Z" fill="#000000" fill-rule="nonzero" fill-opacity="1" /><polyline clip-path="url(#clip020)" style="stroke:#000000; stroke-linecap:round; stroke-linejoin:round; stroke-width:4; stroke-opacity:1; fill:none" points="217.783,1423.18 217.783,47.2441 "/>
<polyline clip-path="url(#clip020)" style="stroke:#000000; stroke-linecap:round; stroke-linejoin:round; stroke-width:4; stroke-opacity:1; fill:none" points="217.783,1365.94 236.681,1365.94 "/>
<polyline clip-path="url(#clip020)" style="stroke:#000000; stroke-linecap:round; stroke-linejoin:round; stroke-width:4; stroke-opacity:1; fill:none" points="217.783,1083.38 236.681,1083.38 "/>
<polyline clip-path="url(#clip020)" style="stroke:#000000; stroke-linecap:round; stroke-linejoin:round; stroke-width:4; stroke-opacity:1; fill:none" points="217.783,800.833 236.681,800.833 "/>
<polyline clip-path="url(#clip020)" style="stroke:#000000; stroke-linecap:round; stroke-linejoin:round; stroke-width:4; stroke-opacity:1; fill:none" points="217.783,518.281 236.681,518.281 "/>
<polyline clip-path="url(#clip020)" style="stroke:#000000; stroke-linecap:round; stroke-linejoin:round; stroke-width:4; stroke-opacity:1; fill:none" points="217.783,235.729 236.681,235.729 "/>
<path clip-path="url(#clip020)" d="M115.418 1379.28 L123.056 1379.28 L123.056 1352.92 L114.746 1354.58 L114.746 1350.32 L123.01 1348.66 L127.686 1348.66 L127.686 1379.28 L135.325 1379.28 L135.325 1383.22 L115.418 1383.22 L115.418 1379.28 Z" fill="#000000" fill-rule="nonzero" fill-opacity="1" /><path clip-path="url(#clip020)" d="M144.769 1377.34 L149.653 1377.34 L149.653 1383.22 L144.769 1383.22 L144.769 1377.34 Z" fill="#000000" fill-rule="nonzero" fill-opacity="1" /><path clip-path="url(#clip020)" d="M169.839 1351.74 Q166.227 1351.74 164.399 1355.3 Q162.593 1358.84 162.593 1365.97 Q162.593 1373.08 164.399 1376.64 Q166.227 1380.18 169.839 1380.18 Q173.473 1380.18 175.278 1376.64 Q177.107 1373.08 177.107 1365.97 Q177.107 1358.84 175.278 1355.3 Q173.473 1351.74 169.839 1351.74 M169.839 1348.03 Q175.649 1348.03 178.704 1352.64 Q181.783 1357.22 181.783 1365.97 Q181.783 1374.7 178.704 1379.3 Q175.649 1383.89 169.839 1383.89 Q164.028 1383.89 160.95 1379.3 Q157.894 1374.7 157.894 1365.97 Q157.894 1357.22 160.95 1352.64 Q164.028 1348.03 169.839 1348.03 Z" fill="#000000" fill-rule="nonzero" fill-opacity="1" /><path clip-path="url(#clip020)" d="M117.015 1096.73 L124.654 1096.73 L124.654 1070.36 L116.343 1072.03 L116.343 1067.77 L124.607 1066.1 L129.283 1066.1 L129.283 1096.73 L136.922 1096.73 L136.922 1100.66 L117.015 1100.66 L117.015 1096.73 Z" fill="#000000" fill-rule="nonzero" fill-opacity="1" /><path clip-path="url(#clip020)" d="M146.366 1094.79 L151.251 1094.79 L151.251 1100.66 L146.366 1100.66 L146.366 1094.79 Z" fill="#000000" fill-rule="nonzero" fill-opacity="1" /><path clip-path="url(#clip020)" d="M165.464 1096.73 L181.783 1096.73 L181.783 1100.66 L159.839 1100.66 L159.839 1096.73 Q162.501 1093.98 167.084 1089.35 Q171.69 1084.69 172.871 1083.35 Q175.116 1080.83 175.996 1079.09 Q176.899 1077.33 176.899 1075.64 Q176.899 1072.89 174.954 1071.15 Q173.033 1069.41 169.931 1069.41 Q167.732 1069.41 165.278 1070.18 Q162.848 1070.94 160.07 1072.49 L160.07 1067.77 Q162.894 1066.64 165.348 1066.06 Q167.802 1065.48 169.839 1065.48 Q175.209 1065.48 178.403 1068.17 Q181.598 1070.85 181.598 1075.34 Q181.598 1077.47 180.788 1079.39 Q180.001 1081.29 177.894 1083.88 Q177.315 1084.55 174.214 1087.77 Q171.112 1090.97 165.464 1096.73 Z" fill="#000000" fill-rule="nonzero" fill-opacity="1" /><path clip-path="url(#clip020)" d="M114.931 814.178 L122.57 814.178 L122.57 787.812 L114.26 789.479 L114.26 785.22 L122.524 783.553 L127.2 783.553 L127.2 814.178 L134.839 814.178 L134.839 818.113 L114.931 818.113 L114.931 814.178 Z" fill="#000000" fill-rule="nonzero" fill-opacity="1" /><path clip-path="url(#clip020)" d="M144.283 812.233 L149.167 812.233 L149.167 818.113 L144.283 818.113 L144.283 812.233 Z" fill="#000000" fill-rule="nonzero" fill-opacity="1" /><path clip-path="url(#clip020)" d="M172.2 787.627 L160.394 806.076 L172.2 806.076 L172.2 787.627 M170.973 783.553 L176.852 783.553 L176.852 806.076 L181.783 806.076 L181.783 809.965 L176.852 809.965 L176.852 818.113 L172.2 818.113 L172.2 809.965 L156.598 809.965 L156.598 805.451 L170.973 783.553 Z" fill="#000000" fill-rule="nonzero" fill-opacity="1" /><path clip-path="url(#clip020)" d="M115.256 531.626 L122.894 531.626 L122.894 505.26 L114.584 506.927 L114.584 502.668 L122.848 501.001 L127.524 501.001 L127.524 531.626 L135.163 531.626 L135.163 535.561 L115.256 535.561 L115.256 531.626 Z" fill="#000000" fill-rule="nonzero" fill-opacity="1" /><path clip-path="url(#clip020)" d="M144.607 529.681 L149.491 529.681 L149.491 535.561 L144.607 535.561 L144.607 529.681 Z" fill="#000000" fill-rule="nonzero" fill-opacity="1" /><path clip-path="url(#clip020)" d="M170.255 516.417 Q167.107 516.417 165.255 518.57 Q163.427 520.723 163.427 524.473 Q163.427 528.2 165.255 530.376 Q167.107 532.529 170.255 532.529 Q173.403 532.529 175.232 530.376 Q177.084 528.2 177.084 524.473 Q177.084 520.723 175.232 518.57 Q173.403 516.417 170.255 516.417 M179.538 501.765 L179.538 506.024 Q177.778 505.191 175.973 504.751 Q174.19 504.311 172.431 504.311 Q167.802 504.311 165.348 507.436 Q162.917 510.561 162.57 516.88 Q163.936 514.867 165.996 513.802 Q168.056 512.714 170.533 512.714 Q175.741 512.714 178.751 515.885 Q181.783 519.033 181.783 524.473 Q181.783 529.797 178.635 533.015 Q175.487 536.232 170.255 536.232 Q164.26 536.232 161.089 531.649 Q157.917 527.042 157.917 518.316 Q157.917 510.121 161.806 505.26 Q165.695 500.376 172.246 500.376 Q174.005 500.376 175.788 500.723 Q177.593 501.07 179.538 501.765 Z" fill="#000000" fill-rule="nonzero" fill-opacity="1" /><path clip-path="url(#clip020)" d="M115.51 249.074 L123.149 249.074 L123.149 222.708 L114.839 224.375 L114.839 220.116 L123.103 218.449 L127.779 218.449 L127.779 249.074 L135.417 249.074 L135.417 253.009 L115.51 253.009 L115.51 249.074 Z" fill="#000000" fill-rule="nonzero" fill-opacity="1" /><path clip-path="url(#clip020)" d="M144.862 247.129 L149.746 247.129 L149.746 253.009 L144.862 253.009 L144.862 247.129 Z" fill="#000000" fill-rule="nonzero" fill-opacity="1" /><path clip-path="url(#clip020)" d="M169.931 236.597 Q166.598 236.597 164.677 238.379 Q162.778 240.162 162.778 243.287 Q162.778 246.412 164.677 248.194 Q166.598 249.977 169.931 249.977 Q173.264 249.977 175.186 248.194 Q177.107 246.389 177.107 243.287 Q177.107 240.162 175.186 238.379 Q173.288 236.597 169.931 236.597 M165.255 234.606 Q162.246 233.866 160.556 231.805 Q158.89 229.745 158.89 226.782 Q158.89 222.639 161.829 220.231 Q164.792 217.824 169.931 217.824 Q175.093 217.824 178.033 220.231 Q180.973 222.639 180.973 226.782 Q180.973 229.745 179.283 231.805 Q177.616 233.866 174.63 234.606 Q178.01 235.393 179.885 237.685 Q181.783 239.977 181.783 243.287 Q181.783 248.31 178.704 250.995 Q175.649 253.68 169.931 253.68 Q164.214 253.68 161.135 250.995 Q158.079 248.31 158.079 243.287 Q158.079 239.977 159.978 237.685 Q161.876 235.393 165.255 234.606 M163.542 227.222 Q163.542 229.907 165.209 231.412 Q166.899 232.916 169.931 232.916 Q172.94 232.916 174.63 231.412 Q176.343 229.907 176.343 227.222 Q176.343 224.537 174.63 223.032 Q172.94 221.528 169.931 221.528 Q166.899 221.528 165.209 223.032 Q163.542 224.537 163.542 227.222 Z" fill="#000000" fill-rule="nonzero" fill-opacity="1" /><path clip-path="url(#clip020)" d="M20.1444 1028.58 L26.9239 1028.58 Q23.9002 1031.82 22.4043 1035.51 Q20.9083 1039.17 20.9083 1043.31 Q20.9083 1051.46 25.9054 1055.79 Q30.8707 1060.12 40.2919 1060.12 Q49.6813 1060.12 54.6784 1055.79 Q59.6436 1051.46 59.6436 1043.31 Q59.6436 1039.17 58.1477 1035.51 Q56.6518 1031.82 53.6281 1028.58 L60.3439 1028.58 Q62.6355 1031.95 63.7814 1035.74 Q64.9272 1039.49 64.9272 1043.69 Q64.9272 1054.48 58.3387 1060.69 Q51.7183 1066.9 40.2919 1066.9 Q28.8336 1066.9 22.2451 1060.69 Q15.6248 1054.48 15.6248 1043.69 Q15.6248 1039.43 16.7706 1035.67 Q17.8846 1031.89 20.1444 1028.58 Z" fill="#000000" fill-rule="nonzero" fill-opacity="1" /><path clip-path="url(#clip020)" d="M49.9359 1019.5 L28.3562 1019.5 L28.3562 1013.65 L49.7131 1013.65 Q54.7739 1013.65 57.3202 1011.67 Q59.8346 1009.7 59.8346 1005.75 Q59.8346 1001.01 56.8109 998.275 Q53.7872 995.506 48.5673 995.506 L28.3562 995.506 L28.3562 989.649 L64.0042 989.649 L64.0042 995.506 L58.5296 995.506 Q61.7762 997.638 63.3676 1000.47 Q64.9272 1003.27 64.9272 1007 Q64.9272 1013.14 61.1078 1016.32 Q57.2883 1019.5 49.9359 1019.5 M27.4968 1004.77 L27.4968 1004.77 Z" fill="#000000" fill-rule="nonzero" fill-opacity="1" /><path clip-path="url(#clip020)" d="M35.1993 949.832 Q31.2526 947.636 29.3747 944.58 Q27.4968 941.525 27.4968 937.387 Q27.4968 931.817 31.4117 928.793 Q35.2948 925.769 42.4881 925.769 L64.0042 925.769 L64.0042 931.658 L42.679 931.658 Q37.5546 931.658 35.072 933.472 Q32.5894 935.286 32.5894 939.01 Q32.5894 943.562 35.6131 946.203 Q38.6368 948.845 43.8567 948.845 L64.0042 948.845 L64.0042 954.733 L42.679 954.733 Q37.5228 954.733 35.072 956.548 Q32.5894 958.362 32.5894 962.149 Q32.5894 966.637 35.6449 969.279 Q38.6686 971.921 43.8567 971.921 L64.0042 971.921 L64.0042 977.809 L28.3562 977.809 L28.3562 971.921 L33.8944 971.921 Q30.616 969.916 29.0564 967.115 Q27.4968 964.314 27.4968 960.462 Q27.4968 956.579 29.4702 953.874 Q31.4436 951.137 35.1993 949.832 Z" fill="#000000" fill-rule="nonzero" fill-opacity="1" /><path clip-path="url(#clip020)" d="M35.1993 886.334 Q31.2526 884.138 29.3747 881.082 Q27.4968 878.027 27.4968 873.889 Q27.4968 868.319 31.4117 865.295 Q35.2948 862.271 42.4881 862.271 L64.0042 862.271 L64.0042 868.16 L42.679 868.16 Q37.5546 868.16 35.072 869.974 Q32.5894 871.788 32.5894 875.512 Q32.5894 880.064 35.6131 882.705 Q38.6368 885.347 43.8567 885.347 L64.0042 885.347 L64.0042 891.235 L42.679 891.235 Q37.5228 891.235 35.072 893.05 Q32.5894 894.864 32.5894 898.651 Q32.5894 903.139 35.6449 905.781 Q38.6686 908.423 43.8567 908.423 L64.0042 908.423 L64.0042 914.311 L28.3562 914.311 L28.3562 908.423 L33.8944 908.423 Q30.616 906.418 29.0564 903.617 Q27.4968 900.816 27.4968 896.965 Q27.4968 893.081 29.4702 890.376 Q31.4436 887.639 35.1993 886.334 Z" fill="#000000" fill-rule="nonzero" fill-opacity="1" /><path clip-path="url(#clip020)" d="M49.9359 851.195 L28.3562 851.195 L28.3562 845.339 L49.7131 845.339 Q54.7739 845.339 57.3202 843.365 Q59.8346 841.392 59.8346 837.445 Q59.8346 832.703 56.8109 829.966 Q53.7872 827.196 48.5673 827.196 L28.3562 827.196 L28.3562 821.34 L64.0042 821.34 L64.0042 827.196 L58.5296 827.196 Q61.7762 829.329 63.3676 832.162 Q64.9272 834.963 64.9272 838.687 Q64.9272 844.829 61.1078 848.012 Q57.2883 851.195 49.9359 851.195 M27.4968 836.459 L27.4968 836.459 Z" fill="#000000" fill-rule="nonzero" fill-opacity="1" /><path clip-path="url(#clip020)" d="M14.479 809.277 L14.479 803.421 L64.0042 803.421 L64.0042 809.277 L14.479 809.277 Z" fill="#000000" fill-rule="nonzero" fill-opacity="1" /><path clip-path="url(#clip020)" d="M46.0847 774.966 Q46.0847 782.064 47.7079 784.801 Q49.3312 787.538 53.2461 787.538 Q56.3653 787.538 58.2114 785.501 Q60.0256 783.432 60.0256 779.899 Q60.0256 775.029 56.5881 772.101 Q53.1188 769.141 47.3897 769.141 L46.0847 769.141 L46.0847 774.966 M43.6657 763.285 L64.0042 763.285 L64.0042 769.141 L58.5933 769.141 Q61.8398 771.146 63.3994 774.138 Q64.9272 777.13 64.9272 781.459 Q64.9272 786.933 61.8716 790.18 Q58.7843 793.395 53.6281 793.395 Q47.6125 793.395 44.5569 789.384 Q41.5014 785.342 41.5014 777.353 L41.5014 769.141 L40.9285 769.141 Q36.8862 769.141 34.6901 771.815 Q32.4621 774.457 32.4621 779.263 Q32.4621 782.318 33.1941 785.215 Q33.9262 788.111 35.3903 790.785 L29.9795 790.785 Q28.7381 787.57 28.1334 784.546 Q27.4968 781.522 27.4968 778.658 Q27.4968 770.924 31.5072 767.104 Q35.5176 763.285 43.6657 763.285 Z" fill="#000000" fill-rule="nonzero" fill-opacity="1" /><path clip-path="url(#clip020)" d="M18.2347 745.429 L28.3562 745.429 L28.3562 733.366 L32.9077 733.366 L32.9077 745.429 L52.2594 745.429 Q56.6199 745.429 57.8613 744.251 Q59.1026 743.042 59.1026 739.382 L59.1026 733.366 L64.0042 733.366 L64.0042 739.382 Q64.0042 746.161 61.4897 748.739 Q58.9434 751.317 52.2594 751.317 L32.9077 751.317 L32.9077 755.614 L28.3562 755.614 L28.3562 751.317 L18.2347 751.317 L18.2347 745.429 Z" fill="#000000" fill-rule="nonzero" fill-opacity="1" /><path clip-path="url(#clip020)" d="M28.3562 725.663 L28.3562 719.807 L64.0042 719.807 L64.0042 725.663 L28.3562 725.663 M14.479 725.663 L14.479 719.807 L21.895 719.807 L21.895 725.663 L14.479 725.663 Z" fill="#000000" fill-rule="nonzero" fill-opacity="1" /><path clip-path="url(#clip020)" d="M28.3562 711.754 L28.3562 705.548 L58.275 694.408 L28.3562 683.268 L28.3562 677.061 L64.0042 690.429 L64.0042 698.386 L28.3562 711.754 Z" fill="#000000" fill-rule="nonzero" fill-opacity="1" /><path clip-path="url(#clip020)" d="M44.7161 638.485 L47.5806 638.485 L47.5806 665.412 Q53.6281 665.03 56.8109 661.784 Q59.9619 658.505 59.9619 652.681 Q59.9619 649.307 59.1344 646.156 Q58.3069 642.973 56.6518 639.854 L62.1899 639.854 Q63.5267 643.005 64.227 646.315 Q64.9272 649.625 64.9272 653.031 Q64.9272 661.561 59.9619 666.558 Q54.9967 671.523 46.5303 671.523 Q37.7774 671.523 32.6531 666.812 Q27.4968 662.07 27.4968 654.049 Q27.4968 646.856 32.1438 642.686 Q36.7589 638.485 44.7161 638.485 M42.9973 644.342 Q38.1912 644.405 35.3266 647.047 Q32.4621 649.657 32.4621 653.986 Q32.4621 658.887 35.2312 661.847 Q38.0002 664.775 43.0292 665.221 L42.9973 644.342 Z" fill="#000000" fill-rule="nonzero" fill-opacity="1" /><path clip-path="url(#clip020)" d="M41.7242 585.363 Q42.4244 583.294 44.7161 581.353 Q47.0077 579.379 51.0181 577.406 L64.0042 570.881 L64.0042 577.788 L51.8138 583.867 Q47.0395 586.223 45.48 588.451 Q43.9204 590.647 43.9204 594.466 L43.9204 601.468 L64.0042 601.468 L64.0042 607.898 L16.4842 607.898 L16.4842 593.384 Q16.4842 585.236 19.8898 581.226 Q23.2955 577.215 30.1704 577.215 Q34.6582 577.215 37.6183 579.316 Q40.5784 581.385 41.7242 585.363 M21.7677 601.468 L38.6368 601.468 L38.6368 593.384 Q38.6368 588.737 36.5043 586.382 Q34.34 583.995 30.1704 583.995 Q26.0009 583.995 23.9002 586.382 Q21.7677 588.737 21.7677 593.384 L21.7677 601.468 Z" fill="#000000" fill-rule="nonzero" fill-opacity="1" /><path clip-path="url(#clip020)" d="M44.7161 535.297 L47.5806 535.297 L47.5806 562.224 Q53.6281 561.842 56.8109 558.595 Q59.9619 555.317 59.9619 549.492 Q59.9619 546.119 59.1344 542.968 Q58.3069 539.785 56.6518 536.666 L62.1899 536.666 Q63.5267 539.817 64.227 543.127 Q64.9272 546.437 64.9272 549.843 Q64.9272 558.373 59.9619 563.37 Q54.9967 568.335 46.5303 568.335 Q37.7774 568.335 32.6531 563.624 Q27.4968 558.882 27.4968 550.861 Q27.4968 543.668 32.1438 539.498 Q36.7589 535.297 44.7161 535.297 M42.9973 541.153 Q38.1912 541.217 35.3266 543.859 Q32.4621 546.469 32.4621 550.797 Q32.4621 555.699 35.2312 558.659 Q38.0002 561.587 43.0292 562.033 L42.9973 541.153 Z" fill="#000000" fill-rule="nonzero" fill-opacity="1" /><path clip-path="url(#clip020)" d="M18.2347 519.892 L28.3562 519.892 L28.3562 507.829 L32.9077 507.829 L32.9077 519.892 L52.2594 519.892 Q56.6199 519.892 57.8613 518.714 Q59.1026 517.505 59.1026 513.845 L59.1026 507.829 L64.0042 507.829 L64.0042 513.845 Q64.0042 520.624 61.4897 523.202 Q58.9434 525.78 52.2594 525.78 L32.9077 525.78 L32.9077 530.077 L28.3562 530.077 L28.3562 525.78 L18.2347 525.78 L18.2347 519.892 Z" fill="#000000" fill-rule="nonzero" fill-opacity="1" /><path clip-path="url(#clip020)" d="M49.9359 500.731 L28.3562 500.731 L28.3562 494.875 L49.7131 494.875 Q54.7739 494.875 57.3202 492.901 Q59.8346 490.928 59.8346 486.981 Q59.8346 482.239 56.8109 479.502 Q53.7872 476.732 48.5673 476.732 L28.3562 476.732 L28.3562 470.876 L64.0042 470.876 L64.0042 476.732 L58.5296 476.732 Q61.7762 478.865 63.3676 481.698 Q64.9272 484.499 64.9272 488.223 Q64.9272 494.365 61.1078 497.548 Q57.2883 500.731 49.9359 500.731 M27.4968 485.995 L27.4968 485.995 Z" fill="#000000" fill-rule="nonzero" fill-opacity="1" /><path clip-path="url(#clip020)" d="M33.8307 438.156 Q33.2578 439.143 33.0032 440.321 Q32.7167 441.466 32.7167 442.867 Q32.7167 447.832 35.9632 450.506 Q39.1779 453.148 45.2253 453.148 L64.0042 453.148 L64.0042 459.036 L28.3562 459.036 L28.3562 453.148 L33.8944 453.148 Q30.6479 451.301 29.0883 448.341 Q27.4968 445.381 27.4968 441.148 Q27.4968 440.543 27.5923 439.811 Q27.656 439.079 27.8151 438.188 L33.8307 438.156 Z" fill="#000000" fill-rule="nonzero" fill-opacity="1" /><path clip-path="url(#clip020)" d="M42.4881 403.527 L64.0042 403.527 L64.0042 409.383 L42.679 409.383 Q37.6183 409.383 35.1038 411.357 Q32.5894 413.33 32.5894 417.277 Q32.5894 422.019 35.6131 424.756 Q38.6368 427.494 43.8567 427.494 L64.0042 427.494 L64.0042 433.382 L28.3562 433.382 L28.3562 427.494 L33.8944 427.494 Q30.6797 425.393 29.0883 422.56 Q27.4968 419.696 27.4968 415.972 Q27.4968 409.829 31.3163 406.678 Q35.1038 403.527 42.4881 403.527 Z" fill="#000000" fill-rule="nonzero" fill-opacity="1" /><polyline clip-path="url(#clip022)" style="stroke:#009af9; stroke-linecap:round; stroke-linejoin:round; stroke-width:4; stroke-opacity:1; fill:none" points="278.207,1374.54 279.589,1355.84 283.736,1328.79 285.119,1316.41 286.501,1317.7 287.883,1305.56 289.266,1303.02 293.413,1332.49 294.795,1335.33 296.178,1326.89 297.56,1324.35 298.942,1318.44 304.472,1330.87 305.854,1327.02 307.237,1333.17 308.619,1320.72 312.766,1328.98 314.149,1322.47 315.531,1304.4 316.913,1301.86 318.296,1293.82 322.443,1281.72 323.825,1286.69 325.208,1287.12 326.59,1288.76 327.972,1282.32 332.119,1281.56 333.502,1276.37 334.884,1269.48 336.267,1266.79 337.649,1260.94 343.178,1258.39 344.561,1257.47 345.943,1252.4 347.326,1226.8 351.473,1226.61 352.855,1235.01 354.238,1249.9 355.62,1255.02 357.002,1249.57 361.149,1250.52 362.532,1238.64 363.914,1246.34 365.297,1245.86 366.679,1249.52 370.768,1244.9 372.151,1237.39 373.533,1230.26 374.916,1269.95 376.298,1248.87 380.445,1249.73 381.827,1249.32 383.21,1254.97 384.592,1249.03 385.975,1265.23 390.122,1261.05 391.504,1262.06 392.887,1273.44 394.269,1264.9 395.651,1259.27 399.798,1255.35 401.181,1259.98 402.563,1254.22 403.946,1243.61 405.328,1232.3 409.475,1228.92 410.857,1230.92 412.24,1224.73 413.622,1221.07 415.005,1217.67 419.152,1215.09 420.534,1216.76 421.916,1211.42 423.299,1208.13 428.828,1196.73 430.211,1194.89 431.593,1204.89 432.975,1203.13 434.358,1204.79 438.505,1202.76 439.887,1190.39 441.27,1195.8 442.652,1196.33 444.035,1173.32 448.182,1186.78 449.564,1194.77 450.946,1193.46 452.329,1194.48 453.711,1199.13 457.858,1232.13 459.241,1228.27 460.623,1219.94 462.005,1206.79 463.388,1203.46 467.535,1208.04 468.917,1192.97 470.3,1200.66 471.682,1224.73 473.064,1224.14 478.594,1247.55 479.976,1262.69 481.359,1210.48 482.741,1223.03 486.888,1210.55 488.271,1190.65 489.653,1194.56 491.035,1179.84 492.418,1166.77 496.565,1156.11 497.947,1155.13 499.33,1146.97 500.712,1138.88 502.094,1144.36 506.242,1143.38 507.624,1130.03 509.006,1123 510.389,1119.51 511.771,1128.92 515.918,1133.36 517.301,1141.93 518.683,1141.37 520.065,1135.38 521.448,1142.38 525.595,1126.89 526.977,1114.87 528.36,1103.64 531.124,1090.67 535.272,1103.46 536.654,1096.22 538.036,1084.3 539.419,1079.63 540.801,1063.66 544.948,1066.32 546.331,1051.37 547.713,1060.2 549.095,1068.16 550.478,1074.46 554.625,1089.07 556.007,1086.67 557.39,1072.04 558.772,1081.38 560.154,1055.64 564.301,1070.25 565.684,1086.81 567.066,1086.29 568.449,1088.47 569.831,1071 573.978,1099.68 575.36,1080.13 576.743,1078.76 578.125,1052.97 579.508,1058.29 583.655,1067.3 585.037,1060.73 586.42,1071.6 587.802,1071.07 589.184,1048.07 593.331,1024.63 594.714,1032.21 596.096,1021.12 597.479,1021.91 598.861,1042.1 603.008,1023.66 604.39,1035.57 605.773,1019.44 607.155,943.574 608.538,946.178 614.067,936.606 615.449,917.115 616.832,907.235 618.214,891.982 622.361,900.481 623.744,920.776 625.126,914.968 626.508,913.655 627.891,911.77 632.038,931.059 633.42,894.791 634.803,906.824 636.185,908.135 637.568,923.923 641.715,915.606 643.097,921.979 644.479,916.679 645.862,910.441 647.244,907.426 651.391,908.579 652.774,916.222 654.156,923.029 655.538,920.967 656.921,903.766 661.068,903.411 662.45,913.943 663.833,908.385 665.215,907.263 666.597,898.656 670.745,899.666 672.127,891.071 673.509,903.616 674.892,888.964 676.274,886.94 680.421,887.347 681.804,886.627 683.186,898.478 684.568,885.176 685.951,883.828 690.098,882.581 691.48,897.141 692.863,876.7 694.245,872.745 695.627,870.355 699.832,879.289 701.215,867.624 702.597,873.762 703.979,873.227 705.362,875.928 709.509,877.076 710.891,873.883 712.274,869.408 713.656,849.504 715.038,847.222 719.185,848.031 720.568,854.376 721.95,853.6 723.333,851.771 724.715,857.674 728.862,852.773 730.244,859.447 731.627,849.64 734.392,862.631 738.539,883.624 739.921,902.799 741.303,896.97 742.686,899.417 744.068,895.267 748.215,897.222 749.598,885.912 750.98,895.596 752.363,873.782 753.745,873.662 757.892,880.997 759.274,877.457 760.657,876.234 762.039,866.234 763.422,863.158 767.569,851.506 768.951,848.385 771.716,847.084 773.098,842.527 777.245,843.761 778.628,845.09 781.392,843.853 782.775,853.973 786.922,857.022 788.304,870.686 789.687,875.895 791.069,866.857 792.451,866.568 796.599,860.337 797.981,844.068 799.363,843.839 800.746,826.157 802.128,825.551 807.658,827.752 809.04,832.407 810.422,824.995 811.805,839.133 815.952,852.24 817.334,841.5 818.717,848.198 820.099,849.677 821.481,868.56 825.629,847.53 827.011,833.974 828.393,834.735 829.776,840.238 831.158,850.595 835.305,838.861 836.688,834.983 838.07,817.744 839.452,811.117 840.835,818.579 846.364,805.319 847.747,792.876 849.129,783.745 850.511,788.49 854.659,816.248 856.041,843.061 857.423,844.731 858.806,897.398 860.188,945.547 864.335,878.745 865.718,913.82 867.1,883.41 868.482,905.582 869.865,915.236 873.954,964.544 875.337,884.608 876.719,975.167 878.101,1137.23 879.484,1073.43 883.631,1268.95 885.013,1170.92 886.396,1334.85 887.778,1357.33 889.16,1356.39 893.308,1384.24 894.69,1213.62 896.072,1206.06 897.455,1172.29 898.837,1235.1 902.984,1204.12 904.367,1185.61 905.749,1184.6 907.131,1140.08 908.514,1149.01 912.661,1081.5 914.043,1078.73 915.426,1052.95 916.808,1007.48 922.337,1001.2 923.72,948.357 925.102,968.479 926.485,904.081 927.867,858.703 932.014,914.751 933.397,977.822 934.779,953.148 936.161,933.483 937.544,958.319 941.691,929.247 943.073,929.466 944.456,897.473 945.838,902.601 947.22,946.727 951.367,938.536 952.75,977.241 954.132,966.026 955.515,986.484 956.897,962.164 961.044,923.678 962.426,932.951 963.809,945.465 965.191,949.26 966.574,938.019 970.721,888.553 972.103,889.868 973.485,887.02 974.868,876.819 976.25,873.736 981.78,842.885 983.162,789.252 984.545,822.227 985.927,800.362 990.074,759.772 991.456,761.153 992.839,755.384 994.221,777.383 995.604,751.109 999.751,731.538 1001.13,743.364 1002.52,736.521 1003.9,812.609 1005.28,809.955 1009.43,773.788 1010.81,763.164 1012.19,774.472 1013.57,764.036 1014.96,783.19 1019.1,744.037 1020.49,770.604 1021.87,781.957 1023.25,774.805 1024.63,799.614 1028.78,783.488 1030.16,781.549 1031.55,786.233 1032.93,789.482 1038.46,801.172 1039.84,797.925 1041.22,800.786 1042.6,792.063 1043.99,797.706 1048.13,817.433 1049.52,796.019 1050.9,776.964 1052.28,790.848 1053.66,797.013 1057.81,783.55 1059.19,782.566 1060.58,765.226 1061.96,780.077 1063.34,773.637 1067.49,781.186 1068.87,792.312 1070.25,787.08 1071.63,785.728 1073.02,792.673 1077.16,774.432 1078.55,760.057 1079.93,757.651 1081.31,767.242 1082.69,749.35 1086.84,743.411 1088.22,749.629 1089.61,721.745 1090.99,721.573 1092.37,707.345 1096.52,691.486 1097.9,707.914 1099.28,701.29 1100.66,730.109 1102.05,723.077 1106.19,720.188 1107.58,716.125 1108.96,708.586 1110.34,724.083 1111.72,713.55 1115.87,712.368 1117.25,726.993 1118.64,698.038 1120.02,748.532 1121.4,761.268 1126.93,765.796 1128.31,745.33 1129.69,765.675 1131.08,750.872 1135.22,721.342 1136.61,743.318 1137.99,737.746 1139.37,739.853 1140.75,735.225 1144.9,779.051 1146.28,761.536 1147.67,786.8 1149.05,787.37 1150.43,775 1154.58,753.949 1155.96,751.826 1157.34,745.707 1158.72,722.757 1160.11,733.688 1164.25,718.492 1165.64,725.174 1167.02,695.143 1168.4,657.773 1169.78,655.839 1173.93,657.839 1175.31,651.234 1176.7,665.654 1178.08,658.955 1179.46,678.869 1183.61,698.328 1184.99,694.969 1186.37,685.763 1187.75,697.692 1189.14,695.018 1193.28,736.554 1194.67,720.039 1196.05,761.382 1197.43,740.479 1198.81,754.508 1203.02,735.461 1204.4,701.197 1205.78,682.066 1207.17,655.402 1208.55,639.583 1212.69,672.611 1214.08,679.586 1215.46,641.044 1216.84,594.672 1218.22,577.269 1222.37,533.929 1223.75,553.611 1225.14,565.279 1226.52,556.198 1227.9,555.573 1232.05,548.153 1233.43,530.882 1234.81,523.516 1237.58,520.982 1241.72,540.364 1243.11,528.454 1244.49,535.501 1245.87,533.952 1247.25,552.281 1251.4,535.46 1252.78,543.876 1254.17,558.825 1255.55,554.588 1256.93,569.852 1261.08,570.783 1262.46,556.294 1263.84,545.944 1265.22,542.777 1266.61,554.354 1270.75,556.555 1272.14,542.797 1273.52,559.548 1274.9,557.062 1280.43,554.2 1281.81,549.854 1283.2,543.385 1284.58,532.378 1290.11,550.83 1291.49,556.575 1292.87,498.825 1294.25,498.096 1295.64,525.344 1299.78,540.533 1301.17,524.397 1302.55,499.482 1303.93,520.85 1305.31,526.617 1310.84,537.474 1312.23,525.724 1313.61,537.932 1314.99,535.213 1319.14,527.8 1320.52,501.074 1321.9,529.093 1323.28,562.799 1324.67,595.752 1328.81,592.92 1330.2,584.964 1331.58,582.435 1332.96,573.567 1334.34,574.384 1338.49,538.284 1339.87,515.778 1341.26,526.289 1342.64,533.053 1344.02,538.246 1349.55,537.113 1350.93,533.157 1352.31,523.381 1353.7,526.887 1357.84,530.311 1359.23,567.526 1360.61,568.707 1361.99,599.988 1363.37,585.489 1367.52,561.604 1368.9,594.707 1370.29,616.17 1371.67,658.075 1373.05,642.058 1377.2,628.795 1378.58,609.379 1379.96,593.865 1381.34,569.723 1382.73,550.742 1386.82,526.235 1388.2,517.006 1389.58,543.141 1390.96,609.267 1392.35,567.483 1396.49,523.821 1397.88,514.835 1399.26,526.283 1400.64,514.612 1402.02,481.147 1406.17,490.407 1407.55,494.137 1408.93,488.991 1410.32,466.071 1415.85,428.601 1417.23,423.546 1418.61,420.304 1419.99,407.331 1421.38,396.124 1425.52,400.712 1426.91,389.399 1428.29,384.879 1429.67,381.892 1431.05,381.297 1435.2,386.177 1436.58,374.902 1437.96,374.971 1439.35,381.761 1440.73,380.781 1444.88,372.445 1446.26,364.114 1447.64,375.905 1449.02,345.468 1450.41,352.508 1454.55,336.732 1455.94,345.887 1457.32,347.914 1458.7,336.899 1460.08,319.853 1464.23,334.295 1465.61,369.584 1466.99,416.046 1468.38,402.171 1469.76,383.215 1473.91,394.103 1475.29,393.887 1476.67,424.151 1478.05,394.616 1479.44,402.553 1483.58,418.144 1484.97,423.721 1486.35,408.125 1487.73,368.418 1489.11,377.836 1494.64,377.993 1496.02,363.181 1497.41,351.327 1498.79,336.867 1502.94,326.708 1504.32,307.716 1505.7,329.564 1507.08,331.775 1508.47,313.429 1512.61,309.399 1514,302.31 1515.38,303.217 1516.76,300.926 1518.14,318.254 1522.29,312.183 1523.67,310.004 1525.05,318.01 1526.44,313.533 1527.82,315.345 1531.97,304.35 1533.35,292.123 1534.73,286.205 1536.11,272.399 1537.5,259.272 1543.03,261.657 1544.41,245.877 1545.79,265.445 1547.17,250.536 1551.32,254.243 1552.7,255.823 1554.08,248.048 1555.47,257.228 1556.85,266.496 1561,278.605 1562.38,227.533 1563.76,234.554 1565.14,229.25 1566.53,205.911 1570.67,209.802 1572.06,186.985 1573.44,201.997 1574.82,193.831 1576.2,188.446 1580.35,196.704 1581.73,198.489 1583.11,195.438 1584.5,178.361 1585.88,174.829 1590.03,200.183 1591.41,195.434 1592.79,189.78 1594.17,190.176 1595.56,180.731 1599.7,172.736 1601.09,204.925 1602.47,229.044 1603.85,231.175 1605.23,211.157 1609.38,208.658 1610.76,213.318 1612.14,188.326 1613.53,242.408 1614.91,246.533 1619.06,246.274 1620.44,259.279 1621.82,255.026 1623.2,236.644 1624.59,251.547 1630.12,273.119 1631.5,259.463 1632.88,279.325 1634.26,295.591 1638.41,287.24 1639.79,305.688 1641.17,286.736 1642.56,266.333 1643.94,254.819 1648.09,259.432 1649.47,280.682 1650.85,277.661 1652.23,265.557 1653.62,265.637 1657.76,267.932 1659.15,283.078 1660.53,288.244 1661.91,315.913 1663.29,318.027 1667.44,338.484 1668.82,339.181 1670.2,341.367 1671.59,306.162 1672.97,331.7 1677.12,339.162 1678.5,339.936 1679.88,341.303 1681.26,304.853 1682.65,296.446 1686.79,298.73 1688.18,304.995 1689.56,277.717 1690.94,263.718 1692.32,256.052 1696.47,247.274 1697.85,259.347 1699.23,266.899 1700.62,239.647 1702,246.749 1706.15,214.633 1707.53,209.491 1708.91,181.693 1710.29,171.828 1711.68,156.97 1715.88,179.198 1717.26,192.836 1718.65,196.092 1720.03,180.245 1721.41,160.965 1725.56,136.638 1726.94,115.912 1728.32,140.164 1729.7,156.556 1731.09,166.4 1735.23,172.789 1736.62,164.323 1738,170.15 1740.76,188.773 1744.91,177.376 1746.29,209.544 1747.68,218.173 1749.06,225.714 1750.44,210.804 1754.59,185.066 1755.97,165.422 1757.35,181.38 1758.73,189.822 1760.12,174.343 1764.26,172.481 1765.65,176.844 1767.03,161.313 1768.41,176.658 1769.79,201.46 1773.94,212.47 1775.32,190.12 1776.7,198.218 1778.09,170.239 1783.62,155.66 1785,145.496 1786.38,116.058 1787.76,101.727 1789.15,98.3684 1793.29,102.003 1794.68,128.531 1796.06,138.617 1797.44,125.534 1798.82,129.023 1802.97,135.002 1804.35,155.004 1805.73,151.889 1807.12,169.427 1808.5,214.223 1814.03,219.49 1815.41,217.315 1816.79,281.104 1818.18,298.38 1822.32,269.493 1823.71,291.564 1825.09,326.624 1826.47,312.203 1827.85,302.175 1832,267.366 1833.38,247.628 1834.76,267.398 1836.15,276.281 1837.53,296.428 1841.68,303.133 1843.06,269.536 1844.44,251.375 1845.82,295.397 1847.21,317.831 1851.35,327.048 1852.74,325.367 1854.12,331.944 1855.5,343.659 1856.88,326.3 1862.41,380.089 1863.79,412.079 1865.18,389.137 1866.56,331.362 1870.71,329.165 1872.09,333.813 1873.47,291.385 1874.85,291.71 1876.24,277.512 1880.38,331.905 1881.77,353.381 1883.15,330.591 1884.53,331.635 1885.91,363.797 1890,369.023 1891.38,337.678 1892.77,336.518 1894.15,266.523 1895.53,219.518 1899.68,219.265 1901.06,211.181 1902.44,242.32 1903.83,235.127 1905.21,217.671 1909.36,188.814 1910.74,177.632 1912.12,181.46 1913.5,205.06 1914.89,189.025 1919.03,178.474 1920.41,184.546 1921.8,154.007 1923.18,147.76 1924.56,140.59 1928.71,160.744 1930.09,165.161 1931.47,148.047 1932.86,155.246 1938.39,154.874 1939.77,112.343 1941.15,95.5671 1942.53,134.654 1943.92,178.677 1948.06,182.722 1949.44,218.61 1950.83,227.483 1952.21,200.812 1953.59,281.996 1957.74,271.173 1959.12,267.27 1960.5,219.079 1961.89,282.99 1963.27,289.489 1967.42,325.507 1968.8,355.032 1970.18,366.798 1971.56,363.436 1972.95,333.296 1977.09,329.763 1978.47,331.532 1979.86,454.814 1981.24,460.482 1982.62,516.921 1986.77,474.23 1988.15,480.073 1989.53,470.888 1990.92,324.781 1992.3,277.535 1997.83,303.418 1999.21,332.849 2000.59,284.139 2001.98,292.967 2006.12,265.082 2007.5,256.179 2008.89,267.54 2010.27,248.049 2011.65,284.007 2015.8,354.145 2017.18,346.607 2018.56,319.038 2019.95,365.308 2021.33,367.716 2026.86,331.526 2028.24,326.454 2029.62,295.351 2031.01,245.351 2035.15,252.579 2036.53,289.516 2037.92,293.055 2039.3,295.333 2040.68,274.514 2046.21,252.858 2047.59,248.718 2048.98,226.908 2050.36,217.933 2054.51,212.198 2055.89,237.185 2057.27,233.634 2058.65,226.272 2060.03,245.795 2064.18,229.67 2065.56,205.092 2066.95,192.514 2068.33,199.094 2069.71,208.911 2073.86,208.468 2075.24,251.039 2076.62,214.972 2078.01,185.623 2079.39,161.549 2083.54,138.341 2084.92,134.639 2086.3,93.5456 2087.68,110.939 2089.06,124.723 2093.21,97.308 2094.59,109.871 2095.98,89.859 2097.36,88.9139 2098.74,86.1857 2102.89,92.369 2104.27,86.4201 2105.65,107.788 2107.04,104.715 2108.42,101.63 2112.57,166.096 2113.95,159.673 2115.33,154.422 2116.71,165.948 2118.09,252.004 2122.24,256.056 2123.62,273.56 2125.01,283.866 2126.39,253.386 2127.77,266.998 2133.3,274.058 2134.68,216.737 2136.07,196.878 2137.45,172.48 2141.6,149.893 2142.98,208.545 2144.36,235.466 2145.74,257.246 2147.12,256.724 2151.27,237.931 2152.65,250.581 2154.04,281.013 2155.42,306.36 2156.8,304.039 2160.95,335.509 2162.33,339.497 2163.71,296.352 2165.1,348.275 2166.48,350.019 2170.63,306.93 2172.01,263.75 2173.39,291.773 2174.77,284.468 2176.15,308.408 2180.3,310.278 2181.68,292.061 2183.07,298.935 2184.45,259.886 2185.83,299.899 2189.98,286.519 2191.36,272.298 2192.74,280.739 2194.13,290.381 2195.51,261.192 2199.66,258.968 2201.04,229.233 2202.42,230.528 2203.8,239.814 2205.18,202.38 2209.33,230.828 2210.71,243.083 2212.1,272.128 2213.48,275.826 2214.86,251.146 2219.07,231.113 2220.45,222.993 2221.83,269.36 2223.21,199.038 2224.6,205.227 2228.74,215.493 2230.13,167.28 2231.51,171.281 2232.89,175.895 2234.27,157.674 2238.42,113.543 2239.8,99.6751 2241.18,94.4548 2243.95,92.2511 2248.1,129.5 2249.48,149.762 2250.86,129.699 2252.24,192.837 2253.63,173.551 2257.77,185.051 2259.16,187.131 2260.54,165.566 2261.92,166.469 2263.3,186.954 2267.45,179.149 2268.83,189.859 2270.21,180.579 2271.6,203.482 2272.98,197.903 2277.13,221.921 2278.51,228.262 2279.89,197.258 2281.27,193.8 2282.66,176.841 2288.19,191.308 2289.57,195.128 2290.95,159.923 2292.33,160.21 "/>
</svg>
