<?xml version="1.0" encoding="utf-8"?>
<svg xmlns="http://www.w3.org/2000/svg" xmlns:xlink="http://www.w3.org/1999/xlink" width="600" height="400" viewBox="0 0 2400 1600">
<defs>
  <clipPath id="clip900">
    <rect x="0" y="0" width="2400" height="1600"/>
  </clipPath>
</defs>
<path clip-path="url(#clip900)" d="M0 1600 L2400 1600 L2400 0 L0 0  Z" fill="#ffffff" fill-rule="evenodd" fill-opacity="1"/>
<defs>
  <clipPath id="clip901">
    <rect x="480" y="0" width="1681" height="1600"/>
  </clipPath>
</defs>
<path clip-path="url(#clip900)" d="M217.783 1423.18 L2352.76 1423.18 L2352.76 47.2441 L217.783 47.2441  Z" fill="#ffffff" fill-rule="evenodd" fill-opacity="1"/>
<defs>
  <clipPath id="clip902">
    <rect x="217" y="47" width="2136" height="1377"/>
  </clipPath>
</defs>
<polyline clip-path="url(#clip902)" style="stroke:#000000; stroke-linecap:round; stroke-linejoin:round; stroke-width:2; stroke-opacity:0.1; fill:none" points="274.607,1423.18 274.607,47.2441 "/>
<polyline clip-path="url(#clip902)" style="stroke:#000000; stroke-linecap:round; stroke-linejoin:round; stroke-width:2; stroke-opacity:0.1; fill:none" points="779.175,1423.18 779.175,47.2441 "/>
<polyline clip-path="url(#clip902)" style="stroke:#000000; stroke-linecap:round; stroke-linejoin:round; stroke-width:2; stroke-opacity:0.1; fill:none" points="1285.13,1423.18 1285.13,47.2441 "/>
<polyline clip-path="url(#clip902)" style="stroke:#000000; stroke-linecap:round; stroke-linejoin:round; stroke-width:2; stroke-opacity:0.1; fill:none" points="1789.69,1423.18 1789.69,47.2441 "/>
<polyline clip-path="url(#clip902)" style="stroke:#000000; stroke-linecap:round; stroke-linejoin:round; stroke-width:2; stroke-opacity:0.1; fill:none" points="2294.26,1423.18 2294.26,47.2441 "/>
<polyline clip-path="url(#clip902)" style="stroke:#000000; stroke-linecap:round; stroke-linejoin:round; stroke-width:2; stroke-opacity:0.1; fill:none" points="217.783,1378.8 2352.76,1378.8 "/>
<polyline clip-path="url(#clip902)" style="stroke:#000000; stroke-linecap:round; stroke-linejoin:round; stroke-width:2; stroke-opacity:0.1; fill:none" points="217.783,1110.06 2352.76,1110.06 "/>
<polyline clip-path="url(#clip902)" style="stroke:#000000; stroke-linecap:round; stroke-linejoin:round; stroke-width:2; stroke-opacity:0.1; fill:none" points="217.783,841.329 2352.76,841.329 "/>
<polyline clip-path="url(#clip902)" style="stroke:#000000; stroke-linecap:round; stroke-linejoin:round; stroke-width:2; stroke-opacity:0.1; fill:none" points="217.783,572.595 2352.76,572.595 "/>
<polyline clip-path="url(#clip902)" style="stroke:#000000; stroke-linecap:round; stroke-linejoin:round; stroke-width:2; stroke-opacity:0.1; fill:none" points="217.783,303.862 2352.76,303.862 "/>
<polyline clip-path="url(#clip900)" style="stroke:#000000; stroke-linecap:round; stroke-linejoin:round; stroke-width:4; stroke-opacity:1; fill:none" points="217.783,1423.18 2352.76,1423.18 "/>
<polyline clip-path="url(#clip900)" style="stroke:#000000; stroke-linecap:round; stroke-linejoin:round; stroke-width:4; stroke-opacity:1; fill:none" points="274.607,1423.18 274.607,1404.28 "/>
<polyline clip-path="url(#clip900)" style="stroke:#000000; stroke-linecap:round; stroke-linejoin:round; stroke-width:4; stroke-opacity:1; fill:none" points="779.175,1423.18 779.175,1404.28 "/>
<polyline clip-path="url(#clip900)" style="stroke:#000000; stroke-linecap:round; stroke-linejoin:round; stroke-width:4; stroke-opacity:1; fill:none" points="1285.13,1423.18 1285.13,1404.28 "/>
<polyline clip-path="url(#clip900)" style="stroke:#000000; stroke-linecap:round; stroke-linejoin:round; stroke-width:4; stroke-opacity:1; fill:none" points="1789.69,1423.18 1789.69,1404.28 "/>
<polyline clip-path="url(#clip900)" style="stroke:#000000; stroke-linecap:round; stroke-linejoin:round; stroke-width:4; stroke-opacity:1; fill:none" points="2294.26,1423.18 2294.26,1404.28 "/>
<path clip-path="url(#clip900)" d="M146.401 1481.64 L162.721 1481.64 L162.721 1485.58 L140.776 1485.58 L140.776 1481.64 Q143.438 1478.89 148.022 1474.26 Q152.628 1469.61 153.809 1468.27 Q156.054 1465.74 156.934 1464.01 Q157.837 1462.25 157.837 1460.56 Q157.837 1457.8 155.892 1456.07 Q153.971 1454.33 150.869 1454.33 Q148.67 1454.33 146.216 1455.09 Q143.786 1455.86 141.008 1457.41 L141.008 1452.69 Q143.832 1451.55 146.286 1450.97 Q148.739 1450.39 150.776 1450.39 Q156.147 1450.39 159.341 1453.08 Q162.536 1455.77 162.536 1460.26 Q162.536 1462.39 161.725 1464.31 Q160.938 1466.2 158.832 1468.8 Q158.253 1469.47 155.151 1472.69 Q152.05 1475.88 146.401 1481.64 Z" fill="#000000" fill-rule="nonzero" fill-opacity="1" /><path clip-path="url(#clip900)" d="M182.535 1454.1 Q178.924 1454.1 177.096 1457.66 Q175.29 1461.2 175.29 1468.33 Q175.29 1475.44 177.096 1479.01 Q178.924 1482.55 182.535 1482.55 Q186.17 1482.55 187.975 1479.01 Q189.804 1475.44 189.804 1468.33 Q189.804 1461.2 187.975 1457.66 Q186.17 1454.1 182.535 1454.1 M182.535 1450.39 Q188.346 1450.39 191.401 1455 Q194.48 1459.58 194.48 1468.33 Q194.48 1477.06 191.401 1481.67 Q188.346 1486.25 182.535 1486.25 Q176.725 1486.25 173.647 1481.67 Q170.591 1477.06 170.591 1468.33 Q170.591 1459.58 173.647 1455 Q176.725 1450.39 182.535 1450.39 Z" fill="#000000" fill-rule="nonzero" fill-opacity="1" /><path clip-path="url(#clip900)" d="M203.508 1481.64 L211.146 1481.64 L211.146 1455.28 L202.836 1456.95 L202.836 1452.69 L211.1 1451.02 L215.776 1451.02 L215.776 1481.64 L223.415 1481.64 L223.415 1485.58 L203.508 1485.58 L203.508 1481.64 Z" fill="#000000" fill-rule="nonzero" fill-opacity="1" /><path clip-path="url(#clip900)" d="M232.998 1484.86 L232.998 1480.6 Q234.757 1481.44 236.563 1481.88 Q238.369 1482.32 240.105 1482.32 Q244.734 1482.32 247.165 1479.21 Q249.618 1476.09 249.966 1469.75 Q248.623 1471.74 246.563 1472.8 Q244.503 1473.87 242.003 1473.87 Q236.818 1473.87 233.785 1470.74 Q230.776 1467.59 230.776 1462.15 Q230.776 1456.83 233.924 1453.61 Q237.072 1450.39 242.304 1450.39 Q248.299 1450.39 251.447 1455 Q254.618 1459.58 254.618 1468.33 Q254.618 1476.51 250.73 1481.39 Q246.864 1486.25 240.313 1486.25 Q238.554 1486.25 236.748 1485.9 Q234.943 1485.56 232.998 1484.86 M242.304 1470.21 Q245.452 1470.21 247.281 1468.06 Q249.132 1465.9 249.132 1462.15 Q249.132 1458.43 247.281 1456.27 Q245.452 1454.1 242.304 1454.1 Q239.156 1454.1 237.304 1456.27 Q235.475 1458.43 235.475 1462.15 Q235.475 1465.9 237.304 1468.06 Q239.156 1470.21 242.304 1470.21 Z" fill="#000000" fill-rule="nonzero" fill-opacity="1" /><path clip-path="url(#clip900)" d="M260.267 1470.7 L272.743 1470.7 L272.743 1474.49 L260.267 1474.49 L260.267 1470.7 Z" fill="#000000" fill-rule="nonzero" fill-opacity="1" /><path clip-path="url(#clip900)" d="M290.128 1454.1 Q286.516 1454.1 284.688 1457.66 Q282.882 1461.2 282.882 1468.33 Q282.882 1475.44 284.688 1479.01 Q286.516 1482.55 290.128 1482.55 Q293.762 1482.55 295.567 1479.01 Q297.396 1475.44 297.396 1468.33 Q297.396 1461.2 295.567 1457.66 Q293.762 1454.1 290.128 1454.1 M290.128 1450.39 Q295.938 1450.39 298.993 1455 Q302.072 1459.58 302.072 1468.33 Q302.072 1477.06 298.993 1481.67 Q295.938 1486.25 290.128 1486.25 Q284.317 1486.25 281.239 1481.67 Q278.183 1477.06 278.183 1468.33 Q278.183 1459.58 281.239 1455 Q284.317 1450.39 290.128 1450.39 Z" fill="#000000" fill-rule="nonzero" fill-opacity="1" /><path clip-path="url(#clip900)" d="M311.1 1481.64 L318.738 1481.64 L318.738 1455.28 L310.428 1456.95 L310.428 1452.69 L318.692 1451.02 L323.368 1451.02 L323.368 1481.64 L331.007 1481.64 L331.007 1485.58 L311.1 1485.58 L311.1 1481.64 Z" fill="#000000" fill-rule="nonzero" fill-opacity="1" /><path clip-path="url(#clip900)" d="M337.697 1470.7 L350.173 1470.7 L350.173 1474.49 L337.697 1474.49 L337.697 1470.7 Z" fill="#000000" fill-rule="nonzero" fill-opacity="1" /><path clip-path="url(#clip900)" d="M367.558 1454.1 Q363.947 1454.1 362.118 1457.66 Q360.312 1461.2 360.312 1468.33 Q360.312 1475.44 362.118 1479.01 Q363.947 1482.55 367.558 1482.55 Q371.192 1482.55 372.997 1479.01 Q374.826 1475.44 374.826 1468.33 Q374.826 1461.2 372.997 1457.66 Q371.192 1454.1 367.558 1454.1 M367.558 1450.39 Q373.368 1450.39 376.423 1455 Q379.502 1459.58 379.502 1468.33 Q379.502 1477.06 376.423 1481.67 Q373.368 1486.25 367.558 1486.25 Q361.747 1486.25 358.669 1481.67 Q355.613 1477.06 355.613 1468.33 Q355.613 1459.58 358.669 1455 Q361.747 1450.39 367.558 1450.39 Z" fill="#000000" fill-rule="nonzero" fill-opacity="1" /><path clip-path="url(#clip900)" d="M388.53 1481.64 L396.169 1481.64 L396.169 1455.28 L387.858 1456.95 L387.858 1452.69 L396.122 1451.02 L400.798 1451.02 L400.798 1481.64 L408.437 1481.64 L408.437 1485.58 L388.53 1485.58 L388.53 1481.64 Z" fill="#000000" fill-rule="nonzero" fill-opacity="1" /><path clip-path="url(#clip900)" d="M650.97 1481.64 L667.289 1481.64 L667.289 1485.58 L645.345 1485.58 L645.345 1481.64 Q648.007 1478.89 652.59 1474.26 Q657.196 1469.61 658.377 1468.27 Q660.622 1465.74 661.502 1464.01 Q662.405 1462.25 662.405 1460.56 Q662.405 1457.8 660.46 1456.07 Q658.539 1454.33 655.437 1454.33 Q653.238 1454.33 650.784 1455.09 Q648.354 1455.86 645.576 1457.41 L645.576 1452.69 Q648.4 1451.55 650.854 1450.97 Q653.308 1450.39 655.345 1450.39 Q660.715 1450.39 663.909 1453.08 Q667.104 1455.77 667.104 1460.26 Q667.104 1462.39 666.294 1464.31 Q665.507 1466.2 663.4 1468.8 Q662.821 1469.47 659.72 1472.69 Q656.618 1475.88 650.97 1481.64 Z" fill="#000000" fill-rule="nonzero" fill-opacity="1" /><path clip-path="url(#clip900)" d="M687.104 1454.1 Q683.493 1454.1 681.664 1457.66 Q679.858 1461.2 679.858 1468.33 Q679.858 1475.44 681.664 1479.01 Q683.493 1482.55 687.104 1482.55 Q690.738 1482.55 692.543 1479.01 Q694.372 1475.44 694.372 1468.33 Q694.372 1461.2 692.543 1457.66 Q690.738 1454.1 687.104 1454.1 M687.104 1450.39 Q692.914 1450.39 695.969 1455 Q699.048 1459.58 699.048 1468.33 Q699.048 1477.06 695.969 1481.67 Q692.914 1486.25 687.104 1486.25 Q681.293 1486.25 678.215 1481.67 Q675.159 1477.06 675.159 1468.33 Q675.159 1459.58 678.215 1455 Q681.293 1450.39 687.104 1450.39 Z" fill="#000000" fill-rule="nonzero" fill-opacity="1" /><path clip-path="url(#clip900)" d="M711.293 1481.64 L727.613 1481.64 L727.613 1485.58 L705.668 1485.58 L705.668 1481.64 Q708.33 1478.89 712.914 1474.26 Q717.52 1469.61 718.701 1468.27 Q720.946 1465.74 721.826 1464.01 Q722.728 1462.25 722.728 1460.56 Q722.728 1457.8 720.784 1456.07 Q718.863 1454.33 715.761 1454.33 Q713.562 1454.33 711.108 1455.09 Q708.678 1455.86 705.9 1457.41 L705.9 1452.69 Q708.724 1451.55 711.178 1450.97 Q713.631 1450.39 715.668 1450.39 Q721.039 1450.39 724.233 1453.08 Q727.427 1455.77 727.427 1460.26 Q727.427 1462.39 726.617 1464.31 Q725.83 1466.2 723.724 1468.8 Q723.145 1469.47 720.043 1472.69 Q716.941 1475.88 711.293 1481.64 Z" fill="#000000" fill-rule="nonzero" fill-opacity="1" /><path clip-path="url(#clip900)" d="M747.427 1454.1 Q743.816 1454.1 741.988 1457.66 Q740.182 1461.2 740.182 1468.33 Q740.182 1475.44 741.988 1479.01 Q743.816 1482.55 747.427 1482.55 Q751.062 1482.55 752.867 1479.01 Q754.696 1475.44 754.696 1468.33 Q754.696 1461.2 752.867 1457.66 Q751.062 1454.1 747.427 1454.1 M747.427 1450.39 Q753.238 1450.39 756.293 1455 Q759.372 1459.58 759.372 1468.33 Q759.372 1477.06 756.293 1481.67 Q753.238 1486.25 747.427 1486.25 Q741.617 1486.25 738.539 1481.67 Q735.483 1477.06 735.483 1468.33 Q735.483 1459.58 738.539 1455 Q741.617 1450.39 747.427 1450.39 Z" fill="#000000" fill-rule="nonzero" fill-opacity="1" /><path clip-path="url(#clip900)" d="M764.835 1470.7 L777.311 1470.7 L777.311 1474.49 L764.835 1474.49 L764.835 1470.7 Z" fill="#000000" fill-rule="nonzero" fill-opacity="1" /><path clip-path="url(#clip900)" d="M794.696 1454.1 Q791.085 1454.1 789.256 1457.66 Q787.45 1461.2 787.45 1468.33 Q787.45 1475.44 789.256 1479.01 Q791.085 1482.55 794.696 1482.55 Q798.33 1482.55 800.135 1479.01 Q801.964 1475.44 801.964 1468.33 Q801.964 1461.2 800.135 1457.66 Q798.33 1454.1 794.696 1454.1 M794.696 1450.39 Q800.506 1450.39 803.561 1455 Q806.64 1459.58 806.64 1468.33 Q806.64 1477.06 803.561 1481.67 Q800.506 1486.25 794.696 1486.25 Q788.886 1486.25 785.807 1481.67 Q782.751 1477.06 782.751 1468.33 Q782.751 1459.58 785.807 1455 Q788.886 1450.39 794.696 1450.39 Z" fill="#000000" fill-rule="nonzero" fill-opacity="1" /><path clip-path="url(#clip900)" d="M815.668 1481.64 L823.307 1481.64 L823.307 1455.28 L814.996 1456.95 L814.996 1452.69 L823.26 1451.02 L827.936 1451.02 L827.936 1481.64 L835.575 1481.64 L835.575 1485.58 L815.668 1485.58 L815.668 1481.64 Z" fill="#000000" fill-rule="nonzero" fill-opacity="1" /><path clip-path="url(#clip900)" d="M842.265 1470.7 L854.742 1470.7 L854.742 1474.49 L842.265 1474.49 L842.265 1470.7 Z" fill="#000000" fill-rule="nonzero" fill-opacity="1" /><path clip-path="url(#clip900)" d="M872.126 1454.1 Q868.515 1454.1 866.686 1457.66 Q864.88 1461.2 864.88 1468.33 Q864.88 1475.44 866.686 1479.01 Q868.515 1482.55 872.126 1482.55 Q875.76 1482.55 877.566 1479.01 Q879.394 1475.44 879.394 1468.33 Q879.394 1461.2 877.566 1457.66 Q875.76 1454.1 872.126 1454.1 M872.126 1450.39 Q877.936 1450.39 880.991 1455 Q884.07 1459.58 884.07 1468.33 Q884.07 1477.06 880.991 1481.67 Q877.936 1486.25 872.126 1486.25 Q866.316 1486.25 863.237 1481.67 Q860.181 1477.06 860.181 1468.33 Q860.181 1459.58 863.237 1455 Q866.316 1450.39 872.126 1450.39 Z" fill="#000000" fill-rule="nonzero" fill-opacity="1" /><path clip-path="url(#clip900)" d="M893.098 1481.64 L900.737 1481.64 L900.737 1455.28 L892.427 1456.95 L892.427 1452.69 L900.69 1451.02 L905.366 1451.02 L905.366 1481.64 L913.005 1481.64 L913.005 1485.58 L893.098 1485.58 L893.098 1481.64 Z" fill="#000000" fill-rule="nonzero" fill-opacity="1" /><path clip-path="url(#clip900)" d="M1156.92 1481.64 L1173.24 1481.64 L1173.24 1485.58 L1151.3 1485.58 L1151.3 1481.64 Q1153.96 1478.89 1158.54 1474.26 Q1163.15 1469.61 1164.33 1468.27 Q1166.57 1465.74 1167.45 1464.01 Q1168.36 1462.25 1168.36 1460.56 Q1168.36 1457.8 1166.41 1456.07 Q1164.49 1454.33 1161.39 1454.33 Q1159.19 1454.33 1156.73 1455.09 Q1154.3 1455.86 1151.53 1457.41 L1151.53 1452.69 Q1154.35 1451.55 1156.8 1450.97 Q1159.26 1450.39 1161.3 1450.39 Q1166.67 1450.39 1169.86 1453.08 Q1173.05 1455.77 1173.05 1460.26 Q1173.05 1462.39 1172.24 1464.31 Q1171.46 1466.2 1169.35 1468.8 Q1168.77 1469.47 1165.67 1472.69 Q1162.57 1475.88 1156.92 1481.64 Z" fill="#000000" fill-rule="nonzero" fill-opacity="1" /><path clip-path="url(#clip900)" d="M1193.05 1454.1 Q1189.44 1454.1 1187.61 1457.66 Q1185.81 1461.2 1185.81 1468.33 Q1185.81 1475.44 1187.61 1479.01 Q1189.44 1482.55 1193.05 1482.55 Q1196.69 1482.55 1198.49 1479.01 Q1200.32 1475.44 1200.32 1468.33 Q1200.32 1461.2 1198.49 1457.66 Q1196.69 1454.1 1193.05 1454.1 M1193.05 1450.39 Q1198.86 1450.39 1201.92 1455 Q1205 1459.58 1205 1468.33 Q1205 1477.06 1201.92 1481.67 Q1198.86 1486.25 1193.05 1486.25 Q1187.24 1486.25 1184.17 1481.67 Q1181.11 1477.06 1181.11 1468.33 Q1181.11 1459.58 1184.17 1455 Q1187.24 1450.39 1193.05 1450.39 Z" fill="#000000" fill-rule="nonzero" fill-opacity="1" /><path clip-path="url(#clip900)" d="M1217.24 1481.64 L1233.56 1481.64 L1233.56 1485.58 L1211.62 1485.58 L1211.62 1481.64 Q1214.28 1478.89 1218.86 1474.26 Q1223.47 1469.61 1224.65 1468.27 Q1226.9 1465.74 1227.78 1464.01 Q1228.68 1462.25 1228.68 1460.56 Q1228.68 1457.8 1226.73 1456.07 Q1224.81 1454.33 1221.71 1454.33 Q1219.51 1454.33 1217.06 1455.09 Q1214.63 1455.86 1211.85 1457.41 L1211.85 1452.69 Q1214.67 1451.55 1217.13 1450.97 Q1219.58 1450.39 1221.62 1450.39 Q1226.99 1450.39 1230.18 1453.08 Q1233.38 1455.77 1233.38 1460.26 Q1233.38 1462.39 1232.57 1464.31 Q1231.78 1466.2 1229.67 1468.8 Q1229.1 1469.47 1225.99 1472.69 Q1222.89 1475.88 1217.24 1481.64 Z" fill="#000000" fill-rule="nonzero" fill-opacity="1" /><path clip-path="url(#clip900)" d="M1244.19 1481.64 L1251.83 1481.64 L1251.83 1455.28 L1243.52 1456.95 L1243.52 1452.69 L1251.78 1451.02 L1256.46 1451.02 L1256.46 1481.64 L1264.1 1481.64 L1264.1 1485.58 L1244.19 1485.58 L1244.19 1481.64 Z" fill="#000000" fill-rule="nonzero" fill-opacity="1" /><path clip-path="url(#clip900)" d="M1270.79 1470.7 L1283.26 1470.7 L1283.26 1474.49 L1270.79 1474.49 L1270.79 1470.7 Z" fill="#000000" fill-rule="nonzero" fill-opacity="1" /><path clip-path="url(#clip900)" d="M1300.65 1454.1 Q1297.04 1454.1 1295.21 1457.66 Q1293.4 1461.2 1293.4 1468.33 Q1293.4 1475.44 1295.21 1479.01 Q1297.04 1482.55 1300.65 1482.55 Q1304.28 1482.55 1306.09 1479.01 Q1307.91 1475.44 1307.91 1468.33 Q1307.91 1461.2 1306.09 1457.66 Q1304.28 1454.1 1300.65 1454.1 M1300.65 1450.39 Q1306.46 1450.39 1309.51 1455 Q1312.59 1459.58 1312.59 1468.33 Q1312.59 1477.06 1309.51 1481.67 Q1306.46 1486.25 1300.65 1486.25 Q1294.84 1486.25 1291.76 1481.67 Q1288.7 1477.06 1288.7 1468.33 Q1288.7 1459.58 1291.76 1455 Q1294.84 1450.39 1300.65 1450.39 Z" fill="#000000" fill-rule="nonzero" fill-opacity="1" /><path clip-path="url(#clip900)" d="M1321.62 1481.64 L1329.26 1481.64 L1329.26 1455.28 L1320.95 1456.95 L1320.95 1452.69 L1329.21 1451.02 L1333.89 1451.02 L1333.89 1481.64 L1341.53 1481.64 L1341.53 1485.58 L1321.62 1485.58 L1321.62 1481.64 Z" fill="#000000" fill-rule="nonzero" fill-opacity="1" /><path clip-path="url(#clip900)" d="M1348.22 1470.7 L1360.69 1470.7 L1360.69 1474.49 L1348.22 1474.49 L1348.22 1470.7 Z" fill="#000000" fill-rule="nonzero" fill-opacity="1" /><path clip-path="url(#clip900)" d="M1378.08 1454.1 Q1374.47 1454.1 1372.64 1457.66 Q1370.83 1461.2 1370.83 1468.33 Q1370.83 1475.44 1372.64 1479.01 Q1374.47 1482.55 1378.08 1482.55 Q1381.71 1482.55 1383.52 1479.01 Q1385.34 1475.44 1385.34 1468.33 Q1385.34 1461.2 1383.52 1457.66 Q1381.71 1454.1 1378.08 1454.1 M1378.08 1450.39 Q1383.89 1450.39 1386.94 1455 Q1390.02 1459.58 1390.02 1468.33 Q1390.02 1477.06 1386.94 1481.67 Q1383.89 1486.25 1378.08 1486.25 Q1372.27 1486.25 1369.19 1481.67 Q1366.13 1477.06 1366.13 1468.33 Q1366.13 1459.58 1369.19 1455 Q1372.27 1450.39 1378.08 1450.39 Z" fill="#000000" fill-rule="nonzero" fill-opacity="1" /><path clip-path="url(#clip900)" d="M1399.05 1481.64 L1406.69 1481.64 L1406.69 1455.28 L1398.38 1456.95 L1398.38 1452.69 L1406.64 1451.02 L1411.32 1451.02 L1411.32 1481.64 L1418.96 1481.64 L1418.96 1485.58 L1399.05 1485.58 L1399.05 1481.64 Z" fill="#000000" fill-rule="nonzero" fill-opacity="1" /><path clip-path="url(#clip900)" d="M1661.49 1481.64 L1677.81 1481.64 L1677.81 1485.58 L1655.86 1485.58 L1655.86 1481.64 Q1658.53 1478.89 1663.11 1474.26 Q1667.72 1469.61 1668.9 1468.27 Q1671.14 1465.74 1672.02 1464.01 Q1672.92 1462.25 1672.92 1460.56 Q1672.92 1457.8 1670.98 1456.07 Q1669.06 1454.33 1665.96 1454.33 Q1663.76 1454.33 1661.3 1455.09 Q1658.87 1455.86 1656.09 1457.41 L1656.09 1452.69 Q1658.92 1451.55 1661.37 1450.97 Q1663.83 1450.39 1665.86 1450.39 Q1671.23 1450.39 1674.43 1453.08 Q1677.62 1455.77 1677.62 1460.26 Q1677.62 1462.39 1676.81 1464.31 Q1676.03 1466.2 1673.92 1468.8 Q1673.34 1469.47 1670.24 1472.69 Q1667.14 1475.88 1661.49 1481.64 Z" fill="#000000" fill-rule="nonzero" fill-opacity="1" /><path clip-path="url(#clip900)" d="M1697.62 1454.1 Q1694.01 1454.1 1692.18 1457.66 Q1690.38 1461.2 1690.38 1468.33 Q1690.38 1475.44 1692.18 1479.01 Q1694.01 1482.55 1697.62 1482.55 Q1701.26 1482.55 1703.06 1479.01 Q1704.89 1475.44 1704.89 1468.33 Q1704.89 1461.2 1703.06 1457.66 Q1701.26 1454.1 1697.62 1454.1 M1697.62 1450.39 Q1703.43 1450.39 1706.49 1455 Q1709.57 1459.58 1709.57 1468.33 Q1709.57 1477.06 1706.49 1481.67 Q1703.43 1486.25 1697.62 1486.25 Q1691.81 1486.25 1688.73 1481.67 Q1685.68 1477.06 1685.68 1468.33 Q1685.68 1459.58 1688.73 1455 Q1691.81 1450.39 1697.62 1450.39 Z" fill="#000000" fill-rule="nonzero" fill-opacity="1" /><path clip-path="url(#clip900)" d="M1721.81 1481.64 L1738.13 1481.64 L1738.13 1485.58 L1716.19 1485.58 L1716.19 1481.64 Q1718.85 1478.89 1723.43 1474.26 Q1728.04 1469.61 1729.22 1468.27 Q1731.46 1465.74 1732.34 1464.01 Q1733.25 1462.25 1733.25 1460.56 Q1733.25 1457.8 1731.3 1456.07 Q1729.38 1454.33 1726.28 1454.33 Q1724.08 1454.33 1721.63 1455.09 Q1719.2 1455.86 1716.42 1457.41 L1716.42 1452.69 Q1719.24 1451.55 1721.7 1450.97 Q1724.15 1450.39 1726.19 1450.39 Q1731.56 1450.39 1734.75 1453.08 Q1737.95 1455.77 1737.95 1460.26 Q1737.95 1462.39 1737.14 1464.31 Q1736.35 1466.2 1734.24 1468.8 Q1733.66 1469.47 1730.56 1472.69 Q1727.46 1475.88 1721.81 1481.64 Z" fill="#000000" fill-rule="nonzero" fill-opacity="1" /><path clip-path="url(#clip900)" d="M1751.97 1481.64 L1768.29 1481.64 L1768.29 1485.58 L1746.35 1485.58 L1746.35 1481.64 Q1749.01 1478.89 1753.59 1474.26 Q1758.2 1469.61 1759.38 1468.27 Q1761.63 1465.74 1762.51 1464.01 Q1763.41 1462.25 1763.41 1460.56 Q1763.41 1457.8 1761.46 1456.07 Q1759.54 1454.33 1756.44 1454.33 Q1754.24 1454.33 1751.79 1455.09 Q1749.36 1455.86 1746.58 1457.41 L1746.58 1452.69 Q1749.4 1451.55 1751.86 1450.97 Q1754.31 1450.39 1756.35 1450.39 Q1761.72 1450.39 1764.91 1453.08 Q1768.11 1455.77 1768.11 1460.26 Q1768.11 1462.39 1767.3 1464.31 Q1766.51 1466.2 1764.4 1468.8 Q1763.83 1469.47 1760.72 1472.69 Q1757.62 1475.88 1751.97 1481.64 Z" fill="#000000" fill-rule="nonzero" fill-opacity="1" /><path clip-path="url(#clip900)" d="M1775.35 1470.7 L1787.83 1470.7 L1787.83 1474.49 L1775.35 1474.49 L1775.35 1470.7 Z" fill="#000000" fill-rule="nonzero" fill-opacity="1" /><path clip-path="url(#clip900)" d="M1805.21 1454.1 Q1801.6 1454.1 1799.77 1457.66 Q1797.97 1461.2 1797.97 1468.33 Q1797.97 1475.44 1799.77 1479.01 Q1801.6 1482.55 1805.21 1482.55 Q1808.85 1482.55 1810.65 1479.01 Q1812.48 1475.44 1812.48 1468.33 Q1812.48 1461.2 1810.65 1457.66 Q1808.85 1454.1 1805.21 1454.1 M1805.21 1450.39 Q1811.02 1450.39 1814.08 1455 Q1817.16 1459.58 1817.16 1468.33 Q1817.16 1477.06 1814.08 1481.67 Q1811.02 1486.25 1805.21 1486.25 Q1799.4 1486.25 1796.33 1481.67 Q1793.27 1477.06 1793.27 1468.33 Q1793.27 1459.58 1796.33 1455 Q1799.4 1450.39 1805.21 1450.39 Z" fill="#000000" fill-rule="nonzero" fill-opacity="1" /><path clip-path="url(#clip900)" d="M1826.19 1481.64 L1833.83 1481.64 L1833.83 1455.28 L1825.52 1456.95 L1825.52 1452.69 L1833.78 1451.02 L1838.45 1451.02 L1838.45 1481.64 L1846.09 1481.64 L1846.09 1485.58 L1826.19 1485.58 L1826.19 1481.64 Z" fill="#000000" fill-rule="nonzero" fill-opacity="1" /><path clip-path="url(#clip900)" d="M1852.78 1470.7 L1865.26 1470.7 L1865.26 1474.49 L1852.78 1474.49 L1852.78 1470.7 Z" fill="#000000" fill-rule="nonzero" fill-opacity="1" /><path clip-path="url(#clip900)" d="M1882.64 1454.1 Q1879.03 1454.1 1877.2 1457.66 Q1875.4 1461.2 1875.4 1468.33 Q1875.4 1475.44 1877.2 1479.01 Q1879.03 1482.55 1882.64 1482.55 Q1886.28 1482.55 1888.08 1479.01 Q1889.91 1475.44 1889.91 1468.33 Q1889.91 1461.2 1888.08 1457.66 Q1886.28 1454.1 1882.64 1454.1 M1882.64 1450.39 Q1888.45 1450.39 1891.51 1455 Q1894.59 1459.58 1894.59 1468.33 Q1894.59 1477.06 1891.51 1481.67 Q1888.45 1486.25 1882.64 1486.25 Q1876.83 1486.25 1873.76 1481.67 Q1870.7 1477.06 1870.7 1468.33 Q1870.7 1459.58 1873.76 1455 Q1876.83 1450.39 1882.64 1450.39 Z" fill="#000000" fill-rule="nonzero" fill-opacity="1" /><path clip-path="url(#clip900)" d="M1903.62 1481.64 L1911.26 1481.64 L1911.26 1455.28 L1902.95 1456.95 L1902.95 1452.69 L1911.21 1451.02 L1915.89 1451.02 L1915.89 1481.64 L1923.52 1481.64 L1923.52 1485.58 L1903.62 1485.58 L1903.62 1481.64 Z" fill="#000000" fill-rule="nonzero" fill-opacity="1" /><path clip-path="url(#clip900)" d="M2166.06 1481.64 L2182.38 1481.64 L2182.38 1485.58 L2160.43 1485.58 L2160.43 1481.64 Q2163.09 1478.89 2167.68 1474.26 Q2172.28 1469.61 2173.46 1468.27 Q2175.71 1465.74 2176.59 1464.01 Q2177.49 1462.25 2177.49 1460.56 Q2177.49 1457.8 2175.55 1456.07 Q2173.63 1454.33 2170.52 1454.33 Q2168.32 1454.33 2165.87 1455.09 Q2163.44 1455.86 2160.66 1457.41 L2160.66 1452.69 Q2163.49 1451.55 2165.94 1450.97 Q2168.39 1450.39 2170.43 1450.39 Q2175.8 1450.39 2179 1453.08 Q2182.19 1455.77 2182.19 1460.26 Q2182.19 1462.39 2181.38 1464.31 Q2180.59 1466.2 2178.49 1468.8 Q2177.91 1469.47 2174.81 1472.69 Q2171.7 1475.88 2166.06 1481.64 Z" fill="#000000" fill-rule="nonzero" fill-opacity="1" /><path clip-path="url(#clip900)" d="M2202.19 1454.1 Q2198.58 1454.1 2196.75 1457.66 Q2194.95 1461.2 2194.95 1468.33 Q2194.95 1475.44 2196.75 1479.01 Q2198.58 1482.55 2202.19 1482.55 Q2205.82 1482.55 2207.63 1479.01 Q2209.46 1475.44 2209.46 1468.33 Q2209.46 1461.2 2207.63 1457.66 Q2205.82 1454.1 2202.19 1454.1 M2202.19 1450.39 Q2208 1450.39 2211.06 1455 Q2214.13 1459.58 2214.13 1468.33 Q2214.13 1477.06 2211.06 1481.67 Q2208 1486.25 2202.19 1486.25 Q2196.38 1486.25 2193.3 1481.67 Q2190.25 1477.06 2190.25 1468.33 Q2190.25 1459.58 2193.3 1455 Q2196.38 1450.39 2202.19 1450.39 Z" fill="#000000" fill-rule="nonzero" fill-opacity="1" /><path clip-path="url(#clip900)" d="M2226.38 1481.64 L2242.7 1481.64 L2242.7 1485.58 L2220.76 1485.58 L2220.76 1481.64 Q2223.42 1478.89 2228 1474.26 Q2232.61 1469.61 2233.79 1468.27 Q2236.03 1465.74 2236.91 1464.01 Q2237.82 1462.25 2237.82 1460.56 Q2237.82 1457.8 2235.87 1456.07 Q2233.95 1454.33 2230.85 1454.33 Q2228.65 1454.33 2226.19 1455.09 Q2223.76 1455.86 2220.99 1457.41 L2220.99 1452.69 Q2223.81 1451.55 2226.26 1450.97 Q2228.72 1450.39 2230.76 1450.39 Q2236.13 1450.39 2239.32 1453.08 Q2242.51 1455.77 2242.51 1460.26 Q2242.51 1462.39 2241.7 1464.31 Q2240.92 1466.2 2238.81 1468.8 Q2238.23 1469.47 2235.13 1472.69 Q2232.03 1475.88 2226.38 1481.64 Z" fill="#000000" fill-rule="nonzero" fill-opacity="1" /><path clip-path="url(#clip900)" d="M2266.68 1466.95 Q2270.04 1467.66 2271.91 1469.93 Q2273.81 1472.2 2273.81 1475.53 Q2273.81 1480.65 2270.29 1483.45 Q2266.77 1486.25 2260.29 1486.25 Q2258.12 1486.25 2255.8 1485.81 Q2253.51 1485.39 2251.06 1484.54 L2251.06 1480.02 Q2253 1481.16 2255.32 1481.74 Q2257.63 1482.32 2260.15 1482.32 Q2264.55 1482.32 2266.84 1480.58 Q2269.16 1478.84 2269.16 1475.53 Q2269.16 1472.48 2267 1470.77 Q2264.88 1469.03 2261.06 1469.03 L2257.03 1469.03 L2257.03 1465.19 L2261.24 1465.19 Q2264.69 1465.19 2266.52 1463.82 Q2268.35 1462.43 2268.35 1459.84 Q2268.35 1457.18 2266.45 1455.77 Q2264.57 1454.33 2261.06 1454.33 Q2259.13 1454.33 2256.94 1454.75 Q2254.74 1455.16 2252.1 1456.04 L2252.1 1451.88 Q2254.76 1451.14 2257.07 1450.77 Q2259.41 1450.39 2261.47 1450.39 Q2266.8 1450.39 2269.9 1452.83 Q2273 1455.23 2273 1459.35 Q2273 1462.22 2271.36 1464.21 Q2269.71 1466.18 2266.68 1466.95 Z" fill="#000000" fill-rule="nonzero" fill-opacity="1" /><path clip-path="url(#clip900)" d="M2279.92 1470.7 L2292.4 1470.7 L2292.4 1474.49 L2279.92 1474.49 L2279.92 1470.7 Z" fill="#000000" fill-rule="nonzero" fill-opacity="1" /><path clip-path="url(#clip900)" d="M2309.78 1454.1 Q2306.17 1454.1 2304.34 1457.66 Q2302.54 1461.2 2302.54 1468.33 Q2302.54 1475.44 2304.34 1479.01 Q2306.17 1482.55 2309.78 1482.55 Q2313.42 1482.55 2315.22 1479.01 Q2317.05 1475.44 2317.05 1468.33 Q2317.05 1461.2 2315.22 1457.66 Q2313.42 1454.1 2309.78 1454.1 M2309.78 1450.39 Q2315.59 1450.39 2318.65 1455 Q2321.73 1459.58 2321.73 1468.33 Q2321.73 1477.06 2318.65 1481.67 Q2315.59 1486.25 2309.78 1486.25 Q2303.97 1486.25 2300.89 1481.67 Q2297.84 1477.06 2297.84 1468.33 Q2297.84 1459.58 2300.89 1455 Q2303.97 1450.39 2309.78 1450.39 Z" fill="#000000" fill-rule="nonzero" fill-opacity="1" /><path clip-path="url(#clip900)" d="M2330.75 1481.64 L2338.39 1481.64 L2338.39 1455.28 L2330.08 1456.95 L2330.08 1452.69 L2338.35 1451.02 L2343.02 1451.02 L2343.02 1481.64 L2350.66 1481.64 L2350.66 1485.58 L2330.75 1485.58 L2330.75 1481.64 Z" fill="#000000" fill-rule="nonzero" fill-opacity="1" /><path clip-path="url(#clip900)" d="M2357.35 1470.7 L2369.83 1470.7 L2369.83 1474.49 L2357.35 1474.49 L2357.35 1470.7 Z" fill="#000000" fill-rule="nonzero" fill-opacity="1" /><path clip-path="url(#clip900)" d="M2387.21 1454.1 Q2383.6 1454.1 2381.77 1457.66 Q2379.97 1461.2 2379.97 1468.33 Q2379.97 1475.44 2381.77 1479.01 Q2383.6 1482.55 2387.21 1482.55 Q2390.85 1482.55 2392.65 1479.01 Q2394.48 1475.44 2394.48 1468.33 Q2394.48 1461.2 2392.65 1457.66 Q2390.85 1454.1 2387.21 1454.1 M2387.21 1450.39 Q2393.02 1450.39 2396.08 1455 Q2399.16 1459.58 2399.16 1468.33 Q2399.16 1477.06 2396.08 1481.67 Q2393.02 1486.25 2387.21 1486.25 Q2381.4 1486.25 2378.32 1481.67 Q2375.27 1477.06 2375.27 1468.33 Q2375.27 1459.58 2378.32 1455 Q2381.4 1450.39 2387.21 1450.39 Z" fill="#000000" fill-rule="nonzero" fill-opacity="1" /><path clip-path="url(#clip900)" d="M2408.18 1481.64 L2415.82 1481.64 L2415.82 1455.28 L2407.51 1456.95 L2407.51 1452.69 L2415.78 1451.02 L2420.45 1451.02 L2420.45 1481.64 L2428.09 1481.64 L2428.09 1485.58 L2408.18 1485.58 L2408.18 1481.64 Z" fill="#000000" fill-rule="nonzero" fill-opacity="1" /><path clip-path="url(#clip900)" d="M1218.73 1525.81 L1218.73 1562.76 L1226.5 1562.76 Q1236.33 1562.76 1240.88 1558.3 Q1245.47 1553.85 1245.47 1544.24 Q1245.47 1534.69 1240.88 1530.26 Q1236.33 1525.81 1226.5 1525.81 L1218.73 1525.81 M1212.3 1520.52 L1225.51 1520.52 Q1239.32 1520.52 1245.79 1526.28 Q1252.25 1532.01 1252.25 1544.24 Q1252.25 1556.52 1245.75 1562.28 Q1239.26 1568.04 1225.51 1568.04 L1212.3 1568.04 L1212.3 1520.52 Z" fill="#000000" fill-rule="nonzero" fill-opacity="1" /><path clip-path="url(#clip900)" d="M1278.44 1550.12 Q1271.34 1550.12 1268.61 1551.75 Q1265.87 1553.37 1265.87 1557.29 Q1265.87 1560.4 1267.91 1562.25 Q1269.98 1564.07 1273.51 1564.07 Q1278.38 1564.07 1281.31 1560.63 Q1284.27 1557.16 1284.27 1551.43 L1284.27 1550.12 L1278.44 1550.12 M1290.12 1547.71 L1290.12 1568.04 L1284.27 1568.04 L1284.27 1562.63 Q1282.26 1565.88 1279.27 1567.44 Q1276.28 1568.97 1271.95 1568.97 Q1266.47 1568.97 1263.23 1565.91 Q1260.01 1562.82 1260.01 1557.67 Q1260.01 1551.65 1264.02 1548.6 Q1268.07 1545.54 1276.06 1545.54 L1284.27 1545.54 L1284.27 1544.97 Q1284.27 1540.93 1281.59 1538.73 Q1278.95 1536.5 1274.15 1536.5 Q1271.09 1536.5 1268.19 1537.23 Q1265.3 1537.97 1262.62 1539.43 L1262.62 1534.02 Q1265.84 1532.78 1268.86 1532.17 Q1271.89 1531.54 1274.75 1531.54 Q1282.48 1531.54 1286.3 1535.55 Q1290.12 1539.56 1290.12 1547.71 Z" fill="#000000" fill-rule="nonzero" fill-opacity="1" /><path clip-path="url(#clip900)" d="M1307.98 1522.27 L1307.98 1532.4 L1320.04 1532.4 L1320.04 1536.95 L1307.98 1536.95 L1307.98 1556.3 Q1307.98 1560.66 1309.16 1561.9 Q1310.37 1563.14 1314.03 1563.14 L1320.04 1563.14 L1320.04 1568.04 L1314.03 1568.04 Q1307.25 1568.04 1304.67 1565.53 Q1302.09 1562.98 1302.09 1556.3 L1302.09 1536.95 L1297.79 1536.95 L1297.79 1532.4 L1302.09 1532.4 L1302.09 1522.27 L1307.98 1522.27 Z" fill="#000000" fill-rule="nonzero" fill-opacity="1" /><path clip-path="url(#clip900)" d="M1358.24 1548.76 L1358.24 1551.62 L1331.31 1551.62 Q1331.69 1557.67 1334.94 1560.85 Q1338.22 1564 1344.04 1564 Q1347.41 1564 1350.57 1563.17 Q1353.75 1562.35 1356.87 1560.69 L1356.87 1566.23 Q1353.72 1567.57 1350.41 1568.27 Q1347.1 1568.97 1343.69 1568.97 Q1335.16 1568.97 1330.16 1564 Q1325.2 1559.04 1325.2 1550.57 Q1325.2 1541.82 1329.91 1536.69 Q1334.65 1531.54 1342.67 1531.54 Q1349.87 1531.54 1354.03 1536.18 Q1358.24 1540.8 1358.24 1548.76 M1352.38 1547.04 Q1352.32 1542.23 1349.67 1539.37 Q1347.06 1536.5 1342.74 1536.5 Q1337.83 1536.5 1334.87 1539.27 Q1331.95 1542.04 1331.5 1547.07 L1352.38 1547.04 Z" fill="#000000" fill-rule="nonzero" fill-opacity="1" /><polyline clip-path="url(#clip900)" style="stroke:#000000; stroke-linecap:round; stroke-linejoin:round; stroke-width:4; stroke-opacity:1; fill:none" points="217.783,1423.18 217.783,47.2441 "/>
<polyline clip-path="url(#clip900)" style="stroke:#000000; stroke-linecap:round; stroke-linejoin:round; stroke-width:4; stroke-opacity:1; fill:none" points="217.783,1378.8 236.681,1378.8 "/>
<polyline clip-path="url(#clip900)" style="stroke:#000000; stroke-linecap:round; stroke-linejoin:round; stroke-width:4; stroke-opacity:1; fill:none" points="217.783,1110.06 236.681,1110.06 "/>
<polyline clip-path="url(#clip900)" style="stroke:#000000; stroke-linecap:round; stroke-linejoin:round; stroke-width:4; stroke-opacity:1; fill:none" points="217.783,841.329 236.681,841.329 "/>
<polyline clip-path="url(#clip900)" style="stroke:#000000; stroke-linecap:round; stroke-linejoin:round; stroke-width:4; stroke-opacity:1; fill:none" points="217.783,572.595 236.681,572.595 "/>
<polyline clip-path="url(#clip900)" style="stroke:#000000; stroke-linecap:round; stroke-linejoin:round; stroke-width:4; stroke-opacity:1; fill:none" points="217.783,303.862 236.681,303.862 "/>
<path clip-path="url(#clip900)" d="M115.418 1392.14 L123.056 1392.14 L123.056 1365.78 L114.746 1367.44 L114.746 1363.18 L123.01 1361.52 L127.686 1361.52 L127.686 1392.14 L135.325 1392.14 L135.325 1396.08 L115.418 1396.08 L115.418 1392.14 Z" fill="#000000" fill-rule="nonzero" fill-opacity="1" /><path clip-path="url(#clip900)" d="M144.769 1390.2 L149.653 1390.2 L149.653 1396.08 L144.769 1396.08 L144.769 1390.2 Z" fill="#000000" fill-rule="nonzero" fill-opacity="1" /><path clip-path="url(#clip900)" d="M169.839 1364.6 Q166.227 1364.6 164.399 1368.16 Q162.593 1371.7 162.593 1378.83 Q162.593 1385.94 164.399 1389.5 Q166.227 1393.04 169.839 1393.04 Q173.473 1393.04 175.278 1389.5 Q177.107 1385.94 177.107 1378.83 Q177.107 1371.7 175.278 1368.16 Q173.473 1364.6 169.839 1364.6 M169.839 1360.89 Q175.649 1360.89 178.704 1365.5 Q181.783 1370.08 181.783 1378.83 Q181.783 1387.56 178.704 1392.16 Q175.649 1396.75 169.839 1396.75 Q164.028 1396.75 160.95 1392.16 Q157.894 1387.56 157.894 1378.83 Q157.894 1370.08 160.95 1365.5 Q164.028 1360.89 169.839 1360.89 Z" fill="#000000" fill-rule="nonzero" fill-opacity="1" /><path clip-path="url(#clip900)" d="M117.015 1123.41 L124.654 1123.41 L124.654 1097.04 L116.343 1098.71 L116.343 1094.45 L124.607 1092.78 L129.283 1092.78 L129.283 1123.41 L136.922 1123.41 L136.922 1127.34 L117.015 1127.34 L117.015 1123.41 Z" fill="#000000" fill-rule="nonzero" fill-opacity="1" /><path clip-path="url(#clip900)" d="M146.366 1121.46 L151.251 1121.46 L151.251 1127.34 L146.366 1127.34 L146.366 1121.46 Z" fill="#000000" fill-rule="nonzero" fill-opacity="1" /><path clip-path="url(#clip900)" d="M165.464 1123.41 L181.783 1123.41 L181.783 1127.34 L159.839 1127.34 L159.839 1123.41 Q162.501 1120.65 167.084 1116.02 Q171.69 1111.37 172.871 1110.03 Q175.116 1107.5 175.996 1105.77 Q176.899 1104.01 176.899 1102.32 Q176.899 1099.57 174.954 1097.83 Q173.033 1096.09 169.931 1096.09 Q167.732 1096.09 165.278 1096.86 Q162.848 1097.62 160.07 1099.17 L160.07 1094.45 Q162.894 1093.32 165.348 1092.74 Q167.802 1092.16 169.839 1092.16 Q175.209 1092.16 178.403 1094.84 Q181.598 1097.53 181.598 1102.02 Q181.598 1104.15 180.788 1106.07 Q180.001 1107.97 177.894 1110.56 Q177.315 1111.23 174.214 1114.45 Q171.112 1117.64 165.464 1123.41 Z" fill="#000000" fill-rule="nonzero" fill-opacity="1" /><path clip-path="url(#clip900)" d="M114.931 854.674 L122.57 854.674 L122.57 828.308 L114.26 829.975 L114.26 825.716 L122.524 824.049 L127.2 824.049 L127.2 854.674 L134.839 854.674 L134.839 858.609 L114.931 858.609 L114.931 854.674 Z" fill="#000000" fill-rule="nonzero" fill-opacity="1" /><path clip-path="url(#clip900)" d="M144.283 852.729 L149.167 852.729 L149.167 858.609 L144.283 858.609 L144.283 852.729 Z" fill="#000000" fill-rule="nonzero" fill-opacity="1" /><path clip-path="url(#clip900)" d="M172.2 828.123 L160.394 846.572 L172.2 846.572 L172.2 828.123 M170.973 824.049 L176.852 824.049 L176.852 846.572 L181.783 846.572 L181.783 850.461 L176.852 850.461 L176.852 858.609 L172.2 858.609 L172.2 850.461 L156.598 850.461 L156.598 845.947 L170.973 824.049 Z" fill="#000000" fill-rule="nonzero" fill-opacity="1" /><path clip-path="url(#clip900)" d="M115.256 585.94 L122.894 585.94 L122.894 559.575 L114.584 561.241 L114.584 556.982 L122.848 555.315 L127.524 555.315 L127.524 585.94 L135.163 585.94 L135.163 589.875 L115.256 589.875 L115.256 585.94 Z" fill="#000000" fill-rule="nonzero" fill-opacity="1" /><path clip-path="url(#clip900)" d="M144.607 583.996 L149.491 583.996 L149.491 589.875 L144.607 589.875 L144.607 583.996 Z" fill="#000000" fill-rule="nonzero" fill-opacity="1" /><path clip-path="url(#clip900)" d="M170.255 570.732 Q167.107 570.732 165.255 572.885 Q163.427 575.037 163.427 578.787 Q163.427 582.514 165.255 584.69 Q167.107 586.843 170.255 586.843 Q173.403 586.843 175.232 584.69 Q177.084 582.514 177.084 578.787 Q177.084 575.037 175.232 572.885 Q173.403 570.732 170.255 570.732 M179.538 556.079 L179.538 560.338 Q177.778 559.505 175.973 559.065 Q174.19 558.626 172.431 558.626 Q167.802 558.626 165.348 561.751 Q162.917 564.876 162.57 571.195 Q163.936 569.181 165.996 568.116 Q168.056 567.028 170.533 567.028 Q175.741 567.028 178.751 570.2 Q181.783 573.348 181.783 578.787 Q181.783 584.112 178.635 587.329 Q175.487 590.547 170.255 590.547 Q164.26 590.547 161.089 585.963 Q157.917 581.357 157.917 572.63 Q157.917 564.436 161.806 559.575 Q165.695 554.69 172.246 554.69 Q174.005 554.69 175.788 555.038 Q177.593 555.385 179.538 556.079 Z" fill="#000000" fill-rule="nonzero" fill-opacity="1" /><path clip-path="url(#clip900)" d="M115.51 317.207 L123.149 317.207 L123.149 290.841 L114.839 292.508 L114.839 288.248 L123.103 286.582 L127.779 286.582 L127.779 317.207 L135.417 317.207 L135.417 321.142 L115.51 321.142 L115.51 317.207 Z" fill="#000000" fill-rule="nonzero" fill-opacity="1" /><path clip-path="url(#clip900)" d="M144.862 315.262 L149.746 315.262 L149.746 321.142 L144.862 321.142 L144.862 315.262 Z" fill="#000000" fill-rule="nonzero" fill-opacity="1" /><path clip-path="url(#clip900)" d="M169.931 304.73 Q166.598 304.73 164.677 306.512 Q162.778 308.295 162.778 311.42 Q162.778 314.545 164.677 316.327 Q166.598 318.109 169.931 318.109 Q173.264 318.109 175.186 316.327 Q177.107 314.521 177.107 311.42 Q177.107 308.295 175.186 306.512 Q173.288 304.73 169.931 304.73 M165.255 302.739 Q162.246 301.998 160.556 299.938 Q158.89 297.878 158.89 294.915 Q158.89 290.772 161.829 288.364 Q164.792 285.957 169.931 285.957 Q175.093 285.957 178.033 288.364 Q180.973 290.772 180.973 294.915 Q180.973 297.878 179.283 299.938 Q177.616 301.998 174.63 302.739 Q178.01 303.526 179.885 305.818 Q181.783 308.109 181.783 311.42 Q181.783 316.443 178.704 319.128 Q175.649 321.813 169.931 321.813 Q164.214 321.813 161.135 319.128 Q158.079 316.443 158.079 311.42 Q158.079 308.109 159.978 305.818 Q161.876 303.526 165.255 302.739 M163.542 295.355 Q163.542 298.04 165.209 299.545 Q166.899 301.049 169.931 301.049 Q172.94 301.049 174.63 299.545 Q176.343 298.04 176.343 295.355 Q176.343 292.67 174.63 291.165 Q172.94 289.66 169.931 289.66 Q166.899 289.66 165.209 291.165 Q163.542 292.67 163.542 295.355 Z" fill="#000000" fill-rule="nonzero" fill-opacity="1" /><path clip-path="url(#clip900)" d="M20.1444 1028.58 L26.9239 1028.58 Q23.9002 1031.82 22.4043 1035.51 Q20.9083 1039.17 20.9083 1043.31 Q20.9083 1051.46 25.9054 1055.79 Q30.8707 1060.12 40.2919 1060.12 Q49.6813 1060.12 54.6784 1055.79 Q59.6436 1051.46 59.6436 1043.31 Q59.6436 1039.17 58.1477 1035.51 Q56.6518 1031.82 53.6281 1028.58 L60.3439 1028.58 Q62.6355 1031.95 63.7814 1035.74 Q64.9272 1039.49 64.9272 1043.69 Q64.9272 1054.48 58.3387 1060.69 Q51.7183 1066.9 40.2919 1066.9 Q28.8336 1066.9 22.2451 1060.69 Q15.6248 1054.48 15.6248 1043.69 Q15.6248 1039.43 16.7706 1035.67 Q17.8846 1031.89 20.1444 1028.58 Z" fill="#000000" fill-rule="nonzero" fill-opacity="1" /><path clip-path="url(#clip900)" d="M49.9359 1019.5 L28.3562 1019.5 L28.3562 1013.65 L49.7131 1013.65 Q54.7739 1013.65 57.3202 1011.67 Q59.8346 1009.7 59.8346 1005.75 Q59.8346 1001.01 56.8109 998.275 Q53.7872 995.506 48.5673 995.506 L28.3562 995.506 L28.3562 989.649 L64.0042 989.649 L64.0042 995.506 L58.5296 995.506 Q61.7762 997.638 63.3676 1000.47 Q64.9272 1003.27 64.9272 1007 Q64.9272 1013.14 61.1078 1016.32 Q57.2883 1019.5 49.9359 1019.5 M27.4968 1004.77 L27.4968 1004.77 Z" fill="#000000" fill-rule="nonzero" fill-opacity="1" /><path clip-path="url(#clip900)" d="M35.1993 949.832 Q31.2526 947.636 29.3747 944.58 Q27.4968 941.525 27.4968 937.387 Q27.4968 931.817 31.4117 928.793 Q35.2948 925.769 42.4881 925.769 L64.0042 925.769 L64.0042 931.658 L42.679 931.658 Q37.5546 931.658 35.072 933.472 Q32.5894 935.286 32.5894 939.01 Q32.5894 943.562 35.6131 946.203 Q38.6368 948.845 43.8567 948.845 L64.0042 948.845 L64.0042 954.733 L42.679 954.733 Q37.5228 954.733 35.072 956.548 Q32.5894 958.362 32.5894 962.149 Q32.5894 966.637 35.6449 969.279 Q38.6686 971.921 43.8567 971.921 L64.0042 971.921 L64.0042 977.809 L28.3562 977.809 L28.3562 971.921 L33.8944 971.921 Q30.616 969.916 29.0564 967.115 Q27.4968 964.314 27.4968 960.462 Q27.4968 956.579 29.4702 953.874 Q31.4436 951.137 35.1993 949.832 Z" fill="#000000" fill-rule="nonzero" fill-opacity="1" /><path clip-path="url(#clip900)" d="M35.1993 886.334 Q31.2526 884.138 29.3747 881.082 Q27.4968 878.027 27.4968 873.889 Q27.4968 868.319 31.4117 865.295 Q35.2948 862.271 42.4881 862.271 L64.0042 862.271 L64.0042 868.16 L42.679 868.16 Q37.5546 868.16 35.072 869.974 Q32.5894 871.788 32.5894 875.512 Q32.5894 880.064 35.6131 882.705 Q38.6368 885.347 43.8567 885.347 L64.0042 885.347 L64.0042 891.235 L42.679 891.235 Q37.5228 891.235 35.072 893.05 Q32.5894 894.864 32.5894 898.651 Q32.5894 903.139 35.6449 905.781 Q38.6686 908.423 43.8567 908.423 L64.0042 908.423 L64.0042 914.311 L28.3562 914.311 L28.3562 908.423 L33.8944 908.423 Q30.616 906.418 29.0564 903.617 Q27.4968 900.816 27.4968 896.965 Q27.4968 893.081 29.4702 890.376 Q31.4436 887.639 35.1993 886.334 Z" fill="#000000" fill-rule="nonzero" fill-opacity="1" /><path clip-path="url(#clip900)" d="M49.9359 851.195 L28.3562 851.195 L28.3562 845.339 L49.7131 845.339 Q54.7739 845.339 57.3202 843.365 Q59.8346 841.392 59.8346 837.445 Q59.8346 832.703 56.8109 829.966 Q53.7872 827.196 48.5673 827.196 L28.3562 827.196 L28.3562 821.34 L64.0042 821.34 L64.0042 827.196 L58.5296 827.196 Q61.7762 829.329 63.3676 832.162 Q64.9272 834.963 64.9272 838.687 Q64.9272 844.829 61.1078 848.012 Q57.2883 851.195 49.9359 851.195 M27.4968 836.459 L27.4968 836.459 Z" fill="#000000" fill-rule="nonzero" fill-opacity="1" /><path clip-path="url(#clip900)" d="M14.479 809.277 L14.479 803.421 L64.0042 803.421 L64.0042 809.277 L14.479 809.277 Z" fill="#000000" fill-rule="nonzero" fill-opacity="1" /><path clip-path="url(#clip900)" d="M46.0847 774.966 Q46.0847 782.064 47.7079 784.801 Q49.3312 787.538 53.2461 787.538 Q56.3653 787.538 58.2114 785.501 Q60.0256 783.432 60.0256 779.899 Q60.0256 775.029 56.5881 772.101 Q53.1188 769.141 47.3897 769.141 L46.0847 769.141 L46.0847 774.966 M43.6657 763.285 L64.0042 763.285 L64.0042 769.141 L58.5933 769.141 Q61.8398 771.146 63.3994 774.138 Q64.9272 777.13 64.9272 781.459 Q64.9272 786.933 61.8716 790.18 Q58.7843 793.395 53.6281 793.395 Q47.6125 793.395 44.5569 789.384 Q41.5014 785.342 41.5014 777.353 L41.5014 769.141 L40.9285 769.141 Q36.8862 769.141 34.6901 771.815 Q32.4621 774.457 32.4621 779.263 Q32.4621 782.318 33.1941 785.215 Q33.9262 788.111 35.3903 790.785 L29.9795 790.785 Q28.7381 787.57 28.1334 784.546 Q27.4968 781.522 27.4968 778.658 Q27.4968 770.924 31.5072 767.104 Q35.5176 763.285 43.6657 763.285 Z" fill="#000000" fill-rule="nonzero" fill-opacity="1" /><path clip-path="url(#clip900)" d="M18.2347 745.429 L28.3562 745.429 L28.3562 733.366 L32.9077 733.366 L32.9077 745.429 L52.2594 745.429 Q56.6199 745.429 57.8613 744.251 Q59.1026 743.042 59.1026 739.382 L59.1026 733.366 L64.0042 733.366 L64.0042 739.382 Q64.0042 746.161 61.4897 748.739 Q58.9434 751.317 52.2594 751.317 L32.9077 751.317 L32.9077 755.614 L28.3562 755.614 L28.3562 751.317 L18.2347 751.317 L18.2347 745.429 Z" fill="#000000" fill-rule="nonzero" fill-opacity="1" /><path clip-path="url(#clip900)" d="M28.3562 725.663 L28.3562 719.807 L64.0042 719.807 L64.0042 725.663 L28.3562 725.663 M14.479 725.663 L14.479 719.807 L21.895 719.807 L21.895 725.663 L14.479 725.663 Z" fill="#000000" fill-rule="nonzero" fill-opacity="1" /><path clip-path="url(#clip900)" d="M28.3562 711.754 L28.3562 705.548 L58.275 694.408 L28.3562 683.268 L28.3562 677.061 L64.0042 690.429 L64.0042 698.386 L28.3562 711.754 Z" fill="#000000" fill-rule="nonzero" fill-opacity="1" /><path clip-path="url(#clip900)" d="M44.7161 638.485 L47.5806 638.485 L47.5806 665.412 Q53.6281 665.03 56.8109 661.784 Q59.9619 658.505 59.9619 652.681 Q59.9619 649.307 59.1344 646.156 Q58.3069 642.973 56.6518 639.854 L62.1899 639.854 Q63.5267 643.005 64.227 646.315 Q64.9272 649.625 64.9272 653.031 Q64.9272 661.561 59.9619 666.558 Q54.9967 671.523 46.5303 671.523 Q37.7774 671.523 32.6531 666.812 Q27.4968 662.07 27.4968 654.049 Q27.4968 646.856 32.1438 642.686 Q36.7589 638.485 44.7161 638.485 M42.9973 644.342 Q38.1912 644.405 35.3266 647.047 Q32.4621 649.657 32.4621 653.986 Q32.4621 658.887 35.2312 661.847 Q38.0002 664.775 43.0292 665.221 L42.9973 644.342 Z" fill="#000000" fill-rule="nonzero" fill-opacity="1" /><path clip-path="url(#clip900)" d="M41.7242 585.363 Q42.4244 583.294 44.7161 581.353 Q47.0077 579.379 51.0181 577.406 L64.0042 570.881 L64.0042 577.788 L51.8138 583.867 Q47.0395 586.223 45.48 588.451 Q43.9204 590.647 43.9204 594.466 L43.9204 601.468 L64.0042 601.468 L64.0042 607.898 L16.4842 607.898 L16.4842 593.384 Q16.4842 585.236 19.8898 581.226 Q23.2955 577.215 30.1704 577.215 Q34.6582 577.215 37.6183 579.316 Q40.5784 581.385 41.7242 585.363 M21.7677 601.468 L38.6368 601.468 L38.6368 593.384 Q38.6368 588.737 36.5043 586.382 Q34.34 583.995 30.1704 583.995 Q26.0009 583.995 23.9002 586.382 Q21.7677 588.737 21.7677 593.384 L21.7677 601.468 Z" fill="#000000" fill-rule="nonzero" fill-opacity="1" /><path clip-path="url(#clip900)" d="M44.7161 535.297 L47.5806 535.297 L47.5806 562.224 Q53.6281 561.842 56.8109 558.595 Q59.9619 555.317 59.9619 549.492 Q59.9619 546.119 59.1344 542.968 Q58.3069 539.785 56.6518 536.666 L62.1899 536.666 Q63.5267 539.817 64.227 543.127 Q64.9272 546.437 64.9272 549.843 Q64.9272 558.373 59.9619 563.37 Q54.9967 568.335 46.5303 568.335 Q37.7774 568.335 32.6531 563.624 Q27.4968 558.882 27.4968 550.861 Q27.4968 543.668 32.1438 539.498 Q36.7589 535.297 44.7161 535.297 M42.9973 541.153 Q38.1912 541.217 35.3266 543.859 Q32.4621 546.469 32.4621 550.797 Q32.4621 555.699 35.2312 558.659 Q38.0002 561.587 43.0292 562.033 L42.9973 541.153 Z" fill="#000000" fill-rule="nonzero" fill-opacity="1" /><path clip-path="url(#clip900)" d="M18.2347 519.892 L28.3562 519.892 L28.3562 507.829 L32.9077 507.829 L32.9077 519.892 L52.2594 519.892 Q56.6199 519.892 57.8613 518.714 Q59.1026 517.505 59.1026 513.845 L59.1026 507.829 L64.0042 507.829 L64.0042 513.845 Q64.0042 520.624 61.4897 523.202 Q58.9434 525.78 52.2594 525.78 L32.9077 525.78 L32.9077 530.077 L28.3562 530.077 L28.3562 525.78 L18.2347 525.78 L18.2347 519.892 Z" fill="#000000" fill-rule="nonzero" fill-opacity="1" /><path clip-path="url(#clip900)" d="M49.9359 500.731 L28.3562 500.731 L28.3562 494.875 L49.7131 494.875 Q54.7739 494.875 57.3202 492.901 Q59.8346 490.928 59.8346 486.981 Q59.8346 482.239 56.8109 479.502 Q53.7872 476.732 48.5673 476.732 L28.3562 476.732 L28.3562 470.876 L64.0042 470.876 L64.0042 476.732 L58.5296 476.732 Q61.7762 478.865 63.3676 481.698 Q64.9272 484.499 64.9272 488.223 Q64.9272 494.365 61.1078 497.548 Q57.2883 500.731 49.9359 500.731 M27.4968 485.995 L27.4968 485.995 Z" fill="#000000" fill-rule="nonzero" fill-opacity="1" /><path clip-path="url(#clip900)" d="M33.8307 438.156 Q33.2578 439.143 33.0032 440.321 Q32.7167 441.466 32.7167 442.867 Q32.7167 447.832 35.9632 450.506 Q39.1779 453.148 45.2253 453.148 L64.0042 453.148 L64.0042 459.036 L28.3562 459.036 L28.3562 453.148 L33.8944 453.148 Q30.6479 451.301 29.0883 448.341 Q27.4968 445.381 27.4968 441.148 Q27.4968 440.543 27.5923 439.811 Q27.656 439.079 27.8151 438.188 L33.8307 438.156 Z" fill="#000000" fill-rule="nonzero" fill-opacity="1" /><path clip-path="url(#clip900)" d="M42.4881 403.527 L64.0042 403.527 L64.0042 409.383 L42.679 409.383 Q37.6183 409.383 35.1038 411.357 Q32.5894 413.33 32.5894 417.277 Q32.5894 422.019 35.6131 424.756 Q38.6368 427.494 43.8567 427.494 L64.0042 427.494 L64.0042 433.382 L28.3562 433.382 L28.3562 427.494 L33.8944 427.494 Q30.6797 425.393 29.0883 422.56 Q27.4968 419.696 27.4968 415.972 Q27.4968 409.829 31.3163 406.678 Q35.1038 403.527 42.4881 403.527 Z" fill="#000000" fill-rule="nonzero" fill-opacity="1" /><polyline clip-path="url(#clip902)" style="stroke:#009af9; stroke-linecap:round; stroke-linejoin:round; stroke-width:4; stroke-opacity:1; fill:none" points="278.207,1384.24 279.589,1369 283.736,1339.8 285.119,1328.46 286.501,1326.39 287.883,1314.62 289.266,1312.86 293.413,1342.47 294.795,1346.09 296.178,1338.92 297.56,1335.24 298.942,1330.17 304.472,1338.44 305.854,1333.88 307.237,1342.36 308.619,1333.45 312.766,1339.92 314.149,1332.24 315.531,1317.17 316.913,1314.94 318.296,1310.55 322.443,1298.3 323.825,1302.26 325.208,1301.79 326.59,1300.52 327.972,1296.95 332.119,1293.73 333.502,1289.14 334.884,1281.47 336.267,1279.62 337.649,1274.14 343.178,1271.67 344.561,1271.62 345.943,1267.79 347.326,1246.67 351.473,1246.86 352.855,1253.4 354.238,1266.55 355.62,1271.25 357.002,1264.63 361.149,1266.86 362.532,1254.72 363.914,1261.92 365.297,1260.84 366.679,1265.5 370.768,1262.84 372.151,1256.47 373.533,1248.01 374.916,1295.72 376.298,1274.41 380.445,1271.38 381.827,1269.95 383.21,1273.45 384.592,1270.05 385.975,1281.78 390.122,1276.34 391.504,1277.17 392.887,1285.8 394.269,1277.59 395.651,1273.71 399.798,1273.67 401.181,1279.09 402.563,1275 403.946,1262.5 405.328,1248.86 409.475,1246.53 410.857,1249.36 412.24,1244.27 413.622,1240.31 415.005,1237.4 419.152,1232.45 420.534,1235.43 421.916,1229.63 423.299,1227.87 428.828,1216.74 430.211,1213.58 431.593,1216.08 432.975,1213.24 434.358,1215.3 438.505,1214.62 439.887,1205.92 441.27,1214.94 442.652,1213.04 444.035,1194.48 448.182,1206.94 449.564,1215.29 450.946,1214.7 452.329,1213.23 453.711,1218.61 457.858,1248.79 459.241,1248.41 460.623,1240.74 462.005,1226.82 463.388,1223.22 467.535,1227.49 468.917,1212.69 470.3,1216.45 471.682,1238.56 473.064,1236.25 478.594,1259.3 479.976,1275.85 481.359,1217.01 482.741,1225.27 486.888,1211.53 488.271,1194.37 489.653,1195.9 491.035,1180.91 492.418,1166.07 496.565,1155.76 497.947,1154.07 499.33,1144.78 500.712,1139.02 502.094,1143.48 506.242,1142.93 507.624,1132.56 509.006,1123.89 510.389,1121.31 511.771,1128.68 515.918,1136.57 517.301,1143.58 518.683,1144.85 520.065,1139.29 521.448,1147.51 525.595,1133.87 526.977,1121.71 528.36,1109.11 531.124,1096.49 535.272,1109.1 536.654,1101.16 538.036,1090.27 539.419,1085.51 540.801,1070.09 544.948,1071.93 546.331,1054.71 547.713,1061.22 549.095,1071.05 550.478,1079.46 554.625,1097.24 556.007,1096.49 557.39,1082.18 558.772,1091.95 560.154,1065.92 564.301,1081.56 565.684,1099.07 567.066,1098.6 568.449,1103.27 569.831,1083.6 573.978,1109.85 575.36,1090.85 576.743,1089.08 578.125,1062.89 579.508,1068.87 583.655,1078.9 585.037,1074.79 586.42,1085.47 587.802,1083.69 589.184,1062.38 593.331,1039.24 594.714,1049.76 596.096,1039.08 597.479,1038.03 598.861,1059.04 603.008,1039.96 604.39,1050.97 605.773,1033.49 607.155,947.523 608.538,951.894 614.067,942.525 615.449,925.655 616.832,917.139 618.214,902.031 622.361,912.734 623.744,936.776 625.126,933.922 626.508,930.34 627.891,928.019 632.038,953.59 633.42,916.755 634.803,926.934 636.185,923.324 637.568,938.068 641.715,927.888 643.097,933.628 644.479,931.02 645.862,925.176 647.244,921.311 651.391,923.718 652.774,929.179 654.156,937.664 655.538,938.191 656.921,919.033 661.068,919.283 662.45,925.917 663.833,919.922 665.215,921.336 666.597,912.7 670.745,914.505 672.127,909.054 673.509,920.812 674.892,907.75 676.274,903.053 680.421,904.18 681.804,902.735 683.186,917.769 684.568,905.907 685.951,906.271 690.098,905.483 691.48,919.683 692.863,900.808 694.245,900.03 695.627,898.625 699.832,911.187 701.215,898.836 702.597,903.34 703.979,903.444 705.362,908.847 709.509,910.673 710.891,907.154 712.274,901.562 713.656,882.265 715.038,880.313 719.185,882.548 720.568,890.238 721.95,885.758 723.333,884.791 724.715,889.294 728.862,886.081 730.244,893.757 731.627,886.15 734.392,899.182 738.539,920.068 739.921,937.615 741.303,932.21 742.686,932.456 744.068,929.766 748.215,929.646 749.598,921.066 750.98,929.349 752.363,908.773 753.745,910.134 757.892,920.378 759.274,914.115 760.657,912.481 762.039,900.451 763.422,899.268 767.569,891.989 768.951,887.747 771.716,888.654 773.098,881.951 777.245,881.757 778.628,884.599 781.392,883.413 782.775,893.448 786.922,899.364 788.304,914.665 789.687,919.688 791.069,910.753 792.451,909.552 796.599,904.784 797.981,884.849 799.363,886.765 800.746,870.383 802.128,868.998 807.658,871.348 809.04,879.554 810.422,873.168 811.805,887.256 815.952,895.26 817.334,886.151 818.717,890.594 820.099,890.407 821.481,910.185 825.629,890.723 827.011,878.252 828.393,872.129 829.776,881.175 831.158,888.922 835.305,879.442 836.688,875.828 838.07,857.711 839.452,848.932 840.835,856.567 846.364,840.091 847.747,824.973 849.129,815.776 850.511,817.225 854.659,841.551 856.041,867.394 857.423,867.743 858.806,916.578 860.188,968.557 864.335,899.657 865.718,936.823 867.1,911.814 868.482,935.181 869.865,939.072 873.954,972.905 875.337,896.74 876.719,984.855 878.101,1148.3 879.484,1089.99 883.631,1266.54 885.013,1163.31 886.396,1310.1 887.778,1342.86 889.16,1339.79 893.308,1366.96 894.69,1211.87 896.072,1212.05 897.455,1182.34 898.837,1230.5 902.984,1202.97 904.367,1181.53 905.749,1176.49 907.131,1128.99 908.514,1131.17 912.661,1065.04 914.043,1064.8 915.426,1044.88 916.808,1002.79 922.337,994.478 923.72,942.078 925.102,960.732 926.485,896.11 927.867,850.618 932.014,905.165 933.397,960.945 934.779,938.328 936.161,923.345 937.544,949.82 941.691,922.287 943.073,924.235 944.456,903.349 945.838,904.364 947.22,944.571 951.367,932.718 952.75,969.377 954.132,960.485 955.515,981.525 956.897,961.187 961.044,920.986 962.426,932.413 963.809,942.265 965.191,945.081 966.574,932.853 970.721,890.402 972.103,897.4 973.485,896.476 974.868,886.781 976.25,884.743 981.78,858.234 983.162,804.659 984.545,836.056 985.927,811.827 990.074,777.966 991.456,778.739 992.839,780.139 994.221,806.759 995.604,783.364 999.751,782.883 1001.13,792.636 1002.52,783.294 1003.9,846.432 1005.28,848.215 1009.43,813.495 1010.81,800.807 1012.19,812.299 1013.57,801.865 1014.96,823.424 1019.1,784.349 1020.49,809.304 1021.87,815.149 1023.25,811.063 1024.63,830.836 1028.78,818.156 1030.16,817.927 1031.55,820.098 1032.93,822.23 1038.46,834.281 1039.84,825.861 1041.22,833.897 1042.6,822.88 1043.99,829.513 1048.13,847.891 1049.52,826.427 1050.9,812.314 1052.28,824.579 1053.66,828.553 1057.81,807.559 1059.19,809.52 1060.58,789.326 1061.96,806.93 1063.34,797.518 1067.49,810.752 1068.87,819.418 1070.25,805.066 1071.63,803.025 1073.02,812.221 1077.16,796.79 1078.55,783.013 1079.93,778.725 1081.31,790.393 1082.69,771.977 1086.84,774.091 1088.22,780.388 1089.61,749.959 1090.99,750.645 1092.37,735.022 1096.52,717.842 1097.9,733.962 1099.28,726.156 1100.66,753.889 1102.05,745.394 1106.19,743.563 1107.58,737.741 1108.96,724.66 1110.34,741.562 1111.72,735.995 1115.87,734.85 1117.25,747.342 1118.64,718.089 1120.02,767.172 1121.4,778.768 1126.93,789.855 1128.31,765.14 1129.69,781.133 1131.08,760.788 1135.22,737.073 1136.61,751.714 1137.99,748.284 1139.37,749.917 1140.75,739.474 1144.9,781.286 1146.28,760.434 1147.67,782.443 1149.05,780.791 1150.43,768.357 1154.58,750.457 1155.96,747.872 1157.34,743.738 1158.72,726.602 1160.11,735.755 1164.25,720.344 1165.64,727.939 1167.02,702.896 1168.4,665.929 1169.78,659.398 1173.93,662.877 1175.31,653.852 1176.7,669.534 1178.08,659.81 1179.46,677.871 1183.61,699.767 1184.99,696.644 1186.37,687.681 1187.75,705.39 1189.14,699.63 1193.28,736.619 1194.67,720.105 1196.05,757.401 1197.43,739.734 1198.81,753.659 1203.02,738.567 1204.4,703.987 1205.78,685.134 1207.17,664.219 1208.55,646.472 1212.69,687.52 1214.08,694.214 1215.46,658.346 1216.84,614.444 1218.22,601.36 1222.37,565.051 1223.75,587.043 1225.14,599.376 1226.52,590.819 1227.9,590.517 1232.05,587.558 1233.43,573.611 1234.81,560.076 1237.58,556.13 1241.72,568.458 1243.11,554.745 1244.49,564.763 1245.87,570.902 1247.25,589.513 1251.4,575.222 1252.78,586.73 1254.17,599.702 1255.55,599.628 1256.93,612.68 1261.08,611.357 1262.46,598.344 1263.84,586.537 1265.22,582.147 1266.61,594.78 1270.75,596.117 1272.14,581.432 1273.52,598.277 1274.9,594.419 1280.43,595.289 1281.81,587.136 1283.2,582.448 1284.58,572.329 1290.11,586.412 1291.49,596.624 1292.87,535.087 1294.25,534.065 1295.64,553.022 1299.78,567.161 1301.17,552.197 1302.55,532.458 1303.93,556.768 1305.31,562.025 1310.84,579.198 1312.23,569.722 1313.61,579.877 1314.99,576.655 1319.14,570.606 1320.52,558.615 1321.9,602.472 1323.28,625.359 1324.67,658.454 1328.81,658.935 1330.2,648.804 1331.58,647.592 1332.96,639.08 1334.34,642.535 1338.49,608.414 1339.87,583.149 1341.26,594.085 1342.64,603.623 1344.02,609.205 1349.55,606.466 1350.93,602.108 1352.31,591.288 1353.7,599.613 1357.84,606.233 1359.23,640.022 1360.61,646.965 1361.99,674.829 1363.37,659.059 1367.52,635.22 1368.9,670.667 1370.29,695.041 1371.67,733.274 1373.05,718.836 1377.2,704.168 1378.58,683.716 1379.96,669.483 1381.34,650.26 1382.73,629.153 1386.82,604.261 1388.2,594.629 1389.58,629.019 1390.96,691.306 1392.35,644.935 1396.49,601.189 1397.88,585.585 1399.26,592.674 1400.64,582.126 1402.02,548.698 1406.17,554.943 1407.55,561.264 1408.93,558.166 1410.32,542.169 1415.85,501.183 1417.23,499.03 1418.61,495.129 1419.99,484.637 1421.38,476.567 1425.52,473.89 1426.91,459.042 1428.29,453.831 1429.67,446.488 1431.05,446.891 1435.2,449.21 1436.58,436.78 1437.96,442.006 1439.35,452.119 1440.73,458.105 1444.88,457.778 1446.26,449.513 1447.64,459.552 1449.02,431.523 1450.41,434.017 1454.55,415.105 1455.94,420.206 1457.32,421.941 1458.7,409.206 1460.08,396.794 1464.23,407.698 1465.61,444.122 1466.99,492.34 1468.38,481.856 1469.76,475.213 1473.91,493.49 1475.29,491.054 1476.67,516.943 1478.05,489.223 1479.44,492.109 1483.58,520.254 1484.97,518.016 1486.35,506.241 1487.73,469.665 1489.11,478.975 1494.64,482.635 1496.02,470.421 1497.41,452.766 1498.79,441.864 1502.94,435.383 1504.32,425.558 1505.7,441.635 1507.08,438.66 1508.47,419.9 1512.61,415.677 1514,403.582 1515.38,404.91 1516.76,397.242 1518.14,409.354 1522.29,402.178 1523.67,399.448 1525.05,407.691 1526.44,406.38 1527.82,410.885 1531.97,397.875 1533.35,385.483 1534.73,381.808 1536.11,364.549 1537.5,351.086 1543.03,351.604 1544.41,334.536 1545.79,352.065 1547.17,339.734 1551.32,345.33 1552.7,344.301 1554.08,337.504 1555.47,341.369 1556.85,347.525 1561,356.102 1562.38,310.527 1563.76,317.745 1565.14,308.995 1566.53,285.062 1570.67,287.89 1572.06,268.289 1573.44,283.501 1574.82,270.766 1576.2,266.658 1580.35,272.646 1581.73,271.281 1583.11,268.676 1584.5,253.57 1585.88,252.041 1590.03,273.671 1591.41,265.811 1592.79,260.443 1594.17,258.871 1595.56,248.133 1599.7,239.09 1601.09,277.383 1602.47,298.736 1603.85,298.154 1605.23,280.862 1609.38,280.056 1610.76,282.173 1612.14,257.722 1613.53,314.297 1614.91,320.865 1619.06,321.337 1620.44,336.584 1621.82,333.687 1623.2,317.004 1624.59,333.561 1630.12,351.374 1631.5,330.507 1632.88,353.943 1634.26,366.31 1638.41,359.676 1639.79,376.453 1641.17,361.383 1642.56,339.211 1643.94,328.962 1648.09,331.588 1649.47,353.204 1650.85,352.703 1652.23,345.156 1653.62,348.226 1657.76,353.509 1659.15,364.967 1660.53,365.794 1661.91,396.64 1663.29,403.782 1667.44,424.758 1668.82,428.326 1670.2,424.341 1671.59,390.644 1672.97,410.433 1677.12,417.666 1678.5,419.561 1679.88,419.36 1681.26,385.26 1682.65,376.835 1686.79,376.899 1688.18,382.285 1689.56,356.396 1690.94,340.478 1692.32,335.203 1696.47,327.27 1697.85,337.569 1699.23,345.109 1700.62,324.144 1702,332.974 1706.15,309.911 1707.53,303.225 1708.91,278.994 1710.29,271.903 1711.68,256.393 1715.88,286.431 1717.26,300.648 1718.65,302.472 1720.03,295.422 1721.41,275.928 1725.56,250.061 1726.94,224.58 1728.32,252.771 1729.7,263.682 1731.09,267.74 1735.23,270.193 1736.62,262.592 1738,269.639 1740.76,282.775 1744.91,276.825 1746.29,307.105 1747.68,312.396 1749.06,330.024 1750.44,307.7 1754.59,281.42 1755.97,268.4 1757.35,284.862 1758.73,287.903 1760.12,275.542 1764.26,265.098 1765.65,270.302 1767.03,258.664 1768.41,271.592 1769.79,301.444 1773.94,312.313 1775.32,295.924 1776.7,305.525 1778.09,284.516 1783.62,268.985 1785,254.159 1786.38,219.722 1787.76,204.714 1789.15,199.694 1793.29,204.799 1794.68,231.442 1796.06,239.112 1797.44,223.872 1798.82,225.26 1802.97,235.027 1804.35,263.131 1805.73,261.386 1807.12,281.679 1808.5,326.575 1814.03,332.589 1815.41,319.484 1816.79,381.751 1818.18,392.699 1822.32,361.366 1823.71,384.675 1825.09,427.159 1826.47,419.363 1827.85,415.807 1832,382.793 1833.38,369.59 1834.76,390.605 1836.15,397.684 1837.53,422.174 1841.68,430.957 1843.06,401.494 1844.44,384.423 1845.82,412.311 1847.21,433.009 1851.35,438.944 1852.74,443.563 1854.12,452.776 1855.5,460.772 1856.88,438.832 1862.41,495.418 1863.79,525.074 1865.18,506.44 1866.56,446.884 1870.71,447.524 1872.09,445.378 1873.47,406.336 1874.85,404.284 1876.24,384.342 1880.38,443.88 1881.77,462.149 1883.15,429.558 1884.53,431.61 1885.91,460.017 1890,459.654 1891.38,428.636 1892.77,430.868 1894.15,359.053 1895.53,310.839 1899.68,313.07 1901.06,311 1902.44,342.067 1903.83,340.654 1905.21,326.776 1909.36,296.8 1910.74,283.093 1912.12,285.659 1913.5,309.78 1914.89,290.01 1919.03,285.115 1920.41,283.642 1921.8,241.309 1923.18,232.62 1924.56,218.966 1928.71,242.777 1930.09,242.109 1931.47,226.349 1932.86,225.811 1938.39,224.044 1939.77,183.073 1941.15,165.758 1942.53,200.771 1943.92,246.557 1948.06,250.952 1949.44,282.957 1950.83,295.379 1952.21,270.853 1953.59,350.509 1957.74,342.501 1959.12,341.252 1960.5,293.011 1961.89,356.939 1963.27,360.167 1967.42,390.27 1968.8,419.159 1970.18,421.742 1971.56,416.183 1972.95,391.804 1977.09,388.702 1978.47,403.535 1979.86,539.123 1981.24,544.363 1982.62,608.602 1986.77,566.215 1988.15,566.467 1989.53,563.234 1990.92,405.278 1992.3,358.801 1997.83,386.957 1999.21,414.041 2000.59,364.791 2001.98,366.426 2006.12,333.817 2007.5,325.995 2008.89,337.375 2010.27,312.028 2011.65,346.135 2015.8,405.666 2017.18,398.859 2018.56,374.226 2019.95,406.979 2021.33,415.075 2026.86,372.877 2028.24,364.737 2029.62,333.213 2031.01,286.324 2035.15,292.949 2036.53,325.303 2037.92,320.401 2039.3,324.42 2040.68,299.619 2046.21,280.158 2047.59,269.719 2048.98,256.832 2050.36,252.543 2054.51,243.707 2055.89,275.394 2057.27,274.274 2058.65,267.235 2060.03,292.169 2064.18,276.988 2065.56,256.727 2066.95,246.206 2068.33,254.851 2069.71,254.035 2073.86,253.524 2075.24,298.885 2076.62,266.251 2078.01,242.631 2079.39,217.841 2083.54,193.808 2084.92,192.956 2086.3,155.732 2087.68,174.767 2089.06,185.251 2093.21,158.604 2094.59,166.512 2095.98,151.585 2097.36,154.072 2098.74,152.09 2102.89,155.957 2104.27,144.176 2105.65,160.458 2107.04,157.56 2108.42,155.013 2112.57,212.968 2113.95,208.496 2115.33,204.076 2116.71,220.374 2118.09,304.378 2122.24,302.136 2123.62,312.657 2125.01,319.421 2126.39,283.769 2127.77,296.363 2133.3,302.637 2134.68,244.852 2136.07,225.08 2137.45,209.885 2141.6,190.083 2142.98,241.631 2144.36,262.06 2145.74,280.313 2147.12,277.454 2151.27,255.092 2152.65,265.254 2154.04,297.784 2155.42,320.461 2156.8,313.98 2160.95,342.621 2162.33,351.406 2163.71,306.817 2165.1,348.232 2166.48,347.667 2170.63,303.151 2172.01,271.371 2173.39,298.674 2174.77,289.566 2176.15,309.351 2180.3,307.716 2181.68,290.149 2183.07,299.114 2184.45,262.011 2185.83,303.561 2189.98,293.963 2191.36,280.608 2192.74,285.901 2194.13,295.373 2195.51,272.526 2199.66,268.188 2201.04,238.624 2202.42,230.369 2203.8,232.205 2205.18,190.36 2209.33,222.736 2210.71,234.749 2212.1,263.797 2213.48,264.828 2214.86,244.705 2219.07,224.977 2220.45,217.685 2221.83,264.31 2223.21,191.328 2224.6,209.025 2228.74,219.884 2230.13,163.507 2231.51,164.701 2232.89,168.03 2234.27,148.456 2238.42,106.177 2239.8,92.391 2241.18,89.6416 2243.95,86.1857 2248.1,119.958 2249.48,141.21 2250.86,122.346 2252.24,200.448 2253.63,172.677 2257.77,181.754 2259.16,182.918 2260.54,160.004 2261.92,163.514 2263.3,188.438 2267.45,182.695 2268.83,194.79 2270.21,178.829 2271.6,196.478 2272.98,192.664 2277.13,218.134 2278.51,226.45 2279.89,195.262 2281.27,191.327 2282.66,176.359 2288.19,189.714 2289.57,192.221 2290.95,161.827 2292.33,160.931 "/>
</svg>
