<?xml version="1.0" encoding="utf-8"?>
<svg xmlns="http://www.w3.org/2000/svg" xmlns:xlink="http://www.w3.org/1999/xlink" width="600" height="400" viewBox="0 0 2400 1600">
<defs>
  <clipPath id="clip540">
    <rect x="0" y="0" width="2400" height="1600"/>
  </clipPath>
</defs>
<path clip-path="url(#clip540)" d="M0 1600 L2400 1600 L2400 0 L0 0  Z" fill="#ffffff" fill-rule="evenodd" fill-opacity="1"/>
<defs>
  <clipPath id="clip541">
    <rect x="480" y="0" width="1681" height="1600"/>
  </clipPath>
</defs>
<path clip-path="url(#clip540)" d="M217.783 1423.18 L2352.76 1423.18 L2352.76 47.2441 L217.783 47.2441  Z" fill="#ffffff" fill-rule="evenodd" fill-opacity="1"/>
<defs>
  <clipPath id="clip542">
    <rect x="217" y="47" width="2136" height="1377"/>
  </clipPath>
</defs>
<polyline clip-path="url(#clip542)" style="stroke:#000000; stroke-linecap:round; stroke-linejoin:round; stroke-width:2; stroke-opacity:0.1; fill:none" points="274.607,1423.18 274.607,47.2441 "/>
<polyline clip-path="url(#clip542)" style="stroke:#000000; stroke-linecap:round; stroke-linejoin:round; stroke-width:2; stroke-opacity:0.1; fill:none" points="779.175,1423.18 779.175,47.2441 "/>
<polyline clip-path="url(#clip542)" style="stroke:#000000; stroke-linecap:round; stroke-linejoin:round; stroke-width:2; stroke-opacity:0.1; fill:none" points="1285.13,1423.18 1285.13,47.2441 "/>
<polyline clip-path="url(#clip542)" style="stroke:#000000; stroke-linecap:round; stroke-linejoin:round; stroke-width:2; stroke-opacity:0.1; fill:none" points="1789.69,1423.18 1789.69,47.2441 "/>
<polyline clip-path="url(#clip542)" style="stroke:#000000; stroke-linecap:round; stroke-linejoin:round; stroke-width:2; stroke-opacity:0.1; fill:none" points="2294.26,1423.18 2294.26,47.2441 "/>
<polyline clip-path="url(#clip542)" style="stroke:#000000; stroke-linecap:round; stroke-linejoin:round; stroke-width:2; stroke-opacity:0.1; fill:none" points="217.783,1364.6 2352.76,1364.6 "/>
<polyline clip-path="url(#clip542)" style="stroke:#000000; stroke-linecap:round; stroke-linejoin:round; stroke-width:2; stroke-opacity:0.1; fill:none" points="217.783,1084.18 2352.76,1084.18 "/>
<polyline clip-path="url(#clip542)" style="stroke:#000000; stroke-linecap:round; stroke-linejoin:round; stroke-width:2; stroke-opacity:0.1; fill:none" points="217.783,803.771 2352.76,803.771 "/>
<polyline clip-path="url(#clip542)" style="stroke:#000000; stroke-linecap:round; stroke-linejoin:round; stroke-width:2; stroke-opacity:0.1; fill:none" points="217.783,523.357 2352.76,523.357 "/>
<polyline clip-path="url(#clip542)" style="stroke:#000000; stroke-linecap:round; stroke-linejoin:round; stroke-width:2; stroke-opacity:0.1; fill:none" points="217.783,242.944 2352.76,242.944 "/>
<polyline clip-path="url(#clip540)" style="stroke:#000000; stroke-linecap:round; stroke-linejoin:round; stroke-width:4; stroke-opacity:1; fill:none" points="217.783,1423.18 2352.76,1423.18 "/>
<polyline clip-path="url(#clip540)" style="stroke:#000000; stroke-linecap:round; stroke-linejoin:round; stroke-width:4; stroke-opacity:1; fill:none" points="274.607,1423.18 274.607,1404.28 "/>
<polyline clip-path="url(#clip540)" style="stroke:#000000; stroke-linecap:round; stroke-linejoin:round; stroke-width:4; stroke-opacity:1; fill:none" points="779.175,1423.18 779.175,1404.28 "/>
<polyline clip-path="url(#clip540)" style="stroke:#000000; stroke-linecap:round; stroke-linejoin:round; stroke-width:4; stroke-opacity:1; fill:none" points="1285.13,1423.18 1285.13,1404.28 "/>
<polyline clip-path="url(#clip540)" style="stroke:#000000; stroke-linecap:round; stroke-linejoin:round; stroke-width:4; stroke-opacity:1; fill:none" points="1789.69,1423.18 1789.69,1404.28 "/>
<polyline clip-path="url(#clip540)" style="stroke:#000000; stroke-linecap:round; stroke-linejoin:round; stroke-width:4; stroke-opacity:1; fill:none" points="2294.26,1423.18 2294.26,1404.28 "/>
<path clip-path="url(#clip540)" d="M146.401 1481.64 L162.721 1481.64 L162.721 1485.58 L140.776 1485.58 L140.776 1481.64 Q143.438 1478.89 148.022 1474.26 Q152.628 1469.61 153.809 1468.27 Q156.054 1465.74 156.934 1464.01 Q157.837 1462.25 157.837 1460.56 Q157.837 1457.8 155.892 1456.07 Q153.971 1454.33 150.869 1454.33 Q148.67 1454.33 146.216 1455.09 Q143.786 1455.86 141.008 1457.41 L141.008 1452.69 Q143.832 1451.55 146.286 1450.97 Q148.739 1450.39 150.776 1450.39 Q156.147 1450.39 159.341 1453.08 Q162.536 1455.77 162.536 1460.26 Q162.536 1462.39 161.725 1464.31 Q160.938 1466.2 158.832 1468.8 Q158.253 1469.47 155.151 1472.69 Q152.05 1475.88 146.401 1481.64 Z" fill="#000000" fill-rule="nonzero" fill-opacity="1" /><path clip-path="url(#clip540)" d="M182.535 1454.1 Q178.924 1454.1 177.096 1457.66 Q175.29 1461.2 175.29 1468.33 Q175.29 1475.44 177.096 1479.01 Q178.924 1482.55 182.535 1482.55 Q186.17 1482.55 187.975 1479.01 Q189.804 1475.44 189.804 1468.33 Q189.804 1461.2 187.975 1457.66 Q186.17 1454.1 182.535 1454.1 M182.535 1450.39 Q188.346 1450.39 191.401 1455 Q194.48 1459.58 194.48 1468.33 Q194.48 1477.06 191.401 1481.67 Q188.346 1486.25 182.535 1486.25 Q176.725 1486.25 173.647 1481.67 Q170.591 1477.06 170.591 1468.33 Q170.591 1459.58 173.647 1455 Q176.725 1450.39 182.535 1450.39 Z" fill="#000000" fill-rule="nonzero" fill-opacity="1" /><path clip-path="url(#clip540)" d="M203.508 1481.64 L211.146 1481.64 L211.146 1455.28 L202.836 1456.95 L202.836 1452.69 L211.1 1451.02 L215.776 1451.02 L215.776 1481.64 L223.415 1481.64 L223.415 1485.58 L203.508 1485.58 L203.508 1481.64 Z" fill="#000000" fill-rule="nonzero" fill-opacity="1" /><path clip-path="url(#clip540)" d="M232.998 1484.86 L232.998 1480.6 Q234.757 1481.44 236.563 1481.88 Q238.369 1482.32 240.105 1482.32 Q244.734 1482.32 247.165 1479.21 Q249.618 1476.09 249.966 1469.75 Q248.623 1471.74 246.563 1472.8 Q244.503 1473.87 242.003 1473.87 Q236.818 1473.87 233.785 1470.74 Q230.776 1467.59 230.776 1462.15 Q230.776 1456.83 233.924 1453.61 Q237.072 1450.39 242.304 1450.39 Q248.299 1450.39 251.447 1455 Q254.618 1459.58 254.618 1468.33 Q254.618 1476.51 250.73 1481.39 Q246.864 1486.25 240.313 1486.25 Q238.554 1486.25 236.748 1485.9 Q234.943 1485.56 232.998 1484.86 M242.304 1470.21 Q245.452 1470.21 247.281 1468.06 Q249.132 1465.9 249.132 1462.15 Q249.132 1458.43 247.281 1456.27 Q245.452 1454.1 242.304 1454.1 Q239.156 1454.1 237.304 1456.27 Q235.475 1458.43 235.475 1462.15 Q235.475 1465.9 237.304 1468.06 Q239.156 1470.21 242.304 1470.21 Z" fill="#000000" fill-rule="nonzero" fill-opacity="1" /><path clip-path="url(#clip540)" d="M260.267 1470.7 L272.743 1470.7 L272.743 1474.49 L260.267 1474.49 L260.267 1470.7 Z" fill="#000000" fill-rule="nonzero" fill-opacity="1" /><path clip-path="url(#clip540)" d="M290.128 1454.1 Q286.516 1454.1 284.688 1457.66 Q282.882 1461.2 282.882 1468.33 Q282.882 1475.44 284.688 1479.01 Q286.516 1482.55 290.128 1482.55 Q293.762 1482.55 295.567 1479.01 Q297.396 1475.44 297.396 1468.33 Q297.396 1461.2 295.567 1457.66 Q293.762 1454.1 290.128 1454.1 M290.128 1450.39 Q295.938 1450.39 298.993 1455 Q302.072 1459.58 302.072 1468.33 Q302.072 1477.06 298.993 1481.67 Q295.938 1486.25 290.128 1486.25 Q284.317 1486.25 281.239 1481.67 Q278.183 1477.06 278.183 1468.33 Q278.183 1459.58 281.239 1455 Q284.317 1450.39 290.128 1450.39 Z" fill="#000000" fill-rule="nonzero" fill-opacity="1" /><path clip-path="url(#clip540)" d="M311.1 1481.64 L318.738 1481.64 L318.738 1455.28 L310.428 1456.95 L310.428 1452.69 L318.692 1451.02 L323.368 1451.02 L323.368 1481.64 L331.007 1481.64 L331.007 1485.58 L311.1 1485.58 L311.1 1481.64 Z" fill="#000000" fill-rule="nonzero" fill-opacity="1" /><path clip-path="url(#clip540)" d="M337.697 1470.7 L350.173 1470.7 L350.173 1474.49 L337.697 1474.49 L337.697 1470.7 Z" fill="#000000" fill-rule="nonzero" fill-opacity="1" /><path clip-path="url(#clip540)" d="M367.558 1454.1 Q363.947 1454.1 362.118 1457.66 Q360.312 1461.2 360.312 1468.33 Q360.312 1475.44 362.118 1479.01 Q363.947 1482.55 367.558 1482.55 Q371.192 1482.55 372.997 1479.01 Q374.826 1475.44 374.826 1468.33 Q374.826 1461.2 372.997 1457.66 Q371.192 1454.1 367.558 1454.1 M367.558 1450.39 Q373.368 1450.39 376.423 1455 Q379.502 1459.58 379.502 1468.33 Q379.502 1477.06 376.423 1481.67 Q373.368 1486.25 367.558 1486.25 Q361.747 1486.25 358.669 1481.67 Q355.613 1477.06 355.613 1468.33 Q355.613 1459.58 358.669 1455 Q361.747 1450.39 367.558 1450.39 Z" fill="#000000" fill-rule="nonzero" fill-opacity="1" /><path clip-path="url(#clip540)" d="M388.53 1481.64 L396.169 1481.64 L396.169 1455.28 L387.858 1456.95 L387.858 1452.69 L396.122 1451.02 L400.798 1451.02 L400.798 1481.64 L408.437 1481.64 L408.437 1485.58 L388.53 1485.58 L388.53 1481.64 Z" fill="#000000" fill-rule="nonzero" fill-opacity="1" /><path clip-path="url(#clip540)" d="M650.97 1481.64 L667.289 1481.64 L667.289 1485.58 L645.345 1485.58 L645.345 1481.64 Q648.007 1478.89 652.59 1474.26 Q657.196 1469.61 658.377 1468.27 Q660.622 1465.74 661.502 1464.01 Q662.405 1462.25 662.405 1460.56 Q662.405 1457.8 660.46 1456.07 Q658.539 1454.33 655.437 1454.33 Q653.238 1454.33 650.784 1455.09 Q648.354 1455.86 645.576 1457.41 L645.576 1452.69 Q648.4 1451.55 650.854 1450.97 Q653.308 1450.39 655.345 1450.39 Q660.715 1450.39 663.909 1453.08 Q667.104 1455.77 667.104 1460.26 Q667.104 1462.39 666.294 1464.31 Q665.507 1466.2 663.4 1468.8 Q662.821 1469.47 659.72 1472.69 Q656.618 1475.88 650.97 1481.64 Z" fill="#000000" fill-rule="nonzero" fill-opacity="1" /><path clip-path="url(#clip540)" d="M687.104 1454.1 Q683.493 1454.1 681.664 1457.66 Q679.858 1461.2 679.858 1468.33 Q679.858 1475.44 681.664 1479.01 Q683.493 1482.55 687.104 1482.55 Q690.738 1482.55 692.543 1479.01 Q694.372 1475.44 694.372 1468.33 Q694.372 1461.2 692.543 1457.66 Q690.738 1454.1 687.104 1454.1 M687.104 1450.39 Q692.914 1450.39 695.969 1455 Q699.048 1459.58 699.048 1468.33 Q699.048 1477.06 695.969 1481.67 Q692.914 1486.25 687.104 1486.25 Q681.293 1486.25 678.215 1481.67 Q675.159 1477.06 675.159 1468.33 Q675.159 1459.58 678.215 1455 Q681.293 1450.39 687.104 1450.39 Z" fill="#000000" fill-rule="nonzero" fill-opacity="1" /><path clip-path="url(#clip540)" d="M711.293 1481.64 L727.613 1481.64 L727.613 1485.58 L705.668 1485.58 L705.668 1481.64 Q708.33 1478.89 712.914 1474.26 Q717.52 1469.61 718.701 1468.27 Q720.946 1465.74 721.826 1464.01 Q722.728 1462.25 722.728 1460.56 Q722.728 1457.8 720.784 1456.07 Q718.863 1454.33 715.761 1454.33 Q713.562 1454.33 711.108 1455.09 Q708.678 1455.86 705.9 1457.41 L705.9 1452.69 Q708.724 1451.55 711.178 1450.97 Q713.631 1450.39 715.668 1450.39 Q721.039 1450.39 724.233 1453.08 Q727.427 1455.77 727.427 1460.26 Q727.427 1462.39 726.617 1464.31 Q725.83 1466.2 723.724 1468.8 Q723.145 1469.47 720.043 1472.69 Q716.941 1475.88 711.293 1481.64 Z" fill="#000000" fill-rule="nonzero" fill-opacity="1" /><path clip-path="url(#clip540)" d="M747.427 1454.1 Q743.816 1454.1 741.988 1457.66 Q740.182 1461.2 740.182 1468.33 Q740.182 1475.44 741.988 1479.01 Q743.816 1482.55 747.427 1482.55 Q751.062 1482.55 752.867 1479.01 Q754.696 1475.44 754.696 1468.33 Q754.696 1461.2 752.867 1457.66 Q751.062 1454.1 747.427 1454.1 M747.427 1450.39 Q753.238 1450.39 756.293 1455 Q759.372 1459.58 759.372 1468.33 Q759.372 1477.06 756.293 1481.67 Q753.238 1486.25 747.427 1486.25 Q741.617 1486.25 738.539 1481.67 Q735.483 1477.06 735.483 1468.33 Q735.483 1459.58 738.539 1455 Q741.617 1450.39 747.427 1450.39 Z" fill="#000000" fill-rule="nonzero" fill-opacity="1" /><path clip-path="url(#clip540)" d="M764.835 1470.7 L777.311 1470.7 L777.311 1474.49 L764.835 1474.49 L764.835 1470.7 Z" fill="#000000" fill-rule="nonzero" fill-opacity="1" /><path clip-path="url(#clip540)" d="M794.696 1454.1 Q791.085 1454.1 789.256 1457.66 Q787.45 1461.2 787.45 1468.33 Q787.45 1475.44 789.256 1479.01 Q791.085 1482.55 794.696 1482.55 Q798.33 1482.55 800.135 1479.01 Q801.964 1475.44 801.964 1468.33 Q801.964 1461.2 800.135 1457.66 Q798.33 1454.1 794.696 1454.1 M794.696 1450.39 Q800.506 1450.39 803.561 1455 Q806.64 1459.58 806.64 1468.33 Q806.64 1477.06 803.561 1481.67 Q800.506 1486.25 794.696 1486.25 Q788.886 1486.25 785.807 1481.67 Q782.751 1477.06 782.751 1468.33 Q782.751 1459.58 785.807 1455 Q788.886 1450.39 794.696 1450.39 Z" fill="#000000" fill-rule="nonzero" fill-opacity="1" /><path clip-path="url(#clip540)" d="M815.668 1481.64 L823.307 1481.64 L823.307 1455.28 L814.996 1456.95 L814.996 1452.69 L823.26 1451.02 L827.936 1451.02 L827.936 1481.64 L835.575 1481.64 L835.575 1485.58 L815.668 1485.58 L815.668 1481.64 Z" fill="#000000" fill-rule="nonzero" fill-opacity="1" /><path clip-path="url(#clip540)" d="M842.265 1470.7 L854.742 1470.7 L854.742 1474.49 L842.265 1474.49 L842.265 1470.7 Z" fill="#000000" fill-rule="nonzero" fill-opacity="1" /><path clip-path="url(#clip540)" d="M872.126 1454.1 Q868.515 1454.1 866.686 1457.66 Q864.88 1461.2 864.88 1468.33 Q864.88 1475.44 866.686 1479.01 Q868.515 1482.55 872.126 1482.55 Q875.76 1482.55 877.566 1479.01 Q879.394 1475.44 879.394 1468.33 Q879.394 1461.2 877.566 1457.66 Q875.76 1454.1 872.126 1454.1 M872.126 1450.39 Q877.936 1450.39 880.991 1455 Q884.07 1459.58 884.07 1468.33 Q884.07 1477.06 880.991 1481.67 Q877.936 1486.25 872.126 1486.25 Q866.316 1486.25 863.237 1481.67 Q860.181 1477.06 860.181 1468.33 Q860.181 1459.58 863.237 1455 Q866.316 1450.39 872.126 1450.39 Z" fill="#000000" fill-rule="nonzero" fill-opacity="1" /><path clip-path="url(#clip540)" d="M893.098 1481.64 L900.737 1481.64 L900.737 1455.28 L892.427 1456.95 L892.427 1452.69 L900.69 1451.02 L905.366 1451.02 L905.366 1481.64 L913.005 1481.64 L913.005 1485.58 L893.098 1485.58 L893.098 1481.64 Z" fill="#000000" fill-rule="nonzero" fill-opacity="1" /><path clip-path="url(#clip540)" d="M1156.92 1481.64 L1173.24 1481.64 L1173.24 1485.58 L1151.3 1485.58 L1151.3 1481.64 Q1153.96 1478.89 1158.54 1474.26 Q1163.15 1469.61 1164.33 1468.27 Q1166.57 1465.74 1167.45 1464.01 Q1168.36 1462.25 1168.36 1460.56 Q1168.36 1457.8 1166.41 1456.07 Q1164.49 1454.33 1161.39 1454.33 Q1159.19 1454.33 1156.73 1455.09 Q1154.3 1455.86 1151.53 1457.41 L1151.53 1452.69 Q1154.35 1451.55 1156.8 1450.97 Q1159.26 1450.39 1161.3 1450.39 Q1166.67 1450.39 1169.86 1453.08 Q1173.05 1455.77 1173.05 1460.26 Q1173.05 1462.39 1172.24 1464.31 Q1171.46 1466.2 1169.35 1468.8 Q1168.77 1469.47 1165.67 1472.69 Q1162.57 1475.88 1156.92 1481.64 Z" fill="#000000" fill-rule="nonzero" fill-opacity="1" /><path clip-path="url(#clip540)" d="M1193.05 1454.1 Q1189.44 1454.1 1187.61 1457.66 Q1185.81 1461.2 1185.81 1468.33 Q1185.81 1475.44 1187.61 1479.01 Q1189.44 1482.55 1193.05 1482.55 Q1196.69 1482.55 1198.49 1479.01 Q1200.32 1475.44 1200.32 1468.33 Q1200.32 1461.2 1198.49 1457.66 Q1196.69 1454.1 1193.05 1454.1 M1193.05 1450.39 Q1198.86 1450.39 1201.92 1455 Q1205 1459.58 1205 1468.33 Q1205 1477.06 1201.92 1481.67 Q1198.86 1486.25 1193.05 1486.25 Q1187.24 1486.25 1184.17 1481.67 Q1181.11 1477.06 1181.11 1468.33 Q1181.11 1459.58 1184.17 1455 Q1187.24 1450.39 1193.05 1450.39 Z" fill="#000000" fill-rule="nonzero" fill-opacity="1" /><path clip-path="url(#clip540)" d="M1217.24 1481.64 L1233.56 1481.64 L1233.56 1485.58 L1211.62 1485.58 L1211.62 1481.64 Q1214.28 1478.89 1218.86 1474.26 Q1223.47 1469.61 1224.65 1468.27 Q1226.9 1465.74 1227.78 1464.01 Q1228.68 1462.25 1228.68 1460.56 Q1228.68 1457.8 1226.73 1456.07 Q1224.81 1454.33 1221.71 1454.33 Q1219.51 1454.33 1217.06 1455.09 Q1214.63 1455.86 1211.85 1457.41 L1211.85 1452.69 Q1214.67 1451.55 1217.13 1450.97 Q1219.58 1450.39 1221.62 1450.39 Q1226.99 1450.39 1230.18 1453.08 Q1233.38 1455.77 1233.38 1460.26 Q1233.38 1462.39 1232.57 1464.31 Q1231.78 1466.2 1229.67 1468.8 Q1229.1 1469.47 1225.99 1472.69 Q1222.89 1475.88 1217.24 1481.64 Z" fill="#000000" fill-rule="nonzero" fill-opacity="1" /><path clip-path="url(#clip540)" d="M1244.19 1481.64 L1251.83 1481.64 L1251.83 1455.28 L1243.52 1456.95 L1243.52 1452.69 L1251.78 1451.02 L1256.46 1451.02 L1256.46 1481.64 L1264.1 1481.64 L1264.1 1485.58 L1244.19 1485.58 L1244.19 1481.64 Z" fill="#000000" fill-rule="nonzero" fill-opacity="1" /><path clip-path="url(#clip540)" d="M1270.79 1470.7 L1283.26 1470.7 L1283.26 1474.49 L1270.79 1474.49 L1270.79 1470.7 Z" fill="#000000" fill-rule="nonzero" fill-opacity="1" /><path clip-path="url(#clip540)" d="M1300.65 1454.1 Q1297.04 1454.1 1295.21 1457.66 Q1293.4 1461.2 1293.4 1468.33 Q1293.4 1475.44 1295.21 1479.01 Q1297.04 1482.55 1300.65 1482.55 Q1304.28 1482.55 1306.09 1479.01 Q1307.91 1475.44 1307.91 1468.33 Q1307.91 1461.2 1306.09 1457.66 Q1304.28 1454.1 1300.65 1454.1 M1300.65 1450.39 Q1306.46 1450.39 1309.51 1455 Q1312.59 1459.58 1312.59 1468.33 Q1312.59 1477.06 1309.51 1481.67 Q1306.46 1486.25 1300.65 1486.25 Q1294.84 1486.25 1291.76 1481.67 Q1288.7 1477.06 1288.7 1468.33 Q1288.7 1459.58 1291.76 1455 Q1294.84 1450.39 1300.65 1450.39 Z" fill="#000000" fill-rule="nonzero" fill-opacity="1" /><path clip-path="url(#clip540)" d="M1321.62 1481.64 L1329.26 1481.64 L1329.26 1455.28 L1320.95 1456.95 L1320.95 1452.69 L1329.21 1451.02 L1333.89 1451.02 L1333.89 1481.64 L1341.53 1481.64 L1341.53 1485.58 L1321.62 1485.58 L1321.62 1481.64 Z" fill="#000000" fill-rule="nonzero" fill-opacity="1" /><path clip-path="url(#clip540)" d="M1348.22 1470.7 L1360.69 1470.7 L1360.69 1474.49 L1348.22 1474.49 L1348.22 1470.7 Z" fill="#000000" fill-rule="nonzero" fill-opacity="1" /><path clip-path="url(#clip540)" d="M1378.08 1454.1 Q1374.47 1454.1 1372.64 1457.66 Q1370.83 1461.2 1370.83 1468.33 Q1370.83 1475.44 1372.64 1479.01 Q1374.47 1482.55 1378.08 1482.55 Q1381.71 1482.55 1383.52 1479.01 Q1385.34 1475.44 1385.34 1468.33 Q1385.34 1461.2 1383.52 1457.66 Q1381.71 1454.1 1378.08 1454.1 M1378.08 1450.39 Q1383.89 1450.39 1386.94 1455 Q1390.02 1459.58 1390.02 1468.33 Q1390.02 1477.06 1386.94 1481.67 Q1383.89 1486.25 1378.08 1486.25 Q1372.27 1486.25 1369.19 1481.67 Q1366.13 1477.06 1366.13 1468.33 Q1366.13 1459.58 1369.19 1455 Q1372.27 1450.39 1378.08 1450.39 Z" fill="#000000" fill-rule="nonzero" fill-opacity="1" /><path clip-path="url(#clip540)" d="M1399.05 1481.64 L1406.69 1481.64 L1406.69 1455.28 L1398.38 1456.95 L1398.38 1452.69 L1406.64 1451.02 L1411.32 1451.02 L1411.32 1481.64 L1418.96 1481.64 L1418.96 1485.58 L1399.05 1485.58 L1399.05 1481.64 Z" fill="#000000" fill-rule="nonzero" fill-opacity="1" /><path clip-path="url(#clip540)" d="M1661.49 1481.64 L1677.81 1481.64 L1677.81 1485.58 L1655.86 1485.58 L1655.86 1481.64 Q1658.53 1478.89 1663.11 1474.26 Q1667.72 1469.61 1668.9 1468.27 Q1671.14 1465.74 1672.02 1464.01 Q1672.92 1462.25 1672.92 1460.56 Q1672.92 1457.8 1670.98 1456.07 Q1669.06 1454.33 1665.96 1454.33 Q1663.76 1454.33 1661.3 1455.09 Q1658.87 1455.86 1656.09 1457.41 L1656.09 1452.69 Q1658.92 1451.55 1661.37 1450.97 Q1663.83 1450.39 1665.86 1450.39 Q1671.23 1450.39 1674.43 1453.08 Q1677.62 1455.77 1677.62 1460.26 Q1677.62 1462.39 1676.81 1464.31 Q1676.03 1466.2 1673.92 1468.8 Q1673.34 1469.47 1670.24 1472.69 Q1667.14 1475.88 1661.49 1481.64 Z" fill="#000000" fill-rule="nonzero" fill-opacity="1" /><path clip-path="url(#clip540)" d="M1697.62 1454.1 Q1694.01 1454.1 1692.18 1457.66 Q1690.38 1461.2 1690.38 1468.33 Q1690.38 1475.44 1692.18 1479.01 Q1694.01 1482.55 1697.62 1482.55 Q1701.26 1482.55 1703.06 1479.01 Q1704.89 1475.44 1704.89 1468.33 Q1704.89 1461.2 1703.06 1457.66 Q1701.26 1454.1 1697.62 1454.1 M1697.62 1450.39 Q1703.43 1450.39 1706.49 1455 Q1709.57 1459.58 1709.57 1468.33 Q1709.57 1477.06 1706.49 1481.67 Q1703.43 1486.25 1697.62 1486.25 Q1691.81 1486.25 1688.73 1481.67 Q1685.68 1477.06 1685.68 1468.33 Q1685.68 1459.58 1688.73 1455 Q1691.81 1450.39 1697.62 1450.39 Z" fill="#000000" fill-rule="nonzero" fill-opacity="1" /><path clip-path="url(#clip540)" d="M1721.81 1481.64 L1738.13 1481.64 L1738.13 1485.58 L1716.19 1485.58 L1716.19 1481.64 Q1718.85 1478.89 1723.43 1474.26 Q1728.04 1469.61 1729.22 1468.27 Q1731.46 1465.74 1732.34 1464.01 Q1733.25 1462.25 1733.25 1460.56 Q1733.25 1457.8 1731.3 1456.07 Q1729.38 1454.33 1726.28 1454.33 Q1724.08 1454.33 1721.63 1455.09 Q1719.2 1455.86 1716.42 1457.41 L1716.42 1452.69 Q1719.24 1451.55 1721.7 1450.97 Q1724.15 1450.39 1726.19 1450.39 Q1731.56 1450.39 1734.75 1453.08 Q1737.95 1455.77 1737.95 1460.26 Q1737.95 1462.39 1737.14 1464.31 Q1736.35 1466.2 1734.24 1468.8 Q1733.66 1469.47 1730.56 1472.69 Q1727.46 1475.88 1721.81 1481.64 Z" fill="#000000" fill-rule="nonzero" fill-opacity="1" /><path clip-path="url(#clip540)" d="M1751.97 1481.64 L1768.29 1481.64 L1768.29 1485.58 L1746.35 1485.58 L1746.35 1481.64 Q1749.01 1478.89 1753.59 1474.26 Q1758.2 1469.61 1759.38 1468.27 Q1761.63 1465.74 1762.51 1464.01 Q1763.41 1462.25 1763.41 1460.56 Q1763.41 1457.8 1761.46 1456.07 Q1759.54 1454.33 1756.44 1454.33 Q1754.24 1454.33 1751.79 1455.09 Q1749.36 1455.86 1746.58 1457.41 L1746.58 1452.69 Q1749.4 1451.55 1751.86 1450.97 Q1754.31 1450.39 1756.35 1450.39 Q1761.72 1450.39 1764.91 1453.08 Q1768.11 1455.77 1768.11 1460.26 Q1768.11 1462.39 1767.3 1464.31 Q1766.51 1466.2 1764.4 1468.8 Q1763.83 1469.47 1760.72 1472.69 Q1757.62 1475.88 1751.97 1481.64 Z" fill="#000000" fill-rule="nonzero" fill-opacity="1" /><path clip-path="url(#clip540)" d="M1775.35 1470.7 L1787.83 1470.7 L1787.83 1474.49 L1775.35 1474.49 L1775.35 1470.7 Z" fill="#000000" fill-rule="nonzero" fill-opacity="1" /><path clip-path="url(#clip540)" d="M1805.21 1454.1 Q1801.6 1454.1 1799.77 1457.66 Q1797.97 1461.2 1797.97 1468.33 Q1797.97 1475.44 1799.77 1479.01 Q1801.6 1482.55 1805.21 1482.55 Q1808.85 1482.55 1810.65 1479.01 Q1812.48 1475.44 1812.48 1468.33 Q1812.48 1461.2 1810.65 1457.66 Q1808.85 1454.1 1805.21 1454.1 M1805.21 1450.39 Q1811.02 1450.39 1814.08 1455 Q1817.16 1459.58 1817.16 1468.33 Q1817.16 1477.06 1814.08 1481.67 Q1811.02 1486.25 1805.21 1486.25 Q1799.4 1486.25 1796.33 1481.67 Q1793.27 1477.06 1793.27 1468.33 Q1793.27 1459.58 1796.33 1455 Q1799.4 1450.39 1805.21 1450.39 Z" fill="#000000" fill-rule="nonzero" fill-opacity="1" /><path clip-path="url(#clip540)" d="M1826.19 1481.64 L1833.83 1481.64 L1833.83 1455.28 L1825.52 1456.95 L1825.52 1452.69 L1833.78 1451.02 L1838.45 1451.02 L1838.45 1481.64 L1846.09 1481.64 L1846.09 1485.58 L1826.19 1485.58 L1826.19 1481.64 Z" fill="#000000" fill-rule="nonzero" fill-opacity="1" /><path clip-path="url(#clip540)" d="M1852.78 1470.7 L1865.26 1470.7 L1865.26 1474.49 L1852.78 1474.49 L1852.78 1470.7 Z" fill="#000000" fill-rule="nonzero" fill-opacity="1" /><path clip-path="url(#clip540)" d="M1882.64 1454.1 Q1879.03 1454.1 1877.2 1457.66 Q1875.4 1461.2 1875.4 1468.33 Q1875.4 1475.44 1877.2 1479.01 Q1879.03 1482.55 1882.64 1482.55 Q1886.28 1482.55 1888.08 1479.01 Q1889.91 1475.44 1889.91 1468.33 Q1889.91 1461.2 1888.08 1457.66 Q1886.28 1454.1 1882.64 1454.1 M1882.64 1450.39 Q1888.45 1450.39 1891.51 1455 Q1894.59 1459.58 1894.59 1468.33 Q1894.59 1477.06 1891.51 1481.67 Q1888.45 1486.25 1882.64 1486.25 Q1876.83 1486.25 1873.76 1481.67 Q1870.7 1477.06 1870.7 1468.33 Q1870.7 1459.58 1873.76 1455 Q1876.83 1450.39 1882.64 1450.39 Z" fill="#000000" fill-rule="nonzero" fill-opacity="1" /><path clip-path="url(#clip540)" d="M1903.62 1481.64 L1911.26 1481.64 L1911.26 1455.28 L1902.95 1456.95 L1902.95 1452.69 L1911.21 1451.02 L1915.89 1451.02 L1915.89 1481.64 L1923.52 1481.64 L1923.52 1485.58 L1903.62 1485.58 L1903.62 1481.64 Z" fill="#000000" fill-rule="nonzero" fill-opacity="1" /><path clip-path="url(#clip540)" d="M2166.06 1481.64 L2182.38 1481.64 L2182.38 1485.58 L2160.43 1485.58 L2160.43 1481.64 Q2163.09 1478.89 2167.68 1474.26 Q2172.28 1469.61 2173.46 1468.27 Q2175.71 1465.74 2176.59 1464.01 Q2177.49 1462.25 2177.49 1460.56 Q2177.49 1457.8 2175.55 1456.07 Q2173.63 1454.33 2170.52 1454.33 Q2168.32 1454.33 2165.87 1455.09 Q2163.44 1455.86 2160.66 1457.41 L2160.66 1452.69 Q2163.49 1451.55 2165.94 1450.97 Q2168.39 1450.39 2170.43 1450.39 Q2175.8 1450.39 2179 1453.08 Q2182.19 1455.77 2182.19 1460.26 Q2182.19 1462.39 2181.38 1464.31 Q2180.59 1466.2 2178.49 1468.8 Q2177.91 1469.47 2174.81 1472.69 Q2171.7 1475.88 2166.06 1481.64 Z" fill="#000000" fill-rule="nonzero" fill-opacity="1" /><path clip-path="url(#clip540)" d="M2202.19 1454.1 Q2198.58 1454.1 2196.75 1457.66 Q2194.95 1461.2 2194.95 1468.33 Q2194.95 1475.44 2196.75 1479.01 Q2198.58 1482.55 2202.19 1482.55 Q2205.82 1482.55 2207.63 1479.01 Q2209.46 1475.44 2209.46 1468.33 Q2209.46 1461.2 2207.63 1457.66 Q2205.82 1454.1 2202.19 1454.1 M2202.19 1450.39 Q2208 1450.39 2211.06 1455 Q2214.13 1459.58 2214.13 1468.33 Q2214.13 1477.06 2211.06 1481.67 Q2208 1486.25 2202.19 1486.25 Q2196.38 1486.25 2193.3 1481.67 Q2190.25 1477.06 2190.25 1468.33 Q2190.25 1459.58 2193.3 1455 Q2196.38 1450.39 2202.19 1450.39 Z" fill="#000000" fill-rule="nonzero" fill-opacity="1" /><path clip-path="url(#clip540)" d="M2226.38 1481.64 L2242.7 1481.64 L2242.7 1485.58 L2220.76 1485.58 L2220.76 1481.64 Q2223.42 1478.89 2228 1474.26 Q2232.61 1469.61 2233.79 1468.27 Q2236.03 1465.74 2236.91 1464.01 Q2237.82 1462.25 2237.82 1460.56 Q2237.82 1457.8 2235.87 1456.07 Q2233.95 1454.33 2230.85 1454.33 Q2228.65 1454.33 2226.19 1455.09 Q2223.76 1455.86 2220.99 1457.41 L2220.99 1452.69 Q2223.81 1451.55 2226.26 1450.97 Q2228.72 1450.39 2230.76 1450.39 Q2236.13 1450.39 2239.32 1453.08 Q2242.51 1455.77 2242.51 1460.26 Q2242.51 1462.39 2241.7 1464.31 Q2240.92 1466.2 2238.81 1468.8 Q2238.23 1469.47 2235.13 1472.69 Q2232.03 1475.88 2226.38 1481.64 Z" fill="#000000" fill-rule="nonzero" fill-opacity="1" /><path clip-path="url(#clip540)" d="M2266.68 1466.95 Q2270.04 1467.66 2271.91 1469.93 Q2273.81 1472.2 2273.81 1475.53 Q2273.81 1480.65 2270.29 1483.45 Q2266.77 1486.25 2260.29 1486.25 Q2258.12 1486.25 2255.8 1485.81 Q2253.51 1485.39 2251.06 1484.54 L2251.06 1480.02 Q2253 1481.16 2255.32 1481.74 Q2257.63 1482.32 2260.15 1482.32 Q2264.55 1482.32 2266.84 1480.58 Q2269.16 1478.84 2269.16 1475.53 Q2269.16 1472.48 2267 1470.77 Q2264.88 1469.03 2261.06 1469.03 L2257.03 1469.03 L2257.03 1465.19 L2261.24 1465.19 Q2264.69 1465.19 2266.52 1463.82 Q2268.35 1462.43 2268.35 1459.84 Q2268.35 1457.18 2266.45 1455.77 Q2264.57 1454.33 2261.06 1454.33 Q2259.13 1454.33 2256.94 1454.75 Q2254.74 1455.16 2252.1 1456.04 L2252.1 1451.88 Q2254.76 1451.14 2257.07 1450.77 Q2259.41 1450.39 2261.47 1450.39 Q2266.8 1450.39 2269.9 1452.83 Q2273 1455.23 2273 1459.35 Q2273 1462.22 2271.36 1464.21 Q2269.71 1466.18 2266.68 1466.95 Z" fill="#000000" fill-rule="nonzero" fill-opacity="1" /><path clip-path="url(#clip540)" d="M2279.92 1470.7 L2292.4 1470.7 L2292.4 1474.49 L2279.92 1474.49 L2279.92 1470.7 Z" fill="#000000" fill-rule="nonzero" fill-opacity="1" /><path clip-path="url(#clip540)" d="M2309.78 1454.1 Q2306.17 1454.1 2304.34 1457.66 Q2302.54 1461.2 2302.54 1468.33 Q2302.54 1475.44 2304.34 1479.01 Q2306.17 1482.55 2309.78 1482.55 Q2313.42 1482.55 2315.22 1479.01 Q2317.05 1475.44 2317.05 1468.33 Q2317.05 1461.2 2315.22 1457.66 Q2313.42 1454.1 2309.78 1454.1 M2309.78 1450.39 Q2315.59 1450.39 2318.65 1455 Q2321.73 1459.58 2321.73 1468.33 Q2321.73 1477.06 2318.65 1481.67 Q2315.59 1486.25 2309.78 1486.25 Q2303.97 1486.25 2300.89 1481.67 Q2297.84 1477.06 2297.84 1468.33 Q2297.84 1459.58 2300.89 1455 Q2303.97 1450.39 2309.78 1450.39 Z" fill="#000000" fill-rule="nonzero" fill-opacity="1" /><path clip-path="url(#clip540)" d="M2330.75 1481.64 L2338.39 1481.64 L2338.39 1455.28 L2330.08 1456.95 L2330.08 1452.69 L2338.35 1451.02 L2343.02 1451.02 L2343.02 1481.64 L2350.66 1481.64 L2350.66 1485.58 L2330.75 1485.58 L2330.75 1481.64 Z" fill="#000000" fill-rule="nonzero" fill-opacity="1" /><path clip-path="url(#clip540)" d="M2357.35 1470.7 L2369.83 1470.7 L2369.83 1474.49 L2357.35 1474.49 L2357.35 1470.7 Z" fill="#000000" fill-rule="nonzero" fill-opacity="1" /><path clip-path="url(#clip540)" d="M2387.21 1454.1 Q2383.6 1454.1 2381.77 1457.66 Q2379.97 1461.2 2379.97 1468.33 Q2379.97 1475.44 2381.77 1479.01 Q2383.6 1482.55 2387.21 1482.55 Q2390.85 1482.55 2392.65 1479.01 Q2394.48 1475.44 2394.48 1468.33 Q2394.48 1461.2 2392.65 1457.66 Q2390.85 1454.1 2387.21 1454.1 M2387.21 1450.39 Q2393.02 1450.39 2396.08 1455 Q2399.16 1459.58 2399.16 1468.33 Q2399.16 1477.06 2396.08 1481.67 Q2393.02 1486.25 2387.21 1486.25 Q2381.4 1486.25 2378.32 1481.67 Q2375.27 1477.06 2375.27 1468.33 Q2375.27 1459.58 2378.32 1455 Q2381.4 1450.39 2387.21 1450.39 Z" fill="#000000" fill-rule="nonzero" fill-opacity="1" /><path clip-path="url(#clip540)" d="M2408.18 1481.64 L2415.82 1481.64 L2415.82 1455.28 L2407.51 1456.95 L2407.51 1452.69 L2415.78 1451.02 L2420.45 1451.02 L2420.45 1481.64 L2428.09 1481.64 L2428.09 1485.58 L2408.18 1485.58 L2408.18 1481.64 Z" fill="#000000" fill-rule="nonzero" fill-opacity="1" /><path clip-path="url(#clip540)" d="M1218.73 1525.81 L1218.73 1562.76 L1226.5 1562.76 Q1236.33 1562.76 1240.88 1558.3 Q1245.47 1553.85 1245.47 1544.24 Q1245.47 1534.69 1240.88 1530.26 Q1236.33 1525.81 1226.5 1525.81 L1218.73 1525.81 M1212.3 1520.52 L1225.51 1520.52 Q1239.32 1520.52 1245.79 1526.28 Q1252.25 1532.01 1252.25 1544.24 Q1252.25 1556.52 1245.75 1562.28 Q1239.26 1568.04 1225.51 1568.04 L1212.3 1568.04 L1212.3 1520.52 Z" fill="#000000" fill-rule="nonzero" fill-opacity="1" /><path clip-path="url(#clip540)" d="M1278.44 1550.12 Q1271.34 1550.12 1268.61 1551.75 Q1265.87 1553.37 1265.87 1557.29 Q1265.87 1560.4 1267.91 1562.25 Q1269.98 1564.07 1273.51 1564.07 Q1278.38 1564.07 1281.31 1560.63 Q1284.27 1557.16 1284.27 1551.43 L1284.27 1550.12 L1278.44 1550.12 M1290.12 1547.71 L1290.12 1568.04 L1284.27 1568.04 L1284.27 1562.63 Q1282.26 1565.88 1279.27 1567.44 Q1276.28 1568.97 1271.95 1568.97 Q1266.47 1568.97 1263.23 1565.91 Q1260.01 1562.82 1260.01 1557.67 Q1260.01 1551.65 1264.02 1548.6 Q1268.07 1545.54 1276.06 1545.54 L1284.27 1545.54 L1284.27 1544.97 Q1284.27 1540.93 1281.59 1538.73 Q1278.95 1536.5 1274.15 1536.5 Q1271.09 1536.5 1268.19 1537.23 Q1265.3 1537.97 1262.62 1539.43 L1262.62 1534.02 Q1265.84 1532.78 1268.86 1532.17 Q1271.89 1531.54 1274.75 1531.54 Q1282.48 1531.54 1286.3 1535.55 Q1290.12 1539.56 1290.12 1547.71 Z" fill="#000000" fill-rule="nonzero" fill-opacity="1" /><path clip-path="url(#clip540)" d="M1307.98 1522.27 L1307.98 1532.4 L1320.04 1532.4 L1320.04 1536.95 L1307.98 1536.95 L1307.98 1556.3 Q1307.98 1560.66 1309.16 1561.9 Q1310.37 1563.14 1314.03 1563.14 L1320.04 1563.14 L1320.04 1568.04 L1314.03 1568.04 Q1307.25 1568.04 1304.67 1565.53 Q1302.09 1562.98 1302.09 1556.3 L1302.09 1536.95 L1297.79 1536.95 L1297.79 1532.4 L1302.09 1532.4 L1302.09 1522.27 L1307.98 1522.27 Z" fill="#000000" fill-rule="nonzero" fill-opacity="1" /><path clip-path="url(#clip540)" d="M1358.24 1548.76 L1358.24 1551.62 L1331.31 1551.62 Q1331.69 1557.67 1334.94 1560.85 Q1338.22 1564 1344.04 1564 Q1347.41 1564 1350.57 1563.17 Q1353.75 1562.35 1356.87 1560.69 L1356.87 1566.23 Q1353.72 1567.57 1350.41 1568.27 Q1347.1 1568.97 1343.69 1568.97 Q1335.16 1568.97 1330.16 1564 Q1325.2 1559.04 1325.2 1550.57 Q1325.2 1541.82 1329.91 1536.69 Q1334.65 1531.54 1342.67 1531.54 Q1349.87 1531.54 1354.03 1536.18 Q1358.24 1540.8 1358.24 1548.76 M1352.38 1547.04 Q1352.32 1542.23 1349.67 1539.37 Q1347.06 1536.5 1342.74 1536.5 Q1337.83 1536.5 1334.87 1539.27 Q1331.95 1542.04 1331.5 1547.07 L1352.38 1547.04 Z" fill="#000000" fill-rule="nonzero" fill-opacity="1" /><polyline clip-path="url(#clip540)" style="stroke:#000000; stroke-linecap:round; stroke-linejoin:round; stroke-width:4; stroke-opacity:1; fill:none" points="217.783,1423.18 217.783,47.2441 "/>
<polyline clip-path="url(#clip540)" style="stroke:#000000; stroke-linecap:round; stroke-linejoin:round; stroke-width:4; stroke-opacity:1; fill:none" points="217.783,1364.6 236.681,1364.6 "/>
<polyline clip-path="url(#clip540)" style="stroke:#000000; stroke-linecap:round; stroke-linejoin:round; stroke-width:4; stroke-opacity:1; fill:none" points="217.783,1084.18 236.681,1084.18 "/>
<polyline clip-path="url(#clip540)" style="stroke:#000000; stroke-linecap:round; stroke-linejoin:round; stroke-width:4; stroke-opacity:1; fill:none" points="217.783,803.771 236.681,803.771 "/>
<polyline clip-path="url(#clip540)" style="stroke:#000000; stroke-linecap:round; stroke-linejoin:round; stroke-width:4; stroke-opacity:1; fill:none" points="217.783,523.357 236.681,523.357 "/>
<polyline clip-path="url(#clip540)" style="stroke:#000000; stroke-linecap:round; stroke-linejoin:round; stroke-width:4; stroke-opacity:1; fill:none" points="217.783,242.944 236.681,242.944 "/>
<path clip-path="url(#clip540)" d="M115.418 1377.94 L123.056 1377.94 L123.056 1351.58 L114.746 1353.24 L114.746 1348.98 L123.01 1347.32 L127.686 1347.32 L127.686 1377.94 L135.325 1377.94 L135.325 1381.88 L115.418 1381.88 L115.418 1377.94 Z" fill="#000000" fill-rule="nonzero" fill-opacity="1" /><path clip-path="url(#clip540)" d="M144.769 1376 L149.653 1376 L149.653 1381.88 L144.769 1381.88 L144.769 1376 Z" fill="#000000" fill-rule="nonzero" fill-opacity="1" /><path clip-path="url(#clip540)" d="M169.839 1350.4 Q166.227 1350.4 164.399 1353.96 Q162.593 1357.5 162.593 1364.63 Q162.593 1371.74 164.399 1375.3 Q166.227 1378.84 169.839 1378.84 Q173.473 1378.84 175.278 1375.3 Q177.107 1371.74 177.107 1364.63 Q177.107 1357.5 175.278 1353.96 Q173.473 1350.4 169.839 1350.4 M169.839 1346.69 Q175.649 1346.69 178.704 1351.3 Q181.783 1355.88 181.783 1364.63 Q181.783 1373.36 178.704 1377.96 Q175.649 1382.55 169.839 1382.55 Q164.028 1382.55 160.95 1377.96 Q157.894 1373.36 157.894 1364.63 Q157.894 1355.88 160.95 1351.3 Q164.028 1346.69 169.839 1346.69 Z" fill="#000000" fill-rule="nonzero" fill-opacity="1" /><path clip-path="url(#clip540)" d="M117.015 1097.53 L124.654 1097.53 L124.654 1071.16 L116.343 1072.83 L116.343 1068.57 L124.607 1066.9 L129.283 1066.9 L129.283 1097.53 L136.922 1097.53 L136.922 1101.46 L117.015 1101.46 L117.015 1097.53 Z" fill="#000000" fill-rule="nonzero" fill-opacity="1" /><path clip-path="url(#clip540)" d="M146.366 1095.58 L151.251 1095.58 L151.251 1101.46 L146.366 1101.46 L146.366 1095.58 Z" fill="#000000" fill-rule="nonzero" fill-opacity="1" /><path clip-path="url(#clip540)" d="M165.464 1097.53 L181.783 1097.53 L181.783 1101.46 L159.839 1101.46 L159.839 1097.53 Q162.501 1094.77 167.084 1090.14 Q171.69 1085.49 172.871 1084.15 Q175.116 1081.63 175.996 1079.89 Q176.899 1078.13 176.899 1076.44 Q176.899 1073.69 174.954 1071.95 Q173.033 1070.21 169.931 1070.21 Q167.732 1070.21 165.278 1070.98 Q162.848 1071.74 160.07 1073.29 L160.07 1068.57 Q162.894 1067.44 165.348 1066.86 Q167.802 1066.28 169.839 1066.28 Q175.209 1066.28 178.403 1068.96 Q181.598 1071.65 181.598 1076.14 Q181.598 1078.27 180.788 1080.19 Q180.001 1082.09 177.894 1084.68 Q177.315 1085.35 174.214 1088.57 Q171.112 1091.76 165.464 1097.53 Z" fill="#000000" fill-rule="nonzero" fill-opacity="1" /><path clip-path="url(#clip540)" d="M114.931 817.115 L122.57 817.115 L122.57 790.75 L114.26 792.416 L114.26 788.157 L122.524 786.491 L127.2 786.491 L127.2 817.115 L134.839 817.115 L134.839 821.051 L114.931 821.051 L114.931 817.115 Z" fill="#000000" fill-rule="nonzero" fill-opacity="1" /><path clip-path="url(#clip540)" d="M144.283 815.171 L149.167 815.171 L149.167 821.051 L144.283 821.051 L144.283 815.171 Z" fill="#000000" fill-rule="nonzero" fill-opacity="1" /><path clip-path="url(#clip540)" d="M172.2 790.565 L160.394 809.014 L172.2 809.014 L172.2 790.565 M170.973 786.491 L176.852 786.491 L176.852 809.014 L181.783 809.014 L181.783 812.902 L176.852 812.902 L176.852 821.051 L172.2 821.051 L172.2 812.902 L156.598 812.902 L156.598 808.389 L170.973 786.491 Z" fill="#000000" fill-rule="nonzero" fill-opacity="1" /><path clip-path="url(#clip540)" d="M115.256 536.702 L122.894 536.702 L122.894 510.337 L114.584 512.003 L114.584 507.744 L122.848 506.077 L127.524 506.077 L127.524 536.702 L135.163 536.702 L135.163 540.637 L115.256 540.637 L115.256 536.702 Z" fill="#000000" fill-rule="nonzero" fill-opacity="1" /><path clip-path="url(#clip540)" d="M144.607 534.758 L149.491 534.758 L149.491 540.637 L144.607 540.637 L144.607 534.758 Z" fill="#000000" fill-rule="nonzero" fill-opacity="1" /><path clip-path="url(#clip540)" d="M170.255 521.494 Q167.107 521.494 165.255 523.647 Q163.427 525.799 163.427 529.549 Q163.427 533.276 165.255 535.452 Q167.107 537.605 170.255 537.605 Q173.403 537.605 175.232 535.452 Q177.084 533.276 177.084 529.549 Q177.084 525.799 175.232 523.647 Q173.403 521.494 170.255 521.494 M179.538 506.841 L179.538 511.1 Q177.778 510.267 175.973 509.827 Q174.19 509.387 172.431 509.387 Q167.802 509.387 165.348 512.512 Q162.917 515.637 162.57 521.957 Q163.936 519.943 165.996 518.878 Q168.056 517.79 170.533 517.79 Q175.741 517.79 178.751 520.961 Q181.783 524.11 181.783 529.549 Q181.783 534.873 178.635 538.091 Q175.487 541.309 170.255 541.309 Q164.26 541.309 161.089 536.725 Q157.917 532.119 157.917 523.392 Q157.917 515.198 161.806 510.337 Q165.695 505.452 172.246 505.452 Q174.005 505.452 175.788 505.8 Q177.593 506.147 179.538 506.841 Z" fill="#000000" fill-rule="nonzero" fill-opacity="1" /><path clip-path="url(#clip540)" d="M115.51 256.289 L123.149 256.289 L123.149 229.923 L114.839 231.59 L114.839 227.331 L123.103 225.664 L127.779 225.664 L127.779 256.289 L135.417 256.289 L135.417 260.224 L115.51 260.224 L115.51 256.289 Z" fill="#000000" fill-rule="nonzero" fill-opacity="1" /><path clip-path="url(#clip540)" d="M144.862 254.345 L149.746 254.345 L149.746 260.224 L144.862 260.224 L144.862 254.345 Z" fill="#000000" fill-rule="nonzero" fill-opacity="1" /><path clip-path="url(#clip540)" d="M169.931 243.812 Q166.598 243.812 164.677 245.595 Q162.778 247.377 162.778 250.502 Q162.778 253.627 164.677 255.409 Q166.598 257.192 169.931 257.192 Q173.264 257.192 175.186 255.409 Q177.107 253.604 177.107 250.502 Q177.107 247.377 175.186 245.595 Q173.288 243.812 169.931 243.812 M165.255 241.821 Q162.246 241.081 160.556 239.021 Q158.89 236.96 158.89 233.997 Q158.89 229.854 161.829 227.447 Q164.792 225.039 169.931 225.039 Q175.093 225.039 178.033 227.447 Q180.973 229.854 180.973 233.997 Q180.973 236.96 179.283 239.021 Q177.616 241.081 174.63 241.821 Q178.01 242.608 179.885 244.9 Q181.783 247.192 181.783 250.502 Q181.783 255.525 178.704 258.21 Q175.649 260.895 169.931 260.895 Q164.214 260.895 161.135 258.21 Q158.079 255.525 158.079 250.502 Q158.079 247.192 159.978 244.9 Q161.876 242.608 165.255 241.821 M163.542 234.437 Q163.542 237.122 165.209 238.627 Q166.899 240.132 169.931 240.132 Q172.94 240.132 174.63 238.627 Q176.343 237.122 176.343 234.437 Q176.343 231.752 174.63 230.247 Q172.94 228.743 169.931 228.743 Q166.899 228.743 165.209 230.247 Q163.542 231.752 163.542 234.437 Z" fill="#000000" fill-rule="nonzero" fill-opacity="1" /><path clip-path="url(#clip540)" d="M20.1444 1028.58 L26.9239 1028.58 Q23.9002 1031.82 22.4043 1035.51 Q20.9083 1039.17 20.9083 1043.31 Q20.9083 1051.46 25.9054 1055.79 Q30.8707 1060.12 40.2919 1060.12 Q49.6813 1060.12 54.6784 1055.79 Q59.6436 1051.46 59.6436 1043.31 Q59.6436 1039.17 58.1477 1035.51 Q56.6518 1031.82 53.6281 1028.58 L60.3439 1028.58 Q62.6355 1031.95 63.7814 1035.74 Q64.9272 1039.49 64.9272 1043.69 Q64.9272 1054.48 58.3387 1060.69 Q51.7183 1066.9 40.2919 1066.9 Q28.8336 1066.9 22.2451 1060.69 Q15.6248 1054.48 15.6248 1043.69 Q15.6248 1039.43 16.7706 1035.67 Q17.8846 1031.89 20.1444 1028.58 Z" fill="#000000" fill-rule="nonzero" fill-opacity="1" /><path clip-path="url(#clip540)" d="M49.9359 1019.5 L28.3562 1019.5 L28.3562 1013.65 L49.7131 1013.65 Q54.7739 1013.65 57.3202 1011.67 Q59.8346 1009.7 59.8346 1005.75 Q59.8346 1001.01 56.8109 998.275 Q53.7872 995.506 48.5673 995.506 L28.3562 995.506 L28.3562 989.649 L64.0042 989.649 L64.0042 995.506 L58.5296 995.506 Q61.7762 997.638 63.3676 1000.47 Q64.9272 1003.27 64.9272 1007 Q64.9272 1013.14 61.1078 1016.32 Q57.2883 1019.5 49.9359 1019.5 M27.4968 1004.77 L27.4968 1004.77 Z" fill="#000000" fill-rule="nonzero" fill-opacity="1" /><path clip-path="url(#clip540)" d="M35.1993 949.832 Q31.2526 947.636 29.3747 944.58 Q27.4968 941.525 27.4968 937.387 Q27.4968 931.817 31.4117 928.793 Q35.2948 925.769 42.4881 925.769 L64.0042 925.769 L64.0042 931.658 L42.679 931.658 Q37.5546 931.658 35.072 933.472 Q32.5894 935.286 32.5894 939.01 Q32.5894 943.562 35.6131 946.203 Q38.6368 948.845 43.8567 948.845 L64.0042 948.845 L64.0042 954.733 L42.679 954.733 Q37.5228 954.733 35.072 956.548 Q32.5894 958.362 32.5894 962.149 Q32.5894 966.637 35.6449 969.279 Q38.6686 971.921 43.8567 971.921 L64.0042 971.921 L64.0042 977.809 L28.3562 977.809 L28.3562 971.921 L33.8944 971.921 Q30.616 969.916 29.0564 967.115 Q27.4968 964.314 27.4968 960.462 Q27.4968 956.579 29.4702 953.874 Q31.4436 951.137 35.1993 949.832 Z" fill="#000000" fill-rule="nonzero" fill-opacity="1" /><path clip-path="url(#clip540)" d="M35.1993 886.334 Q31.2526 884.138 29.3747 881.082 Q27.4968 878.027 27.4968 873.889 Q27.4968 868.319 31.4117 865.295 Q35.2948 862.271 42.4881 862.271 L64.0042 862.271 L64.0042 868.16 L42.679 868.16 Q37.5546 868.16 35.072 869.974 Q32.5894 871.788 32.5894 875.512 Q32.5894 880.064 35.6131 882.705 Q38.6368 885.347 43.8567 885.347 L64.0042 885.347 L64.0042 891.235 L42.679 891.235 Q37.5228 891.235 35.072 893.05 Q32.5894 894.864 32.5894 898.651 Q32.5894 903.139 35.6449 905.781 Q38.6686 908.423 43.8567 908.423 L64.0042 908.423 L64.0042 914.311 L28.3562 914.311 L28.3562 908.423 L33.8944 908.423 Q30.616 906.418 29.0564 903.617 Q27.4968 900.816 27.4968 896.965 Q27.4968 893.081 29.4702 890.376 Q31.4436 887.639 35.1993 886.334 Z" fill="#000000" fill-rule="nonzero" fill-opacity="1" /><path clip-path="url(#clip540)" d="M49.9359 851.195 L28.3562 851.195 L28.3562 845.339 L49.7131 845.339 Q54.7739 845.339 57.3202 843.365 Q59.8346 841.392 59.8346 837.445 Q59.8346 832.703 56.8109 829.966 Q53.7872 827.196 48.5673 827.196 L28.3562 827.196 L28.3562 821.34 L64.0042 821.34 L64.0042 827.196 L58.5296 827.196 Q61.7762 829.329 63.3676 832.162 Q64.9272 834.963 64.9272 838.687 Q64.9272 844.829 61.1078 848.012 Q57.2883 851.195 49.9359 851.195 M27.4968 836.459 L27.4968 836.459 Z" fill="#000000" fill-rule="nonzero" fill-opacity="1" /><path clip-path="url(#clip540)" d="M14.479 809.277 L14.479 803.421 L64.0042 803.421 L64.0042 809.277 L14.479 809.277 Z" fill="#000000" fill-rule="nonzero" fill-opacity="1" /><path clip-path="url(#clip540)" d="M46.0847 774.966 Q46.0847 782.064 47.7079 784.801 Q49.3312 787.538 53.2461 787.538 Q56.3653 787.538 58.2114 785.501 Q60.0256 783.432 60.0256 779.899 Q60.0256 775.029 56.5881 772.101 Q53.1188 769.141 47.3897 769.141 L46.0847 769.141 L46.0847 774.966 M43.6657 763.285 L64.0042 763.285 L64.0042 769.141 L58.5933 769.141 Q61.8398 771.146 63.3994 774.138 Q64.9272 777.13 64.9272 781.459 Q64.9272 786.933 61.8716 790.18 Q58.7843 793.395 53.6281 793.395 Q47.6125 793.395 44.5569 789.384 Q41.5014 785.342 41.5014 777.353 L41.5014 769.141 L40.9285 769.141 Q36.8862 769.141 34.6901 771.815 Q32.4621 774.457 32.4621 779.263 Q32.4621 782.318 33.1941 785.215 Q33.9262 788.111 35.3903 790.785 L29.9795 790.785 Q28.7381 787.57 28.1334 784.546 Q27.4968 781.522 27.4968 778.658 Q27.4968 770.924 31.5072 767.104 Q35.5176 763.285 43.6657 763.285 Z" fill="#000000" fill-rule="nonzero" fill-opacity="1" /><path clip-path="url(#clip540)" d="M18.2347 745.429 L28.3562 745.429 L28.3562 733.366 L32.9077 733.366 L32.9077 745.429 L52.2594 745.429 Q56.6199 745.429 57.8613 744.251 Q59.1026 743.042 59.1026 739.382 L59.1026 733.366 L64.0042 733.366 L64.0042 739.382 Q64.0042 746.161 61.4897 748.739 Q58.9434 751.317 52.2594 751.317 L32.9077 751.317 L32.9077 755.614 L28.3562 755.614 L28.3562 751.317 L18.2347 751.317 L18.2347 745.429 Z" fill="#000000" fill-rule="nonzero" fill-opacity="1" /><path clip-path="url(#clip540)" d="M28.3562 725.663 L28.3562 719.807 L64.0042 719.807 L64.0042 725.663 L28.3562 725.663 M14.479 725.663 L14.479 719.807 L21.895 719.807 L21.895 725.663 L14.479 725.663 Z" fill="#000000" fill-rule="nonzero" fill-opacity="1" /><path clip-path="url(#clip540)" d="M28.3562 711.754 L28.3562 705.548 L58.275 694.408 L28.3562 683.268 L28.3562 677.061 L64.0042 690.429 L64.0042 698.386 L28.3562 711.754 Z" fill="#000000" fill-rule="nonzero" fill-opacity="1" /><path clip-path="url(#clip540)" d="M44.7161 638.485 L47.5806 638.485 L47.5806 665.412 Q53.6281 665.03 56.8109 661.784 Q59.9619 658.505 59.9619 652.681 Q59.9619 649.307 59.1344 646.156 Q58.3069 642.973 56.6518 639.854 L62.1899 639.854 Q63.5267 643.005 64.227 646.315 Q64.9272 649.625 64.9272 653.031 Q64.9272 661.561 59.9619 666.558 Q54.9967 671.523 46.5303 671.523 Q37.7774 671.523 32.6531 666.812 Q27.4968 662.07 27.4968 654.049 Q27.4968 646.856 32.1438 642.686 Q36.7589 638.485 44.7161 638.485 M42.9973 644.342 Q38.1912 644.405 35.3266 647.047 Q32.4621 649.657 32.4621 653.986 Q32.4621 658.887 35.2312 661.847 Q38.0002 664.775 43.0292 665.221 L42.9973 644.342 Z" fill="#000000" fill-rule="nonzero" fill-opacity="1" /><path clip-path="url(#clip540)" d="M41.7242 585.363 Q42.4244 583.294 44.7161 581.353 Q47.0077 579.379 51.0181 577.406 L64.0042 570.881 L64.0042 577.788 L51.8138 583.867 Q47.0395 586.223 45.48 588.451 Q43.9204 590.647 43.9204 594.466 L43.9204 601.468 L64.0042 601.468 L64.0042 607.898 L16.4842 607.898 L16.4842 593.384 Q16.4842 585.236 19.8898 581.226 Q23.2955 577.215 30.1704 577.215 Q34.6582 577.215 37.6183 579.316 Q40.5784 581.385 41.7242 585.363 M21.7677 601.468 L38.6368 601.468 L38.6368 593.384 Q38.6368 588.737 36.5043 586.382 Q34.34 583.995 30.1704 583.995 Q26.0009 583.995 23.9002 586.382 Q21.7677 588.737 21.7677 593.384 L21.7677 601.468 Z" fill="#000000" fill-rule="nonzero" fill-opacity="1" /><path clip-path="url(#clip540)" d="M44.7161 535.297 L47.5806 535.297 L47.5806 562.224 Q53.6281 561.842 56.8109 558.595 Q59.9619 555.317 59.9619 549.492 Q59.9619 546.119 59.1344 542.968 Q58.3069 539.785 56.6518 536.666 L62.1899 536.666 Q63.5267 539.817 64.227 543.127 Q64.9272 546.437 64.9272 549.843 Q64.9272 558.373 59.9619 563.37 Q54.9967 568.335 46.5303 568.335 Q37.7774 568.335 32.6531 563.624 Q27.4968 558.882 27.4968 550.861 Q27.4968 543.668 32.1438 539.498 Q36.7589 535.297 44.7161 535.297 M42.9973 541.153 Q38.1912 541.217 35.3266 543.859 Q32.4621 546.469 32.4621 550.797 Q32.4621 555.699 35.2312 558.659 Q38.0002 561.587 43.0292 562.033 L42.9973 541.153 Z" fill="#000000" fill-rule="nonzero" fill-opacity="1" /><path clip-path="url(#clip540)" d="M18.2347 519.892 L28.3562 519.892 L28.3562 507.829 L32.9077 507.829 L32.9077 519.892 L52.2594 519.892 Q56.6199 519.892 57.8613 518.714 Q59.1026 517.505 59.1026 513.845 L59.1026 507.829 L64.0042 507.829 L64.0042 513.845 Q64.0042 520.624 61.4897 523.202 Q58.9434 525.78 52.2594 525.78 L32.9077 525.78 L32.9077 530.077 L28.3562 530.077 L28.3562 525.78 L18.2347 525.78 L18.2347 519.892 Z" fill="#000000" fill-rule="nonzero" fill-opacity="1" /><path clip-path="url(#clip540)" d="M49.9359 500.731 L28.3562 500.731 L28.3562 494.875 L49.7131 494.875 Q54.7739 494.875 57.3202 492.901 Q59.8346 490.928 59.8346 486.981 Q59.8346 482.239 56.8109 479.502 Q53.7872 476.732 48.5673 476.732 L28.3562 476.732 L28.3562 470.876 L64.0042 470.876 L64.0042 476.732 L58.5296 476.732 Q61.7762 478.865 63.3676 481.698 Q64.9272 484.499 64.9272 488.223 Q64.9272 494.365 61.1078 497.548 Q57.2883 500.731 49.9359 500.731 M27.4968 485.995 L27.4968 485.995 Z" fill="#000000" fill-rule="nonzero" fill-opacity="1" /><path clip-path="url(#clip540)" d="M33.8307 438.156 Q33.2578 439.143 33.0032 440.321 Q32.7167 441.466 32.7167 442.867 Q32.7167 447.832 35.9632 450.506 Q39.1779 453.148 45.2253 453.148 L64.0042 453.148 L64.0042 459.036 L28.3562 459.036 L28.3562 453.148 L33.8944 453.148 Q30.6479 451.301 29.0883 448.341 Q27.4968 445.381 27.4968 441.148 Q27.4968 440.543 27.5923 439.811 Q27.656 439.079 27.8151 438.188 L33.8307 438.156 Z" fill="#000000" fill-rule="nonzero" fill-opacity="1" /><path clip-path="url(#clip540)" d="M42.4881 403.527 L64.0042 403.527 L64.0042 409.383 L42.679 409.383 Q37.6183 409.383 35.1038 411.357 Q32.5894 413.33 32.5894 417.277 Q32.5894 422.019 35.6131 424.756 Q38.6368 427.494 43.8567 427.494 L64.0042 427.494 L64.0042 433.382 L28.3562 433.382 L28.3562 427.494 L33.8944 427.494 Q30.6797 425.393 29.0883 422.56 Q27.4968 419.696 27.4968 415.972 Q27.4968 409.829 31.3163 406.678 Q35.1038 403.527 42.4881 403.527 Z" fill="#000000" fill-rule="nonzero" fill-opacity="1" /><polyline clip-path="url(#clip542)" style="stroke:#009af9; stroke-linecap:round; stroke-linejoin:round; stroke-width:4; stroke-opacity:1; fill:none" points="278.207,1372.98 279.589,1354.32 283.736,1327.49 285.119,1315.12 286.501,1316.66 287.883,1304.65 289.266,1302.14 293.413,1331.42 294.795,1334.21 296.178,1325.82 297.56,1323.27 298.942,1317.45 304.472,1329.92 305.854,1326.12 307.237,1332.31 308.619,1320 312.766,1328.23 314.149,1321.78 315.531,1303.77 316.913,1301.35 318.296,1293.27 322.443,1281.24 323.825,1286.2 325.208,1286.66 326.59,1288.34 327.972,1281.94 332.119,1281.25 333.502,1276.08 334.884,1269.27 336.267,1266.6 337.649,1260.7 343.178,1258.2 344.561,1257.26 345.943,1252.22 347.326,1226.97 351.473,1226.83 352.855,1235.23 354.238,1249.93 355.62,1254.98 357.002,1249.52 361.149,1250.46 362.532,1238.68 363.914,1246.32 365.297,1245.84 366.679,1249.52 370.768,1244.95 372.151,1237.36 373.533,1230.34 374.916,1269.63 376.298,1248.74 380.445,1249.68 381.827,1249.21 383.21,1254.88 384.592,1249.1 385.975,1265.3 390.122,1261.16 391.504,1262.23 392.887,1273.5 394.269,1265.03 395.651,1259.53 399.798,1255.54 401.181,1260.05 402.563,1254.31 403.946,1243.76 405.328,1232.58 409.475,1229.2 410.857,1231.19 412.24,1225.07 413.622,1221.38 415.005,1217.97 419.152,1215.52 420.534,1217.22 421.916,1211.86 423.299,1208.61 428.828,1197.23 430.211,1195.38 431.593,1205.67 432.975,1203.91 434.358,1205.5 438.505,1203.39 439.887,1191.28 441.27,1196.58 442.652,1197.2 444.035,1174.38 448.182,1187.72 449.564,1195.75 450.946,1194.45 452.329,1195.89 453.711,1200.46 457.858,1233.21 459.241,1229.36 460.623,1221.17 462.005,1208.13 463.388,1204.82 467.535,1209.41 468.917,1194.46 470.3,1202.11 471.682,1226.07 473.064,1225.45 478.594,1248.65 479.976,1263.64 481.359,1211.95 482.741,1224.36 486.888,1212.07 488.271,1192.32 489.653,1196.33 491.035,1181.75 492.418,1168.83 496.565,1158.15 497.947,1157.1 499.33,1149.02 500.712,1140.96 502.094,1146.4 506.242,1145.34 507.624,1132.1 509.006,1125.17 510.389,1121.67 511.771,1131.11 515.918,1135.55 517.301,1144.06 518.683,1143.53 520.065,1137.56 521.448,1144.49 525.595,1129.05 526.977,1117.02 528.36,1105.87 531.124,1093.02 535.272,1105.62 536.654,1098.42 538.036,1086.58 539.419,1081.97 540.801,1066.16 544.948,1068.83 546.331,1054.01 547.713,1062.72 549.095,1070.63 550.478,1076.84 554.625,1091.29 556.007,1088.97 557.39,1074.45 558.772,1083.65 560.154,1058.19 564.301,1072.7 565.684,1089.03 567.066,1088.4 568.449,1090.57 569.831,1073.19 573.978,1101.82 575.36,1082.47 576.743,1081.09 578.125,1055.54 579.508,1060.87 583.655,1069.86 585.037,1063.36 586.42,1074.17 587.802,1073.68 589.184,1050.85 593.331,1027.56 594.714,1035.17 596.096,1024.14 597.479,1024.91 598.861,1045.05 603.008,1026.73 604.39,1038.51 605.773,1022.49 607.155,947.331 608.538,949.966 614.067,940.516 615.449,921.227 616.832,911.4 618.214,896.362 622.361,904.711 623.744,924.682 625.126,918.827 626.508,917.572 627.891,915.758 632.038,934.88 633.42,898.922 634.803,910.91 636.185,912.212 637.568,927.882 641.715,919.618 643.097,925.96 644.479,920.644 645.862,914.554 647.244,911.613 651.391,912.706 652.774,920.313 654.156,926.956 655.538,924.802 656.921,907.767 661.068,907.479 662.45,917.938 663.833,912.452 665.215,911.371 666.597,902.803 670.745,903.788 672.127,895.185 673.509,907.587 674.892,893.054 676.274,891.085 680.421,891.505 681.804,890.789 683.186,902.465 684.568,889.326 685.951,888.042 690.098,886.802 691.48,901.309 692.863,880.995 694.245,876.812 695.627,874.328 699.832,883.24 701.215,871.622 702.597,877.75 703.979,877.195 705.362,879.834 709.509,880.853 710.891,877.743 712.274,873.374 713.656,853.589 715.038,851.412 719.185,852.193 720.568,858.447 721.95,857.725 723.333,855.839 724.715,861.85 728.862,856.984 730.244,863.538 731.627,853.846 734.392,866.622 738.539,887.469 739.921,906.534 741.303,900.682 742.686,903.083 744.068,899.053 748.215,900.909 749.598,889.727 750.98,899.323 752.363,877.773 753.745,877.637 757.892,884.884 759.274,881.308 760.657,880.035 762.039,870.093 763.422,866.97 767.569,855.588 768.951,852.436 771.716,851.148 773.098,846.646 777.245,847.9 778.628,849.168 781.392,847.996 782.775,858.024 786.922,861.011 788.304,874.594 789.687,879.775 791.069,870.879 792.451,870.633 796.599,864.446 797.981,848.256 799.363,847.984 800.746,830.499 802.128,829.937 807.658,832.123 809.04,836.703 810.422,829.451 811.805,843.469 815.952,856.313 817.334,845.711 818.717,852.339 820.099,853.651 821.481,872.438 825.629,851.569 827.011,838.17 828.393,838.881 829.776,844.32 831.158,854.625 835.305,842.961 836.688,839.174 838.07,822.08 839.452,815.497 840.835,822.88 846.364,809.71 847.747,797.386 849.129,788.239 850.511,792.988 854.659,820.574 856.041,847.102 857.423,848.952 858.806,901.312 860.188,949.091 864.335,882.864 865.718,917.585 867.1,887.402 868.482,909.281 869.865,918.987 873.954,967.973 875.337,888.72 876.719,978.451 878.101,1139.16 879.484,1075.89 883.631,1269.77 885.013,1172.42 886.396,1335.12 887.778,1357.42 889.16,1356.85 893.308,1384.24 894.69,1215.31 896.072,1207.83 897.455,1174.38 898.837,1236.62 902.984,1206.24 904.367,1187.72 905.749,1187.03 907.131,1142.89 908.514,1152 912.661,1084.97 914.043,1082.09 915.426,1056.34 916.808,1011.37 922.337,1005.32 923.72,952.724 925.102,972.731 926.485,909.139 927.867,864.39 932.014,919.806 933.397,982.315 934.779,957.962 936.161,938.048 937.544,962.41 941.691,933.593 943.073,933.618 944.456,901.89 945.838,906.932 947.22,950.589 951.367,942.506 952.75,980.768 954.132,969.822 955.515,990.815 956.897,966.559 961.044,928.618 962.426,938.09 963.809,950.71 965.191,954.354 966.574,943.167 970.721,894.168 972.103,895.598 973.485,893.162 974.868,883.138 976.25,879.93 981.78,849.255 983.162,795.866 984.545,828.555 985.927,806.745 990.074,766.507 991.456,767.853 992.839,761.859 994.221,783.352 995.604,757.4 999.751,738.278 1001.13,750.179 1002.52,743.502 1003.9,818.925 1005.28,816.27 1009.43,780.496 1010.81,769.939 1012.19,781.122 1013.57,770.738 1014.96,789.824 1019.1,751.155 1020.49,777.463 1021.87,788.757 1023.25,781.664 1024.63,806.479 1028.78,790.384 1030.16,788.248 1031.55,792.82 1032.93,796.086 1038.46,807.622 1039.84,804.452 1041.22,807.351 1042.6,798.927 1043.99,804.418 1048.13,824.021 1049.52,802.77 1050.9,783.53 1052.28,797.294 1053.66,803.442 1057.81,790.199 1059.19,789.189 1060.58,771.96 1061.96,786.686 1063.34,780.253 1067.49,787.673 1068.87,798.662 1070.25,793.484 1071.63,792.188 1073.02,799.071 1077.16,781.092 1078.55,766.828 1079.93,764.455 1081.31,773.345 1082.69,755.575 1086.84,749.765 1088.22,755.857 1089.61,728.241 1090.99,728.186 1092.37,714.153 1096.52,698.448 1097.9,714.754 1099.28,708.302 1100.66,736.817 1102.05,729.871 1106.19,727.014 1107.58,723.026 1108.96,715.583 1110.34,730.815 1111.72,720.397 1115.87,719.364 1117.25,733.876 1118.64,705.164 1120.02,755.22 1121.4,767.844 1126.93,772.497 1128.31,752.125 1129.69,772.349 1131.08,757.837 1135.22,728.506 1136.61,750.588 1137.99,745.054 1139.37,747.254 1140.75,742.85 1144.9,786.166 1146.28,768.821 1147.67,793.889 1149.05,794.299 1150.43,782.078 1154.58,761.074 1155.96,759.023 1157.34,752.836 1158.72,729.774 1160.11,740.676 1164.25,725.62 1165.64,732.284 1167.02,702.295 1168.4,665.196 1169.78,663.439 1173.93,665.341 1175.31,658.823 1176.7,673.138 1178.08,666.493 1179.46,686.13 1183.61,705.53 1184.99,702.119 1186.37,692.935 1187.75,704.586 1189.14,701.944 1193.28,743.175 1194.67,726.691 1196.05,767.745 1197.43,746.949 1198.81,760.926 1203.02,742.062 1204.4,708.206 1205.78,689.236 1207.17,662.669 1208.55,647.119 1212.69,679.839 1214.08,686.793 1215.46,648.492 1216.84,602.777 1218.22,585.424 1222.37,542.566 1223.75,561.973 1225.14,573.629 1226.52,564.534 1227.9,563.898 1232.05,556.411 1233.43,539.433 1234.81,532.211 1237.58,529.585 1241.72,548.742 1243.11,536.951 1244.49,544.082 1245.87,542.631 1247.25,560.913 1251.4,544.037 1252.78,552.256 1254.17,567.274 1255.55,563.218 1256.93,578.205 1261.08,579.239 1262.46,564.875 1263.84,554.665 1265.22,551.512 1266.61,563.033 1270.75,565.206 1272.14,551.659 1273.52,568.181 1274.9,565.654 1280.43,562.835 1281.81,558.423 1283.2,552.047 1284.58,541.261 1290.11,559.686 1291.49,565.297 1292.87,507.805 1294.25,507.236 1295.64,534.87 1299.78,549.792 1301.17,533.941 1302.55,509.379 1303.93,530.604 1305.31,536.355 1310.84,546.917 1312.23,535.362 1313.61,547.358 1314.99,544.681 1319.14,537.263 1320.52,510.286 1321.9,537.634 1323.28,571.422 1324.67,604.146 1328.81,601.412 1330.2,593.64 1331.58,591.187 1332.96,582.554 1334.34,583.443 1338.49,547.889 1339.87,525.639 1341.26,535.992 1342.64,542.638 1344.02,547.796 1349.55,546.806 1350.93,542.848 1352.31,533.178 1353.7,536.678 1357.84,540.044 1359.23,576.86 1360.61,578.068 1361.99,609.102 1363.37,594.838 1367.52,570.992 1368.9,603.754 1370.29,625.112 1371.67,666.574 1373.05,650.634 1377.2,637.489 1378.58,618.247 1379.96,602.808 1381.34,578.903 1382.73,560.117 1386.82,535.779 1388.2,526.569 1389.58,552.517 1390.96,618.012 1392.35,576.724 1396.49,533.28 1397.88,524.42 1399.26,535.857 1400.64,524.317 1402.02,491.207 1406.17,500.416 1407.55,504.179 1408.93,499.152 1410.32,476.312 1415.85,439.263 1417.23,434.254 1418.61,431.064 1419.99,418.316 1421.38,407.221 1425.52,411.877 1426.91,400.75 1428.29,396.144 1429.67,393.244 1431.05,392.573 1435.2,397.41 1436.58,386.199 1437.96,386.203 1439.35,393.074 1440.73,392.088 1444.88,383.967 1446.26,375.829 1447.64,387.799 1449.02,357.695 1450.41,364.631 1454.55,349.102 1455.94,358.147 1457.32,360.102 1458.7,350.101 1460.08,333.231 1464.23,347.573 1465.61,382.538 1466.99,428.522 1468.38,414.767 1469.76,396.119 1473.91,407.019 1475.29,406.776 1476.67,436.678 1478.05,407.274 1479.44,415.086 1483.58,430.31 1484.97,435.972 1486.35,420.541 1487.73,381.13 1489.11,390.359 1494.64,390.514 1496.02,375.675 1497.41,364.008 1498.79,349.636 1502.94,339.438 1504.32,320.02 1505.7,341.883 1507.08,344.254 1508.47,326.067 1512.61,322.059 1514,315.183 1515.38,316.174 1516.76,314.111 1518.14,331.288 1522.29,325.27 1523.67,323.066 1525.05,331.083 1526.44,326.508 1527.82,328.151 1531.97,317.295 1533.35,305.166 1534.73,299.357 1536.11,285.663 1537.5,272.632 1543.03,275.115 1544.41,259.505 1545.79,278.958 1547.17,264.128 1551.32,267.878 1552.7,269.538 1554.08,261.799 1555.47,270.883 1556.85,280.067 1561,292.023 1562.38,241.391 1563.76,248.297 1565.14,243.188 1566.53,220.282 1570.67,224.2 1572.06,201.139 1573.44,216.308 1574.82,208.186 1576.2,202.908 1580.35,210.997 1581.73,212.795 1583.11,209.804 1584.5,193.647 1585.88,190.201 1590.03,215.596 1591.41,211.02 1592.79,205.495 1594.17,206.044 1595.56,196.726 1599.7,188.77 1601.09,220.468 1602.47,244.18 1603.85,246.186 1605.23,226.256 1609.38,223.934 1610.76,228.369 1612.14,203.721 1613.53,257.258 1614.91,261.283 1619.06,261.013 1620.44,273.889 1621.82,269.638 1623.2,251.425 1624.59,266.211 1630.12,287.719 1631.5,274.201 1632.88,293.988 1634.26,310.103 1638.41,301.799 1639.79,320.004 1641.17,301.294 1642.56,281.106 1643.94,269.714 1648.09,274.354 1649.47,295.354 1650.85,292.387 1652.23,280.45 1653.62,280.523 1657.76,282.718 1659.15,297.592 1660.53,302.649 1661.91,329.946 1663.29,332.088 1667.44,352.246 1668.82,352.861 1670.2,354.969 1671.59,320.068 1672.97,345.572 1677.12,353.108 1678.5,353.733 1679.88,355.143 1681.26,319.191 1682.65,310.911 1686.79,313.145 1688.18,319.351 1689.56,292.144 1690.94,278.485 1692.32,271.036 1696.47,262.448 1697.85,274.357 1699.23,281.921 1700.62,254.897 1702,261.818 1706.15,229.947 1707.53,224.867 1708.91,197.16 1710.29,186.462 1711.68,171.817 1715.88,193.726 1717.26,207.235 1718.65,210.4 1720.03,194.629 1721.41,175.55 1725.56,151.481 1726.94,130.984 1728.32,154.949 1729.7,171.607 1731.09,181.471 1735.23,187.941 1736.62,179.417 1738,185.148 1740.76,203.487 1744.91,192.144 1746.29,224.151 1747.68,232.78 1749.06,239.926 1750.44,225.203 1754.59,199.628 1755.97,180.575 1757.35,196.299 1758.73,204.642 1760.12,189.211 1764.26,187.258 1765.65,191.539 1767.03,176.127 1768.41,191.292 1769.79,215.689 1773.94,226.594 1775.32,204.541 1776.7,212.626 1778.09,185.008 1783.62,170.613 1785,160.623 1786.38,131.609 1787.76,117.366 1789.15,114.16 1793.29,117.74 1794.68,144.234 1796.06,154.132 1797.44,141.128 1798.82,144.485 1802.97,150.305 1804.35,169.981 1805.73,166.908 1807.12,184.145 1808.5,228.637 1814.03,233.905 1815.41,231.644 1816.79,294.664 1818.18,311.688 1822.32,283.112 1823.71,304.856 1825.09,339.658 1826.47,325.251 1827.85,315.368 1832,280.763 1833.38,260.68 1834.76,280.334 1836.15,289.054 1837.53,308.805 1841.68,315.503 1843.06,282.278 1844.44,264.301 1845.82,295.462 1847.21,317.852 1851.35,327.042 1852.74,325.419 1854.12,332.034 1855.5,343.818 1856.88,326.542 1862.41,379.938 1863.79,411.68 1865.18,388.829 1866.56,331.341 1870.71,329.162 1872.09,333.809 1873.47,291.68 1874.85,291.903 1876.24,277.738 1880.38,331.289 1881.77,352.536 1883.15,330.156 1884.53,331.177 1885.91,363.031 1890,368.147 1891.38,336.99 1892.77,336.012 1894.15,266.483 1895.53,219.736 1899.68,219.526 1901.06,211.386 1902.44,242.268 1903.83,235.048 1905.21,217.634 1909.36,188.95 1910.74,177.866 1912.12,181.602 1913.5,205.046 1914.89,189.141 1919.03,178.524 1920.41,184.518 1921.8,154.129 1923.18,147.937 1924.56,140.823 1928.71,160.774 1930.09,165.103 1931.47,148.143 1932.86,155.287 1938.39,155.248 1939.77,112.838 1941.15,96.173 1942.53,134.996 1943.92,178.836 1948.06,183.003 1949.44,218.716 1950.83,227.701 1952.21,200.69 1953.59,281.732 1957.74,270.985 1959.12,267.032 1960.5,219.104 1961.89,281.395 1963.27,287.897 1967.42,323.56 1968.8,352.825 1970.18,364.448 1971.56,361.152 1972.95,331.159 1977.09,327.621 1978.47,329.414 1979.86,452.156 1981.24,457.702 1982.62,513.723 1986.77,471.233 1988.15,477.019 1989.53,467.951 1990.92,322.573 1992.3,275.645 1997.83,301.342 1999.21,330.649 2000.59,282.288 2001.98,291.075 2006.12,263.357 2007.5,254.501 2008.89,265.899 2010.27,246.585 2011.65,282.271 2015.8,352.03 2017.18,344.531 2018.56,317.091 2019.95,363.332 2021.33,365.558 2026.86,329.499 2028.24,324.4 2029.62,293.259 2031.01,243.569 2035.15,250.613 2036.53,287.45 2037.92,290.905 2039.3,293.14 2040.68,272.336 2046.21,250.864 2047.59,246.759 2048.98,225.097 2050.36,216.123 2054.51,210.572 2055.89,235.408 2057.27,231.852 2058.65,224.455 2060.03,243.827 2064.18,227.832 2065.56,203.312 2066.95,190.818 2068.33,197.372 2069.71,207.081 2073.86,206.735 2075.24,248.999 2076.62,213.196 2078.01,183.911 2079.39,159.842 2083.54,136.787 2084.92,133.095 2086.3,92.3542 2087.68,110.803 2089.06,124.66 2093.21,97.3342 2094.59,109.619 2095.98,89.8062 2097.36,88.9431 2098.74,86.1857 2102.89,92.3284 2104.27,86.663 2105.65,107.93 2107.04,104.95 2108.42,102.002 2112.57,166.098 2113.95,159.698 2115.33,154.591 2116.71,166.065 2118.09,251.523 2122.24,255.561 2123.62,272.85 2125.01,283.074 2126.39,252.722 2127.77,266.279 2133.3,273.421 2134.68,216.281 2136.07,196.579 2137.45,172.32 2141.6,149.958 2142.98,208.479 2144.36,235.199 2145.74,256.884 2147.12,256.272 2151.27,237.511 2152.65,250.046 2154.04,280.381 2155.42,305.515 2156.8,303.258 2160.95,334.452 2162.33,338.436 2163.71,295.425 2165.1,347.122 2166.48,348.905 2170.63,305.91 2172.01,263.037 2173.39,290.864 2174.77,283.64 2176.15,307.397 2180.3,309.094 2181.68,290.929 2183.07,297.792 2184.45,258.798 2185.83,298.61 2189.98,285.185 2191.36,271.013 2192.74,279.49 2194.13,289.122 2195.51,260.107 2199.66,257.749 2201.04,228.195 2202.42,229.441 2203.8,238.769 2205.18,201.52 2209.33,229.992 2210.71,242.127 2212.1,270.867 2213.48,274.451 2214.86,250.02 2219.07,229.938 2220.45,221.789 2221.83,267.798 2223.21,197.954 2224.6,204.2 2228.74,214.416 2230.13,166.408 2231.51,170.312 2232.89,175.088 2234.27,156.955 2238.42,113.094 2239.8,99.2308 2241.18,94.0849 2243.95,91.9024 2248.1,128.989 2249.48,149.032 2250.86,129.087 2252.24,192.042 2253.63,173.142 2257.77,184.59 2259.16,186.665 2260.54,165.157 2261.92,166.19 2263.3,186.613 2267.45,178.847 2268.83,189.465 2270.21,180.255 2271.6,203.141 2272.98,197.619 2277.13,221.547 2278.51,227.914 2279.89,197.095 2281.27,193.797 2282.66,176.938 2288.19,191.414 2289.57,195.261 2290.95,160.25 2292.33,160.471 "/>
</svg>
