<?xml version="1.0" encoding="utf-8"?>
<svg xmlns="http://www.w3.org/2000/svg" xmlns:xlink="http://www.w3.org/1999/xlink" width="600" height="400" viewBox="0 0 2400 1600">
<defs>
  <clipPath id="clip020">
    <rect x="0" y="0" width="2400" height="1600"/>
  </clipPath>
</defs>
<path clip-path="url(#clip020)" d="M0 1600 L2400 1600 L2400 0 L0 0  Z" fill="#ffffff" fill-rule="evenodd" fill-opacity="1"/>
<defs>
  <clipPath id="clip021">
    <rect x="480" y="0" width="1681" height="1600"/>
  </clipPath>
</defs>
<path clip-path="url(#clip020)" d="M205.121 1369.92 L2352.76 1369.92 L2352.76 47.2441 L205.121 47.2441  Z" fill="#ffffff" fill-rule="evenodd" fill-opacity="1"/>
<defs>
  <clipPath id="clip022">
    <rect x="205" y="47" width="2149" height="1324"/>
  </clipPath>
</defs>
<polyline clip-path="url(#clip022)" style="stroke:#000000; stroke-linecap:round; stroke-linejoin:round; stroke-width:2; stroke-opacity:0.1; fill:none" points="354.074,1369.92 354.074,47.2441 "/>
<polyline clip-path="url(#clip022)" style="stroke:#000000; stroke-linecap:round; stroke-linejoin:round; stroke-width:2; stroke-opacity:0.1; fill:none" points="431.146,1369.92 431.146,47.2441 "/>
<polyline clip-path="url(#clip022)" style="stroke:#000000; stroke-linecap:round; stroke-linejoin:round; stroke-width:2; stroke-opacity:0.1; fill:none" points="508.218,1369.92 508.218,47.2441 "/>
<polyline clip-path="url(#clip022)" style="stroke:#000000; stroke-linecap:round; stroke-linejoin:round; stroke-width:2; stroke-opacity:0.1; fill:none" points="585.29,1369.92 585.29,47.2441 "/>
<polyline clip-path="url(#clip022)" style="stroke:#000000; stroke-linecap:round; stroke-linejoin:round; stroke-width:2; stroke-opacity:0.1; fill:none" points="662.362,1369.92 662.362,47.2441 "/>
<polyline clip-path="url(#clip022)" style="stroke:#000000; stroke-linecap:round; stroke-linejoin:round; stroke-width:2; stroke-opacity:0.1; fill:none" points="739.434,1369.92 739.434,47.2441 "/>
<polyline clip-path="url(#clip022)" style="stroke:#000000; stroke-linecap:round; stroke-linejoin:round; stroke-width:2; stroke-opacity:0.1; fill:none" points="816.506,1369.92 816.506,47.2441 "/>
<polyline clip-path="url(#clip022)" style="stroke:#000000; stroke-linecap:round; stroke-linejoin:round; stroke-width:2; stroke-opacity:0.1; fill:none" points="893.578,1369.92 893.578,47.2441 "/>
<polyline clip-path="url(#clip022)" style="stroke:#000000; stroke-linecap:round; stroke-linejoin:round; stroke-width:2; stroke-opacity:0.1; fill:none" points="970.65,1369.92 970.65,47.2441 "/>
<polyline clip-path="url(#clip022)" style="stroke:#000000; stroke-linecap:round; stroke-linejoin:round; stroke-width:2; stroke-opacity:0.1; fill:none" points="1047.72,1369.92 1047.72,47.2441 "/>
<polyline clip-path="url(#clip022)" style="stroke:#000000; stroke-linecap:round; stroke-linejoin:round; stroke-width:2; stroke-opacity:0.1; fill:none" points="1124.79,1369.92 1124.79,47.2441 "/>
<polyline clip-path="url(#clip022)" style="stroke:#000000; stroke-linecap:round; stroke-linejoin:round; stroke-width:2; stroke-opacity:0.1; fill:none" points="1201.87,1369.92 1201.87,47.2441 "/>
<polyline clip-path="url(#clip022)" style="stroke:#000000; stroke-linecap:round; stroke-linejoin:round; stroke-width:2; stroke-opacity:0.1; fill:none" points="1278.94,1369.92 1278.94,47.2441 "/>
<polyline clip-path="url(#clip022)" style="stroke:#000000; stroke-linecap:round; stroke-linejoin:round; stroke-width:2; stroke-opacity:0.1; fill:none" points="1356.01,1369.92 1356.01,47.2441 "/>
<polyline clip-path="url(#clip022)" style="stroke:#000000; stroke-linecap:round; stroke-linejoin:round; stroke-width:2; stroke-opacity:0.1; fill:none" points="1433.08,1369.92 1433.08,47.2441 "/>
<polyline clip-path="url(#clip022)" style="stroke:#000000; stroke-linecap:round; stroke-linejoin:round; stroke-width:2; stroke-opacity:0.1; fill:none" points="1510.15,1369.92 1510.15,47.2441 "/>
<polyline clip-path="url(#clip022)" style="stroke:#000000; stroke-linecap:round; stroke-linejoin:round; stroke-width:2; stroke-opacity:0.1; fill:none" points="1587.23,1369.92 1587.23,47.2441 "/>
<polyline clip-path="url(#clip022)" style="stroke:#000000; stroke-linecap:round; stroke-linejoin:round; stroke-width:2; stroke-opacity:0.1; fill:none" points="1664.3,1369.92 1664.3,47.2441 "/>
<polyline clip-path="url(#clip022)" style="stroke:#000000; stroke-linecap:round; stroke-linejoin:round; stroke-width:2; stroke-opacity:0.1; fill:none" points="1741.37,1369.92 1741.37,47.2441 "/>
<polyline clip-path="url(#clip022)" style="stroke:#000000; stroke-linecap:round; stroke-linejoin:round; stroke-width:2; stroke-opacity:0.1; fill:none" points="1818.44,1369.92 1818.44,47.2441 "/>
<polyline clip-path="url(#clip022)" style="stroke:#000000; stroke-linecap:round; stroke-linejoin:round; stroke-width:2; stroke-opacity:0.1; fill:none" points="1895.52,1369.92 1895.52,47.2441 "/>
<polyline clip-path="url(#clip022)" style="stroke:#000000; stroke-linecap:round; stroke-linejoin:round; stroke-width:2; stroke-opacity:0.1; fill:none" points="1972.59,1369.92 1972.59,47.2441 "/>
<polyline clip-path="url(#clip022)" style="stroke:#000000; stroke-linecap:round; stroke-linejoin:round; stroke-width:2; stroke-opacity:0.1; fill:none" points="2049.66,1369.92 2049.66,47.2441 "/>
<polyline clip-path="url(#clip022)" style="stroke:#000000; stroke-linecap:round; stroke-linejoin:round; stroke-width:2; stroke-opacity:0.1; fill:none" points="2126.73,1369.92 2126.73,47.2441 "/>
<polyline clip-path="url(#clip022)" style="stroke:#000000; stroke-linecap:round; stroke-linejoin:round; stroke-width:2; stroke-opacity:0.1; fill:none" points="2203.8,1369.92 2203.8,47.2441 "/>
<polyline clip-path="url(#clip022)" style="stroke:#000000; stroke-linecap:round; stroke-linejoin:round; stroke-width:2; stroke-opacity:0.1; fill:none" points="205.121,1369.92 2352.76,1369.92 "/>
<polyline clip-path="url(#clip022)" style="stroke:#000000; stroke-linecap:round; stroke-linejoin:round; stroke-width:2; stroke-opacity:0.1; fill:none" points="205.121,1094.71 2352.76,1094.71 "/>
<polyline clip-path="url(#clip022)" style="stroke:#000000; stroke-linecap:round; stroke-linejoin:round; stroke-width:2; stroke-opacity:0.1; fill:none" points="205.121,819.503 2352.76,819.503 "/>
<polyline clip-path="url(#clip022)" style="stroke:#000000; stroke-linecap:round; stroke-linejoin:round; stroke-width:2; stroke-opacity:0.1; fill:none" points="205.121,544.296 2352.76,544.296 "/>
<polyline clip-path="url(#clip022)" style="stroke:#000000; stroke-linecap:round; stroke-linejoin:round; stroke-width:2; stroke-opacity:0.1; fill:none" points="205.121,269.089 2352.76,269.089 "/>
<polyline clip-path="url(#clip020)" style="stroke:#000000; stroke-linecap:round; stroke-linejoin:round; stroke-width:4; stroke-opacity:1; fill:none" points="205.121,1369.92 2352.76,1369.92 "/>
<polyline clip-path="url(#clip020)" style="stroke:#000000; stroke-linecap:round; stroke-linejoin:round; stroke-width:4; stroke-opacity:1; fill:none" points="354.074,1369.92 354.074,1351.02 "/>
<polyline clip-path="url(#clip020)" style="stroke:#000000; stroke-linecap:round; stroke-linejoin:round; stroke-width:4; stroke-opacity:1; fill:none" points="431.146,1369.92 431.146,1351.02 "/>
<polyline clip-path="url(#clip020)" style="stroke:#000000; stroke-linecap:round; stroke-linejoin:round; stroke-width:4; stroke-opacity:1; fill:none" points="508.218,1369.92 508.218,1351.02 "/>
<polyline clip-path="url(#clip020)" style="stroke:#000000; stroke-linecap:round; stroke-linejoin:round; stroke-width:4; stroke-opacity:1; fill:none" points="585.29,1369.92 585.29,1351.02 "/>
<polyline clip-path="url(#clip020)" style="stroke:#000000; stroke-linecap:round; stroke-linejoin:round; stroke-width:4; stroke-opacity:1; fill:none" points="662.362,1369.92 662.362,1351.02 "/>
<polyline clip-path="url(#clip020)" style="stroke:#000000; stroke-linecap:round; stroke-linejoin:round; stroke-width:4; stroke-opacity:1; fill:none" points="739.434,1369.92 739.434,1351.02 "/>
<polyline clip-path="url(#clip020)" style="stroke:#000000; stroke-linecap:round; stroke-linejoin:round; stroke-width:4; stroke-opacity:1; fill:none" points="816.506,1369.92 816.506,1351.02 "/>
<polyline clip-path="url(#clip020)" style="stroke:#000000; stroke-linecap:round; stroke-linejoin:round; stroke-width:4; stroke-opacity:1; fill:none" points="893.578,1369.92 893.578,1351.02 "/>
<polyline clip-path="url(#clip020)" style="stroke:#000000; stroke-linecap:round; stroke-linejoin:round; stroke-width:4; stroke-opacity:1; fill:none" points="970.65,1369.92 970.65,1351.02 "/>
<polyline clip-path="url(#clip020)" style="stroke:#000000; stroke-linecap:round; stroke-linejoin:round; stroke-width:4; stroke-opacity:1; fill:none" points="1047.72,1369.92 1047.72,1351.02 "/>
<polyline clip-path="url(#clip020)" style="stroke:#000000; stroke-linecap:round; stroke-linejoin:round; stroke-width:4; stroke-opacity:1; fill:none" points="1124.79,1369.92 1124.79,1351.02 "/>
<polyline clip-path="url(#clip020)" style="stroke:#000000; stroke-linecap:round; stroke-linejoin:round; stroke-width:4; stroke-opacity:1; fill:none" points="1201.87,1369.92 1201.87,1351.02 "/>
<polyline clip-path="url(#clip020)" style="stroke:#000000; stroke-linecap:round; stroke-linejoin:round; stroke-width:4; stroke-opacity:1; fill:none" points="1278.94,1369.92 1278.94,1351.02 "/>
<polyline clip-path="url(#clip020)" style="stroke:#000000; stroke-linecap:round; stroke-linejoin:round; stroke-width:4; stroke-opacity:1; fill:none" points="1356.01,1369.92 1356.01,1351.02 "/>
<polyline clip-path="url(#clip020)" style="stroke:#000000; stroke-linecap:round; stroke-linejoin:round; stroke-width:4; stroke-opacity:1; fill:none" points="1433.08,1369.92 1433.08,1351.02 "/>
<polyline clip-path="url(#clip020)" style="stroke:#000000; stroke-linecap:round; stroke-linejoin:round; stroke-width:4; stroke-opacity:1; fill:none" points="1510.15,1369.92 1510.15,1351.02 "/>
<polyline clip-path="url(#clip020)" style="stroke:#000000; stroke-linecap:round; stroke-linejoin:round; stroke-width:4; stroke-opacity:1; fill:none" points="1587.23,1369.92 1587.23,1351.02 "/>
<polyline clip-path="url(#clip020)" style="stroke:#000000; stroke-linecap:round; stroke-linejoin:round; stroke-width:4; stroke-opacity:1; fill:none" points="1664.3,1369.92 1664.3,1351.02 "/>
<polyline clip-path="url(#clip020)" style="stroke:#000000; stroke-linecap:round; stroke-linejoin:round; stroke-width:4; stroke-opacity:1; fill:none" points="1741.37,1369.92 1741.37,1351.02 "/>
<polyline clip-path="url(#clip020)" style="stroke:#000000; stroke-linecap:round; stroke-linejoin:round; stroke-width:4; stroke-opacity:1; fill:none" points="1818.44,1369.92 1818.44,1351.02 "/>
<polyline clip-path="url(#clip020)" style="stroke:#000000; stroke-linecap:round; stroke-linejoin:round; stroke-width:4; stroke-opacity:1; fill:none" points="1895.52,1369.92 1895.52,1351.02 "/>
<polyline clip-path="url(#clip020)" style="stroke:#000000; stroke-linecap:round; stroke-linejoin:round; stroke-width:4; stroke-opacity:1; fill:none" points="1972.59,1369.92 1972.59,1351.02 "/>
<polyline clip-path="url(#clip020)" style="stroke:#000000; stroke-linecap:round; stroke-linejoin:round; stroke-width:4; stroke-opacity:1; fill:none" points="2049.66,1369.92 2049.66,1351.02 "/>
<polyline clip-path="url(#clip020)" style="stroke:#000000; stroke-linecap:round; stroke-linejoin:round; stroke-width:4; stroke-opacity:1; fill:none" points="2126.73,1369.92 2126.73,1351.02 "/>
<polyline clip-path="url(#clip020)" style="stroke:#000000; stroke-linecap:round; stroke-linejoin:round; stroke-width:4; stroke-opacity:1; fill:none" points="2203.8,1369.92 2203.8,1351.02 "/>
<path clip-path="url(#clip020)" d="M341.4 1465.25 L358.599 1471.59 L358.599 1458.88 L341.4 1465.25 M336.794 1467.89 L336.794 1462.59 L371.354 1449.42 L371.354 1454.28 L362.488 1457.43 L362.488 1473 L371.354 1476.15 L371.354 1481.08 L336.794 1467.89 Z" fill="#000000" fill-rule="nonzero" fill-opacity="1" /><path clip-path="url(#clip020)" d="M341.4 1431.5 L358.599 1437.84 L358.599 1425.13 L341.4 1431.5 M336.794 1434.14 L336.794 1428.84 L371.354 1415.67 L371.354 1420.53 L362.488 1423.68 L362.488 1439.25 L371.354 1442.4 L371.354 1447.33 L336.794 1434.14 Z" fill="#000000" fill-rule="nonzero" fill-opacity="1" /><path clip-path="url(#clip020)" d="M336.794 1410.62 L336.794 1405.94 L367.418 1405.94 L367.418 1389.12 L371.354 1389.12 L371.354 1410.62 L336.794 1410.62 Z" fill="#000000" fill-rule="nonzero" fill-opacity="1" /><path clip-path="url(#clip020)" d="M418.472 1493.84 L435.671 1500.18 L435.671 1487.47 L418.472 1493.84 M413.866 1496.48 L413.866 1491.18 L448.426 1478 L448.426 1482.87 L439.56 1486.01 L439.56 1501.59 L448.426 1504.74 L448.426 1509.67 L413.866 1496.48 Z" fill="#000000" fill-rule="nonzero" fill-opacity="1" /><path clip-path="url(#clip020)" d="M418.472 1460.09 L435.671 1466.43 L435.671 1453.72 L418.472 1460.09 M413.866 1462.73 L413.866 1457.43 L448.426 1444.25 L448.426 1449.12 L439.56 1452.26 L439.56 1467.84 L448.426 1470.99 L448.426 1475.92 L413.866 1462.73 Z" fill="#000000" fill-rule="nonzero" fill-opacity="1" /><path clip-path="url(#clip020)" d="M417.708 1434.53 L430.694 1434.53 L430.694 1428.65 Q430.694 1425.39 429.004 1423.61 Q427.315 1421.82 424.19 1421.82 Q421.088 1421.82 419.398 1423.61 Q417.708 1425.39 417.708 1428.65 L417.708 1434.53 M413.866 1439.21 L413.866 1428.65 Q413.866 1422.84 416.504 1419.88 Q419.12 1416.89 424.19 1416.89 Q429.305 1416.89 431.921 1419.88 Q434.537 1422.84 434.537 1428.65 L434.537 1434.53 L448.426 1434.53 L448.426 1439.21 L413.866 1439.21 Z" fill="#000000" fill-rule="nonzero" fill-opacity="1" /><path clip-path="url(#clip020)" d="M413.866 1410.62 L413.866 1405.94 L444.49 1405.94 L444.49 1389.12 L448.426 1389.12 L448.426 1410.62 L413.866 1410.62 Z" fill="#000000" fill-rule="nonzero" fill-opacity="1" /><path clip-path="url(#clip020)" d="M495.544 1476.78 L512.743 1483.12 L512.743 1470.41 L495.544 1476.78 M490.938 1479.42 L490.938 1474.12 L525.498 1460.94 L525.498 1465.81 L516.632 1468.95 L516.632 1484.53 L525.498 1487.68 L525.498 1492.61 L490.938 1479.42 Z" fill="#000000" fill-rule="nonzero" fill-opacity="1" /><path clip-path="url(#clip020)" d="M490.938 1455.9 L490.938 1448.93 L514.456 1440.11 L490.938 1431.25 L490.938 1424.28 L525.498 1424.28 L525.498 1428.84 L495.151 1428.84 L518.854 1437.75 L518.854 1442.45 L495.151 1451.36 L525.498 1451.36 L525.498 1455.9 L490.938 1455.9 Z" fill="#000000" fill-rule="nonzero" fill-opacity="1" /><path clip-path="url(#clip020)" d="M493.6 1389.12 L498.53 1389.12 Q496.331 1391.48 495.243 1394.16 Q494.155 1396.82 494.155 1399.83 Q494.155 1405.76 497.79 1408.91 Q501.401 1412.06 508.252 1412.06 Q515.081 1412.06 518.715 1408.91 Q522.326 1405.76 522.326 1399.83 Q522.326 1396.82 521.238 1394.16 Q520.151 1391.48 517.951 1389.12 L522.836 1389.12 Q524.502 1391.57 525.336 1394.32 Q526.169 1397.06 526.169 1400.11 Q526.169 1407.96 521.377 1412.47 Q516.563 1416.99 508.252 1416.99 Q499.919 1416.99 495.127 1412.47 Q490.313 1407.96 490.313 1400.11 Q490.313 1397.01 491.146 1394.28 Q491.956 1391.52 493.6 1389.12 Z" fill="#000000" fill-rule="nonzero" fill-opacity="1" /><path clip-path="url(#clip020)" d="M586.065 1441.48 L598.727 1441.48 L598.727 1433.98 Q598.727 1430.2 597.176 1428.4 Q595.602 1426.57 592.385 1426.57 Q589.144 1426.57 587.616 1428.4 Q586.065 1430.2 586.065 1433.98 L586.065 1441.48 M571.852 1441.48 L582.269 1441.48 L582.269 1434.56 Q582.269 1431.13 580.996 1429.46 Q579.7 1427.77 577.061 1427.77 Q574.445 1427.77 573.149 1429.46 Q571.852 1431.13 571.852 1434.56 L571.852 1441.48 M568.01 1446.15 L568.01 1434.21 Q568.01 1428.86 570.232 1425.97 Q572.454 1423.07 576.551 1423.07 Q579.723 1423.07 581.598 1424.56 Q583.473 1426.04 583.936 1428.91 Q584.676 1425.46 587.037 1423.56 Q589.375 1421.64 592.894 1421.64 Q597.524 1421.64 600.047 1424.79 Q602.57 1427.94 602.57 1433.75 L602.57 1446.15 L568.01 1446.15 Z" fill="#000000" fill-rule="nonzero" fill-opacity="1" /><path clip-path="url(#clip020)" d="M586.065 1408.95 L598.727 1408.95 L598.727 1401.45 Q598.727 1397.68 597.176 1395.88 Q595.602 1394.05 592.385 1394.05 Q589.144 1394.05 587.616 1395.88 Q586.065 1397.68 586.065 1401.45 L586.065 1408.95 M571.852 1408.95 L582.269 1408.95 L582.269 1402.03 Q582.269 1398.61 580.996 1396.94 Q579.7 1395.25 577.061 1395.25 Q574.445 1395.25 573.149 1396.94 Q571.852 1398.61 571.852 1402.03 L571.852 1408.95 M568.01 1413.63 L568.01 1401.69 Q568.01 1396.34 570.232 1393.44 Q572.454 1390.55 576.551 1390.55 Q579.723 1390.55 581.598 1392.03 Q583.473 1393.51 583.936 1396.38 Q584.676 1392.94 587.037 1391.04 Q589.375 1389.12 592.894 1389.12 Q597.524 1389.12 600.047 1392.26 Q602.57 1395.41 602.57 1401.22 L602.57 1413.63 L568.01 1413.63 Z" fill="#000000" fill-rule="nonzero" fill-opacity="1" /><path clip-path="url(#clip020)" d="M663.137 1471.29 L675.799 1471.29 L675.799 1463.79 Q675.799 1460.02 674.248 1458.21 Q672.674 1456.38 669.457 1456.38 Q666.216 1456.38 664.688 1458.21 Q663.137 1460.02 663.137 1463.79 L663.137 1471.29 M648.924 1471.29 L659.341 1471.29 L659.341 1464.37 Q659.341 1460.94 658.068 1459.28 Q656.772 1457.59 654.133 1457.59 Q651.517 1457.59 650.221 1459.28 Q648.924 1460.94 648.924 1464.37 L648.924 1471.29 M645.082 1475.97 L645.082 1464.02 Q645.082 1458.68 647.304 1455.78 Q649.526 1452.89 653.623 1452.89 Q656.795 1452.89 658.67 1454.37 Q660.545 1455.85 661.008 1458.72 Q661.748 1455.27 664.11 1453.38 Q666.447 1451.45 669.966 1451.45 Q674.596 1451.45 677.119 1454.6 Q679.642 1457.75 679.642 1463.56 L679.642 1475.97 L645.082 1475.97 Z" fill="#000000" fill-rule="nonzero" fill-opacity="1" /><path clip-path="url(#clip020)" d="M663.137 1438.77 L675.799 1438.77 L675.799 1431.27 Q675.799 1427.5 674.248 1425.69 Q672.674 1423.86 669.457 1423.86 Q666.216 1423.86 664.688 1425.69 Q663.137 1427.5 663.137 1431.27 L663.137 1438.77 M648.924 1438.77 L659.341 1438.77 L659.341 1431.85 Q659.341 1428.42 658.068 1426.75 Q656.772 1425.07 654.133 1425.07 Q651.517 1425.07 650.221 1426.75 Q648.924 1428.42 648.924 1431.85 L648.924 1438.77 M645.082 1443.44 L645.082 1431.5 Q645.082 1426.15 647.304 1423.26 Q649.526 1420.37 653.623 1420.37 Q656.795 1420.37 658.67 1421.85 Q660.545 1423.33 661.008 1426.2 Q661.748 1422.75 664.11 1420.85 Q666.447 1418.93 669.966 1418.93 Q674.596 1418.93 677.119 1422.08 Q679.642 1425.23 679.642 1431.04 L679.642 1443.44 L645.082 1443.44 Z" fill="#000000" fill-rule="nonzero" fill-opacity="1" /><path clip-path="url(#clip020)" d="M645.082 1418.26 L645.082 1413.24 L659.295 1403.65 L645.082 1394.14 L645.082 1389.12 L663.184 1401.34 L679.642 1401.34 L679.642 1406.04 L663.184 1406.04 L645.082 1418.26 Z" fill="#000000" fill-rule="nonzero" fill-opacity="1" /><path clip-path="url(#clip020)" d="M725.996 1498.81 L752.871 1498.81 L752.871 1493.17 Q752.871 1486.01 749.631 1482.7 Q746.39 1479.37 739.399 1479.37 Q732.455 1479.37 729.237 1482.7 Q725.996 1486.01 725.996 1493.17 L725.996 1498.81 M722.154 1503.49 L722.154 1493.88 Q722.154 1483.84 726.344 1479.14 Q730.51 1474.44 739.399 1474.44 Q748.334 1474.44 752.524 1479.16 Q756.714 1483.88 756.714 1493.88 L756.714 1503.49 L722.154 1503.49 Z" fill="#000000" fill-rule="nonzero" fill-opacity="1" /><path clip-path="url(#clip020)" d="M722.154 1466.99 L722.154 1445.13 L726.089 1445.13 L726.089 1462.31 L736.321 1462.31 L736.321 1445.85 L740.256 1445.85 L740.256 1462.31 L752.779 1462.31 L752.779 1444.72 L756.714 1444.72 L756.714 1466.99 L722.154 1466.99 Z" fill="#000000" fill-rule="nonzero" fill-opacity="1" /><path clip-path="url(#clip020)" d="M722.154 1437.03 L722.154 1432.36 L752.779 1432.36 L752.779 1415.53 L756.714 1415.53 L756.714 1437.03 L722.154 1437.03 Z" fill="#000000" fill-rule="nonzero" fill-opacity="1" /><path clip-path="url(#clip020)" d="M722.154 1410.62 L722.154 1405.94 L752.779 1405.94 L752.779 1389.12 L756.714 1389.12 L756.714 1410.62 L722.154 1410.62 Z" fill="#000000" fill-rule="nonzero" fill-opacity="1" /><path clip-path="url(#clip020)" d="M803.069 1449.14 L829.943 1449.14 L829.943 1443.49 Q829.943 1436.34 826.703 1433.03 Q823.462 1429.69 816.471 1429.69 Q809.527 1429.69 806.309 1433.03 Q803.069 1436.34 803.069 1443.49 L803.069 1449.14 M799.226 1453.81 L799.226 1444.21 Q799.226 1434.16 803.416 1429.46 Q807.582 1424.76 816.471 1424.76 Q825.406 1424.76 829.596 1429.49 Q833.786 1434.21 833.786 1444.21 L833.786 1453.81 L799.226 1453.81 Z" fill="#000000" fill-rule="nonzero" fill-opacity="1" /><path clip-path="url(#clip020)" d="M828.855 1393.75 L819.573 1393.75 L819.573 1401.38 L815.731 1401.38 L815.731 1389.12 L830.568 1389.12 Q832.49 1391.82 833.485 1395.09 Q834.457 1398.35 834.457 1402.06 Q834.457 1410.16 829.735 1414.74 Q824.99 1419.3 816.541 1419.3 Q808.069 1419.3 803.346 1414.74 Q798.601 1410.16 798.601 1402.06 Q798.601 1398.68 799.434 1395.64 Q800.268 1392.59 801.888 1390.02 L806.865 1390.02 Q804.666 1392.61 803.555 1395.53 Q802.444 1398.44 802.444 1401.66 Q802.444 1408.01 805.985 1411.2 Q809.527 1414.37 816.541 1414.37 Q823.531 1414.37 827.073 1411.2 Q830.615 1408.01 830.615 1401.66 Q830.615 1399.19 830.198 1397.24 Q829.758 1395.3 828.855 1393.75 Z" fill="#000000" fill-rule="nonzero" fill-opacity="1" /><path clip-path="url(#clip020)" d="M880.141 1476.69 L907.015 1476.69 L907.015 1471.04 Q907.015 1463.88 903.775 1460.57 Q900.534 1457.24 893.543 1457.24 Q886.599 1457.24 883.381 1460.57 Q880.141 1463.88 880.141 1471.04 L880.141 1476.69 M876.298 1481.36 L876.298 1471.75 Q876.298 1461.71 880.488 1457.01 Q884.655 1452.31 893.543 1452.31 Q902.478 1452.31 906.668 1457.03 Q910.858 1461.75 910.858 1471.75 L910.858 1481.36 L876.298 1481.36 Z" fill="#000000" fill-rule="nonzero" fill-opacity="1" /><path clip-path="url(#clip020)" d="M894.654 1428.47 Q895.164 1426.96 896.83 1425.55 Q898.497 1424.12 901.414 1422.68 L910.858 1417.94 L910.858 1422.96 L901.992 1427.38 Q898.52 1429.09 897.386 1430.71 Q896.252 1432.31 896.252 1435.09 L896.252 1440.18 L910.858 1440.18 L910.858 1444.86 L876.298 1444.86 L876.298 1434.3 Q876.298 1428.38 878.775 1425.46 Q881.252 1422.54 886.252 1422.54 Q889.516 1422.54 891.668 1424.07 Q893.821 1425.57 894.654 1428.47 M880.141 1440.18 L892.409 1440.18 L892.409 1434.3 Q892.409 1430.92 890.858 1429.21 Q889.284 1427.47 886.252 1427.47 Q883.219 1427.47 881.692 1429.21 Q880.141 1430.92 880.141 1434.3 L880.141 1440.18 Z" fill="#000000" fill-rule="nonzero" fill-opacity="1" /><path clip-path="url(#clip020)" d="M877.432 1391.2 L881.992 1391.2 Q880.719 1393.86 880.094 1396.22 Q879.469 1398.58 879.469 1400.78 Q879.469 1404.6 880.951 1406.69 Q882.432 1408.75 885.164 1408.75 Q887.455 1408.75 888.636 1407.38 Q889.793 1405.99 890.511 1402.15 L891.09 1399.32 Q892.085 1394.09 894.608 1391.62 Q897.108 1389.12 901.321 1389.12 Q906.344 1389.12 908.937 1392.5 Q911.529 1395.85 911.529 1402.36 Q911.529 1404.81 910.974 1407.59 Q910.418 1410.34 909.33 1413.31 L904.516 1413.31 Q906.113 1410.46 906.923 1407.73 Q907.733 1405 907.733 1402.36 Q907.733 1398.35 906.159 1396.18 Q904.585 1394 901.668 1394 Q899.122 1394 897.687 1395.57 Q896.252 1397.13 895.534 1400.69 L894.979 1403.54 Q893.937 1408.77 891.715 1411.11 Q889.492 1413.44 885.534 1413.44 Q880.951 1413.44 878.312 1410.23 Q875.673 1406.99 875.673 1401.32 Q875.673 1398.88 876.113 1396.36 Q876.553 1393.84 877.432 1391.2 Z" fill="#000000" fill-rule="nonzero" fill-opacity="1" /><path clip-path="url(#clip020)" d="M983 1465.46 L973.717 1465.46 L973.717 1473.1 L969.875 1473.1 L969.875 1460.83 L984.713 1460.83 Q986.634 1463.54 987.629 1466.8 Q988.601 1470.06 988.601 1473.77 Q988.601 1481.87 983.879 1486.45 Q979.134 1491.01 970.685 1491.01 Q962.213 1491.01 957.49 1486.45 Q952.745 1481.87 952.745 1473.77 Q952.745 1470.39 953.578 1467.36 Q954.412 1464.3 956.032 1461.73 L961.009 1461.73 Q958.81 1464.32 957.699 1467.24 Q956.588 1470.16 956.588 1473.38 Q956.588 1479.72 960.129 1482.91 Q963.671 1486.08 970.685 1486.08 Q977.676 1486.08 981.217 1482.91 Q984.759 1479.72 984.759 1473.38 Q984.759 1470.9 984.342 1468.95 Q983.902 1467.01 983 1465.46 Z" fill="#000000" fill-rule="nonzero" fill-opacity="1" /><path clip-path="url(#clip020)" d="M953.37 1452.29 L953.37 1445.32 L976.889 1436.5 L953.37 1427.63 L953.37 1420.67 L987.93 1420.67 L987.93 1425.23 L957.583 1425.23 L981.287 1434.14 L981.287 1438.84 L957.583 1447.75 L987.93 1447.75 L987.93 1452.29 L953.37 1452.29 Z" fill="#000000" fill-rule="nonzero" fill-opacity="1" /><path clip-path="url(#clip020)" d="M953.37 1411.38 L953.37 1389.53 L957.305 1389.53 L957.305 1406.71 L967.537 1406.71 L967.537 1390.25 L971.472 1390.25 L971.472 1406.71 L983.995 1406.71 L983.995 1389.12 L987.93 1389.12 L987.93 1411.38 L953.37 1411.38 Z" fill="#000000" fill-rule="nonzero" fill-opacity="1" /><path clip-path="url(#clip020)" d="M1030.44 1490.62 L1030.44 1485.94 L1065 1485.94 L1065 1490.62 L1030.44 1490.62 Z" fill="#000000" fill-rule="nonzero" fill-opacity="1" /><path clip-path="url(#clip020)" d="M1030.44 1476.64 L1030.44 1470.34 L1059.35 1455.02 L1030.44 1455.02 L1030.44 1450.48 L1065 1450.48 L1065 1456.78 L1036.09 1472.1 L1065 1472.1 L1065 1476.64 L1030.44 1476.64 Z" fill="#000000" fill-rule="nonzero" fill-opacity="1" /><path clip-path="url(#clip020)" d="M1030.44 1445.97 L1030.44 1416.73 L1034.38 1416.73 L1034.38 1429 L1065 1429 L1065 1433.7 L1034.38 1433.7 L1034.38 1445.97 L1030.44 1445.97 Z" fill="#000000" fill-rule="nonzero" fill-opacity="1" /><path clip-path="url(#clip020)" d="M1033.1 1389.12 L1038.03 1389.12 Q1035.84 1391.48 1034.75 1394.16 Q1033.66 1396.82 1033.66 1399.83 Q1033.66 1405.76 1037.29 1408.91 Q1040.91 1412.06 1047.76 1412.06 Q1054.59 1412.06 1058.22 1408.91 Q1061.83 1405.76 1061.83 1399.83 Q1061.83 1396.82 1060.74 1394.16 Q1059.66 1391.48 1057.46 1389.12 L1062.34 1389.12 Q1064.01 1391.57 1064.84 1394.32 Q1065.67 1397.06 1065.67 1400.11 Q1065.67 1407.96 1060.88 1412.47 Q1056.07 1416.99 1047.76 1416.99 Q1039.42 1416.99 1034.63 1412.47 Q1029.82 1407.96 1029.82 1400.11 Q1029.82 1397.01 1030.65 1394.28 Q1031.46 1391.52 1033.1 1389.12 Z" fill="#000000" fill-rule="nonzero" fill-opacity="1" /><path clip-path="url(#clip020)" d="M1107.51 1497.84 L1107.51 1493.17 L1138.14 1493.17 L1138.14 1476.34 L1142.07 1476.34 L1142.07 1497.84 L1107.51 1497.84 Z" fill="#000000" fill-rule="nonzero" fill-opacity="1" /><path clip-path="url(#clip020)" d="M1107.51 1474.32 L1107.51 1469.63 L1128.51 1469.63 Q1134.07 1469.63 1136.52 1467.61 Q1138.95 1465.6 1138.95 1461.08 Q1138.95 1456.59 1136.52 1454.58 Q1134.07 1452.56 1128.51 1452.56 L1107.51 1452.56 L1107.51 1447.87 L1129.09 1447.87 Q1135.85 1447.87 1139.3 1451.22 Q1142.75 1454.56 1142.75 1461.08 Q1142.75 1467.63 1139.3 1470.99 Q1135.85 1474.32 1129.09 1474.32 L1107.51 1474.32 Z" fill="#000000" fill-rule="nonzero" fill-opacity="1" /><path clip-path="url(#clip020)" d="M1107.51 1439.09 L1107.51 1434.42 L1138.14 1434.42 L1138.14 1417.59 L1142.07 1417.59 L1142.07 1439.09 L1107.51 1439.09 Z" fill="#000000" fill-rule="nonzero" fill-opacity="1" /><path clip-path="url(#clip020)" d="M1107.51 1415.57 L1107.51 1410.88 L1128.51 1410.88 Q1134.07 1410.88 1136.52 1408.86 Q1138.95 1406.85 1138.95 1402.33 Q1138.95 1397.84 1136.52 1395.83 Q1134.07 1393.82 1128.51 1393.82 L1107.51 1393.82 L1107.51 1389.12 L1129.09 1389.12 Q1135.85 1389.12 1139.3 1392.47 Q1142.75 1395.81 1142.75 1402.33 Q1142.75 1408.88 1139.3 1412.24 Q1135.85 1415.57 1129.09 1415.57 L1107.51 1415.57 Z" fill="#000000" fill-rule="nonzero" fill-opacity="1" /><path clip-path="url(#clip020)" d="M1184.59 1520.85 L1184.59 1513.88 L1208.1 1505.06 L1184.59 1496.2 L1184.59 1489.23 L1219.15 1489.23 L1219.15 1493.79 L1188.8 1493.79 L1212.5 1502.7 L1212.5 1507.4 L1188.8 1516.31 L1219.15 1516.31 L1219.15 1520.85 L1184.59 1520.85 Z" fill="#000000" fill-rule="nonzero" fill-opacity="1" /><path clip-path="url(#clip020)" d="M1189.19 1468.4 L1206.39 1474.74 L1206.39 1462.03 L1189.19 1468.4 M1184.59 1471.04 L1184.59 1465.74 L1219.15 1452.56 L1219.15 1457.43 L1210.28 1460.57 L1210.28 1476.15 L1219.15 1479.3 L1219.15 1484.23 L1184.59 1471.04 Z" fill="#000000" fill-rule="nonzero" fill-opacity="1" /><path clip-path="url(#clip020)" d="M1202.94 1431.13 Q1203.45 1429.63 1205.12 1428.21 Q1206.79 1426.78 1209.7 1425.34 L1219.15 1420.6 L1219.15 1425.62 L1210.28 1430.04 Q1206.81 1431.75 1205.67 1433.38 Q1204.54 1434.97 1204.54 1437.75 L1204.54 1442.84 L1219.15 1442.84 L1219.15 1447.52 L1184.59 1447.52 L1184.59 1436.96 Q1184.59 1431.04 1187.06 1428.12 Q1189.54 1425.2 1194.54 1425.2 Q1197.8 1425.2 1199.96 1426.73 Q1202.11 1428.24 1202.94 1431.13 M1188.43 1442.84 L1200.7 1442.84 L1200.7 1436.96 Q1200.7 1433.58 1199.15 1431.87 Q1197.57 1430.13 1194.54 1430.13 Q1191.51 1430.13 1189.98 1431.87 Q1188.43 1433.58 1188.43 1436.96 L1188.43 1442.84 Z" fill="#000000" fill-rule="nonzero" fill-opacity="1" /><path clip-path="url(#clip020)" d="M1189.19 1404.95 L1206.39 1411.29 L1206.39 1398.58 L1189.19 1404.95 M1184.59 1407.59 L1184.59 1402.29 L1219.15 1389.12 L1219.15 1393.98 L1210.28 1397.13 L1210.28 1412.7 L1219.15 1415.85 L1219.15 1420.78 L1184.59 1407.59 Z" fill="#000000" fill-rule="nonzero" fill-opacity="1" /><path clip-path="url(#clip020)" d="M1261.66 1467.8 L1261.66 1460.83 L1285.18 1452.01 L1261.66 1443.14 L1261.66 1436.18 L1296.22 1436.18 L1296.22 1440.74 L1265.87 1440.74 L1289.57 1449.65 L1289.57 1454.35 L1265.87 1463.26 L1296.22 1463.26 L1296.22 1467.8 L1261.66 1467.8 Z" fill="#000000" fill-rule="nonzero" fill-opacity="1" /><path clip-path="url(#clip020)" d="M1264.32 1401.01 L1269.25 1401.01 Q1267.05 1403.38 1265.96 1406.06 Q1264.88 1408.72 1264.88 1411.73 Q1264.88 1417.66 1268.51 1420.81 Q1272.12 1423.95 1278.97 1423.95 Q1285.8 1423.95 1289.44 1420.81 Q1293.05 1417.66 1293.05 1411.73 Q1293.05 1408.72 1291.96 1406.06 Q1290.87 1403.38 1288.67 1401.01 L1293.56 1401.01 Q1295.22 1403.47 1296.06 1406.22 Q1296.89 1408.95 1296.89 1412.01 Q1296.89 1419.86 1292.1 1424.37 Q1287.28 1428.88 1278.97 1428.88 Q1270.64 1428.88 1265.85 1424.37 Q1261.03 1419.86 1261.03 1412.01 Q1261.03 1408.91 1261.87 1406.18 Q1262.68 1403.42 1264.32 1401.01 Z" fill="#000000" fill-rule="nonzero" fill-opacity="1" /><path clip-path="url(#clip020)" d="M1261.66 1393.79 L1261.66 1389.12 L1296.22 1389.12 L1296.22 1393.79 L1261.66 1393.79 Z" fill="#000000" fill-rule="nonzero" fill-opacity="1" /><path clip-path="url(#clip020)" d="M1338.73 1510.99 L1338.73 1504.02 L1362.25 1495.2 L1338.73 1486.34 L1338.73 1479.37 L1373.29 1479.37 L1373.29 1483.93 L1342.94 1483.93 L1366.65 1492.84 L1366.65 1497.54 L1342.94 1506.45 L1373.29 1506.45 L1373.29 1510.99 L1338.73 1510.99 Z" fill="#000000" fill-rule="nonzero" fill-opacity="1" /><path clip-path="url(#clip020)" d="M1339.86 1449.37 L1344.42 1449.37 Q1343.15 1452.03 1342.53 1454.39 Q1341.9 1456.75 1341.9 1458.95 Q1341.9 1462.77 1343.38 1464.86 Q1344.86 1466.92 1347.6 1466.92 Q1349.89 1466.92 1351.07 1465.55 Q1352.23 1464.16 1352.94 1460.32 L1353.52 1457.5 Q1354.52 1452.26 1357.04 1449.79 Q1359.54 1447.29 1363.75 1447.29 Q1368.78 1447.29 1371.37 1450.67 Q1373.96 1454.02 1373.96 1460.53 Q1373.96 1462.98 1373.41 1465.76 Q1372.85 1468.51 1371.76 1471.48 L1366.95 1471.48 Q1368.55 1468.63 1369.36 1465.9 Q1370.17 1463.17 1370.17 1460.53 Q1370.17 1456.52 1368.59 1454.35 Q1367.02 1452.17 1364.1 1452.17 Q1361.55 1452.17 1360.12 1453.75 Q1358.68 1455.3 1357.97 1458.86 L1357.41 1461.71 Q1356.37 1466.94 1354.15 1469.28 Q1351.92 1471.62 1347.97 1471.62 Q1343.38 1471.62 1340.74 1468.4 Q1338.11 1465.16 1338.11 1459.49 Q1338.11 1457.06 1338.55 1454.53 Q1338.99 1452.01 1339.86 1449.37 Z" fill="#000000" fill-rule="nonzero" fill-opacity="1" /><path clip-path="url(#clip020)" d="M1338.73 1440 L1338.73 1420.13 L1342.67 1420.13 L1342.67 1435.32 L1352.85 1435.32 L1352.85 1421.62 L1356.79 1421.62 L1356.79 1435.32 L1373.29 1435.32 L1373.29 1440 L1338.73 1440 Z" fill="#000000" fill-rule="nonzero" fill-opacity="1" /><path clip-path="url(#clip020)" d="M1338.73 1418.35 L1338.73 1389.12 L1342.67 1389.12 L1342.67 1401.38 L1373.29 1401.38 L1373.29 1406.08 L1342.67 1406.08 L1342.67 1418.35 L1338.73 1418.35 Z" fill="#000000" fill-rule="nonzero" fill-opacity="1" /><path clip-path="url(#clip020)" d="M1415.8 1510.55 L1415.8 1504.25 L1444.71 1488.93 L1415.8 1488.93 L1415.8 1484.39 L1450.36 1484.39 L1450.36 1490.69 L1421.45 1506.01 L1450.36 1506.01 L1450.36 1510.55 L1415.8 1510.55 Z" fill="#000000" fill-rule="nonzero" fill-opacity="1" /><path clip-path="url(#clip020)" d="M1415.8 1475.09 L1415.8 1470.41 L1430.41 1470.41 L1415.8 1454.9 L1415.8 1448.88 L1431.91 1466.04 L1450.36 1447.66 L1450.36 1453.81 L1433.72 1470.41 L1450.36 1470.41 L1450.36 1475.09 L1415.8 1475.09 Z" fill="#000000" fill-rule="nonzero" fill-opacity="1" /><path clip-path="url(#clip020)" d="M1415.8 1444 L1415.8 1439.32 L1446.43 1439.32 L1446.43 1422.5 L1450.36 1422.5 L1450.36 1444 L1415.8 1444 Z" fill="#000000" fill-rule="nonzero" fill-opacity="1" /><path clip-path="url(#clip020)" d="M1420.41 1404.95 L1437.61 1411.29 L1437.61 1398.58 L1420.41 1404.95 M1415.8 1407.59 L1415.8 1402.29 L1450.36 1389.12 L1450.36 1393.98 L1441.5 1397.13 L1441.5 1412.7 L1450.36 1415.85 L1450.36 1420.78 L1415.8 1407.59 Z" fill="#000000" fill-rule="nonzero" fill-opacity="1" /><path clip-path="url(#clip020)" d="M1492.87 1512.75 L1492.87 1506.45 L1521.79 1491.13 L1492.87 1491.13 L1492.87 1486.59 L1527.43 1486.59 L1527.43 1492.89 L1498.52 1508.21 L1527.43 1508.21 L1527.43 1512.75 L1492.87 1512.75 Z" fill="#000000" fill-rule="nonzero" fill-opacity="1" /><path clip-path="url(#clip020)" d="M1527.43 1468.38 L1492.87 1481.57 L1492.87 1476.69 L1521.97 1465.74 L1492.87 1454.76 L1492.87 1449.9 L1527.43 1463.07 L1527.43 1468.38 Z" fill="#000000" fill-rule="nonzero" fill-opacity="1" /><path clip-path="url(#clip020)" d="M1497.48 1436.34 L1514.68 1442.68 L1514.68 1429.97 L1497.48 1436.34 M1492.87 1438.98 L1492.87 1433.68 L1527.43 1420.5 L1527.43 1425.37 L1518.57 1428.51 L1518.57 1444.09 L1527.43 1447.24 L1527.43 1452.17 L1492.87 1438.98 Z" fill="#000000" fill-rule="nonzero" fill-opacity="1" /><path clip-path="url(#clip020)" d="M1492.87 1417.13 L1492.87 1412.1 L1505.72 1403.51 L1492.87 1394.88 L1492.87 1389.86 L1509.47 1400.97 L1527.43 1389.12 L1527.43 1394.14 L1512.74 1403.86 L1527.43 1413.65 L1527.43 1418.7 L1508.99 1406.36 L1492.87 1417.13 Z" fill="#000000" fill-rule="nonzero" fill-opacity="1" /><path clip-path="url(#clip020)" d="M1569.95 1520.06 L1569.95 1513.77 L1598.86 1498.44 L1569.95 1498.44 L1569.95 1493.91 L1604.51 1493.91 L1604.51 1500.2 L1575.59 1515.53 L1604.51 1515.53 L1604.51 1520.06 L1569.95 1520.06 Z" fill="#000000" fill-rule="nonzero" fill-opacity="1" /><path clip-path="url(#clip020)" d="M1604.51 1475.69 L1569.95 1488.88 L1569.95 1484 L1599.04 1473.05 L1569.95 1462.08 L1569.95 1457.22 L1604.51 1470.39 L1604.51 1475.69 Z" fill="#000000" fill-rule="nonzero" fill-opacity="1" /><path clip-path="url(#clip020)" d="M1573.79 1447.5 L1600.66 1447.5 L1600.66 1441.85 Q1600.66 1434.69 1597.42 1431.38 Q1594.18 1428.05 1587.19 1428.05 Q1580.25 1428.05 1577.03 1431.38 Q1573.79 1434.69 1573.79 1441.85 L1573.79 1447.5 M1569.95 1452.17 L1569.95 1442.57 Q1569.95 1432.52 1574.14 1427.82 Q1578.3 1423.12 1587.19 1423.12 Q1596.13 1423.12 1600.32 1427.84 Q1604.51 1432.57 1604.51 1442.57 L1604.51 1452.17 L1569.95 1452.17 Z" fill="#000000" fill-rule="nonzero" fill-opacity="1" /><path clip-path="url(#clip020)" d="M1574.55 1404.95 L1591.75 1411.29 L1591.75 1398.58 L1574.55 1404.95 M1569.95 1407.59 L1569.95 1402.29 L1604.51 1389.12 L1604.51 1393.98 L1595.64 1397.13 L1595.64 1412.7 L1604.51 1415.85 L1604.51 1420.78 L1569.95 1407.59 Z" fill="#000000" fill-rule="nonzero" fill-opacity="1" /><path clip-path="url(#clip020)" d="M1650.86 1500.83 L1663.85 1500.83 L1663.85 1494.95 Q1663.85 1491.69 1662.16 1489.9 Q1660.47 1488.12 1657.34 1488.12 Q1654.24 1488.12 1652.55 1489.9 Q1650.86 1491.69 1650.86 1494.95 L1650.86 1500.83 M1647.02 1505.5 L1647.02 1494.95 Q1647.02 1489.14 1649.66 1486.18 Q1652.27 1483.19 1657.34 1483.19 Q1662.46 1483.19 1665.07 1486.18 Q1667.69 1489.14 1667.69 1494.95 L1667.69 1500.83 L1681.58 1500.83 L1681.58 1505.5 L1647.02 1505.5 Z" fill="#000000" fill-rule="nonzero" fill-opacity="1" /><path clip-path="url(#clip020)" d="M1651.63 1468.4 L1668.82 1474.74 L1668.82 1462.03 L1651.63 1468.4 M1647.02 1471.04 L1647.02 1465.74 L1681.58 1452.56 L1681.58 1457.43 L1672.71 1460.57 L1672.71 1476.15 L1681.58 1479.3 L1681.58 1484.23 L1647.02 1471.04 Z" fill="#000000" fill-rule="nonzero" fill-opacity="1" /><path clip-path="url(#clip020)" d="M1665.38 1431.13 Q1665.88 1429.63 1667.55 1428.21 Q1669.22 1426.78 1672.13 1425.34 L1681.58 1420.6 L1681.58 1425.62 L1672.71 1430.04 Q1669.24 1431.75 1668.11 1433.38 Q1666.97 1434.97 1666.97 1437.75 L1666.97 1442.84 L1681.58 1442.84 L1681.58 1447.52 L1647.02 1447.52 L1647.02 1436.96 Q1647.02 1431.04 1649.5 1428.12 Q1651.97 1425.2 1656.97 1425.2 Q1660.24 1425.2 1662.39 1426.73 Q1664.54 1428.24 1665.38 1431.13 M1650.86 1442.84 L1663.13 1442.84 L1663.13 1436.96 Q1663.13 1433.58 1661.58 1431.87 Q1660 1430.13 1656.97 1430.13 Q1653.94 1430.13 1652.41 1431.87 Q1650.86 1433.58 1650.86 1436.96 L1650.86 1442.84 Z" fill="#000000" fill-rule="nonzero" fill-opacity="1" /><path clip-path="url(#clip020)" d="M1651.63 1404.95 L1668.82 1411.29 L1668.82 1398.58 L1651.63 1404.95 M1647.02 1407.59 L1647.02 1402.29 L1681.58 1389.12 L1681.58 1393.98 L1672.71 1397.13 L1672.71 1412.7 L1681.58 1415.85 L1681.58 1420.78 L1647.02 1407.59 Z" fill="#000000" fill-rule="nonzero" fill-opacity="1" /><path clip-path="url(#clip020)" d="M1727.93 1499.35 L1740.92 1499.35 L1740.92 1493.47 Q1740.92 1490.2 1739.23 1488.42 Q1737.54 1486.64 1734.41 1486.64 Q1731.31 1486.64 1729.62 1488.42 Q1727.93 1490.2 1727.93 1493.47 L1727.93 1499.35 M1724.09 1504.02 L1724.09 1493.47 Q1724.09 1487.66 1726.73 1484.69 Q1729.35 1481.71 1734.41 1481.71 Q1739.53 1481.71 1742.15 1484.69 Q1744.76 1487.66 1744.76 1493.47 L1744.76 1499.35 L1758.65 1499.35 L1758.65 1504.02 L1724.09 1504.02 Z" fill="#000000" fill-rule="nonzero" fill-opacity="1" /><path clip-path="url(#clip020)" d="M1724.09 1475.44 L1724.09 1470.76 L1754.72 1470.76 L1754.72 1453.93 L1758.65 1453.93 L1758.65 1475.44 L1724.09 1475.44 Z" fill="#000000" fill-rule="nonzero" fill-opacity="1" /><path clip-path="url(#clip020)" d="M1724.09 1449.02 L1724.09 1442.73 L1753 1427.4 L1724.09 1427.4 L1724.09 1422.87 L1758.65 1422.87 L1758.65 1429.16 L1729.74 1444.49 L1758.65 1444.49 L1758.65 1449.02 L1724.09 1449.02 Z" fill="#000000" fill-rule="nonzero" fill-opacity="1" /><path clip-path="url(#clip020)" d="M1724.09 1418.35 L1724.09 1389.12 L1728.03 1389.12 L1728.03 1401.38 L1758.65 1401.38 L1758.65 1406.08 L1728.03 1406.08 L1728.03 1418.35 L1724.09 1418.35 Z" fill="#000000" fill-rule="nonzero" fill-opacity="1" /><path clip-path="url(#clip020)" d="M1802.3 1483.47 L1806.86 1483.47 Q1805.58 1486.13 1804.96 1488.49 Q1804.33 1490.85 1804.33 1493.05 Q1804.33 1496.87 1805.82 1498.95 Q1807.3 1501.01 1810.03 1501.01 Q1812.32 1501.01 1813.5 1499.65 Q1814.66 1498.26 1815.38 1494.42 L1815.95 1491.59 Q1816.95 1486.36 1819.47 1483.88 Q1821.97 1481.38 1826.19 1481.38 Q1831.21 1481.38 1833.8 1484.76 Q1836.39 1488.12 1836.39 1494.62 Q1836.39 1497.08 1835.84 1499.86 Q1835.28 1502.61 1834.2 1505.57 L1829.38 1505.57 Q1830.98 1502.73 1831.79 1500 Q1832.6 1497.26 1832.6 1494.62 Q1832.6 1490.62 1831.02 1488.44 Q1829.45 1486.27 1826.53 1486.27 Q1823.99 1486.27 1822.55 1487.84 Q1821.12 1489.39 1820.4 1492.96 L1819.84 1495.81 Q1818.8 1501.04 1816.58 1503.37 Q1814.36 1505.71 1810.4 1505.71 Q1805.82 1505.71 1803.18 1502.5 Q1800.54 1499.25 1800.54 1493.58 Q1800.54 1491.15 1800.98 1488.63 Q1801.42 1486.11 1802.3 1483.47 Z" fill="#000000" fill-rule="nonzero" fill-opacity="1" /><path clip-path="url(#clip020)" d="M1805.77 1461.66 L1822.97 1468 L1822.97 1455.3 L1805.77 1461.66 M1801.16 1464.3 L1801.16 1459 L1835.72 1445.83 L1835.72 1450.69 L1826.86 1453.84 L1826.86 1469.42 L1835.72 1472.56 L1835.72 1477.5 L1801.16 1464.3 Z" fill="#000000" fill-rule="nonzero" fill-opacity="1" /><path clip-path="url(#clip020)" d="M1835.72 1434.9 L1801.16 1448.1 L1801.16 1443.21 L1830.26 1432.26 L1801.16 1421.29 L1801.16 1416.43 L1835.72 1429.6 L1835.72 1434.9 Z" fill="#000000" fill-rule="nonzero" fill-opacity="1" /><path clip-path="url(#clip020)" d="M1801.16 1411.38 L1801.16 1389.53 L1805.1 1389.53 L1805.1 1406.71 L1815.33 1406.71 L1815.33 1390.25 L1819.26 1390.25 L1819.26 1406.71 L1831.79 1406.71 L1831.79 1389.12 L1835.72 1389.12 L1835.72 1411.38 L1801.16 1411.38 Z" fill="#000000" fill-rule="nonzero" fill-opacity="1" /><path clip-path="url(#clip020)" d="M1879.37 1492.06 L1883.93 1492.06 Q1882.66 1494.72 1882.03 1497.08 Q1881.41 1499.44 1881.41 1501.64 Q1881.41 1505.46 1882.89 1507.54 Q1884.37 1509.6 1887.1 1509.6 Q1889.39 1509.6 1890.57 1508.24 Q1891.73 1506.85 1892.45 1503 L1893.03 1500.18 Q1894.02 1494.95 1896.55 1492.47 Q1899.05 1489.97 1903.26 1489.97 Q1908.28 1489.97 1910.87 1493.35 Q1913.47 1496.71 1913.47 1503.21 Q1913.47 1505.67 1912.91 1508.44 Q1912.36 1511.2 1911.27 1514.16 L1906.45 1514.16 Q1908.05 1511.31 1908.86 1508.58 Q1909.67 1505.85 1909.67 1503.21 Q1909.67 1499.21 1908.1 1497.03 Q1906.52 1494.86 1903.61 1494.86 Q1901.06 1494.86 1899.62 1496.43 Q1898.19 1497.98 1897.47 1501.55 L1896.92 1504.39 Q1895.87 1509.62 1893.65 1511.96 Q1891.43 1514.3 1887.47 1514.3 Q1882.89 1514.3 1880.25 1511.08 Q1877.61 1507.84 1877.61 1502.17 Q1877.61 1499.74 1878.05 1497.22 Q1878.49 1494.69 1879.37 1492.06 Z" fill="#000000" fill-rule="nonzero" fill-opacity="1" /><path clip-path="url(#clip020)" d="M1896.29 1478 L1908.95 1478 L1908.95 1470.5 Q1908.95 1466.73 1907.4 1464.93 Q1905.83 1463.1 1902.61 1463.1 Q1899.37 1463.1 1897.84 1464.93 Q1896.29 1466.73 1896.29 1470.5 L1896.29 1478 M1882.08 1478 L1892.49 1478 L1892.49 1471.08 Q1892.49 1467.66 1891.22 1465.99 Q1889.92 1464.3 1887.29 1464.3 Q1884.67 1464.3 1883.37 1465.99 Q1882.08 1467.66 1882.08 1471.08 L1882.08 1478 M1878.24 1482.68 L1878.24 1470.74 Q1878.24 1465.39 1880.46 1462.5 Q1882.68 1459.6 1886.78 1459.6 Q1889.95 1459.6 1891.82 1461.08 Q1893.7 1462.56 1894.16 1465.44 Q1894.9 1461.99 1897.26 1460.09 Q1899.6 1458.17 1903.12 1458.17 Q1907.75 1458.17 1910.27 1461.31 Q1912.8 1464.46 1912.8 1470.27 L1912.8 1482.68 L1878.24 1482.68 Z" fill="#000000" fill-rule="nonzero" fill-opacity="1" /><path clip-path="url(#clip020)" d="M1878.24 1450.69 L1878.24 1445.99 L1899.23 1445.99 Q1904.79 1445.99 1907.24 1443.98 Q1909.67 1441.96 1909.67 1437.45 Q1909.67 1432.96 1907.24 1430.94 Q1904.79 1428.93 1899.23 1428.93 L1878.24 1428.93 L1878.24 1424.23 L1899.81 1424.23 Q1906.57 1424.23 1910.02 1427.59 Q1913.47 1430.92 1913.47 1437.45 Q1913.47 1444 1910.02 1447.36 Q1906.57 1450.69 1899.81 1450.69 L1878.24 1450.69 Z" fill="#000000" fill-rule="nonzero" fill-opacity="1" /><path clip-path="url(#clip020)" d="M1878.24 1417.13 L1878.24 1412.1 L1891.08 1403.51 L1878.24 1394.88 L1878.24 1389.86 L1894.83 1400.97 L1912.8 1389.12 L1912.8 1394.14 L1898.1 1403.86 L1912.8 1413.65 L1912.8 1418.7 L1894.35 1406.36 L1878.24 1417.13 Z" fill="#000000" fill-rule="nonzero" fill-opacity="1" /><path clip-path="url(#clip020)" d="M1956.44 1450.09 L1961 1450.09 Q1959.73 1452.75 1959.1 1455.11 Q1958.48 1457.47 1958.48 1459.67 Q1958.48 1463.49 1959.96 1465.57 Q1961.44 1467.63 1964.17 1467.63 Q1966.46 1467.63 1967.65 1466.27 Q1968.8 1464.88 1969.52 1461.04 L1970.1 1458.21 Q1971.09 1452.98 1973.62 1450.5 Q1976.12 1448 1980.33 1448 Q1985.35 1448 1987.95 1451.38 Q1990.54 1454.74 1990.54 1461.25 Q1990.54 1463.7 1989.98 1466.48 Q1989.43 1469.23 1988.34 1472.19 L1983.52 1472.19 Q1985.12 1469.35 1985.93 1466.62 Q1986.74 1463.88 1986.74 1461.25 Q1986.74 1457.24 1985.17 1455.06 Q1983.59 1452.89 1980.68 1452.89 Q1978.13 1452.89 1976.7 1454.46 Q1975.26 1456.01 1974.54 1459.58 L1973.99 1462.43 Q1972.95 1467.66 1970.72 1470 Q1968.5 1472.33 1964.54 1472.33 Q1959.96 1472.33 1957.32 1469.12 Q1954.68 1465.88 1954.68 1460.2 Q1954.68 1457.77 1955.12 1455.25 Q1955.56 1452.73 1956.44 1450.09 Z" fill="#000000" fill-rule="nonzero" fill-opacity="1" /><path clip-path="url(#clip020)" d="M1955.31 1440.71 L1955.31 1436.04 L1989.87 1436.04 L1989.87 1440.71 L1955.31 1440.71 Z" fill="#000000" fill-rule="nonzero" fill-opacity="1" /><path clip-path="url(#clip020)" d="M1973.66 1410.34 Q1974.17 1408.84 1975.84 1407.43 Q1977.51 1405.99 1980.42 1404.56 L1989.87 1399.81 L1989.87 1404.83 L1981 1409.26 Q1977.53 1410.97 1976.39 1412.59 Q1975.26 1414.19 1975.26 1416.96 L1975.26 1422.06 L1989.87 1422.06 L1989.87 1426.73 L1955.31 1426.73 L1955.31 1416.18 Q1955.31 1410.25 1957.78 1407.33 Q1960.26 1404.42 1965.26 1404.42 Q1968.52 1404.42 1970.68 1405.94 Q1972.83 1407.45 1973.66 1410.34 M1959.15 1422.06 L1971.42 1422.06 L1971.42 1416.18 Q1971.42 1412.8 1969.87 1411.08 Q1968.29 1409.35 1965.26 1409.35 Q1962.23 1409.35 1960.7 1411.08 Q1959.15 1412.8 1959.15 1416.18 L1959.15 1422.06 Z" fill="#000000" fill-rule="nonzero" fill-opacity="1" /><path clip-path="url(#clip020)" d="M1955.31 1393.79 L1955.31 1389.12 L1989.87 1389.12 L1989.87 1393.79 L1955.31 1393.79 Z" fill="#000000" fill-rule="nonzero" fill-opacity="1" /><path clip-path="url(#clip020)" d="M2033.51 1453.79 L2038.07 1453.79 Q2036.8 1456.45 2036.18 1458.81 Q2035.55 1461.18 2035.55 1463.38 Q2035.55 1467.19 2037.03 1469.28 Q2038.51 1471.34 2041.24 1471.34 Q2043.54 1471.34 2044.72 1469.97 Q2045.87 1468.58 2046.59 1464.74 L2047.17 1461.92 Q2048.17 1456.69 2050.69 1454.21 Q2053.19 1451.71 2057.4 1451.71 Q2062.43 1451.71 2065.02 1455.09 Q2067.61 1458.44 2067.61 1464.95 Q2067.61 1467.4 2067.05 1470.18 Q2066.5 1472.94 2065.41 1475.9 L2060.6 1475.9 Q2062.19 1473.05 2063 1470.32 Q2063.81 1467.59 2063.81 1464.95 Q2063.81 1460.94 2062.24 1458.77 Q2060.67 1456.59 2057.75 1456.59 Q2055.2 1456.59 2053.77 1458.17 Q2052.33 1459.72 2051.62 1463.28 L2051.06 1466.13 Q2050.02 1471.36 2047.8 1473.7 Q2045.57 1476.04 2041.62 1476.04 Q2037.03 1476.04 2034.39 1472.82 Q2031.75 1469.58 2031.75 1463.91 Q2031.75 1461.48 2032.19 1458.95 Q2032.63 1456.43 2033.51 1453.79 Z" fill="#000000" fill-rule="nonzero" fill-opacity="1" /><path clip-path="url(#clip020)" d="M2032.38 1449.21 L2032.38 1419.97 L2036.31 1419.97 L2036.31 1432.24 L2066.94 1432.24 L2066.94 1436.94 L2036.31 1436.94 L2036.31 1449.21 L2032.38 1449.21 Z" fill="#000000" fill-rule="nonzero" fill-opacity="1" /><path clip-path="url(#clip020)" d="M2032.38 1417.13 L2032.38 1412.1 L2045.23 1403.51 L2032.38 1394.88 L2032.38 1389.86 L2048.98 1400.97 L2066.94 1389.12 L2066.94 1394.14 L2052.24 1403.86 L2066.94 1413.65 L2066.94 1418.7 L2048.49 1406.36 L2032.38 1417.13 Z" fill="#000000" fill-rule="nonzero" fill-opacity="1" /><path clip-path="url(#clip020)" d="M2109.45 1503.58 L2109.45 1474.35 L2113.39 1474.35 L2113.39 1486.62 L2144.01 1486.62 L2144.01 1491.31 L2113.39 1491.31 L2113.39 1503.58 L2109.45 1503.58 Z" fill="#000000" fill-rule="nonzero" fill-opacity="1" /><path clip-path="url(#clip020)" d="M2109.45 1469.83 L2109.45 1465.16 L2140.08 1465.16 L2140.08 1448.33 L2144.01 1448.33 L2144.01 1469.83 L2109.45 1469.83 Z" fill="#000000" fill-rule="nonzero" fill-opacity="1" /><path clip-path="url(#clip020)" d="M2127.81 1427.03 Q2128.32 1425.53 2129.98 1424.12 Q2131.65 1422.68 2134.57 1421.25 L2144.01 1416.5 L2144.01 1421.52 L2135.15 1425.94 Q2131.67 1427.66 2130.54 1429.28 Q2129.4 1430.88 2129.4 1433.65 L2129.4 1438.75 L2144.01 1438.75 L2144.01 1443.42 L2109.45 1443.42 L2109.45 1432.87 Q2109.45 1426.94 2111.93 1424.02 Q2114.4 1421.11 2119.4 1421.11 Q2122.67 1421.11 2124.82 1422.63 Q2126.97 1424.14 2127.81 1427.03 M2113.29 1438.75 L2125.56 1438.75 L2125.56 1432.87 Q2125.56 1429.49 2124.01 1427.77 Q2122.44 1426.04 2119.4 1426.04 Q2116.37 1426.04 2114.84 1427.77 Q2113.29 1429.49 2113.29 1432.87 L2113.29 1438.75 Z" fill="#000000" fill-rule="nonzero" fill-opacity="1" /><path clip-path="url(#clip020)" d="M2109.45 1418.26 L2109.45 1413.24 L2123.66 1403.65 L2109.45 1394.14 L2109.45 1389.12 L2127.55 1401.34 L2144.01 1401.34 L2144.01 1406.04 L2127.55 1406.04 L2109.45 1418.26 Z" fill="#000000" fill-rule="nonzero" fill-opacity="1" /><path clip-path="url(#clip020)" d="M2186.52 1507.84 L2186.52 1478.61 L2190.46 1478.61 L2190.46 1490.87 L2221.08 1490.87 L2221.08 1495.57 L2190.46 1495.57 L2190.46 1507.84 L2186.52 1507.84 Z" fill="#000000" fill-rule="nonzero" fill-opacity="1" /><path clip-path="url(#clip020)" d="M2187.66 1453.38 L2192.22 1453.38 Q2190.94 1456.04 2190.32 1458.4 Q2189.69 1460.76 2189.69 1462.96 Q2189.69 1466.78 2191.18 1468.86 Q2192.66 1470.92 2195.39 1470.92 Q2197.68 1470.92 2198.86 1469.56 Q2200.02 1468.17 2200.74 1464.32 L2201.31 1461.5 Q2202.31 1456.27 2204.83 1453.79 Q2207.33 1451.29 2211.55 1451.29 Q2216.57 1451.29 2219.16 1454.67 Q2221.75 1458.03 2221.75 1464.53 Q2221.75 1466.99 2221.2 1469.76 Q2220.64 1472.52 2219.56 1475.48 L2214.74 1475.48 Q2216.34 1472.63 2217.15 1469.9 Q2217.96 1467.17 2217.96 1464.53 Q2217.96 1460.53 2216.38 1458.35 Q2214.81 1456.18 2211.89 1456.18 Q2209.35 1456.18 2207.91 1457.75 Q2206.48 1459.3 2205.76 1462.87 L2205.2 1465.71 Q2204.16 1470.94 2201.94 1473.28 Q2199.72 1475.62 2195.76 1475.62 Q2191.18 1475.62 2188.54 1472.4 Q2185.9 1469.16 2185.9 1463.49 Q2185.9 1461.06 2186.34 1458.54 Q2186.78 1456.01 2187.66 1453.38 Z" fill="#000000" fill-rule="nonzero" fill-opacity="1" /><path clip-path="url(#clip020)" d="M2186.52 1444 L2186.52 1439.32 L2217.15 1439.32 L2217.15 1422.5 L2221.08 1422.5 L2221.08 1444 L2186.52 1444 Z" fill="#000000" fill-rule="nonzero" fill-opacity="1" /><path clip-path="url(#clip020)" d="M2191.13 1404.95 L2208.33 1411.29 L2208.33 1398.58 L2191.13 1404.95 M2186.52 1407.59 L2186.52 1402.29 L2221.08 1389.12 L2221.08 1393.98 L2212.22 1397.13 L2212.22 1412.7 L2221.08 1415.85 L2221.08 1420.78 L2186.52 1407.59 Z" fill="#000000" fill-rule="nonzero" fill-opacity="1" /><path clip-path="url(#clip020)" d="M1196.49 1553.49 L1187.77 1577.14 L1205.24 1577.14 L1196.49 1553.49 M1192.86 1547.16 L1200.15 1547.16 L1218.26 1594.68 L1211.57 1594.68 L1207.24 1582.49 L1185.82 1582.49 L1181.5 1594.68 L1174.72 1594.68 L1192.86 1547.16 Z" fill="#000000" fill-rule="nonzero" fill-opacity="1" /><path clip-path="url(#clip020)" d="M1247.67 1560.08 L1247.67 1565.62 Q1245.18 1564.34 1242.51 1563.71 Q1239.84 1563.07 1236.97 1563.07 Q1232.61 1563.07 1230.42 1564.41 Q1228.25 1565.74 1228.25 1568.42 Q1228.25 1570.45 1229.81 1571.63 Q1231.37 1572.78 1236.08 1573.83 L1238.09 1574.27 Q1244.32 1575.61 1246.93 1578.06 Q1249.58 1580.48 1249.58 1584.84 Q1249.58 1589.81 1245.63 1592.7 Q1241.71 1595.6 1234.84 1595.6 Q1231.98 1595.6 1228.86 1595.03 Q1225.77 1594.48 1222.33 1593.37 L1222.33 1587.32 Q1225.58 1589.01 1228.73 1589.87 Q1231.88 1590.7 1234.97 1590.7 Q1239.11 1590.7 1241.33 1589.3 Q1243.56 1587.86 1243.56 1585.29 Q1243.56 1582.9 1241.94 1581.63 Q1240.35 1580.35 1234.9 1579.18 L1232.87 1578.7 Q1227.42 1577.55 1225 1575.2 Q1222.59 1572.81 1222.59 1568.67 Q1222.59 1563.64 1226.15 1560.91 Q1229.72 1558.17 1236.27 1558.17 Q1239.52 1558.17 1242.38 1558.65 Q1245.25 1559.12 1247.67 1560.08 Z" fill="#000000" fill-rule="nonzero" fill-opacity="1" /><path clip-path="url(#clip020)" d="M1281.63 1560.08 L1281.63 1565.62 Q1279.15 1564.34 1276.47 1563.71 Q1273.8 1563.07 1270.93 1563.07 Q1266.57 1563.07 1264.38 1564.41 Q1262.21 1565.74 1262.21 1568.42 Q1262.21 1570.45 1263.77 1571.63 Q1265.33 1572.78 1270.04 1573.83 L1272.05 1574.27 Q1278.29 1575.61 1280.9 1578.06 Q1283.54 1580.48 1283.54 1584.84 Q1283.54 1589.81 1279.59 1592.7 Q1275.68 1595.6 1268.8 1595.6 Q1265.94 1595.6 1262.82 1595.03 Q1259.73 1594.48 1256.29 1593.37 L1256.29 1587.32 Q1259.54 1589.01 1262.69 1589.87 Q1265.84 1590.7 1268.93 1590.7 Q1273.07 1590.7 1275.29 1589.3 Q1277.52 1587.86 1277.52 1585.29 Q1277.52 1582.9 1275.9 1581.63 Q1274.31 1580.35 1268.86 1579.18 L1266.83 1578.7 Q1261.39 1577.55 1258.97 1575.2 Q1256.55 1572.81 1256.55 1568.67 Q1256.55 1563.64 1260.11 1560.91 Q1263.68 1558.17 1270.23 1558.17 Q1273.48 1558.17 1276.34 1558.65 Q1279.21 1559.12 1281.63 1560.08 Z" fill="#000000" fill-rule="nonzero" fill-opacity="1" /><path clip-path="url(#clip020)" d="M1323.36 1575.39 L1323.36 1578.25 L1296.43 1578.25 Q1296.81 1584.3 1300.06 1587.48 Q1303.34 1590.63 1309.16 1590.63 Q1312.53 1590.63 1315.68 1589.81 Q1318.87 1588.98 1321.99 1587.32 L1321.99 1592.86 Q1318.84 1594.2 1315.53 1594.9 Q1312.22 1595.6 1308.81 1595.6 Q1300.28 1595.6 1295.28 1590.63 Q1290.32 1585.67 1290.32 1577.2 Q1290.32 1568.45 1295.03 1563.32 Q1299.77 1558.17 1307.79 1558.17 Q1314.98 1558.17 1319.15 1562.82 Q1323.36 1567.43 1323.36 1575.39 M1317.5 1573.67 Q1317.44 1568.86 1314.79 1566 Q1312.18 1563.13 1307.85 1563.13 Q1302.95 1563.13 1299.99 1565.9 Q1297.06 1568.67 1296.62 1573.7 L1317.5 1573.67 Z" fill="#000000" fill-rule="nonzero" fill-opacity="1" /><path clip-path="url(#clip020)" d="M1338.76 1548.91 L1338.76 1559.03 L1350.82 1559.03 L1350.82 1563.58 L1338.76 1563.58 L1338.76 1582.93 Q1338.76 1587.29 1339.94 1588.53 Q1341.15 1589.77 1344.81 1589.77 L1350.82 1589.77 L1350.82 1594.68 L1344.81 1594.68 Q1338.03 1594.68 1335.45 1592.16 Q1332.87 1589.61 1332.87 1582.93 L1332.87 1563.58 L1328.58 1563.58 L1328.58 1559.03 L1332.87 1559.03 L1332.87 1548.91 L1338.76 1548.91 Z" fill="#000000" fill-rule="nonzero" fill-opacity="1" /><path clip-path="url(#clip020)" d="M1381.25 1560.08 L1381.25 1565.62 Q1378.77 1564.34 1376.1 1563.71 Q1373.42 1563.07 1370.56 1563.07 Q1366.2 1563.07 1364 1564.41 Q1361.84 1565.74 1361.84 1568.42 Q1361.84 1570.45 1363.4 1571.63 Q1364.96 1572.78 1369.67 1573.83 L1371.67 1574.27 Q1377.91 1575.61 1380.52 1578.06 Q1383.16 1580.48 1383.16 1584.84 Q1383.16 1589.81 1379.21 1592.7 Q1375.3 1595.6 1368.42 1595.6 Q1365.56 1595.6 1362.44 1595.03 Q1359.35 1594.48 1355.92 1593.37 L1355.92 1587.32 Q1359.16 1589.01 1362.31 1589.87 Q1365.46 1590.7 1368.55 1590.7 Q1372.69 1590.7 1374.92 1589.3 Q1377.15 1587.86 1377.15 1585.29 Q1377.15 1582.9 1375.52 1581.63 Q1373.93 1580.35 1368.49 1579.18 L1366.45 1578.7 Q1361.01 1577.55 1358.59 1575.2 Q1356.17 1572.81 1356.17 1568.67 Q1356.17 1563.64 1359.74 1560.91 Q1363.3 1558.17 1369.86 1558.17 Q1373.1 1558.17 1375.97 1558.65 Q1378.83 1559.12 1381.25 1560.08 Z" fill="#000000" fill-rule="nonzero" fill-opacity="1" /><polyline clip-path="url(#clip020)" style="stroke:#000000; stroke-linecap:round; stroke-linejoin:round; stroke-width:4; stroke-opacity:1; fill:none" points="205.121,1369.92 205.121,47.2441 "/>
<polyline clip-path="url(#clip020)" style="stroke:#000000; stroke-linecap:round; stroke-linejoin:round; stroke-width:4; stroke-opacity:1; fill:none" points="205.121,1369.92 224.019,1369.92 "/>
<polyline clip-path="url(#clip020)" style="stroke:#000000; stroke-linecap:round; stroke-linejoin:round; stroke-width:4; stroke-opacity:1; fill:none" points="205.121,1094.71 224.019,1094.71 "/>
<polyline clip-path="url(#clip020)" style="stroke:#000000; stroke-linecap:round; stroke-linejoin:round; stroke-width:4; stroke-opacity:1; fill:none" points="205.121,819.503 224.019,819.503 "/>
<polyline clip-path="url(#clip020)" style="stroke:#000000; stroke-linecap:round; stroke-linejoin:round; stroke-width:4; stroke-opacity:1; fill:none" points="205.121,544.296 224.019,544.296 "/>
<polyline clip-path="url(#clip020)" style="stroke:#000000; stroke-linecap:round; stroke-linejoin:round; stroke-width:4; stroke-opacity:1; fill:none" points="205.121,269.089 224.019,269.089 "/>
<path clip-path="url(#clip020)" d="M157.177 1355.71 Q153.566 1355.71 151.737 1359.28 Q149.931 1362.82 149.931 1369.95 Q149.931 1377.06 151.737 1380.62 Q153.566 1384.16 157.177 1384.16 Q160.811 1384.16 162.616 1380.62 Q164.445 1377.06 164.445 1369.95 Q164.445 1362.82 162.616 1359.28 Q160.811 1355.71 157.177 1355.71 M157.177 1352.01 Q162.987 1352.01 166.042 1356.62 Q169.121 1361.2 169.121 1369.95 Q169.121 1378.68 166.042 1383.28 Q162.987 1387.87 157.177 1387.87 Q151.366 1387.87 148.288 1383.28 Q145.232 1378.68 145.232 1369.95 Q145.232 1361.2 148.288 1356.62 Q151.366 1352.01 157.177 1352.01 Z" fill="#000000" fill-rule="nonzero" fill-opacity="1" /><path clip-path="url(#clip020)" d="M117.825 1108.05 L125.464 1108.05 L125.464 1081.69 L117.154 1083.36 L117.154 1079.1 L125.418 1077.43 L130.093 1077.43 L130.093 1108.05 L137.732 1108.05 L137.732 1111.99 L117.825 1111.99 L117.825 1108.05 Z" fill="#000000" fill-rule="nonzero" fill-opacity="1" /><path clip-path="url(#clip020)" d="M157.177 1080.51 Q153.566 1080.51 151.737 1084.07 Q149.931 1087.61 149.931 1094.74 Q149.931 1101.85 151.737 1105.42 Q153.566 1108.96 157.177 1108.96 Q160.811 1108.96 162.616 1105.42 Q164.445 1101.85 164.445 1094.74 Q164.445 1087.61 162.616 1084.07 Q160.811 1080.51 157.177 1080.51 M157.177 1076.8 Q162.987 1076.8 166.042 1081.41 Q169.121 1085.99 169.121 1094.74 Q169.121 1103.47 166.042 1108.08 Q162.987 1112.66 157.177 1112.66 Q151.366 1112.66 148.288 1108.08 Q145.232 1103.47 145.232 1094.74 Q145.232 1085.99 148.288 1081.41 Q151.366 1076.8 157.177 1076.8 Z" fill="#000000" fill-rule="nonzero" fill-opacity="1" /><path clip-path="url(#clip020)" d="M121.043 832.847 L137.362 832.847 L137.362 836.783 L115.418 836.783 L115.418 832.847 Q118.08 830.093 122.663 825.463 Q127.269 820.81 128.45 819.468 Q130.695 816.945 131.575 815.209 Q132.478 813.449 132.478 811.76 Q132.478 809.005 130.533 807.269 Q128.612 805.533 125.51 805.533 Q123.311 805.533 120.857 806.297 Q118.427 807.061 115.649 808.611 L115.649 803.889 Q118.473 802.755 120.927 802.176 Q123.38 801.598 125.418 801.598 Q130.788 801.598 133.982 804.283 Q137.177 806.968 137.177 811.459 Q137.177 813.588 136.367 815.51 Q135.579 817.408 133.473 820 Q132.894 820.672 129.792 823.889 Q126.691 827.084 121.043 832.847 Z" fill="#000000" fill-rule="nonzero" fill-opacity="1" /><path clip-path="url(#clip020)" d="M157.177 805.301 Q153.566 805.301 151.737 808.866 Q149.931 812.408 149.931 819.537 Q149.931 826.644 151.737 830.209 Q153.566 833.75 157.177 833.75 Q160.811 833.75 162.616 830.209 Q164.445 826.644 164.445 819.537 Q164.445 812.408 162.616 808.866 Q160.811 805.301 157.177 805.301 M157.177 801.598 Q162.987 801.598 166.042 806.204 Q169.121 810.787 169.121 819.537 Q169.121 828.264 166.042 832.871 Q162.987 837.454 157.177 837.454 Q151.366 837.454 148.288 832.871 Q145.232 828.264 145.232 819.537 Q145.232 810.787 148.288 806.204 Q151.366 801.598 157.177 801.598 Z" fill="#000000" fill-rule="nonzero" fill-opacity="1" /><path clip-path="url(#clip020)" d="M131.181 542.942 Q134.538 543.659 136.413 545.928 Q138.311 548.196 138.311 551.53 Q138.311 556.645 134.792 559.446 Q131.274 562.247 124.793 562.247 Q122.617 562.247 120.302 561.807 Q118.01 561.391 115.556 560.534 L115.556 556.02 Q117.501 557.155 119.816 557.733 Q122.13 558.312 124.654 558.312 Q129.052 558.312 131.343 556.576 Q133.658 554.84 133.658 551.53 Q133.658 548.474 131.505 546.761 Q129.376 545.025 125.556 545.025 L121.529 545.025 L121.529 541.182 L125.742 541.182 Q129.191 541.182 131.019 539.817 Q132.848 538.428 132.848 535.835 Q132.848 533.173 130.95 531.761 Q129.075 530.326 125.556 530.326 Q123.635 530.326 121.436 530.743 Q119.237 531.159 116.598 532.039 L116.598 527.872 Q119.26 527.132 121.575 526.761 Q123.913 526.391 125.973 526.391 Q131.297 526.391 134.399 528.821 Q137.501 531.229 137.501 535.349 Q137.501 538.219 135.857 540.21 Q134.214 542.178 131.181 542.942 Z" fill="#000000" fill-rule="nonzero" fill-opacity="1" /><path clip-path="url(#clip020)" d="M157.177 530.095 Q153.566 530.095 151.737 533.659 Q149.931 537.201 149.931 544.331 Q149.931 551.437 151.737 555.002 Q153.566 558.543 157.177 558.543 Q160.811 558.543 162.616 555.002 Q164.445 551.437 164.445 544.331 Q164.445 537.201 162.616 533.659 Q160.811 530.095 157.177 530.095 M157.177 526.391 Q162.987 526.391 166.042 530.997 Q169.121 535.581 169.121 544.331 Q169.121 553.057 166.042 557.664 Q162.987 562.247 157.177 562.247 Q151.366 562.247 148.288 557.664 Q145.232 553.057 145.232 544.331 Q145.232 535.581 148.288 530.997 Q151.366 526.391 157.177 526.391 Z" fill="#000000" fill-rule="nonzero" fill-opacity="1" /><path clip-path="url(#clip020)" d="M129.862 255.883 L118.056 274.332 L129.862 274.332 L129.862 255.883 M128.635 251.809 L134.515 251.809 L134.515 274.332 L139.445 274.332 L139.445 278.221 L134.515 278.221 L134.515 286.369 L129.862 286.369 L129.862 278.221 L114.26 278.221 L114.26 273.707 L128.635 251.809 Z" fill="#000000" fill-rule="nonzero" fill-opacity="1" /><path clip-path="url(#clip020)" d="M157.177 254.888 Q153.566 254.888 151.737 258.452 Q149.931 261.994 149.931 269.124 Q149.931 276.23 151.737 279.795 Q153.566 283.337 157.177 283.337 Q160.811 283.337 162.616 279.795 Q164.445 276.23 164.445 269.124 Q164.445 261.994 162.616 258.452 Q160.811 254.888 157.177 254.888 M157.177 251.184 Q162.987 251.184 166.042 255.79 Q169.121 260.374 169.121 269.124 Q169.121 277.851 166.042 282.457 Q162.987 287.04 157.177 287.04 Q151.366 287.04 148.288 282.457 Q145.232 277.851 145.232 269.124 Q145.232 260.374 148.288 255.79 Q151.366 251.184 157.177 251.184 Z" fill="#000000" fill-rule="nonzero" fill-opacity="1" /><path clip-path="url(#clip020)" d="M21.7677 1093.43 L39.6235 1093.43 L39.6235 1085.35 Q39.6235 1080.86 37.3 1078.41 Q34.9765 1075.96 30.6797 1075.96 Q26.4147 1075.96 24.0912 1078.41 Q21.7677 1080.86 21.7677 1085.35 L21.7677 1093.43 M16.4842 1099.86 L16.4842 1085.35 Q16.4842 1077.36 20.1126 1073.29 Q23.7092 1069.18 30.6797 1069.18 Q37.7138 1069.18 41.3104 1073.29 Q44.907 1077.36 44.907 1085.35 L44.907 1093.43 L64.0042 1093.43 L64.0042 1099.86 L16.4842 1099.86 Z" fill="#000000" fill-rule="nonzero" fill-opacity="1" /><path clip-path="url(#clip020)" d="M44.7161 1032.64 L47.5806 1032.64 L47.5806 1059.57 Q53.6281 1059.19 56.8109 1055.94 Q59.9619 1052.66 59.9619 1046.84 Q59.9619 1043.46 59.1344 1040.31 Q58.3069 1037.13 56.6518 1034.01 L62.1899 1034.01 Q63.5267 1037.16 64.227 1040.47 Q64.9272 1043.78 64.9272 1047.19 Q64.9272 1055.72 59.9619 1060.72 Q54.9967 1065.68 46.5303 1065.68 Q37.7774 1065.68 32.6531 1060.97 Q27.4968 1056.23 27.4968 1048.21 Q27.4968 1041.01 32.1438 1036.84 Q36.7589 1032.64 44.7161 1032.64 M42.9973 1038.5 Q38.1912 1038.56 35.3266 1041.2 Q32.4621 1043.81 32.4621 1048.14 Q32.4621 1053.04 35.2312 1056 Q38.0002 1058.93 43.0292 1059.38 L42.9973 1038.5 Z" fill="#000000" fill-rule="nonzero" fill-opacity="1" /><path clip-path="url(#clip020)" d="M33.8307 1002.37 Q33.2578 1003.36 33.0032 1004.54 Q32.7167 1005.68 32.7167 1007.08 Q32.7167 1012.05 35.9632 1014.72 Q39.1779 1017.36 45.2253 1017.36 L64.0042 1017.36 L64.0042 1023.25 L28.3562 1023.25 L28.3562 1017.36 L33.8944 1017.36 Q30.6479 1015.52 29.0883 1012.56 Q27.4968 1009.6 27.4968 1005.37 Q27.4968 1004.76 27.5923 1004.03 Q27.656 1003.3 27.8151 1002.41 L33.8307 1002.37 Z" fill="#000000" fill-rule="nonzero" fill-opacity="1" /><path clip-path="url(#clip020)" d="M29.7248 972.009 L35.1993 972.009 Q33.8307 974.492 33.1623 977.006 Q32.4621 979.489 32.4621 982.035 Q32.4621 987.732 36.0905 990.883 Q39.6872 994.034 46.212 994.034 Q52.7369 994.034 56.3653 990.883 Q59.9619 987.732 59.9619 982.035 Q59.9619 979.489 59.2935 977.006 Q58.5933 974.492 57.2247 972.009 L62.6355 972.009 Q63.7814 974.46 64.3543 977.102 Q64.9272 979.712 64.9272 982.672 Q64.9272 990.724 59.8664 995.467 Q54.8057 1000.21 46.212 1000.21 Q37.491 1000.21 32.4939 995.435 Q27.4968 990.629 27.4968 982.29 Q27.4968 979.584 28.0697 977.006 Q28.6108 974.428 29.7248 972.009 Z" fill="#000000" fill-rule="nonzero" fill-opacity="1" /><path clip-path="url(#clip020)" d="M44.7161 931.332 L47.5806 931.332 L47.5806 958.259 Q53.6281 957.877 56.8109 954.631 Q59.9619 951.352 59.9619 945.528 Q59.9619 942.154 59.1344 939.003 Q58.3069 935.82 56.6518 932.701 L62.1899 932.701 Q63.5267 935.852 64.227 939.162 Q64.9272 942.472 64.9272 945.878 Q64.9272 954.408 59.9619 959.405 Q54.9967 964.37 46.5303 964.37 Q37.7774 964.37 32.6531 959.66 Q27.4968 954.917 27.4968 946.896 Q27.4968 939.703 32.1438 935.534 Q36.7589 931.332 44.7161 931.332 M42.9973 937.189 Q38.1912 937.252 35.3266 939.894 Q32.4621 942.504 32.4621 946.833 Q32.4621 951.734 35.2312 954.694 Q38.0002 957.623 43.0292 958.068 L42.9973 937.189 Z" fill="#000000" fill-rule="nonzero" fill-opacity="1" /><path clip-path="url(#clip020)" d="M42.4881 892.088 L64.0042 892.088 L64.0042 897.944 L42.679 897.944 Q37.6183 897.944 35.1038 899.917 Q32.5894 901.891 32.5894 905.838 Q32.5894 910.58 35.6131 913.317 Q38.6368 916.054 43.8567 916.054 L64.0042 916.054 L64.0042 921.943 L28.3562 921.943 L28.3562 916.054 L33.8944 916.054 Q30.6797 913.954 29.0883 911.121 Q27.4968 908.256 27.4968 904.533 Q27.4968 898.39 31.3163 895.239 Q35.1038 892.088 42.4881 892.088 Z" fill="#000000" fill-rule="nonzero" fill-opacity="1" /><path clip-path="url(#clip020)" d="M18.2347 874.614 L28.3562 874.614 L28.3562 862.551 L32.9077 862.551 L32.9077 874.614 L52.2594 874.614 Q56.6199 874.614 57.8613 873.436 Q59.1026 872.227 59.1026 868.566 L59.1026 862.551 L64.0042 862.551 L64.0042 868.566 Q64.0042 875.346 61.4897 877.924 Q58.9434 880.502 52.2594 880.502 L32.9077 880.502 L32.9077 884.799 L28.3562 884.799 L28.3562 880.502 L18.2347 880.502 L18.2347 874.614 Z" fill="#000000" fill-rule="nonzero" fill-opacity="1" /><path clip-path="url(#clip020)" d="M46.0847 838.647 Q46.0847 845.745 47.7079 848.482 Q49.3312 851.22 53.2461 851.22 Q56.3653 851.22 58.2114 849.183 Q60.0256 847.114 60.0256 843.581 Q60.0256 838.711 56.5881 835.783 Q53.1188 832.823 47.3897 832.823 L46.0847 832.823 L46.0847 838.647 M43.6657 826.966 L64.0042 826.966 L64.0042 832.823 L58.5933 832.823 Q61.8398 834.828 63.3994 837.82 Q64.9272 840.812 64.9272 845.14 Q64.9272 850.615 61.8716 853.862 Q58.7843 857.076 53.6281 857.076 Q47.6125 857.076 44.5569 853.066 Q41.5014 849.024 41.5014 841.035 L41.5014 832.823 L40.9285 832.823 Q36.8862 832.823 34.6901 835.496 Q32.4621 838.138 32.4621 842.944 Q32.4621 846 33.1941 848.896 Q33.9262 851.793 35.3903 854.466 L29.9795 854.466 Q28.7381 851.252 28.1334 848.228 Q27.4968 845.204 27.4968 842.34 Q27.4968 834.605 31.5072 830.786 Q35.5176 826.966 43.6657 826.966 Z" fill="#000000" fill-rule="nonzero" fill-opacity="1" /><path clip-path="url(#clip020)" d="M45.7664 791.446 Q39.4007 791.446 35.8996 794.088 Q32.3984 796.697 32.3984 801.44 Q32.3984 806.151 35.8996 808.792 Q39.4007 811.402 45.7664 811.402 Q52.1003 811.402 55.6014 808.792 Q59.1026 806.151 59.1026 801.44 Q59.1026 796.697 55.6014 794.088 Q52.1003 791.446 45.7664 791.446 M59.58 785.589 Q68.683 785.589 73.1071 789.632 Q77.5631 793.674 77.5631 802.013 Q77.5631 805.1 77.0857 807.837 Q76.6401 810.575 75.6852 813.153 L69.9879 813.153 Q71.3884 810.575 72.0568 808.06 Q72.7252 805.546 72.7252 802.936 Q72.7252 797.175 69.7015 794.31 Q66.7096 791.446 60.6303 791.446 L57.7339 791.446 Q60.885 793.26 62.4446 796.093 Q64.0042 798.925 64.0042 802.872 Q64.0042 809.429 59.0071 813.439 Q54.01 817.45 45.7664 817.45 Q37.491 817.45 32.4939 813.439 Q27.4968 809.429 27.4968 802.872 Q27.4968 798.925 29.0564 796.093 Q30.616 793.26 33.7671 791.446 L28.3562 791.446 L28.3562 785.589 L59.58 785.589 Z" fill="#000000" fill-rule="nonzero" fill-opacity="1" /><path clip-path="url(#clip020)" d="M44.7161 743.035 L47.5806 743.035 L47.5806 769.961 Q53.6281 769.58 56.8109 766.333 Q59.9619 763.055 59.9619 757.23 Q59.9619 753.856 59.1344 750.705 Q58.3069 747.522 56.6518 744.403 L62.1899 744.403 Q63.5267 747.554 64.227 750.864 Q64.9272 754.175 64.9272 757.58 Q64.9272 766.11 59.9619 771.107 Q54.9967 776.073 46.5303 776.073 Q37.7774 776.073 32.6531 771.362 Q27.4968 766.619 27.4968 758.599 Q27.4968 751.405 32.1438 747.236 Q36.7589 743.035 44.7161 743.035 M42.9973 748.891 Q38.1912 748.955 35.3266 751.596 Q32.4621 754.206 32.4621 758.535 Q32.4621 763.437 35.2312 766.397 Q38.0002 769.325 43.0292 769.771 L42.9973 748.891 Z" fill="#000000" fill-rule="nonzero" fill-opacity="1" /><path clip-path="url(#clip020)" d="M20.1444 676.863 L26.9239 676.863 Q23.9002 680.11 22.4043 683.802 Q20.9083 687.462 20.9083 691.6 Q20.9083 699.748 25.9054 704.076 Q30.8707 708.405 40.2919 708.405 Q49.6813 708.405 54.6784 704.076 Q59.6436 699.748 59.6436 691.6 Q59.6436 687.462 58.1477 683.802 Q56.6518 680.11 53.6281 676.863 L60.3439 676.863 Q62.6355 680.237 63.7814 684.024 Q64.9272 687.78 64.9272 691.982 Q64.9272 702.771 58.3387 708.978 Q51.7183 715.185 40.2919 715.185 Q28.8336 715.185 22.2451 708.978 Q15.6248 702.771 15.6248 691.982 Q15.6248 687.717 16.7706 683.961 Q17.8846 680.173 20.1444 676.863 Z" fill="#000000" fill-rule="nonzero" fill-opacity="1" /><path clip-path="url(#clip020)" d="M32.4621 653.374 Q32.4621 658.084 36.1542 660.821 Q39.8145 663.559 46.212 663.559 Q52.6095 663.559 56.3017 660.853 Q59.9619 658.116 59.9619 653.374 Q59.9619 648.695 56.2698 645.958 Q52.5777 643.22 46.212 643.22 Q39.8781 643.22 36.186 645.958 Q32.4621 648.695 32.4621 653.374 M27.4968 653.374 Q27.4968 645.735 32.4621 641.374 Q37.4273 637.014 46.212 637.014 Q54.9649 637.014 59.9619 641.374 Q64.9272 645.735 64.9272 653.374 Q64.9272 661.044 59.9619 665.405 Q54.9649 669.733 46.212 669.733 Q37.4273 669.733 32.4621 665.405 Q27.4968 661.044 27.4968 653.374 Z" fill="#000000" fill-rule="nonzero" fill-opacity="1" /><path clip-path="url(#clip020)" d="M35.1993 599.552 Q31.2526 597.355 29.3747 594.3 Q27.4968 591.244 27.4968 587.107 Q27.4968 581.537 31.4117 578.513 Q35.2948 575.489 42.4881 575.489 L64.0042 575.489 L64.0042 581.377 L42.679 581.377 Q37.5546 581.377 35.072 583.192 Q32.5894 585.006 32.5894 588.73 Q32.5894 593.281 35.6131 595.923 Q38.6368 598.565 43.8567 598.565 L64.0042 598.565 L64.0042 604.453 L42.679 604.453 Q37.5228 604.453 35.072 606.267 Q32.5894 608.082 32.5894 611.869 Q32.5894 616.357 35.6449 618.999 Q38.6686 621.641 43.8567 621.641 L64.0042 621.641 L64.0042 627.529 L28.3562 627.529 L28.3562 621.641 L33.8944 621.641 Q30.616 619.635 29.0564 616.834 Q27.4968 614.034 27.4968 610.182 Q27.4968 606.299 29.4702 603.594 Q31.4436 600.856 35.1993 599.552 Z" fill="#000000" fill-rule="nonzero" fill-opacity="1" /><path clip-path="url(#clip020)" d="M58.657 558.143 L77.5631 558.143 L77.5631 564.031 L28.3562 564.031 L28.3562 558.143 L33.7671 558.143 Q30.5842 556.297 29.0564 553.496 Q27.4968 550.663 27.4968 546.748 Q27.4968 540.255 32.6531 536.213 Q37.8093 532.139 46.212 532.139 Q54.6147 532.139 59.771 536.213 Q64.9272 540.255 64.9272 546.748 Q64.9272 550.663 63.3994 553.496 Q61.8398 556.297 58.657 558.143 M46.212 538.218 Q39.7508 538.218 36.0905 540.892 Q32.3984 543.533 32.3984 548.18 Q32.3984 552.827 36.0905 555.501 Q39.7508 558.143 46.212 558.143 Q52.6732 558.143 56.3653 555.501 Q60.0256 552.827 60.0256 548.18 Q60.0256 543.533 56.3653 540.892 Q52.6732 538.218 46.212 538.218 Z" fill="#000000" fill-rule="nonzero" fill-opacity="1" /><path clip-path="url(#clip020)" d="M32.4621 508.617 Q32.4621 513.328 36.1542 516.065 Q39.8145 518.803 46.212 518.803 Q52.6095 518.803 56.3017 516.097 Q59.9619 513.36 59.9619 508.617 Q59.9619 503.939 56.2698 501.201 Q52.5777 498.464 46.212 498.464 Q39.8781 498.464 36.186 501.201 Q32.4621 503.939 32.4621 508.617 M27.4968 508.617 Q27.4968 500.979 32.4621 496.618 Q37.4273 492.258 46.212 492.258 Q54.9649 492.258 59.9619 496.618 Q64.9272 500.979 64.9272 508.617 Q64.9272 516.288 59.9619 520.649 Q54.9649 524.977 46.212 524.977 Q37.4273 524.977 32.4621 520.649 Q27.4968 516.288 27.4968 508.617 Z" fill="#000000" fill-rule="nonzero" fill-opacity="1" /><path clip-path="url(#clip020)" d="M29.4065 459.824 L34.9447 459.824 Q33.6716 462.307 33.035 464.98 Q32.3984 467.654 32.3984 470.519 Q32.3984 474.879 33.7352 477.075 Q35.072 479.24 37.7456 479.24 Q39.7826 479.24 40.9603 477.68 Q42.1061 476.12 43.1565 471.41 L43.6021 469.405 Q44.9389 463.166 47.3897 460.556 Q49.8086 457.915 54.1691 457.915 Q59.1344 457.915 62.0308 461.861 Q64.9272 465.776 64.9272 472.651 Q64.9272 475.516 64.3543 478.635 Q63.8132 481.722 62.6992 485.16 L56.6518 485.16 Q58.3387 481.913 59.198 478.762 Q60.0256 475.611 60.0256 472.524 Q60.0256 468.386 58.6251 466.158 Q57.1929 463.93 54.6147 463.93 Q52.2276 463.93 50.9545 465.553 Q49.6813 467.145 48.5037 472.588 L48.0262 474.625 Q46.8804 480.067 44.5251 482.486 Q42.138 484.905 38.0002 484.905 Q32.9713 484.905 30.2341 481.34 Q27.4968 477.776 27.4968 471.219 Q27.4968 467.972 27.9743 465.108 Q28.4517 462.243 29.4065 459.824 Z" fill="#000000" fill-rule="nonzero" fill-opacity="1" /><path clip-path="url(#clip020)" d="M28.3562 448.589 L28.3562 442.732 L64.0042 442.732 L64.0042 448.589 L28.3562 448.589 M14.479 448.589 L14.479 442.732 L21.895 442.732 L21.895 448.589 L14.479 448.589 Z" fill="#000000" fill-rule="nonzero" fill-opacity="1" /><path clip-path="url(#clip020)" d="M18.2347 424.686 L28.3562 424.686 L28.3562 412.623 L32.9077 412.623 L32.9077 424.686 L52.2594 424.686 Q56.6199 424.686 57.8613 423.508 Q59.1026 422.298 59.1026 418.638 L59.1026 412.623 L64.0042 412.623 L64.0042 418.638 Q64.0042 425.418 61.4897 427.996 Q58.9434 430.574 52.2594 430.574 L32.9077 430.574 L32.9077 434.871 L28.3562 434.871 L28.3562 430.574 L18.2347 430.574 L18.2347 424.686 Z" fill="#000000" fill-rule="nonzero" fill-opacity="1" /><path clip-path="url(#clip020)" d="M28.3562 404.92 L28.3562 399.064 L64.0042 399.064 L64.0042 404.92 L28.3562 404.92 M14.479 404.92 L14.479 399.064 L21.895 399.064 L21.895 404.92 L14.479 404.92 Z" fill="#000000" fill-rule="nonzero" fill-opacity="1" /><path clip-path="url(#clip020)" d="M32.4621 372.996 Q32.4621 377.707 36.1542 380.444 Q39.8145 383.181 46.212 383.181 Q52.6095 383.181 56.3017 380.476 Q59.9619 377.738 59.9619 372.996 Q59.9619 368.317 56.2698 365.58 Q52.5777 362.843 46.212 362.843 Q39.8781 362.843 36.186 365.58 Q32.4621 368.317 32.4621 372.996 M27.4968 372.996 Q27.4968 365.357 32.4621 360.997 Q37.4273 356.636 46.212 356.636 Q54.9649 356.636 59.9619 360.997 Q64.9272 365.357 64.9272 372.996 Q64.9272 380.667 59.9619 385.027 Q54.9649 389.356 46.212 389.356 Q37.4273 389.356 32.4621 385.027 Q27.4968 380.667 27.4968 372.996 Z" fill="#000000" fill-rule="nonzero" fill-opacity="1" /><path clip-path="url(#clip020)" d="M42.4881 317.296 L64.0042 317.296 L64.0042 323.153 L42.679 323.153 Q37.6183 323.153 35.1038 325.126 Q32.5894 327.099 32.5894 331.046 Q32.5894 335.788 35.6131 338.526 Q38.6368 341.263 43.8567 341.263 L64.0042 341.263 L64.0042 347.151 L28.3562 347.151 L28.3562 341.263 L33.8944 341.263 Q30.6797 339.162 29.0883 336.33 Q27.4968 333.465 27.4968 329.741 Q27.4968 323.598 31.3163 320.447 Q35.1038 317.296 42.4881 317.296 Z" fill="#000000" fill-rule="nonzero" fill-opacity="1" /><path clip-path="url(#clip022)" d="M323.245 1369.92 L323.245 1369.92 L384.902 1369.92 L384.902 1369.92 L323.245 1369.92 L323.245 1369.92  Z" fill="#009af9" fill-rule="evenodd" fill-opacity="1"/>
<polyline clip-path="url(#clip022)" style="stroke:#000000; stroke-linecap:round; stroke-linejoin:round; stroke-width:4; stroke-opacity:1; fill:none" points="323.245,1369.92 323.245,1369.92 384.902,1369.92 323.245,1369.92 "/>
<path clip-path="url(#clip022)" d="M400.317 1369.92 L400.317 1369.92 L461.974 1369.92 L461.974 1369.92 L400.317 1369.92 L400.317 1369.92  Z" fill="#009af9" fill-rule="evenodd" fill-opacity="1"/>
<polyline clip-path="url(#clip022)" style="stroke:#000000; stroke-linecap:round; stroke-linejoin:round; stroke-width:4; stroke-opacity:1; fill:none" points="400.317,1369.92 400.317,1369.92 461.974,1369.92 400.317,1369.92 "/>
<path clip-path="url(#clip022)" d="M477.389 1369.92 L477.389 1369.92 L539.047 1369.92 L539.047 1369.92 L477.389 1369.92 L477.389 1369.92  Z" fill="#009af9" fill-rule="evenodd" fill-opacity="1"/>
<polyline clip-path="url(#clip022)" style="stroke:#000000; stroke-linecap:round; stroke-linejoin:round; stroke-width:4; stroke-opacity:1; fill:none" points="477.389,1369.92 477.389,1369.92 539.047,1369.92 477.389,1369.92 "/>
<path clip-path="url(#clip022)" d="M554.461 1360.94 L554.461 1369.92 L616.119 1369.92 L616.119 1360.94 L554.461 1360.94 L554.461 1360.94  Z" fill="#009af9" fill-rule="evenodd" fill-opacity="1"/>
<polyline clip-path="url(#clip022)" style="stroke:#000000; stroke-linecap:round; stroke-linejoin:round; stroke-width:4; stroke-opacity:1; fill:none" points="554.461,1360.94 554.461,1369.92 616.119,1369.92 616.119,1360.94 554.461,1360.94 "/>
<path clip-path="url(#clip022)" d="M631.533 1369.92 L631.533 1369.92 L693.191 1369.92 L693.191 1369.92 L631.533 1369.92 L631.533 1369.92  Z" fill="#009af9" fill-rule="evenodd" fill-opacity="1"/>
<polyline clip-path="url(#clip022)" style="stroke:#000000; stroke-linecap:round; stroke-linejoin:round; stroke-width:4; stroke-opacity:1; fill:none" points="631.533,1369.92 631.533,1369.92 693.191,1369.92 631.533,1369.92 "/>
<path clip-path="url(#clip022)" d="M708.605 1369.92 L708.605 1369.92 L770.263 1369.92 L770.263 1369.92 L708.605 1369.92 L708.605 1369.92  Z" fill="#009af9" fill-rule="evenodd" fill-opacity="1"/>
<polyline clip-path="url(#clip022)" style="stroke:#000000; stroke-linecap:round; stroke-linejoin:round; stroke-width:4; stroke-opacity:1; fill:none" points="708.605,1369.92 708.605,1369.92 770.263,1369.92 708.605,1369.92 "/>
<path clip-path="url(#clip022)" d="M785.677 47.2441 L785.677 1369.92 L847.335 1369.92 L847.335 47.2441 L785.677 47.2441 L785.677 47.2441  Z" fill="#009af9" fill-rule="evenodd" fill-opacity="1"/>
<polyline clip-path="url(#clip022)" style="stroke:#000000; stroke-linecap:round; stroke-linejoin:round; stroke-width:4; stroke-opacity:1; fill:none" points="785.677,47.2441 785.677,1369.92 847.335,1369.92 847.335,47.2441 785.677,47.2441 "/>
<path clip-path="url(#clip022)" d="M862.749 1334.74 L862.749 1369.92 L924.407 1369.92 L924.407 1334.74 L862.749 1334.74 L862.749 1334.74  Z" fill="#009af9" fill-rule="evenodd" fill-opacity="1"/>
<polyline clip-path="url(#clip022)" style="stroke:#000000; stroke-linecap:round; stroke-linejoin:round; stroke-width:4; stroke-opacity:1; fill:none" points="862.749,1334.74 862.749,1369.92 924.407,1369.92 924.407,1334.74 862.749,1334.74 "/>
<path clip-path="url(#clip022)" d="M939.821 1369.92 L939.821 1369.92 L1001.48 1369.92 L1001.48 1369.92 L939.821 1369.92 L939.821 1369.92  Z" fill="#009af9" fill-rule="evenodd" fill-opacity="1"/>
<polyline clip-path="url(#clip022)" style="stroke:#000000; stroke-linecap:round; stroke-linejoin:round; stroke-width:4; stroke-opacity:1; fill:none" points="939.821,1369.92 939.821,1369.92 1001.48,1369.92 939.821,1369.92 "/>
<path clip-path="url(#clip022)" d="M1016.89 1369.92 L1016.89 1369.92 L1078.55 1369.92 L1078.55 1369.92 L1016.89 1369.92 L1016.89 1369.92  Z" fill="#009af9" fill-rule="evenodd" fill-opacity="1"/>
<polyline clip-path="url(#clip022)" style="stroke:#000000; stroke-linecap:round; stroke-linejoin:round; stroke-width:4; stroke-opacity:1; fill:none" points="1016.89,1369.92 1016.89,1369.92 1078.55,1369.92 1016.89,1369.92 "/>
<path clip-path="url(#clip022)" d="M1093.97 1369.92 L1093.97 1369.92 L1155.62 1369.92 L1155.62 1369.92 L1093.97 1369.92 L1093.97 1369.92  Z" fill="#009af9" fill-rule="evenodd" fill-opacity="1"/>
<polyline clip-path="url(#clip022)" style="stroke:#000000; stroke-linecap:round; stroke-linejoin:round; stroke-width:4; stroke-opacity:1; fill:none" points="1093.97,1369.92 1093.97,1369.92 1155.62,1369.92 1093.97,1369.92 "/>
<path clip-path="url(#clip022)" d="M1171.04 1369.92 L1171.04 1369.92 L1232.7 1369.92 L1232.7 1369.92 L1171.04 1369.92 L1171.04 1369.92  Z" fill="#009af9" fill-rule="evenodd" fill-opacity="1"/>
<polyline clip-path="url(#clip022)" style="stroke:#000000; stroke-linecap:round; stroke-linejoin:round; stroke-width:4; stroke-opacity:1; fill:none" points="1171.04,1369.92 1171.04,1369.92 1232.7,1369.92 1171.04,1369.92 "/>
<path clip-path="url(#clip022)" d="M1248.11 563.704 L1248.11 1369.92 L1309.77 1369.92 L1309.77 563.704 L1248.11 563.704 L1248.11 563.704  Z" fill="#009af9" fill-rule="evenodd" fill-opacity="1"/>
<polyline clip-path="url(#clip022)" style="stroke:#000000; stroke-linecap:round; stroke-linejoin:round; stroke-width:4; stroke-opacity:1; fill:none" points="1248.11,563.704 1248.11,1369.92 1309.77,1369.92 1309.77,563.704 1248.11,563.704 "/>
<path clip-path="url(#clip022)" d="M1325.18 1369.92 L1325.18 1369.92 L1386.84 1369.92 L1386.84 1369.92 L1325.18 1369.92 L1325.18 1369.92  Z" fill="#009af9" fill-rule="evenodd" fill-opacity="1"/>
<polyline clip-path="url(#clip022)" style="stroke:#000000; stroke-linecap:round; stroke-linejoin:round; stroke-width:4; stroke-opacity:1; fill:none" points="1325.18,1369.92 1325.18,1369.92 1386.84,1369.92 1325.18,1369.92 "/>
<path clip-path="url(#clip022)" d="M1402.25 1369.92 L1402.25 1369.92 L1463.91 1369.92 L1463.91 1369.92 L1402.25 1369.92 L1402.25 1369.92  Z" fill="#009af9" fill-rule="evenodd" fill-opacity="1"/>
<polyline clip-path="url(#clip022)" style="stroke:#000000; stroke-linecap:round; stroke-linejoin:round; stroke-width:4; stroke-opacity:1; fill:none" points="1402.25,1369.92 1402.25,1369.92 1463.91,1369.92 1402.25,1369.92 "/>
<path clip-path="url(#clip022)" d="M1479.33 1369.92 L1479.33 1369.92 L1540.98 1369.92 L1540.98 1369.92 L1479.33 1369.92 L1479.33 1369.92  Z" fill="#009af9" fill-rule="evenodd" fill-opacity="1"/>
<polyline clip-path="url(#clip022)" style="stroke:#000000; stroke-linecap:round; stroke-linejoin:round; stroke-width:4; stroke-opacity:1; fill:none" points="1479.33,1369.92 1479.33,1369.92 1540.98,1369.92 1479.33,1369.92 "/>
<path clip-path="url(#clip022)" d="M1556.4 1369.92 L1556.4 1369.92 L1618.06 1369.92 L1618.06 1369.92 L1556.4 1369.92 L1556.4 1369.92  Z" fill="#009af9" fill-rule="evenodd" fill-opacity="1"/>
<polyline clip-path="url(#clip022)" style="stroke:#000000; stroke-linecap:round; stroke-linejoin:round; stroke-width:4; stroke-opacity:1; fill:none" points="1556.4,1369.92 1556.4,1369.92 1618.06,1369.92 1556.4,1369.92 "/>
<path clip-path="url(#clip022)" d="M1633.47 1369.92 L1633.47 1369.92 L1695.13 1369.92 L1695.13 1369.92 L1633.47 1369.92 L1633.47 1369.92  Z" fill="#009af9" fill-rule="evenodd" fill-opacity="1"/>
<polyline clip-path="url(#clip022)" style="stroke:#000000; stroke-linecap:round; stroke-linejoin:round; stroke-width:4; stroke-opacity:1; fill:none" points="1633.47,1369.92 1633.47,1369.92 1695.13,1369.92 1633.47,1369.92 "/>
<path clip-path="url(#clip022)" d="M1710.54 1369.92 L1710.54 1369.92 L1772.2 1369.92 L1772.2 1369.92 L1710.54 1369.92 L1710.54 1369.92  Z" fill="#009af9" fill-rule="evenodd" fill-opacity="1"/>
<polyline clip-path="url(#clip022)" style="stroke:#000000; stroke-linecap:round; stroke-linejoin:round; stroke-width:4; stroke-opacity:1; fill:none" points="1710.54,1369.92 1710.54,1369.92 1772.2,1369.92 1710.54,1369.92 "/>
<path clip-path="url(#clip022)" d="M1787.61 1369.92 L1787.61 1369.92 L1849.27 1369.92 L1849.27 1369.92 L1787.61 1369.92 L1787.61 1369.92  Z" fill="#009af9" fill-rule="evenodd" fill-opacity="1"/>
<polyline clip-path="url(#clip022)" style="stroke:#000000; stroke-linecap:round; stroke-linejoin:round; stroke-width:4; stroke-opacity:1; fill:none" points="1787.61,1369.92 1787.61,1369.92 1849.27,1369.92 1787.61,1369.92 "/>
<path clip-path="url(#clip022)" d="M1864.69 1107.71 L1864.69 1369.92 L1926.34 1369.92 L1926.34 1107.71 L1864.69 1107.71 L1864.69 1107.71  Z" fill="#009af9" fill-rule="evenodd" fill-opacity="1"/>
<polyline clip-path="url(#clip022)" style="stroke:#000000; stroke-linecap:round; stroke-linejoin:round; stroke-width:4; stroke-opacity:1; fill:none" points="1864.69,1107.71 1864.69,1369.92 1926.34,1369.92 1926.34,1107.71 1864.69,1107.71 "/>
<path clip-path="url(#clip022)" d="M1941.76 1053.13 L1941.76 1369.92 L2003.42 1369.92 L2003.42 1053.13 L1941.76 1053.13 L1941.76 1053.13  Z" fill="#009af9" fill-rule="evenodd" fill-opacity="1"/>
<polyline clip-path="url(#clip022)" style="stroke:#000000; stroke-linecap:round; stroke-linejoin:round; stroke-width:4; stroke-opacity:1; fill:none" points="1941.76,1053.13 1941.76,1369.92 2003.42,1369.92 2003.42,1053.13 1941.76,1053.13 "/>
<path clip-path="url(#clip022)" d="M2018.83 1369.92 L2018.83 1369.92 L2080.49 1369.92 L2080.49 1369.92 L2018.83 1369.92 L2018.83 1369.92  Z" fill="#009af9" fill-rule="evenodd" fill-opacity="1"/>
<polyline clip-path="url(#clip022)" style="stroke:#000000; stroke-linecap:round; stroke-linejoin:round; stroke-width:4; stroke-opacity:1; fill:none" points="2018.83,1369.92 2018.83,1369.92 2080.49,1369.92 2018.83,1369.92 "/>
<path clip-path="url(#clip022)" d="M2095.9 1369.92 L2095.9 1369.92 L2157.56 1369.92 L2157.56 1369.92 L2095.9 1369.92 L2095.9 1369.92  Z" fill="#009af9" fill-rule="evenodd" fill-opacity="1"/>
<polyline clip-path="url(#clip022)" style="stroke:#000000; stroke-linecap:round; stroke-linejoin:round; stroke-width:4; stroke-opacity:1; fill:none" points="2095.9,1369.92 2095.9,1369.92 2157.56,1369.92 2095.9,1369.92 "/>
<path clip-path="url(#clip022)" d="M2172.97 1369.92 L2172.97 1369.92 L2234.63 1369.92 L2234.63 1369.92 L2172.97 1369.92 L2172.97 1369.92  Z" fill="#009af9" fill-rule="evenodd" fill-opacity="1"/>
<polyline clip-path="url(#clip022)" style="stroke:#000000; stroke-linecap:round; stroke-linejoin:round; stroke-width:4; stroke-opacity:1; fill:none" points="2172.97,1369.92 2172.97,1369.92 2234.63,1369.92 2172.97,1369.92 "/>
<circle clip-path="url(#clip022)" style="fill:#009af9; stroke:none; fill-opacity:0" cx="354.074" cy="1369.92" r="2"/>
<circle clip-path="url(#clip022)" style="fill:#009af9; stroke:none; fill-opacity:0" cx="431.146" cy="1369.92" r="2"/>
<circle clip-path="url(#clip022)" style="fill:#009af9; stroke:none; fill-opacity:0" cx="508.218" cy="1369.92" r="2"/>
<circle clip-path="url(#clip022)" style="fill:#009af9; stroke:none; fill-opacity:0" cx="585.29" cy="1360.94" r="2"/>
<circle clip-path="url(#clip022)" style="fill:#009af9; stroke:none; fill-opacity:0" cx="662.362" cy="1369.92" r="2"/>
<circle clip-path="url(#clip022)" style="fill:#009af9; stroke:none; fill-opacity:0" cx="739.434" cy="1369.92" r="2"/>
<circle clip-path="url(#clip022)" style="fill:#009af9; stroke:none; fill-opacity:0" cx="816.506" cy="47.2441" r="2"/>
<circle clip-path="url(#clip022)" style="fill:#009af9; stroke:none; fill-opacity:0" cx="893.578" cy="1334.74" r="2"/>
<circle clip-path="url(#clip022)" style="fill:#009af9; stroke:none; fill-opacity:0" cx="970.65" cy="1369.92" r="2"/>
<circle clip-path="url(#clip022)" style="fill:#009af9; stroke:none; fill-opacity:0" cx="1047.72" cy="1369.92" r="2"/>
<circle clip-path="url(#clip022)" style="fill:#009af9; stroke:none; fill-opacity:0" cx="1124.79" cy="1369.92" r="2"/>
<circle clip-path="url(#clip022)" style="fill:#009af9; stroke:none; fill-opacity:0" cx="1201.87" cy="1369.92" r="2"/>
<circle clip-path="url(#clip022)" style="fill:#009af9; stroke:none; fill-opacity:0" cx="1278.94" cy="563.704" r="2"/>
<circle clip-path="url(#clip022)" style="fill:#009af9; stroke:none; fill-opacity:0" cx="1356.01" cy="1369.92" r="2"/>
<circle clip-path="url(#clip022)" style="fill:#009af9; stroke:none; fill-opacity:0" cx="1433.08" cy="1369.92" r="2"/>
<circle clip-path="url(#clip022)" style="fill:#009af9; stroke:none; fill-opacity:0" cx="1510.15" cy="1369.92" r="2"/>
<circle clip-path="url(#clip022)" style="fill:#009af9; stroke:none; fill-opacity:0" cx="1587.23" cy="1369.92" r="2"/>
<circle clip-path="url(#clip022)" style="fill:#009af9; stroke:none; fill-opacity:0" cx="1664.3" cy="1369.92" r="2"/>
<circle clip-path="url(#clip022)" style="fill:#009af9; stroke:none; fill-opacity:0" cx="1741.37" cy="1369.92" r="2"/>
<circle clip-path="url(#clip022)" style="fill:#009af9; stroke:none; fill-opacity:0" cx="1818.44" cy="1369.92" r="2"/>
<circle clip-path="url(#clip022)" style="fill:#009af9; stroke:none; fill-opacity:0" cx="1895.52" cy="1107.71" r="2"/>
<circle clip-path="url(#clip022)" style="fill:#009af9; stroke:none; fill-opacity:0" cx="1972.59" cy="1053.13" r="2"/>
<circle clip-path="url(#clip022)" style="fill:#009af9; stroke:none; fill-opacity:0" cx="2049.66" cy="1369.92" r="2"/>
<circle clip-path="url(#clip022)" style="fill:#009af9; stroke:none; fill-opacity:0" cx="2126.73" cy="1369.92" r="2"/>
<circle clip-path="url(#clip022)" style="fill:#009af9; stroke:none; fill-opacity:0" cx="2203.8" cy="1369.92" r="2"/>
</svg>
