<?xml version="1.0" encoding="utf-8"?>
<svg xmlns="http://www.w3.org/2000/svg" xmlns:xlink="http://www.w3.org/1999/xlink" width="600" height="400" viewBox="0 0 2400 1600">
<defs>
  <clipPath id="clip810">
    <rect x="0" y="0" width="2400" height="1600"/>
  </clipPath>
</defs>
<path clip-path="url(#clip810)" d="M0 1600 L2400 1600 L2400 0 L0 0  Z" fill="#ffffff" fill-rule="evenodd" fill-opacity="1"/>
<defs>
  <clipPath id="clip811">
    <rect x="480" y="0" width="1681" height="1600"/>
  </clipPath>
</defs>
<path clip-path="url(#clip810)" d="M217.783 1423.18 L2352.76 1423.18 L2352.76 47.2441 L217.783 47.2441  Z" fill="#ffffff" fill-rule="evenodd" fill-opacity="1"/>
<defs>
  <clipPath id="clip812">
    <rect x="217" y="47" width="2136" height="1377"/>
  </clipPath>
</defs>
<polyline clip-path="url(#clip812)" style="stroke:#000000; stroke-linecap:round; stroke-linejoin:round; stroke-width:2; stroke-opacity:0.1; fill:none" points="274.607,1423.18 274.607,47.2441 "/>
<polyline clip-path="url(#clip812)" style="stroke:#000000; stroke-linecap:round; stroke-linejoin:round; stroke-width:2; stroke-opacity:0.1; fill:none" points="779.175,1423.18 779.175,47.2441 "/>
<polyline clip-path="url(#clip812)" style="stroke:#000000; stroke-linecap:round; stroke-linejoin:round; stroke-width:2; stroke-opacity:0.1; fill:none" points="1285.13,1423.18 1285.13,47.2441 "/>
<polyline clip-path="url(#clip812)" style="stroke:#000000; stroke-linecap:round; stroke-linejoin:round; stroke-width:2; stroke-opacity:0.1; fill:none" points="1789.69,1423.18 1789.69,47.2441 "/>
<polyline clip-path="url(#clip812)" style="stroke:#000000; stroke-linecap:round; stroke-linejoin:round; stroke-width:2; stroke-opacity:0.1; fill:none" points="2294.26,1423.18 2294.26,47.2441 "/>
<polyline clip-path="url(#clip812)" style="stroke:#000000; stroke-linecap:round; stroke-linejoin:round; stroke-width:2; stroke-opacity:0.1; fill:none" points="217.783,1365.21 2352.76,1365.21 "/>
<polyline clip-path="url(#clip812)" style="stroke:#000000; stroke-linecap:round; stroke-linejoin:round; stroke-width:2; stroke-opacity:0.1; fill:none" points="217.783,1085.24 2352.76,1085.24 "/>
<polyline clip-path="url(#clip812)" style="stroke:#000000; stroke-linecap:round; stroke-linejoin:round; stroke-width:2; stroke-opacity:0.1; fill:none" points="217.783,805.275 2352.76,805.275 "/>
<polyline clip-path="url(#clip812)" style="stroke:#000000; stroke-linecap:round; stroke-linejoin:round; stroke-width:2; stroke-opacity:0.1; fill:none" points="217.783,525.307 2352.76,525.307 "/>
<polyline clip-path="url(#clip812)" style="stroke:#000000; stroke-linecap:round; stroke-linejoin:round; stroke-width:2; stroke-opacity:0.1; fill:none" points="217.783,245.338 2352.76,245.338 "/>
<polyline clip-path="url(#clip810)" style="stroke:#000000; stroke-linecap:round; stroke-linejoin:round; stroke-width:4; stroke-opacity:1; fill:none" points="217.783,1423.18 2352.76,1423.18 "/>
<polyline clip-path="url(#clip810)" style="stroke:#000000; stroke-linecap:round; stroke-linejoin:round; stroke-width:4; stroke-opacity:1; fill:none" points="274.607,1423.18 274.607,1404.28 "/>
<polyline clip-path="url(#clip810)" style="stroke:#000000; stroke-linecap:round; stroke-linejoin:round; stroke-width:4; stroke-opacity:1; fill:none" points="779.175,1423.18 779.175,1404.28 "/>
<polyline clip-path="url(#clip810)" style="stroke:#000000; stroke-linecap:round; stroke-linejoin:round; stroke-width:4; stroke-opacity:1; fill:none" points="1285.13,1423.18 1285.13,1404.28 "/>
<polyline clip-path="url(#clip810)" style="stroke:#000000; stroke-linecap:round; stroke-linejoin:round; stroke-width:4; stroke-opacity:1; fill:none" points="1789.69,1423.18 1789.69,1404.28 "/>
<polyline clip-path="url(#clip810)" style="stroke:#000000; stroke-linecap:round; stroke-linejoin:round; stroke-width:4; stroke-opacity:1; fill:none" points="2294.26,1423.18 2294.26,1404.28 "/>
<path clip-path="url(#clip810)" d="M146.401 1481.64 L162.721 1481.64 L162.721 1485.58 L140.776 1485.58 L140.776 1481.64 Q143.438 1478.89 148.022 1474.26 Q152.628 1469.61 153.809 1468.27 Q156.054 1465.74 156.934 1464.01 Q157.837 1462.25 157.837 1460.56 Q157.837 1457.8 155.892 1456.07 Q153.971 1454.33 150.869 1454.33 Q148.67 1454.33 146.216 1455.09 Q143.786 1455.86 141.008 1457.41 L141.008 1452.69 Q143.832 1451.55 146.286 1450.97 Q148.739 1450.39 150.776 1450.39 Q156.147 1450.39 159.341 1453.08 Q162.536 1455.77 162.536 1460.26 Q162.536 1462.39 161.725 1464.31 Q160.938 1466.2 158.832 1468.8 Q158.253 1469.47 155.151 1472.69 Q152.05 1475.88 146.401 1481.64 Z" fill="#000000" fill-rule="nonzero" fill-opacity="1" /><path clip-path="url(#clip810)" d="M182.535 1454.1 Q178.924 1454.1 177.096 1457.66 Q175.29 1461.2 175.29 1468.33 Q175.29 1475.44 177.096 1479.01 Q178.924 1482.55 182.535 1482.55 Q186.17 1482.55 187.975 1479.01 Q189.804 1475.44 189.804 1468.33 Q189.804 1461.2 187.975 1457.66 Q186.17 1454.1 182.535 1454.1 M182.535 1450.39 Q188.346 1450.39 191.401 1455 Q194.48 1459.58 194.48 1468.33 Q194.48 1477.06 191.401 1481.67 Q188.346 1486.25 182.535 1486.25 Q176.725 1486.25 173.647 1481.67 Q170.591 1477.06 170.591 1468.33 Q170.591 1459.58 173.647 1455 Q176.725 1450.39 182.535 1450.39 Z" fill="#000000" fill-rule="nonzero" fill-opacity="1" /><path clip-path="url(#clip810)" d="M203.508 1481.64 L211.146 1481.64 L211.146 1455.28 L202.836 1456.95 L202.836 1452.69 L211.1 1451.02 L215.776 1451.02 L215.776 1481.64 L223.415 1481.64 L223.415 1485.58 L203.508 1485.58 L203.508 1481.64 Z" fill="#000000" fill-rule="nonzero" fill-opacity="1" /><path clip-path="url(#clip810)" d="M232.998 1484.86 L232.998 1480.6 Q234.757 1481.44 236.563 1481.88 Q238.369 1482.32 240.105 1482.32 Q244.734 1482.32 247.165 1479.21 Q249.618 1476.09 249.966 1469.75 Q248.623 1471.74 246.563 1472.8 Q244.503 1473.87 242.003 1473.87 Q236.818 1473.87 233.785 1470.74 Q230.776 1467.59 230.776 1462.15 Q230.776 1456.83 233.924 1453.61 Q237.072 1450.39 242.304 1450.39 Q248.299 1450.39 251.447 1455 Q254.618 1459.58 254.618 1468.33 Q254.618 1476.51 250.73 1481.39 Q246.864 1486.25 240.313 1486.25 Q238.554 1486.25 236.748 1485.9 Q234.943 1485.56 232.998 1484.86 M242.304 1470.21 Q245.452 1470.21 247.281 1468.06 Q249.132 1465.9 249.132 1462.15 Q249.132 1458.43 247.281 1456.27 Q245.452 1454.1 242.304 1454.1 Q239.156 1454.1 237.304 1456.27 Q235.475 1458.43 235.475 1462.15 Q235.475 1465.9 237.304 1468.06 Q239.156 1470.21 242.304 1470.21 Z" fill="#000000" fill-rule="nonzero" fill-opacity="1" /><path clip-path="url(#clip810)" d="M260.267 1470.7 L272.743 1470.7 L272.743 1474.49 L260.267 1474.49 L260.267 1470.7 Z" fill="#000000" fill-rule="nonzero" fill-opacity="1" /><path clip-path="url(#clip810)" d="M290.128 1454.1 Q286.516 1454.1 284.688 1457.66 Q282.882 1461.2 282.882 1468.33 Q282.882 1475.44 284.688 1479.01 Q286.516 1482.55 290.128 1482.55 Q293.762 1482.55 295.567 1479.01 Q297.396 1475.44 297.396 1468.33 Q297.396 1461.2 295.567 1457.66 Q293.762 1454.1 290.128 1454.1 M290.128 1450.39 Q295.938 1450.39 298.993 1455 Q302.072 1459.58 302.072 1468.33 Q302.072 1477.06 298.993 1481.67 Q295.938 1486.25 290.128 1486.25 Q284.317 1486.25 281.239 1481.67 Q278.183 1477.06 278.183 1468.33 Q278.183 1459.58 281.239 1455 Q284.317 1450.39 290.128 1450.39 Z" fill="#000000" fill-rule="nonzero" fill-opacity="1" /><path clip-path="url(#clip810)" d="M311.1 1481.64 L318.738 1481.64 L318.738 1455.28 L310.428 1456.95 L310.428 1452.69 L318.692 1451.02 L323.368 1451.02 L323.368 1481.64 L331.007 1481.64 L331.007 1485.58 L311.1 1485.58 L311.1 1481.64 Z" fill="#000000" fill-rule="nonzero" fill-opacity="1" /><path clip-path="url(#clip810)" d="M337.697 1470.7 L350.173 1470.7 L350.173 1474.49 L337.697 1474.49 L337.697 1470.7 Z" fill="#000000" fill-rule="nonzero" fill-opacity="1" /><path clip-path="url(#clip810)" d="M367.558 1454.1 Q363.947 1454.1 362.118 1457.66 Q360.312 1461.2 360.312 1468.33 Q360.312 1475.44 362.118 1479.01 Q363.947 1482.55 367.558 1482.55 Q371.192 1482.55 372.997 1479.01 Q374.826 1475.44 374.826 1468.33 Q374.826 1461.2 372.997 1457.66 Q371.192 1454.1 367.558 1454.1 M367.558 1450.39 Q373.368 1450.39 376.423 1455 Q379.502 1459.58 379.502 1468.33 Q379.502 1477.06 376.423 1481.67 Q373.368 1486.25 367.558 1486.25 Q361.747 1486.25 358.669 1481.67 Q355.613 1477.06 355.613 1468.33 Q355.613 1459.58 358.669 1455 Q361.747 1450.39 367.558 1450.39 Z" fill="#000000" fill-rule="nonzero" fill-opacity="1" /><path clip-path="url(#clip810)" d="M388.53 1481.64 L396.169 1481.64 L396.169 1455.28 L387.858 1456.95 L387.858 1452.69 L396.122 1451.02 L400.798 1451.02 L400.798 1481.64 L408.437 1481.64 L408.437 1485.58 L388.53 1485.58 L388.53 1481.64 Z" fill="#000000" fill-rule="nonzero" fill-opacity="1" /><path clip-path="url(#clip810)" d="M650.97 1481.64 L667.289 1481.64 L667.289 1485.58 L645.345 1485.58 L645.345 1481.64 Q648.007 1478.89 652.59 1474.26 Q657.196 1469.61 658.377 1468.27 Q660.622 1465.74 661.502 1464.01 Q662.405 1462.25 662.405 1460.56 Q662.405 1457.8 660.46 1456.07 Q658.539 1454.33 655.437 1454.33 Q653.238 1454.33 650.784 1455.09 Q648.354 1455.86 645.576 1457.41 L645.576 1452.69 Q648.4 1451.55 650.854 1450.97 Q653.308 1450.39 655.345 1450.39 Q660.715 1450.39 663.909 1453.08 Q667.104 1455.77 667.104 1460.26 Q667.104 1462.39 666.294 1464.31 Q665.507 1466.2 663.4 1468.8 Q662.821 1469.47 659.72 1472.69 Q656.618 1475.88 650.97 1481.64 Z" fill="#000000" fill-rule="nonzero" fill-opacity="1" /><path clip-path="url(#clip810)" d="M687.104 1454.1 Q683.493 1454.1 681.664 1457.66 Q679.858 1461.2 679.858 1468.33 Q679.858 1475.44 681.664 1479.01 Q683.493 1482.55 687.104 1482.55 Q690.738 1482.55 692.543 1479.01 Q694.372 1475.44 694.372 1468.33 Q694.372 1461.2 692.543 1457.66 Q690.738 1454.1 687.104 1454.1 M687.104 1450.39 Q692.914 1450.39 695.969 1455 Q699.048 1459.58 699.048 1468.33 Q699.048 1477.06 695.969 1481.67 Q692.914 1486.25 687.104 1486.25 Q681.293 1486.25 678.215 1481.67 Q675.159 1477.06 675.159 1468.33 Q675.159 1459.58 678.215 1455 Q681.293 1450.39 687.104 1450.39 Z" fill="#000000" fill-rule="nonzero" fill-opacity="1" /><path clip-path="url(#clip810)" d="M711.293 1481.64 L727.613 1481.64 L727.613 1485.58 L705.668 1485.58 L705.668 1481.64 Q708.33 1478.89 712.914 1474.26 Q717.52 1469.61 718.701 1468.27 Q720.946 1465.74 721.826 1464.01 Q722.728 1462.25 722.728 1460.56 Q722.728 1457.8 720.784 1456.07 Q718.863 1454.33 715.761 1454.33 Q713.562 1454.33 711.108 1455.09 Q708.678 1455.86 705.9 1457.41 L705.9 1452.69 Q708.724 1451.55 711.178 1450.97 Q713.631 1450.39 715.668 1450.39 Q721.039 1450.39 724.233 1453.08 Q727.427 1455.77 727.427 1460.26 Q727.427 1462.39 726.617 1464.31 Q725.83 1466.2 723.724 1468.8 Q723.145 1469.47 720.043 1472.69 Q716.941 1475.88 711.293 1481.64 Z" fill="#000000" fill-rule="nonzero" fill-opacity="1" /><path clip-path="url(#clip810)" d="M747.427 1454.1 Q743.816 1454.1 741.988 1457.66 Q740.182 1461.2 740.182 1468.33 Q740.182 1475.44 741.988 1479.01 Q743.816 1482.55 747.427 1482.55 Q751.062 1482.55 752.867 1479.01 Q754.696 1475.44 754.696 1468.33 Q754.696 1461.2 752.867 1457.66 Q751.062 1454.1 747.427 1454.1 M747.427 1450.39 Q753.238 1450.39 756.293 1455 Q759.372 1459.58 759.372 1468.33 Q759.372 1477.06 756.293 1481.67 Q753.238 1486.25 747.427 1486.25 Q741.617 1486.25 738.539 1481.67 Q735.483 1477.06 735.483 1468.33 Q735.483 1459.58 738.539 1455 Q741.617 1450.39 747.427 1450.39 Z" fill="#000000" fill-rule="nonzero" fill-opacity="1" /><path clip-path="url(#clip810)" d="M764.835 1470.7 L777.311 1470.7 L777.311 1474.49 L764.835 1474.49 L764.835 1470.7 Z" fill="#000000" fill-rule="nonzero" fill-opacity="1" /><path clip-path="url(#clip810)" d="M794.696 1454.1 Q791.085 1454.1 789.256 1457.66 Q787.45 1461.2 787.45 1468.33 Q787.45 1475.44 789.256 1479.01 Q791.085 1482.55 794.696 1482.55 Q798.33 1482.55 800.135 1479.01 Q801.964 1475.44 801.964 1468.33 Q801.964 1461.2 800.135 1457.66 Q798.33 1454.1 794.696 1454.1 M794.696 1450.39 Q800.506 1450.39 803.561 1455 Q806.64 1459.58 806.64 1468.33 Q806.64 1477.06 803.561 1481.67 Q800.506 1486.25 794.696 1486.25 Q788.886 1486.25 785.807 1481.67 Q782.751 1477.06 782.751 1468.33 Q782.751 1459.58 785.807 1455 Q788.886 1450.39 794.696 1450.39 Z" fill="#000000" fill-rule="nonzero" fill-opacity="1" /><path clip-path="url(#clip810)" d="M815.668 1481.64 L823.307 1481.64 L823.307 1455.28 L814.996 1456.95 L814.996 1452.69 L823.26 1451.02 L827.936 1451.02 L827.936 1481.64 L835.575 1481.64 L835.575 1485.58 L815.668 1485.58 L815.668 1481.64 Z" fill="#000000" fill-rule="nonzero" fill-opacity="1" /><path clip-path="url(#clip810)" d="M842.265 1470.7 L854.742 1470.7 L854.742 1474.49 L842.265 1474.49 L842.265 1470.7 Z" fill="#000000" fill-rule="nonzero" fill-opacity="1" /><path clip-path="url(#clip810)" d="M872.126 1454.1 Q868.515 1454.1 866.686 1457.66 Q864.88 1461.2 864.88 1468.33 Q864.88 1475.44 866.686 1479.01 Q868.515 1482.55 872.126 1482.55 Q875.76 1482.55 877.566 1479.01 Q879.394 1475.44 879.394 1468.33 Q879.394 1461.2 877.566 1457.66 Q875.76 1454.1 872.126 1454.1 M872.126 1450.39 Q877.936 1450.39 880.991 1455 Q884.07 1459.58 884.07 1468.33 Q884.07 1477.06 880.991 1481.67 Q877.936 1486.25 872.126 1486.25 Q866.316 1486.25 863.237 1481.67 Q860.181 1477.06 860.181 1468.33 Q860.181 1459.58 863.237 1455 Q866.316 1450.39 872.126 1450.39 Z" fill="#000000" fill-rule="nonzero" fill-opacity="1" /><path clip-path="url(#clip810)" d="M893.098 1481.64 L900.737 1481.64 L900.737 1455.28 L892.427 1456.95 L892.427 1452.69 L900.69 1451.02 L905.366 1451.02 L905.366 1481.64 L913.005 1481.64 L913.005 1485.58 L893.098 1485.58 L893.098 1481.64 Z" fill="#000000" fill-rule="nonzero" fill-opacity="1" /><path clip-path="url(#clip810)" d="M1156.92 1481.64 L1173.24 1481.64 L1173.24 1485.58 L1151.3 1485.58 L1151.3 1481.64 Q1153.96 1478.89 1158.54 1474.26 Q1163.15 1469.61 1164.33 1468.27 Q1166.57 1465.74 1167.45 1464.01 Q1168.36 1462.25 1168.36 1460.56 Q1168.36 1457.8 1166.41 1456.07 Q1164.49 1454.33 1161.39 1454.33 Q1159.19 1454.33 1156.73 1455.09 Q1154.3 1455.86 1151.53 1457.41 L1151.53 1452.69 Q1154.35 1451.55 1156.8 1450.97 Q1159.26 1450.39 1161.3 1450.39 Q1166.67 1450.39 1169.86 1453.08 Q1173.05 1455.77 1173.05 1460.26 Q1173.05 1462.39 1172.24 1464.31 Q1171.46 1466.2 1169.35 1468.8 Q1168.77 1469.47 1165.67 1472.69 Q1162.57 1475.88 1156.92 1481.64 Z" fill="#000000" fill-rule="nonzero" fill-opacity="1" /><path clip-path="url(#clip810)" d="M1193.05 1454.1 Q1189.44 1454.1 1187.61 1457.66 Q1185.81 1461.2 1185.81 1468.33 Q1185.81 1475.44 1187.61 1479.01 Q1189.44 1482.55 1193.05 1482.55 Q1196.69 1482.55 1198.49 1479.01 Q1200.32 1475.44 1200.32 1468.33 Q1200.32 1461.2 1198.49 1457.66 Q1196.69 1454.1 1193.05 1454.1 M1193.05 1450.39 Q1198.86 1450.39 1201.92 1455 Q1205 1459.58 1205 1468.33 Q1205 1477.06 1201.92 1481.67 Q1198.86 1486.25 1193.05 1486.25 Q1187.24 1486.25 1184.17 1481.67 Q1181.11 1477.06 1181.11 1468.33 Q1181.11 1459.58 1184.17 1455 Q1187.24 1450.39 1193.05 1450.39 Z" fill="#000000" fill-rule="nonzero" fill-opacity="1" /><path clip-path="url(#clip810)" d="M1217.24 1481.64 L1233.56 1481.64 L1233.56 1485.58 L1211.62 1485.58 L1211.62 1481.64 Q1214.28 1478.89 1218.86 1474.26 Q1223.47 1469.61 1224.65 1468.27 Q1226.9 1465.74 1227.78 1464.01 Q1228.68 1462.25 1228.68 1460.56 Q1228.68 1457.8 1226.73 1456.07 Q1224.81 1454.33 1221.71 1454.33 Q1219.51 1454.33 1217.06 1455.09 Q1214.63 1455.86 1211.85 1457.41 L1211.85 1452.69 Q1214.67 1451.55 1217.13 1450.97 Q1219.58 1450.39 1221.62 1450.39 Q1226.99 1450.39 1230.18 1453.08 Q1233.38 1455.77 1233.38 1460.26 Q1233.38 1462.39 1232.57 1464.31 Q1231.78 1466.2 1229.67 1468.8 Q1229.1 1469.47 1225.99 1472.69 Q1222.89 1475.88 1217.24 1481.64 Z" fill="#000000" fill-rule="nonzero" fill-opacity="1" /><path clip-path="url(#clip810)" d="M1244.19 1481.64 L1251.83 1481.64 L1251.83 1455.28 L1243.52 1456.95 L1243.52 1452.69 L1251.78 1451.02 L1256.46 1451.02 L1256.46 1481.64 L1264.1 1481.64 L1264.1 1485.58 L1244.19 1485.58 L1244.19 1481.64 Z" fill="#000000" fill-rule="nonzero" fill-opacity="1" /><path clip-path="url(#clip810)" d="M1270.79 1470.7 L1283.26 1470.7 L1283.26 1474.49 L1270.79 1474.49 L1270.79 1470.7 Z" fill="#000000" fill-rule="nonzero" fill-opacity="1" /><path clip-path="url(#clip810)" d="M1300.65 1454.1 Q1297.04 1454.1 1295.21 1457.66 Q1293.4 1461.2 1293.4 1468.33 Q1293.4 1475.44 1295.21 1479.01 Q1297.04 1482.55 1300.65 1482.55 Q1304.28 1482.55 1306.09 1479.01 Q1307.91 1475.44 1307.91 1468.33 Q1307.91 1461.2 1306.09 1457.66 Q1304.28 1454.1 1300.65 1454.1 M1300.65 1450.39 Q1306.46 1450.39 1309.51 1455 Q1312.59 1459.58 1312.59 1468.33 Q1312.59 1477.06 1309.51 1481.67 Q1306.46 1486.25 1300.65 1486.25 Q1294.84 1486.25 1291.76 1481.67 Q1288.7 1477.06 1288.7 1468.33 Q1288.7 1459.58 1291.76 1455 Q1294.84 1450.39 1300.65 1450.39 Z" fill="#000000" fill-rule="nonzero" fill-opacity="1" /><path clip-path="url(#clip810)" d="M1321.62 1481.64 L1329.26 1481.64 L1329.26 1455.28 L1320.95 1456.95 L1320.95 1452.69 L1329.21 1451.02 L1333.89 1451.02 L1333.89 1481.64 L1341.53 1481.64 L1341.53 1485.58 L1321.62 1485.58 L1321.62 1481.64 Z" fill="#000000" fill-rule="nonzero" fill-opacity="1" /><path clip-path="url(#clip810)" d="M1348.22 1470.7 L1360.69 1470.7 L1360.69 1474.49 L1348.22 1474.49 L1348.22 1470.7 Z" fill="#000000" fill-rule="nonzero" fill-opacity="1" /><path clip-path="url(#clip810)" d="M1378.08 1454.1 Q1374.47 1454.1 1372.64 1457.66 Q1370.83 1461.2 1370.83 1468.33 Q1370.83 1475.44 1372.64 1479.01 Q1374.47 1482.55 1378.08 1482.55 Q1381.71 1482.55 1383.52 1479.01 Q1385.34 1475.44 1385.34 1468.33 Q1385.34 1461.2 1383.52 1457.66 Q1381.71 1454.1 1378.08 1454.1 M1378.08 1450.39 Q1383.89 1450.39 1386.94 1455 Q1390.02 1459.58 1390.02 1468.33 Q1390.02 1477.06 1386.94 1481.67 Q1383.89 1486.25 1378.08 1486.25 Q1372.27 1486.25 1369.19 1481.67 Q1366.13 1477.06 1366.13 1468.33 Q1366.13 1459.58 1369.19 1455 Q1372.27 1450.39 1378.08 1450.39 Z" fill="#000000" fill-rule="nonzero" fill-opacity="1" /><path clip-path="url(#clip810)" d="M1399.05 1481.64 L1406.69 1481.64 L1406.69 1455.28 L1398.38 1456.95 L1398.38 1452.69 L1406.64 1451.02 L1411.32 1451.02 L1411.32 1481.64 L1418.96 1481.64 L1418.96 1485.58 L1399.05 1485.58 L1399.05 1481.64 Z" fill="#000000" fill-rule="nonzero" fill-opacity="1" /><path clip-path="url(#clip810)" d="M1661.49 1481.64 L1677.81 1481.64 L1677.81 1485.58 L1655.86 1485.58 L1655.86 1481.64 Q1658.53 1478.89 1663.11 1474.26 Q1667.72 1469.61 1668.9 1468.27 Q1671.14 1465.74 1672.02 1464.01 Q1672.92 1462.25 1672.92 1460.56 Q1672.92 1457.8 1670.98 1456.07 Q1669.06 1454.33 1665.96 1454.33 Q1663.76 1454.33 1661.3 1455.09 Q1658.87 1455.86 1656.09 1457.41 L1656.09 1452.69 Q1658.92 1451.55 1661.37 1450.97 Q1663.83 1450.39 1665.86 1450.39 Q1671.23 1450.39 1674.43 1453.08 Q1677.62 1455.77 1677.62 1460.26 Q1677.62 1462.39 1676.81 1464.31 Q1676.03 1466.2 1673.92 1468.8 Q1673.34 1469.47 1670.24 1472.69 Q1667.14 1475.88 1661.49 1481.64 Z" fill="#000000" fill-rule="nonzero" fill-opacity="1" /><path clip-path="url(#clip810)" d="M1697.62 1454.1 Q1694.01 1454.1 1692.18 1457.66 Q1690.38 1461.2 1690.38 1468.33 Q1690.38 1475.44 1692.18 1479.01 Q1694.01 1482.55 1697.62 1482.55 Q1701.26 1482.55 1703.06 1479.01 Q1704.89 1475.44 1704.89 1468.33 Q1704.89 1461.2 1703.06 1457.66 Q1701.26 1454.1 1697.62 1454.1 M1697.62 1450.39 Q1703.43 1450.39 1706.49 1455 Q1709.57 1459.58 1709.57 1468.33 Q1709.57 1477.06 1706.49 1481.67 Q1703.43 1486.25 1697.62 1486.25 Q1691.81 1486.25 1688.73 1481.67 Q1685.68 1477.06 1685.68 1468.33 Q1685.68 1459.58 1688.73 1455 Q1691.81 1450.39 1697.62 1450.39 Z" fill="#000000" fill-rule="nonzero" fill-opacity="1" /><path clip-path="url(#clip810)" d="M1721.81 1481.64 L1738.13 1481.64 L1738.13 1485.58 L1716.19 1485.58 L1716.19 1481.64 Q1718.85 1478.89 1723.43 1474.26 Q1728.04 1469.61 1729.22 1468.27 Q1731.46 1465.74 1732.34 1464.01 Q1733.25 1462.25 1733.25 1460.56 Q1733.25 1457.8 1731.3 1456.07 Q1729.38 1454.33 1726.28 1454.33 Q1724.08 1454.33 1721.63 1455.09 Q1719.2 1455.86 1716.42 1457.41 L1716.42 1452.69 Q1719.24 1451.55 1721.7 1450.97 Q1724.15 1450.39 1726.19 1450.39 Q1731.56 1450.39 1734.75 1453.08 Q1737.95 1455.77 1737.95 1460.26 Q1737.95 1462.39 1737.14 1464.31 Q1736.35 1466.2 1734.24 1468.8 Q1733.66 1469.47 1730.56 1472.69 Q1727.46 1475.88 1721.81 1481.64 Z" fill="#000000" fill-rule="nonzero" fill-opacity="1" /><path clip-path="url(#clip810)" d="M1751.97 1481.64 L1768.29 1481.64 L1768.29 1485.58 L1746.35 1485.58 L1746.35 1481.64 Q1749.01 1478.89 1753.59 1474.26 Q1758.2 1469.61 1759.38 1468.27 Q1761.63 1465.74 1762.51 1464.01 Q1763.41 1462.25 1763.41 1460.56 Q1763.41 1457.8 1761.46 1456.07 Q1759.54 1454.33 1756.44 1454.33 Q1754.24 1454.33 1751.79 1455.09 Q1749.36 1455.86 1746.58 1457.41 L1746.58 1452.69 Q1749.4 1451.55 1751.86 1450.97 Q1754.31 1450.39 1756.35 1450.39 Q1761.72 1450.39 1764.91 1453.08 Q1768.11 1455.77 1768.11 1460.26 Q1768.11 1462.39 1767.3 1464.31 Q1766.51 1466.2 1764.4 1468.8 Q1763.83 1469.47 1760.72 1472.69 Q1757.62 1475.88 1751.97 1481.64 Z" fill="#000000" fill-rule="nonzero" fill-opacity="1" /><path clip-path="url(#clip810)" d="M1775.35 1470.7 L1787.83 1470.7 L1787.83 1474.49 L1775.35 1474.49 L1775.35 1470.7 Z" fill="#000000" fill-rule="nonzero" fill-opacity="1" /><path clip-path="url(#clip810)" d="M1805.21 1454.1 Q1801.6 1454.1 1799.77 1457.66 Q1797.97 1461.2 1797.97 1468.33 Q1797.97 1475.44 1799.77 1479.01 Q1801.6 1482.55 1805.21 1482.55 Q1808.85 1482.55 1810.65 1479.01 Q1812.48 1475.44 1812.48 1468.33 Q1812.48 1461.2 1810.65 1457.66 Q1808.85 1454.1 1805.21 1454.1 M1805.21 1450.39 Q1811.02 1450.39 1814.08 1455 Q1817.16 1459.58 1817.16 1468.33 Q1817.16 1477.06 1814.08 1481.67 Q1811.02 1486.25 1805.21 1486.25 Q1799.4 1486.25 1796.33 1481.67 Q1793.27 1477.06 1793.27 1468.33 Q1793.27 1459.58 1796.33 1455 Q1799.4 1450.39 1805.21 1450.39 Z" fill="#000000" fill-rule="nonzero" fill-opacity="1" /><path clip-path="url(#clip810)" d="M1826.19 1481.64 L1833.83 1481.64 L1833.83 1455.28 L1825.52 1456.95 L1825.52 1452.69 L1833.78 1451.02 L1838.45 1451.02 L1838.45 1481.64 L1846.09 1481.64 L1846.09 1485.58 L1826.19 1485.58 L1826.19 1481.64 Z" fill="#000000" fill-rule="nonzero" fill-opacity="1" /><path clip-path="url(#clip810)" d="M1852.78 1470.7 L1865.26 1470.7 L1865.26 1474.49 L1852.78 1474.49 L1852.78 1470.7 Z" fill="#000000" fill-rule="nonzero" fill-opacity="1" /><path clip-path="url(#clip810)" d="M1882.64 1454.1 Q1879.03 1454.1 1877.2 1457.66 Q1875.4 1461.2 1875.4 1468.33 Q1875.4 1475.44 1877.2 1479.01 Q1879.03 1482.55 1882.64 1482.55 Q1886.28 1482.55 1888.08 1479.01 Q1889.91 1475.44 1889.91 1468.33 Q1889.91 1461.2 1888.08 1457.66 Q1886.28 1454.1 1882.64 1454.1 M1882.64 1450.39 Q1888.45 1450.39 1891.51 1455 Q1894.59 1459.58 1894.59 1468.33 Q1894.59 1477.06 1891.51 1481.67 Q1888.45 1486.25 1882.64 1486.25 Q1876.83 1486.25 1873.76 1481.67 Q1870.7 1477.06 1870.7 1468.33 Q1870.7 1459.58 1873.76 1455 Q1876.83 1450.39 1882.64 1450.39 Z" fill="#000000" fill-rule="nonzero" fill-opacity="1" /><path clip-path="url(#clip810)" d="M1903.62 1481.64 L1911.26 1481.64 L1911.26 1455.28 L1902.95 1456.95 L1902.95 1452.69 L1911.21 1451.02 L1915.89 1451.02 L1915.89 1481.64 L1923.52 1481.64 L1923.52 1485.58 L1903.62 1485.58 L1903.62 1481.64 Z" fill="#000000" fill-rule="nonzero" fill-opacity="1" /><path clip-path="url(#clip810)" d="M2166.06 1481.64 L2182.38 1481.64 L2182.38 1485.58 L2160.43 1485.58 L2160.43 1481.64 Q2163.09 1478.89 2167.68 1474.26 Q2172.28 1469.61 2173.46 1468.27 Q2175.71 1465.74 2176.59 1464.01 Q2177.49 1462.25 2177.49 1460.56 Q2177.49 1457.8 2175.55 1456.07 Q2173.63 1454.33 2170.52 1454.33 Q2168.32 1454.33 2165.87 1455.09 Q2163.44 1455.86 2160.66 1457.41 L2160.66 1452.69 Q2163.49 1451.55 2165.94 1450.97 Q2168.39 1450.39 2170.43 1450.39 Q2175.8 1450.39 2179 1453.08 Q2182.19 1455.77 2182.19 1460.26 Q2182.19 1462.39 2181.38 1464.31 Q2180.59 1466.2 2178.49 1468.8 Q2177.91 1469.47 2174.81 1472.69 Q2171.7 1475.88 2166.06 1481.64 Z" fill="#000000" fill-rule="nonzero" fill-opacity="1" /><path clip-path="url(#clip810)" d="M2202.19 1454.1 Q2198.58 1454.1 2196.75 1457.66 Q2194.95 1461.2 2194.95 1468.33 Q2194.95 1475.44 2196.75 1479.01 Q2198.58 1482.55 2202.19 1482.55 Q2205.82 1482.55 2207.63 1479.01 Q2209.46 1475.44 2209.46 1468.33 Q2209.46 1461.2 2207.63 1457.66 Q2205.82 1454.1 2202.19 1454.1 M2202.19 1450.39 Q2208 1450.39 2211.06 1455 Q2214.13 1459.58 2214.13 1468.33 Q2214.13 1477.06 2211.06 1481.67 Q2208 1486.25 2202.19 1486.25 Q2196.38 1486.25 2193.3 1481.67 Q2190.25 1477.06 2190.25 1468.33 Q2190.25 1459.58 2193.3 1455 Q2196.38 1450.39 2202.19 1450.39 Z" fill="#000000" fill-rule="nonzero" fill-opacity="1" /><path clip-path="url(#clip810)" d="M2226.38 1481.64 L2242.7 1481.64 L2242.7 1485.58 L2220.76 1485.58 L2220.76 1481.64 Q2223.42 1478.89 2228 1474.26 Q2232.61 1469.61 2233.79 1468.27 Q2236.03 1465.74 2236.91 1464.01 Q2237.82 1462.25 2237.82 1460.56 Q2237.82 1457.8 2235.87 1456.07 Q2233.95 1454.33 2230.85 1454.33 Q2228.65 1454.33 2226.19 1455.09 Q2223.76 1455.86 2220.99 1457.41 L2220.99 1452.69 Q2223.81 1451.55 2226.26 1450.97 Q2228.72 1450.39 2230.76 1450.39 Q2236.13 1450.39 2239.32 1453.08 Q2242.51 1455.77 2242.51 1460.26 Q2242.51 1462.39 2241.7 1464.31 Q2240.92 1466.2 2238.81 1468.8 Q2238.23 1469.47 2235.13 1472.69 Q2232.03 1475.88 2226.38 1481.64 Z" fill="#000000" fill-rule="nonzero" fill-opacity="1" /><path clip-path="url(#clip810)" d="M2266.68 1466.95 Q2270.04 1467.66 2271.91 1469.93 Q2273.81 1472.2 2273.81 1475.53 Q2273.81 1480.65 2270.29 1483.45 Q2266.77 1486.25 2260.29 1486.25 Q2258.12 1486.25 2255.8 1485.81 Q2253.51 1485.39 2251.06 1484.54 L2251.06 1480.02 Q2253 1481.16 2255.32 1481.74 Q2257.63 1482.32 2260.15 1482.32 Q2264.55 1482.32 2266.84 1480.58 Q2269.16 1478.84 2269.16 1475.53 Q2269.16 1472.48 2267 1470.77 Q2264.88 1469.03 2261.06 1469.03 L2257.03 1469.03 L2257.03 1465.19 L2261.24 1465.19 Q2264.69 1465.19 2266.52 1463.82 Q2268.35 1462.43 2268.35 1459.84 Q2268.35 1457.18 2266.45 1455.77 Q2264.57 1454.33 2261.06 1454.33 Q2259.13 1454.33 2256.94 1454.75 Q2254.74 1455.16 2252.1 1456.04 L2252.1 1451.88 Q2254.76 1451.14 2257.07 1450.77 Q2259.41 1450.39 2261.47 1450.39 Q2266.8 1450.39 2269.9 1452.83 Q2273 1455.23 2273 1459.35 Q2273 1462.22 2271.36 1464.21 Q2269.71 1466.18 2266.68 1466.95 Z" fill="#000000" fill-rule="nonzero" fill-opacity="1" /><path clip-path="url(#clip810)" d="M2279.92 1470.7 L2292.4 1470.7 L2292.4 1474.49 L2279.92 1474.49 L2279.92 1470.7 Z" fill="#000000" fill-rule="nonzero" fill-opacity="1" /><path clip-path="url(#clip810)" d="M2309.78 1454.1 Q2306.17 1454.1 2304.34 1457.66 Q2302.54 1461.2 2302.54 1468.33 Q2302.54 1475.44 2304.34 1479.01 Q2306.17 1482.55 2309.78 1482.55 Q2313.42 1482.55 2315.22 1479.01 Q2317.05 1475.44 2317.05 1468.33 Q2317.05 1461.2 2315.22 1457.66 Q2313.42 1454.1 2309.78 1454.1 M2309.78 1450.39 Q2315.59 1450.39 2318.65 1455 Q2321.73 1459.58 2321.73 1468.33 Q2321.73 1477.06 2318.65 1481.67 Q2315.59 1486.25 2309.78 1486.25 Q2303.97 1486.25 2300.89 1481.67 Q2297.84 1477.06 2297.84 1468.33 Q2297.84 1459.58 2300.89 1455 Q2303.97 1450.39 2309.78 1450.39 Z" fill="#000000" fill-rule="nonzero" fill-opacity="1" /><path clip-path="url(#clip810)" d="M2330.75 1481.64 L2338.39 1481.64 L2338.39 1455.28 L2330.08 1456.95 L2330.08 1452.69 L2338.35 1451.02 L2343.02 1451.02 L2343.02 1481.64 L2350.66 1481.64 L2350.66 1485.58 L2330.75 1485.58 L2330.75 1481.64 Z" fill="#000000" fill-rule="nonzero" fill-opacity="1" /><path clip-path="url(#clip810)" d="M2357.35 1470.7 L2369.83 1470.7 L2369.83 1474.49 L2357.35 1474.49 L2357.35 1470.7 Z" fill="#000000" fill-rule="nonzero" fill-opacity="1" /><path clip-path="url(#clip810)" d="M2387.21 1454.1 Q2383.6 1454.1 2381.77 1457.66 Q2379.97 1461.2 2379.97 1468.33 Q2379.97 1475.44 2381.77 1479.01 Q2383.6 1482.55 2387.21 1482.55 Q2390.85 1482.55 2392.65 1479.01 Q2394.48 1475.44 2394.48 1468.33 Q2394.48 1461.2 2392.65 1457.66 Q2390.85 1454.1 2387.21 1454.1 M2387.21 1450.39 Q2393.02 1450.39 2396.08 1455 Q2399.16 1459.58 2399.16 1468.33 Q2399.16 1477.06 2396.08 1481.67 Q2393.02 1486.25 2387.21 1486.25 Q2381.4 1486.25 2378.32 1481.67 Q2375.27 1477.06 2375.27 1468.33 Q2375.27 1459.58 2378.32 1455 Q2381.4 1450.39 2387.21 1450.39 Z" fill="#000000" fill-rule="nonzero" fill-opacity="1" /><path clip-path="url(#clip810)" d="M2408.18 1481.64 L2415.82 1481.64 L2415.82 1455.28 L2407.51 1456.95 L2407.51 1452.69 L2415.78 1451.02 L2420.45 1451.02 L2420.45 1481.64 L2428.09 1481.64 L2428.09 1485.58 L2408.18 1485.58 L2408.18 1481.64 Z" fill="#000000" fill-rule="nonzero" fill-opacity="1" /><path clip-path="url(#clip810)" d="M1218.73 1525.81 L1218.73 1562.76 L1226.5 1562.76 Q1236.33 1562.76 1240.88 1558.3 Q1245.47 1553.85 1245.47 1544.24 Q1245.47 1534.69 1240.88 1530.26 Q1236.33 1525.81 1226.5 1525.81 L1218.73 1525.81 M1212.3 1520.52 L1225.51 1520.52 Q1239.32 1520.52 1245.79 1526.28 Q1252.25 1532.01 1252.25 1544.24 Q1252.25 1556.52 1245.75 1562.28 Q1239.26 1568.04 1225.51 1568.04 L1212.3 1568.04 L1212.3 1520.52 Z" fill="#000000" fill-rule="nonzero" fill-opacity="1" /><path clip-path="url(#clip810)" d="M1278.44 1550.12 Q1271.34 1550.12 1268.61 1551.75 Q1265.87 1553.37 1265.87 1557.29 Q1265.87 1560.4 1267.91 1562.25 Q1269.98 1564.07 1273.51 1564.07 Q1278.38 1564.07 1281.31 1560.63 Q1284.27 1557.16 1284.27 1551.43 L1284.27 1550.12 L1278.44 1550.12 M1290.12 1547.71 L1290.12 1568.04 L1284.27 1568.04 L1284.27 1562.63 Q1282.26 1565.88 1279.27 1567.44 Q1276.28 1568.97 1271.95 1568.97 Q1266.47 1568.97 1263.23 1565.91 Q1260.01 1562.82 1260.01 1557.67 Q1260.01 1551.65 1264.02 1548.6 Q1268.07 1545.54 1276.06 1545.54 L1284.27 1545.54 L1284.27 1544.97 Q1284.27 1540.93 1281.59 1538.73 Q1278.95 1536.5 1274.15 1536.5 Q1271.09 1536.5 1268.19 1537.23 Q1265.3 1537.97 1262.62 1539.43 L1262.62 1534.02 Q1265.84 1532.78 1268.86 1532.17 Q1271.89 1531.54 1274.75 1531.54 Q1282.48 1531.54 1286.3 1535.55 Q1290.12 1539.56 1290.12 1547.71 Z" fill="#000000" fill-rule="nonzero" fill-opacity="1" /><path clip-path="url(#clip810)" d="M1307.98 1522.27 L1307.98 1532.4 L1320.04 1532.4 L1320.04 1536.95 L1307.98 1536.95 L1307.98 1556.3 Q1307.98 1560.66 1309.16 1561.9 Q1310.37 1563.14 1314.03 1563.14 L1320.04 1563.14 L1320.04 1568.04 L1314.03 1568.04 Q1307.25 1568.04 1304.67 1565.53 Q1302.09 1562.98 1302.09 1556.3 L1302.09 1536.95 L1297.79 1536.95 L1297.79 1532.4 L1302.09 1532.4 L1302.09 1522.27 L1307.98 1522.27 Z" fill="#000000" fill-rule="nonzero" fill-opacity="1" /><path clip-path="url(#clip810)" d="M1358.24 1548.76 L1358.24 1551.62 L1331.31 1551.62 Q1331.69 1557.67 1334.94 1560.85 Q1338.22 1564 1344.04 1564 Q1347.41 1564 1350.57 1563.17 Q1353.75 1562.35 1356.87 1560.69 L1356.87 1566.23 Q1353.72 1567.57 1350.41 1568.27 Q1347.1 1568.97 1343.69 1568.97 Q1335.16 1568.97 1330.16 1564 Q1325.2 1559.04 1325.2 1550.57 Q1325.2 1541.82 1329.91 1536.69 Q1334.65 1531.54 1342.67 1531.54 Q1349.87 1531.54 1354.03 1536.18 Q1358.24 1540.8 1358.24 1548.76 M1352.38 1547.04 Q1352.32 1542.23 1349.67 1539.37 Q1347.06 1536.5 1342.74 1536.5 Q1337.83 1536.5 1334.87 1539.27 Q1331.95 1542.04 1331.5 1547.07 L1352.38 1547.04 Z" fill="#000000" fill-rule="nonzero" fill-opacity="1" /><polyline clip-path="url(#clip810)" style="stroke:#000000; stroke-linecap:round; stroke-linejoin:round; stroke-width:4; stroke-opacity:1; fill:none" points="217.783,1423.18 217.783,47.2441 "/>
<polyline clip-path="url(#clip810)" style="stroke:#000000; stroke-linecap:round; stroke-linejoin:round; stroke-width:4; stroke-opacity:1; fill:none" points="217.783,1365.21 236.681,1365.21 "/>
<polyline clip-path="url(#clip810)" style="stroke:#000000; stroke-linecap:round; stroke-linejoin:round; stroke-width:4; stroke-opacity:1; fill:none" points="217.783,1085.24 236.681,1085.24 "/>
<polyline clip-path="url(#clip810)" style="stroke:#000000; stroke-linecap:round; stroke-linejoin:round; stroke-width:4; stroke-opacity:1; fill:none" points="217.783,805.275 236.681,805.275 "/>
<polyline clip-path="url(#clip810)" style="stroke:#000000; stroke-linecap:round; stroke-linejoin:round; stroke-width:4; stroke-opacity:1; fill:none" points="217.783,525.307 236.681,525.307 "/>
<polyline clip-path="url(#clip810)" style="stroke:#000000; stroke-linecap:round; stroke-linejoin:round; stroke-width:4; stroke-opacity:1; fill:none" points="217.783,245.338 236.681,245.338 "/>
<path clip-path="url(#clip810)" d="M115.418 1378.56 L123.056 1378.56 L123.056 1352.19 L114.746 1353.86 L114.746 1349.6 L123.01 1347.93 L127.686 1347.93 L127.686 1378.56 L135.325 1378.56 L135.325 1382.49 L115.418 1382.49 L115.418 1378.56 Z" fill="#000000" fill-rule="nonzero" fill-opacity="1" /><path clip-path="url(#clip810)" d="M144.769 1376.61 L149.653 1376.61 L149.653 1382.49 L144.769 1382.49 L144.769 1376.61 Z" fill="#000000" fill-rule="nonzero" fill-opacity="1" /><path clip-path="url(#clip810)" d="M169.839 1351.01 Q166.227 1351.01 164.399 1354.58 Q162.593 1358.12 162.593 1365.25 Q162.593 1372.35 164.399 1375.92 Q166.227 1379.46 169.839 1379.46 Q173.473 1379.46 175.278 1375.92 Q177.107 1372.35 177.107 1365.25 Q177.107 1358.12 175.278 1354.58 Q173.473 1351.01 169.839 1351.01 M169.839 1347.31 Q175.649 1347.31 178.704 1351.91 Q181.783 1356.5 181.783 1365.25 Q181.783 1373.97 178.704 1378.58 Q175.649 1383.16 169.839 1383.16 Q164.028 1383.16 160.95 1378.58 Q157.894 1373.97 157.894 1365.25 Q157.894 1356.5 160.95 1351.91 Q164.028 1347.31 169.839 1347.31 Z" fill="#000000" fill-rule="nonzero" fill-opacity="1" /><path clip-path="url(#clip810)" d="M117.015 1098.59 L124.654 1098.59 L124.654 1072.22 L116.343 1073.89 L116.343 1069.63 L124.607 1067.96 L129.283 1067.96 L129.283 1098.59 L136.922 1098.59 L136.922 1102.52 L117.015 1102.52 L117.015 1098.59 Z" fill="#000000" fill-rule="nonzero" fill-opacity="1" /><path clip-path="url(#clip810)" d="M146.366 1096.64 L151.251 1096.64 L151.251 1102.52 L146.366 1102.52 L146.366 1096.64 Z" fill="#000000" fill-rule="nonzero" fill-opacity="1" /><path clip-path="url(#clip810)" d="M165.464 1098.59 L181.783 1098.59 L181.783 1102.52 L159.839 1102.52 L159.839 1098.59 Q162.501 1095.83 167.084 1091.2 Q171.69 1086.55 172.871 1085.21 Q175.116 1082.69 175.996 1080.95 Q176.899 1079.19 176.899 1077.5 Q176.899 1074.75 174.954 1073.01 Q173.033 1071.27 169.931 1071.27 Q167.732 1071.27 165.278 1072.04 Q162.848 1072.8 160.07 1074.35 L160.07 1069.63 Q162.894 1068.5 165.348 1067.92 Q167.802 1067.34 169.839 1067.34 Q175.209 1067.34 178.403 1070.02 Q181.598 1072.71 181.598 1077.2 Q181.598 1079.33 180.788 1081.25 Q180.001 1083.15 177.894 1085.74 Q177.315 1086.41 174.214 1089.63 Q171.112 1092.83 165.464 1098.59 Z" fill="#000000" fill-rule="nonzero" fill-opacity="1" /><path clip-path="url(#clip810)" d="M114.931 818.62 L122.57 818.62 L122.57 792.255 L114.26 793.921 L114.26 789.662 L122.524 787.995 L127.2 787.995 L127.2 818.62 L134.839 818.62 L134.839 822.555 L114.931 822.555 L114.931 818.62 Z" fill="#000000" fill-rule="nonzero" fill-opacity="1" /><path clip-path="url(#clip810)" d="M144.283 816.676 L149.167 816.676 L149.167 822.555 L144.283 822.555 L144.283 816.676 Z" fill="#000000" fill-rule="nonzero" fill-opacity="1" /><path clip-path="url(#clip810)" d="M172.2 792.069 L160.394 810.518 L172.2 810.518 L172.2 792.069 M170.973 787.995 L176.852 787.995 L176.852 810.518 L181.783 810.518 L181.783 814.407 L176.852 814.407 L176.852 822.555 L172.2 822.555 L172.2 814.407 L156.598 814.407 L156.598 809.893 L170.973 787.995 Z" fill="#000000" fill-rule="nonzero" fill-opacity="1" /><path clip-path="url(#clip810)" d="M115.256 538.651 L122.894 538.651 L122.894 512.286 L114.584 513.952 L114.584 509.693 L122.848 508.027 L127.524 508.027 L127.524 538.651 L135.163 538.651 L135.163 542.587 L115.256 542.587 L115.256 538.651 Z" fill="#000000" fill-rule="nonzero" fill-opacity="1" /><path clip-path="url(#clip810)" d="M144.607 536.707 L149.491 536.707 L149.491 542.587 L144.607 542.587 L144.607 536.707 Z" fill="#000000" fill-rule="nonzero" fill-opacity="1" /><path clip-path="url(#clip810)" d="M170.255 523.443 Q167.107 523.443 165.255 525.596 Q163.427 527.749 163.427 531.499 Q163.427 535.226 165.255 537.401 Q167.107 539.554 170.255 539.554 Q173.403 539.554 175.232 537.401 Q177.084 535.226 177.084 531.499 Q177.084 527.749 175.232 525.596 Q173.403 523.443 170.255 523.443 M179.538 508.79 L179.538 513.05 Q177.778 512.216 175.973 511.777 Q174.19 511.337 172.431 511.337 Q167.802 511.337 165.348 514.462 Q162.917 517.587 162.57 523.906 Q163.936 521.892 165.996 520.827 Q168.056 519.739 170.533 519.739 Q175.741 519.739 178.751 522.911 Q181.783 526.059 181.783 531.499 Q181.783 536.823 178.635 540.04 Q175.487 543.258 170.255 543.258 Q164.26 543.258 161.089 538.675 Q157.917 534.068 157.917 525.341 Q157.917 517.147 161.806 512.286 Q165.695 507.402 172.246 507.402 Q174.005 507.402 175.788 507.749 Q177.593 508.096 179.538 508.79 Z" fill="#000000" fill-rule="nonzero" fill-opacity="1" /><path clip-path="url(#clip810)" d="M115.51 258.683 L123.149 258.683 L123.149 232.317 L114.839 233.984 L114.839 229.724 L123.103 228.058 L127.779 228.058 L127.779 258.683 L135.417 258.683 L135.417 262.618 L115.51 262.618 L115.51 258.683 Z" fill="#000000" fill-rule="nonzero" fill-opacity="1" /><path clip-path="url(#clip810)" d="M144.862 256.738 L149.746 256.738 L149.746 262.618 L144.862 262.618 L144.862 256.738 Z" fill="#000000" fill-rule="nonzero" fill-opacity="1" /><path clip-path="url(#clip810)" d="M169.931 246.206 Q166.598 246.206 164.677 247.988 Q162.778 249.771 162.778 252.896 Q162.778 256.021 164.677 257.803 Q166.598 259.585 169.931 259.585 Q173.264 259.585 175.186 257.803 Q177.107 255.997 177.107 252.896 Q177.107 249.771 175.186 247.988 Q173.288 246.206 169.931 246.206 M165.255 244.215 Q162.246 243.474 160.556 241.414 Q158.89 239.354 158.89 236.391 Q158.89 232.248 161.829 229.84 Q164.792 227.433 169.931 227.433 Q175.093 227.433 178.033 229.84 Q180.973 232.248 180.973 236.391 Q180.973 239.354 179.283 241.414 Q177.616 243.474 174.63 244.215 Q178.01 245.002 179.885 247.294 Q181.783 249.585 181.783 252.896 Q181.783 257.919 178.704 260.604 Q175.649 263.289 169.931 263.289 Q164.214 263.289 161.135 260.604 Q158.079 257.919 158.079 252.896 Q158.079 249.585 159.978 247.294 Q161.876 245.002 165.255 244.215 M163.542 236.831 Q163.542 239.516 165.209 241.021 Q166.899 242.525 169.931 242.525 Q172.94 242.525 174.63 241.021 Q176.343 239.516 176.343 236.831 Q176.343 234.146 174.63 232.641 Q172.94 231.136 169.931 231.136 Q166.899 231.136 165.209 232.641 Q163.542 234.146 163.542 236.831 Z" fill="#000000" fill-rule="nonzero" fill-opacity="1" /><path clip-path="url(#clip810)" d="M20.1444 1028.58 L26.9239 1028.58 Q23.9002 1031.82 22.4043 1035.51 Q20.9083 1039.17 20.9083 1043.31 Q20.9083 1051.46 25.9054 1055.79 Q30.8707 1060.12 40.2919 1060.12 Q49.6813 1060.12 54.6784 1055.79 Q59.6436 1051.46 59.6436 1043.31 Q59.6436 1039.17 58.1477 1035.51 Q56.6518 1031.82 53.6281 1028.58 L60.3439 1028.58 Q62.6355 1031.95 63.7814 1035.74 Q64.9272 1039.49 64.9272 1043.69 Q64.9272 1054.48 58.3387 1060.69 Q51.7183 1066.9 40.2919 1066.9 Q28.8336 1066.9 22.2451 1060.69 Q15.6248 1054.48 15.6248 1043.69 Q15.6248 1039.43 16.7706 1035.67 Q17.8846 1031.89 20.1444 1028.58 Z" fill="#000000" fill-rule="nonzero" fill-opacity="1" /><path clip-path="url(#clip810)" d="M49.9359 1019.5 L28.3562 1019.5 L28.3562 1013.65 L49.7131 1013.65 Q54.7739 1013.65 57.3202 1011.67 Q59.8346 1009.7 59.8346 1005.75 Q59.8346 1001.01 56.8109 998.275 Q53.7872 995.506 48.5673 995.506 L28.3562 995.506 L28.3562 989.649 L64.0042 989.649 L64.0042 995.506 L58.5296 995.506 Q61.7762 997.638 63.3676 1000.47 Q64.9272 1003.27 64.9272 1007 Q64.9272 1013.14 61.1078 1016.32 Q57.2883 1019.5 49.9359 1019.5 M27.4968 1004.77 L27.4968 1004.77 Z" fill="#000000" fill-rule="nonzero" fill-opacity="1" /><path clip-path="url(#clip810)" d="M35.1993 949.832 Q31.2526 947.636 29.3747 944.58 Q27.4968 941.525 27.4968 937.387 Q27.4968 931.817 31.4117 928.793 Q35.2948 925.769 42.4881 925.769 L64.0042 925.769 L64.0042 931.658 L42.679 931.658 Q37.5546 931.658 35.072 933.472 Q32.5894 935.286 32.5894 939.01 Q32.5894 943.562 35.6131 946.203 Q38.6368 948.845 43.8567 948.845 L64.0042 948.845 L64.0042 954.733 L42.679 954.733 Q37.5228 954.733 35.072 956.548 Q32.5894 958.362 32.5894 962.149 Q32.5894 966.637 35.6449 969.279 Q38.6686 971.921 43.8567 971.921 L64.0042 971.921 L64.0042 977.809 L28.3562 977.809 L28.3562 971.921 L33.8944 971.921 Q30.616 969.916 29.0564 967.115 Q27.4968 964.314 27.4968 960.462 Q27.4968 956.579 29.4702 953.874 Q31.4436 951.137 35.1993 949.832 Z" fill="#000000" fill-rule="nonzero" fill-opacity="1" /><path clip-path="url(#clip810)" d="M35.1993 886.334 Q31.2526 884.138 29.3747 881.082 Q27.4968 878.027 27.4968 873.889 Q27.4968 868.319 31.4117 865.295 Q35.2948 862.271 42.4881 862.271 L64.0042 862.271 L64.0042 868.16 L42.679 868.16 Q37.5546 868.16 35.072 869.974 Q32.5894 871.788 32.5894 875.512 Q32.5894 880.064 35.6131 882.705 Q38.6368 885.347 43.8567 885.347 L64.0042 885.347 L64.0042 891.235 L42.679 891.235 Q37.5228 891.235 35.072 893.05 Q32.5894 894.864 32.5894 898.651 Q32.5894 903.139 35.6449 905.781 Q38.6686 908.423 43.8567 908.423 L64.0042 908.423 L64.0042 914.311 L28.3562 914.311 L28.3562 908.423 L33.8944 908.423 Q30.616 906.418 29.0564 903.617 Q27.4968 900.816 27.4968 896.965 Q27.4968 893.081 29.4702 890.376 Q31.4436 887.639 35.1993 886.334 Z" fill="#000000" fill-rule="nonzero" fill-opacity="1" /><path clip-path="url(#clip810)" d="M49.9359 851.195 L28.3562 851.195 L28.3562 845.339 L49.7131 845.339 Q54.7739 845.339 57.3202 843.365 Q59.8346 841.392 59.8346 837.445 Q59.8346 832.703 56.8109 829.966 Q53.7872 827.196 48.5673 827.196 L28.3562 827.196 L28.3562 821.34 L64.0042 821.34 L64.0042 827.196 L58.5296 827.196 Q61.7762 829.329 63.3676 832.162 Q64.9272 834.963 64.9272 838.687 Q64.9272 844.829 61.1078 848.012 Q57.2883 851.195 49.9359 851.195 M27.4968 836.459 L27.4968 836.459 Z" fill="#000000" fill-rule="nonzero" fill-opacity="1" /><path clip-path="url(#clip810)" d="M14.479 809.277 L14.479 803.421 L64.0042 803.421 L64.0042 809.277 L14.479 809.277 Z" fill="#000000" fill-rule="nonzero" fill-opacity="1" /><path clip-path="url(#clip810)" d="M46.0847 774.966 Q46.0847 782.064 47.7079 784.801 Q49.3312 787.538 53.2461 787.538 Q56.3653 787.538 58.2114 785.501 Q60.0256 783.432 60.0256 779.899 Q60.0256 775.029 56.5881 772.101 Q53.1188 769.141 47.3897 769.141 L46.0847 769.141 L46.0847 774.966 M43.6657 763.285 L64.0042 763.285 L64.0042 769.141 L58.5933 769.141 Q61.8398 771.146 63.3994 774.138 Q64.9272 777.13 64.9272 781.459 Q64.9272 786.933 61.8716 790.18 Q58.7843 793.395 53.6281 793.395 Q47.6125 793.395 44.5569 789.384 Q41.5014 785.342 41.5014 777.353 L41.5014 769.141 L40.9285 769.141 Q36.8862 769.141 34.6901 771.815 Q32.4621 774.457 32.4621 779.263 Q32.4621 782.318 33.1941 785.215 Q33.9262 788.111 35.3903 790.785 L29.9795 790.785 Q28.7381 787.57 28.1334 784.546 Q27.4968 781.522 27.4968 778.658 Q27.4968 770.924 31.5072 767.104 Q35.5176 763.285 43.6657 763.285 Z" fill="#000000" fill-rule="nonzero" fill-opacity="1" /><path clip-path="url(#clip810)" d="M18.2347 745.429 L28.3562 745.429 L28.3562 733.366 L32.9077 733.366 L32.9077 745.429 L52.2594 745.429 Q56.6199 745.429 57.8613 744.251 Q59.1026 743.042 59.1026 739.382 L59.1026 733.366 L64.0042 733.366 L64.0042 739.382 Q64.0042 746.161 61.4897 748.739 Q58.9434 751.317 52.2594 751.317 L32.9077 751.317 L32.9077 755.614 L28.3562 755.614 L28.3562 751.317 L18.2347 751.317 L18.2347 745.429 Z" fill="#000000" fill-rule="nonzero" fill-opacity="1" /><path clip-path="url(#clip810)" d="M28.3562 725.663 L28.3562 719.807 L64.0042 719.807 L64.0042 725.663 L28.3562 725.663 M14.479 725.663 L14.479 719.807 L21.895 719.807 L21.895 725.663 L14.479 725.663 Z" fill="#000000" fill-rule="nonzero" fill-opacity="1" /><path clip-path="url(#clip810)" d="M28.3562 711.754 L28.3562 705.548 L58.275 694.408 L28.3562 683.268 L28.3562 677.061 L64.0042 690.429 L64.0042 698.386 L28.3562 711.754 Z" fill="#000000" fill-rule="nonzero" fill-opacity="1" /><path clip-path="url(#clip810)" d="M44.7161 638.485 L47.5806 638.485 L47.5806 665.412 Q53.6281 665.03 56.8109 661.784 Q59.9619 658.505 59.9619 652.681 Q59.9619 649.307 59.1344 646.156 Q58.3069 642.973 56.6518 639.854 L62.1899 639.854 Q63.5267 643.005 64.227 646.315 Q64.9272 649.625 64.9272 653.031 Q64.9272 661.561 59.9619 666.558 Q54.9967 671.523 46.5303 671.523 Q37.7774 671.523 32.6531 666.812 Q27.4968 662.07 27.4968 654.049 Q27.4968 646.856 32.1438 642.686 Q36.7589 638.485 44.7161 638.485 M42.9973 644.342 Q38.1912 644.405 35.3266 647.047 Q32.4621 649.657 32.4621 653.986 Q32.4621 658.887 35.2312 661.847 Q38.0002 664.775 43.0292 665.221 L42.9973 644.342 Z" fill="#000000" fill-rule="nonzero" fill-opacity="1" /><path clip-path="url(#clip810)" d="M41.7242 585.363 Q42.4244 583.294 44.7161 581.353 Q47.0077 579.379 51.0181 577.406 L64.0042 570.881 L64.0042 577.788 L51.8138 583.867 Q47.0395 586.223 45.48 588.451 Q43.9204 590.647 43.9204 594.466 L43.9204 601.468 L64.0042 601.468 L64.0042 607.898 L16.4842 607.898 L16.4842 593.384 Q16.4842 585.236 19.8898 581.226 Q23.2955 577.215 30.1704 577.215 Q34.6582 577.215 37.6183 579.316 Q40.5784 581.385 41.7242 585.363 M21.7677 601.468 L38.6368 601.468 L38.6368 593.384 Q38.6368 588.737 36.5043 586.382 Q34.34 583.995 30.1704 583.995 Q26.0009 583.995 23.9002 586.382 Q21.7677 588.737 21.7677 593.384 L21.7677 601.468 Z" fill="#000000" fill-rule="nonzero" fill-opacity="1" /><path clip-path="url(#clip810)" d="M44.7161 535.297 L47.5806 535.297 L47.5806 562.224 Q53.6281 561.842 56.8109 558.595 Q59.9619 555.317 59.9619 549.492 Q59.9619 546.119 59.1344 542.968 Q58.3069 539.785 56.6518 536.666 L62.1899 536.666 Q63.5267 539.817 64.227 543.127 Q64.9272 546.437 64.9272 549.843 Q64.9272 558.373 59.9619 563.37 Q54.9967 568.335 46.5303 568.335 Q37.7774 568.335 32.6531 563.624 Q27.4968 558.882 27.4968 550.861 Q27.4968 543.668 32.1438 539.498 Q36.7589 535.297 44.7161 535.297 M42.9973 541.153 Q38.1912 541.217 35.3266 543.859 Q32.4621 546.469 32.4621 550.797 Q32.4621 555.699 35.2312 558.659 Q38.0002 561.587 43.0292 562.033 L42.9973 541.153 Z" fill="#000000" fill-rule="nonzero" fill-opacity="1" /><path clip-path="url(#clip810)" d="M18.2347 519.892 L28.3562 519.892 L28.3562 507.829 L32.9077 507.829 L32.9077 519.892 L52.2594 519.892 Q56.6199 519.892 57.8613 518.714 Q59.1026 517.505 59.1026 513.845 L59.1026 507.829 L64.0042 507.829 L64.0042 513.845 Q64.0042 520.624 61.4897 523.202 Q58.9434 525.78 52.2594 525.78 L32.9077 525.78 L32.9077 530.077 L28.3562 530.077 L28.3562 525.78 L18.2347 525.78 L18.2347 519.892 Z" fill="#000000" fill-rule="nonzero" fill-opacity="1" /><path clip-path="url(#clip810)" d="M49.9359 500.731 L28.3562 500.731 L28.3562 494.875 L49.7131 494.875 Q54.7739 494.875 57.3202 492.901 Q59.8346 490.928 59.8346 486.981 Q59.8346 482.239 56.8109 479.502 Q53.7872 476.732 48.5673 476.732 L28.3562 476.732 L28.3562 470.876 L64.0042 470.876 L64.0042 476.732 L58.5296 476.732 Q61.7762 478.865 63.3676 481.698 Q64.9272 484.499 64.9272 488.223 Q64.9272 494.365 61.1078 497.548 Q57.2883 500.731 49.9359 500.731 M27.4968 485.995 L27.4968 485.995 Z" fill="#000000" fill-rule="nonzero" fill-opacity="1" /><path clip-path="url(#clip810)" d="M33.8307 438.156 Q33.2578 439.143 33.0032 440.321 Q32.7167 441.466 32.7167 442.867 Q32.7167 447.832 35.9632 450.506 Q39.1779 453.148 45.2253 453.148 L64.0042 453.148 L64.0042 459.036 L28.3562 459.036 L28.3562 453.148 L33.8944 453.148 Q30.6479 451.301 29.0883 448.341 Q27.4968 445.381 27.4968 441.148 Q27.4968 440.543 27.5923 439.811 Q27.656 439.079 27.8151 438.188 L33.8307 438.156 Z" fill="#000000" fill-rule="nonzero" fill-opacity="1" /><path clip-path="url(#clip810)" d="M42.4881 403.527 L64.0042 403.527 L64.0042 409.383 L42.679 409.383 Q37.6183 409.383 35.1038 411.357 Q32.5894 413.33 32.5894 417.277 Q32.5894 422.019 35.6131 424.756 Q38.6368 427.494 43.8567 427.494 L64.0042 427.494 L64.0042 433.382 L28.3562 433.382 L28.3562 427.494 L33.8944 427.494 Q30.6797 425.393 29.0883 422.56 Q27.4968 419.696 27.4968 415.972 Q27.4968 409.829 31.3163 406.678 Q35.1038 403.527 42.4881 403.527 Z" fill="#000000" fill-rule="nonzero" fill-opacity="1" /><polyline clip-path="url(#clip812)" style="stroke:#009af9; stroke-linecap:round; stroke-linejoin:round; stroke-width:4; stroke-opacity:1; fill:none" points="278.207,1373.57 279.589,1354.94 283.736,1328.15 285.119,1315.8 286.501,1317.36 287.883,1305.36 289.266,1302.85 293.413,1332.09 294.795,1334.88 296.178,1326.5 297.56,1323.95 298.942,1318.14 304.472,1330.6 305.854,1326.81 307.237,1333 308.619,1320.72 312.766,1328.93 314.149,1322.5 315.531,1304.5 316.913,1302.1 318.296,1294.02 322.443,1282.01 323.825,1286.96 325.208,1287.43 326.59,1289.11 327.972,1283.14 332.119,1282.45 333.502,1277.29 334.884,1270.5 336.267,1267.83 337.649,1261.94 343.178,1259.44 344.561,1258.49 345.943,1253.46 347.326,1228.27 351.473,1228.13 352.855,1236.52 354.238,1251.19 355.62,1256.23 357.002,1250.78 361.149,1251.72 362.532,1239.96 363.914,1247.59 365.297,1247.1 366.679,1250.78 370.768,1246.22 372.151,1238.63 373.533,1231.63 374.916,1270.84 376.298,1249.98 380.445,1250.93 381.827,1250.46 383.21,1256.13 384.592,1250.36 385.975,1266.54 390.122,1262.42 391.504,1263.49 392.887,1274.74 394.269,1266.29 395.651,1260.8 399.798,1256.81 401.181,1261.31 402.563,1255.58 403.946,1245.05 405.328,1233.89 409.475,1230.52 410.857,1232.5 412.24,1226.39 413.622,1222.72 415.005,1219.31 419.152,1216.87 420.534,1218.57 421.916,1213.22 423.299,1209.97 428.828,1198.6 430.211,1196.75 431.593,1207.06 432.975,1205.3 434.358,1206.88 438.505,1204.77 439.887,1192.69 441.27,1197.98 442.652,1198.61 444.035,1175.82 448.182,1189.14 449.564,1197.16 450.946,1195.86 452.329,1196.86 453.711,1201.41 457.858,1234.11 459.241,1230.27 460.623,1222.09 462.005,1209.08 463.388,1205.77 467.535,1210.35 468.917,1195.43 470.3,1203.07 471.682,1227 473.064,1226.38 478.594,1249.54 479.976,1264.5 481.359,1212.91 482.741,1225.31 486.888,1213.04 488.271,1193.32 489.653,1197.33 491.035,1182.78 492.418,1169.89 496.565,1159.22 497.947,1158.17 499.33,1150.1 500.712,1142.05 502.094,1147.48 506.242,1146.42 507.624,1133.19 509.006,1126.28 510.389,1122.79 511.771,1132.22 515.918,1136.65 517.301,1145.15 518.683,1144.62 520.065,1138.66 521.448,1145.57 525.595,1130.15 526.977,1118.14 528.36,1107.02 531.124,1094.18 535.272,1106.76 536.654,1099.57 538.036,1087.75 539.419,1083.14 540.801,1067.36 544.948,1070.03 546.331,1055.24 547.713,1063.94 549.095,1071.83 550.478,1078.02 554.625,1092.45 556.007,1090.14 557.39,1075.64 558.772,1084.81 560.154,1059.41 564.301,1073.9 565.684,1090.2 567.066,1089.55 568.449,1091.72 569.831,1074.37 573.978,1102.96 575.36,1083.65 576.743,1082.27 578.125,1056.76 579.508,1062.09 583.655,1071.06 585.037,1064.58 586.42,1075.37 587.802,1074.88 589.184,1052.09 593.331,1028.84 594.714,1036.44 596.096,1025.43 597.479,1026.2 598.861,1046.31 603.008,1028.02 604.39,1039.78 605.773,1023.79 607.155,948.774 608.538,951.406 614.067,941.972 615.449,922.714 616.832,912.902 618.214,897.897 622.361,906.225 623.744,926.142 625.126,920.287 626.508,919.041 627.891,917.231 632.038,936.318 633.42,900.421 634.803,912.394 636.185,913.695 637.568,929.341 641.715,921.093 643.097,927.425 644.479,922.114 645.862,916.037 647.244,913.101 651.391,914.186 652.774,921.78 654.156,928.4 655.538,926.242 656.921,909.242 661.068,908.958 662.45,919.4 663.833,913.926 665.215,912.85 666.597,904.297 670.745,905.277 672.127,896.683 673.509,909.067 674.892,894.554 676.274,892.593 680.421,893.012 681.804,892.295 683.186,903.943 684.568,890.825 685.951,889.546 690.098,888.308 691.48,902.795 692.863,882.509 694.245,878.313 695.627,875.82 699.832,884.72 701.215,873.116 702.597,879.242 703.979,878.186 705.362,880.817 709.509,881.826 710.891,878.727 712.274,874.371 713.656,854.608 715.038,852.44 719.185,853.217 720.568,859.458 721.95,858.745 723.333,856.852 724.715,862.866 728.862,858.008 730.244,864.55 731.627,854.875 734.392,867.627 738.539,888.444 739.921,907.488 741.303,901.64 742.686,904.038 744.068,900.021 748.215,901.87 749.598,890.702 750.98,900.289 752.363,878.773 753.745,878.636 757.892,885.87 759.274,882.297 760.657,881.021 762.039,871.091 763.422,867.966 767.569,856.606 768.951,853.457 771.716,852.167 773.098,847.674 777.245,848.929 778.628,850.19 781.392,849.026 782.775,859.041 786.922,862.024 788.304,875.588 789.687,880.763 791.069,871.887 792.451,871.645 796.599,865.469 797.981,849.301 799.363,849.025 800.746,831.569 802.128,831.012 807.658,833.192 809.04,837.759 810.422,830.526 811.805,844.522 815.952,857.337 817.334,846.75 818.717,853.361 820.099,854.661 821.481,873.421 825.629,852.58 827.011,839.205 828.393,839.914 829.776,845.338 831.158,855.632 835.305,843.983 836.688,839.737 838.07,822.665 839.452,816.093 840.835,823.463 846.364,810.311 847.747,798.004 849.129,788.859 850.511,793.607 854.659,821.163 856.041,847.65 857.423,849.509 858.806,901.818 860.188,949.543 864.335,883.4 865.718,918.069 867.1,887.911 868.482,909.751 869.865,919.458 873.954,968.402 875.337,889.242 876.719,978.857 878.101,1139.38 879.484,1076.19 883.631,1269.86 885.013,1172.62 886.396,1335.16 887.778,1357.45 889.16,1356.9 893.308,1384.24 894.69,1215.5 896.072,1208.02 897.455,1174.63 898.837,1236.81 902.984,1206.48 904.367,1187.96 905.749,1187.29 907.131,1143.22 908.514,1152.33 912.661,1085.38 914.043,1082.5 915.426,1056.77 916.808,1011.85 922.337,1005.81 923.72,953.266 925.102,973.253 926.485,909.744 927.867,865.065 932.014,920.409 933.397,982.854 934.779,958.543 936.161,938.61 937.544,962.931 941.691,934.15 943.073,934.166 944.456,902.454 945.838,907.488 947.22,951.089 951.367,943.013 952.75,981.234 954.132,970.308 955.515,990.751 956.897,966.505 961.044,928.6 962.426,938.069 963.809,950.69 965.191,954.33 966.574,943.151 970.721,894.191 972.103,895.624 973.485,893.219 974.868,883.205 976.25,879.986 981.78,849.323 983.162,795.964 984.545,828.63 985.927,806.833 990.074,766.615 991.456,767.96 992.839,761.951 994.221,783.403 995.604,757.477 999.751,738.354 1001.13,750.254 1002.52,743.593 1003.9,818.955 1005.28,816.303 1009.43,780.56 1010.81,770.018 1012.19,781.188 1013.57,770.806 1014.96,789.881 1019.1,751.245 1020.49,777.53 1021.87,788.82 1023.25,781.731 1024.63,806.542 1028.78,790.454 1030.16,788.304 1031.55,792.871 1032.93,796.14 1038.46,807.672 1039.84,804.511 1041.22,807.396 1042.6,798.994 1043.99,804.476 1048.13,824.063 1049.52,802.83 1050.9,783.584 1052.28,797.338 1053.66,803.488 1057.81,790.272 1059.19,789.26 1060.58,772.051 1061.96,786.763 1063.34,780.337 1067.49,787.743 1068.87,798.719 1070.25,793.557 1071.63,792.263 1073.02,799.139 1077.16,781.169 1078.55,766.914 1079.93,764.548 1081.31,773.426 1082.69,755.67 1086.84,749.864 1088.22,755.953 1089.61,728.363 1090.99,728.312 1092.37,714.294 1096.52,698.607 1097.9,714.9 1099.28,708.458 1100.66,736.949 1102.05,730.011 1106.19,727.159 1107.58,723.187 1108.96,715.758 1110.34,730.968 1111.72,720.56 1115.87,719.539 1117.25,734.044 1118.64,705.362 1120.02,755.376 1121.4,767.991 1126.93,772.632 1128.31,752.28 1129.69,772.498 1131.08,758.016 1135.22,728.702 1136.61,750.796 1137.99,745.266 1139.37,747.469 1140.75,743.082 1144.9,786.358 1146.28,769.032 1147.67,794.086 1149.05,794.489 1150.43,782.287 1154.58,761.294 1155.96,759.246 1157.34,753.053 1158.72,729.983 1160.11,740.884 1164.25,725.847 1165.64,732.505 1167.02,702.525 1168.4,665.455 1169.78,663.713 1173.93,665.61 1175.31,659.1 1176.7,673.402 1178.08,666.764 1179.46,686.386 1183.61,705.772 1184.99,702.359 1186.37,693.177 1187.75,704.803 1189.14,702.168 1193.28,743.373 1194.67,726.894 1196.05,767.919 1197.43,747.134 1198.81,761.104 1203.02,742.252 1204.4,708.437 1205.78,689.484 1207.17,663.669 1208.55,648.149 1212.69,680.837 1214.08,687.787 1215.46,649.52 1216.84,603.862 1218.22,586.523 1222.37,543.716 1223.75,563.093 1225.14,574.737 1226.52,565.648 1227.9,565.008 1232.05,557.516 1233.43,540.562 1234.81,533.365 1237.58,530.74 1241.72,549.884 1243.11,538.116 1244.49,545.245 1245.87,543.801 1247.25,562.078 1251.4,545.204 1252.78,553.401 1254.17,568.413 1255.55,564.379 1256.93,579.338 1261.08,580.38 1262.46,566.035 1263.84,555.839 1265.22,552.69 1266.61,564.201 1270.75,566.369 1272.14,552.846 1273.52,569.349 1274.9,566.822 1280.43,564.003 1281.81,559.593 1283.2,553.225 1284.58,542.462 1290.11,560.867 1291.49,566.464 1292.87,509.028 1294.25,508.468 1295.64,536.117 1299.78,551.014 1301.17,535.189 1302.55,510.656 1303.93,531.852 1305.31,537.601 1310.84,548.13 1312.23,536.598 1313.61,548.576 1314.99,545.9 1319.14,538.483 1320.52,511.493 1321.9,538.754 1323.28,572.54 1324.67,605.227 1328.81,602.5 1330.2,594.756 1331.58,592.306 1332.96,583.698 1334.34,584.597 1338.49,549.104 1339.87,526.141 1341.26,536.479 1342.64,543.114 1344.02,548.267 1349.55,547.294 1350.93,543.334 1352.31,533.676 1353.7,537.17 1357.84,540.527 1359.23,577.308 1360.61,578.518 1361.99,609.526 1363.37,595.292 1367.52,571.454 1368.9,604.181 1370.29,625.525 1371.67,666.945 1373.05,651.012 1377.2,637.884 1378.58,618.664 1379.96,603.235 1381.34,579.348 1382.73,560.582 1386.82,536.264 1388.2,527.061 1389.58,552.981 1390.96,618.412 1392.35,577.172 1396.49,533.757 1397.88,524.908 1399.26,536.343 1400.64,524.819 1402.02,491.749 1406.17,500.954 1407.55,504.719 1408.93,499.7 1410.32,476.866 1415.85,439.864 1417.23,434.858 1418.61,431.674 1419.99,418.944 1421.38,407.856 1425.52,412.524 1426.91,401.416 1428.29,396.81 1429.67,393.925 1431.05,393.253 1435.2,398.087 1436.58,386.883 1437.96,386.88 1439.35,393.745 1440.73,392.759 1444.88,384.643 1446.26,376.521 1447.64,388.495 1449.02,358.427 1450.41,365.356 1454.55,349.852 1455.94,358.887 1457.32,360.836 1458.7,350.857 1460.08,333.996 1464.23,348.329 1465.61,383.259 1466.99,429.184 1468.38,415.439 1469.76,396.814 1473.91,407.709 1475.29,407.464 1476.67,437.338 1478.05,407.949 1479.44,415.755 1483.58,430.943 1484.97,436.611 1486.35,421.193 1487.73,381.806 1489.11,391.022 1494.64,391.173 1496.02,376.326 1497.41,364.678 1498.79,350.314 1502.94,340.11 1504.32,320.663 1505.7,342.525 1507.08,344.913 1508.47,326.741 1512.61,322.737 1514,315.884 1515.38,316.876 1516.76,314.829 1518.14,331.991 1522.29,325.982 1523.67,323.777 1525.05,331.79 1526.44,327.208 1527.82,328.838 1531.97,317.994 1533.35,305.877 1534.73,300.073 1536.11,286.394 1537.5,273.376 1543.03,275.868 1544.41,260.28 1545.79,279.719 1547.17,264.901 1551.32,268.654 1552.7,270.325 1554.08,262.591 1555.47,271.668 1556.85,280.846 1561,292.788 1562.38,242.196 1563.76,249.094 1565.14,244.008 1566.53,221.144 1570.67,225.066 1572.06,201.994 1573.44,217.161 1574.82,209.054 1576.2,203.781 1580.35,211.857 1581.73,213.66 1583.11,210.67 1584.5,193.703 1585.88,190.262 1590.03,215.661 1591.41,211.097 1592.79,205.58 1594.17,206.134 1595.56,196.826 1599.7,188.875 1601.09,220.534 1602.47,244.225 1603.85,246.222 1605.23,226.295 1609.38,223.982 1610.76,228.399 1612.14,203.774 1613.53,257.271 1614.91,261.293 1619.06,261.023 1620.44,273.893 1621.82,269.64 1623.2,251.436 1624.59,266.215 1630.12,287.719 1631.5,274.218 1632.88,294.002 1634.26,310.11 1638.41,301.802 1639.79,319.993 1641.17,301.284 1642.56,281.11 1643.94,269.721 1648.09,274.36 1649.47,295.346 1650.85,292.381 1652.23,280.453 1653.62,280.523 1657.76,282.711 1659.15,297.568 1660.53,302.625 1661.91,329.893 1663.29,332.037 1667.44,352.177 1668.82,352.783 1670.2,354.89 1671.59,320.004 1672.97,345.51 1677.12,353.051 1678.5,353.661 1679.88,355.075 1681.26,319.154 1682.65,310.878 1686.79,313.116 1688.18,319.319 1689.56,292.113 1690.94,278.48 1692.32,271.047 1696.47,262.473 1697.85,274.373 1699.23,281.933 1700.62,254.911 1702,261.804 1706.15,229.947 1707.53,224.875 1708.91,197.171 1710.29,187.653 1711.68,173.042 1715.88,194.91 1717.26,208.405 1718.65,211.567 1720.03,195.797 1721.41,176.743 1725.56,152.7 1726.94,132.228 1728.32,156.157 1729.7,172.832 1731.09,182.696 1735.23,189.177 1736.62,180.659 1738,186.379 1740.76,204.691 1744.91,193.354 1746.29,225.335 1747.68,233.965 1749.06,241.077 1750.44,226.382 1754.59,200.832 1755.97,181.825 1757.35,197.526 1758.73,205.861 1760.12,190.439 1764.26,188.482 1765.65,192.755 1767.03,177.354 1768.41,192.504 1769.79,216.85 1773.94,227.744 1775.32,205.723 1776.7,213.806 1778.09,186.212 1783.62,171.843 1785,161.877 1786.38,132.909 1787.76,118.677 1789.15,115.486 1793.29,119.06 1794.68,145.538 1796.06,155.416 1797.44,142.424 1798.82,145.766 1802.97,151.568 1804.35,171.198 1805.73,168.128 1807.12,185.332 1808.5,229.779 1814.03,235.037 1815.41,232.786 1816.79,295.729 1818.18,312.736 1822.32,284.202 1823.71,305.91 1825.09,340.669 1826.47,326.268 1827.85,316.395 1832,281.818 1833.38,261.717 1834.76,281.353 1836.15,290.058 1837.53,309.77 1841.68,316.467 1843.06,283.273 1844.44,265.322 1845.82,296.466 1847.21,318.837 1851.35,328.019 1852.74,326.397 1854.12,333.011 1855.5,344.789 1856.88,327.534 1862.41,380.865 1863.79,412.561 1865.18,389.729 1866.56,332.31 1870.71,330.133 1872.09,334.78 1873.47,292.708 1874.85,292.925 1876.24,278.778 1880.38,332.219 1881.77,353.424 1883.15,331.105 1884.53,332.121 1885.91,363.927 1890,369.031 1891.38,337.922 1892.77,336.962 1894.15,267.512 1895.53,220.824 1899.68,220.608 1901.06,212.466 1902.44,243.303 1903.83,236.083 1905.21,218.685 1909.36,190.035 1910.74,178.968 1912.12,182.695 1913.5,206.11 1914.89,190.233 1919.03,179.603 1920.41,185.585 1921.8,155.24 1923.18,149.06 1924.56,141.959 1928.71,161.878 1930.09,166.203 1931.47,149.268 1932.86,156.407 1938.39,156.396 1939.77,114.027 1941.15,97.381 1942.53,136.158 1943.92,179.95 1948.06,184.119 1949.44,219.792 1950.83,228.772 1952.21,201.764 1953.59,282.737 1957.74,272.001 1959.12,268.047 1960.5,220.192 1961.89,282.393 1963.27,288.894 1967.42,324.505 1968.8,353.723 1970.18,365.326 1971.56,362.042 1972.95,332.09 1977.09,328.55 1978.47,330.336 1979.86,452.929 1981.24,458.463 1982.62,514.41 1986.77,471.964 1988.15,477.746 1989.53,468.686 1990.92,323.485 1992.3,276.619 1997.83,302.282 1999.21,331.557 2000.59,283.264 2001.98,292.049 2006.12,264.369 2007.5,255.525 2008.89,266.911 2010.27,247.63 2011.65,283.266 2015.8,352.954 2017.18,345.457 2018.56,318.05 2019.95,364.255 2021.33,366.466 2026.86,330.45 2028.24,325.356 2029.62,294.239 2031.01,244.614 2035.15,251.639 2036.53,288.443 2037.92,291.896 2039.3,294.124 2040.68,273.345 2046.21,251.898 2047.59,247.796 2048.98,226.163 2050.36,217.191 2054.51,211.655 2055.89,236.46 2057.27,232.906 2058.65,225.513 2060.03,244.862 2064.18,228.884 2065.56,204.39 2066.95,191.909 2068.33,198.457 2069.71,208.159 2073.86,207.814 2075.24,250.022 2076.62,214.264 2078.01,185.003 2079.39,160.953 2083.54,137.923 2084.92,134.228 2086.3,93.5427 2087.68,110.776 2089.06,124.636 2093.21,97.3243 2094.59,109.588 2095.98,89.7956 2097.36,88.9401 2098.74,86.1857 2102.89,92.328 2104.27,86.6874 2105.65,107.942 2107.04,104.972 2108.42,102.027 2112.57,166.084 2113.95,159.68 2115.33,154.587 2116.71,166.057 2118.09,251.446 2122.24,255.487 2123.62,272.764 2125.01,282.981 2126.39,252.653 2127.77,266.198 2133.3,273.347 2134.68,216.244 2136.07,196.559 2137.45,172.309 2141.6,149.965 2142.98,208.462 2144.36,235.181 2145.74,256.861 2147.12,256.245 2151.27,237.497 2152.65,250.02 2154.04,280.332 2155.42,305.44 2156.8,303.191 2160.95,334.361 2162.33,338.338 2163.71,295.356 2165.1,347.032 2166.48,348.812 2170.63,305.841 2172.01,262.994 2173.39,290.809 2174.77,283.589 2176.15,307.327 2180.3,309.017 2181.68,290.854 2183.07,297.716 2184.45,258.741 2185.83,298.519 2189.98,285.101 2191.36,270.935 2192.74,279.412 2194.13,289.038 2195.51,260.044 2199.66,257.673 2201.04,228.144 2202.42,229.394 2203.8,238.729 2205.18,201.507 2209.33,229.963 2210.71,242.094 2212.1,270.798 2213.48,274.381 2214.86,249.987 2219.07,229.905 2220.45,221.761 2221.83,267.731 2223.21,197.95 2224.6,204.19 2228.74,214.397 2230.13,166.426 2231.51,170.32 2232.89,175.107 2234.27,156.988 2238.42,113.155 2239.8,99.2966 2241.18,94.155 2243.95,91.9752 2248.1,129.041 2249.48,149.071 2250.86,129.139 2252.24,192.047 2253.63,173.188 2257.77,184.638 2259.16,186.711 2260.54,165.215 2261.92,166.262 2263.3,186.667 2267.45,178.907 2268.83,189.517 2270.21,180.32 2271.6,203.197 2272.98,197.674 2277.13,221.585 2278.51,227.951 2279.89,197.151 2281.27,193.863 2282.66,177.016 2288.19,191.496 2289.57,195.342 2290.95,160.352 2292.33,160.571 "/>
</svg>
