<?xml version="1.0" encoding="utf-8"?>
<svg xmlns="http://www.w3.org/2000/svg" xmlns:xlink="http://www.w3.org/1999/xlink" width="600" height="400" viewBox="0 0 2400 1600">
<defs>
  <clipPath id="clip170">
    <rect x="0" y="0" width="2400" height="1600"/>
  </clipPath>
</defs>
<path clip-path="url(#clip170)" d="M0 1600 L2400 1600 L2400 0 L0 0  Z" fill="#ffffff" fill-rule="evenodd" fill-opacity="1"/>
<defs>
  <clipPath id="clip171">
    <rect x="480" y="0" width="1681" height="1600"/>
  </clipPath>
</defs>
<path clip-path="url(#clip170)" d="M217.783 1423.18 L2352.76 1423.18 L2352.76 47.2441 L217.783 47.2441  Z" fill="#ffffff" fill-rule="evenodd" fill-opacity="1"/>
<defs>
  <clipPath id="clip172">
    <rect x="217" y="47" width="2136" height="1377"/>
  </clipPath>
</defs>
<polyline clip-path="url(#clip172)" style="stroke:#000000; stroke-linecap:round; stroke-linejoin:round; stroke-width:2; stroke-opacity:0.1; fill:none" points="274.607,1423.18 274.607,47.2441 "/>
<polyline clip-path="url(#clip172)" style="stroke:#000000; stroke-linecap:round; stroke-linejoin:round; stroke-width:2; stroke-opacity:0.1; fill:none" points="779.175,1423.18 779.175,47.2441 "/>
<polyline clip-path="url(#clip172)" style="stroke:#000000; stroke-linecap:round; stroke-linejoin:round; stroke-width:2; stroke-opacity:0.1; fill:none" points="1285.13,1423.18 1285.13,47.2441 "/>
<polyline clip-path="url(#clip172)" style="stroke:#000000; stroke-linecap:round; stroke-linejoin:round; stroke-width:2; stroke-opacity:0.1; fill:none" points="1789.69,1423.18 1789.69,47.2441 "/>
<polyline clip-path="url(#clip172)" style="stroke:#000000; stroke-linecap:round; stroke-linejoin:round; stroke-width:2; stroke-opacity:0.1; fill:none" points="2294.26,1423.18 2294.26,47.2441 "/>
<polyline clip-path="url(#clip172)" style="stroke:#000000; stroke-linecap:round; stroke-linejoin:round; stroke-width:2; stroke-opacity:0.1; fill:none" points="217.783,1378.7 2352.76,1378.7 "/>
<polyline clip-path="url(#clip172)" style="stroke:#000000; stroke-linecap:round; stroke-linejoin:round; stroke-width:2; stroke-opacity:0.1; fill:none" points="217.783,1107.69 2352.76,1107.69 "/>
<polyline clip-path="url(#clip172)" style="stroke:#000000; stroke-linecap:round; stroke-linejoin:round; stroke-width:2; stroke-opacity:0.1; fill:none" points="217.783,836.669 2352.76,836.669 "/>
<polyline clip-path="url(#clip172)" style="stroke:#000000; stroke-linecap:round; stroke-linejoin:round; stroke-width:2; stroke-opacity:0.1; fill:none" points="217.783,565.652 2352.76,565.652 "/>
<polyline clip-path="url(#clip172)" style="stroke:#000000; stroke-linecap:round; stroke-linejoin:round; stroke-width:2; stroke-opacity:0.1; fill:none" points="217.783,294.636 2352.76,294.636 "/>
<polyline clip-path="url(#clip170)" style="stroke:#000000; stroke-linecap:round; stroke-linejoin:round; stroke-width:4; stroke-opacity:1; fill:none" points="217.783,1423.18 2352.76,1423.18 "/>
<polyline clip-path="url(#clip170)" style="stroke:#000000; stroke-linecap:round; stroke-linejoin:round; stroke-width:4; stroke-opacity:1; fill:none" points="274.607,1423.18 274.607,1404.28 "/>
<polyline clip-path="url(#clip170)" style="stroke:#000000; stroke-linecap:round; stroke-linejoin:round; stroke-width:4; stroke-opacity:1; fill:none" points="779.175,1423.18 779.175,1404.28 "/>
<polyline clip-path="url(#clip170)" style="stroke:#000000; stroke-linecap:round; stroke-linejoin:round; stroke-width:4; stroke-opacity:1; fill:none" points="1285.13,1423.18 1285.13,1404.28 "/>
<polyline clip-path="url(#clip170)" style="stroke:#000000; stroke-linecap:round; stroke-linejoin:round; stroke-width:4; stroke-opacity:1; fill:none" points="1789.69,1423.18 1789.69,1404.28 "/>
<polyline clip-path="url(#clip170)" style="stroke:#000000; stroke-linecap:round; stroke-linejoin:round; stroke-width:4; stroke-opacity:1; fill:none" points="2294.26,1423.18 2294.26,1404.28 "/>
<path clip-path="url(#clip170)" d="M146.401 1481.64 L162.721 1481.64 L162.721 1485.58 L140.776 1485.58 L140.776 1481.64 Q143.438 1478.89 148.022 1474.26 Q152.628 1469.61 153.809 1468.27 Q156.054 1465.74 156.934 1464.01 Q157.837 1462.25 157.837 1460.56 Q157.837 1457.8 155.892 1456.07 Q153.971 1454.33 150.869 1454.33 Q148.67 1454.33 146.216 1455.09 Q143.786 1455.86 141.008 1457.41 L141.008 1452.69 Q143.832 1451.55 146.286 1450.97 Q148.739 1450.39 150.776 1450.39 Q156.147 1450.39 159.341 1453.08 Q162.536 1455.77 162.536 1460.26 Q162.536 1462.39 161.725 1464.31 Q160.938 1466.2 158.832 1468.8 Q158.253 1469.47 155.151 1472.69 Q152.05 1475.88 146.401 1481.64 Z" fill="#000000" fill-rule="nonzero" fill-opacity="1" /><path clip-path="url(#clip170)" d="M182.535 1454.1 Q178.924 1454.1 177.096 1457.66 Q175.29 1461.2 175.29 1468.33 Q175.29 1475.44 177.096 1479.01 Q178.924 1482.55 182.535 1482.55 Q186.17 1482.55 187.975 1479.01 Q189.804 1475.44 189.804 1468.33 Q189.804 1461.2 187.975 1457.66 Q186.17 1454.1 182.535 1454.1 M182.535 1450.39 Q188.346 1450.39 191.401 1455 Q194.48 1459.58 194.48 1468.33 Q194.48 1477.06 191.401 1481.67 Q188.346 1486.25 182.535 1486.25 Q176.725 1486.25 173.647 1481.67 Q170.591 1477.06 170.591 1468.33 Q170.591 1459.58 173.647 1455 Q176.725 1450.39 182.535 1450.39 Z" fill="#000000" fill-rule="nonzero" fill-opacity="1" /><path clip-path="url(#clip170)" d="M203.508 1481.64 L211.146 1481.64 L211.146 1455.28 L202.836 1456.95 L202.836 1452.69 L211.1 1451.02 L215.776 1451.02 L215.776 1481.64 L223.415 1481.64 L223.415 1485.58 L203.508 1485.58 L203.508 1481.64 Z" fill="#000000" fill-rule="nonzero" fill-opacity="1" /><path clip-path="url(#clip170)" d="M232.998 1484.86 L232.998 1480.6 Q234.757 1481.44 236.563 1481.88 Q238.369 1482.32 240.105 1482.32 Q244.734 1482.32 247.165 1479.21 Q249.618 1476.09 249.966 1469.75 Q248.623 1471.74 246.563 1472.8 Q244.503 1473.87 242.003 1473.87 Q236.818 1473.87 233.785 1470.74 Q230.776 1467.59 230.776 1462.15 Q230.776 1456.83 233.924 1453.61 Q237.072 1450.39 242.304 1450.39 Q248.299 1450.39 251.447 1455 Q254.618 1459.58 254.618 1468.33 Q254.618 1476.51 250.73 1481.39 Q246.864 1486.25 240.313 1486.25 Q238.554 1486.25 236.748 1485.9 Q234.943 1485.56 232.998 1484.86 M242.304 1470.21 Q245.452 1470.21 247.281 1468.06 Q249.132 1465.9 249.132 1462.15 Q249.132 1458.43 247.281 1456.27 Q245.452 1454.1 242.304 1454.1 Q239.156 1454.1 237.304 1456.27 Q235.475 1458.43 235.475 1462.15 Q235.475 1465.9 237.304 1468.06 Q239.156 1470.21 242.304 1470.21 Z" fill="#000000" fill-rule="nonzero" fill-opacity="1" /><path clip-path="url(#clip170)" d="M260.267 1470.7 L272.743 1470.7 L272.743 1474.49 L260.267 1474.49 L260.267 1470.7 Z" fill="#000000" fill-rule="nonzero" fill-opacity="1" /><path clip-path="url(#clip170)" d="M290.128 1454.1 Q286.516 1454.1 284.688 1457.66 Q282.882 1461.2 282.882 1468.33 Q282.882 1475.44 284.688 1479.01 Q286.516 1482.55 290.128 1482.55 Q293.762 1482.55 295.567 1479.01 Q297.396 1475.44 297.396 1468.33 Q297.396 1461.2 295.567 1457.66 Q293.762 1454.1 290.128 1454.1 M290.128 1450.39 Q295.938 1450.39 298.993 1455 Q302.072 1459.58 302.072 1468.33 Q302.072 1477.06 298.993 1481.67 Q295.938 1486.25 290.128 1486.25 Q284.317 1486.25 281.239 1481.67 Q278.183 1477.06 278.183 1468.33 Q278.183 1459.58 281.239 1455 Q284.317 1450.39 290.128 1450.39 Z" fill="#000000" fill-rule="nonzero" fill-opacity="1" /><path clip-path="url(#clip170)" d="M311.1 1481.64 L318.738 1481.64 L318.738 1455.28 L310.428 1456.95 L310.428 1452.69 L318.692 1451.02 L323.368 1451.02 L323.368 1481.64 L331.007 1481.64 L331.007 1485.58 L311.1 1485.58 L311.1 1481.64 Z" fill="#000000" fill-rule="nonzero" fill-opacity="1" /><path clip-path="url(#clip170)" d="M337.697 1470.7 L350.173 1470.7 L350.173 1474.49 L337.697 1474.49 L337.697 1470.7 Z" fill="#000000" fill-rule="nonzero" fill-opacity="1" /><path clip-path="url(#clip170)" d="M367.558 1454.1 Q363.947 1454.1 362.118 1457.66 Q360.312 1461.2 360.312 1468.33 Q360.312 1475.44 362.118 1479.01 Q363.947 1482.55 367.558 1482.55 Q371.192 1482.55 372.997 1479.01 Q374.826 1475.44 374.826 1468.33 Q374.826 1461.2 372.997 1457.66 Q371.192 1454.1 367.558 1454.1 M367.558 1450.39 Q373.368 1450.39 376.423 1455 Q379.502 1459.58 379.502 1468.33 Q379.502 1477.06 376.423 1481.67 Q373.368 1486.25 367.558 1486.25 Q361.747 1486.25 358.669 1481.67 Q355.613 1477.06 355.613 1468.33 Q355.613 1459.58 358.669 1455 Q361.747 1450.39 367.558 1450.39 Z" fill="#000000" fill-rule="nonzero" fill-opacity="1" /><path clip-path="url(#clip170)" d="M388.53 1481.64 L396.169 1481.64 L396.169 1455.28 L387.858 1456.95 L387.858 1452.69 L396.122 1451.02 L400.798 1451.02 L400.798 1481.64 L408.437 1481.64 L408.437 1485.58 L388.53 1485.58 L388.53 1481.64 Z" fill="#000000" fill-rule="nonzero" fill-opacity="1" /><path clip-path="url(#clip170)" d="M650.97 1481.64 L667.289 1481.64 L667.289 1485.58 L645.345 1485.58 L645.345 1481.64 Q648.007 1478.89 652.59 1474.26 Q657.196 1469.61 658.377 1468.27 Q660.622 1465.74 661.502 1464.01 Q662.405 1462.25 662.405 1460.56 Q662.405 1457.8 660.46 1456.07 Q658.539 1454.33 655.437 1454.33 Q653.238 1454.33 650.784 1455.09 Q648.354 1455.86 645.576 1457.41 L645.576 1452.69 Q648.4 1451.55 650.854 1450.97 Q653.308 1450.39 655.345 1450.39 Q660.715 1450.39 663.909 1453.08 Q667.104 1455.77 667.104 1460.26 Q667.104 1462.39 666.294 1464.31 Q665.507 1466.2 663.4 1468.8 Q662.821 1469.47 659.72 1472.69 Q656.618 1475.88 650.97 1481.64 Z" fill="#000000" fill-rule="nonzero" fill-opacity="1" /><path clip-path="url(#clip170)" d="M687.104 1454.1 Q683.493 1454.1 681.664 1457.66 Q679.858 1461.2 679.858 1468.33 Q679.858 1475.44 681.664 1479.01 Q683.493 1482.55 687.104 1482.55 Q690.738 1482.55 692.543 1479.01 Q694.372 1475.44 694.372 1468.33 Q694.372 1461.2 692.543 1457.66 Q690.738 1454.1 687.104 1454.1 M687.104 1450.39 Q692.914 1450.39 695.969 1455 Q699.048 1459.58 699.048 1468.33 Q699.048 1477.06 695.969 1481.67 Q692.914 1486.25 687.104 1486.25 Q681.293 1486.25 678.215 1481.67 Q675.159 1477.06 675.159 1468.33 Q675.159 1459.58 678.215 1455 Q681.293 1450.39 687.104 1450.39 Z" fill="#000000" fill-rule="nonzero" fill-opacity="1" /><path clip-path="url(#clip170)" d="M711.293 1481.64 L727.613 1481.64 L727.613 1485.58 L705.668 1485.58 L705.668 1481.64 Q708.33 1478.89 712.914 1474.26 Q717.52 1469.61 718.701 1468.27 Q720.946 1465.74 721.826 1464.01 Q722.728 1462.25 722.728 1460.56 Q722.728 1457.8 720.784 1456.07 Q718.863 1454.33 715.761 1454.33 Q713.562 1454.33 711.108 1455.09 Q708.678 1455.86 705.9 1457.41 L705.9 1452.69 Q708.724 1451.55 711.178 1450.97 Q713.631 1450.39 715.668 1450.39 Q721.039 1450.39 724.233 1453.08 Q727.427 1455.77 727.427 1460.26 Q727.427 1462.39 726.617 1464.31 Q725.83 1466.2 723.724 1468.8 Q723.145 1469.47 720.043 1472.69 Q716.941 1475.88 711.293 1481.64 Z" fill="#000000" fill-rule="nonzero" fill-opacity="1" /><path clip-path="url(#clip170)" d="M747.427 1454.1 Q743.816 1454.1 741.988 1457.66 Q740.182 1461.2 740.182 1468.33 Q740.182 1475.44 741.988 1479.01 Q743.816 1482.55 747.427 1482.55 Q751.062 1482.55 752.867 1479.01 Q754.696 1475.44 754.696 1468.33 Q754.696 1461.2 752.867 1457.66 Q751.062 1454.1 747.427 1454.1 M747.427 1450.39 Q753.238 1450.39 756.293 1455 Q759.372 1459.58 759.372 1468.33 Q759.372 1477.06 756.293 1481.67 Q753.238 1486.25 747.427 1486.25 Q741.617 1486.25 738.539 1481.67 Q735.483 1477.06 735.483 1468.33 Q735.483 1459.58 738.539 1455 Q741.617 1450.39 747.427 1450.39 Z" fill="#000000" fill-rule="nonzero" fill-opacity="1" /><path clip-path="url(#clip170)" d="M764.835 1470.7 L777.311 1470.7 L777.311 1474.49 L764.835 1474.49 L764.835 1470.7 Z" fill="#000000" fill-rule="nonzero" fill-opacity="1" /><path clip-path="url(#clip170)" d="M794.696 1454.1 Q791.085 1454.1 789.256 1457.66 Q787.45 1461.2 787.45 1468.33 Q787.45 1475.44 789.256 1479.01 Q791.085 1482.55 794.696 1482.55 Q798.33 1482.55 800.135 1479.01 Q801.964 1475.44 801.964 1468.33 Q801.964 1461.2 800.135 1457.66 Q798.33 1454.1 794.696 1454.1 M794.696 1450.39 Q800.506 1450.39 803.561 1455 Q806.64 1459.58 806.64 1468.33 Q806.64 1477.06 803.561 1481.67 Q800.506 1486.25 794.696 1486.25 Q788.886 1486.25 785.807 1481.67 Q782.751 1477.06 782.751 1468.33 Q782.751 1459.58 785.807 1455 Q788.886 1450.39 794.696 1450.39 Z" fill="#000000" fill-rule="nonzero" fill-opacity="1" /><path clip-path="url(#clip170)" d="M815.668 1481.64 L823.307 1481.64 L823.307 1455.28 L814.996 1456.95 L814.996 1452.69 L823.26 1451.02 L827.936 1451.02 L827.936 1481.64 L835.575 1481.64 L835.575 1485.58 L815.668 1485.58 L815.668 1481.64 Z" fill="#000000" fill-rule="nonzero" fill-opacity="1" /><path clip-path="url(#clip170)" d="M842.265 1470.7 L854.742 1470.7 L854.742 1474.49 L842.265 1474.49 L842.265 1470.7 Z" fill="#000000" fill-rule="nonzero" fill-opacity="1" /><path clip-path="url(#clip170)" d="M872.126 1454.1 Q868.515 1454.1 866.686 1457.66 Q864.88 1461.2 864.88 1468.33 Q864.88 1475.44 866.686 1479.01 Q868.515 1482.55 872.126 1482.55 Q875.76 1482.55 877.566 1479.01 Q879.394 1475.44 879.394 1468.33 Q879.394 1461.2 877.566 1457.66 Q875.76 1454.1 872.126 1454.1 M872.126 1450.39 Q877.936 1450.39 880.991 1455 Q884.07 1459.58 884.07 1468.33 Q884.07 1477.06 880.991 1481.67 Q877.936 1486.25 872.126 1486.25 Q866.316 1486.25 863.237 1481.67 Q860.181 1477.06 860.181 1468.33 Q860.181 1459.58 863.237 1455 Q866.316 1450.39 872.126 1450.39 Z" fill="#000000" fill-rule="nonzero" fill-opacity="1" /><path clip-path="url(#clip170)" d="M893.098 1481.64 L900.737 1481.64 L900.737 1455.28 L892.427 1456.95 L892.427 1452.69 L900.69 1451.02 L905.366 1451.02 L905.366 1481.64 L913.005 1481.64 L913.005 1485.58 L893.098 1485.58 L893.098 1481.64 Z" fill="#000000" fill-rule="nonzero" fill-opacity="1" /><path clip-path="url(#clip170)" d="M1156.92 1481.64 L1173.24 1481.64 L1173.24 1485.58 L1151.3 1485.58 L1151.3 1481.64 Q1153.96 1478.89 1158.54 1474.26 Q1163.15 1469.61 1164.33 1468.27 Q1166.57 1465.74 1167.45 1464.01 Q1168.36 1462.25 1168.36 1460.56 Q1168.36 1457.8 1166.41 1456.07 Q1164.49 1454.33 1161.39 1454.33 Q1159.19 1454.33 1156.73 1455.09 Q1154.3 1455.86 1151.53 1457.41 L1151.53 1452.69 Q1154.35 1451.55 1156.8 1450.97 Q1159.26 1450.39 1161.3 1450.39 Q1166.67 1450.39 1169.86 1453.08 Q1173.05 1455.77 1173.05 1460.26 Q1173.05 1462.39 1172.24 1464.31 Q1171.46 1466.2 1169.35 1468.8 Q1168.77 1469.47 1165.67 1472.69 Q1162.57 1475.88 1156.92 1481.64 Z" fill="#000000" fill-rule="nonzero" fill-opacity="1" /><path clip-path="url(#clip170)" d="M1193.05 1454.1 Q1189.44 1454.1 1187.61 1457.66 Q1185.81 1461.2 1185.81 1468.33 Q1185.81 1475.44 1187.61 1479.01 Q1189.44 1482.55 1193.05 1482.55 Q1196.69 1482.55 1198.49 1479.01 Q1200.32 1475.44 1200.32 1468.33 Q1200.32 1461.2 1198.49 1457.66 Q1196.69 1454.1 1193.05 1454.1 M1193.05 1450.39 Q1198.86 1450.39 1201.92 1455 Q1205 1459.58 1205 1468.33 Q1205 1477.06 1201.92 1481.67 Q1198.86 1486.25 1193.05 1486.25 Q1187.24 1486.25 1184.17 1481.67 Q1181.11 1477.06 1181.11 1468.33 Q1181.11 1459.58 1184.17 1455 Q1187.24 1450.39 1193.05 1450.39 Z" fill="#000000" fill-rule="nonzero" fill-opacity="1" /><path clip-path="url(#clip170)" d="M1217.24 1481.64 L1233.56 1481.64 L1233.56 1485.58 L1211.62 1485.58 L1211.62 1481.64 Q1214.28 1478.89 1218.86 1474.26 Q1223.47 1469.61 1224.65 1468.27 Q1226.9 1465.74 1227.78 1464.01 Q1228.68 1462.25 1228.68 1460.56 Q1228.68 1457.8 1226.73 1456.07 Q1224.81 1454.33 1221.71 1454.33 Q1219.51 1454.33 1217.06 1455.09 Q1214.63 1455.86 1211.85 1457.41 L1211.85 1452.69 Q1214.67 1451.55 1217.13 1450.97 Q1219.58 1450.39 1221.62 1450.39 Q1226.99 1450.39 1230.18 1453.08 Q1233.38 1455.77 1233.38 1460.26 Q1233.38 1462.39 1232.57 1464.31 Q1231.78 1466.2 1229.67 1468.8 Q1229.1 1469.47 1225.99 1472.69 Q1222.89 1475.88 1217.24 1481.64 Z" fill="#000000" fill-rule="nonzero" fill-opacity="1" /><path clip-path="url(#clip170)" d="M1244.19 1481.64 L1251.83 1481.64 L1251.83 1455.28 L1243.52 1456.95 L1243.52 1452.69 L1251.78 1451.02 L1256.46 1451.02 L1256.46 1481.64 L1264.1 1481.64 L1264.1 1485.58 L1244.19 1485.58 L1244.19 1481.64 Z" fill="#000000" fill-rule="nonzero" fill-opacity="1" /><path clip-path="url(#clip170)" d="M1270.79 1470.7 L1283.26 1470.7 L1283.26 1474.49 L1270.79 1474.49 L1270.79 1470.7 Z" fill="#000000" fill-rule="nonzero" fill-opacity="1" /><path clip-path="url(#clip170)" d="M1300.65 1454.1 Q1297.04 1454.1 1295.21 1457.66 Q1293.4 1461.2 1293.4 1468.33 Q1293.4 1475.44 1295.21 1479.01 Q1297.04 1482.55 1300.65 1482.55 Q1304.28 1482.55 1306.09 1479.01 Q1307.91 1475.44 1307.91 1468.33 Q1307.91 1461.2 1306.09 1457.66 Q1304.28 1454.1 1300.65 1454.1 M1300.65 1450.39 Q1306.46 1450.39 1309.51 1455 Q1312.59 1459.58 1312.59 1468.33 Q1312.59 1477.06 1309.51 1481.67 Q1306.46 1486.25 1300.65 1486.25 Q1294.84 1486.25 1291.76 1481.67 Q1288.7 1477.06 1288.7 1468.33 Q1288.7 1459.58 1291.76 1455 Q1294.84 1450.39 1300.65 1450.39 Z" fill="#000000" fill-rule="nonzero" fill-opacity="1" /><path clip-path="url(#clip170)" d="M1321.62 1481.64 L1329.26 1481.64 L1329.26 1455.28 L1320.95 1456.95 L1320.95 1452.69 L1329.21 1451.02 L1333.89 1451.02 L1333.89 1481.64 L1341.53 1481.64 L1341.53 1485.58 L1321.62 1485.58 L1321.62 1481.64 Z" fill="#000000" fill-rule="nonzero" fill-opacity="1" /><path clip-path="url(#clip170)" d="M1348.22 1470.7 L1360.69 1470.7 L1360.69 1474.49 L1348.22 1474.49 L1348.22 1470.7 Z" fill="#000000" fill-rule="nonzero" fill-opacity="1" /><path clip-path="url(#clip170)" d="M1378.08 1454.1 Q1374.47 1454.1 1372.64 1457.66 Q1370.83 1461.2 1370.83 1468.33 Q1370.83 1475.44 1372.64 1479.01 Q1374.47 1482.55 1378.08 1482.55 Q1381.71 1482.55 1383.52 1479.01 Q1385.34 1475.44 1385.34 1468.33 Q1385.34 1461.2 1383.52 1457.66 Q1381.71 1454.1 1378.08 1454.1 M1378.08 1450.39 Q1383.89 1450.39 1386.94 1455 Q1390.02 1459.58 1390.02 1468.33 Q1390.02 1477.06 1386.94 1481.67 Q1383.89 1486.25 1378.08 1486.25 Q1372.27 1486.25 1369.19 1481.67 Q1366.13 1477.06 1366.13 1468.33 Q1366.13 1459.58 1369.19 1455 Q1372.27 1450.39 1378.08 1450.39 Z" fill="#000000" fill-rule="nonzero" fill-opacity="1" /><path clip-path="url(#clip170)" d="M1399.05 1481.64 L1406.69 1481.64 L1406.69 1455.28 L1398.38 1456.95 L1398.38 1452.69 L1406.64 1451.02 L1411.32 1451.02 L1411.32 1481.64 L1418.96 1481.64 L1418.96 1485.58 L1399.05 1485.58 L1399.05 1481.64 Z" fill="#000000" fill-rule="nonzero" fill-opacity="1" /><path clip-path="url(#clip170)" d="M1661.49 1481.64 L1677.81 1481.64 L1677.81 1485.58 L1655.86 1485.58 L1655.86 1481.64 Q1658.53 1478.89 1663.11 1474.26 Q1667.72 1469.61 1668.9 1468.27 Q1671.14 1465.74 1672.02 1464.01 Q1672.92 1462.25 1672.92 1460.56 Q1672.92 1457.8 1670.98 1456.07 Q1669.06 1454.33 1665.96 1454.33 Q1663.76 1454.33 1661.3 1455.09 Q1658.87 1455.86 1656.09 1457.41 L1656.09 1452.69 Q1658.92 1451.55 1661.37 1450.97 Q1663.83 1450.39 1665.86 1450.39 Q1671.23 1450.39 1674.43 1453.08 Q1677.62 1455.77 1677.62 1460.26 Q1677.62 1462.39 1676.81 1464.31 Q1676.03 1466.2 1673.92 1468.8 Q1673.34 1469.47 1670.24 1472.69 Q1667.14 1475.88 1661.49 1481.64 Z" fill="#000000" fill-rule="nonzero" fill-opacity="1" /><path clip-path="url(#clip170)" d="M1697.62 1454.1 Q1694.01 1454.1 1692.18 1457.66 Q1690.38 1461.2 1690.38 1468.33 Q1690.38 1475.44 1692.18 1479.01 Q1694.01 1482.55 1697.62 1482.55 Q1701.26 1482.55 1703.06 1479.01 Q1704.89 1475.44 1704.89 1468.33 Q1704.89 1461.2 1703.06 1457.66 Q1701.26 1454.1 1697.62 1454.1 M1697.62 1450.39 Q1703.43 1450.39 1706.49 1455 Q1709.57 1459.58 1709.57 1468.33 Q1709.57 1477.06 1706.49 1481.67 Q1703.43 1486.25 1697.62 1486.25 Q1691.81 1486.25 1688.73 1481.67 Q1685.68 1477.06 1685.68 1468.33 Q1685.68 1459.58 1688.73 1455 Q1691.81 1450.39 1697.62 1450.39 Z" fill="#000000" fill-rule="nonzero" fill-opacity="1" /><path clip-path="url(#clip170)" d="M1721.81 1481.64 L1738.13 1481.64 L1738.13 1485.58 L1716.19 1485.58 L1716.19 1481.64 Q1718.85 1478.89 1723.43 1474.26 Q1728.04 1469.61 1729.22 1468.27 Q1731.46 1465.74 1732.34 1464.01 Q1733.25 1462.25 1733.25 1460.56 Q1733.25 1457.8 1731.3 1456.07 Q1729.38 1454.33 1726.28 1454.33 Q1724.08 1454.33 1721.63 1455.09 Q1719.2 1455.86 1716.42 1457.41 L1716.42 1452.69 Q1719.24 1451.55 1721.7 1450.97 Q1724.15 1450.39 1726.19 1450.39 Q1731.56 1450.39 1734.75 1453.08 Q1737.95 1455.77 1737.95 1460.26 Q1737.95 1462.39 1737.14 1464.31 Q1736.35 1466.2 1734.24 1468.8 Q1733.66 1469.47 1730.56 1472.69 Q1727.46 1475.88 1721.81 1481.64 Z" fill="#000000" fill-rule="nonzero" fill-opacity="1" /><path clip-path="url(#clip170)" d="M1751.97 1481.64 L1768.29 1481.64 L1768.29 1485.58 L1746.35 1485.58 L1746.35 1481.64 Q1749.01 1478.89 1753.59 1474.26 Q1758.2 1469.61 1759.38 1468.27 Q1761.63 1465.74 1762.51 1464.01 Q1763.41 1462.25 1763.41 1460.56 Q1763.41 1457.8 1761.46 1456.07 Q1759.54 1454.33 1756.44 1454.33 Q1754.24 1454.33 1751.79 1455.09 Q1749.36 1455.86 1746.58 1457.41 L1746.58 1452.69 Q1749.4 1451.55 1751.86 1450.97 Q1754.31 1450.39 1756.35 1450.39 Q1761.72 1450.39 1764.91 1453.08 Q1768.11 1455.77 1768.11 1460.26 Q1768.11 1462.39 1767.3 1464.31 Q1766.51 1466.2 1764.4 1468.8 Q1763.83 1469.47 1760.72 1472.69 Q1757.62 1475.88 1751.97 1481.64 Z" fill="#000000" fill-rule="nonzero" fill-opacity="1" /><path clip-path="url(#clip170)" d="M1775.35 1470.7 L1787.83 1470.7 L1787.83 1474.49 L1775.35 1474.49 L1775.35 1470.7 Z" fill="#000000" fill-rule="nonzero" fill-opacity="1" /><path clip-path="url(#clip170)" d="M1805.21 1454.1 Q1801.6 1454.1 1799.77 1457.66 Q1797.97 1461.2 1797.97 1468.33 Q1797.97 1475.44 1799.77 1479.01 Q1801.6 1482.55 1805.21 1482.55 Q1808.85 1482.55 1810.65 1479.01 Q1812.48 1475.44 1812.48 1468.33 Q1812.48 1461.2 1810.65 1457.66 Q1808.85 1454.1 1805.21 1454.1 M1805.21 1450.39 Q1811.02 1450.39 1814.08 1455 Q1817.16 1459.58 1817.16 1468.33 Q1817.16 1477.06 1814.08 1481.67 Q1811.02 1486.25 1805.21 1486.25 Q1799.4 1486.25 1796.33 1481.67 Q1793.27 1477.06 1793.27 1468.33 Q1793.27 1459.58 1796.33 1455 Q1799.4 1450.39 1805.21 1450.39 Z" fill="#000000" fill-rule="nonzero" fill-opacity="1" /><path clip-path="url(#clip170)" d="M1826.19 1481.64 L1833.83 1481.64 L1833.83 1455.28 L1825.52 1456.95 L1825.52 1452.69 L1833.78 1451.02 L1838.45 1451.02 L1838.45 1481.64 L1846.09 1481.64 L1846.09 1485.58 L1826.19 1485.58 L1826.19 1481.64 Z" fill="#000000" fill-rule="nonzero" fill-opacity="1" /><path clip-path="url(#clip170)" d="M1852.78 1470.7 L1865.26 1470.7 L1865.26 1474.49 L1852.78 1474.49 L1852.78 1470.7 Z" fill="#000000" fill-rule="nonzero" fill-opacity="1" /><path clip-path="url(#clip170)" d="M1882.64 1454.1 Q1879.03 1454.1 1877.2 1457.66 Q1875.4 1461.2 1875.4 1468.33 Q1875.4 1475.44 1877.2 1479.01 Q1879.03 1482.55 1882.64 1482.55 Q1886.28 1482.55 1888.08 1479.01 Q1889.91 1475.44 1889.91 1468.33 Q1889.91 1461.2 1888.08 1457.66 Q1886.28 1454.1 1882.64 1454.1 M1882.64 1450.39 Q1888.45 1450.39 1891.51 1455 Q1894.59 1459.58 1894.59 1468.33 Q1894.59 1477.06 1891.51 1481.67 Q1888.45 1486.25 1882.64 1486.25 Q1876.83 1486.25 1873.76 1481.67 Q1870.7 1477.06 1870.7 1468.33 Q1870.7 1459.58 1873.76 1455 Q1876.83 1450.39 1882.64 1450.39 Z" fill="#000000" fill-rule="nonzero" fill-opacity="1" /><path clip-path="url(#clip170)" d="M1903.62 1481.64 L1911.26 1481.64 L1911.26 1455.28 L1902.95 1456.95 L1902.95 1452.69 L1911.21 1451.02 L1915.89 1451.02 L1915.89 1481.64 L1923.52 1481.64 L1923.52 1485.58 L1903.62 1485.58 L1903.62 1481.64 Z" fill="#000000" fill-rule="nonzero" fill-opacity="1" /><path clip-path="url(#clip170)" d="M2166.06 1481.64 L2182.38 1481.64 L2182.38 1485.58 L2160.43 1485.58 L2160.43 1481.64 Q2163.09 1478.89 2167.68 1474.26 Q2172.28 1469.61 2173.46 1468.27 Q2175.71 1465.74 2176.59 1464.01 Q2177.49 1462.25 2177.49 1460.56 Q2177.49 1457.8 2175.55 1456.07 Q2173.63 1454.33 2170.52 1454.33 Q2168.32 1454.33 2165.87 1455.09 Q2163.44 1455.86 2160.66 1457.41 L2160.66 1452.69 Q2163.49 1451.55 2165.94 1450.97 Q2168.39 1450.39 2170.43 1450.39 Q2175.8 1450.39 2179 1453.08 Q2182.19 1455.77 2182.19 1460.26 Q2182.19 1462.39 2181.38 1464.31 Q2180.59 1466.2 2178.49 1468.8 Q2177.91 1469.47 2174.81 1472.69 Q2171.7 1475.88 2166.06 1481.64 Z" fill="#000000" fill-rule="nonzero" fill-opacity="1" /><path clip-path="url(#clip170)" d="M2202.19 1454.1 Q2198.58 1454.1 2196.75 1457.66 Q2194.95 1461.2 2194.95 1468.33 Q2194.95 1475.44 2196.75 1479.01 Q2198.58 1482.55 2202.19 1482.55 Q2205.82 1482.55 2207.63 1479.01 Q2209.46 1475.44 2209.46 1468.33 Q2209.46 1461.2 2207.63 1457.66 Q2205.82 1454.1 2202.19 1454.1 M2202.19 1450.39 Q2208 1450.39 2211.06 1455 Q2214.13 1459.58 2214.13 1468.33 Q2214.13 1477.06 2211.06 1481.67 Q2208 1486.25 2202.19 1486.25 Q2196.38 1486.25 2193.3 1481.67 Q2190.25 1477.06 2190.25 1468.33 Q2190.25 1459.58 2193.3 1455 Q2196.38 1450.39 2202.19 1450.39 Z" fill="#000000" fill-rule="nonzero" fill-opacity="1" /><path clip-path="url(#clip170)" d="M2226.38 1481.64 L2242.7 1481.64 L2242.7 1485.58 L2220.76 1485.58 L2220.76 1481.64 Q2223.42 1478.89 2228 1474.26 Q2232.61 1469.61 2233.79 1468.27 Q2236.03 1465.74 2236.91 1464.01 Q2237.82 1462.25 2237.82 1460.56 Q2237.82 1457.8 2235.87 1456.07 Q2233.95 1454.33 2230.85 1454.33 Q2228.65 1454.33 2226.19 1455.09 Q2223.76 1455.86 2220.99 1457.41 L2220.99 1452.69 Q2223.81 1451.55 2226.26 1450.97 Q2228.72 1450.39 2230.76 1450.39 Q2236.13 1450.39 2239.32 1453.08 Q2242.51 1455.77 2242.51 1460.26 Q2242.51 1462.39 2241.7 1464.31 Q2240.92 1466.2 2238.81 1468.8 Q2238.23 1469.47 2235.13 1472.69 Q2232.03 1475.88 2226.38 1481.64 Z" fill="#000000" fill-rule="nonzero" fill-opacity="1" /><path clip-path="url(#clip170)" d="M2266.68 1466.95 Q2270.04 1467.66 2271.91 1469.93 Q2273.81 1472.2 2273.81 1475.53 Q2273.81 1480.65 2270.29 1483.45 Q2266.77 1486.25 2260.29 1486.25 Q2258.12 1486.25 2255.8 1485.81 Q2253.51 1485.39 2251.06 1484.54 L2251.06 1480.02 Q2253 1481.16 2255.32 1481.74 Q2257.63 1482.32 2260.15 1482.32 Q2264.55 1482.32 2266.84 1480.58 Q2269.16 1478.84 2269.16 1475.53 Q2269.16 1472.48 2267 1470.77 Q2264.88 1469.03 2261.06 1469.03 L2257.03 1469.03 L2257.03 1465.19 L2261.24 1465.19 Q2264.69 1465.19 2266.52 1463.82 Q2268.35 1462.43 2268.35 1459.84 Q2268.35 1457.18 2266.45 1455.77 Q2264.57 1454.33 2261.06 1454.33 Q2259.13 1454.33 2256.94 1454.75 Q2254.74 1455.16 2252.1 1456.04 L2252.1 1451.88 Q2254.76 1451.14 2257.07 1450.77 Q2259.41 1450.39 2261.47 1450.39 Q2266.8 1450.39 2269.9 1452.83 Q2273 1455.23 2273 1459.35 Q2273 1462.22 2271.36 1464.21 Q2269.71 1466.18 2266.68 1466.95 Z" fill="#000000" fill-rule="nonzero" fill-opacity="1" /><path clip-path="url(#clip170)" d="M2279.92 1470.7 L2292.4 1470.7 L2292.4 1474.49 L2279.92 1474.49 L2279.92 1470.7 Z" fill="#000000" fill-rule="nonzero" fill-opacity="1" /><path clip-path="url(#clip170)" d="M2309.78 1454.1 Q2306.17 1454.1 2304.34 1457.66 Q2302.54 1461.2 2302.54 1468.33 Q2302.54 1475.44 2304.34 1479.01 Q2306.17 1482.55 2309.78 1482.55 Q2313.42 1482.55 2315.22 1479.01 Q2317.05 1475.44 2317.05 1468.33 Q2317.05 1461.2 2315.22 1457.66 Q2313.42 1454.1 2309.78 1454.1 M2309.78 1450.39 Q2315.59 1450.39 2318.65 1455 Q2321.73 1459.58 2321.73 1468.33 Q2321.73 1477.06 2318.65 1481.67 Q2315.59 1486.25 2309.78 1486.25 Q2303.97 1486.25 2300.89 1481.67 Q2297.84 1477.06 2297.84 1468.33 Q2297.84 1459.58 2300.89 1455 Q2303.97 1450.39 2309.78 1450.39 Z" fill="#000000" fill-rule="nonzero" fill-opacity="1" /><path clip-path="url(#clip170)" d="M2330.75 1481.64 L2338.39 1481.64 L2338.39 1455.28 L2330.08 1456.95 L2330.08 1452.69 L2338.35 1451.02 L2343.02 1451.02 L2343.02 1481.64 L2350.66 1481.64 L2350.66 1485.58 L2330.75 1485.58 L2330.75 1481.64 Z" fill="#000000" fill-rule="nonzero" fill-opacity="1" /><path clip-path="url(#clip170)" d="M2357.35 1470.7 L2369.83 1470.7 L2369.83 1474.49 L2357.35 1474.49 L2357.35 1470.7 Z" fill="#000000" fill-rule="nonzero" fill-opacity="1" /><path clip-path="url(#clip170)" d="M2387.21 1454.1 Q2383.6 1454.1 2381.77 1457.66 Q2379.97 1461.2 2379.97 1468.33 Q2379.97 1475.44 2381.77 1479.01 Q2383.6 1482.55 2387.21 1482.55 Q2390.85 1482.55 2392.65 1479.01 Q2394.48 1475.44 2394.48 1468.33 Q2394.48 1461.2 2392.65 1457.66 Q2390.85 1454.1 2387.21 1454.1 M2387.21 1450.39 Q2393.02 1450.39 2396.08 1455 Q2399.16 1459.58 2399.16 1468.33 Q2399.16 1477.06 2396.08 1481.67 Q2393.02 1486.25 2387.21 1486.25 Q2381.4 1486.25 2378.32 1481.67 Q2375.27 1477.06 2375.27 1468.33 Q2375.27 1459.58 2378.32 1455 Q2381.4 1450.39 2387.21 1450.39 Z" fill="#000000" fill-rule="nonzero" fill-opacity="1" /><path clip-path="url(#clip170)" d="M2408.18 1481.64 L2415.82 1481.64 L2415.82 1455.28 L2407.51 1456.95 L2407.51 1452.69 L2415.78 1451.02 L2420.45 1451.02 L2420.45 1481.64 L2428.09 1481.64 L2428.09 1485.58 L2408.18 1485.58 L2408.18 1481.64 Z" fill="#000000" fill-rule="nonzero" fill-opacity="1" /><path clip-path="url(#clip170)" d="M1218.73 1525.81 L1218.73 1562.76 L1226.5 1562.76 Q1236.33 1562.76 1240.88 1558.3 Q1245.47 1553.85 1245.47 1544.24 Q1245.47 1534.69 1240.88 1530.26 Q1236.33 1525.81 1226.5 1525.81 L1218.73 1525.81 M1212.3 1520.52 L1225.51 1520.52 Q1239.32 1520.52 1245.79 1526.28 Q1252.25 1532.01 1252.25 1544.24 Q1252.25 1556.52 1245.75 1562.28 Q1239.26 1568.04 1225.51 1568.04 L1212.3 1568.04 L1212.3 1520.52 Z" fill="#000000" fill-rule="nonzero" fill-opacity="1" /><path clip-path="url(#clip170)" d="M1278.44 1550.12 Q1271.34 1550.12 1268.61 1551.75 Q1265.87 1553.37 1265.87 1557.29 Q1265.87 1560.4 1267.91 1562.25 Q1269.98 1564.07 1273.51 1564.07 Q1278.38 1564.07 1281.31 1560.63 Q1284.27 1557.16 1284.27 1551.43 L1284.27 1550.12 L1278.44 1550.12 M1290.12 1547.71 L1290.12 1568.04 L1284.27 1568.04 L1284.27 1562.63 Q1282.26 1565.88 1279.27 1567.44 Q1276.28 1568.97 1271.95 1568.97 Q1266.47 1568.97 1263.23 1565.91 Q1260.01 1562.82 1260.01 1557.67 Q1260.01 1551.65 1264.02 1548.6 Q1268.07 1545.54 1276.06 1545.54 L1284.27 1545.54 L1284.27 1544.97 Q1284.27 1540.93 1281.59 1538.73 Q1278.95 1536.5 1274.15 1536.5 Q1271.09 1536.5 1268.19 1537.23 Q1265.3 1537.97 1262.62 1539.43 L1262.62 1534.02 Q1265.84 1532.78 1268.86 1532.17 Q1271.89 1531.54 1274.75 1531.54 Q1282.48 1531.54 1286.3 1535.55 Q1290.12 1539.56 1290.12 1547.71 Z" fill="#000000" fill-rule="nonzero" fill-opacity="1" /><path clip-path="url(#clip170)" d="M1307.98 1522.27 L1307.98 1532.4 L1320.04 1532.4 L1320.04 1536.95 L1307.98 1536.95 L1307.98 1556.3 Q1307.98 1560.66 1309.16 1561.9 Q1310.37 1563.14 1314.03 1563.14 L1320.04 1563.14 L1320.04 1568.04 L1314.03 1568.04 Q1307.25 1568.04 1304.67 1565.53 Q1302.09 1562.98 1302.09 1556.3 L1302.09 1536.95 L1297.79 1536.95 L1297.79 1532.4 L1302.09 1532.4 L1302.09 1522.27 L1307.98 1522.27 Z" fill="#000000" fill-rule="nonzero" fill-opacity="1" /><path clip-path="url(#clip170)" d="M1358.24 1548.76 L1358.24 1551.62 L1331.31 1551.62 Q1331.69 1557.67 1334.94 1560.85 Q1338.22 1564 1344.04 1564 Q1347.41 1564 1350.57 1563.17 Q1353.75 1562.35 1356.87 1560.69 L1356.87 1566.23 Q1353.72 1567.57 1350.41 1568.27 Q1347.1 1568.97 1343.69 1568.97 Q1335.16 1568.97 1330.16 1564 Q1325.2 1559.04 1325.2 1550.57 Q1325.2 1541.82 1329.91 1536.69 Q1334.65 1531.54 1342.67 1531.54 Q1349.87 1531.54 1354.03 1536.18 Q1358.24 1540.8 1358.24 1548.76 M1352.38 1547.04 Q1352.32 1542.23 1349.67 1539.37 Q1347.06 1536.5 1342.74 1536.5 Q1337.83 1536.5 1334.87 1539.27 Q1331.95 1542.04 1331.5 1547.07 L1352.38 1547.04 Z" fill="#000000" fill-rule="nonzero" fill-opacity="1" /><polyline clip-path="url(#clip170)" style="stroke:#000000; stroke-linecap:round; stroke-linejoin:round; stroke-width:4; stroke-opacity:1; fill:none" points="217.783,1423.18 217.783,47.2441 "/>
<polyline clip-path="url(#clip170)" style="stroke:#000000; stroke-linecap:round; stroke-linejoin:round; stroke-width:4; stroke-opacity:1; fill:none" points="217.783,1378.7 236.681,1378.7 "/>
<polyline clip-path="url(#clip170)" style="stroke:#000000; stroke-linecap:round; stroke-linejoin:round; stroke-width:4; stroke-opacity:1; fill:none" points="217.783,1107.69 236.681,1107.69 "/>
<polyline clip-path="url(#clip170)" style="stroke:#000000; stroke-linecap:round; stroke-linejoin:round; stroke-width:4; stroke-opacity:1; fill:none" points="217.783,836.669 236.681,836.669 "/>
<polyline clip-path="url(#clip170)" style="stroke:#000000; stroke-linecap:round; stroke-linejoin:round; stroke-width:4; stroke-opacity:1; fill:none" points="217.783,565.652 236.681,565.652 "/>
<polyline clip-path="url(#clip170)" style="stroke:#000000; stroke-linecap:round; stroke-linejoin:round; stroke-width:4; stroke-opacity:1; fill:none" points="217.783,294.636 236.681,294.636 "/>
<path clip-path="url(#clip170)" d="M115.418 1392.05 L123.056 1392.05 L123.056 1365.68 L114.746 1367.35 L114.746 1363.09 L123.01 1361.42 L127.686 1361.42 L127.686 1392.05 L135.325 1392.05 L135.325 1395.98 L115.418 1395.98 L115.418 1392.05 Z" fill="#000000" fill-rule="nonzero" fill-opacity="1" /><path clip-path="url(#clip170)" d="M144.769 1390.1 L149.653 1390.1 L149.653 1395.98 L144.769 1395.98 L144.769 1390.1 Z" fill="#000000" fill-rule="nonzero" fill-opacity="1" /><path clip-path="url(#clip170)" d="M169.839 1364.5 Q166.227 1364.5 164.399 1368.07 Q162.593 1371.61 162.593 1378.74 Q162.593 1385.84 164.399 1389.41 Q166.227 1392.95 169.839 1392.95 Q173.473 1392.95 175.278 1389.41 Q177.107 1385.84 177.107 1378.74 Q177.107 1371.61 175.278 1368.07 Q173.473 1364.5 169.839 1364.5 M169.839 1360.8 Q175.649 1360.8 178.704 1365.4 Q181.783 1369.99 181.783 1378.74 Q181.783 1387.46 178.704 1392.07 Q175.649 1396.65 169.839 1396.65 Q164.028 1396.65 160.95 1392.07 Q157.894 1387.46 157.894 1378.74 Q157.894 1369.99 160.95 1365.4 Q164.028 1360.8 169.839 1360.8 Z" fill="#000000" fill-rule="nonzero" fill-opacity="1" /><path clip-path="url(#clip170)" d="M117.015 1121.03 L124.654 1121.03 L124.654 1094.66 L116.343 1096.33 L116.343 1092.07 L124.607 1090.41 L129.283 1090.41 L129.283 1121.03 L136.922 1121.03 L136.922 1124.97 L117.015 1124.97 L117.015 1121.03 Z" fill="#000000" fill-rule="nonzero" fill-opacity="1" /><path clip-path="url(#clip170)" d="M146.366 1119.09 L151.251 1119.09 L151.251 1124.97 L146.366 1124.97 L146.366 1119.09 Z" fill="#000000" fill-rule="nonzero" fill-opacity="1" /><path clip-path="url(#clip170)" d="M165.464 1121.03 L181.783 1121.03 L181.783 1124.97 L159.839 1124.97 L159.839 1121.03 Q162.501 1118.28 167.084 1113.65 Q171.69 1108.99 172.871 1107.65 Q175.116 1105.13 175.996 1103.39 Q176.899 1101.63 176.899 1099.94 Q176.899 1097.19 174.954 1095.45 Q173.033 1093.72 169.931 1093.72 Q167.732 1093.72 165.278 1094.48 Q162.848 1095.24 160.07 1096.79 L160.07 1092.07 Q162.894 1090.94 165.348 1090.36 Q167.802 1089.78 169.839 1089.78 Q175.209 1089.78 178.403 1092.47 Q181.598 1095.15 181.598 1099.64 Q181.598 1101.77 180.788 1103.69 Q180.001 1105.59 177.894 1108.18 Q177.315 1108.85 174.214 1112.07 Q171.112 1115.27 165.464 1121.03 Z" fill="#000000" fill-rule="nonzero" fill-opacity="1" /><path clip-path="url(#clip170)" d="M114.931 850.014 L122.57 850.014 L122.57 823.648 L114.26 825.315 L114.26 821.056 L122.524 819.389 L127.2 819.389 L127.2 850.014 L134.839 850.014 L134.839 853.949 L114.931 853.949 L114.931 850.014 Z" fill="#000000" fill-rule="nonzero" fill-opacity="1" /><path clip-path="url(#clip170)" d="M144.283 848.069 L149.167 848.069 L149.167 853.949 L144.283 853.949 L144.283 848.069 Z" fill="#000000" fill-rule="nonzero" fill-opacity="1" /><path clip-path="url(#clip170)" d="M172.2 823.463 L160.394 841.912 L172.2 841.912 L172.2 823.463 M170.973 819.389 L176.852 819.389 L176.852 841.912 L181.783 841.912 L181.783 845.801 L176.852 845.801 L176.852 853.949 L172.2 853.949 L172.2 845.801 L156.598 845.801 L156.598 841.287 L170.973 819.389 Z" fill="#000000" fill-rule="nonzero" fill-opacity="1" /><path clip-path="url(#clip170)" d="M115.256 578.997 L122.894 578.997 L122.894 552.632 L114.584 554.298 L114.584 550.039 L122.848 548.372 L127.524 548.372 L127.524 578.997 L135.163 578.997 L135.163 582.932 L115.256 582.932 L115.256 578.997 Z" fill="#000000" fill-rule="nonzero" fill-opacity="1" /><path clip-path="url(#clip170)" d="M144.607 577.053 L149.491 577.053 L149.491 582.932 L144.607 582.932 L144.607 577.053 Z" fill="#000000" fill-rule="nonzero" fill-opacity="1" /><path clip-path="url(#clip170)" d="M170.255 563.789 Q167.107 563.789 165.255 565.942 Q163.427 568.095 163.427 571.845 Q163.427 575.571 165.255 577.747 Q167.107 579.9 170.255 579.9 Q173.403 579.9 175.232 577.747 Q177.084 575.571 177.084 571.845 Q177.084 568.095 175.232 565.942 Q173.403 563.789 170.255 563.789 M179.538 549.136 L179.538 553.396 Q177.778 552.562 175.973 552.122 Q174.19 551.683 172.431 551.683 Q167.802 551.683 165.348 554.808 Q162.917 557.933 162.57 564.252 Q163.936 562.238 165.996 561.173 Q168.056 560.085 170.533 560.085 Q175.741 560.085 178.751 563.257 Q181.783 566.405 181.783 571.845 Q181.783 577.169 178.635 580.386 Q175.487 583.604 170.255 583.604 Q164.26 583.604 161.089 579.02 Q157.917 574.414 157.917 565.687 Q157.917 557.493 161.806 552.632 Q165.695 547.747 172.246 547.747 Q174.005 547.747 175.788 548.095 Q177.593 548.442 179.538 549.136 Z" fill="#000000" fill-rule="nonzero" fill-opacity="1" /><path clip-path="url(#clip170)" d="M115.51 307.981 L123.149 307.981 L123.149 281.615 L114.839 283.282 L114.839 279.023 L123.103 277.356 L127.779 277.356 L127.779 307.981 L135.417 307.981 L135.417 311.916 L115.51 311.916 L115.51 307.981 Z" fill="#000000" fill-rule="nonzero" fill-opacity="1" /><path clip-path="url(#clip170)" d="M144.862 306.036 L149.746 306.036 L149.746 311.916 L144.862 311.916 L144.862 306.036 Z" fill="#000000" fill-rule="nonzero" fill-opacity="1" /><path clip-path="url(#clip170)" d="M169.931 295.504 Q166.598 295.504 164.677 297.286 Q162.778 299.069 162.778 302.194 Q162.778 305.319 164.677 307.101 Q166.598 308.883 169.931 308.883 Q173.264 308.883 175.186 307.101 Q177.107 305.296 177.107 302.194 Q177.107 299.069 175.186 297.286 Q173.288 295.504 169.931 295.504 M165.255 293.513 Q162.246 292.772 160.556 290.712 Q158.89 288.652 158.89 285.689 Q158.89 281.546 161.829 279.138 Q164.792 276.731 169.931 276.731 Q175.093 276.731 178.033 279.138 Q180.973 281.546 180.973 285.689 Q180.973 288.652 179.283 290.712 Q177.616 292.772 174.63 293.513 Q178.01 294.3 179.885 296.592 Q181.783 298.884 181.783 302.194 Q181.783 307.217 178.704 309.902 Q175.649 312.587 169.931 312.587 Q164.214 312.587 161.135 309.902 Q158.079 307.217 158.079 302.194 Q158.079 298.884 159.978 296.592 Q161.876 294.3 165.255 293.513 M163.542 286.129 Q163.542 288.814 165.209 290.319 Q166.899 291.823 169.931 291.823 Q172.94 291.823 174.63 290.319 Q176.343 288.814 176.343 286.129 Q176.343 283.444 174.63 281.939 Q172.94 280.435 169.931 280.435 Q166.899 280.435 165.209 281.939 Q163.542 283.444 163.542 286.129 Z" fill="#000000" fill-rule="nonzero" fill-opacity="1" /><path clip-path="url(#clip170)" d="M20.1444 1028.58 L26.9239 1028.58 Q23.9002 1031.82 22.4043 1035.51 Q20.9083 1039.17 20.9083 1043.31 Q20.9083 1051.46 25.9054 1055.79 Q30.8707 1060.12 40.2919 1060.12 Q49.6813 1060.12 54.6784 1055.79 Q59.6436 1051.46 59.6436 1043.31 Q59.6436 1039.17 58.1477 1035.51 Q56.6518 1031.82 53.6281 1028.58 L60.3439 1028.58 Q62.6355 1031.95 63.7814 1035.74 Q64.9272 1039.49 64.9272 1043.69 Q64.9272 1054.48 58.3387 1060.69 Q51.7183 1066.9 40.2919 1066.9 Q28.8336 1066.9 22.2451 1060.69 Q15.6248 1054.48 15.6248 1043.69 Q15.6248 1039.43 16.7706 1035.67 Q17.8846 1031.89 20.1444 1028.58 Z" fill="#000000" fill-rule="nonzero" fill-opacity="1" /><path clip-path="url(#clip170)" d="M49.9359 1019.5 L28.3562 1019.5 L28.3562 1013.65 L49.7131 1013.65 Q54.7739 1013.65 57.3202 1011.67 Q59.8346 1009.7 59.8346 1005.75 Q59.8346 1001.01 56.8109 998.275 Q53.7872 995.506 48.5673 995.506 L28.3562 995.506 L28.3562 989.649 L64.0042 989.649 L64.0042 995.506 L58.5296 995.506 Q61.7762 997.638 63.3676 1000.47 Q64.9272 1003.27 64.9272 1007 Q64.9272 1013.14 61.1078 1016.32 Q57.2883 1019.5 49.9359 1019.5 M27.4968 1004.77 L27.4968 1004.77 Z" fill="#000000" fill-rule="nonzero" fill-opacity="1" /><path clip-path="url(#clip170)" d="M35.1993 949.832 Q31.2526 947.636 29.3747 944.58 Q27.4968 941.525 27.4968 937.387 Q27.4968 931.817 31.4117 928.793 Q35.2948 925.769 42.4881 925.769 L64.0042 925.769 L64.0042 931.658 L42.679 931.658 Q37.5546 931.658 35.072 933.472 Q32.5894 935.286 32.5894 939.01 Q32.5894 943.562 35.6131 946.203 Q38.6368 948.845 43.8567 948.845 L64.0042 948.845 L64.0042 954.733 L42.679 954.733 Q37.5228 954.733 35.072 956.548 Q32.5894 958.362 32.5894 962.149 Q32.5894 966.637 35.6449 969.279 Q38.6686 971.921 43.8567 971.921 L64.0042 971.921 L64.0042 977.809 L28.3562 977.809 L28.3562 971.921 L33.8944 971.921 Q30.616 969.916 29.0564 967.115 Q27.4968 964.314 27.4968 960.462 Q27.4968 956.579 29.4702 953.874 Q31.4436 951.137 35.1993 949.832 Z" fill="#000000" fill-rule="nonzero" fill-opacity="1" /><path clip-path="url(#clip170)" d="M35.1993 886.334 Q31.2526 884.138 29.3747 881.082 Q27.4968 878.027 27.4968 873.889 Q27.4968 868.319 31.4117 865.295 Q35.2948 862.271 42.4881 862.271 L64.0042 862.271 L64.0042 868.16 L42.679 868.16 Q37.5546 868.16 35.072 869.974 Q32.5894 871.788 32.5894 875.512 Q32.5894 880.064 35.6131 882.705 Q38.6368 885.347 43.8567 885.347 L64.0042 885.347 L64.0042 891.235 L42.679 891.235 Q37.5228 891.235 35.072 893.05 Q32.5894 894.864 32.5894 898.651 Q32.5894 903.139 35.6449 905.781 Q38.6686 908.423 43.8567 908.423 L64.0042 908.423 L64.0042 914.311 L28.3562 914.311 L28.3562 908.423 L33.8944 908.423 Q30.616 906.418 29.0564 903.617 Q27.4968 900.816 27.4968 896.965 Q27.4968 893.081 29.4702 890.376 Q31.4436 887.639 35.1993 886.334 Z" fill="#000000" fill-rule="nonzero" fill-opacity="1" /><path clip-path="url(#clip170)" d="M49.9359 851.195 L28.3562 851.195 L28.3562 845.339 L49.7131 845.339 Q54.7739 845.339 57.3202 843.365 Q59.8346 841.392 59.8346 837.445 Q59.8346 832.703 56.8109 829.966 Q53.7872 827.196 48.5673 827.196 L28.3562 827.196 L28.3562 821.34 L64.0042 821.34 L64.0042 827.196 L58.5296 827.196 Q61.7762 829.329 63.3676 832.162 Q64.9272 834.963 64.9272 838.687 Q64.9272 844.829 61.1078 848.012 Q57.2883 851.195 49.9359 851.195 M27.4968 836.459 L27.4968 836.459 Z" fill="#000000" fill-rule="nonzero" fill-opacity="1" /><path clip-path="url(#clip170)" d="M14.479 809.277 L14.479 803.421 L64.0042 803.421 L64.0042 809.277 L14.479 809.277 Z" fill="#000000" fill-rule="nonzero" fill-opacity="1" /><path clip-path="url(#clip170)" d="M46.0847 774.966 Q46.0847 782.064 47.7079 784.801 Q49.3312 787.538 53.2461 787.538 Q56.3653 787.538 58.2114 785.501 Q60.0256 783.432 60.0256 779.899 Q60.0256 775.029 56.5881 772.101 Q53.1188 769.141 47.3897 769.141 L46.0847 769.141 L46.0847 774.966 M43.6657 763.285 L64.0042 763.285 L64.0042 769.141 L58.5933 769.141 Q61.8398 771.146 63.3994 774.138 Q64.9272 777.13 64.9272 781.459 Q64.9272 786.933 61.8716 790.18 Q58.7843 793.395 53.6281 793.395 Q47.6125 793.395 44.5569 789.384 Q41.5014 785.342 41.5014 777.353 L41.5014 769.141 L40.9285 769.141 Q36.8862 769.141 34.6901 771.815 Q32.4621 774.457 32.4621 779.263 Q32.4621 782.318 33.1941 785.215 Q33.9262 788.111 35.3903 790.785 L29.9795 790.785 Q28.7381 787.57 28.1334 784.546 Q27.4968 781.522 27.4968 778.658 Q27.4968 770.924 31.5072 767.104 Q35.5176 763.285 43.6657 763.285 Z" fill="#000000" fill-rule="nonzero" fill-opacity="1" /><path clip-path="url(#clip170)" d="M18.2347 745.429 L28.3562 745.429 L28.3562 733.366 L32.9077 733.366 L32.9077 745.429 L52.2594 745.429 Q56.6199 745.429 57.8613 744.251 Q59.1026 743.042 59.1026 739.382 L59.1026 733.366 L64.0042 733.366 L64.0042 739.382 Q64.0042 746.161 61.4897 748.739 Q58.9434 751.317 52.2594 751.317 L32.9077 751.317 L32.9077 755.614 L28.3562 755.614 L28.3562 751.317 L18.2347 751.317 L18.2347 745.429 Z" fill="#000000" fill-rule="nonzero" fill-opacity="1" /><path clip-path="url(#clip170)" d="M28.3562 725.663 L28.3562 719.807 L64.0042 719.807 L64.0042 725.663 L28.3562 725.663 M14.479 725.663 L14.479 719.807 L21.895 719.807 L21.895 725.663 L14.479 725.663 Z" fill="#000000" fill-rule="nonzero" fill-opacity="1" /><path clip-path="url(#clip170)" d="M28.3562 711.754 L28.3562 705.548 L58.275 694.408 L28.3562 683.268 L28.3562 677.061 L64.0042 690.429 L64.0042 698.386 L28.3562 711.754 Z" fill="#000000" fill-rule="nonzero" fill-opacity="1" /><path clip-path="url(#clip170)" d="M44.7161 638.485 L47.5806 638.485 L47.5806 665.412 Q53.6281 665.03 56.8109 661.784 Q59.9619 658.505 59.9619 652.681 Q59.9619 649.307 59.1344 646.156 Q58.3069 642.973 56.6518 639.854 L62.1899 639.854 Q63.5267 643.005 64.227 646.315 Q64.9272 649.625 64.9272 653.031 Q64.9272 661.561 59.9619 666.558 Q54.9967 671.523 46.5303 671.523 Q37.7774 671.523 32.6531 666.812 Q27.4968 662.07 27.4968 654.049 Q27.4968 646.856 32.1438 642.686 Q36.7589 638.485 44.7161 638.485 M42.9973 644.342 Q38.1912 644.405 35.3266 647.047 Q32.4621 649.657 32.4621 653.986 Q32.4621 658.887 35.2312 661.847 Q38.0002 664.775 43.0292 665.221 L42.9973 644.342 Z" fill="#000000" fill-rule="nonzero" fill-opacity="1" /><path clip-path="url(#clip170)" d="M41.7242 585.363 Q42.4244 583.294 44.7161 581.353 Q47.0077 579.379 51.0181 577.406 L64.0042 570.881 L64.0042 577.788 L51.8138 583.867 Q47.0395 586.223 45.48 588.451 Q43.9204 590.647 43.9204 594.466 L43.9204 601.468 L64.0042 601.468 L64.0042 607.898 L16.4842 607.898 L16.4842 593.384 Q16.4842 585.236 19.8898 581.226 Q23.2955 577.215 30.1704 577.215 Q34.6582 577.215 37.6183 579.316 Q40.5784 581.385 41.7242 585.363 M21.7677 601.468 L38.6368 601.468 L38.6368 593.384 Q38.6368 588.737 36.5043 586.382 Q34.34 583.995 30.1704 583.995 Q26.0009 583.995 23.9002 586.382 Q21.7677 588.737 21.7677 593.384 L21.7677 601.468 Z" fill="#000000" fill-rule="nonzero" fill-opacity="1" /><path clip-path="url(#clip170)" d="M44.7161 535.297 L47.5806 535.297 L47.5806 562.224 Q53.6281 561.842 56.8109 558.595 Q59.9619 555.317 59.9619 549.492 Q59.9619 546.119 59.1344 542.968 Q58.3069 539.785 56.6518 536.666 L62.1899 536.666 Q63.5267 539.817 64.227 543.127 Q64.9272 546.437 64.9272 549.843 Q64.9272 558.373 59.9619 563.37 Q54.9967 568.335 46.5303 568.335 Q37.7774 568.335 32.6531 563.624 Q27.4968 558.882 27.4968 550.861 Q27.4968 543.668 32.1438 539.498 Q36.7589 535.297 44.7161 535.297 M42.9973 541.153 Q38.1912 541.217 35.3266 543.859 Q32.4621 546.469 32.4621 550.797 Q32.4621 555.699 35.2312 558.659 Q38.0002 561.587 43.0292 562.033 L42.9973 541.153 Z" fill="#000000" fill-rule="nonzero" fill-opacity="1" /><path clip-path="url(#clip170)" d="M18.2347 519.892 L28.3562 519.892 L28.3562 507.829 L32.9077 507.829 L32.9077 519.892 L52.2594 519.892 Q56.6199 519.892 57.8613 518.714 Q59.1026 517.505 59.1026 513.845 L59.1026 507.829 L64.0042 507.829 L64.0042 513.845 Q64.0042 520.624 61.4897 523.202 Q58.9434 525.78 52.2594 525.78 L32.9077 525.78 L32.9077 530.077 L28.3562 530.077 L28.3562 525.78 L18.2347 525.78 L18.2347 519.892 Z" fill="#000000" fill-rule="nonzero" fill-opacity="1" /><path clip-path="url(#clip170)" d="M49.9359 500.731 L28.3562 500.731 L28.3562 494.875 L49.7131 494.875 Q54.7739 494.875 57.3202 492.901 Q59.8346 490.928 59.8346 486.981 Q59.8346 482.239 56.8109 479.502 Q53.7872 476.732 48.5673 476.732 L28.3562 476.732 L28.3562 470.876 L64.0042 470.876 L64.0042 476.732 L58.5296 476.732 Q61.7762 478.865 63.3676 481.698 Q64.9272 484.499 64.9272 488.223 Q64.9272 494.365 61.1078 497.548 Q57.2883 500.731 49.9359 500.731 M27.4968 485.995 L27.4968 485.995 Z" fill="#000000" fill-rule="nonzero" fill-opacity="1" /><path clip-path="url(#clip170)" d="M33.8307 438.156 Q33.2578 439.143 33.0032 440.321 Q32.7167 441.466 32.7167 442.867 Q32.7167 447.832 35.9632 450.506 Q39.1779 453.148 45.2253 453.148 L64.0042 453.148 L64.0042 459.036 L28.3562 459.036 L28.3562 453.148 L33.8944 453.148 Q30.6479 451.301 29.0883 448.341 Q27.4968 445.381 27.4968 441.148 Q27.4968 440.543 27.5923 439.811 Q27.656 439.079 27.8151 438.188 L33.8307 438.156 Z" fill="#000000" fill-rule="nonzero" fill-opacity="1" /><path clip-path="url(#clip170)" d="M42.4881 403.527 L64.0042 403.527 L64.0042 409.383 L42.679 409.383 Q37.6183 409.383 35.1038 411.357 Q32.5894 413.33 32.5894 417.277 Q32.5894 422.019 35.6131 424.756 Q38.6368 427.494 43.8567 427.494 L64.0042 427.494 L64.0042 433.382 L28.3562 433.382 L28.3562 427.494 L33.8944 427.494 Q30.6797 425.393 29.0883 422.56 Q27.4968 419.696 27.4968 415.972 Q27.4968 409.829 31.3163 406.678 Q35.1038 403.527 42.4881 403.527 Z" fill="#000000" fill-rule="nonzero" fill-opacity="1" /><polyline clip-path="url(#clip172)" style="stroke:#009af9; stroke-linecap:round; stroke-linejoin:round; stroke-width:4; stroke-opacity:1; fill:none" points="278.207,1384.24 279.589,1369.01 283.736,1339.69 285.119,1327.74 286.501,1325.77 287.883,1313.91 289.266,1311.37 293.413,1340.91 294.795,1345.18 296.178,1337.85 297.56,1334.24 298.942,1329.46 304.472,1337.9 305.854,1333.38 307.237,1341.78 308.619,1332.78 312.766,1338.94 314.149,1331.34 315.531,1316.33 316.913,1313.89 318.296,1309.45 322.443,1297.13 323.825,1301.09 325.208,1300.83 326.59,1299.47 327.972,1296.19 332.119,1293.13 333.502,1288.53 334.884,1280.76 336.267,1278.92 337.649,1273.47 343.178,1270.95 344.561,1270.7 345.943,1266.93 347.326,1245.63 351.473,1245.9 352.855,1252.36 354.238,1265.59 355.62,1270.24 357.002,1263.72 361.149,1266.06 362.532,1253.89 363.914,1261.17 365.297,1260.38 366.679,1265.03 370.768,1262.41 372.151,1255.95 373.533,1247.46 374.916,1295.16 376.298,1273.79 380.445,1270.8 381.827,1269.55 383.21,1272.98 384.592,1269.59 385.975,1281.47 390.122,1275.99 391.504,1276.85 392.887,1285.65 394.269,1277.35 395.651,1273.46 399.798,1273.58 401.181,1279.02 402.563,1274.97 403.946,1262.61 405.328,1249.05 409.475,1246.92 410.857,1249.75 412.24,1244.6 413.622,1240.92 415.005,1238.05 419.152,1233.36 420.534,1236.26 421.916,1230.43 423.299,1228.78 428.828,1217.37 430.211,1214.35 431.593,1216.64 432.975,1213.81 434.358,1215.72 438.505,1215.11 439.887,1206.45 441.27,1215.44 442.652,1213.64 444.035,1195 448.182,1207.55 449.564,1216.03 450.946,1215.54 452.329,1213.72 453.711,1218.81 457.858,1249.25 459.241,1248.66 460.623,1240.94 462.005,1227.11 463.388,1223.68 467.535,1228.05 468.917,1213.22 470.3,1216.83 471.682,1239.07 473.064,1236.9 478.594,1260.1 479.976,1276.88 481.359,1218.15 482.741,1226.56 486.888,1213.13 488.271,1195.75 489.653,1197.34 491.035,1182.31 492.418,1167.08 496.565,1156.37 497.947,1154.99 499.33,1145.52 500.712,1139.88 502.094,1144.52 506.242,1143.87 507.624,1133.45 509.006,1124.29 510.389,1121.35 511.771,1128.62 515.918,1136.71 517.301,1143.8 518.683,1145.06 520.065,1139.56 521.448,1147.77 525.595,1133.89 526.977,1121.93 528.36,1109.31 531.124,1096.72 535.272,1109.54 536.654,1101.63 538.036,1090.68 539.419,1085.94 540.801,1070.67 544.948,1072.44 546.331,1055.16 547.713,1061.76 549.095,1071.66 550.478,1080.05 554.625,1097.97 556.007,1097.08 557.39,1082.79 558.772,1092.7 560.154,1066.53 564.301,1082.31 565.684,1099.87 567.066,1099.42 568.449,1104.1 569.831,1084.08 573.978,1110.41 575.36,1091.36 576.743,1089.66 578.125,1063.24 579.508,1069.28 583.655,1079.33 585.037,1074.86 586.42,1086.18 587.802,1084.81 589.184,1064 593.331,1041.07 594.714,1051.66 596.096,1040.55 597.479,1040.01 598.861,1061.04 603.008,1042.01 604.39,1053.33 605.773,1035.76 607.155,950.064 608.538,954.626 614.067,944.363 615.449,927.531 616.832,918.753 618.214,903.615 622.361,914.663 623.744,938.571 625.126,935.8 626.508,932.24 627.891,929.729 632.038,955.38 633.42,918.59 634.803,928.776 636.185,925.205 637.568,940.114 641.715,930.13 643.097,936.119 644.479,933.586 645.862,927.673 647.244,923.919 651.391,926.552 652.774,932.106 654.156,940.632 655.538,941.057 656.921,922.12 661.068,922.278 662.45,928.948 663.833,922.984 665.215,925.05 666.597,916.404 670.745,918.259 672.127,912.536 673.509,924.432 674.892,911.196 676.274,906.752 680.421,907.63 681.804,906.285 683.186,921.201 684.568,908.913 685.951,909.383 690.098,908.74 691.48,923.076 692.863,904.201 694.245,903.49 695.627,902.269 699.832,914.683 701.215,902.295 702.597,906.688 703.979,906.57 705.362,911.711 709.509,913.884 710.891,910.411 712.274,904.953 713.656,885.947 715.038,883.95 719.185,886.21 720.568,893.865 721.95,889.194 723.333,887.891 724.715,892.539 728.862,889.464 730.244,897.321 731.627,889.649 734.392,902.82 738.539,923.847 739.921,941.205 741.303,936.041 742.686,936.44 744.068,933.757 748.215,933.396 749.598,924.936 750.98,933.341 752.363,912.539 753.745,913.969 757.892,924.301 759.274,918.229 760.657,916.805 762.039,904.773 763.422,903.626 767.569,896.291 768.951,892.054 771.716,893.124 773.098,886.524 777.245,886.499 778.628,888.882 781.392,887.915 782.775,898.039 786.922,904.128 788.304,919.42 789.687,924.279 791.069,915.338 792.451,914.219 796.599,908.923 797.981,888.007 799.363,889.875 800.746,873.717 802.128,872.167 807.658,874.471 809.04,882.676 810.422,876.19 811.805,890.618 815.952,899.021 817.334,889.654 818.717,894.206 820.099,894.049 821.481,914.14 825.629,894.783 827.011,882.077 828.393,876.113 829.776,885.08 831.158,893.037 835.305,883.858 836.688,879.623 838.07,861.723 839.452,853.029 840.835,860.215 846.364,843.918 847.747,828.408 849.129,819.093 850.511,820.506 854.659,845.303 856.041,871.3 857.423,871.799 858.806,920.875 860.188,972.741 864.335,903.742 865.718,941.641 867.1,916.969 868.482,940.819 869.865,945.157 873.954,980.028 875.337,904.003 876.719,992.302 878.101,1156 879.484,1099.26 883.631,1276.28 885.013,1173.99 886.396,1320.88 887.778,1351.37 889.16,1348.19 893.308,1375.25 894.69,1220 896.072,1219.02 897.455,1187.13 898.837,1234.91 902.984,1208.3 904.367,1186.83 905.749,1182.26 907.131,1134.74 908.514,1137.22 912.661,1071.03 914.043,1070.56 915.426,1050.32 916.808,1008.26 922.337,1000.06 923.72,947.577 925.102,966.316 926.485,901.913 927.867,856.244 932.014,910.598 933.397,966.394 934.779,943.723 936.161,928.816 937.544,954.564 941.691,926.917 943.073,929.136 944.456,908.118 945.838,909.183 947.22,949.88 951.367,937.768 952.75,974.694 954.132,965.677 955.515,986.16 956.897,965.879 961.044,925.512 962.426,937.158 963.809,947.082 965.191,949.967 966.574,937.345 970.721,894.73 972.103,901.571 973.485,900.462 974.868,889.721 976.25,887.459 981.78,860.726 983.162,807.417 984.545,838.907 985.927,815.185 990.074,781.182 991.456,781.985 992.839,783.467 994.221,810.184 995.604,787.033 999.751,786.038 1001.13,795.882 1002.52,786.795 1003.9,850.604 1005.28,852.279 1009.43,817.577 1010.81,805.105 1012.19,816.676 1013.57,805.983 1014.96,827.631 1019.1,788.455 1020.49,813.296 1021.87,819.396 1023.25,815.03 1024.63,835.012 1028.78,822.569 1030.16,822.871 1031.55,825.148 1032.93,827.244 1038.46,838.631 1039.84,830.249 1041.22,838.343 1042.6,827.384 1043.99,833.652 1048.13,852.311 1049.52,830.858 1050.9,816.738 1052.28,829.096 1053.66,833.265 1057.81,812.437 1059.19,814.212 1060.58,794.209 1061.96,811.651 1063.34,802.382 1067.49,815.472 1068.87,823.619 1070.25,809.607 1071.63,807.53 1073.02,816.838 1077.16,801.395 1078.55,786.8 1079.93,782.84 1081.31,794.701 1082.69,776.552 1086.84,778.266 1088.22,785.224 1089.61,754.939 1090.99,755.433 1092.37,739.672 1096.52,722.662 1097.9,738.769 1099.28,730.91 1100.66,758.735 1102.05,750.443 1106.19,748.527 1107.58,742.799 1108.96,729.944 1110.34,746.896 1111.72,741.198 1115.87,739.941 1117.25,752.586 1118.64,723.485 1120.02,772.651 1121.4,784.34 1126.93,795.51 1128.31,770.965 1129.69,786.921 1131.08,766.857 1135.22,743.247 1136.61,757.773 1137.99,754.008 1139.37,755.802 1140.75,745.456 1144.9,787.516 1146.28,766.411 1147.67,788.925 1149.05,787.301 1150.43,774.915 1154.58,757.114 1155.96,754.477 1157.34,750.395 1158.72,733.417 1160.11,742.636 1164.25,726.647 1165.64,734.696 1167.02,709.526 1168.4,671.715 1169.78,665.248 1173.93,668.534 1175.31,659.873 1176.7,675.422 1178.08,666.139 1179.46,684.217 1183.61,705.064 1184.99,702.157 1186.37,693.11 1187.75,710.465 1189.14,704.796 1193.28,742.366 1194.67,726.188 1196.05,763.295 1197.43,745.36 1198.81,759.425 1203.02,743.468 1204.4,708.982 1205.78,690.697 1207.17,668.812 1208.55,649.788 1212.69,690.389 1214.08,698.036 1215.46,662.454 1216.84,618.769 1218.22,605.598 1222.37,569.457 1223.75,591.486 1225.14,603.855 1226.52,595.744 1227.9,594.876 1232.05,592.561 1233.43,577.641 1234.81,564.41 1237.58,559.734 1241.72,571.714 1243.11,558.635 1244.49,568.138 1245.87,573.908 1247.25,592.794 1251.4,578.831 1252.78,590.316 1254.17,603.38 1255.55,603.077 1256.93,616.436 1261.08,615.318 1262.46,601.979 1263.84,589.164 1265.22,585.043 1266.61,597.654 1270.75,599.335 1272.14,584.591 1273.52,601.142 1274.9,597.493 1280.43,598.51 1281.81,590.503 1283.2,585.462 1284.58,575.537 1290.11,589.009 1291.49,598.882 1292.87,536.812 1294.25,535.488 1295.64,554.13 1299.78,567.81 1301.17,552.352 1302.55,531.779 1303.93,554.613 1305.31,559.457 1310.84,576.552 1312.23,567.364 1313.61,577.968 1314.99,574.626 1319.14,568.889 1320.52,556.534 1321.9,600.794 1323.28,623.46 1324.67,656.695 1328.81,656.803 1330.2,645.377 1331.58,643.484 1332.96,634.765 1334.34,638.394 1338.49,603.192 1339.87,575.042 1341.26,583.051 1342.64,595.546 1344.02,601.678 1349.55,597.79 1350.93,593.968 1352.31,583.909 1353.7,591.79 1357.84,598.967 1359.23,633.201 1360.61,639.413 1361.99,667.996 1363.37,652.122 1367.52,628.063 1368.9,663.485 1370.29,688.012 1371.67,726.917 1373.05,712.685 1377.2,697.829 1378.58,676.931 1379.96,662.736 1381.34,642.53 1382.73,621.453 1386.82,595.879 1388.2,586.853 1389.58,621.191 1390.96,684.035 1392.35,637.566 1396.49,594.14 1397.88,578.633 1399.26,585.949 1400.64,575.199 1402.02,541.921 1406.17,548.299 1407.55,554.481 1408.93,551.184 1410.32,535.274 1415.85,494.25 1417.23,492.284 1418.61,488.742 1419.99,478.203 1421.38,470.081 1425.52,468.176 1426.91,452.902 1428.29,448.073 1429.67,440.887 1431.05,441.286 1435.2,443.514 1436.58,431.616 1437.96,436.524 1439.35,446.719 1440.73,452.514 1444.88,451.832 1446.26,443.537 1447.64,452.909 1449.02,425.017 1450.41,427.606 1454.55,409.029 1455.94,414.457 1457.32,416.285 1458.7,404.198 1460.08,390.908 1464.23,402.226 1465.61,438.407 1466.99,487.062 1468.38,476.906 1469.76,470.174 1473.91,487.942 1475.29,485.347 1476.67,511.561 1478.05,483.808 1479.44,486.609 1483.58,514.9 1484.97,512.43 1486.35,500.183 1487.73,463.425 1489.11,472.961 1494.64,476.501 1496.02,463.623 1497.41,445.687 1498.79,435.077 1502.94,428.307 1504.32,418.58 1505.7,434.224 1507.08,431.572 1508.47,412.853 1512.61,408.841 1514,397.049 1515.38,398.248 1516.76,390.714 1518.14,403.026 1522.29,395.687 1523.67,392.975 1525.05,401.137 1526.44,399.668 1527.82,404.235 1531.97,391.084 1533.35,378.957 1534.73,375.147 1536.11,357.914 1537.5,344.652 1543.03,345.294 1544.41,328.424 1545.79,345.925 1547.17,333.649 1551.32,339.18 1552.7,338.081 1554.08,331.82 1555.47,335.97 1556.85,342.359 1561,351.177 1562.38,305.246 1563.76,312.246 1565.14,303.755 1566.53,279.876 1570.67,282.669 1572.06,263.664 1573.44,277.089 1574.82,264.619 1576.2,260.802 1580.35,266.842 1581.73,265.692 1583.11,263.183 1584.5,247.23 1585.88,245.718 1590.03,267.183 1591.41,259.223 1592.79,254.013 1594.17,252.373 1595.56,241.953 1599.7,233.007 1601.09,271.388 1602.47,292.841 1603.85,292.596 1605.23,275.292 1609.38,274.149 1610.76,276.052 1612.14,251.626 1613.53,308.342 1614.91,314.89 1619.06,315.526 1620.44,330.515 1621.82,327.677 1623.2,310.868 1624.59,327.545 1630.12,345.462 1631.5,324.769 1632.88,348.137 1634.26,360.686 1638.41,354.12 1639.79,371.21 1641.17,355.909 1642.56,333.783 1643.94,323.404 1648.09,326.474 1649.47,348.146 1650.85,347.404 1652.23,339.597 1653.62,342.868 1657.76,347.89 1659.15,359.674 1660.53,360.858 1661.91,391.636 1663.29,398.812 1667.44,420.069 1668.82,423.478 1670.2,419.687 1671.59,385.853 1672.97,405.894 1677.12,413.273 1678.5,415.114 1679.88,414.917 1681.26,380.672 1682.65,372.273 1686.79,372.485 1688.18,376.9 1689.56,351.06 1690.94,335.114 1692.32,330.089 1696.47,322.204 1697.85,332.702 1699.23,340.442 1700.62,319.328 1702,328.371 1706.15,304.985 1707.53,298.513 1708.91,274.07 1710.29,267.834 1711.68,252.288 1715.88,281.337 1717.26,295.594 1718.65,297.915 1720.03,290.743 1721.41,270.69 1725.56,244.691 1726.94,219.192 1728.32,247.626 1729.7,259.136 1731.09,263.183 1735.23,265.882 1736.62,258.286 1738,265.077 1740.76,278.504 1744.91,272.82 1746.29,303.101 1747.68,308.957 1749.06,326.442 1750.44,304.582 1754.59,278.214 1755.97,264.777 1757.35,281.113 1758.73,284.627 1760.12,272.526 1764.26,262.417 1765.65,267.831 1767.03,256.141 1768.41,269.306 1769.79,299.155 1773.94,310.412 1775.32,293.687 1776.7,303.354 1778.09,282.223 1783.62,266.94 1785,252.424 1786.38,218.176 1787.76,202.992 1789.15,198.124 1793.29,202.917 1794.68,229.741 1796.06,237.893 1797.44,222.873 1798.82,224.385 1802.97,233.264 1804.35,261.209 1805.73,259.668 1807.12,280.151 1808.5,324.932 1814.03,331.314 1815.41,318.719 1816.79,381.016 1818.18,392.065 1822.32,360.788 1823.71,384.184 1825.09,426.726 1826.47,419.41 1827.85,415.534 1832,382.094 1833.38,368.87 1834.76,390.088 1836.15,397.494 1837.53,421.734 1841.68,430.383 1843.06,400.666 1844.44,382.991 1845.82,410.631 1847.21,431.201 1851.35,437.48 1852.74,441.696 1854.12,450.826 1855.5,459.174 1856.88,437.511 1862.41,494.382 1863.79,524.202 1865.18,505.367 1866.56,445.981 1870.71,446.559 1872.09,444.699 1873.47,405.692 1874.85,404.126 1876.24,384.465 1880.38,444.322 1881.77,462.292 1883.15,429.501 1884.53,431.61 1885.91,460.378 1890,460.473 1891.38,429.424 1892.77,431.171 1894.15,359.292 1895.53,311.072 1899.68,313.463 1901.06,310.953 1902.44,341.951 1903.83,339.176 1905.21,323.82 1909.36,294.304 1910.74,280.343 1912.12,283.043 1913.5,307.411 1914.89,287.885 1919.03,283.083 1920.41,282.034 1921.8,239.588 1923.18,231.645 1924.56,218.104 1928.71,241.912 1930.09,241.488 1931.47,225.508 1932.86,225.45 1938.39,223.88 1939.77,182.911 1941.15,166.136 1942.53,201.36 1943.92,247.027 1948.06,251.29 1949.44,283.512 1950.83,295.95 1952.21,271.569 1953.59,351.19 1957.74,342.803 1959.12,341.676 1960.5,293.352 1961.89,357.735 1963.27,361.123 1967.42,391.739 1968.8,420.778 1970.18,423.696 1971.56,417.629 1972.95,393.138 1977.09,389.606 1978.47,404.007 1979.86,539.658 1981.24,544.839 1982.62,609.116 1986.77,567.1 1988.15,567.68 1989.53,564.198 1990.92,406.26 1992.3,359.981 1997.83,388.075 1999.21,415.592 2000.59,365.979 2001.98,367.991 2006.12,335.797 2007.5,327.918 2008.89,339.469 2010.27,314.561 2011.65,349.052 2015.8,409.061 2017.18,402.128 2018.56,377.47 2019.95,410.276 2021.33,418.286 2026.86,376.127 2028.24,368.143 2029.62,336.019 2031.01,289.121 2035.15,295.733 2036.53,328.345 2037.92,323.779 2039.3,328.146 2040.68,303.315 2046.21,283.737 2047.59,272.815 2048.98,259.837 2050.36,255.814 2054.51,247.414 2055.89,278.848 2057.27,277.718 2058.65,269.797 2060.03,295.428 2064.18,279.998 2065.56,259.5 2066.95,248.286 2068.33,257.316 2069.71,256.925 2073.86,256.271 2075.24,301.878 2076.62,269.514 2078.01,245.155 2079.39,220.465 2083.54,196.899 2084.92,195.044 2086.3,157.79 2087.68,175.734 2089.06,186.445 2093.21,159.119 2094.59,167.802 2095.98,152.459 2097.36,155.221 2098.74,152.995 2102.89,156.41 2104.27,144.726 2105.65,161.202 2107.04,158.392 2108.42,156.133 2112.57,214.4 2113.95,209.811 2115.33,204.995 2116.71,220.686 2118.09,305.12 2122.24,302.806 2123.62,313.638 2125.01,320.248 2126.39,285.032 2127.77,298.028 2133.3,304.546 2134.68,246.787 2136.07,226.835 2137.45,211.436 2141.6,191.366 2142.98,243.012 2144.36,263.426 2145.74,281.669 2147.12,279.313 2151.27,256.905 2152.65,267.385 2154.04,299.992 2155.42,323.114 2156.8,316.792 2160.95,345.477 2162.33,353.975 2163.71,309.024 2165.1,350.728 2166.48,350.363 2170.63,305.772 2172.01,273.628 2173.39,300.995 2174.77,289.765 2176.15,310.748 2180.3,309.365 2181.68,292.122 2183.07,300.639 2184.45,263.306 2185.83,305.006 2189.98,294.997 2191.36,281.639 2192.74,287.164 2194.13,296.542 2195.51,273.586 2199.66,269.85 2201.04,239.514 2202.42,231.02 2203.8,233.122 2205.18,191.19 2209.33,222.587 2210.71,235.057 2212.1,264.516 2213.48,265.108 2214.86,244.931 2219.07,225.409 2220.45,218.067 2221.83,264.912 2223.21,191.585 2224.6,208.711 2228.74,219.578 2230.13,163.267 2231.51,164.62 2232.89,167.876 2234.27,148.654 2238.42,106.442 2239.8,92.7896 2241.18,89.7653 2243.95,86.1857 2248.1,120.24 2249.48,141.463 2250.86,122.4 2252.24,199.567 2253.63,171.131 2257.77,180.123 2259.16,182.161 2260.54,159.894 2261.92,163.639 2263.3,188.615 2267.45,182.816 2268.83,194.888 2270.21,179.289 2271.6,197.211 2272.98,193.335 2277.13,219.247 2278.51,227.86 2279.89,196.533 2281.27,192.775 2282.66,177.869 2288.19,191.604 2289.57,194.131 2290.95,163.545 2292.33,162.595 "/>
</svg>
