<?xml version="1.0" encoding="UTF-8" standalone="no"?>
<!-- Created with Inkscape (http://www.inkscape.org/) -->

<svg
   xmlns:dc="http://purl.org/dc/elements/1.1/"
   xmlns:cc="http://creativecommons.org/ns#"
   xmlns:rdf="http://www.w3.org/1999/02/22-rdf-syntax-ns#"
   xmlns:svg="http://www.w3.org/2000/svg"
   xmlns="http://www.w3.org/2000/svg"
   xmlns:sodipodi="http://sodipodi.sourceforge.net/DTD/sodipodi-0.dtd"
   xmlns:inkscape="http://www.inkscape.org/namespaces/inkscape"
   width="150.7507mm"
   height="100.63148mm"
   viewBox="0 0 150.7507 100.63147"
   version="1.1"
   id="svg8"
   inkscape:version="0.92.3 (2405546, 2018-03-11)"
   sodipodi:docname="logo.svg">
  <defs
     id="defs2" />
  <sodipodi:namedview
     id="base"
     pagecolor="#ffffff"
     bordercolor="#666666"
     borderopacity="1.0"
     inkscape:pageopacity="0.0"
     inkscape:pageshadow="2"
     inkscape:zoom="0.7"
     inkscape:cx="229.24664"
     inkscape:cy="297.94725"
     inkscape:document-units="mm"
     inkscape:current-layer="layer1"
     showgrid="false"
     inkscape:window-width="1920"
     inkscape:window-height="1057"
     inkscape:window-x="-8"
     inkscape:window-y="-8"
     inkscape:window-maximized="1"
     fit-margin-top="0"
     fit-margin-left="0"
     fit-margin-right="0"
     fit-margin-bottom="0" />
  <metadata
     id="metadata5">
    <rdf:RDF>
      <cc:Work
         rdf:about="">
        <dc:format>image/svg+xml</dc:format>
        <dc:type
           rdf:resource="http://purl.org/dc/dcmitype/StillImage" />
        <dc:title></dc:title>
      </cc:Work>
    </rdf:RDF>
  </metadata>
  <g
     inkscape:label="Layer 1"
     inkscape:groupmode="layer"
     id="layer1"
     transform="translate(208.49859,-133.70719)">
    <g
       transform="translate(80.500406,-170.87271)"
       id="g5689">
      <rect
         style="opacity:1;fill:#4063d8;fill-opacity:1;fill-rule:nonzero;stroke:none;stroke-width:0.42016953;stroke-linecap:round;stroke-linejoin:round;stroke-miterlimit:4;stroke-dasharray:none;stroke-dashoffset:0;stroke-opacity:1;paint-order:normal"
         id="rect2092"
         width="150.7507"
         height="100.63148"
         x="-288.99899"
         y="304.5799" />
      <path
         sodipodi:nodetypes="cccsssscscsscsssccc"
         inkscape:connector-curvature="0"
         id="path2094"
         d="m -232.55876,361.74599 c 6.04762,0.75595 5.66964,1.13393 8.31547,-4.91369 2.64584,-6.04762 4.15774,-9.44941 4.53572,-15.49702 0.37797,-6.04763 -0.37798,-12.09524 -2.26786,-15.11905 -1.88988,-3.02381 -5.66964,-7.18155 -8.69345,-8.31548 -3.02381,-1.13393 -5.4896,-1.81913 -8.53689,-1.8021 -2.79744,0.0156 -4.3143,0.2902 -8.85002,1.8021 -4.53571,1.5119 -8.69345,5.66964 -11.33928,12.09524 -2.64584,6.42559 -3.40179,13.98512 -1.13393,20.78869 2.26786,6.80357 6.80357,10.96131 3.40178,13.98512 -3.40178,3.02381 -4.15773,2.26785 -11.33928,5.29166 -7.18155,3.02381 -12.47322,3.02381 -15.11905,6.04762 -2.64583,3.02381 -5.29167,5.66965 0.75596,4.91369 19.65476,0 9.06469,-0.0215 19.65476,0 22.63664,0.0459 0,0 22.63664,0.0459 34.81725,0.0705 33.30383,0.33212 34.81574,0.33212 1.5119,0 -1.13393,-2.26786 -4.53572,-3.77976 -3.40178,-1.51191 -23.25503,-7.47174 -23.25503,-7.47174 0,0 -2.45914,-6.15834 0.95444,-8.40326 z"
         style="fill:#9558b2;fill-opacity:1;stroke:#ffffdf;stroke-width:0.5291667;stroke-linecap:butt;stroke-linejoin:miter;stroke-miterlimit:4;stroke-dasharray:none;stroke-opacity:1" />
      <path
         inkscape:connector-curvature="0"
         id="path2096"
         d="m -201.86881,379.01929 32.33961,-51.85028 -10.95805,-6.41447 33.14142,-14.43256 2.6727,34.47777 -12.82894,-6.68174 -34.74504,50.24668 z"
         style="fill:#389826;fill-opacity:1;stroke:#ffffff;stroke-width:0.5291667;stroke-linecap:butt;stroke-linejoin:miter;stroke-miterlimit:4;stroke-dasharray:none;stroke-opacity:1" />
      <text
         id="text2100"
         y="402.5087"
         x="-216.51125"
         style="font-style:normal;font-variant:normal;font-weight:normal;font-stretch:normal;font-size:26.25855446px;line-height:1.25;font-family:'Latin Modern Roman';-inkscape-font-specification:'Latin Modern Roman, ';letter-spacing:0px;word-spacing:0px;fill:#cb3c33;fill-opacity:1;stroke:#ffffdf;stroke-width:0.6564638;stroke-opacity:1"
         xml:space="preserve"><tspan
           style="font-style:normal;font-variant:normal;font-weight:normal;font-stretch:normal;font-family:Arial;-inkscape-font-specification:Arial;fill:#cb3c33;fill-opacity:1;stroke:#ffffdf;stroke-width:0.6564638;stroke-opacity:1"
           y="402.5087"
           x="-216.51125"
           id="tspan2098"
           sodipodi:role="line">stonks</tspan></text>
      <path
         sodipodi:nodetypes="ccsscsccscscscc"
         inkscape:connector-curvature="0"
         id="path2133"
         d="m -256.53533,323.47205 c 0,0 1.84203,-0.0837 2.17695,0.3349 0.33491,0.41865 2.34441,-0.58609 3.7678,-0.58609 1.42339,0 2.26067,-0.16746 4.60508,0.75356 2.34441,0.92101 5.69356,2.76306 6.86577,3.34914 1.1722,0.58612 4.10271,2.51188 6.11221,2.34441 2.00948,-0.16746 5.27491,-0.50235 6.36339,-1.33965 1.08847,-0.83729 1.55305,-2.6619 1.55305,-2.6619 0,0 -1.86474,-1.86318 -4.34521,-3.54045 -2.48047,-1.67727 -3.23642,-2.17336 -4.20499,-2.62221 -0.96856,-0.44885 -0.82682,-0.33073 -2.24423,-0.54334 -1.41741,-0.21261 -5.31529,0.14174 -6.75633,0.21261 -1.44103,0.0709 -5.65189,0.63106 -6.62505,0.786 -0.8825,0.14051 -2.41448,0.31475 -3.99244,0.82868 -1.26057,0.7979 -3.276,2.68434 -3.276,2.68434 z"
         style="fill:#f4c00a;fill-opacity:1;stroke:#000000;stroke-width:0.33154929px;stroke-linecap:butt;stroke-linejoin:miter;stroke-opacity:1" />
      <path
         sodipodi:nodetypes="ccccccccscccc"
         inkscape:connector-curvature="0"
         id="path2131"
         d="m -254.87529,320.6614 c 0,0 10.40182,-1.46848 12.8493,-1.59087 2.44748,-0.12238 5.99633,-0.48948 7.70956,0.12238 1.71325,0.61186 5.75159,3.54883 7.34246,4.89495 1.59086,1.34614 3.18172,2.44751 3.67122,2.56986 0.48949,0.12239 1.83562,0.12239 3.18173,-1.10137 1.34612,-1.22373 1.95799,-1.95799 1.71324,-3.79359 -0.24475,-1.83564 -0.73425,-4.28309 -3.3041,-5.87398 -2.56987,-1.59084 -7.95432,-2.93696 -9.78993,-2.93696 -1.83561,0 -7.83195,0.36711 -8.81094,0.73425 -0.979,0.36712 -4.77259,0.85663 -9.54519,3.91595 -4.77259,3.05937 -5.01735,3.05937 -5.01735,3.05937 z"
         style="fill:#f4c00a;fill-opacity:1;stroke:#000000;stroke-width:0.34264761px;stroke-linecap:butt;stroke-linejoin:miter;stroke-opacity:1" />
      <path
         inkscape:connector-curvature="0"
         id="path5676"
         d="m -252.49814,335.04981 8.40997,0.18899 0.51971,-0.37798 12.47322,-0.23622 0.85044,1.13392 0.8032,0.0945 0.85045,-1.18118 8.31548,-0.56694 0.66145,0.51972 0.23624,2.22059 -0.66146,0.61421 c 0,0 -0.42522,3.35454 -0.61421,3.77978 -0.18899,0.42521 -1.08668,1.70087 -1.88988,1.84261 -0.8032,0.14176 0.0472,0.18899 -1.03944,0.18899 -1.08668,0 -1.32291,-0.14173 -2.22061,-0.51972 -0.89769,-0.37796 -2.40959,-1.60639 -3.21279,-2.92931 -0.8032,-1.32291 -0.85045,-1.37017 -0.85045,-1.37017 l -0.28348,0.0473 c 0,0 -0.42522,2.17336 -0.85045,2.92931 -0.42522,0.75596 -1.18117,1.98437 -2.92931,2.69308 -1.74814,0.70872 -3.82701,0.70872 -4.44122,0.51972 -0.61422,-0.18899 -1.93713,-0.56697 -2.97657,-2.45684 -1.03943,-1.88989 -1.5119,-3.63802 -1.65364,-3.68527 -0.14174,-0.0473 -1.03944,-0.42521 -1.03944,-0.42521 l -0.18898,-1.32292 h -8.40998 c 0,0 -0.14174,-0.47247 -0.0945,-0.85045 0.0472,-0.37799 0.23624,-0.85045 0.23624,-0.85045 z"
         style="fill:#000000;fill-opacity:1;stroke:#000000;stroke-width:0.26458332px;stroke-linecap:butt;stroke-linejoin:miter;stroke-opacity:1" />
      <path
         sodipodi:nodetypes="ccccccccccccsccccc"
         inkscape:connector-curvature="0"
         id="path5678"
         d="m -237.34302,331.99936 c -1.97188,0.26294 -4.41147,0.19504 -5.46314,-0.13363 -1.05166,-0.32862 -3.35217,-3.35216 -4.66677,-4.07518 -1.31457,-0.72302 -2.82634,-1.18312 -4.07519,-0.85448 -1.24886,0.32863 -4.7325,1.5775 -5.78416,1.64324 -1.05167,0.0657 -3.22072,0.4601 -3.94374,-0.32865 -0.72302,-0.78873 -0.85448,-1.31459 -0.85448,-1.31459 0,0 0.6573,0.78873 1.18313,0.92021 0.52583,0.13147 1.54191,0.25857 1.88779,-0.41977 0.34589,-0.67835 0.0183,-0.82906 -0.9558,-0.81454 0.25688,0.0131 1.63143,-1.00046 2.15726,-1.26337 0.52584,-0.26292 1.11196,-1.5016 2.22935,-1.76452 1.41739,-0.0457 2.72501,-0.58387 4.01492,-0.60174 1.31445,-0.0182 2.82635,0 4.73249,0.72302 1.90615,0.72303 5.1926,1.97186 6.63865,2.69488 1.44602,0.72302 4.00946,2.56345 5.38976,3.02355 1.38032,0.46011 2.56944,0.18793 2.56944,0.18793 0,0 -2.25242,1.61363 -5.05951,2.37764 z"
         style="fill:#f4c00a;fill-opacity:1;stroke:#000000;stroke-width:0.36808273px;stroke-linecap:butt;stroke-linejoin:miter;stroke-opacity:1" />
    </g>
  </g>
</svg>
