<?xml version="1.0" encoding="utf-8"?>
<svg xmlns="http://www.w3.org/2000/svg" xmlns:xlink="http://www.w3.org/1999/xlink" width="600" height="400" viewBox="0 0 2400 1600">
<defs>
  <clipPath id="clip820">
    <rect x="0" y="0" width="2400" height="1600"/>
  </clipPath>
</defs>
<path clip-path="url(#clip820)" d="M0 1600 L2400 1600 L2400 0 L0 0  Z" fill="#ffffff" fill-rule="evenodd" fill-opacity="1"/>
<defs>
  <clipPath id="clip821">
    <rect x="480" y="0" width="1681" height="1600"/>
  </clipPath>
</defs>
<path clip-path="url(#clip820)" d="M217.783 1423.18 L2352.76 1423.18 L2352.76 47.2441 L217.783 47.2441  Z" fill="#ffffff" fill-rule="evenodd" fill-opacity="1"/>
<defs>
  <clipPath id="clip822">
    <rect x="217" y="47" width="2136" height="1377"/>
  </clipPath>
</defs>
<polyline clip-path="url(#clip822)" style="stroke:#000000; stroke-linecap:round; stroke-linejoin:round; stroke-width:2; stroke-opacity:0.1; fill:none" points="274.607,1423.18 274.607,47.2441 "/>
<polyline clip-path="url(#clip822)" style="stroke:#000000; stroke-linecap:round; stroke-linejoin:round; stroke-width:2; stroke-opacity:0.1; fill:none" points="779.175,1423.18 779.175,47.2441 "/>
<polyline clip-path="url(#clip822)" style="stroke:#000000; stroke-linecap:round; stroke-linejoin:round; stroke-width:2; stroke-opacity:0.1; fill:none" points="1285.13,1423.18 1285.13,47.2441 "/>
<polyline clip-path="url(#clip822)" style="stroke:#000000; stroke-linecap:round; stroke-linejoin:round; stroke-width:2; stroke-opacity:0.1; fill:none" points="1789.69,1423.18 1789.69,47.2441 "/>
<polyline clip-path="url(#clip822)" style="stroke:#000000; stroke-linecap:round; stroke-linejoin:round; stroke-width:2; stroke-opacity:0.1; fill:none" points="2294.26,1423.18 2294.26,47.2441 "/>
<polyline clip-path="url(#clip822)" style="stroke:#000000; stroke-linecap:round; stroke-linejoin:round; stroke-width:2; stroke-opacity:0.1; fill:none" points="217.783,1378.74 2352.76,1378.74 "/>
<polyline clip-path="url(#clip822)" style="stroke:#000000; stroke-linecap:round; stroke-linejoin:round; stroke-width:2; stroke-opacity:0.1; fill:none" points="217.783,1107.96 2352.76,1107.96 "/>
<polyline clip-path="url(#clip822)" style="stroke:#000000; stroke-linecap:round; stroke-linejoin:round; stroke-width:2; stroke-opacity:0.1; fill:none" points="217.783,837.172 2352.76,837.172 "/>
<polyline clip-path="url(#clip822)" style="stroke:#000000; stroke-linecap:round; stroke-linejoin:round; stroke-width:2; stroke-opacity:0.1; fill:none" points="217.783,566.388 2352.76,566.388 "/>
<polyline clip-path="url(#clip822)" style="stroke:#000000; stroke-linecap:round; stroke-linejoin:round; stroke-width:2; stroke-opacity:0.1; fill:none" points="217.783,295.605 2352.76,295.605 "/>
<polyline clip-path="url(#clip820)" style="stroke:#000000; stroke-linecap:round; stroke-linejoin:round; stroke-width:4; stroke-opacity:1; fill:none" points="217.783,1423.18 2352.76,1423.18 "/>
<polyline clip-path="url(#clip820)" style="stroke:#000000; stroke-linecap:round; stroke-linejoin:round; stroke-width:4; stroke-opacity:1; fill:none" points="274.607,1423.18 274.607,1404.28 "/>
<polyline clip-path="url(#clip820)" style="stroke:#000000; stroke-linecap:round; stroke-linejoin:round; stroke-width:4; stroke-opacity:1; fill:none" points="779.175,1423.18 779.175,1404.28 "/>
<polyline clip-path="url(#clip820)" style="stroke:#000000; stroke-linecap:round; stroke-linejoin:round; stroke-width:4; stroke-opacity:1; fill:none" points="1285.13,1423.18 1285.13,1404.28 "/>
<polyline clip-path="url(#clip820)" style="stroke:#000000; stroke-linecap:round; stroke-linejoin:round; stroke-width:4; stroke-opacity:1; fill:none" points="1789.69,1423.18 1789.69,1404.28 "/>
<polyline clip-path="url(#clip820)" style="stroke:#000000; stroke-linecap:round; stroke-linejoin:round; stroke-width:4; stroke-opacity:1; fill:none" points="2294.26,1423.18 2294.26,1404.28 "/>
<path clip-path="url(#clip820)" d="M146.401 1481.64 L162.721 1481.64 L162.721 1485.58 L140.776 1485.58 L140.776 1481.64 Q143.438 1478.89 148.022 1474.26 Q152.628 1469.61 153.809 1468.27 Q156.054 1465.74 156.934 1464.01 Q157.837 1462.25 157.837 1460.56 Q157.837 1457.8 155.892 1456.07 Q153.971 1454.33 150.869 1454.33 Q148.67 1454.33 146.216 1455.09 Q143.786 1455.86 141.008 1457.41 L141.008 1452.69 Q143.832 1451.55 146.286 1450.97 Q148.739 1450.39 150.776 1450.39 Q156.147 1450.39 159.341 1453.08 Q162.536 1455.77 162.536 1460.26 Q162.536 1462.39 161.725 1464.31 Q160.938 1466.2 158.832 1468.8 Q158.253 1469.47 155.151 1472.69 Q152.05 1475.88 146.401 1481.64 Z" fill="#000000" fill-rule="nonzero" fill-opacity="1" /><path clip-path="url(#clip820)" d="M182.535 1454.1 Q178.924 1454.1 177.096 1457.66 Q175.29 1461.2 175.29 1468.33 Q175.29 1475.44 177.096 1479.01 Q178.924 1482.55 182.535 1482.55 Q186.17 1482.55 187.975 1479.01 Q189.804 1475.44 189.804 1468.33 Q189.804 1461.2 187.975 1457.66 Q186.17 1454.1 182.535 1454.1 M182.535 1450.39 Q188.346 1450.39 191.401 1455 Q194.48 1459.58 194.48 1468.33 Q194.48 1477.06 191.401 1481.67 Q188.346 1486.25 182.535 1486.25 Q176.725 1486.25 173.647 1481.67 Q170.591 1477.06 170.591 1468.33 Q170.591 1459.58 173.647 1455 Q176.725 1450.39 182.535 1450.39 Z" fill="#000000" fill-rule="nonzero" fill-opacity="1" /><path clip-path="url(#clip820)" d="M203.508 1481.64 L211.146 1481.64 L211.146 1455.28 L202.836 1456.95 L202.836 1452.69 L211.1 1451.02 L215.776 1451.02 L215.776 1481.64 L223.415 1481.64 L223.415 1485.58 L203.508 1485.58 L203.508 1481.64 Z" fill="#000000" fill-rule="nonzero" fill-opacity="1" /><path clip-path="url(#clip820)" d="M232.998 1484.86 L232.998 1480.6 Q234.757 1481.44 236.563 1481.88 Q238.369 1482.32 240.105 1482.32 Q244.734 1482.32 247.165 1479.21 Q249.618 1476.09 249.966 1469.75 Q248.623 1471.74 246.563 1472.8 Q244.503 1473.87 242.003 1473.87 Q236.818 1473.87 233.785 1470.74 Q230.776 1467.59 230.776 1462.15 Q230.776 1456.83 233.924 1453.61 Q237.072 1450.39 242.304 1450.39 Q248.299 1450.39 251.447 1455 Q254.618 1459.58 254.618 1468.33 Q254.618 1476.51 250.73 1481.39 Q246.864 1486.25 240.313 1486.25 Q238.554 1486.25 236.748 1485.9 Q234.943 1485.56 232.998 1484.86 M242.304 1470.21 Q245.452 1470.21 247.281 1468.06 Q249.132 1465.9 249.132 1462.15 Q249.132 1458.43 247.281 1456.27 Q245.452 1454.1 242.304 1454.1 Q239.156 1454.1 237.304 1456.27 Q235.475 1458.43 235.475 1462.15 Q235.475 1465.9 237.304 1468.06 Q239.156 1470.21 242.304 1470.21 Z" fill="#000000" fill-rule="nonzero" fill-opacity="1" /><path clip-path="url(#clip820)" d="M260.267 1470.7 L272.743 1470.7 L272.743 1474.49 L260.267 1474.49 L260.267 1470.7 Z" fill="#000000" fill-rule="nonzero" fill-opacity="1" /><path clip-path="url(#clip820)" d="M290.128 1454.1 Q286.516 1454.1 284.688 1457.66 Q282.882 1461.2 282.882 1468.33 Q282.882 1475.44 284.688 1479.01 Q286.516 1482.55 290.128 1482.55 Q293.762 1482.55 295.567 1479.01 Q297.396 1475.44 297.396 1468.33 Q297.396 1461.2 295.567 1457.66 Q293.762 1454.1 290.128 1454.1 M290.128 1450.39 Q295.938 1450.39 298.993 1455 Q302.072 1459.58 302.072 1468.33 Q302.072 1477.06 298.993 1481.67 Q295.938 1486.25 290.128 1486.25 Q284.317 1486.25 281.239 1481.67 Q278.183 1477.06 278.183 1468.33 Q278.183 1459.58 281.239 1455 Q284.317 1450.39 290.128 1450.39 Z" fill="#000000" fill-rule="nonzero" fill-opacity="1" /><path clip-path="url(#clip820)" d="M311.1 1481.64 L318.738 1481.64 L318.738 1455.28 L310.428 1456.95 L310.428 1452.69 L318.692 1451.02 L323.368 1451.02 L323.368 1481.64 L331.007 1481.64 L331.007 1485.58 L311.1 1485.58 L311.1 1481.64 Z" fill="#000000" fill-rule="nonzero" fill-opacity="1" /><path clip-path="url(#clip820)" d="M337.697 1470.7 L350.173 1470.7 L350.173 1474.49 L337.697 1474.49 L337.697 1470.7 Z" fill="#000000" fill-rule="nonzero" fill-opacity="1" /><path clip-path="url(#clip820)" d="M367.558 1454.1 Q363.947 1454.1 362.118 1457.66 Q360.312 1461.2 360.312 1468.33 Q360.312 1475.44 362.118 1479.01 Q363.947 1482.55 367.558 1482.55 Q371.192 1482.55 372.997 1479.01 Q374.826 1475.44 374.826 1468.33 Q374.826 1461.2 372.997 1457.66 Q371.192 1454.1 367.558 1454.1 M367.558 1450.39 Q373.368 1450.39 376.423 1455 Q379.502 1459.58 379.502 1468.33 Q379.502 1477.06 376.423 1481.67 Q373.368 1486.25 367.558 1486.25 Q361.747 1486.25 358.669 1481.67 Q355.613 1477.06 355.613 1468.33 Q355.613 1459.58 358.669 1455 Q361.747 1450.39 367.558 1450.39 Z" fill="#000000" fill-rule="nonzero" fill-opacity="1" /><path clip-path="url(#clip820)" d="M388.53 1481.64 L396.169 1481.64 L396.169 1455.28 L387.858 1456.95 L387.858 1452.69 L396.122 1451.02 L400.798 1451.02 L400.798 1481.64 L408.437 1481.64 L408.437 1485.58 L388.53 1485.58 L388.53 1481.64 Z" fill="#000000" fill-rule="nonzero" fill-opacity="1" /><path clip-path="url(#clip820)" d="M650.97 1481.64 L667.289 1481.64 L667.289 1485.58 L645.345 1485.58 L645.345 1481.64 Q648.007 1478.89 652.59 1474.26 Q657.196 1469.61 658.377 1468.27 Q660.622 1465.74 661.502 1464.01 Q662.405 1462.25 662.405 1460.56 Q662.405 1457.8 660.46 1456.07 Q658.539 1454.33 655.437 1454.33 Q653.238 1454.33 650.784 1455.09 Q648.354 1455.86 645.576 1457.41 L645.576 1452.69 Q648.4 1451.55 650.854 1450.97 Q653.308 1450.39 655.345 1450.39 Q660.715 1450.39 663.909 1453.08 Q667.104 1455.77 667.104 1460.26 Q667.104 1462.39 666.294 1464.31 Q665.507 1466.2 663.4 1468.8 Q662.821 1469.47 659.72 1472.69 Q656.618 1475.88 650.97 1481.64 Z" fill="#000000" fill-rule="nonzero" fill-opacity="1" /><path clip-path="url(#clip820)" d="M687.104 1454.1 Q683.493 1454.1 681.664 1457.66 Q679.858 1461.2 679.858 1468.33 Q679.858 1475.44 681.664 1479.01 Q683.493 1482.55 687.104 1482.55 Q690.738 1482.55 692.543 1479.01 Q694.372 1475.44 694.372 1468.33 Q694.372 1461.2 692.543 1457.66 Q690.738 1454.1 687.104 1454.1 M687.104 1450.39 Q692.914 1450.39 695.969 1455 Q699.048 1459.58 699.048 1468.33 Q699.048 1477.06 695.969 1481.67 Q692.914 1486.25 687.104 1486.25 Q681.293 1486.25 678.215 1481.67 Q675.159 1477.06 675.159 1468.33 Q675.159 1459.58 678.215 1455 Q681.293 1450.39 687.104 1450.39 Z" fill="#000000" fill-rule="nonzero" fill-opacity="1" /><path clip-path="url(#clip820)" d="M711.293 1481.64 L727.613 1481.64 L727.613 1485.58 L705.668 1485.58 L705.668 1481.64 Q708.33 1478.89 712.914 1474.26 Q717.52 1469.61 718.701 1468.27 Q720.946 1465.74 721.826 1464.01 Q722.728 1462.25 722.728 1460.56 Q722.728 1457.8 720.784 1456.07 Q718.863 1454.33 715.761 1454.33 Q713.562 1454.33 711.108 1455.09 Q708.678 1455.86 705.9 1457.41 L705.9 1452.69 Q708.724 1451.55 711.178 1450.97 Q713.631 1450.39 715.668 1450.39 Q721.039 1450.39 724.233 1453.08 Q727.427 1455.77 727.427 1460.26 Q727.427 1462.39 726.617 1464.31 Q725.83 1466.2 723.724 1468.8 Q723.145 1469.47 720.043 1472.69 Q716.941 1475.88 711.293 1481.64 Z" fill="#000000" fill-rule="nonzero" fill-opacity="1" /><path clip-path="url(#clip820)" d="M747.427 1454.1 Q743.816 1454.1 741.988 1457.66 Q740.182 1461.2 740.182 1468.33 Q740.182 1475.44 741.988 1479.01 Q743.816 1482.55 747.427 1482.55 Q751.062 1482.55 752.867 1479.01 Q754.696 1475.44 754.696 1468.33 Q754.696 1461.2 752.867 1457.66 Q751.062 1454.1 747.427 1454.1 M747.427 1450.39 Q753.238 1450.39 756.293 1455 Q759.372 1459.58 759.372 1468.33 Q759.372 1477.06 756.293 1481.67 Q753.238 1486.25 747.427 1486.25 Q741.617 1486.25 738.539 1481.67 Q735.483 1477.06 735.483 1468.33 Q735.483 1459.58 738.539 1455 Q741.617 1450.39 747.427 1450.39 Z" fill="#000000" fill-rule="nonzero" fill-opacity="1" /><path clip-path="url(#clip820)" d="M764.835 1470.7 L777.311 1470.7 L777.311 1474.49 L764.835 1474.49 L764.835 1470.7 Z" fill="#000000" fill-rule="nonzero" fill-opacity="1" /><path clip-path="url(#clip820)" d="M794.696 1454.1 Q791.085 1454.1 789.256 1457.66 Q787.45 1461.2 787.45 1468.33 Q787.45 1475.44 789.256 1479.01 Q791.085 1482.55 794.696 1482.55 Q798.33 1482.55 800.135 1479.01 Q801.964 1475.44 801.964 1468.33 Q801.964 1461.2 800.135 1457.66 Q798.33 1454.1 794.696 1454.1 M794.696 1450.39 Q800.506 1450.39 803.561 1455 Q806.64 1459.58 806.64 1468.33 Q806.64 1477.06 803.561 1481.67 Q800.506 1486.25 794.696 1486.25 Q788.886 1486.25 785.807 1481.67 Q782.751 1477.06 782.751 1468.33 Q782.751 1459.58 785.807 1455 Q788.886 1450.39 794.696 1450.39 Z" fill="#000000" fill-rule="nonzero" fill-opacity="1" /><path clip-path="url(#clip820)" d="M815.668 1481.64 L823.307 1481.64 L823.307 1455.28 L814.996 1456.95 L814.996 1452.69 L823.26 1451.02 L827.936 1451.02 L827.936 1481.64 L835.575 1481.64 L835.575 1485.58 L815.668 1485.58 L815.668 1481.64 Z" fill="#000000" fill-rule="nonzero" fill-opacity="1" /><path clip-path="url(#clip820)" d="M842.265 1470.7 L854.742 1470.7 L854.742 1474.49 L842.265 1474.49 L842.265 1470.7 Z" fill="#000000" fill-rule="nonzero" fill-opacity="1" /><path clip-path="url(#clip820)" d="M872.126 1454.1 Q868.515 1454.1 866.686 1457.66 Q864.88 1461.2 864.88 1468.33 Q864.88 1475.44 866.686 1479.01 Q868.515 1482.55 872.126 1482.55 Q875.76 1482.55 877.566 1479.01 Q879.394 1475.44 879.394 1468.33 Q879.394 1461.2 877.566 1457.66 Q875.76 1454.1 872.126 1454.1 M872.126 1450.39 Q877.936 1450.39 880.991 1455 Q884.07 1459.58 884.07 1468.33 Q884.07 1477.06 880.991 1481.67 Q877.936 1486.25 872.126 1486.25 Q866.316 1486.25 863.237 1481.67 Q860.181 1477.06 860.181 1468.33 Q860.181 1459.58 863.237 1455 Q866.316 1450.39 872.126 1450.39 Z" fill="#000000" fill-rule="nonzero" fill-opacity="1" /><path clip-path="url(#clip820)" d="M893.098 1481.64 L900.737 1481.64 L900.737 1455.28 L892.427 1456.95 L892.427 1452.69 L900.69 1451.02 L905.366 1451.02 L905.366 1481.64 L913.005 1481.64 L913.005 1485.58 L893.098 1485.58 L893.098 1481.64 Z" fill="#000000" fill-rule="nonzero" fill-opacity="1" /><path clip-path="url(#clip820)" d="M1156.92 1481.64 L1173.24 1481.64 L1173.24 1485.58 L1151.3 1485.58 L1151.3 1481.64 Q1153.96 1478.89 1158.54 1474.26 Q1163.15 1469.61 1164.33 1468.27 Q1166.57 1465.74 1167.45 1464.01 Q1168.36 1462.25 1168.36 1460.56 Q1168.36 1457.8 1166.41 1456.07 Q1164.49 1454.33 1161.39 1454.33 Q1159.19 1454.33 1156.73 1455.09 Q1154.3 1455.86 1151.53 1457.41 L1151.53 1452.69 Q1154.35 1451.55 1156.8 1450.97 Q1159.26 1450.39 1161.3 1450.39 Q1166.67 1450.39 1169.86 1453.08 Q1173.05 1455.77 1173.05 1460.26 Q1173.05 1462.39 1172.24 1464.31 Q1171.46 1466.2 1169.35 1468.8 Q1168.77 1469.47 1165.67 1472.69 Q1162.57 1475.88 1156.92 1481.64 Z" fill="#000000" fill-rule="nonzero" fill-opacity="1" /><path clip-path="url(#clip820)" d="M1193.05 1454.1 Q1189.44 1454.1 1187.61 1457.66 Q1185.81 1461.2 1185.81 1468.33 Q1185.81 1475.44 1187.61 1479.01 Q1189.44 1482.55 1193.05 1482.55 Q1196.69 1482.55 1198.49 1479.01 Q1200.32 1475.44 1200.32 1468.33 Q1200.32 1461.2 1198.49 1457.66 Q1196.69 1454.1 1193.05 1454.1 M1193.05 1450.39 Q1198.86 1450.39 1201.92 1455 Q1205 1459.58 1205 1468.33 Q1205 1477.06 1201.92 1481.67 Q1198.86 1486.25 1193.05 1486.25 Q1187.24 1486.25 1184.17 1481.67 Q1181.11 1477.06 1181.11 1468.33 Q1181.11 1459.58 1184.17 1455 Q1187.24 1450.39 1193.05 1450.39 Z" fill="#000000" fill-rule="nonzero" fill-opacity="1" /><path clip-path="url(#clip820)" d="M1217.24 1481.64 L1233.56 1481.64 L1233.56 1485.58 L1211.62 1485.58 L1211.62 1481.64 Q1214.28 1478.89 1218.86 1474.26 Q1223.47 1469.61 1224.65 1468.27 Q1226.9 1465.74 1227.78 1464.01 Q1228.68 1462.25 1228.68 1460.56 Q1228.68 1457.8 1226.73 1456.07 Q1224.81 1454.33 1221.71 1454.33 Q1219.51 1454.33 1217.06 1455.09 Q1214.63 1455.86 1211.85 1457.41 L1211.85 1452.69 Q1214.67 1451.55 1217.13 1450.97 Q1219.58 1450.39 1221.62 1450.39 Q1226.99 1450.39 1230.18 1453.08 Q1233.38 1455.77 1233.38 1460.26 Q1233.38 1462.39 1232.57 1464.31 Q1231.78 1466.2 1229.67 1468.8 Q1229.1 1469.47 1225.99 1472.69 Q1222.89 1475.88 1217.24 1481.64 Z" fill="#000000" fill-rule="nonzero" fill-opacity="1" /><path clip-path="url(#clip820)" d="M1244.19 1481.64 L1251.83 1481.64 L1251.83 1455.28 L1243.52 1456.95 L1243.52 1452.69 L1251.78 1451.02 L1256.46 1451.02 L1256.46 1481.64 L1264.1 1481.64 L1264.1 1485.58 L1244.19 1485.58 L1244.19 1481.64 Z" fill="#000000" fill-rule="nonzero" fill-opacity="1" /><path clip-path="url(#clip820)" d="M1270.79 1470.7 L1283.26 1470.7 L1283.26 1474.49 L1270.79 1474.49 L1270.79 1470.7 Z" fill="#000000" fill-rule="nonzero" fill-opacity="1" /><path clip-path="url(#clip820)" d="M1300.65 1454.1 Q1297.04 1454.1 1295.21 1457.66 Q1293.4 1461.2 1293.4 1468.33 Q1293.4 1475.44 1295.21 1479.01 Q1297.04 1482.55 1300.65 1482.55 Q1304.28 1482.55 1306.09 1479.01 Q1307.91 1475.44 1307.91 1468.33 Q1307.91 1461.2 1306.09 1457.66 Q1304.28 1454.1 1300.65 1454.1 M1300.65 1450.39 Q1306.46 1450.39 1309.51 1455 Q1312.59 1459.58 1312.59 1468.33 Q1312.59 1477.06 1309.51 1481.67 Q1306.46 1486.25 1300.65 1486.25 Q1294.84 1486.25 1291.76 1481.67 Q1288.7 1477.06 1288.7 1468.33 Q1288.7 1459.58 1291.76 1455 Q1294.84 1450.39 1300.65 1450.39 Z" fill="#000000" fill-rule="nonzero" fill-opacity="1" /><path clip-path="url(#clip820)" d="M1321.62 1481.64 L1329.26 1481.64 L1329.26 1455.28 L1320.95 1456.95 L1320.95 1452.69 L1329.21 1451.02 L1333.89 1451.02 L1333.89 1481.64 L1341.53 1481.64 L1341.53 1485.58 L1321.62 1485.58 L1321.62 1481.64 Z" fill="#000000" fill-rule="nonzero" fill-opacity="1" /><path clip-path="url(#clip820)" d="M1348.22 1470.7 L1360.69 1470.7 L1360.69 1474.49 L1348.22 1474.49 L1348.22 1470.7 Z" fill="#000000" fill-rule="nonzero" fill-opacity="1" /><path clip-path="url(#clip820)" d="M1378.08 1454.1 Q1374.47 1454.1 1372.64 1457.66 Q1370.83 1461.2 1370.83 1468.33 Q1370.83 1475.44 1372.64 1479.01 Q1374.47 1482.55 1378.08 1482.55 Q1381.71 1482.55 1383.52 1479.01 Q1385.34 1475.44 1385.34 1468.33 Q1385.34 1461.2 1383.52 1457.66 Q1381.71 1454.1 1378.08 1454.1 M1378.08 1450.39 Q1383.89 1450.39 1386.94 1455 Q1390.02 1459.58 1390.02 1468.33 Q1390.02 1477.06 1386.94 1481.67 Q1383.89 1486.25 1378.08 1486.25 Q1372.27 1486.25 1369.19 1481.67 Q1366.13 1477.06 1366.13 1468.33 Q1366.13 1459.58 1369.19 1455 Q1372.27 1450.39 1378.08 1450.39 Z" fill="#000000" fill-rule="nonzero" fill-opacity="1" /><path clip-path="url(#clip820)" d="M1399.05 1481.64 L1406.69 1481.64 L1406.69 1455.28 L1398.38 1456.95 L1398.38 1452.69 L1406.64 1451.02 L1411.32 1451.02 L1411.32 1481.64 L1418.96 1481.64 L1418.96 1485.58 L1399.05 1485.58 L1399.05 1481.64 Z" fill="#000000" fill-rule="nonzero" fill-opacity="1" /><path clip-path="url(#clip820)" d="M1661.49 1481.64 L1677.81 1481.64 L1677.81 1485.58 L1655.86 1485.58 L1655.86 1481.64 Q1658.53 1478.89 1663.11 1474.26 Q1667.72 1469.61 1668.9 1468.27 Q1671.14 1465.74 1672.02 1464.01 Q1672.92 1462.25 1672.92 1460.56 Q1672.92 1457.8 1670.98 1456.07 Q1669.06 1454.33 1665.96 1454.33 Q1663.76 1454.33 1661.3 1455.09 Q1658.87 1455.86 1656.09 1457.41 L1656.09 1452.69 Q1658.92 1451.55 1661.37 1450.97 Q1663.83 1450.39 1665.86 1450.39 Q1671.23 1450.39 1674.43 1453.08 Q1677.62 1455.77 1677.62 1460.26 Q1677.62 1462.39 1676.81 1464.31 Q1676.03 1466.2 1673.92 1468.8 Q1673.34 1469.47 1670.24 1472.69 Q1667.14 1475.88 1661.49 1481.64 Z" fill="#000000" fill-rule="nonzero" fill-opacity="1" /><path clip-path="url(#clip820)" d="M1697.62 1454.1 Q1694.01 1454.1 1692.18 1457.66 Q1690.38 1461.2 1690.38 1468.33 Q1690.38 1475.44 1692.18 1479.01 Q1694.01 1482.55 1697.62 1482.55 Q1701.26 1482.55 1703.06 1479.01 Q1704.89 1475.44 1704.89 1468.33 Q1704.89 1461.2 1703.06 1457.66 Q1701.26 1454.1 1697.62 1454.1 M1697.62 1450.39 Q1703.43 1450.39 1706.49 1455 Q1709.57 1459.58 1709.57 1468.33 Q1709.57 1477.06 1706.49 1481.67 Q1703.43 1486.25 1697.62 1486.25 Q1691.81 1486.25 1688.73 1481.67 Q1685.68 1477.06 1685.68 1468.33 Q1685.68 1459.58 1688.73 1455 Q1691.81 1450.39 1697.62 1450.39 Z" fill="#000000" fill-rule="nonzero" fill-opacity="1" /><path clip-path="url(#clip820)" d="M1721.81 1481.64 L1738.13 1481.64 L1738.13 1485.58 L1716.19 1485.58 L1716.19 1481.64 Q1718.85 1478.89 1723.43 1474.26 Q1728.04 1469.61 1729.22 1468.27 Q1731.46 1465.74 1732.34 1464.01 Q1733.25 1462.25 1733.25 1460.56 Q1733.25 1457.8 1731.3 1456.07 Q1729.38 1454.33 1726.28 1454.33 Q1724.08 1454.33 1721.63 1455.09 Q1719.2 1455.86 1716.42 1457.41 L1716.42 1452.69 Q1719.24 1451.55 1721.7 1450.97 Q1724.15 1450.39 1726.19 1450.39 Q1731.56 1450.39 1734.75 1453.08 Q1737.95 1455.77 1737.95 1460.26 Q1737.95 1462.39 1737.14 1464.31 Q1736.35 1466.2 1734.24 1468.8 Q1733.66 1469.47 1730.56 1472.69 Q1727.46 1475.88 1721.81 1481.64 Z" fill="#000000" fill-rule="nonzero" fill-opacity="1" /><path clip-path="url(#clip820)" d="M1751.97 1481.64 L1768.29 1481.64 L1768.29 1485.58 L1746.35 1485.58 L1746.35 1481.64 Q1749.01 1478.89 1753.59 1474.26 Q1758.2 1469.61 1759.38 1468.27 Q1761.63 1465.74 1762.51 1464.01 Q1763.41 1462.25 1763.41 1460.56 Q1763.41 1457.8 1761.46 1456.07 Q1759.54 1454.33 1756.44 1454.33 Q1754.24 1454.33 1751.79 1455.09 Q1749.36 1455.86 1746.58 1457.41 L1746.58 1452.69 Q1749.4 1451.55 1751.86 1450.97 Q1754.31 1450.39 1756.35 1450.39 Q1761.72 1450.39 1764.91 1453.08 Q1768.11 1455.77 1768.11 1460.26 Q1768.11 1462.39 1767.3 1464.31 Q1766.51 1466.2 1764.4 1468.8 Q1763.83 1469.47 1760.72 1472.69 Q1757.62 1475.88 1751.97 1481.64 Z" fill="#000000" fill-rule="nonzero" fill-opacity="1" /><path clip-path="url(#clip820)" d="M1775.35 1470.7 L1787.83 1470.7 L1787.83 1474.49 L1775.35 1474.49 L1775.35 1470.7 Z" fill="#000000" fill-rule="nonzero" fill-opacity="1" /><path clip-path="url(#clip820)" d="M1805.21 1454.1 Q1801.6 1454.1 1799.77 1457.66 Q1797.97 1461.2 1797.97 1468.33 Q1797.97 1475.44 1799.77 1479.01 Q1801.6 1482.55 1805.21 1482.55 Q1808.85 1482.55 1810.65 1479.01 Q1812.48 1475.44 1812.48 1468.33 Q1812.48 1461.2 1810.65 1457.66 Q1808.85 1454.1 1805.21 1454.1 M1805.21 1450.39 Q1811.02 1450.39 1814.08 1455 Q1817.16 1459.58 1817.16 1468.33 Q1817.16 1477.06 1814.08 1481.67 Q1811.02 1486.25 1805.21 1486.25 Q1799.4 1486.25 1796.33 1481.67 Q1793.27 1477.06 1793.27 1468.33 Q1793.27 1459.58 1796.33 1455 Q1799.4 1450.39 1805.21 1450.39 Z" fill="#000000" fill-rule="nonzero" fill-opacity="1" /><path clip-path="url(#clip820)" d="M1826.19 1481.64 L1833.83 1481.64 L1833.83 1455.28 L1825.52 1456.95 L1825.52 1452.69 L1833.78 1451.02 L1838.45 1451.02 L1838.45 1481.64 L1846.09 1481.64 L1846.09 1485.58 L1826.19 1485.58 L1826.19 1481.64 Z" fill="#000000" fill-rule="nonzero" fill-opacity="1" /><path clip-path="url(#clip820)" d="M1852.78 1470.7 L1865.26 1470.7 L1865.26 1474.49 L1852.78 1474.49 L1852.78 1470.7 Z" fill="#000000" fill-rule="nonzero" fill-opacity="1" /><path clip-path="url(#clip820)" d="M1882.64 1454.1 Q1879.03 1454.1 1877.2 1457.66 Q1875.4 1461.2 1875.4 1468.33 Q1875.4 1475.44 1877.2 1479.01 Q1879.03 1482.55 1882.64 1482.55 Q1886.28 1482.55 1888.08 1479.01 Q1889.91 1475.44 1889.91 1468.33 Q1889.91 1461.2 1888.08 1457.66 Q1886.28 1454.1 1882.64 1454.1 M1882.64 1450.39 Q1888.45 1450.39 1891.51 1455 Q1894.59 1459.58 1894.59 1468.33 Q1894.59 1477.06 1891.51 1481.67 Q1888.45 1486.25 1882.64 1486.25 Q1876.83 1486.25 1873.76 1481.67 Q1870.7 1477.06 1870.7 1468.33 Q1870.7 1459.58 1873.76 1455 Q1876.83 1450.39 1882.64 1450.39 Z" fill="#000000" fill-rule="nonzero" fill-opacity="1" /><path clip-path="url(#clip820)" d="M1903.62 1481.64 L1911.26 1481.64 L1911.26 1455.28 L1902.95 1456.95 L1902.95 1452.69 L1911.21 1451.02 L1915.89 1451.02 L1915.89 1481.64 L1923.52 1481.64 L1923.52 1485.58 L1903.62 1485.58 L1903.62 1481.64 Z" fill="#000000" fill-rule="nonzero" fill-opacity="1" /><path clip-path="url(#clip820)" d="M2166.06 1481.64 L2182.38 1481.64 L2182.38 1485.58 L2160.43 1485.58 L2160.43 1481.64 Q2163.09 1478.89 2167.68 1474.26 Q2172.28 1469.61 2173.46 1468.27 Q2175.71 1465.74 2176.59 1464.01 Q2177.49 1462.25 2177.49 1460.56 Q2177.49 1457.8 2175.55 1456.07 Q2173.63 1454.33 2170.52 1454.33 Q2168.32 1454.33 2165.87 1455.09 Q2163.44 1455.86 2160.66 1457.41 L2160.66 1452.69 Q2163.49 1451.55 2165.94 1450.97 Q2168.39 1450.39 2170.43 1450.39 Q2175.8 1450.39 2179 1453.08 Q2182.19 1455.77 2182.19 1460.26 Q2182.19 1462.39 2181.38 1464.31 Q2180.59 1466.2 2178.49 1468.8 Q2177.91 1469.47 2174.81 1472.69 Q2171.7 1475.88 2166.06 1481.64 Z" fill="#000000" fill-rule="nonzero" fill-opacity="1" /><path clip-path="url(#clip820)" d="M2202.19 1454.1 Q2198.58 1454.1 2196.75 1457.66 Q2194.95 1461.2 2194.95 1468.33 Q2194.95 1475.44 2196.75 1479.01 Q2198.58 1482.55 2202.19 1482.55 Q2205.82 1482.55 2207.63 1479.01 Q2209.46 1475.44 2209.46 1468.33 Q2209.46 1461.2 2207.63 1457.66 Q2205.82 1454.1 2202.19 1454.1 M2202.19 1450.39 Q2208 1450.39 2211.06 1455 Q2214.13 1459.58 2214.13 1468.33 Q2214.13 1477.06 2211.06 1481.67 Q2208 1486.25 2202.19 1486.25 Q2196.38 1486.25 2193.3 1481.67 Q2190.25 1477.06 2190.25 1468.33 Q2190.25 1459.58 2193.3 1455 Q2196.38 1450.39 2202.19 1450.39 Z" fill="#000000" fill-rule="nonzero" fill-opacity="1" /><path clip-path="url(#clip820)" d="M2226.38 1481.64 L2242.7 1481.64 L2242.7 1485.58 L2220.76 1485.58 L2220.76 1481.64 Q2223.42 1478.89 2228 1474.26 Q2232.61 1469.61 2233.79 1468.27 Q2236.03 1465.74 2236.91 1464.01 Q2237.82 1462.25 2237.82 1460.56 Q2237.82 1457.8 2235.87 1456.07 Q2233.95 1454.33 2230.85 1454.33 Q2228.65 1454.33 2226.19 1455.09 Q2223.76 1455.86 2220.99 1457.41 L2220.99 1452.69 Q2223.81 1451.55 2226.26 1450.97 Q2228.72 1450.39 2230.76 1450.39 Q2236.13 1450.39 2239.32 1453.08 Q2242.51 1455.77 2242.51 1460.26 Q2242.51 1462.39 2241.7 1464.31 Q2240.92 1466.2 2238.81 1468.8 Q2238.23 1469.47 2235.13 1472.69 Q2232.03 1475.88 2226.38 1481.64 Z" fill="#000000" fill-rule="nonzero" fill-opacity="1" /><path clip-path="url(#clip820)" d="M2266.68 1466.95 Q2270.04 1467.66 2271.91 1469.93 Q2273.81 1472.2 2273.81 1475.53 Q2273.81 1480.65 2270.29 1483.45 Q2266.77 1486.25 2260.29 1486.25 Q2258.12 1486.25 2255.8 1485.81 Q2253.51 1485.39 2251.06 1484.54 L2251.06 1480.02 Q2253 1481.16 2255.32 1481.74 Q2257.63 1482.32 2260.15 1482.32 Q2264.55 1482.32 2266.84 1480.58 Q2269.16 1478.84 2269.16 1475.53 Q2269.16 1472.48 2267 1470.77 Q2264.88 1469.03 2261.06 1469.03 L2257.03 1469.03 L2257.03 1465.19 L2261.24 1465.19 Q2264.69 1465.19 2266.52 1463.82 Q2268.35 1462.43 2268.35 1459.84 Q2268.35 1457.18 2266.45 1455.77 Q2264.57 1454.33 2261.06 1454.33 Q2259.13 1454.33 2256.94 1454.75 Q2254.74 1455.16 2252.1 1456.04 L2252.1 1451.88 Q2254.76 1451.14 2257.07 1450.77 Q2259.41 1450.39 2261.47 1450.39 Q2266.8 1450.39 2269.9 1452.83 Q2273 1455.23 2273 1459.35 Q2273 1462.22 2271.36 1464.21 Q2269.71 1466.18 2266.68 1466.95 Z" fill="#000000" fill-rule="nonzero" fill-opacity="1" /><path clip-path="url(#clip820)" d="M2279.92 1470.7 L2292.4 1470.7 L2292.4 1474.49 L2279.92 1474.49 L2279.92 1470.7 Z" fill="#000000" fill-rule="nonzero" fill-opacity="1" /><path clip-path="url(#clip820)" d="M2309.78 1454.1 Q2306.17 1454.1 2304.34 1457.66 Q2302.54 1461.2 2302.54 1468.33 Q2302.54 1475.44 2304.34 1479.01 Q2306.17 1482.55 2309.78 1482.55 Q2313.42 1482.55 2315.22 1479.01 Q2317.05 1475.44 2317.05 1468.33 Q2317.05 1461.2 2315.22 1457.66 Q2313.42 1454.1 2309.78 1454.1 M2309.78 1450.39 Q2315.59 1450.39 2318.65 1455 Q2321.73 1459.58 2321.73 1468.33 Q2321.73 1477.06 2318.65 1481.67 Q2315.59 1486.25 2309.78 1486.25 Q2303.97 1486.25 2300.89 1481.67 Q2297.84 1477.06 2297.84 1468.33 Q2297.84 1459.58 2300.89 1455 Q2303.97 1450.39 2309.78 1450.39 Z" fill="#000000" fill-rule="nonzero" fill-opacity="1" /><path clip-path="url(#clip820)" d="M2330.75 1481.64 L2338.39 1481.64 L2338.39 1455.28 L2330.08 1456.95 L2330.08 1452.69 L2338.35 1451.02 L2343.02 1451.02 L2343.02 1481.64 L2350.66 1481.64 L2350.66 1485.58 L2330.75 1485.58 L2330.75 1481.64 Z" fill="#000000" fill-rule="nonzero" fill-opacity="1" /><path clip-path="url(#clip820)" d="M2357.35 1470.7 L2369.83 1470.7 L2369.83 1474.49 L2357.35 1474.49 L2357.35 1470.7 Z" fill="#000000" fill-rule="nonzero" fill-opacity="1" /><path clip-path="url(#clip820)" d="M2387.21 1454.1 Q2383.6 1454.1 2381.77 1457.66 Q2379.97 1461.2 2379.97 1468.33 Q2379.97 1475.44 2381.77 1479.01 Q2383.6 1482.55 2387.21 1482.55 Q2390.85 1482.55 2392.65 1479.01 Q2394.48 1475.44 2394.48 1468.33 Q2394.48 1461.2 2392.65 1457.66 Q2390.85 1454.1 2387.21 1454.1 M2387.21 1450.39 Q2393.02 1450.39 2396.08 1455 Q2399.16 1459.58 2399.16 1468.33 Q2399.16 1477.06 2396.08 1481.67 Q2393.02 1486.25 2387.21 1486.25 Q2381.4 1486.25 2378.32 1481.67 Q2375.27 1477.06 2375.27 1468.33 Q2375.27 1459.58 2378.32 1455 Q2381.4 1450.39 2387.21 1450.39 Z" fill="#000000" fill-rule="nonzero" fill-opacity="1" /><path clip-path="url(#clip820)" d="M2408.18 1481.64 L2415.82 1481.64 L2415.82 1455.28 L2407.51 1456.95 L2407.51 1452.69 L2415.78 1451.02 L2420.45 1451.02 L2420.45 1481.64 L2428.09 1481.64 L2428.09 1485.58 L2408.18 1485.58 L2408.18 1481.64 Z" fill="#000000" fill-rule="nonzero" fill-opacity="1" /><path clip-path="url(#clip820)" d="M1218.73 1525.81 L1218.73 1562.76 L1226.5 1562.76 Q1236.33 1562.76 1240.88 1558.3 Q1245.47 1553.85 1245.47 1544.24 Q1245.47 1534.69 1240.88 1530.26 Q1236.33 1525.81 1226.5 1525.81 L1218.73 1525.81 M1212.3 1520.52 L1225.51 1520.52 Q1239.32 1520.52 1245.79 1526.28 Q1252.25 1532.01 1252.25 1544.24 Q1252.25 1556.52 1245.75 1562.28 Q1239.26 1568.04 1225.51 1568.04 L1212.3 1568.04 L1212.3 1520.52 Z" fill="#000000" fill-rule="nonzero" fill-opacity="1" /><path clip-path="url(#clip820)" d="M1278.44 1550.12 Q1271.34 1550.12 1268.61 1551.75 Q1265.87 1553.37 1265.87 1557.29 Q1265.87 1560.4 1267.91 1562.25 Q1269.98 1564.07 1273.51 1564.07 Q1278.38 1564.07 1281.31 1560.63 Q1284.27 1557.16 1284.27 1551.43 L1284.27 1550.12 L1278.44 1550.12 M1290.12 1547.71 L1290.12 1568.04 L1284.27 1568.04 L1284.27 1562.63 Q1282.26 1565.88 1279.27 1567.44 Q1276.28 1568.97 1271.95 1568.97 Q1266.47 1568.97 1263.23 1565.91 Q1260.01 1562.82 1260.01 1557.67 Q1260.01 1551.65 1264.02 1548.6 Q1268.07 1545.54 1276.06 1545.54 L1284.27 1545.54 L1284.27 1544.97 Q1284.27 1540.93 1281.59 1538.73 Q1278.95 1536.5 1274.15 1536.5 Q1271.09 1536.5 1268.19 1537.23 Q1265.3 1537.97 1262.62 1539.43 L1262.62 1534.02 Q1265.84 1532.78 1268.86 1532.17 Q1271.89 1531.54 1274.75 1531.54 Q1282.48 1531.54 1286.3 1535.55 Q1290.12 1539.56 1290.12 1547.71 Z" fill="#000000" fill-rule="nonzero" fill-opacity="1" /><path clip-path="url(#clip820)" d="M1307.98 1522.27 L1307.98 1532.4 L1320.04 1532.4 L1320.04 1536.95 L1307.98 1536.95 L1307.98 1556.3 Q1307.98 1560.66 1309.16 1561.9 Q1310.37 1563.14 1314.03 1563.14 L1320.04 1563.14 L1320.04 1568.04 L1314.03 1568.04 Q1307.25 1568.04 1304.67 1565.53 Q1302.09 1562.98 1302.09 1556.3 L1302.09 1536.95 L1297.79 1536.95 L1297.79 1532.4 L1302.09 1532.4 L1302.09 1522.27 L1307.98 1522.27 Z" fill="#000000" fill-rule="nonzero" fill-opacity="1" /><path clip-path="url(#clip820)" d="M1358.24 1548.76 L1358.24 1551.62 L1331.31 1551.62 Q1331.69 1557.67 1334.94 1560.85 Q1338.22 1564 1344.04 1564 Q1347.41 1564 1350.57 1563.17 Q1353.75 1562.35 1356.87 1560.69 L1356.87 1566.23 Q1353.72 1567.57 1350.41 1568.27 Q1347.1 1568.97 1343.69 1568.97 Q1335.16 1568.97 1330.16 1564 Q1325.2 1559.04 1325.2 1550.57 Q1325.2 1541.82 1329.91 1536.69 Q1334.65 1531.54 1342.67 1531.54 Q1349.87 1531.54 1354.03 1536.18 Q1358.24 1540.8 1358.24 1548.76 M1352.38 1547.04 Q1352.32 1542.23 1349.67 1539.37 Q1347.06 1536.5 1342.74 1536.5 Q1337.83 1536.5 1334.87 1539.27 Q1331.95 1542.04 1331.5 1547.07 L1352.38 1547.04 Z" fill="#000000" fill-rule="nonzero" fill-opacity="1" /><polyline clip-path="url(#clip820)" style="stroke:#000000; stroke-linecap:round; stroke-linejoin:round; stroke-width:4; stroke-opacity:1; fill:none" points="217.783,1423.18 217.783,47.2441 "/>
<polyline clip-path="url(#clip820)" style="stroke:#000000; stroke-linecap:round; stroke-linejoin:round; stroke-width:4; stroke-opacity:1; fill:none" points="217.783,1378.74 236.681,1378.74 "/>
<polyline clip-path="url(#clip820)" style="stroke:#000000; stroke-linecap:round; stroke-linejoin:round; stroke-width:4; stroke-opacity:1; fill:none" points="217.783,1107.96 236.681,1107.96 "/>
<polyline clip-path="url(#clip820)" style="stroke:#000000; stroke-linecap:round; stroke-linejoin:round; stroke-width:4; stroke-opacity:1; fill:none" points="217.783,837.172 236.681,837.172 "/>
<polyline clip-path="url(#clip820)" style="stroke:#000000; stroke-linecap:round; stroke-linejoin:round; stroke-width:4; stroke-opacity:1; fill:none" points="217.783,566.388 236.681,566.388 "/>
<polyline clip-path="url(#clip820)" style="stroke:#000000; stroke-linecap:round; stroke-linejoin:round; stroke-width:4; stroke-opacity:1; fill:none" points="217.783,295.605 236.681,295.605 "/>
<path clip-path="url(#clip820)" d="M115.418 1392.08 L123.056 1392.08 L123.056 1365.72 L114.746 1367.39 L114.746 1363.13 L123.01 1361.46 L127.686 1361.46 L127.686 1392.08 L135.325 1392.08 L135.325 1396.02 L115.418 1396.02 L115.418 1392.08 Z" fill="#000000" fill-rule="nonzero" fill-opacity="1" /><path clip-path="url(#clip820)" d="M144.769 1390.14 L149.653 1390.14 L149.653 1396.02 L144.769 1396.02 L144.769 1390.14 Z" fill="#000000" fill-rule="nonzero" fill-opacity="1" /><path clip-path="url(#clip820)" d="M169.839 1364.54 Q166.227 1364.54 164.399 1368.1 Q162.593 1371.64 162.593 1378.77 Q162.593 1385.88 164.399 1389.45 Q166.227 1392.99 169.839 1392.99 Q173.473 1392.99 175.278 1389.45 Q177.107 1385.88 177.107 1378.77 Q177.107 1371.64 175.278 1368.1 Q173.473 1364.54 169.839 1364.54 M169.839 1360.83 Q175.649 1360.83 178.704 1365.44 Q181.783 1370.02 181.783 1378.77 Q181.783 1387.5 178.704 1392.11 Q175.649 1396.69 169.839 1396.69 Q164.028 1396.69 160.95 1392.11 Q157.894 1387.5 157.894 1378.77 Q157.894 1370.02 160.95 1365.44 Q164.028 1360.83 169.839 1360.83 Z" fill="#000000" fill-rule="nonzero" fill-opacity="1" /><path clip-path="url(#clip820)" d="M117.015 1121.3 L124.654 1121.3 L124.654 1094.93 L116.343 1096.6 L116.343 1092.34 L124.607 1090.68 L129.283 1090.68 L129.283 1121.3 L136.922 1121.3 L136.922 1125.24 L117.015 1125.24 L117.015 1121.3 Z" fill="#000000" fill-rule="nonzero" fill-opacity="1" /><path clip-path="url(#clip820)" d="M146.366 1119.36 L151.251 1119.36 L151.251 1125.24 L146.366 1125.24 L146.366 1119.36 Z" fill="#000000" fill-rule="nonzero" fill-opacity="1" /><path clip-path="url(#clip820)" d="M165.464 1121.3 L181.783 1121.3 L181.783 1125.24 L159.839 1125.24 L159.839 1121.3 Q162.501 1118.55 167.084 1113.92 Q171.69 1109.26 172.871 1107.92 Q175.116 1105.4 175.996 1103.66 Q176.899 1101.9 176.899 1100.21 Q176.899 1097.46 174.954 1095.72 Q173.033 1093.99 169.931 1093.99 Q167.732 1093.99 165.278 1094.75 Q162.848 1095.51 160.07 1097.06 L160.07 1092.34 Q162.894 1091.21 165.348 1090.63 Q167.802 1090.05 169.839 1090.05 Q175.209 1090.05 178.403 1092.74 Q181.598 1095.42 181.598 1099.91 Q181.598 1102.04 180.788 1103.96 Q180.001 1105.86 177.894 1108.45 Q177.315 1109.12 174.214 1112.34 Q171.112 1115.54 165.464 1121.3 Z" fill="#000000" fill-rule="nonzero" fill-opacity="1" /><path clip-path="url(#clip820)" d="M114.931 850.517 L122.57 850.517 L122.57 824.151 L114.26 825.818 L114.26 821.559 L122.524 819.892 L127.2 819.892 L127.2 850.517 L134.839 850.517 L134.839 854.452 L114.931 854.452 L114.931 850.517 Z" fill="#000000" fill-rule="nonzero" fill-opacity="1" /><path clip-path="url(#clip820)" d="M144.283 848.572 L149.167 848.572 L149.167 854.452 L144.283 854.452 L144.283 848.572 Z" fill="#000000" fill-rule="nonzero" fill-opacity="1" /><path clip-path="url(#clip820)" d="M172.2 823.966 L160.394 842.415 L172.2 842.415 L172.2 823.966 M170.973 819.892 L176.852 819.892 L176.852 842.415 L181.783 842.415 L181.783 846.304 L176.852 846.304 L176.852 854.452 L172.2 854.452 L172.2 846.304 L156.598 846.304 L156.598 841.79 L170.973 819.892 Z" fill="#000000" fill-rule="nonzero" fill-opacity="1" /><path clip-path="url(#clip820)" d="M115.256 579.733 L122.894 579.733 L122.894 553.368 L114.584 555.034 L114.584 550.775 L122.848 549.108 L127.524 549.108 L127.524 579.733 L135.163 579.733 L135.163 583.668 L115.256 583.668 L115.256 579.733 Z" fill="#000000" fill-rule="nonzero" fill-opacity="1" /><path clip-path="url(#clip820)" d="M144.607 577.789 L149.491 577.789 L149.491 583.668 L144.607 583.668 L144.607 577.789 Z" fill="#000000" fill-rule="nonzero" fill-opacity="1" /><path clip-path="url(#clip820)" d="M170.255 564.525 Q167.107 564.525 165.255 566.678 Q163.427 568.83 163.427 572.58 Q163.427 576.307 165.255 578.483 Q167.107 580.636 170.255 580.636 Q173.403 580.636 175.232 578.483 Q177.084 576.307 177.084 572.58 Q177.084 568.83 175.232 566.678 Q173.403 564.525 170.255 564.525 M179.538 549.872 L179.538 554.131 Q177.778 553.298 175.973 552.858 Q174.19 552.418 172.431 552.418 Q167.802 552.418 165.348 555.543 Q162.917 558.668 162.57 564.988 Q163.936 562.974 165.996 561.909 Q168.056 560.821 170.533 560.821 Q175.741 560.821 178.751 563.992 Q181.783 567.141 181.783 572.58 Q181.783 577.904 178.635 581.122 Q175.487 584.34 170.255 584.34 Q164.26 584.34 161.089 579.756 Q157.917 575.15 157.917 566.423 Q157.917 558.229 161.806 553.368 Q165.695 548.483 172.246 548.483 Q174.005 548.483 175.788 548.831 Q177.593 549.178 179.538 549.872 Z" fill="#000000" fill-rule="nonzero" fill-opacity="1" /><path clip-path="url(#clip820)" d="M115.51 308.949 L123.149 308.949 L123.149 282.584 L114.839 284.25 L114.839 279.991 L123.103 278.325 L127.779 278.325 L127.779 308.949 L135.417 308.949 L135.417 312.885 L115.51 312.885 L115.51 308.949 Z" fill="#000000" fill-rule="nonzero" fill-opacity="1" /><path clip-path="url(#clip820)" d="M144.862 307.005 L149.746 307.005 L149.746 312.885 L144.862 312.885 L144.862 307.005 Z" fill="#000000" fill-rule="nonzero" fill-opacity="1" /><path clip-path="url(#clip820)" d="M169.931 296.473 Q166.598 296.473 164.677 298.255 Q162.778 300.037 162.778 303.162 Q162.778 306.287 164.677 308.07 Q166.598 309.852 169.931 309.852 Q173.264 309.852 175.186 308.07 Q177.107 306.264 177.107 303.162 Q177.107 300.037 175.186 298.255 Q173.288 296.473 169.931 296.473 M165.255 294.482 Q162.246 293.741 160.556 291.681 Q158.89 289.621 158.89 286.658 Q158.89 282.514 161.829 280.107 Q164.792 277.7 169.931 277.7 Q175.093 277.7 178.033 280.107 Q180.973 282.514 180.973 286.658 Q180.973 289.621 179.283 291.681 Q177.616 293.741 174.63 294.482 Q178.01 295.269 179.885 297.561 Q181.783 299.852 181.783 303.162 Q181.783 308.186 178.704 310.871 Q175.649 313.556 169.931 313.556 Q164.214 313.556 161.135 310.871 Q158.079 308.186 158.079 303.162 Q158.079 299.852 159.978 297.561 Q161.876 295.269 165.255 294.482 M163.542 287.098 Q163.542 289.783 165.209 291.287 Q166.899 292.792 169.931 292.792 Q172.94 292.792 174.63 291.287 Q176.343 289.783 176.343 287.098 Q176.343 284.413 174.63 282.908 Q172.94 281.403 169.931 281.403 Q166.899 281.403 165.209 282.908 Q163.542 284.413 163.542 287.098 Z" fill="#000000" fill-rule="nonzero" fill-opacity="1" /><path clip-path="url(#clip820)" d="M20.1444 1028.58 L26.9239 1028.58 Q23.9002 1031.82 22.4043 1035.51 Q20.9083 1039.17 20.9083 1043.31 Q20.9083 1051.46 25.9054 1055.79 Q30.8707 1060.12 40.2919 1060.12 Q49.6813 1060.12 54.6784 1055.79 Q59.6436 1051.46 59.6436 1043.31 Q59.6436 1039.17 58.1477 1035.51 Q56.6518 1031.82 53.6281 1028.58 L60.3439 1028.58 Q62.6355 1031.95 63.7814 1035.74 Q64.9272 1039.49 64.9272 1043.69 Q64.9272 1054.48 58.3387 1060.69 Q51.7183 1066.9 40.2919 1066.9 Q28.8336 1066.9 22.2451 1060.69 Q15.6248 1054.48 15.6248 1043.69 Q15.6248 1039.43 16.7706 1035.67 Q17.8846 1031.89 20.1444 1028.58 Z" fill="#000000" fill-rule="nonzero" fill-opacity="1" /><path clip-path="url(#clip820)" d="M49.9359 1019.5 L28.3562 1019.5 L28.3562 1013.65 L49.7131 1013.65 Q54.7739 1013.65 57.3202 1011.67 Q59.8346 1009.7 59.8346 1005.75 Q59.8346 1001.01 56.8109 998.275 Q53.7872 995.506 48.5673 995.506 L28.3562 995.506 L28.3562 989.649 L64.0042 989.649 L64.0042 995.506 L58.5296 995.506 Q61.7762 997.638 63.3676 1000.47 Q64.9272 1003.27 64.9272 1007 Q64.9272 1013.14 61.1078 1016.32 Q57.2883 1019.5 49.9359 1019.5 M27.4968 1004.77 L27.4968 1004.77 Z" fill="#000000" fill-rule="nonzero" fill-opacity="1" /><path clip-path="url(#clip820)" d="M35.1993 949.832 Q31.2526 947.636 29.3747 944.58 Q27.4968 941.525 27.4968 937.387 Q27.4968 931.817 31.4117 928.793 Q35.2948 925.769 42.4881 925.769 L64.0042 925.769 L64.0042 931.658 L42.679 931.658 Q37.5546 931.658 35.072 933.472 Q32.5894 935.286 32.5894 939.01 Q32.5894 943.562 35.6131 946.203 Q38.6368 948.845 43.8567 948.845 L64.0042 948.845 L64.0042 954.733 L42.679 954.733 Q37.5228 954.733 35.072 956.548 Q32.5894 958.362 32.5894 962.149 Q32.5894 966.637 35.6449 969.279 Q38.6686 971.921 43.8567 971.921 L64.0042 971.921 L64.0042 977.809 L28.3562 977.809 L28.3562 971.921 L33.8944 971.921 Q30.616 969.916 29.0564 967.115 Q27.4968 964.314 27.4968 960.462 Q27.4968 956.579 29.4702 953.874 Q31.4436 951.137 35.1993 949.832 Z" fill="#000000" fill-rule="nonzero" fill-opacity="1" /><path clip-path="url(#clip820)" d="M35.1993 886.334 Q31.2526 884.138 29.3747 881.082 Q27.4968 878.027 27.4968 873.889 Q27.4968 868.319 31.4117 865.295 Q35.2948 862.271 42.4881 862.271 L64.0042 862.271 L64.0042 868.16 L42.679 868.16 Q37.5546 868.16 35.072 869.974 Q32.5894 871.788 32.5894 875.512 Q32.5894 880.064 35.6131 882.705 Q38.6368 885.347 43.8567 885.347 L64.0042 885.347 L64.0042 891.235 L42.679 891.235 Q37.5228 891.235 35.072 893.05 Q32.5894 894.864 32.5894 898.651 Q32.5894 903.139 35.6449 905.781 Q38.6686 908.423 43.8567 908.423 L64.0042 908.423 L64.0042 914.311 L28.3562 914.311 L28.3562 908.423 L33.8944 908.423 Q30.616 906.418 29.0564 903.617 Q27.4968 900.816 27.4968 896.965 Q27.4968 893.081 29.4702 890.376 Q31.4436 887.639 35.1993 886.334 Z" fill="#000000" fill-rule="nonzero" fill-opacity="1" /><path clip-path="url(#clip820)" d="M49.9359 851.195 L28.3562 851.195 L28.3562 845.339 L49.7131 845.339 Q54.7739 845.339 57.3202 843.365 Q59.8346 841.392 59.8346 837.445 Q59.8346 832.703 56.8109 829.966 Q53.7872 827.196 48.5673 827.196 L28.3562 827.196 L28.3562 821.34 L64.0042 821.34 L64.0042 827.196 L58.5296 827.196 Q61.7762 829.329 63.3676 832.162 Q64.9272 834.963 64.9272 838.687 Q64.9272 844.829 61.1078 848.012 Q57.2883 851.195 49.9359 851.195 M27.4968 836.459 L27.4968 836.459 Z" fill="#000000" fill-rule="nonzero" fill-opacity="1" /><path clip-path="url(#clip820)" d="M14.479 809.277 L14.479 803.421 L64.0042 803.421 L64.0042 809.277 L14.479 809.277 Z" fill="#000000" fill-rule="nonzero" fill-opacity="1" /><path clip-path="url(#clip820)" d="M46.0847 774.966 Q46.0847 782.064 47.7079 784.801 Q49.3312 787.538 53.2461 787.538 Q56.3653 787.538 58.2114 785.501 Q60.0256 783.432 60.0256 779.899 Q60.0256 775.029 56.5881 772.101 Q53.1188 769.141 47.3897 769.141 L46.0847 769.141 L46.0847 774.966 M43.6657 763.285 L64.0042 763.285 L64.0042 769.141 L58.5933 769.141 Q61.8398 771.146 63.3994 774.138 Q64.9272 777.13 64.9272 781.459 Q64.9272 786.933 61.8716 790.18 Q58.7843 793.395 53.6281 793.395 Q47.6125 793.395 44.5569 789.384 Q41.5014 785.342 41.5014 777.353 L41.5014 769.141 L40.9285 769.141 Q36.8862 769.141 34.6901 771.815 Q32.4621 774.457 32.4621 779.263 Q32.4621 782.318 33.1941 785.215 Q33.9262 788.111 35.3903 790.785 L29.9795 790.785 Q28.7381 787.57 28.1334 784.546 Q27.4968 781.522 27.4968 778.658 Q27.4968 770.924 31.5072 767.104 Q35.5176 763.285 43.6657 763.285 Z" fill="#000000" fill-rule="nonzero" fill-opacity="1" /><path clip-path="url(#clip820)" d="M18.2347 745.429 L28.3562 745.429 L28.3562 733.366 L32.9077 733.366 L32.9077 745.429 L52.2594 745.429 Q56.6199 745.429 57.8613 744.251 Q59.1026 743.042 59.1026 739.382 L59.1026 733.366 L64.0042 733.366 L64.0042 739.382 Q64.0042 746.161 61.4897 748.739 Q58.9434 751.317 52.2594 751.317 L32.9077 751.317 L32.9077 755.614 L28.3562 755.614 L28.3562 751.317 L18.2347 751.317 L18.2347 745.429 Z" fill="#000000" fill-rule="nonzero" fill-opacity="1" /><path clip-path="url(#clip820)" d="M28.3562 725.663 L28.3562 719.807 L64.0042 719.807 L64.0042 725.663 L28.3562 725.663 M14.479 725.663 L14.479 719.807 L21.895 719.807 L21.895 725.663 L14.479 725.663 Z" fill="#000000" fill-rule="nonzero" fill-opacity="1" /><path clip-path="url(#clip820)" d="M28.3562 711.754 L28.3562 705.548 L58.275 694.408 L28.3562 683.268 L28.3562 677.061 L64.0042 690.429 L64.0042 698.386 L28.3562 711.754 Z" fill="#000000" fill-rule="nonzero" fill-opacity="1" /><path clip-path="url(#clip820)" d="M44.7161 638.485 L47.5806 638.485 L47.5806 665.412 Q53.6281 665.03 56.8109 661.784 Q59.9619 658.505 59.9619 652.681 Q59.9619 649.307 59.1344 646.156 Q58.3069 642.973 56.6518 639.854 L62.1899 639.854 Q63.5267 643.005 64.227 646.315 Q64.9272 649.625 64.9272 653.031 Q64.9272 661.561 59.9619 666.558 Q54.9967 671.523 46.5303 671.523 Q37.7774 671.523 32.6531 666.812 Q27.4968 662.07 27.4968 654.049 Q27.4968 646.856 32.1438 642.686 Q36.7589 638.485 44.7161 638.485 M42.9973 644.342 Q38.1912 644.405 35.3266 647.047 Q32.4621 649.657 32.4621 653.986 Q32.4621 658.887 35.2312 661.847 Q38.0002 664.775 43.0292 665.221 L42.9973 644.342 Z" fill="#000000" fill-rule="nonzero" fill-opacity="1" /><path clip-path="url(#clip820)" d="M41.7242 585.363 Q42.4244 583.294 44.7161 581.353 Q47.0077 579.379 51.0181 577.406 L64.0042 570.881 L64.0042 577.788 L51.8138 583.867 Q47.0395 586.223 45.48 588.451 Q43.9204 590.647 43.9204 594.466 L43.9204 601.468 L64.0042 601.468 L64.0042 607.898 L16.4842 607.898 L16.4842 593.384 Q16.4842 585.236 19.8898 581.226 Q23.2955 577.215 30.1704 577.215 Q34.6582 577.215 37.6183 579.316 Q40.5784 581.385 41.7242 585.363 M21.7677 601.468 L38.6368 601.468 L38.6368 593.384 Q38.6368 588.737 36.5043 586.382 Q34.34 583.995 30.1704 583.995 Q26.0009 583.995 23.9002 586.382 Q21.7677 588.737 21.7677 593.384 L21.7677 601.468 Z" fill="#000000" fill-rule="nonzero" fill-opacity="1" /><path clip-path="url(#clip820)" d="M44.7161 535.297 L47.5806 535.297 L47.5806 562.224 Q53.6281 561.842 56.8109 558.595 Q59.9619 555.317 59.9619 549.492 Q59.9619 546.119 59.1344 542.968 Q58.3069 539.785 56.6518 536.666 L62.1899 536.666 Q63.5267 539.817 64.227 543.127 Q64.9272 546.437 64.9272 549.843 Q64.9272 558.373 59.9619 563.37 Q54.9967 568.335 46.5303 568.335 Q37.7774 568.335 32.6531 563.624 Q27.4968 558.882 27.4968 550.861 Q27.4968 543.668 32.1438 539.498 Q36.7589 535.297 44.7161 535.297 M42.9973 541.153 Q38.1912 541.217 35.3266 543.859 Q32.4621 546.469 32.4621 550.797 Q32.4621 555.699 35.2312 558.659 Q38.0002 561.587 43.0292 562.033 L42.9973 541.153 Z" fill="#000000" fill-rule="nonzero" fill-opacity="1" /><path clip-path="url(#clip820)" d="M18.2347 519.892 L28.3562 519.892 L28.3562 507.829 L32.9077 507.829 L32.9077 519.892 L52.2594 519.892 Q56.6199 519.892 57.8613 518.714 Q59.1026 517.505 59.1026 513.845 L59.1026 507.829 L64.0042 507.829 L64.0042 513.845 Q64.0042 520.624 61.4897 523.202 Q58.9434 525.78 52.2594 525.78 L32.9077 525.78 L32.9077 530.077 L28.3562 530.077 L28.3562 525.78 L18.2347 525.78 L18.2347 519.892 Z" fill="#000000" fill-rule="nonzero" fill-opacity="1" /><path clip-path="url(#clip820)" d="M49.9359 500.731 L28.3562 500.731 L28.3562 494.875 L49.7131 494.875 Q54.7739 494.875 57.3202 492.901 Q59.8346 490.928 59.8346 486.981 Q59.8346 482.239 56.8109 479.502 Q53.7872 476.732 48.5673 476.732 L28.3562 476.732 L28.3562 470.876 L64.0042 470.876 L64.0042 476.732 L58.5296 476.732 Q61.7762 478.865 63.3676 481.698 Q64.9272 484.499 64.9272 488.223 Q64.9272 494.365 61.1078 497.548 Q57.2883 500.731 49.9359 500.731 M27.4968 485.995 L27.4968 485.995 Z" fill="#000000" fill-rule="nonzero" fill-opacity="1" /><path clip-path="url(#clip820)" d="M33.8307 438.156 Q33.2578 439.143 33.0032 440.321 Q32.7167 441.466 32.7167 442.867 Q32.7167 447.832 35.9632 450.506 Q39.1779 453.148 45.2253 453.148 L64.0042 453.148 L64.0042 459.036 L28.3562 459.036 L28.3562 453.148 L33.8944 453.148 Q30.6479 451.301 29.0883 448.341 Q27.4968 445.381 27.4968 441.148 Q27.4968 440.543 27.5923 439.811 Q27.656 439.079 27.8151 438.188 L33.8307 438.156 Z" fill="#000000" fill-rule="nonzero" fill-opacity="1" /><path clip-path="url(#clip820)" d="M42.4881 403.527 L64.0042 403.527 L64.0042 409.383 L42.679 409.383 Q37.6183 409.383 35.1038 411.357 Q32.5894 413.33 32.5894 417.277 Q32.5894 422.019 35.6131 424.756 Q38.6368 427.494 43.8567 427.494 L64.0042 427.494 L64.0042 433.382 L28.3562 433.382 L28.3562 427.494 L33.8944 427.494 Q30.6797 425.393 29.0883 422.56 Q27.4968 419.696 27.4968 415.972 Q27.4968 409.829 31.3163 406.678 Q35.1038 403.527 42.4881 403.527 Z" fill="#000000" fill-rule="nonzero" fill-opacity="1" /><polyline clip-path="url(#clip822)" style="stroke:#009af9; stroke-linecap:round; stroke-linejoin:round; stroke-width:4; stroke-opacity:1; fill:none" points="278.207,1384.24 279.589,1368.97 283.736,1339.57 285.119,1328.2 286.501,1326 287.883,1314.14 289.266,1312.37 293.413,1342.16 294.795,1345.81 296.178,1338.61 297.56,1334.91 298.942,1329.8 304.472,1338.06 305.854,1333.46 307.237,1341.97 308.619,1333.02 312.766,1339.51 314.149,1331.76 315.531,1316.66 316.913,1314.37 318.296,1310.01 322.443,1297.69 323.825,1301.67 325.208,1301.18 326.59,1299.87 327.972,1296.29 332.119,1293.02 333.502,1288.41 334.884,1280.68 336.267,1278.82 337.649,1273.35 343.178,1270.85 344.561,1270.81 345.943,1266.97 347.326,1245.68 351.473,1245.85 352.855,1252.4 354.238,1265.66 355.62,1270.39 357.002,1263.75 361.149,1266 362.532,1253.79 363.914,1261.03 365.297,1259.93 366.679,1264.6 370.768,1261.94 372.151,1255.6 373.533,1247.05 374.916,1295.13 376.298,1273.68 380.445,1270.58 381.827,1269.16 383.21,1272.65 384.592,1269.21 385.975,1280.94 390.122,1275.46 391.504,1276.27 392.887,1284.95 394.269,1276.69 395.651,1272.77 399.798,1272.78 401.181,1278.27 402.563,1274.18 403.946,1261.6 405.328,1247.85 409.475,1245.51 410.857,1248.36 412.24,1243.24 413.622,1239.28 415.005,1236.37 419.152,1231.33 420.534,1234.33 421.916,1228.5 423.299,1226.74 428.828,1215.56 430.211,1212.39 431.593,1214.72 432.975,1211.87 434.358,1213.97 438.505,1213.33 439.887,1204.52 441.27,1213.65 442.652,1211.69 444.035,1193.03 448.182,1205.57 449.564,1213.93 450.946,1213.35 452.329,1211.85 453.711,1217.29 457.858,1247.62 459.241,1247.27 460.623,1239.53 462.005,1225.52 463.388,1221.89 467.535,1226.16 468.917,1211.28 470.3,1215.03 471.682,1237.23 473.064,1234.91 478.594,1258.11 479.976,1274.78 481.359,1215.5 482.741,1223.8 486.888,1209.93 488.271,1192.69 489.653,1194.18 491.035,1179.09 492.418,1164.14 496.565,1153.8 497.947,1152.13 499.33,1142.77 500.712,1137.01 502.094,1141.49 506.242,1140.98 507.624,1130.56 509.006,1121.81 510.389,1119.25 511.771,1126.6 515.918,1134.54 517.301,1141.59 518.683,1142.87 520.065,1137.28 521.448,1145.57 525.595,1131.88 526.977,1119.69 528.36,1107.01 531.124,1094.31 535.272,1107.03 536.654,1099.04 538.036,1088.1 539.419,1083.31 540.801,1067.79 544.948,1069.63 546.331,1052.28 547.713,1058.84 549.095,1068.74 550.478,1077.22 554.625,1095.15 556.007,1094.37 557.39,1079.98 558.772,1089.84 560.154,1063.65 564.301,1079.39 565.684,1097.04 567.066,1096.6 568.449,1101.31 569.831,1081.52 573.978,1107.84 575.36,1088.72 576.743,1086.94 578.125,1060.25 579.508,1066.25 583.655,1076.32 585.037,1072.2 586.42,1082.93 587.802,1081.11 589.184,1059.69 593.331,1036.42 594.714,1046.98 596.096,1036.25 597.479,1035.19 598.861,1056.28 603.008,1037.1 604.39,1048.19 605.773,1030.6 607.155,944.004 608.538,948.39 614.067,938.944 615.449,921.967 616.832,913.421 618.214,898.181 622.361,908.987 623.744,933.248 625.126,930.434 626.508,926.806 627.891,924.439 632.038,950.197 633.42,913.126 634.803,923.345 636.185,919.683 637.568,934.502 641.715,924.259 643.097,930.014 644.479,927.429 645.862,921.511 647.244,917.592 651.391,920.042 652.774,925.506 654.156,934.081 655.538,934.671 656.921,915.38 661.068,915.608 662.45,922.249 663.833,916.213 665.215,917.639 666.597,908.965 670.745,910.793 672.127,905.354 673.509,917.197 674.892,904.06 676.274,899.301 680.421,900.433 681.804,898.967 683.186,914.141 684.568,902.193 685.951,902.55 690.098,901.765 691.48,916.031 692.863,897.059 694.245,896.395 695.627,895.025 699.832,907.66 701.215,895.243 702.597,899.759 703.979,899.512 705.362,904.98 709.509,906.869 710.891,903.31 712.274,897.652 713.656,878.25 715.038,876.257 719.185,878.523 720.568,886.282 721.95,881.735 723.333,880.788 724.715,885.258 728.862,882.039 730.244,889.797 731.627,882.146 734.392,895.301 738.539,916.307 739.921,933.942 741.303,928.535 742.686,928.779 744.068,926.054 748.215,925.951 749.598,917.313 750.98,925.651 752.363,904.925 753.745,906.309 757.892,916.647 759.274,910.353 760.657,908.728 762.039,896.624 763.422,895.475 767.569,888.101 768.951,883.849 771.716,884.771 773.098,878.008 777.245,877.791 778.628,880.681 781.392,879.477 782.775,889.571 786.922,895.546 788.304,910.943 789.687,916 791.069,906.992 792.451,905.76 796.599,900.977 797.981,880.916 799.363,882.872 800.746,866.378 802.128,864.969 807.658,867.328 809.04,875.619 810.422,869.167 811.805,883.341 815.952,891.411 817.334,882.236 818.717,886.691 820.099,886.551 821.481,906.429 825.629,886.861 827.011,874.311 828.393,868.124 829.776,877.249 831.158,885.02 835.305,875.507 836.688,871.507 838.07,853.27 839.452,844.431 840.835,852.116 846.364,835.524 847.747,820.293 849.129,811.063 850.511,812.48 854.659,836.906 856.041,862.927 857.423,863.192 858.806,912.261 860.188,964.601 864.335,895.244 865.718,932.675 867.1,907.545 868.482,931.093 869.865,934.924 873.954,968.84 875.337,892.198 876.719,980.886 878.101,1145.42 879.484,1086.8 883.631,1264.4 885.013,1160.47 886.396,1308.16 887.778,1341.22 889.16,1337.95 893.308,1365.39 894.69,1209.2 896.072,1209.41 897.455,1179.53 898.837,1227.96 902.984,1200.13 904.367,1178.58 905.749,1173.34 907.131,1125.49 908.514,1127.53 912.661,1061.01 914.043,1060.85 915.426,1040.91 916.808,998.503 922.337,990.051 923.72,937.38 925.102,956.122 926.485,890.957 927.867,845.078 932.014,900.041 933.397,956.16 934.779,933.381 936.161,918.464 937.544,945.24 941.691,917.532 943.073,919.579 944.456,898.606 945.838,899.623 947.22,940.104 951.367,928.126 952.75,965.083 954.132,956.076 955.515,976.809 956.897,956.421 961.044,915.831 962.426,927.231 963.809,937.05 965.191,939.93 966.574,927.626 970.721,884.906 972.103,891.93 973.485,890.872 974.868,881.076 976.25,879.086 981.78,852.449 983.162,798.589 984.545,830.196 985.927,805.84 990.074,771.776 991.456,772.561 992.839,774.122 994.221,801.071 995.604,777.512 999.751,777.032 1001.13,786.769 1002.52,777.292 1003.9,840.761 1005.28,842.608 1009.43,807.622 1010.81,794.855 1012.19,806.433 1013.57,795.932 1014.96,817.619 1019.1,778.214 1020.49,803.346 1021.87,809.174 1023.25,805.076 1024.63,824.86 1028.78,812.164 1030.16,812.03 1031.55,814.231 1032.93,816.353 1038.46,828.523 1039.84,819.988 1041.22,828.086 1042.6,816.892 1043.99,823.621 1048.13,842.094 1049.52,820.487 1050.9,806.453 1052.28,818.789 1053.66,822.764 1057.81,801.554 1059.19,803.56 1060.58,783.235 1061.96,800.959 1063.34,791.478 1067.49,804.869 1068.87,813.586 1070.25,799.091 1071.63,797.01 1073.02,806.291 1077.16,790.723 1078.55,776.858 1079.93,772.528 1081.31,784.308 1082.69,765.77 1086.84,767.918 1088.22,774.29 1089.61,743.628 1090.99,744.275 1092.37,728.504 1096.52,711.192 1097.9,727.419 1099.28,719.501 1100.66,747.444 1102.05,738.872 1106.19,737.044 1107.58,731.177 1108.96,717.968 1110.34,735.054 1111.72,729.475 1115.87,728.27 1117.25,740.843 1118.64,711.402 1120.02,760.8 1121.4,772.471 1126.93,783.594 1128.31,758.721 1129.69,774.774 1131.08,754.196 1135.22,730.376 1136.61,744.974 1137.99,741.539 1139.37,743.131 1140.75,732.502 1144.9,774.643 1146.28,753.623 1147.67,775.751 1149.05,774.138 1150.43,761.608 1154.58,743.664 1155.96,741.031 1157.34,736.933 1158.72,719.831 1160.11,729.008 1164.25,713.496 1165.64,721.126 1167.02,696.028 1168.4,658.831 1169.78,652.175 1173.93,655.726 1175.31,646.613 1176.7,662.397 1178.08,652.591 1179.46,670.804 1183.61,692.82 1184.99,689.712 1186.37,680.709 1187.75,698.644 1189.14,692.83 1193.28,730.021 1194.67,713.437 1196.05,750.926 1197.43,733.185 1198.81,747.169 1203.02,731.979 1204.4,697.13 1205.78,678.16 1207.17,657.196 1208.55,639.266 1212.69,680.669 1214.08,687.385 1215.46,651.325 1216.84,607.017 1218.22,593.918 1222.37,557.365 1223.75,579.563 1225.14,591.946 1226.52,583.37 1227.9,583.071 1232.05,580.167 1233.43,566.099 1234.81,552.408 1237.58,548.474 1241.72,560.871 1243.11,547.061 1244.49,557.112 1245.87,563.301 1247.25,582.014 1251.4,567.708 1252.78,579.361 1254.17,592.33 1255.55,592.244 1256.93,605.421 1261.08,604.037 1262.46,590.95 1263.84,579.034 1265.22,574.613 1266.61,587.311 1270.75,588.659 1272.14,573.829 1273.52,590.814 1274.9,586.947 1280.43,587.847 1281.81,579.661 1283.2,574.934 1284.58,564.709 1290.11,578.793 1291.49,589.132 1292.87,527.245 1294.25,526.158 1295.64,544.976 1299.78,559.252 1301.17,544.125 1302.55,524.227 1303.93,548.703 1305.31,553.985 1310.84,571.399 1312.23,561.849 1313.61,572.108 1314.99,568.846 1319.14,562.802 1320.52,551.007 1321.9,595.405 1323.28,618.231 1324.67,651.521 1328.81,652.006 1330.2,641.758 1331.58,640.524 1332.96,631.907 1334.34,635.385 1338.49,600.95 1339.87,574.935 1341.26,585.971 1342.64,595.615 1344.02,601.234 1349.55,598.412 1350.93,594.029 1352.31,583.121 1353.7,591.512 1357.84,598.195 1359.23,632.233 1360.61,639.259 1361.99,667.288 1363.37,651.375 1367.52,627.432 1368.9,663.16 1370.29,687.691 1371.67,726.197 1373.05,711.691 1377.2,696.909 1378.58,676.315 1379.96,662.011 1381.34,642.669 1382.73,621.392 1386.82,596.34 1388.2,586.671 1389.58,621.331 1390.96,684.043 1392.35,637.262 1396.49,593.273 1397.88,577.496 1399.26,584.57 1400.64,573.955 1402.02,540.282 1406.17,546.538 1407.55,552.896 1408.93,549.754 1410.32,533.728 1415.85,492.409 1417.23,490.261 1418.61,486.322 1419.99,475.729 1421.38,467.614 1425.52,464.841 1426.91,449.848 1428.29,444.642 1429.67,437.211 1431.05,437.662 1435.2,439.982 1436.58,427.464 1437.96,432.784 1439.35,442.928 1440.73,449.015 1444.88,448.673 1446.26,440.307 1447.64,450.284 1449.02,422.052 1450.41,424.549 1454.55,405.448 1455.94,410.561 1457.32,412.324 1458.7,399.447 1460.08,386.969 1464.23,397.913 1465.61,434.592 1466.99,483.161 1468.38,472.633 1469.76,465.978 1473.91,484.387 1475.29,481.93 1476.67,508.005 1478.05,480.154 1479.44,483.045 1483.58,511.555 1484.97,509.206 1486.35,497.367 1487.73,460.577 1489.11,469.991 1494.64,473.701 1496.02,461.486 1497.41,443.639 1498.79,432.699 1502.94,426.241 1504.32,416.622 1505.7,432.7 1507.08,429.609 1508.47,410.721 1512.61,406.468 1514,394.202 1515.38,395.499 1516.76,387.669 1518.14,399.823 1522.29,392.598 1523.67,389.87 1525.05,398.14 1526.44,396.893 1527.82,401.503 1531.97,388.377 1533.35,375.905 1534.73,372.193 1536.11,354.806 1537.5,341.266 1543.03,341.733 1544.41,324.539 1545.79,342.149 1547.17,329.775 1551.32,335.393 1552.7,334.312 1554.08,327.489 1555.47,331.35 1556.85,337.527 1561,346.144 1562.38,300.302 1563.76,307.594 1565.14,298.726 1566.53,274.559 1570.67,277.378 1572.06,257.825 1573.44,273.022 1574.82,260.186 1576.2,256.03 1580.35,262.081 1581.73,260.68 1583.11,258.039 1584.5,242.259 1585.88,240.711 1590.03,262.368 1591.41,254.379 1592.79,248.95 1594.17,247.289 1595.56,236.456 1599.7,227.36 1601.09,266.027 1602.47,287.581 1603.85,287.015 1605.23,269.658 1609.38,268.805 1610.76,270.987 1612.14,246.321 1613.53,303.319 1614.91,309.978 1619.06,310.468 1620.44,325.848 1621.82,322.952 1623.2,306.161 1624.59,322.837 1630.12,340.696 1631.5,319.64 1632.88,343.228 1634.26,355.658 1638.41,348.999 1639.79,365.911 1641.17,350.714 1642.56,328.366 1643.94,318.033 1648.09,320.629 1649.47,342.423 1650.85,341.931 1652.23,334.344 1653.62,337.455 1657.76,342.818 1659.15,354.37 1660.53,355.204 1661.91,386.322 1663.29,393.54 1667.44,414.701 1668.82,418.339 1670.2,414.313 1671.59,380.395 1672.97,400.213 1677.12,407.444 1678.5,409.409 1679.88,409.181 1681.26,374.798 1682.65,366.292 1686.79,366.363 1688.18,371.79 1689.56,345.792 1690.94,329.675 1692.32,324.327 1696.47,316.304 1697.85,326.687 1699.23,334.247 1700.62,313.178 1702,322.092 1706.15,298.953 1707.53,292.215 1708.91,267.903 1710.29,260.7 1711.68,245.067 1715.88,275.4 1717.26,289.722 1718.65,291.568 1720.03,284.539 1721.41,264.902 1725.56,238.823 1726.94,213.121 1728.32,241.557 1729.7,252.365 1731.09,256.373 1735.23,258.773 1736.62,251.18 1738,258.303 1740.76,271.527 1744.91,265.592 1746.29,296.025 1747.68,301.301 1749.06,319.249 1750.44,296.704 1754.59,270.265 1755.97,257.053 1757.35,273.666 1758.73,276.7 1760.12,264.311 1764.26,253.783 1765.65,259.039 1767.03,247.353 1768.41,260.366 1769.79,290.506 1773.94,301.451 1775.32,284.957 1776.7,294.622 1778.09,273.462 1783.62,257.809 1785,242.828 1786.38,208.064 1787.76,192.958 1789.15,187.848 1793.29,193.005 1794.68,219.752 1796.06,227.476 1797.44,212.129 1798.82,213.536 1802.97,223.43 1804.35,251.821 1805.73,250.067 1807.12,270.557 1808.5,315.728 1814.03,321.749 1815.41,308.521 1816.79,371.296 1818.18,382.321 1822.32,350.738 1823.71,374.259 1825.09,417.066 1826.47,409.298 1827.85,405.75 1832,372.554 1833.38,359.486 1834.76,380.634 1836.15,387.769 1837.53,412.536 1841.68,421.372 1843.06,391.689 1844.44,374.506 1845.82,411.685 1847.21,432.412 1851.35,438.343 1852.74,443.004 1854.12,452.241 1855.5,460.187 1856.88,438.142 1862.41,494.991 1863.79,524.758 1865.18,506.091 1866.56,446.314 1870.71,446.957 1872.09,444.751 1873.47,405.568 1874.85,403.525 1876.24,383.483 1880.38,443.437 1881.77,461.791 1883.15,428.952 1884.53,431.013 1885.91,459.536 1890,459.153 1891.38,428.038 1892.77,430.261 1894.15,358.133 1895.53,309.743 1899.68,311.959 1901.06,309.957 1902.44,341.163 1903.83,339.806 1905.21,325.902 1909.36,295.812 1910.74,282.054 1912.12,284.645 1913.5,308.864 1914.89,288.984 1919.03,284.129 1920.41,282.606 1921.8,240.054 1923.18,231.312 1924.56,217.556 1928.71,241.497 1930.09,240.82 1931.47,224.993 1932.86,224.407 1938.39,222.5 1939.77,181.439 1941.15,164.043 1942.53,199.178 1943.92,245.111 1948.06,249.473 1949.44,281.548 1950.83,293.973 1952.21,269.565 1953.59,349.389 1957.74,341.364 1959.12,340.142 1960.5,291.771 1961.89,356.818 1963.27,360.021 1967.42,390.242 1968.8,419.272 1970.18,421.833 1971.56,416.23 1972.95,391.842 1977.09,388.72 1978.47,403.669 1979.86,539.738 1981.24,545.031 1982.62,609.594 1986.77,567.063 1988.15,567.292 1989.53,564.051 1990.92,405.486 1992.3,358.841 1997.83,387.13 1999.21,414.274 2000.59,364.831 2001.98,366.428 2006.12,333.672 2007.5,325.836 2008.89,337.213 2010.27,311.717 2011.65,345.939 2015.8,405.611 2017.18,398.781 2018.56,374.093 2019.95,406.79 2021.33,415.019 2026.86,372.674 2028.24,364.512 2029.62,332.963 2031.01,285.928 2035.15,292.63 2036.53,325.031 2037.92,320.101 2039.3,324.151 2040.68,299.295 2046.21,279.755 2047.59,269.251 2048.98,256.349 2050.36,252.081 2054.51,243.128 2055.89,274.959 2057.27,273.854 2058.65,266.824 2060.03,291.907 2064.18,276.66 2065.56,256.397 2066.95,245.85 2068.33,254.538 2069.71,253.68 2073.86,253.116 2075.24,298.672 2076.62,265.936 2078.01,242.305 2079.39,217.474 2083.54,193.34 2084.92,192.49 2086.3,155.13 2087.68,174.239 2089.06,184.683 2093.21,157.969 2094.59,165.95 2095.98,150.979 2097.36,153.47 2098.74,151.513 2102.89,155.389 2104.27,143.45 2105.65,159.747 2107.04,156.818 2108.42,154.199 2112.57,212.307 2113.95,207.829 2115.33,203.363 2116.71,219.752 2118.09,304.051 2122.24,301.767 2123.62,312.327 2125.01,319.107 2126.39,283.326 2127.77,295.934 2133.3,302.188 2134.68,244.272 2136.07,224.421 2137.45,209.214 2141.6,189.321 2142.98,240.92 2144.36,261.438 2145.74,279.724 2147.12,276.873 2151.27,254.447 2152.65,264.64 2154.04,297.25 2155.42,319.999 2156.8,313.447 2160.95,342.216 2162.33,351.048 2163.71,306.35 2165.1,347.831 2166.48,347.214 2170.63,302.605 2172.01,270.761 2173.39,298.184 2174.77,289.009 2176.15,308.839 2180.3,307.239 2181.68,289.621 2183.07,298.619 2184.45,261.477 2185.83,303.147 2189.98,293.602 2191.36,280.216 2192.74,285.472 2194.13,294.958 2195.51,272.072 2199.66,267.742 2201.04,238.083 2202.42,229.759 2203.8,231.521 2205.18,189.534 2209.33,221.961 2210.71,234.042 2212.1,263.223 2213.48,264.273 2214.86,244.11 2219.07,224.378 2220.45,217.108 2221.83,264.889 2223.21,191.682 2224.6,209.467 2228.74,220.355 2230.13,163.793 2231.51,164.998 2232.89,168.259 2234.27,148.629 2238.42,106.213 2239.8,92.415 2241.18,89.6618 2243.95,86.1857 2248.1,120.013 2249.48,141.369 2250.86,122.486 2252.24,200.835 2253.63,172.843 2257.77,181.914 2259.16,183.062 2260.54,160.092 2261.92,163.588 2263.3,188.575 2267.45,182.837 2268.83,194.988 2270.21,178.935 2271.6,196.549 2272.98,192.712 2277.13,218.241 2278.51,226.569 2279.89,195.276 2281.27,191.261 2282.66,176.253 2288.19,189.619 2289.57,192.099 2290.95,161.648 2292.33,160.763 "/>
</svg>
