<?xml version="1.0" encoding="utf-8"?>
<svg xmlns="http://www.w3.org/2000/svg" xmlns:xlink="http://www.w3.org/1999/xlink" width="600" height="400" viewBox="0 0 2400 1600">
<defs>
  <clipPath id="clip180">
    <rect x="0" y="0" width="2400" height="1600"/>
  </clipPath>
</defs>
<path clip-path="url(#clip180)" d="M0 1600 L2400 1600 L2400 0 L0 0  Z" fill="#ffffff" fill-rule="evenodd" fill-opacity="1"/>
<defs>
  <clipPath id="clip181">
    <rect x="480" y="0" width="1681" height="1600"/>
  </clipPath>
</defs>
<path clip-path="url(#clip180)" d="M447.244 1552.76 L1952.76 1552.76 L1952.76 47.2441 L447.244 47.2441  Z" fill="#ffffff" fill-rule="evenodd" fill-opacity="1"/>
<defs>
  <clipPath id="clip182">
    <rect x="447" y="47" width="1507" height="1507"/>
  </clipPath>
</defs>
<polyline clip-path="url(#clip182)" style="stroke:#000000; stroke-linecap:round; stroke-linejoin:round; stroke-width:4; stroke-opacity:1; fill:none" points="1563.51,262.317 1737.68,759.417 "/>
<polyline clip-path="url(#clip182)" style="stroke:#000000; stroke-linecap:round; stroke-linejoin:round; stroke-width:4; stroke-opacity:1; fill:none" points="1069.5,919.197 1057.69,1313.89 "/>
<polyline clip-path="url(#clip182)" style="stroke:#000000; stroke-linecap:round; stroke-linejoin:round; stroke-width:4; stroke-opacity:1; fill:none" points="1069.5,919.197 785.654,1337.68 "/>
<polyline clip-path="url(#clip182)" style="stroke:#000000; stroke-linecap:round; stroke-linejoin:round; stroke-width:4; stroke-opacity:1; fill:none" points="1069.5,919.197 662.317,985.234 "/>
<polyline clip-path="url(#clip182)" style="stroke:#000000; stroke-linecap:round; stroke-linejoin:round; stroke-width:4; stroke-opacity:1; fill:none" points="1069.5,919.197 840.53,693.312 "/>
<polyline clip-path="url(#clip182)" style="stroke:#000000; stroke-linecap:round; stroke-linejoin:round; stroke-width:4; stroke-opacity:1; fill:none" points="1057.69,1313.89 785.654,1337.68 "/>
<polyline clip-path="url(#clip182)" style="stroke:#000000; stroke-linecap:round; stroke-linejoin:round; stroke-width:4; stroke-opacity:1; fill:none" points="1057.69,1313.89 662.317,985.234 "/>
<polyline clip-path="url(#clip182)" style="stroke:#000000; stroke-linecap:round; stroke-linejoin:round; stroke-width:4; stroke-opacity:1; fill:none" points="1057.69,1313.89 840.53,693.312 "/>
<polyline clip-path="url(#clip182)" style="stroke:#000000; stroke-linecap:round; stroke-linejoin:round; stroke-width:4; stroke-opacity:1; fill:none" points="785.654,1337.68 662.317,985.234 "/>
<polyline clip-path="url(#clip182)" style="stroke:#000000; stroke-linecap:round; stroke-linejoin:round; stroke-width:4; stroke-opacity:1; fill:none" points="785.654,1337.68 840.53,693.312 "/>
<polyline clip-path="url(#clip182)" style="stroke:#000000; stroke-linecap:round; stroke-linejoin:round; stroke-width:4; stroke-opacity:1; fill:none" points="662.317,985.234 840.53,693.312 "/>
<path clip-path="url(#clip182)" d="M1655.5 262.317 L1655.2 255.009 L1654.33 247.747 L1652.89 240.578 L1650.88 233.545 L1648.32 226.695 L1645.22 220.07 L1641.6 213.712 L1637.5 207.661 L1632.92 201.956 L1627.9 196.632 L1622.48 191.724 L1616.69 187.262 L1610.56 183.274 L1604.13 179.787 L1597.44 176.821 L1590.54 174.395 L1583.47 172.526 L1576.27 171.224 L1569 170.498 L1561.68 170.352 L1554.38 170.788 L1547.14 171.803 L1540 173.39 L1533.01 175.539 L1526.21 178.237 L1519.65 181.466 L1513.36 185.207 L1507.4 189.435 L1501.78 194.124 L1496.56 199.244 L1491.76 204.763 L1487.41 210.645 L1483.55 216.855 L1480.19 223.351 L1477.36 230.095 L1475.07 237.041 L1473.34 244.148 L1472.18 251.37 L1471.6 258.66 L1471.6 265.974 L1472.18 273.265 L1473.34 280.486 L1475.07 287.593 L1477.36 294.54 L1480.19 301.283 L1483.55 307.78 L1487.41 313.989 L1491.76 319.872 L1496.56 325.39 L1501.78 330.51 L1507.4 335.199 L1513.36 339.427 L1519.65 343.168 L1526.21 346.397 L1533.01 349.095 L1540 351.244 L1547.14 352.831 L1554.38 353.846 L1561.68 354.282 L1569 354.137 L1576.27 353.411 L1583.47 352.109 L1590.54 350.239 L1597.44 347.814 L1604.13 344.848 L1610.56 341.36 L1616.69 337.373 L1622.48 332.911 L1627.9 328.002 L1632.92 322.679 L1637.5 316.974 L1641.6 310.923 L1645.22 304.565 L1648.32 297.94 L1650.88 291.089 L1652.89 284.057 L1654.33 276.887 L1655.2 269.625 L1655.5 262.317 L1655.5 262.317  Z" fill="#9e0142" fill-rule="evenodd" fill-opacity="1"/>
<polyline clip-path="url(#clip182)" style="stroke:#000000; stroke-linecap:round; stroke-linejoin:round; stroke-width:4; stroke-opacity:1; fill:none" points="1655.5,262.317 1655.2,255.009 1654.33,247.747 1652.89,240.578 1650.88,233.545 1648.32,226.695 1645.22,220.07 1641.6,213.712 1637.5,207.661 1632.92,201.956 1627.9,196.632 1622.48,191.724 1616.69,187.262 1610.56,183.274 1604.13,179.787 1597.44,176.821 1590.54,174.395 1583.47,172.526 1576.27,171.224 1569,170.498 1561.68,170.352 1554.38,170.788 1547.14,171.803 1540,173.39 1533.01,175.539 1526.21,178.237 1519.65,181.466 1513.36,185.207 1507.4,189.435 1501.78,194.124 1496.56,199.244 1491.76,204.763 1487.41,210.645 1483.55,216.855 1480.19,223.351 1477.36,230.095 1475.07,237.041 1473.34,244.148 1472.18,251.37 1471.6,258.66 1471.6,265.974 1472.18,273.265 1473.34,280.486 1475.07,287.593 1477.36,294.54 1480.19,301.283 1483.55,307.78 1487.41,313.989 1491.76,319.872 1496.56,325.39 1501.78,330.51 1507.4,335.199 1513.36,339.427 1519.65,343.168 1526.21,346.397 1533.01,349.095 1540,351.244 1547.14,352.831 1554.38,353.846 1561.68,354.282 1569,354.137 1576.27,353.411 1583.47,352.109 1590.54,350.239 1597.44,347.814 1604.13,344.848 1610.56,341.36 1616.69,337.373 1622.48,332.911 1627.9,328.002 1632.92,322.679 1637.5,316.974 1641.6,310.923 1645.22,304.565 1648.32,297.94 1650.88,291.089 1652.89,284.057 1654.33,276.887 1655.2,269.625 1655.5,262.317 "/>
<path clip-path="url(#clip182)" d="M1829.67 759.417 L1829.37 752.109 L1828.5 744.847 L1827.06 737.678 L1825.05 730.645 L1822.49 723.795 L1819.39 717.17 L1815.77 710.812 L1811.67 704.761 L1807.09 699.056 L1802.07 693.732 L1796.65 688.824 L1790.86 684.362 L1784.73 680.374 L1778.3 676.887 L1771.61 673.921 L1764.71 671.495 L1757.64 669.626 L1750.44 668.324 L1743.17 667.598 L1735.85 667.453 L1728.55 667.889 L1721.31 668.903 L1714.17 670.49 L1707.18 672.639 L1700.38 675.337 L1693.82 678.567 L1687.53 682.307 L1681.57 686.535 L1675.95 691.224 L1670.73 696.344 L1665.93 701.863 L1661.58 707.745 L1657.72 713.955 L1654.36 720.452 L1651.53 727.195 L1649.24 734.141 L1647.51 741.248 L1646.35 748.47 L1645.77 755.76 L1645.77 763.074 L1646.35 770.365 L1647.51 777.586 L1649.24 784.693 L1651.53 791.64 L1654.36 798.383 L1657.72 804.88 L1661.58 811.089 L1665.93 816.972 L1670.73 822.491 L1675.95 827.611 L1681.57 832.299 L1687.53 836.527 L1693.82 840.268 L1700.38 843.497 L1707.18 846.195 L1714.17 848.344 L1721.31 849.931 L1728.55 850.946 L1735.85 851.382 L1743.17 851.237 L1750.44 850.511 L1757.64 849.209 L1764.71 847.339 L1771.61 844.914 L1778.3 841.948 L1784.73 838.46 L1790.86 834.473 L1796.65 830.011 L1802.07 825.102 L1807.09 819.779 L1811.67 814.074 L1815.77 808.023 L1819.39 801.665 L1822.49 795.04 L1825.05 788.189 L1827.06 781.157 L1828.5 773.987 L1829.37 766.725 L1829.67 759.417 L1829.67 759.417  Z" fill="#9e0142" fill-rule="evenodd" fill-opacity="1"/>
<polyline clip-path="url(#clip182)" style="stroke:#000000; stroke-linecap:round; stroke-linejoin:round; stroke-width:4; stroke-opacity:1; fill:none" points="1829.67,759.417 1829.37,752.109 1828.5,744.847 1827.06,737.678 1825.05,730.645 1822.49,723.795 1819.39,717.17 1815.77,710.812 1811.67,704.761 1807.09,699.056 1802.07,693.732 1796.65,688.824 1790.86,684.362 1784.73,680.374 1778.3,676.887 1771.61,673.921 1764.71,671.495 1757.64,669.626 1750.44,668.324 1743.17,667.598 1735.85,667.453 1728.55,667.889 1721.31,668.903 1714.17,670.49 1707.18,672.639 1700.38,675.337 1693.82,678.567 1687.53,682.307 1681.57,686.535 1675.95,691.224 1670.73,696.344 1665.93,701.863 1661.58,707.745 1657.72,713.955 1654.36,720.452 1651.53,727.195 1649.24,734.141 1647.51,741.248 1646.35,748.47 1645.77,755.76 1645.77,763.074 1646.35,770.365 1647.51,777.586 1649.24,784.693 1651.53,791.64 1654.36,798.383 1657.72,804.88 1661.58,811.089 1665.93,816.972 1670.73,822.491 1675.95,827.611 1681.57,832.299 1687.53,836.527 1693.82,840.268 1700.38,843.497 1707.18,846.195 1714.17,848.344 1721.31,849.931 1728.55,850.946 1735.85,851.382 1743.17,851.237 1750.44,850.511 1757.64,849.209 1764.71,847.339 1771.61,844.914 1778.3,841.948 1784.73,838.46 1790.86,834.473 1796.65,830.011 1802.07,825.102 1807.09,819.779 1811.67,814.074 1815.77,808.023 1819.39,801.665 1822.49,795.04 1825.05,788.189 1827.06,781.157 1828.5,773.987 1829.37,766.725 1829.67,759.417 "/>
<path clip-path="url(#clip182)" d="M1161.48 919.197 L1161.19 911.889 L1160.32 904.628 L1158.87 897.458 L1156.86 890.426 L1154.3 883.575 L1151.2 876.95 L1147.59 870.592 L1143.48 864.541 L1138.9 858.836 L1133.89 853.512 L1128.47 848.604 L1122.67 844.142 L1116.54 840.155 L1110.11 836.667 L1103.43 833.701 L1096.53 831.275 L1089.45 829.406 L1082.26 828.104 L1074.98 827.378 L1067.67 827.233 L1060.37 827.669 L1053.12 828.683 L1045.98 830.27 L1038.99 832.42 L1032.19 835.117 L1025.63 838.347 L1019.35 842.087 L1013.38 846.315 L1007.77 851.004 L1002.54 856.124 L997.744 861.643 L993.398 867.526 L989.533 873.735 L986.174 880.232 L983.342 886.975 L981.054 893.922 L979.325 901.028 L978.167 908.25 L977.586 915.541 L977.586 922.854 L978.167 930.145 L979.325 937.367 L981.054 944.473 L983.342 951.42 L986.174 958.163 L989.533 964.66 L993.398 970.869 L997.744 976.752 L1002.54 982.271 L1007.77 987.391 L1013.38 992.08 L1019.35 996.308 L1025.63 1000.05 L1032.19 1003.28 L1038.99 1005.98 L1045.98 1008.12 L1053.12 1009.71 L1060.37 1010.73 L1067.67 1011.16 L1074.98 1011.02 L1082.26 1010.29 L1089.45 1008.99 L1096.53 1007.12 L1103.43 1004.69 L1110.11 1001.73 L1116.54 998.24 L1122.67 994.253 L1128.47 989.791 L1133.89 984.883 L1138.9 979.559 L1143.48 973.854 L1147.59 967.803 L1151.2 961.445 L1154.3 954.82 L1156.86 947.969 L1158.87 940.937 L1160.32 933.767 L1161.19 926.506 L1161.48 919.197 L1161.48 919.197  Z" fill="#5e4fa1" fill-rule="evenodd" fill-opacity="1"/>
<polyline clip-path="url(#clip182)" style="stroke:#000000; stroke-linecap:round; stroke-linejoin:round; stroke-width:4; stroke-opacity:1; fill:none" points="1161.48,919.197 1161.19,911.889 1160.32,904.628 1158.87,897.458 1156.86,890.426 1154.3,883.575 1151.2,876.95 1147.59,870.592 1143.48,864.541 1138.9,858.836 1133.89,853.512 1128.47,848.604 1122.67,844.142 1116.54,840.155 1110.11,836.667 1103.43,833.701 1096.53,831.275 1089.45,829.406 1082.26,828.104 1074.98,827.378 1067.67,827.233 1060.37,827.669 1053.12,828.683 1045.98,830.27 1038.99,832.42 1032.19,835.117 1025.63,838.347 1019.35,842.087 1013.38,846.315 1007.77,851.004 1002.54,856.124 997.744,861.643 993.398,867.526 989.533,873.735 986.174,880.232 983.342,886.975 981.054,893.922 979.325,901.028 978.167,908.25 977.586,915.541 977.586,922.854 978.167,930.145 979.325,937.367 981.054,944.473 983.342,951.42 986.174,958.163 989.533,964.66 993.398,970.869 997.744,976.752 1002.54,982.271 1007.77,987.391 1013.38,992.08 1019.35,996.308 1025.63,1000.05 1032.19,1003.28 1038.99,1005.98 1045.98,1008.12 1053.12,1009.71 1060.37,1010.73 1067.67,1011.16 1074.98,1011.02 1082.26,1010.29 1089.45,1008.99 1096.53,1007.12 1103.43,1004.69 1110.11,1001.73 1116.54,998.24 1122.67,994.253 1128.47,989.791 1133.89,984.883 1138.9,979.559 1143.48,973.854 1147.59,967.803 1151.2,961.445 1154.3,954.82 1156.86,947.969 1158.87,940.937 1160.32,933.767 1161.19,926.506 1161.48,919.197 "/>
<path clip-path="url(#clip182)" d="M1149.67 1313.89 L1149.38 1306.58 L1148.51 1299.32 L1147.07 1292.15 L1145.06 1285.11 L1142.5 1278.26 L1139.4 1271.64 L1135.78 1265.28 L1131.67 1259.23 L1127.1 1253.52 L1122.08 1248.2 L1116.66 1243.29 L1110.87 1238.83 L1104.73 1234.84 L1098.31 1231.35 L1091.62 1228.39 L1084.72 1225.96 L1077.65 1224.09 L1070.45 1222.79 L1063.17 1222.07 L1055.86 1221.92 L1048.56 1222.36 L1041.32 1223.37 L1034.18 1224.96 L1027.19 1227.11 L1020.39 1229.8 L1013.83 1233.03 L1007.54 1236.77 L1001.57 1241 L995.961 1245.69 L990.739 1250.81 L985.939 1256.33 L981.593 1262.21 L977.728 1268.42 L974.369 1274.92 L971.537 1281.66 L969.249 1288.61 L967.52 1295.72 L966.362 1302.94 L965.781 1310.23 L965.781 1317.54 L966.362 1324.83 L967.52 1332.05 L969.249 1339.16 L971.537 1346.11 L974.369 1352.85 L977.728 1359.35 L981.593 1365.56 L985.939 1371.44 L990.739 1376.96 L995.961 1382.08 L1001.57 1386.77 L1007.54 1391 L1013.83 1394.74 L1020.39 1397.97 L1027.19 1400.66 L1034.18 1402.81 L1041.32 1404.4 L1048.56 1405.41 L1055.86 1405.85 L1063.17 1405.7 L1070.45 1404.98 L1077.65 1403.68 L1084.72 1401.81 L1091.62 1399.38 L1098.31 1396.42 L1104.73 1392.93 L1110.87 1388.94 L1116.66 1384.48 L1122.08 1379.57 L1127.1 1374.25 L1131.67 1368.54 L1135.78 1362.49 L1139.4 1356.13 L1142.5 1349.51 L1145.06 1342.66 L1147.07 1335.62 L1148.51 1328.45 L1149.38 1321.19 L1149.67 1313.89 L1149.67 1313.89  Z" fill="#5e4fa1" fill-rule="evenodd" fill-opacity="1"/>
<polyline clip-path="url(#clip182)" style="stroke:#000000; stroke-linecap:round; stroke-linejoin:round; stroke-width:4; stroke-opacity:1; fill:none" points="1149.67,1313.89 1149.38,1306.58 1148.51,1299.32 1147.07,1292.15 1145.06,1285.11 1142.5,1278.26 1139.4,1271.64 1135.78,1265.28 1131.67,1259.23 1127.1,1253.52 1122.08,1248.2 1116.66,1243.29 1110.87,1238.83 1104.73,1234.84 1098.31,1231.35 1091.62,1228.39 1084.72,1225.96 1077.65,1224.09 1070.45,1222.79 1063.17,1222.07 1055.86,1221.92 1048.56,1222.36 1041.32,1223.37 1034.18,1224.96 1027.19,1227.11 1020.39,1229.8 1013.83,1233.03 1007.54,1236.77 1001.57,1241 995.961,1245.69 990.739,1250.81 985.939,1256.33 981.593,1262.21 977.728,1268.42 974.369,1274.92 971.537,1281.66 969.249,1288.61 967.52,1295.72 966.362,1302.94 965.781,1310.23 965.781,1317.54 966.362,1324.83 967.52,1332.05 969.249,1339.16 971.537,1346.11 974.369,1352.85 977.728,1359.35 981.593,1365.56 985.939,1371.44 990.739,1376.96 995.961,1382.08 1001.57,1386.77 1007.54,1391 1013.83,1394.74 1020.39,1397.97 1027.19,1400.66 1034.18,1402.81 1041.32,1404.4 1048.56,1405.41 1055.86,1405.85 1063.17,1405.7 1070.45,1404.98 1077.65,1403.68 1084.72,1401.81 1091.62,1399.38 1098.31,1396.42 1104.73,1392.93 1110.87,1388.94 1116.66,1384.48 1122.08,1379.57 1127.1,1374.25 1131.67,1368.54 1135.78,1362.49 1139.4,1356.13 1142.5,1349.51 1145.06,1342.66 1147.07,1335.62 1148.51,1328.45 1149.38,1321.19 1149.67,1313.89 "/>
<path clip-path="url(#clip182)" d="M877.637 1337.68 L877.347 1330.37 L876.476 1323.11 L875.031 1315.94 L873.022 1308.91 L870.46 1302.06 L867.361 1295.44 L863.746 1289.08 L859.638 1283.03 L855.061 1277.32 L850.046 1272 L844.624 1267.09 L838.829 1262.63 L832.698 1258.64 L826.269 1255.15 L819.584 1252.19 L812.684 1249.76 L805.613 1247.89 L798.416 1246.59 L791.138 1245.86 L783.826 1245.72 L776.525 1246.15 L769.282 1247.17 L762.142 1248.76 L755.151 1250.9 L748.353 1253.6 L741.791 1256.83 L735.506 1260.57 L729.538 1264.8 L723.925 1269.49 L718.702 1274.61 L713.902 1280.13 L709.557 1286.01 L705.692 1292.22 L702.333 1298.72 L699.5 1305.46 L697.212 1312.41 L695.484 1319.51 L694.325 1326.74 L693.744 1334.03 L693.744 1341.34 L694.325 1348.63 L695.484 1355.85 L697.212 1362.96 L699.5 1369.91 L702.333 1376.65 L705.692 1383.15 L709.557 1389.35 L713.902 1395.24 L718.702 1400.76 L723.925 1405.88 L729.538 1410.56 L735.506 1414.79 L741.791 1418.53 L748.353 1421.76 L755.151 1424.46 L762.142 1426.61 L769.282 1428.2 L776.525 1429.21 L783.826 1429.65 L791.138 1429.5 L798.416 1428.78 L805.613 1427.47 L812.684 1425.6 L819.584 1423.18 L826.269 1420.21 L832.698 1416.73 L838.829 1412.74 L844.624 1408.28 L850.046 1403.37 L855.061 1398.04 L859.638 1392.34 L863.746 1386.29 L867.361 1379.93 L870.46 1373.31 L873.022 1366.45 L875.031 1359.42 L876.476 1352.25 L877.347 1344.99 L877.637 1337.68 L877.637 1337.68  Z" fill="#5e4fa1" fill-rule="evenodd" fill-opacity="1"/>
<polyline clip-path="url(#clip182)" style="stroke:#000000; stroke-linecap:round; stroke-linejoin:round; stroke-width:4; stroke-opacity:1; fill:none" points="877.637,1337.68 877.347,1330.37 876.476,1323.11 875.031,1315.94 873.022,1308.91 870.46,1302.06 867.361,1295.44 863.746,1289.08 859.638,1283.03 855.061,1277.32 850.046,1272 844.624,1267.09 838.829,1262.63 832.698,1258.64 826.269,1255.15 819.584,1252.19 812.684,1249.76 805.613,1247.89 798.416,1246.59 791.138,1245.86 783.826,1245.72 776.525,1246.15 769.282,1247.17 762.142,1248.76 755.151,1250.9 748.353,1253.6 741.791,1256.83 735.506,1260.57 729.538,1264.8 723.925,1269.49 718.702,1274.61 713.902,1280.13 709.557,1286.01 705.692,1292.22 702.333,1298.72 699.5,1305.46 697.212,1312.41 695.484,1319.51 694.325,1326.74 693.744,1334.03 693.744,1341.34 694.325,1348.63 695.484,1355.85 697.212,1362.96 699.5,1369.91 702.333,1376.65 705.692,1383.15 709.557,1389.35 713.902,1395.24 718.702,1400.76 723.925,1405.88 729.538,1410.56 735.506,1414.79 741.791,1418.53 748.353,1421.76 755.151,1424.46 762.142,1426.61 769.282,1428.2 776.525,1429.21 783.826,1429.65 791.138,1429.5 798.416,1428.78 805.613,1427.47 812.684,1425.6 819.584,1423.18 826.269,1420.21 832.698,1416.73 838.829,1412.74 844.624,1408.28 850.046,1403.37 855.061,1398.04 859.638,1392.34 863.746,1386.29 867.361,1379.93 870.46,1373.31 873.022,1366.45 875.031,1359.42 876.476,1352.25 877.347,1344.99 877.637,1337.68 "/>
<path clip-path="url(#clip182)" d="M754.3 985.234 L754.009 977.926 L753.139 970.664 L751.694 963.494 L749.684 956.462 L747.122 949.611 L744.024 942.986 L740.409 936.628 L736.301 930.577 L731.724 924.872 L726.709 919.549 L721.287 914.64 L715.492 910.178 L709.361 906.191 L702.932 902.703 L696.246 899.737 L689.346 897.312 L682.276 895.442 L675.079 894.14 L667.801 893.414 L660.488 893.269 L653.188 893.705 L645.944 894.72 L638.805 896.307 L631.814 898.456 L625.016 901.154 L618.454 904.383 L612.169 908.124 L606.201 912.352 L600.588 917.041 L595.365 922.161 L590.565 927.679 L586.219 933.562 L582.355 939.771 L578.995 946.268 L576.163 953.011 L573.875 959.958 L572.147 967.065 L570.988 974.286 L570.407 981.577 L570.407 988.891 L570.988 996.181 L572.147 1003.4 L573.875 1010.51 L576.163 1017.46 L578.995 1024.2 L582.355 1030.7 L586.219 1036.91 L590.565 1042.79 L595.365 1048.31 L600.588 1053.43 L606.201 1058.12 L612.169 1062.34 L618.454 1066.08 L625.016 1069.31 L631.814 1072.01 L638.805 1074.16 L645.944 1075.75 L653.188 1076.76 L660.488 1077.2 L667.801 1077.05 L675.079 1076.33 L682.276 1075.03 L689.346 1073.16 L696.246 1070.73 L702.932 1067.76 L709.361 1064.28 L715.492 1060.29 L721.287 1055.83 L726.709 1050.92 L731.724 1045.6 L736.301 1039.89 L740.409 1033.84 L744.024 1027.48 L747.122 1020.86 L749.684 1014.01 L751.694 1006.97 L753.139 999.804 L754.009 992.542 L754.3 985.234 L754.3 985.234  Z" fill="#5e4fa1" fill-rule="evenodd" fill-opacity="1"/>
<polyline clip-path="url(#clip182)" style="stroke:#000000; stroke-linecap:round; stroke-linejoin:round; stroke-width:4; stroke-opacity:1; fill:none" points="754.3,985.234 754.009,977.926 753.139,970.664 751.694,963.494 749.684,956.462 747.122,949.611 744.024,942.986 740.409,936.628 736.301,930.577 731.724,924.872 726.709,919.549 721.287,914.64 715.492,910.178 709.361,906.191 702.932,902.703 696.246,899.737 689.346,897.312 682.276,895.442 675.079,894.14 667.801,893.414 660.488,893.269 653.188,893.705 645.944,894.72 638.805,896.307 631.814,898.456 625.016,901.154 618.454,904.383 612.169,908.124 606.201,912.352 600.588,917.041 595.365,922.161 590.565,927.679 586.219,933.562 582.355,939.771 578.995,946.268 576.163,953.011 573.875,959.958 572.147,967.065 570.988,974.286 570.407,981.577 570.407,988.891 570.988,996.181 572.147,1003.4 573.875,1010.51 576.163,1017.46 578.995,1024.2 582.355,1030.7 586.219,1036.91 590.565,1042.79 595.365,1048.31 600.588,1053.43 606.201,1058.12 612.169,1062.34 618.454,1066.08 625.016,1069.31 631.814,1072.01 638.805,1074.16 645.944,1075.75 653.188,1076.76 660.488,1077.2 667.801,1077.05 675.079,1076.33 682.276,1075.03 689.346,1073.16 696.246,1070.73 702.932,1067.76 709.361,1064.28 715.492,1060.29 721.287,1055.83 726.709,1050.92 731.724,1045.6 736.301,1039.89 740.409,1033.84 744.024,1027.48 747.122,1020.86 749.684,1014.01 751.694,1006.97 753.139,999.804 754.009,992.542 754.3,985.234 "/>
<path clip-path="url(#clip182)" d="M932.513 693.312 L932.222 686.004 L931.352 678.742 L929.907 671.572 L927.897 664.54 L925.335 657.69 L922.237 651.065 L918.622 644.707 L914.513 638.656 L909.937 632.951 L904.922 627.627 L899.5 622.719 L893.705 618.257 L887.573 614.269 L881.145 610.781 L874.459 607.816 L867.559 605.39 L860.488 603.521 L853.291 602.219 L846.014 601.493 L838.701 601.347 L831.4 601.783 L824.157 602.798 L817.018 604.385 L810.027 606.534 L803.229 609.232 L796.666 612.461 L790.381 616.202 L784.414 620.43 L778.8 625.119 L773.578 630.239 L768.778 635.758 L764.432 641.64 L760.567 647.85 L757.208 654.346 L754.376 661.09 L752.088 668.036 L750.359 675.143 L749.201 682.365 L748.62 689.655 L748.62 696.969 L749.201 704.26 L750.359 711.481 L752.088 718.588 L754.376 725.535 L757.208 732.278 L760.567 738.775 L764.432 744.984 L768.778 750.867 L773.578 756.385 L778.8 761.505 L784.414 766.194 L790.381 770.422 L796.666 774.163 L803.229 777.392 L810.027 780.09 L817.018 782.239 L824.157 783.826 L831.4 784.841 L838.701 785.277 L846.014 785.131 L853.291 784.406 L860.488 783.104 L867.559 781.234 L874.459 778.809 L881.145 775.843 L887.573 772.355 L893.705 768.368 L899.5 763.906 L904.922 758.997 L909.937 753.674 L914.513 747.969 L918.622 741.918 L922.237 735.56 L925.335 728.934 L927.897 722.084 L929.907 715.052 L931.352 707.882 L932.222 700.62 L932.513 693.312 L932.513 693.312  Z" fill="#5e4fa1" fill-rule="evenodd" fill-opacity="1"/>
<polyline clip-path="url(#clip182)" style="stroke:#000000; stroke-linecap:round; stroke-linejoin:round; stroke-width:4; stroke-opacity:1; fill:none" points="932.513,693.312 932.222,686.004 931.352,678.742 929.907,671.572 927.897,664.54 925.335,657.69 922.237,651.065 918.622,644.707 914.513,638.656 909.937,632.951 904.922,627.627 899.5,622.719 893.705,618.257 887.573,614.269 881.145,610.781 874.459,607.816 867.559,605.39 860.488,603.521 853.291,602.219 846.014,601.493 838.701,601.347 831.4,601.783 824.157,602.798 817.018,604.385 810.027,606.534 803.229,609.232 796.666,612.461 790.381,616.202 784.414,620.43 778.8,625.119 773.578,630.239 768.778,635.758 764.432,641.64 760.567,647.85 757.208,654.346 754.376,661.09 752.088,668.036 750.359,675.143 749.201,682.365 748.62,689.655 748.62,696.969 749.201,704.26 750.359,711.481 752.088,718.588 754.376,725.535 757.208,732.278 760.567,738.775 764.432,744.984 768.778,750.867 773.578,756.385 778.8,761.505 784.414,766.194 790.381,770.422 796.666,774.163 803.229,777.392 810.027,780.09 817.018,782.239 824.157,783.826 831.4,784.841 838.701,785.277 846.014,785.131 853.291,784.406 860.488,783.104 867.559,781.234 874.459,778.809 881.145,775.843 887.573,772.355 893.705,768.368 899.5,763.906 904.922,758.997 909.937,753.674 914.513,747.969 918.622,741.918 922.237,735.56 925.335,728.934 927.897,722.084 929.907,715.052 931.352,707.882 932.222,700.62 932.513,693.312 "/>
<circle clip-path="url(#clip182)" style="fill:#5e4fa1; stroke:none; fill-opacity:0" cx="1563.51" cy="262.317" r="2"/>
<circle clip-path="url(#clip182)" style="fill:#5e4fa1; stroke:none; fill-opacity:0" cx="1737.68" cy="759.417" r="2"/>
<circle clip-path="url(#clip182)" style="fill:#5e4fa1; stroke:none; fill-opacity:0" cx="1069.5" cy="919.197" r="2"/>
<circle clip-path="url(#clip182)" style="fill:#5e4fa1; stroke:none; fill-opacity:0" cx="1057.69" cy="1313.89" r="2"/>
<circle clip-path="url(#clip182)" style="fill:#5e4fa1; stroke:none; fill-opacity:0" cx="785.654" cy="1337.68" r="2"/>
<circle clip-path="url(#clip182)" style="fill:#5e4fa1; stroke:none; fill-opacity:0" cx="662.317" cy="985.234" r="2"/>
<circle clip-path="url(#clip182)" style="fill:#5e4fa1; stroke:none; fill-opacity:0" cx="840.53" cy="693.312" r="2"/>
<path clip-path="url(#clip180)" d="M1523.41 273.123 L1523.41 265.001 L1516.72 265.001 L1516.72 261.639 L1527.46 261.639 L1527.46 274.622 Q1525.09 276.303 1522.23 277.174 Q1519.38 278.025 1516.14 278.025 Q1509.05 278.025 1505.04 273.893 Q1501.05 269.74 1501.05 262.348 Q1501.05 254.934 1505.04 250.803 Q1509.05 246.65 1516.14 246.65 Q1519.09 246.65 1521.75 247.38 Q1524.42 248.109 1526.67 249.526 L1526.67 253.881 Q1524.4 251.957 1521.85 250.985 Q1519.3 250.013 1516.48 250.013 Q1510.93 250.013 1508.14 253.112 Q1505.36 256.21 1505.36 262.348 Q1505.36 268.464 1508.14 271.563 Q1510.93 274.662 1516.48 274.662 Q1518.65 274.662 1520.35 274.298 Q1522.05 273.913 1523.41 273.123 Z" fill="#000000" fill-rule="nonzero" fill-opacity="1" /><path clip-path="url(#clip180)" d="M1547.21 249.972 Q1542.75 249.972 1540.12 253.294 Q1537.51 256.616 1537.51 262.348 Q1537.51 268.059 1540.12 271.381 Q1542.75 274.703 1547.21 274.703 Q1551.66 274.703 1554.26 271.381 Q1556.87 268.059 1556.87 262.348 Q1556.87 256.616 1554.26 253.294 Q1551.66 249.972 1547.21 249.972 M1547.21 246.65 Q1553.57 246.65 1557.37 250.924 Q1561.18 255.177 1561.18 262.348 Q1561.18 269.497 1557.37 273.771 Q1553.57 278.025 1547.21 278.025 Q1540.83 278.025 1537 273.771 Q1533.19 269.518 1533.19 262.348 Q1533.19 255.177 1537 250.924 Q1540.83 246.65 1547.21 246.65 Z" fill="#000000" fill-rule="nonzero" fill-opacity="1" /><path clip-path="url(#clip180)" d="M1579.86 249.972 Q1575.4 249.972 1572.77 253.294 Q1570.16 256.616 1570.16 262.348 Q1570.16 268.059 1572.77 271.381 Q1575.4 274.703 1579.86 274.703 Q1584.31 274.703 1586.91 271.381 Q1589.52 268.059 1589.52 262.348 Q1589.52 256.616 1586.91 253.294 Q1584.31 249.972 1579.86 249.972 M1579.86 246.65 Q1586.22 246.65 1590.03 250.924 Q1593.83 255.177 1593.83 262.348 Q1593.83 269.497 1590.03 273.771 Q1586.22 278.025 1579.86 278.025 Q1573.48 278.025 1569.65 273.771 Q1565.84 269.518 1565.84 262.348 Q1565.84 255.177 1569.65 250.924 Q1573.48 246.65 1579.86 246.65 Z" fill="#000000" fill-rule="nonzero" fill-opacity="1" /><path clip-path="url(#clip180)" d="M1620.85 273.123 L1620.85 265.001 L1614.17 265.001 L1614.17 261.639 L1624.9 261.639 L1624.9 274.622 Q1622.53 276.303 1619.68 277.174 Q1616.82 278.025 1613.58 278.025 Q1606.49 278.025 1602.48 273.893 Q1598.49 269.74 1598.49 262.348 Q1598.49 254.934 1602.48 250.803 Q1606.49 246.65 1613.58 246.65 Q1616.54 246.65 1619.19 247.38 Q1621.87 248.109 1624.11 249.526 L1624.11 253.881 Q1621.85 251.957 1619.29 250.985 Q1616.74 250.013 1613.93 250.013 Q1608.38 250.013 1605.58 253.112 Q1602.81 256.21 1602.81 262.348 Q1602.81 268.464 1605.58 271.563 Q1608.38 274.662 1613.93 274.662 Q1616.09 274.662 1617.79 274.298 Q1619.5 273.913 1620.85 273.123 Z" fill="#000000" fill-rule="nonzero" fill-opacity="1" /><path clip-path="url(#clip180)" d="M1690.05 748.328 L1684.5 763.377 L1695.62 763.377 L1690.05 748.328 M1687.75 744.297 L1692.38 744.297 L1703.91 774.537 L1699.65 774.537 L1696.9 766.78 L1683.27 766.78 L1680.51 774.537 L1676.2 774.537 L1687.75 744.297 Z" fill="#000000" fill-rule="nonzero" fill-opacity="1" /><path clip-path="url(#clip180)" d="M1708.32 744.297 L1714.42 744.297 L1722.14 764.876 L1729.89 744.297 L1735.99 744.297 L1735.99 774.537 L1732 774.537 L1732 747.984 L1724.2 768.724 L1720.09 768.724 L1712.29 747.984 L1712.29 774.537 L1708.32 774.537 L1708.32 744.297 Z" fill="#000000" fill-rule="nonzero" fill-opacity="1" /><path clip-path="url(#clip180)" d="M1742.37 744.297 L1766.13 744.297 L1766.13 747.416 L1747.01 771.094 L1766.6 771.094 L1766.6 774.537 L1741.91 774.537 L1741.91 771.418 L1761.03 747.741 L1742.37 747.741 L1742.37 744.297 Z" fill="#000000" fill-rule="nonzero" fill-opacity="1" /><path clip-path="url(#clip180)" d="M1772.53 744.297 L1778.04 744.297 L1791.45 769.595 L1791.45 744.297 L1795.42 744.297 L1795.42 774.537 L1789.91 774.537 L1776.5 749.239 L1776.5 774.537 L1772.53 774.537 L1772.53 744.297 Z" fill="#000000" fill-rule="nonzero" fill-opacity="1" /><path clip-path="url(#clip180)" d="M1063.3 904.077 L1088.88 904.077 L1088.88 907.521 L1078.14 907.521 L1078.14 934.317 L1074.03 934.317 L1074.03 907.521 L1063.3 907.521 L1063.3 904.077 Z" fill="#000000" fill-rule="nonzero" fill-opacity="1" /><path clip-path="url(#clip180)" d="M1032.45 1314.56 L1032.45 1325.64 L1039.02 1325.64 Q1042.32 1325.64 1043.9 1324.29 Q1045.5 1322.91 1045.5 1320.09 Q1045.5 1317.26 1043.9 1315.92 Q1042.32 1314.56 1039.02 1314.56 L1032.45 1314.56 M1032.45 1302.13 L1032.45 1311.24 L1038.51 1311.24 Q1041.51 1311.24 1042.97 1310.13 Q1044.44 1308.99 1044.44 1306.68 Q1044.44 1304.4 1042.97 1303.26 Q1041.51 1302.13 1038.51 1302.13 L1032.45 1302.13 M1028.36 1298.77 L1038.81 1298.77 Q1043.49 1298.77 1046.02 1300.71 Q1048.56 1302.65 1048.56 1306.24 Q1048.56 1309.01 1047.26 1310.65 Q1045.96 1312.3 1043.45 1312.7 Q1046.47 1313.35 1048.13 1315.41 Q1049.81 1317.46 1049.81 1320.54 Q1049.81 1324.59 1047.06 1326.8 Q1044.3 1329.01 1039.22 1329.01 L1028.36 1329.01 L1028.36 1298.77 Z" fill="#000000" fill-rule="nonzero" fill-opacity="1" /><path clip-path="url(#clip180)" d="M1060.91 1314.56 L1060.91 1325.64 L1067.47 1325.64 Q1070.78 1325.64 1072.36 1324.29 Q1073.96 1322.91 1073.96 1320.09 Q1073.96 1317.26 1072.36 1315.92 Q1070.78 1314.56 1067.47 1314.56 L1060.91 1314.56 M1060.91 1302.13 L1060.91 1311.24 L1066.97 1311.24 Q1069.97 1311.24 1071.42 1310.13 Q1072.9 1308.99 1072.9 1306.68 Q1072.9 1304.4 1071.42 1303.26 Q1069.97 1302.13 1066.97 1302.13 L1060.91 1302.13 M1056.82 1298.77 L1067.27 1298.77 Q1071.95 1298.77 1074.48 1300.71 Q1077.01 1302.65 1077.01 1306.24 Q1077.01 1309.01 1075.72 1310.65 Q1074.42 1312.3 1071.91 1312.7 Q1074.93 1313.35 1076.59 1315.41 Q1078.27 1317.46 1078.27 1320.54 Q1078.27 1324.59 1075.52 1326.8 Q1072.76 1329.01 1067.68 1329.01 L1056.82 1329.01 L1056.82 1298.77 Z" fill="#000000" fill-rule="nonzero" fill-opacity="1" /><path clip-path="url(#clip180)" d="M1078.86 1298.77 L1083.25 1298.77 L1091.64 1311.2 L1099.96 1298.77 L1104.36 1298.77 L1093.66 1314.6 L1093.66 1329.01 L1089.55 1329.01 L1089.55 1314.6 L1078.86 1298.77 Z" fill="#000000" fill-rule="nonzero" fill-opacity="1" /><path clip-path="url(#clip180)" d="M757.642 1322.56 L763.739 1322.56 L771.456 1343.14 L779.213 1322.56 L785.31 1322.56 L785.31 1352.8 L781.32 1352.8 L781.32 1326.25 L773.522 1346.99 L769.41 1346.99 L761.612 1326.25 L761.612 1352.8 L757.642 1352.8 L757.642 1322.56 Z" fill="#000000" fill-rule="nonzero" fill-opacity="1" /><path clip-path="url(#clip180)" d="M803.539 1326.59 L797.989 1341.64 L809.109 1341.64 L803.539 1326.59 M801.23 1322.56 L805.868 1322.56 L817.393 1352.8 L813.14 1352.8 L810.385 1345.05 L796.754 1345.05 L793.999 1352.8 L789.685 1352.8 L801.23 1322.56 Z" fill="#000000" fill-rule="nonzero" fill-opacity="1" /><path clip-path="url(#clip180)" d="M639.531 973.476 L639.531 984.839 L644.676 984.839 Q647.531 984.839 649.091 983.36 Q650.651 981.882 650.651 979.147 Q650.651 976.433 649.091 974.955 Q647.531 973.476 644.676 973.476 L639.531 973.476 M635.439 970.114 L644.676 970.114 Q649.759 970.114 652.352 972.423 Q654.965 974.712 654.965 979.147 Q654.965 983.624 652.352 985.912 Q649.759 988.201 644.676 988.201 L639.531 988.201 L639.531 1000.35 L635.439 1000.35 L635.439 970.114 Z" fill="#000000" fill-rule="nonzero" fill-opacity="1" /><path clip-path="url(#clip180)" d="M660.454 970.114 L677.832 970.114 L677.832 973.557 L664.545 973.557 L664.545 982.469 L676.536 982.469 L676.536 985.912 L664.545 985.912 L664.545 1000.35 L660.454 1000.35 L660.454 970.114 Z" fill="#000000" fill-rule="nonzero" fill-opacity="1" /><path clip-path="url(#clip180)" d="M684.314 970.114 L703.434 970.114 L703.434 973.557 L688.405 973.557 L688.405 982.51 L702.806 982.51 L702.806 985.953 L688.405 985.953 L688.405 996.911 L703.798 996.911 L703.798 1000.35 L684.314 1000.35 L684.314 970.114 Z" fill="#000000" fill-rule="nonzero" fill-opacity="1" /><path clip-path="url(#clip180)" d="M814.675 678.192 L818.767 678.192 L818.767 706.326 Q818.767 711.794 816.68 714.265 Q814.614 716.737 810.017 716.737 L808.457 716.737 L808.457 713.293 L809.733 713.293 Q812.447 713.293 813.561 711.774 Q814.675 710.255 814.675 706.326 L814.675 678.192 Z" fill="#000000" fill-rule="nonzero" fill-opacity="1" /><path clip-path="url(#clip180)" d="M831 681.554 L831 692.917 L836.145 692.917 Q839.001 692.917 840.56 691.439 Q842.12 689.96 842.12 687.226 Q842.12 684.512 840.56 683.033 Q839.001 681.554 836.145 681.554 L831 681.554 M826.909 678.192 L836.145 678.192 Q841.229 678.192 843.821 680.501 Q846.434 682.79 846.434 687.226 Q846.434 691.702 843.821 693.991 Q841.229 696.279 836.145 696.279 L831 696.279 L831 708.432 L826.909 708.432 L826.909 678.192 Z" fill="#000000" fill-rule="nonzero" fill-opacity="1" /><path clip-path="url(#clip180)" d="M851.923 678.192 L858.02 678.192 L865.737 698.771 L873.494 678.192 L879.591 678.192 L879.591 708.432 L875.601 708.432 L875.601 681.878 L867.803 702.619 L863.691 702.619 L855.893 681.878 L855.893 708.432 L851.923 708.432 L851.923 678.192 Z" fill="#000000" fill-rule="nonzero" fill-opacity="1" /></svg>
