<?xml version="1.0" encoding="utf-8"?>
<svg xmlns="http://www.w3.org/2000/svg" xmlns:xlink="http://www.w3.org/1999/xlink" width="600" height="400" viewBox="0 0 2400 1600">
<defs>
  <clipPath id="clip710">
    <rect x="0" y="0" width="2400" height="1600"/>
  </clipPath>
</defs>
<path clip-path="url(#clip710)" d="M0 1600 L2400 1600 L2400 0 L0 0  Z" fill="#ffffff" fill-rule="evenodd" fill-opacity="1"/>
<defs>
  <clipPath id="clip711">
    <rect x="480" y="0" width="1681" height="1600"/>
  </clipPath>
</defs>
<path clip-path="url(#clip710)" d="M447.244 1552.76 L1952.76 1552.76 L1952.76 47.2441 L447.244 47.2441  Z" fill="#ffffff" fill-rule="evenodd" fill-opacity="1"/>
<defs>
  <clipPath id="clip712">
    <rect x="447" y="47" width="1507" height="1507"/>
  </clipPath>
</defs>
<polyline clip-path="url(#clip712)" style="stroke:#000000; stroke-linecap:round; stroke-linejoin:round; stroke-width:4; stroke-opacity:1; fill:none" points="728.894,262.317 662.317,993.663 "/>
<polyline clip-path="url(#clip712)" style="stroke:#000000; stroke-linecap:round; stroke-linejoin:round; stroke-width:4; stroke-opacity:1; fill:none" points="1692.05,1217.7 1507.19,424.029 "/>
<polyline clip-path="url(#clip712)" style="stroke:#000000; stroke-linecap:round; stroke-linejoin:round; stroke-width:4; stroke-opacity:1; fill:none" points="1692.05,1217.7 1334.5,839.662 "/>
<polyline clip-path="url(#clip712)" style="stroke:#000000; stroke-linecap:round; stroke-linejoin:round; stroke-width:4; stroke-opacity:1; fill:none" points="1692.05,1217.7 1737.68,698.8 "/>
<polyline clip-path="url(#clip712)" style="stroke:#000000; stroke-linecap:round; stroke-linejoin:round; stroke-width:4; stroke-opacity:1; fill:none" points="1692.05,1217.7 1426.9,1337.68 "/>
<polyline clip-path="url(#clip712)" style="stroke:#000000; stroke-linecap:round; stroke-linejoin:round; stroke-width:4; stroke-opacity:1; fill:none" points="1507.19,424.029 1334.5,839.662 "/>
<polyline clip-path="url(#clip712)" style="stroke:#000000; stroke-linecap:round; stroke-linejoin:round; stroke-width:4; stroke-opacity:1; fill:none" points="1507.19,424.029 1737.68,698.8 "/>
<polyline clip-path="url(#clip712)" style="stroke:#000000; stroke-linecap:round; stroke-linejoin:round; stroke-width:4; stroke-opacity:1; fill:none" points="1507.19,424.029 1426.9,1337.68 "/>
<polyline clip-path="url(#clip712)" style="stroke:#000000; stroke-linecap:round; stroke-linejoin:round; stroke-width:4; stroke-opacity:1; fill:none" points="1334.5,839.662 1737.68,698.8 "/>
<polyline clip-path="url(#clip712)" style="stroke:#000000; stroke-linecap:round; stroke-linejoin:round; stroke-width:4; stroke-opacity:1; fill:none" points="1334.5,839.662 1426.9,1337.68 "/>
<polyline clip-path="url(#clip712)" style="stroke:#000000; stroke-linecap:round; stroke-linejoin:round; stroke-width:4; stroke-opacity:1; fill:none" points="1737.68,698.8 1426.9,1337.68 "/>
<path clip-path="url(#clip712)" d="M820.877 262.317 L820.586 255.009 L819.716 247.747 L818.271 240.578 L816.261 233.545 L813.699 226.695 L810.601 220.07 L806.986 213.712 L802.878 207.661 L798.301 201.956 L793.286 196.632 L787.864 191.724 L782.069 187.262 L775.937 183.274 L769.509 179.787 L762.823 176.821 L755.923 174.395 L748.852 172.526 L741.655 171.224 L734.378 170.498 L727.065 170.352 L719.764 170.788 L712.521 171.803 L705.382 173.39 L698.391 175.539 L691.593 178.237 L685.03 181.466 L678.746 185.207 L672.778 189.435 L667.165 194.124 L661.942 199.244 L657.142 204.763 L652.796 210.645 L648.931 216.855 L645.572 223.351 L642.74 230.095 L640.452 237.041 L638.723 244.148 L637.565 251.37 L636.984 258.66 L636.984 265.974 L637.565 273.265 L638.723 280.486 L640.452 287.593 L642.74 294.54 L645.572 301.283 L648.931 307.78 L652.796 313.989 L657.142 319.872 L661.942 325.39 L667.165 330.51 L672.778 335.199 L678.746 339.427 L685.03 343.168 L691.593 346.397 L698.391 349.095 L705.382 351.244 L712.521 352.831 L719.764 353.846 L727.065 354.282 L734.378 354.137 L741.655 353.411 L748.852 352.109 L755.923 350.239 L762.823 347.814 L769.509 344.848 L775.937 341.36 L782.069 337.373 L787.864 332.911 L793.286 328.002 L798.301 322.679 L802.878 316.974 L806.986 310.923 L810.601 304.565 L813.699 297.94 L816.261 291.089 L818.271 284.057 L819.716 276.887 L820.586 269.625 L820.877 262.317 L820.877 262.317  Z" fill="#9e0142" fill-rule="evenodd" fill-opacity="1"/>
<polyline clip-path="url(#clip712)" style="stroke:#000000; stroke-linecap:round; stroke-linejoin:round; stroke-width:4; stroke-opacity:1; fill:none" points="820.877,262.317 820.586,255.009 819.716,247.747 818.271,240.578 816.261,233.545 813.699,226.695 810.601,220.07 806.986,213.712 802.878,207.661 798.301,201.956 793.286,196.632 787.864,191.724 782.069,187.262 775.937,183.274 769.509,179.787 762.823,176.821 755.923,174.395 748.852,172.526 741.655,171.224 734.378,170.498 727.065,170.352 719.764,170.788 712.521,171.803 705.382,173.39 698.391,175.539 691.593,178.237 685.03,181.466 678.746,185.207 672.778,189.435 667.165,194.124 661.942,199.244 657.142,204.763 652.796,210.645 648.931,216.855 645.572,223.351 642.74,230.095 640.452,237.041 638.723,244.148 637.565,251.37 636.984,258.66 636.984,265.974 637.565,273.265 638.723,280.486 640.452,287.593 642.74,294.54 645.572,301.283 648.931,307.78 652.796,313.989 657.142,319.872 661.942,325.39 667.165,330.51 672.778,335.199 678.746,339.427 685.03,343.168 691.593,346.397 698.391,349.095 705.382,351.244 712.521,352.831 719.764,353.846 727.065,354.282 734.378,354.137 741.655,353.411 748.852,352.109 755.923,350.239 762.823,347.814 769.509,344.848 775.937,341.36 782.069,337.373 787.864,332.911 793.286,328.002 798.301,322.679 802.878,316.974 806.986,310.923 810.601,304.565 813.699,297.94 816.261,291.089 818.271,284.057 819.716,276.887 820.586,269.625 820.877,262.317 "/>
<path clip-path="url(#clip712)" d="M754.3 993.663 L754.009 986.355 L753.139 979.093 L751.694 971.923 L749.684 964.891 L747.122 958.041 L744.024 951.415 L740.409 945.057 L736.301 939.007 L731.724 933.301 L726.709 927.978 L721.287 923.069 L715.492 918.607 L709.361 914.62 L702.932 911.132 L696.246 908.166 L689.346 905.741 L682.276 903.871 L675.079 902.57 L667.801 901.844 L660.488 901.698 L653.188 902.134 L645.944 903.149 L638.805 904.736 L631.814 906.885 L625.016 909.583 L618.454 912.812 L612.169 916.553 L606.201 920.781 L600.588 925.47 L595.365 930.59 L590.565 936.108 L586.219 941.991 L582.355 948.2 L578.995 954.697 L576.163 961.44 L573.875 968.387 L572.147 975.494 L570.988 982.715 L570.407 990.006 L570.407 997.32 L570.988 1004.61 L572.147 1011.83 L573.875 1018.94 L576.163 1025.89 L578.995 1032.63 L582.355 1039.13 L586.219 1045.33 L590.565 1051.22 L595.365 1056.74 L600.588 1061.86 L606.201 1066.55 L612.169 1070.77 L618.454 1074.51 L625.016 1077.74 L631.814 1080.44 L638.805 1082.59 L645.944 1084.18 L653.188 1085.19 L660.488 1085.63 L667.801 1085.48 L675.079 1084.76 L682.276 1083.45 L689.346 1081.58 L696.246 1079.16 L702.932 1076.19 L709.361 1072.71 L715.492 1068.72 L721.287 1064.26 L726.709 1059.35 L731.724 1054.02 L736.301 1048.32 L740.409 1042.27 L744.024 1035.91 L747.122 1029.29 L749.684 1022.43 L751.694 1015.4 L753.139 1008.23 L754.009 1000.97 L754.3 993.663 L754.3 993.663  Z" fill="#9e0142" fill-rule="evenodd" fill-opacity="1"/>
<polyline clip-path="url(#clip712)" style="stroke:#000000; stroke-linecap:round; stroke-linejoin:round; stroke-width:4; stroke-opacity:1; fill:none" points="754.3,993.663 754.009,986.355 753.139,979.093 751.694,971.923 749.684,964.891 747.122,958.041 744.024,951.415 740.409,945.057 736.301,939.007 731.724,933.301 726.709,927.978 721.287,923.069 715.492,918.607 709.361,914.62 702.932,911.132 696.246,908.166 689.346,905.741 682.276,903.871 675.079,902.57 667.801,901.844 660.488,901.698 653.188,902.134 645.944,903.149 638.805,904.736 631.814,906.885 625.016,909.583 618.454,912.812 612.169,916.553 606.201,920.781 600.588,925.47 595.365,930.59 590.565,936.108 586.219,941.991 582.355,948.2 578.995,954.697 576.163,961.44 573.875,968.387 572.147,975.494 570.988,982.715 570.407,990.006 570.407,997.32 570.988,1004.61 572.147,1011.83 573.875,1018.94 576.163,1025.89 578.995,1032.63 582.355,1039.13 586.219,1045.33 590.565,1051.22 595.365,1056.74 600.588,1061.86 606.201,1066.55 612.169,1070.77 618.454,1074.51 625.016,1077.74 631.814,1080.44 638.805,1082.59 645.944,1084.18 653.188,1085.19 660.488,1085.63 667.801,1085.48 675.079,1084.76 682.276,1083.45 689.346,1081.58 696.246,1079.16 702.932,1076.19 709.361,1072.71 715.492,1068.72 721.287,1064.26 726.709,1059.35 731.724,1054.02 736.301,1048.32 740.409,1042.27 744.024,1035.91 747.122,1029.29 749.684,1022.43 751.694,1015.4 753.139,1008.23 754.009,1000.97 754.3,993.663 "/>
<path clip-path="url(#clip712)" d="M1784.04 1217.7 L1783.75 1210.39 L1782.88 1203.13 L1781.43 1195.96 L1779.42 1188.93 L1776.86 1182.08 L1773.76 1175.45 L1770.15 1169.1 L1766.04 1163.05 L1761.46 1157.34 L1756.45 1152.02 L1751.02 1147.11 L1745.23 1142.65 L1739.1 1138.66 L1732.67 1135.17 L1725.98 1132.21 L1719.08 1129.78 L1712.01 1127.91 L1704.82 1126.61 L1697.54 1125.88 L1690.23 1125.74 L1682.92 1126.17 L1675.68 1127.19 L1668.54 1128.77 L1661.55 1130.92 L1654.75 1133.62 L1648.19 1136.85 L1641.91 1140.59 L1635.94 1144.82 L1630.32 1149.51 L1625.1 1154.63 L1620.3 1160.15 L1615.96 1166.03 L1612.09 1172.24 L1608.73 1178.74 L1605.9 1185.48 L1603.61 1192.43 L1601.88 1199.53 L1600.72 1206.75 L1600.14 1214.05 L1600.14 1221.36 L1600.72 1228.65 L1601.88 1235.87 L1603.61 1242.98 L1605.9 1249.92 L1608.73 1256.67 L1612.09 1263.16 L1615.96 1269.37 L1620.3 1275.26 L1625.1 1280.78 L1630.32 1285.9 L1635.94 1290.58 L1641.91 1294.81 L1648.19 1298.55 L1654.75 1301.78 L1661.55 1304.48 L1668.54 1306.63 L1675.68 1308.22 L1682.92 1309.23 L1690.23 1309.67 L1697.54 1309.52 L1704.82 1308.8 L1712.01 1307.49 L1719.08 1305.62 L1725.98 1303.2 L1732.67 1300.23 L1739.1 1296.74 L1745.23 1292.76 L1751.02 1288.3 L1756.45 1283.39 L1761.46 1278.06 L1766.04 1272.36 L1770.15 1266.31 L1773.76 1259.95 L1776.86 1253.32 L1779.42 1246.47 L1781.43 1239.44 L1782.88 1232.27 L1783.75 1225.01 L1784.04 1217.7 L1784.04 1217.7  Z" fill="#5e4fa1" fill-rule="evenodd" fill-opacity="1"/>
<polyline clip-path="url(#clip712)" style="stroke:#000000; stroke-linecap:round; stroke-linejoin:round; stroke-width:4; stroke-opacity:1; fill:none" points="1784.04,1217.7 1783.75,1210.39 1782.88,1203.13 1781.43,1195.96 1779.42,1188.93 1776.86,1182.08 1773.76,1175.45 1770.15,1169.1 1766.04,1163.05 1761.46,1157.34 1756.45,1152.02 1751.02,1147.11 1745.23,1142.65 1739.1,1138.66 1732.67,1135.17 1725.98,1132.21 1719.08,1129.78 1712.01,1127.91 1704.82,1126.61 1697.54,1125.88 1690.23,1125.74 1682.92,1126.17 1675.68,1127.19 1668.54,1128.77 1661.55,1130.92 1654.75,1133.62 1648.19,1136.85 1641.91,1140.59 1635.94,1144.82 1630.32,1149.51 1625.1,1154.63 1620.3,1160.15 1615.96,1166.03 1612.09,1172.24 1608.73,1178.74 1605.9,1185.48 1603.61,1192.43 1601.88,1199.53 1600.72,1206.75 1600.14,1214.05 1600.14,1221.36 1600.72,1228.65 1601.88,1235.87 1603.61,1242.98 1605.9,1249.92 1608.73,1256.67 1612.09,1263.16 1615.96,1269.37 1620.3,1275.26 1625.1,1280.78 1630.32,1285.9 1635.94,1290.58 1641.91,1294.81 1648.19,1298.55 1654.75,1301.78 1661.55,1304.48 1668.54,1306.63 1675.68,1308.22 1682.92,1309.23 1690.23,1309.67 1697.54,1309.52 1704.82,1308.8 1712.01,1307.49 1719.08,1305.62 1725.98,1303.2 1732.67,1300.23 1739.1,1296.74 1745.23,1292.76 1751.02,1288.3 1756.45,1283.39 1761.46,1278.06 1766.04,1272.36 1770.15,1266.31 1773.76,1259.95 1776.86,1253.32 1779.42,1246.47 1781.43,1239.44 1782.88,1232.27 1783.75,1225.01 1784.04,1217.7 "/>
<path clip-path="url(#clip712)" d="M1599.17 424.029 L1598.88 416.721 L1598.01 409.459 L1596.57 402.29 L1594.56 395.257 L1592 388.407 L1588.9 381.782 L1585.28 375.424 L1581.17 369.373 L1576.6 363.668 L1571.58 358.344 L1566.16 353.436 L1560.36 348.974 L1554.23 344.986 L1547.8 341.499 L1541.12 338.533 L1534.22 336.107 L1527.15 334.238 L1519.95 332.936 L1512.67 332.21 L1505.36 332.064 L1498.06 332.5 L1490.82 333.515 L1483.68 335.102 L1476.69 337.251 L1469.89 339.949 L1463.33 343.179 L1457.04 346.919 L1451.07 351.147 L1445.46 355.836 L1440.24 360.956 L1435.44 366.475 L1431.09 372.357 L1427.23 378.567 L1423.87 385.064 L1421.04 391.807 L1418.75 398.753 L1417.02 405.86 L1415.86 413.082 L1415.28 420.372 L1415.28 427.686 L1415.86 434.977 L1417.02 442.198 L1418.75 449.305 L1421.04 456.252 L1423.87 462.995 L1427.23 469.492 L1431.09 475.701 L1435.44 481.584 L1440.24 487.102 L1445.46 492.222 L1451.07 496.911 L1457.04 501.139 L1463.33 504.88 L1469.89 508.109 L1476.69 510.807 L1483.68 512.956 L1490.82 514.543 L1498.06 515.558 L1505.36 515.994 L1512.67 515.849 L1519.95 515.123 L1527.15 513.821 L1534.22 511.951 L1541.12 509.526 L1547.8 506.56 L1554.23 503.072 L1560.36 499.085 L1566.16 494.623 L1571.58 489.714 L1576.6 484.391 L1581.17 478.686 L1585.28 472.635 L1588.9 466.277 L1592 459.652 L1594.56 452.801 L1596.57 445.769 L1598.01 438.599 L1598.88 431.337 L1599.17 424.029 L1599.17 424.029  Z" fill="#5e4fa1" fill-rule="evenodd" fill-opacity="1"/>
<polyline clip-path="url(#clip712)" style="stroke:#000000; stroke-linecap:round; stroke-linejoin:round; stroke-width:4; stroke-opacity:1; fill:none" points="1599.17,424.029 1598.88,416.721 1598.01,409.459 1596.57,402.29 1594.56,395.257 1592,388.407 1588.9,381.782 1585.28,375.424 1581.17,369.373 1576.6,363.668 1571.58,358.344 1566.16,353.436 1560.36,348.974 1554.23,344.986 1547.8,341.499 1541.12,338.533 1534.22,336.107 1527.15,334.238 1519.95,332.936 1512.67,332.21 1505.36,332.064 1498.06,332.5 1490.82,333.515 1483.68,335.102 1476.69,337.251 1469.89,339.949 1463.33,343.179 1457.04,346.919 1451.07,351.147 1445.46,355.836 1440.24,360.956 1435.44,366.475 1431.09,372.357 1427.23,378.567 1423.87,385.064 1421.04,391.807 1418.75,398.753 1417.02,405.86 1415.86,413.082 1415.28,420.372 1415.28,427.686 1415.86,434.977 1417.02,442.198 1418.75,449.305 1421.04,456.252 1423.87,462.995 1427.23,469.492 1431.09,475.701 1435.44,481.584 1440.24,487.102 1445.46,492.222 1451.07,496.911 1457.04,501.139 1463.33,504.88 1469.89,508.109 1476.69,510.807 1483.68,512.956 1490.82,514.543 1498.06,515.558 1505.36,515.994 1512.67,515.849 1519.95,515.123 1527.15,513.821 1534.22,511.951 1541.12,509.526 1547.8,506.56 1554.23,503.072 1560.36,499.085 1566.16,494.623 1571.58,489.714 1576.6,484.391 1581.17,478.686 1585.28,472.635 1588.9,466.277 1592,459.652 1594.56,452.801 1596.57,445.769 1598.01,438.599 1598.88,431.337 1599.17,424.029 "/>
<path clip-path="url(#clip712)" d="M1426.49 839.662 L1426.2 832.354 L1425.33 825.092 L1423.88 817.923 L1421.87 810.89 L1419.31 804.04 L1416.21 797.415 L1412.6 791.057 L1408.49 785.006 L1403.91 779.301 L1398.9 773.977 L1393.47 769.069 L1387.68 764.607 L1381.55 760.619 L1375.12 757.132 L1368.43 754.166 L1361.53 751.74 L1354.46 749.871 L1347.26 748.569 L1339.99 747.843 L1332.67 747.698 L1325.37 748.134 L1318.13 749.148 L1310.99 750.735 L1304 752.884 L1297.2 755.582 L1290.64 758.812 L1284.35 762.552 L1278.39 766.78 L1272.77 771.469 L1267.55 776.589 L1262.75 782.108 L1258.41 787.991 L1254.54 794.2 L1251.18 800.697 L1248.35 807.44 L1246.06 814.387 L1244.33 821.493 L1243.17 828.715 L1242.59 836.005 L1242.59 843.319 L1243.17 850.61 L1244.33 857.832 L1246.06 864.938 L1248.35 871.885 L1251.18 878.628 L1254.54 885.125 L1258.41 891.334 L1262.75 897.217 L1267.55 902.736 L1272.77 907.856 L1278.39 912.544 L1284.35 916.773 L1290.64 920.513 L1297.2 923.743 L1304 926.44 L1310.99 928.589 L1318.13 930.176 L1325.37 931.191 L1332.67 931.627 L1339.99 931.482 L1347.26 930.756 L1354.46 929.454 L1361.53 927.584 L1368.43 925.159 L1375.12 922.193 L1381.55 918.705 L1387.68 914.718 L1393.47 910.256 L1398.9 905.348 L1403.91 900.024 L1408.49 894.319 L1412.6 888.268 L1416.21 881.91 L1419.31 875.285 L1421.87 868.434 L1423.88 861.402 L1425.33 854.232 L1426.2 846.97 L1426.49 839.662 L1426.49 839.662  Z" fill="#5e4fa1" fill-rule="evenodd" fill-opacity="1"/>
<polyline clip-path="url(#clip712)" style="stroke:#000000; stroke-linecap:round; stroke-linejoin:round; stroke-width:4; stroke-opacity:1; fill:none" points="1426.49,839.662 1426.2,832.354 1425.33,825.092 1423.88,817.923 1421.87,810.89 1419.31,804.04 1416.21,797.415 1412.6,791.057 1408.49,785.006 1403.91,779.301 1398.9,773.977 1393.47,769.069 1387.68,764.607 1381.55,760.619 1375.12,757.132 1368.43,754.166 1361.53,751.74 1354.46,749.871 1347.26,748.569 1339.99,747.843 1332.67,747.698 1325.37,748.134 1318.13,749.148 1310.99,750.735 1304,752.884 1297.2,755.582 1290.64,758.812 1284.35,762.552 1278.39,766.78 1272.77,771.469 1267.55,776.589 1262.75,782.108 1258.41,787.991 1254.54,794.2 1251.18,800.697 1248.35,807.44 1246.06,814.387 1244.33,821.493 1243.17,828.715 1242.59,836.005 1242.59,843.319 1243.17,850.61 1244.33,857.832 1246.06,864.938 1248.35,871.885 1251.18,878.628 1254.54,885.125 1258.41,891.334 1262.75,897.217 1267.55,902.736 1272.77,907.856 1278.39,912.544 1284.35,916.773 1290.64,920.513 1297.2,923.743 1304,926.44 1310.99,928.589 1318.13,930.176 1325.37,931.191 1332.67,931.627 1339.99,931.482 1347.26,930.756 1354.46,929.454 1361.53,927.584 1368.43,925.159 1375.12,922.193 1381.55,918.705 1387.68,914.718 1393.47,910.256 1398.9,905.348 1403.91,900.024 1408.49,894.319 1412.6,888.268 1416.21,881.91 1419.31,875.285 1421.87,868.434 1423.88,861.402 1425.33,854.232 1426.2,846.97 1426.49,839.662 "/>
<path clip-path="url(#clip712)" d="M1829.67 698.8 L1829.37 691.492 L1828.5 684.23 L1827.06 677.06 L1825.05 670.028 L1822.49 663.177 L1819.39 656.552 L1815.77 650.194 L1811.67 644.143 L1807.09 638.438 L1802.07 633.115 L1796.65 628.206 L1790.86 623.744 L1784.73 619.757 L1778.3 616.269 L1771.61 613.303 L1764.71 610.878 L1757.64 609.008 L1750.44 607.706 L1743.17 606.98 L1735.85 606.835 L1728.55 607.271 L1721.31 608.286 L1714.17 609.873 L1707.18 612.022 L1700.38 614.72 L1693.82 617.949 L1687.53 621.69 L1681.57 625.918 L1675.95 630.607 L1670.73 635.727 L1665.93 641.245 L1661.58 647.128 L1657.72 653.337 L1654.36 659.834 L1651.53 666.577 L1649.24 673.524 L1647.51 680.631 L1646.35 687.852 L1645.77 695.143 L1645.77 702.457 L1646.35 709.747 L1647.51 716.969 L1649.24 724.076 L1651.53 731.022 L1654.36 737.765 L1657.72 744.262 L1661.58 750.472 L1665.93 756.354 L1670.73 761.873 L1675.95 766.993 L1681.57 771.682 L1687.53 775.91 L1693.82 779.65 L1700.38 782.88 L1707.18 785.578 L1714.17 787.727 L1721.31 789.314 L1728.55 790.328 L1735.85 790.765 L1743.17 790.619 L1750.44 789.893 L1757.64 788.591 L1764.71 786.722 L1771.61 784.296 L1778.3 781.33 L1784.73 777.843 L1790.86 773.855 L1796.65 769.393 L1802.07 764.485 L1807.09 759.161 L1811.67 753.456 L1815.77 747.405 L1819.39 741.047 L1822.49 734.422 L1825.05 727.572 L1827.06 720.539 L1828.5 713.37 L1829.37 706.108 L1829.67 698.8 L1829.67 698.8  Z" fill="#5e4fa1" fill-rule="evenodd" fill-opacity="1"/>
<polyline clip-path="url(#clip712)" style="stroke:#000000; stroke-linecap:round; stroke-linejoin:round; stroke-width:4; stroke-opacity:1; fill:none" points="1829.67,698.8 1829.37,691.492 1828.5,684.23 1827.06,677.06 1825.05,670.028 1822.49,663.177 1819.39,656.552 1815.77,650.194 1811.67,644.143 1807.09,638.438 1802.07,633.115 1796.65,628.206 1790.86,623.744 1784.73,619.757 1778.3,616.269 1771.61,613.303 1764.71,610.878 1757.64,609.008 1750.44,607.706 1743.17,606.98 1735.85,606.835 1728.55,607.271 1721.31,608.286 1714.17,609.873 1707.18,612.022 1700.38,614.72 1693.82,617.949 1687.53,621.69 1681.57,625.918 1675.95,630.607 1670.73,635.727 1665.93,641.245 1661.58,647.128 1657.72,653.337 1654.36,659.834 1651.53,666.577 1649.24,673.524 1647.51,680.631 1646.35,687.852 1645.77,695.143 1645.77,702.457 1646.35,709.747 1647.51,716.969 1649.24,724.076 1651.53,731.022 1654.36,737.765 1657.72,744.262 1661.58,750.472 1665.93,756.354 1670.73,761.873 1675.95,766.993 1681.57,771.682 1687.53,775.91 1693.82,779.65 1700.38,782.88 1707.18,785.578 1714.17,787.727 1721.31,789.314 1728.55,790.328 1735.85,790.765 1743.17,790.619 1750.44,789.893 1757.64,788.591 1764.71,786.722 1771.61,784.296 1778.3,781.33 1784.73,777.843 1790.86,773.855 1796.65,769.393 1802.07,764.485 1807.09,759.161 1811.67,753.456 1815.77,747.405 1819.39,741.047 1822.49,734.422 1825.05,727.572 1827.06,720.539 1828.5,713.37 1829.37,706.108 1829.67,698.8 1829.67,698.8 "/>
<path clip-path="url(#clip712)" d="M1518.88 1337.68 L1518.59 1330.37 L1517.72 1323.11 L1516.28 1315.94 L1514.27 1308.91 L1511.7 1302.06 L1508.61 1295.44 L1504.99 1289.08 L1500.88 1283.03 L1496.31 1277.32 L1491.29 1272 L1485.87 1267.09 L1480.07 1262.63 L1473.94 1258.64 L1467.51 1255.15 L1460.83 1252.19 L1453.93 1249.76 L1446.86 1247.89 L1439.66 1246.59 L1432.38 1245.86 L1425.07 1245.72 L1417.77 1246.15 L1410.53 1247.17 L1403.39 1248.76 L1396.4 1250.9 L1389.6 1253.6 L1383.03 1256.83 L1376.75 1260.57 L1370.78 1264.8 L1365.17 1269.49 L1359.95 1274.61 L1355.15 1280.13 L1350.8 1286.01 L1346.94 1292.22 L1343.58 1298.72 L1340.74 1305.46 L1338.46 1312.41 L1336.73 1319.51 L1335.57 1326.74 L1334.99 1334.03 L1334.99 1341.34 L1335.57 1348.63 L1336.73 1355.85 L1338.46 1362.96 L1340.74 1369.91 L1343.58 1376.65 L1346.94 1383.15 L1350.8 1389.35 L1355.15 1395.24 L1359.95 1400.76 L1365.17 1405.88 L1370.78 1410.56 L1376.75 1414.79 L1383.03 1418.53 L1389.6 1421.76 L1396.4 1424.46 L1403.39 1426.61 L1410.53 1428.2 L1417.77 1429.21 L1425.07 1429.65 L1432.38 1429.5 L1439.66 1428.78 L1446.86 1427.47 L1453.93 1425.6 L1460.83 1423.18 L1467.51 1420.21 L1473.94 1416.73 L1480.07 1412.74 L1485.87 1408.28 L1491.29 1403.37 L1496.31 1398.04 L1500.88 1392.34 L1504.99 1386.29 L1508.61 1379.93 L1511.7 1373.31 L1514.27 1366.45 L1516.28 1359.42 L1517.72 1352.25 L1518.59 1344.99 L1518.88 1337.68 L1518.88 1337.68  Z" fill="#5e4fa1" fill-rule="evenodd" fill-opacity="1"/>
<polyline clip-path="url(#clip712)" style="stroke:#000000; stroke-linecap:round; stroke-linejoin:round; stroke-width:4; stroke-opacity:1; fill:none" points="1518.88,1337.68 1518.59,1330.37 1517.72,1323.11 1516.28,1315.94 1514.27,1308.91 1511.7,1302.06 1508.61,1295.44 1504.99,1289.08 1500.88,1283.03 1496.31,1277.32 1491.29,1272 1485.87,1267.09 1480.07,1262.63 1473.94,1258.64 1467.51,1255.15 1460.83,1252.19 1453.93,1249.76 1446.86,1247.89 1439.66,1246.59 1432.38,1245.86 1425.07,1245.72 1417.77,1246.15 1410.53,1247.17 1403.39,1248.76 1396.4,1250.9 1389.6,1253.6 1383.03,1256.83 1376.75,1260.57 1370.78,1264.8 1365.17,1269.49 1359.95,1274.61 1355.15,1280.13 1350.8,1286.01 1346.94,1292.22 1343.58,1298.72 1340.74,1305.46 1338.46,1312.41 1336.73,1319.51 1335.57,1326.74 1334.99,1334.03 1334.99,1341.34 1335.57,1348.63 1336.73,1355.85 1338.46,1362.96 1340.74,1369.91 1343.58,1376.65 1346.94,1383.15 1350.8,1389.35 1355.15,1395.24 1359.95,1400.76 1365.17,1405.88 1370.78,1410.56 1376.75,1414.79 1383.03,1418.53 1389.6,1421.76 1396.4,1424.46 1403.39,1426.61 1410.53,1428.2 1417.77,1429.21 1425.07,1429.65 1432.38,1429.5 1439.66,1428.78 1446.86,1427.47 1453.93,1425.6 1460.83,1423.18 1467.51,1420.21 1473.94,1416.73 1480.07,1412.74 1485.87,1408.28 1491.29,1403.37 1496.31,1398.04 1500.88,1392.34 1504.99,1386.29 1508.61,1379.93 1511.7,1373.31 1514.27,1366.45 1516.28,1359.42 1517.72,1352.25 1518.59,1344.99 1518.88,1337.68 "/>
<circle clip-path="url(#clip712)" cx="728.894" cy="262.317" r="0.36" fill="#5e4fa1" fill-rule="evenodd" fill-opacity="1" stroke="#000000" stroke-opacity="1" stroke-width="3.2"/>
<circle clip-path="url(#clip712)" cx="662.317" cy="993.663" r="0.36" fill="#5e4fa1" fill-rule="evenodd" fill-opacity="1" stroke="#000000" stroke-opacity="1" stroke-width="3.2"/>
<circle clip-path="url(#clip712)" cx="1692.05" cy="1217.7" r="0.36" fill="#5e4fa1" fill-rule="evenodd" fill-opacity="1" stroke="#000000" stroke-opacity="1" stroke-width="3.2"/>
<circle clip-path="url(#clip712)" cx="1507.19" cy="424.029" r="0.36" fill="#5e4fa1" fill-rule="evenodd" fill-opacity="1" stroke="#000000" stroke-opacity="1" stroke-width="3.2"/>
<circle clip-path="url(#clip712)" cx="1334.5" cy="839.662" r="0.36" fill="#5e4fa1" fill-rule="evenodd" fill-opacity="1" stroke="#000000" stroke-opacity="1" stroke-width="3.2"/>
<circle clip-path="url(#clip712)" cx="1737.68" cy="698.8" r="0.36" fill="#5e4fa1" fill-rule="evenodd" fill-opacity="1" stroke="#000000" stroke-opacity="1" stroke-width="3.2"/>
<circle clip-path="url(#clip712)" cx="1426.9" cy="1337.68" r="0.36" fill="#5e4fa1" fill-rule="evenodd" fill-opacity="1" stroke="#000000" stroke-opacity="1" stroke-width="3.2"/>
<path clip-path="url(#clip710)" d="M688.79 273.123 L688.79 265.001 L682.106 265.001 L682.106 261.639 L692.841 261.639 L692.841 274.622 Q690.471 276.303 687.615 277.174 Q684.76 278.025 681.519 278.025 Q674.43 278.025 670.419 273.893 Q666.429 269.74 666.429 262.348 Q666.429 254.934 670.419 250.803 Q674.43 246.65 681.519 246.65 Q684.476 246.65 687.129 247.38 Q689.803 248.109 692.051 249.526 L692.051 253.881 Q689.783 251.957 687.231 250.985 Q684.679 250.013 681.863 250.013 Q676.313 250.013 673.518 253.112 Q670.743 256.21 670.743 262.348 Q670.743 268.464 673.518 271.563 Q676.313 274.662 681.863 274.662 Q684.03 274.662 685.732 274.298 Q687.433 273.913 688.79 273.123 Z" fill="#000000" fill-rule="nonzero" fill-opacity="1" /><path clip-path="url(#clip710)" d="M712.589 249.972 Q708.133 249.972 705.5 253.294 Q702.887 256.616 702.887 262.348 Q702.887 268.059 705.5 271.381 Q708.133 274.703 712.589 274.703 Q717.045 274.703 719.638 271.381 Q722.251 268.059 722.251 262.348 Q722.251 256.616 719.638 253.294 Q717.045 249.972 712.589 249.972 M712.589 246.65 Q718.949 246.65 722.757 250.924 Q726.565 255.177 726.565 262.348 Q726.565 269.497 722.757 273.771 Q718.949 278.025 712.589 278.025 Q706.209 278.025 702.381 273.771 Q698.573 269.518 698.573 262.348 Q698.573 255.177 702.381 250.924 Q706.209 246.65 712.589 246.65 Z" fill="#000000" fill-rule="nonzero" fill-opacity="1" /><path clip-path="url(#clip710)" d="M745.24 249.972 Q740.784 249.972 738.15 253.294 Q735.538 256.616 735.538 262.348 Q735.538 268.059 738.15 271.381 Q740.784 274.703 745.24 274.703 Q749.696 274.703 752.288 271.381 Q754.901 268.059 754.901 262.348 Q754.901 256.616 752.288 253.294 Q749.696 249.972 745.24 249.972 M745.24 246.65 Q751.599 246.65 755.407 250.924 Q759.215 255.177 759.215 262.348 Q759.215 269.497 755.407 273.771 Q751.599 278.025 745.24 278.025 Q738.859 278.025 735.031 273.771 Q731.223 269.518 731.223 262.348 Q731.223 255.177 735.031 250.924 Q738.859 246.65 745.24 246.65 Z" fill="#000000" fill-rule="nonzero" fill-opacity="1" /><path clip-path="url(#clip710)" d="M786.235 273.123 L786.235 265.001 L779.551 265.001 L779.551 261.639 L790.286 261.639 L790.286 274.622 Q787.916 276.303 785.06 277.174 Q782.204 278.025 778.963 278.025 Q771.874 278.025 767.864 273.893 Q763.874 269.74 763.874 262.348 Q763.874 254.934 767.864 250.803 Q771.874 246.65 778.963 246.65 Q781.92 246.65 784.574 247.38 Q787.247 248.109 789.496 249.526 L789.496 253.881 Q787.227 251.957 784.675 250.985 Q782.123 250.013 779.308 250.013 Q773.758 250.013 770.963 253.112 Q768.188 256.21 768.188 262.348 Q768.188 268.464 770.963 271.563 Q773.758 274.662 779.308 274.662 Q781.475 274.662 783.176 274.298 Q784.878 273.913 786.235 273.123 Z" fill="#000000" fill-rule="nonzero" fill-opacity="1" /><path clip-path="url(#clip710)" d="M614.689 982.574 L609.139 997.623 L620.259 997.623 L614.689 982.574 M612.38 978.543 L617.018 978.543 L628.543 1008.78 L624.289 1008.78 L621.535 1001.03 L607.903 1001.03 L605.149 1008.78 L600.835 1008.78 L612.38 978.543 Z" fill="#000000" fill-rule="nonzero" fill-opacity="1" /><path clip-path="url(#clip710)" d="M632.958 978.543 L639.055 978.543 L646.772 999.122 L654.529 978.543 L660.626 978.543 L660.626 1008.78 L656.636 1008.78 L656.636 982.229 L648.838 1002.97 L644.726 1002.97 L636.928 982.229 L636.928 1008.78 L632.958 1008.78 L632.958 978.543 Z" fill="#000000" fill-rule="nonzero" fill-opacity="1" /><path clip-path="url(#clip710)" d="M667.006 978.543 L690.765 978.543 L690.765 981.662 L671.644 1005.34 L691.231 1005.34 L691.231 1008.78 L666.54 1008.78 L666.54 1005.66 L685.661 981.986 L667.006 981.986 L667.006 978.543 Z" fill="#000000" fill-rule="nonzero" fill-opacity="1" /><path clip-path="url(#clip710)" d="M697.165 978.543 L702.674 978.543 L716.083 1003.84 L716.083 978.543 L720.053 978.543 L720.053 1008.78 L714.543 1008.78 L701.135 983.485 L701.135 1008.78 L697.165 1008.78 L697.165 978.543 Z" fill="#000000" fill-rule="nonzero" fill-opacity="1" /><path clip-path="url(#clip710)" d="M1685.86 1202.58 L1711.44 1202.58 L1711.44 1206.03 L1700.7 1206.03 L1700.7 1232.82 L1696.59 1232.82 L1696.59 1206.03 L1685.86 1206.03 L1685.86 1202.58 Z" fill="#000000" fill-rule="nonzero" fill-opacity="1" /><path clip-path="url(#clip710)" d="M1481.95 424.708 L1481.95 435.787 L1488.52 435.787 Q1491.82 435.787 1493.4 434.43 Q1495 433.053 1495 430.237 Q1495 427.402 1493.4 426.065 Q1491.82 424.708 1488.52 424.708 L1481.95 424.708 M1481.95 412.271 L1481.95 421.386 L1488.01 421.386 Q1491.01 421.386 1492.47 420.272 Q1493.94 419.138 1493.94 416.829 Q1493.94 414.54 1492.47 413.406 Q1491.01 412.271 1488.01 412.271 L1481.95 412.271 M1477.86 408.909 L1488.31 408.909 Q1492.99 408.909 1495.52 410.854 Q1498.06 412.798 1498.06 416.383 Q1498.06 419.158 1496.76 420.799 Q1495.46 422.439 1492.95 422.844 Q1495.97 423.492 1497.63 425.558 Q1499.31 427.604 1499.31 430.683 Q1499.31 434.734 1496.56 436.941 Q1493.8 439.149 1488.72 439.149 L1477.86 439.149 L1477.86 408.909 Z" fill="#000000" fill-rule="nonzero" fill-opacity="1" /><path clip-path="url(#clip710)" d="M1510.41 424.708 L1510.41 435.787 L1516.97 435.787 Q1520.27 435.787 1521.85 434.43 Q1523.45 433.053 1523.45 430.237 Q1523.45 427.402 1521.85 426.065 Q1520.27 424.708 1516.97 424.708 L1510.41 424.708 M1510.41 412.271 L1510.41 421.386 L1516.47 421.386 Q1519.46 421.386 1520.92 420.272 Q1522.4 419.138 1522.4 416.829 Q1522.4 414.54 1520.92 413.406 Q1519.46 412.271 1516.47 412.271 L1510.41 412.271 M1506.32 408.909 L1516.77 408.909 Q1521.45 408.909 1523.98 410.854 Q1526.51 412.798 1526.51 416.383 Q1526.51 419.158 1525.22 420.799 Q1523.92 422.439 1521.41 422.844 Q1524.43 423.492 1526.09 425.558 Q1527.77 427.604 1527.77 430.683 Q1527.77 434.734 1525.01 436.941 Q1522.26 439.149 1517.18 439.149 L1506.32 439.149 L1506.32 408.909 Z" fill="#000000" fill-rule="nonzero" fill-opacity="1" /><path clip-path="url(#clip710)" d="M1528.36 408.909 L1532.75 408.909 L1541.14 421.346 L1549.46 408.909 L1553.86 408.909 L1543.16 424.748 L1543.16 439.149 L1539.05 439.149 L1539.05 424.748 L1528.36 408.909 Z" fill="#000000" fill-rule="nonzero" fill-opacity="1" /><path clip-path="url(#clip710)" d="M1306.49 824.542 L1312.59 824.542 L1320.31 845.121 L1328.06 824.542 L1334.16 824.542 L1334.16 854.782 L1330.17 854.782 L1330.17 828.229 L1322.37 848.969 L1318.26 848.969 L1310.46 828.229 L1310.46 854.782 L1306.49 854.782 L1306.49 824.542 Z" fill="#000000" fill-rule="nonzero" fill-opacity="1" /><path clip-path="url(#clip710)" d="M1352.39 828.573 L1346.84 843.622 L1357.96 843.622 L1352.39 828.573 M1350.08 824.542 L1354.72 824.542 L1366.24 854.782 L1361.99 854.782 L1359.23 847.025 L1345.6 847.025 L1342.85 854.782 L1338.53 854.782 L1350.08 824.542 Z" fill="#000000" fill-rule="nonzero" fill-opacity="1" /><path clip-path="url(#clip710)" d="M1714.9 687.042 L1714.9 698.405 L1720.04 698.405 Q1722.9 698.405 1724.46 696.926 Q1726.02 695.448 1726.02 692.713 Q1726.02 689.999 1724.46 688.521 Q1722.9 687.042 1720.04 687.042 L1714.9 687.042 M1710.81 683.68 L1720.04 683.68 Q1725.12 683.68 1727.72 685.989 Q1730.33 688.278 1730.33 692.713 Q1730.33 697.19 1727.72 699.478 Q1725.12 701.767 1720.04 701.767 L1714.9 701.767 L1714.9 713.92 L1710.81 713.92 L1710.81 683.68 Z" fill="#000000" fill-rule="nonzero" fill-opacity="1" /><path clip-path="url(#clip710)" d="M1735.82 683.68 L1753.2 683.68 L1753.2 687.123 L1739.91 687.123 L1739.91 696.035 L1751.9 696.035 L1751.9 699.478 L1739.91 699.478 L1739.91 713.92 L1735.82 713.92 L1735.82 683.68 Z" fill="#000000" fill-rule="nonzero" fill-opacity="1" /><path clip-path="url(#clip710)" d="M1759.68 683.68 L1778.8 683.68 L1778.8 687.123 L1763.77 687.123 L1763.77 696.076 L1778.17 696.076 L1778.17 699.519 L1763.77 699.519 L1763.77 710.476 L1779.16 710.476 L1779.16 713.92 L1759.68 713.92 L1759.68 683.68 Z" fill="#000000" fill-rule="nonzero" fill-opacity="1" /><path clip-path="url(#clip710)" d="M1401.04 1322.56 L1405.13 1322.56 L1405.13 1350.7 Q1405.13 1356.17 1403.05 1358.64 Q1400.98 1361.11 1396.38 1361.11 L1394.83 1361.11 L1394.83 1357.66 L1396.1 1357.66 Q1398.82 1357.66 1399.93 1356.14 Q1401.04 1354.63 1401.04 1350.7 L1401.04 1322.56 Z" fill="#000000" fill-rule="nonzero" fill-opacity="1" /><path clip-path="url(#clip710)" d="M1417.37 1325.93 L1417.37 1337.29 L1422.51 1337.29 Q1425.37 1337.29 1426.93 1335.81 Q1428.49 1334.33 1428.49 1331.6 Q1428.49 1328.88 1426.93 1327.4 Q1425.37 1325.93 1422.51 1325.93 L1417.37 1325.93 M1413.28 1322.56 L1422.51 1322.56 Q1427.6 1322.56 1430.19 1324.87 Q1432.8 1327.16 1432.8 1331.6 Q1432.8 1336.07 1430.19 1338.36 Q1427.6 1340.65 1422.51 1340.65 L1417.37 1340.65 L1417.37 1352.8 L1413.28 1352.8 L1413.28 1322.56 Z" fill="#000000" fill-rule="nonzero" fill-opacity="1" /><path clip-path="url(#clip710)" d="M1438.29 1322.56 L1444.39 1322.56 L1452.11 1343.14 L1459.86 1322.56 L1465.96 1322.56 L1465.96 1352.8 L1461.97 1352.8 L1461.97 1326.25 L1454.17 1346.99 L1450.06 1346.99 L1442.26 1326.25 L1442.26 1352.8 L1438.29 1352.8 L1438.29 1322.56 Z" fill="#000000" fill-rule="nonzero" fill-opacity="1" /></svg>
