<?xml version="1.0" encoding="utf-8"?>
<svg xmlns="http://www.w3.org/2000/svg" xmlns:xlink="http://www.w3.org/1999/xlink" width="600" height="400" viewBox="0 0 2400 1600">
<defs>
  <clipPath id="clip700">
    <rect x="0" y="0" width="2400" height="1600"/>
  </clipPath>
</defs>
<path clip-path="url(#clip700)" d="M0 1600 L2400 1600 L2400 0 L0 0  Z" fill="#ffffff" fill-rule="evenodd" fill-opacity="1"/>
<defs>
  <clipPath id="clip701">
    <rect x="480" y="0" width="1681" height="1600"/>
  </clipPath>
</defs>
<path clip-path="url(#clip700)" d="M447.244 1552.76 L1952.76 1552.76 L1952.76 47.2441 L447.244 47.2441  Z" fill="#ffffff" fill-rule="evenodd" fill-opacity="1"/>
<defs>
  <clipPath id="clip702">
    <rect x="447" y="47" width="1507" height="1507"/>
  </clipPath>
</defs>
<polyline clip-path="url(#clip702)" style="stroke:#000000; stroke-linecap:round; stroke-linejoin:round; stroke-width:4; stroke-opacity:1; fill:none" points="1501.71,822.338 1737.68,804.691 "/>
<polyline clip-path="url(#clip702)" style="stroke:#000000; stroke-linecap:round; stroke-linejoin:round; stroke-width:4; stroke-opacity:1; fill:none" points="1501.71,822.338 1262.4,850.222 "/>
<polyline clip-path="url(#clip702)" style="stroke:#000000; stroke-linecap:round; stroke-linejoin:round; stroke-width:4; stroke-opacity:1; fill:none" points="838.908,559.581 662.317,262.317 "/>
<polyline clip-path="url(#clip702)" style="stroke:#000000; stroke-linecap:round; stroke-linejoin:round; stroke-width:4; stroke-opacity:1; fill:none" points="838.908,559.581 1011.04,901.874 "/>
<polyline clip-path="url(#clip702)" style="stroke:#000000; stroke-linecap:round; stroke-linejoin:round; stroke-width:4; stroke-opacity:1; fill:none" points="911.632,1337.68 1011.04,901.874 "/>
<polyline clip-path="url(#clip702)" style="stroke:#000000; stroke-linecap:round; stroke-linejoin:round; stroke-width:4; stroke-opacity:1; fill:none" points="1262.4,850.222 1011.04,901.874 "/>
<path clip-path="url(#clip702)" d="M1593.7 822.338 L1593.4 815.03 L1592.53 807.768 L1591.09 800.598 L1589.08 793.566 L1586.52 786.715 L1583.42 780.09 L1579.8 773.732 L1575.7 767.681 L1571.12 761.976 L1566.1 756.653 L1560.68 751.744 L1554.89 747.282 L1548.76 743.295 L1542.33 739.807 L1535.64 736.841 L1528.74 734.416 L1521.67 732.546 L1514.47 731.244 L1507.2 730.518 L1499.88 730.373 L1492.58 730.809 L1485.34 731.824 L1478.2 733.411 L1471.21 735.56 L1464.41 738.258 L1457.85 741.487 L1451.56 745.228 L1445.6 749.456 L1439.98 754.144 L1434.76 759.264 L1429.96 764.783 L1425.61 770.666 L1421.75 776.875 L1418.39 783.372 L1415.56 790.115 L1413.27 797.062 L1411.54 804.169 L1410.38 811.39 L1409.8 818.681 L1409.8 825.995 L1410.38 833.285 L1411.54 840.507 L1413.27 847.614 L1415.56 854.56 L1418.39 861.303 L1421.75 867.8 L1425.61 874.01 L1429.96 879.892 L1434.76 885.411 L1439.98 890.531 L1445.6 895.22 L1451.56 899.448 L1457.85 903.188 L1464.41 906.418 L1471.21 909.116 L1478.2 911.265 L1485.34 912.852 L1492.58 913.866 L1499.88 914.302 L1507.2 914.157 L1514.47 913.431 L1521.67 912.129 L1528.74 910.26 L1535.64 907.834 L1542.33 904.868 L1548.76 901.381 L1554.89 897.393 L1560.68 892.931 L1566.1 888.023 L1571.12 882.699 L1575.7 876.994 L1579.8 870.943 L1583.42 864.585 L1586.52 857.96 L1589.08 851.11 L1591.09 844.077 L1592.53 836.908 L1593.4 829.646 L1593.7 822.338 L1593.7 822.338  Z" fill="#9e0142" fill-rule="evenodd" fill-opacity="1"/>
<polyline clip-path="url(#clip702)" style="stroke:#000000; stroke-linecap:round; stroke-linejoin:round; stroke-width:4; stroke-opacity:1; fill:none" points="1593.7,822.338 1593.4,815.03 1592.53,807.768 1591.09,800.598 1589.08,793.566 1586.52,786.715 1583.42,780.09 1579.8,773.732 1575.7,767.681 1571.12,761.976 1566.1,756.653 1560.68,751.744 1554.89,747.282 1548.76,743.295 1542.33,739.807 1535.64,736.841 1528.74,734.416 1521.67,732.546 1514.47,731.244 1507.2,730.518 1499.88,730.373 1492.58,730.809 1485.34,731.824 1478.2,733.411 1471.21,735.56 1464.41,738.258 1457.85,741.487 1451.56,745.228 1445.6,749.456 1439.98,754.144 1434.76,759.264 1429.96,764.783 1425.61,770.666 1421.75,776.875 1418.39,783.372 1415.56,790.115 1413.27,797.062 1411.54,804.169 1410.38,811.39 1409.8,818.681 1409.8,825.995 1410.38,833.285 1411.54,840.507 1413.27,847.614 1415.56,854.56 1418.39,861.303 1421.75,867.8 1425.61,874.01 1429.96,879.892 1434.76,885.411 1439.98,890.531 1445.6,895.22 1451.56,899.448 1457.85,903.188 1464.41,906.418 1471.21,909.116 1478.2,911.265 1485.34,912.852 1492.58,913.866 1499.88,914.302 1507.2,914.157 1514.47,913.431 1521.67,912.129 1528.74,910.26 1535.64,907.834 1542.33,904.868 1548.76,901.381 1554.89,897.393 1560.68,892.931 1566.1,888.023 1571.12,882.699 1575.7,876.994 1579.8,870.943 1583.42,864.585 1586.52,857.96 1589.08,851.11 1591.09,844.077 1592.53,836.908 1593.4,829.646 1593.7,822.338 1593.7,822.338 "/>
<path clip-path="url(#clip702)" d="M1829.67 804.691 L1829.37 797.383 L1828.5 790.121 L1827.06 782.952 L1825.05 775.919 L1822.49 769.069 L1819.39 762.444 L1815.77 756.086 L1811.67 750.035 L1807.09 744.33 L1802.07 739.006 L1796.65 734.098 L1790.86 729.636 L1784.73 725.648 L1778.3 722.161 L1771.61 719.195 L1764.71 716.769 L1757.64 714.9 L1750.44 713.598 L1743.17 712.872 L1735.85 712.726 L1728.55 713.162 L1721.31 714.177 L1714.17 715.764 L1707.18 717.913 L1700.38 720.611 L1693.82 723.84 L1687.53 727.581 L1681.57 731.809 L1675.95 736.498 L1670.73 741.618 L1665.93 747.137 L1661.58 753.019 L1657.72 759.229 L1654.36 765.725 L1651.53 772.469 L1649.24 779.415 L1647.51 786.522 L1646.35 793.744 L1645.77 801.034 L1645.77 808.348 L1646.35 815.639 L1647.51 822.86 L1649.24 829.967 L1651.53 836.914 L1654.36 843.657 L1657.72 850.154 L1661.58 856.363 L1665.93 862.246 L1670.73 867.764 L1675.95 872.884 L1681.57 877.573 L1687.53 881.801 L1693.82 885.542 L1700.38 888.771 L1707.18 891.469 L1714.17 893.618 L1721.31 895.205 L1728.55 896.22 L1735.85 896.656 L1743.17 896.511 L1750.44 895.785 L1757.64 894.483 L1764.71 892.613 L1771.61 890.188 L1778.3 887.222 L1784.73 883.734 L1790.86 879.747 L1796.65 875.285 L1802.07 870.376 L1807.09 865.053 L1811.67 859.348 L1815.77 853.297 L1819.39 846.939 L1822.49 840.314 L1825.05 833.463 L1827.06 826.431 L1828.5 819.261 L1829.37 811.999 L1829.67 804.691 L1829.67 804.691  Z" fill="#9e0142" fill-rule="evenodd" fill-opacity="1"/>
<polyline clip-path="url(#clip702)" style="stroke:#000000; stroke-linecap:round; stroke-linejoin:round; stroke-width:4; stroke-opacity:1; fill:none" points="1829.67,804.691 1829.37,797.383 1828.5,790.121 1827.06,782.952 1825.05,775.919 1822.49,769.069 1819.39,762.444 1815.77,756.086 1811.67,750.035 1807.09,744.33 1802.07,739.006 1796.65,734.098 1790.86,729.636 1784.73,725.648 1778.3,722.161 1771.61,719.195 1764.71,716.769 1757.64,714.9 1750.44,713.598 1743.17,712.872 1735.85,712.726 1728.55,713.162 1721.31,714.177 1714.17,715.764 1707.18,717.913 1700.38,720.611 1693.82,723.84 1687.53,727.581 1681.57,731.809 1675.95,736.498 1670.73,741.618 1665.93,747.137 1661.58,753.019 1657.72,759.229 1654.36,765.725 1651.53,772.469 1649.24,779.415 1647.51,786.522 1646.35,793.744 1645.77,801.034 1645.77,808.348 1646.35,815.639 1647.51,822.86 1649.24,829.967 1651.53,836.914 1654.36,843.657 1657.72,850.154 1661.58,856.363 1665.93,862.246 1670.73,867.764 1675.95,872.884 1681.57,877.573 1687.53,881.801 1693.82,885.542 1700.38,888.771 1707.18,891.469 1714.17,893.618 1721.31,895.205 1728.55,896.22 1735.85,896.656 1743.17,896.511 1750.44,895.785 1757.64,894.483 1764.71,892.613 1771.61,890.188 1778.3,887.222 1784.73,883.734 1790.86,879.747 1796.65,875.285 1802.07,870.376 1807.09,865.053 1811.67,859.348 1815.77,853.297 1819.39,846.939 1822.49,840.314 1825.05,833.463 1827.06,826.431 1828.5,819.261 1829.37,811.999 1829.67,804.691 "/>
<path clip-path="url(#clip702)" d="M930.891 559.581 L930.6 552.272 L929.73 545.011 L928.285 537.841 L926.275 530.809 L923.713 523.958 L920.615 517.333 L917 510.975 L912.891 504.924 L908.315 499.219 L903.3 493.895 L897.878 488.987 L892.083 484.525 L885.951 480.538 L879.523 477.05 L872.837 474.084 L865.937 471.658 L858.866 469.789 L851.669 468.487 L844.391 467.761 L837.079 467.616 L829.778 468.052 L822.535 469.066 L815.396 470.653 L808.405 472.803 L801.607 475.5 L795.044 478.73 L788.759 482.47 L782.791 486.698 L777.178 491.387 L771.955 496.507 L767.156 502.026 L762.81 507.909 L758.945 514.118 L755.586 520.615 L752.754 527.358 L750.466 534.305 L748.737 541.411 L747.579 548.633 L746.998 555.924 L746.998 563.237 L747.579 570.528 L748.737 577.75 L750.466 584.856 L752.754 591.803 L755.586 598.546 L758.945 605.043 L762.81 611.252 L767.156 617.135 L771.955 622.654 L777.178 627.774 L782.791 632.463 L788.759 636.691 L795.044 640.431 L801.607 643.661 L808.405 646.358 L815.396 648.508 L822.535 650.095 L829.778 651.109 L837.079 651.545 L844.391 651.4 L851.669 650.674 L858.866 649.372 L865.937 647.503 L872.837 645.077 L879.523 642.111 L885.951 638.623 L892.083 634.636 L897.878 630.174 L903.3 625.266 L908.315 619.942 L912.891 614.237 L917 608.186 L920.615 601.828 L923.713 595.203 L926.275 588.352 L928.285 581.32 L929.73 574.15 L930.6 566.889 L930.891 559.581 L930.891 559.581  Z" fill="#5e4fa1" fill-rule="evenodd" fill-opacity="1"/>
<polyline clip-path="url(#clip702)" style="stroke:#000000; stroke-linecap:round; stroke-linejoin:round; stroke-width:4; stroke-opacity:1; fill:none" points="930.891,559.581 930.6,552.272 929.73,545.011 928.285,537.841 926.275,530.809 923.713,523.958 920.615,517.333 917,510.975 912.891,504.924 908.315,499.219 903.3,493.895 897.878,488.987 892.083,484.525 885.951,480.538 879.523,477.05 872.837,474.084 865.937,471.658 858.866,469.789 851.669,468.487 844.391,467.761 837.079,467.616 829.778,468.052 822.535,469.066 815.396,470.653 808.405,472.803 801.607,475.5 795.044,478.73 788.759,482.47 782.791,486.698 777.178,491.387 771.955,496.507 767.156,502.026 762.81,507.909 758.945,514.118 755.586,520.615 752.754,527.358 750.466,534.305 748.737,541.411 747.579,548.633 746.998,555.924 746.998,563.237 747.579,570.528 748.737,577.75 750.466,584.856 752.754,591.803 755.586,598.546 758.945,605.043 762.81,611.252 767.156,617.135 771.955,622.654 777.178,627.774 782.791,632.463 788.759,636.691 795.044,640.431 801.607,643.661 808.405,646.358 815.396,648.508 822.535,650.095 829.778,651.109 837.079,651.545 844.391,651.4 851.669,650.674 858.866,649.372 865.937,647.503 872.837,645.077 879.523,642.111 885.951,638.623 892.083,634.636 897.878,630.174 903.3,625.266 908.315,619.942 912.891,614.237 917,608.186 920.615,601.828 923.713,595.203 926.275,588.352 928.285,581.32 929.73,574.15 930.6,566.889 930.891,559.581 "/>
<path clip-path="url(#clip702)" d="M1003.61 1337.68 L1003.32 1330.37 L1002.45 1323.11 L1001.01 1315.94 L998.999 1308.91 L996.437 1302.06 L993.339 1295.44 L989.724 1289.08 L985.615 1283.03 L981.039 1277.32 L976.024 1272 L970.602 1267.09 L964.807 1262.63 L958.675 1258.64 L952.247 1255.15 L945.561 1252.19 L938.661 1249.76 L931.59 1247.89 L924.393 1246.59 L917.115 1245.86 L909.803 1245.72 L902.502 1246.15 L895.259 1247.17 L888.12 1248.76 L881.129 1250.9 L874.331 1253.6 L867.768 1256.83 L861.483 1260.57 L855.515 1264.8 L849.902 1269.49 L844.679 1274.61 L839.88 1280.13 L835.534 1286.01 L831.669 1292.22 L828.31 1298.72 L825.478 1305.46 L823.19 1312.41 L821.461 1319.51 L820.303 1326.74 L819.722 1334.03 L819.722 1341.34 L820.303 1348.63 L821.461 1355.85 L823.19 1362.96 L825.478 1369.91 L828.31 1376.65 L831.669 1383.15 L835.534 1389.35 L839.88 1395.24 L844.679 1400.76 L849.902 1405.88 L855.515 1410.56 L861.483 1414.79 L867.768 1418.53 L874.331 1421.76 L881.129 1424.46 L888.12 1426.61 L895.259 1428.2 L902.502 1429.21 L909.803 1429.65 L917.115 1429.5 L924.393 1428.78 L931.59 1427.47 L938.661 1425.6 L945.561 1423.18 L952.247 1420.21 L958.675 1416.73 L964.807 1412.74 L970.602 1408.28 L976.024 1403.37 L981.039 1398.04 L985.615 1392.34 L989.724 1386.29 L993.339 1379.93 L996.437 1373.31 L998.999 1366.45 L1001.01 1359.42 L1002.45 1352.25 L1003.32 1344.99 L1003.61 1337.68 L1003.61 1337.68  Z" fill="#5e4fa1" fill-rule="evenodd" fill-opacity="1"/>
<polyline clip-path="url(#clip702)" style="stroke:#000000; stroke-linecap:round; stroke-linejoin:round; stroke-width:4; stroke-opacity:1; fill:none" points="1003.61,1337.68 1003.32,1330.37 1002.45,1323.11 1001.01,1315.94 998.999,1308.91 996.437,1302.06 993.339,1295.44 989.724,1289.08 985.615,1283.03 981.039,1277.32 976.024,1272 970.602,1267.09 964.807,1262.63 958.675,1258.64 952.247,1255.15 945.561,1252.19 938.661,1249.76 931.59,1247.89 924.393,1246.59 917.115,1245.86 909.803,1245.72 902.502,1246.15 895.259,1247.17 888.12,1248.76 881.129,1250.9 874.331,1253.6 867.768,1256.83 861.483,1260.57 855.515,1264.8 849.902,1269.49 844.679,1274.61 839.88,1280.13 835.534,1286.01 831.669,1292.22 828.31,1298.72 825.478,1305.46 823.19,1312.41 821.461,1319.51 820.303,1326.74 819.722,1334.03 819.722,1341.34 820.303,1348.63 821.461,1355.85 823.19,1362.96 825.478,1369.91 828.31,1376.65 831.669,1383.15 835.534,1389.35 839.88,1395.24 844.679,1400.76 849.902,1405.88 855.515,1410.56 861.483,1414.79 867.768,1418.53 874.331,1421.76 881.129,1424.46 888.12,1426.61 895.259,1428.2 902.502,1429.21 909.803,1429.65 917.115,1429.5 924.393,1428.78 931.59,1427.47 938.661,1425.6 945.561,1423.18 952.247,1420.21 958.675,1416.73 964.807,1412.74 970.602,1408.28 976.024,1403.37 981.039,1398.04 985.615,1392.34 989.724,1386.29 993.339,1379.93 996.437,1373.31 998.999,1366.45 1001.01,1359.42 1002.45,1352.25 1003.32,1344.99 1003.61,1337.68 "/>
<path clip-path="url(#clip702)" d="M1354.38 850.222 L1354.09 842.914 L1353.22 835.652 L1351.78 828.483 L1349.77 821.45 L1347.2 814.6 L1344.11 807.975 L1340.49 801.617 L1336.38 795.566 L1331.81 789.861 L1326.79 784.537 L1321.37 779.629 L1315.57 775.167 L1309.44 771.179 L1303.01 767.692 L1296.33 764.726 L1289.43 762.3 L1282.36 760.431 L1275.16 759.129 L1267.88 758.403 L1260.57 758.257 L1253.27 758.693 L1246.03 759.708 L1238.89 761.295 L1231.9 763.444 L1225.1 766.142 L1218.54 769.371 L1212.25 773.112 L1206.28 777.34 L1200.67 782.029 L1195.45 787.149 L1190.65 792.668 L1186.3 798.55 L1182.44 804.76 L1179.08 811.256 L1176.25 818 L1173.96 824.946 L1172.23 832.053 L1171.07 839.275 L1170.49 846.565 L1170.49 853.879 L1171.07 861.17 L1172.23 868.391 L1173.96 875.498 L1176.25 882.445 L1179.08 889.188 L1182.44 895.685 L1186.3 901.894 L1190.65 907.777 L1195.45 913.295 L1200.67 918.415 L1206.28 923.104 L1212.25 927.332 L1218.54 931.073 L1225.1 934.302 L1231.9 937 L1238.89 939.149 L1246.03 940.736 L1253.27 941.751 L1260.57 942.187 L1267.88 942.042 L1275.16 941.316 L1282.36 940.014 L1289.43 938.144 L1296.33 935.719 L1303.01 932.753 L1309.44 929.265 L1315.57 925.278 L1321.37 920.816 L1326.79 915.907 L1331.81 910.584 L1336.38 904.879 L1340.49 898.828 L1344.11 892.47 L1347.2 885.845 L1349.77 878.994 L1351.78 871.962 L1353.22 864.792 L1354.09 857.53 L1354.38 850.222 L1354.38 850.222  Z" fill="#5e4fa1" fill-rule="evenodd" fill-opacity="1"/>
<polyline clip-path="url(#clip702)" style="stroke:#000000; stroke-linecap:round; stroke-linejoin:round; stroke-width:4; stroke-opacity:1; fill:none" points="1354.38,850.222 1354.09,842.914 1353.22,835.652 1351.78,828.483 1349.77,821.45 1347.2,814.6 1344.11,807.975 1340.49,801.617 1336.38,795.566 1331.81,789.861 1326.79,784.537 1321.37,779.629 1315.57,775.167 1309.44,771.179 1303.01,767.692 1296.33,764.726 1289.43,762.3 1282.36,760.431 1275.16,759.129 1267.88,758.403 1260.57,758.257 1253.27,758.693 1246.03,759.708 1238.89,761.295 1231.9,763.444 1225.1,766.142 1218.54,769.371 1212.25,773.112 1206.28,777.34 1200.67,782.029 1195.45,787.149 1190.65,792.668 1186.3,798.55 1182.44,804.76 1179.08,811.256 1176.25,818 1173.96,824.946 1172.23,832.053 1171.07,839.275 1170.49,846.565 1170.49,853.879 1171.07,861.17 1172.23,868.391 1173.96,875.498 1176.25,882.445 1179.08,889.188 1182.44,895.685 1186.3,901.894 1190.65,907.777 1195.45,913.295 1200.67,918.415 1206.28,923.104 1212.25,927.332 1218.54,931.073 1225.1,934.302 1231.9,937 1238.89,939.149 1246.03,940.736 1253.27,941.751 1260.57,942.187 1267.88,942.042 1275.16,941.316 1282.36,940.014 1289.43,938.144 1296.33,935.719 1303.01,932.753 1309.44,929.265 1315.57,925.278 1321.37,920.816 1326.79,915.907 1331.81,910.584 1336.38,904.879 1340.49,898.828 1344.11,892.47 1347.2,885.845 1349.77,878.994 1351.78,871.962 1353.22,864.792 1354.09,857.53 1354.38,850.222 "/>
<path clip-path="url(#clip702)" d="M754.3 262.317 L754.009 255.009 L753.139 247.747 L751.694 240.578 L749.684 233.545 L747.122 226.695 L744.024 220.07 L740.409 213.712 L736.301 207.661 L731.724 201.956 L726.709 196.632 L721.287 191.724 L715.492 187.262 L709.361 183.274 L702.932 179.787 L696.246 176.821 L689.346 174.395 L682.276 172.526 L675.079 171.224 L667.801 170.498 L660.488 170.352 L653.188 170.788 L645.944 171.803 L638.805 173.39 L631.814 175.539 L625.016 178.237 L618.454 181.466 L612.169 185.207 L606.201 189.435 L600.588 194.124 L595.365 199.244 L590.565 204.763 L586.219 210.645 L582.355 216.855 L578.995 223.351 L576.163 230.095 L573.875 237.041 L572.147 244.148 L570.988 251.37 L570.407 258.66 L570.407 265.974 L570.988 273.265 L572.147 280.486 L573.875 287.593 L576.163 294.54 L578.995 301.283 L582.355 307.78 L586.219 313.989 L590.565 319.872 L595.365 325.39 L600.588 330.51 L606.201 335.199 L612.169 339.427 L618.454 343.168 L625.016 346.397 L631.814 349.095 L638.805 351.244 L645.944 352.831 L653.188 353.846 L660.488 354.282 L667.801 354.137 L675.079 353.411 L682.276 352.109 L689.346 350.239 L696.246 347.814 L702.932 344.848 L709.361 341.36 L715.492 337.373 L721.287 332.911 L726.709 328.002 L731.724 322.679 L736.301 316.974 L740.409 310.923 L744.024 304.565 L747.122 297.94 L749.684 291.089 L751.694 284.057 L753.139 276.887 L754.009 269.625 L754.3 262.317 L754.3 262.317  Z" fill="#5e4fa1" fill-rule="evenodd" fill-opacity="1"/>
<polyline clip-path="url(#clip702)" style="stroke:#000000; stroke-linecap:round; stroke-linejoin:round; stroke-width:4; stroke-opacity:1; fill:none" points="754.3,262.317 754.009,255.009 753.139,247.747 751.694,240.578 749.684,233.545 747.122,226.695 744.024,220.07 740.409,213.712 736.301,207.661 731.724,201.956 726.709,196.632 721.287,191.724 715.492,187.262 709.361,183.274 702.932,179.787 696.246,176.821 689.346,174.395 682.276,172.526 675.079,171.224 667.801,170.498 660.488,170.352 653.188,170.788 645.944,171.803 638.805,173.39 631.814,175.539 625.016,178.237 618.454,181.466 612.169,185.207 606.201,189.435 600.588,194.124 595.365,199.244 590.565,204.763 586.219,210.645 582.355,216.855 578.995,223.351 576.163,230.095 573.875,237.041 572.147,244.148 570.988,251.37 570.407,258.66 570.407,265.974 570.988,273.265 572.147,280.486 573.875,287.593 576.163,294.54 578.995,301.283 582.355,307.78 586.219,313.989 590.565,319.872 595.365,325.39 600.588,330.51 606.201,335.199 612.169,339.427 618.454,343.168 625.016,346.397 631.814,349.095 638.805,351.244 645.944,352.831 653.188,353.846 660.488,354.282 667.801,354.137 675.079,353.411 682.276,352.109 689.346,350.239 696.246,347.814 702.932,344.848 709.361,341.36 715.492,337.373 721.287,332.911 726.709,328.002 731.724,322.679 736.301,316.974 740.409,310.923 744.024,304.565 747.122,297.94 749.684,291.089 751.694,284.057 753.139,276.887 754.009,269.625 754.3,262.317 "/>
<path clip-path="url(#clip702)" d="M1103.02 901.874 L1102.73 894.566 L1101.86 887.304 L1100.42 880.135 L1098.41 873.102 L1095.85 866.252 L1092.75 859.627 L1089.13 853.269 L1085.02 847.218 L1080.45 841.513 L1075.43 836.189 L1070.01 831.281 L1064.22 826.819 L1058.08 822.831 L1051.66 819.344 L1044.97 816.378 L1038.07 813.952 L1031 812.083 L1023.8 810.781 L1016.52 810.055 L1009.21 809.91 L1001.91 810.346 L994.669 811.36 L987.529 812.947 L980.538 815.096 L973.74 817.794 L967.178 821.024 L960.893 824.764 L954.925 828.992 L949.312 833.681 L944.089 838.801 L939.289 844.32 L934.943 850.202 L931.079 856.412 L927.719 862.909 L924.887 869.652 L922.599 876.598 L920.871 883.705 L919.712 890.927 L919.131 898.217 L919.131 905.531 L919.712 912.822 L920.871 920.043 L922.599 927.15 L924.887 934.097 L927.719 940.84 L931.079 947.337 L934.943 953.546 L939.289 959.429 L944.089 964.948 L949.312 970.068 L954.925 974.756 L960.893 978.984 L967.178 982.725 L973.74 985.954 L980.538 988.652 L987.529 990.801 L994.669 992.388 L1001.91 993.403 L1009.21 993.839 L1016.52 993.694 L1023.8 992.968 L1031 991.666 L1038.07 989.796 L1044.97 987.371 L1051.66 984.405 L1058.08 980.917 L1064.22 976.93 L1070.01 972.468 L1075.43 967.559 L1080.45 962.236 L1085.02 956.531 L1089.13 950.48 L1092.75 944.122 L1095.85 937.497 L1098.41 930.646 L1100.42 923.614 L1101.86 916.444 L1102.73 909.182 L1103.02 901.874 L1103.02 901.874  Z" fill="#5e4fa1" fill-rule="evenodd" fill-opacity="1"/>
<polyline clip-path="url(#clip702)" style="stroke:#000000; stroke-linecap:round; stroke-linejoin:round; stroke-width:4; stroke-opacity:1; fill:none" points="1103.02,901.874 1102.73,894.566 1101.86,887.304 1100.42,880.135 1098.41,873.102 1095.85,866.252 1092.75,859.627 1089.13,853.269 1085.02,847.218 1080.45,841.513 1075.43,836.189 1070.01,831.281 1064.22,826.819 1058.08,822.831 1051.66,819.344 1044.97,816.378 1038.07,813.952 1031,812.083 1023.8,810.781 1016.52,810.055 1009.21,809.91 1001.91,810.346 994.669,811.36 987.529,812.947 980.538,815.096 973.74,817.794 967.178,821.024 960.893,824.764 954.925,828.992 949.312,833.681 944.089,838.801 939.289,844.32 934.943,850.202 931.079,856.412 927.719,862.909 924.887,869.652 922.599,876.598 920.871,883.705 919.712,890.927 919.131,898.217 919.131,905.531 919.712,912.822 920.871,920.043 922.599,927.15 924.887,934.097 927.719,940.84 931.079,947.337 934.943,953.546 939.289,959.429 944.089,964.948 949.312,970.068 954.925,974.756 960.893,978.984 967.178,982.725 973.74,985.954 980.538,988.652 987.529,990.801 994.669,992.388 1001.91,993.403 1009.21,993.839 1016.52,993.694 1023.8,992.968 1031,991.666 1038.07,989.796 1044.97,987.371 1051.66,984.405 1058.08,980.917 1064.22,976.93 1070.01,972.468 1075.43,967.559 1080.45,962.236 1085.02,956.531 1089.13,950.48 1092.75,944.122 1095.85,937.497 1098.41,930.646 1100.42,923.614 1101.86,916.444 1102.73,909.182 1103.02,901.874 1103.02,901.874 "/>
<circle clip-path="url(#clip702)" style="fill:#5e4fa1; stroke:none; fill-opacity:0" cx="1501.71" cy="822.338" r="2"/>
<circle clip-path="url(#clip702)" style="fill:#5e4fa1; stroke:none; fill-opacity:0" cx="1737.68" cy="804.691" r="2"/>
<circle clip-path="url(#clip702)" style="fill:#5e4fa1; stroke:none; fill-opacity:0" cx="838.908" cy="559.581" r="2"/>
<circle clip-path="url(#clip702)" style="fill:#5e4fa1; stroke:none; fill-opacity:0" cx="911.632" cy="1337.68" r="2"/>
<circle clip-path="url(#clip702)" style="fill:#5e4fa1; stroke:none; fill-opacity:0" cx="1262.4" cy="850.222" r="2"/>
<circle clip-path="url(#clip702)" style="fill:#5e4fa1; stroke:none; fill-opacity:0" cx="662.317" cy="262.317" r="2"/>
<circle clip-path="url(#clip702)" style="fill:#5e4fa1; stroke:none; fill-opacity:0" cx="1011.04" cy="901.874" r="2"/>
<path clip-path="url(#clip700)" d="M1461.61 833.144 L1461.61 825.021 L1454.92 825.021 L1454.92 821.659 L1465.66 821.659 L1465.66 834.642 Q1463.29 836.323 1460.43 837.194 Q1457.58 838.045 1454.34 838.045 Q1447.25 838.045 1443.24 833.913 Q1439.25 829.761 1439.25 822.368 Q1439.25 814.955 1443.24 810.823 Q1447.25 806.671 1454.34 806.671 Q1457.29 806.671 1459.95 807.4 Q1462.62 808.129 1464.87 809.547 L1464.87 813.902 Q1462.6 811.978 1460.05 811.005 Q1457.5 810.033 1454.68 810.033 Q1449.13 810.033 1446.34 813.132 Q1443.56 816.231 1443.56 822.368 Q1443.56 828.485 1446.34 831.584 Q1449.13 834.683 1454.68 834.683 Q1456.85 834.683 1458.55 834.318 Q1460.25 833.933 1461.61 833.144 Z" fill="#000000" fill-rule="nonzero" fill-opacity="1" /><path clip-path="url(#clip700)" d="M1485.41 809.993 Q1480.95 809.993 1478.32 813.314 Q1475.71 816.636 1475.71 822.368 Q1475.71 828.08 1478.32 831.402 Q1480.95 834.723 1485.41 834.723 Q1489.86 834.723 1492.46 831.402 Q1495.07 828.08 1495.07 822.368 Q1495.07 816.636 1492.46 813.314 Q1489.86 809.993 1485.41 809.993 M1485.41 806.671 Q1491.77 806.671 1495.58 810.945 Q1499.38 815.198 1499.38 822.368 Q1499.38 829.518 1495.58 833.792 Q1491.77 838.045 1485.41 838.045 Q1479.03 838.045 1475.2 833.792 Q1471.39 829.538 1471.39 822.368 Q1471.39 815.198 1475.2 810.945 Q1479.03 806.671 1485.41 806.671 Z" fill="#000000" fill-rule="nonzero" fill-opacity="1" /><path clip-path="url(#clip700)" d="M1518.06 809.993 Q1513.6 809.993 1510.97 813.314 Q1508.36 816.636 1508.36 822.368 Q1508.36 828.08 1510.97 831.402 Q1513.6 834.723 1518.06 834.723 Q1522.51 834.723 1525.11 831.402 Q1527.72 828.08 1527.72 822.368 Q1527.72 816.636 1525.11 813.314 Q1522.51 809.993 1518.06 809.993 M1518.06 806.671 Q1524.42 806.671 1528.23 810.945 Q1532.03 815.198 1532.03 822.368 Q1532.03 829.518 1528.23 833.792 Q1524.42 838.045 1518.06 838.045 Q1511.68 838.045 1507.85 833.792 Q1504.04 829.538 1504.04 822.368 Q1504.04 815.198 1507.85 810.945 Q1511.68 806.671 1518.06 806.671 Z" fill="#000000" fill-rule="nonzero" fill-opacity="1" /><path clip-path="url(#clip700)" d="M1559.05 833.144 L1559.05 825.021 L1552.37 825.021 L1552.37 821.659 L1563.1 821.659 L1563.1 834.642 Q1560.73 836.323 1557.88 837.194 Q1555.02 838.045 1551.78 838.045 Q1544.69 838.045 1540.68 833.913 Q1536.69 829.761 1536.69 822.368 Q1536.69 814.955 1540.68 810.823 Q1544.69 806.671 1551.78 806.671 Q1554.74 806.671 1557.39 807.4 Q1560.07 808.129 1562.31 809.547 L1562.31 813.902 Q1560.05 811.978 1557.49 811.005 Q1554.94 810.033 1552.13 810.033 Q1546.58 810.033 1543.78 813.132 Q1541.01 816.231 1541.01 822.368 Q1541.01 828.485 1543.78 831.584 Q1546.58 834.683 1552.13 834.683 Q1554.29 834.683 1555.99 834.318 Q1557.7 833.933 1559.05 833.144 Z" fill="#000000" fill-rule="nonzero" fill-opacity="1" /><path clip-path="url(#clip700)" d="M1690.05 793.602 L1684.5 808.651 L1695.62 808.651 L1690.05 793.602 M1687.75 789.571 L1692.38 789.571 L1703.91 819.811 L1699.65 819.811 L1696.9 812.054 L1683.27 812.054 L1680.51 819.811 L1676.2 819.811 L1687.75 789.571 Z" fill="#000000" fill-rule="nonzero" fill-opacity="1" /><path clip-path="url(#clip700)" d="M1708.32 789.571 L1714.42 789.571 L1722.14 810.15 L1729.89 789.571 L1735.99 789.571 L1735.99 819.811 L1732 819.811 L1732 793.258 L1724.2 813.998 L1720.09 813.998 L1712.29 793.258 L1712.29 819.811 L1708.32 819.811 L1708.32 789.571 Z" fill="#000000" fill-rule="nonzero" fill-opacity="1" /><path clip-path="url(#clip700)" d="M1742.37 789.571 L1766.13 789.571 L1766.13 792.69 L1747.01 816.368 L1766.6 816.368 L1766.6 819.811 L1741.91 819.811 L1741.91 816.692 L1761.03 793.014 L1742.37 793.014 L1742.37 789.571 Z" fill="#000000" fill-rule="nonzero" fill-opacity="1" /><path clip-path="url(#clip700)" d="M1772.53 789.571 L1778.04 789.571 L1791.45 814.869 L1791.45 789.571 L1795.42 789.571 L1795.42 819.811 L1789.91 819.811 L1776.5 794.513 L1776.5 819.811 L1772.53 819.811 L1772.53 789.571 Z" fill="#000000" fill-rule="nonzero" fill-opacity="1" /><path clip-path="url(#clip700)" d="M832.71 544.461 L858.291 544.461 L858.291 547.904 L847.557 547.904 L847.557 574.701 L843.445 574.701 L843.445 547.904 L832.71 547.904 L832.71 544.461 Z" fill="#000000" fill-rule="nonzero" fill-opacity="1" /><path clip-path="url(#clip700)" d="M886.395 1338.36 L886.395 1349.44 L892.957 1349.44 Q896.259 1349.44 897.839 1348.08 Q899.439 1346.71 899.439 1343.89 Q899.439 1341.06 897.839 1339.72 Q896.259 1338.36 892.957 1338.36 L886.395 1338.36 M886.395 1325.93 L886.395 1335.04 L892.451 1335.04 Q895.449 1335.04 896.907 1333.93 Q898.385 1332.79 898.385 1330.48 Q898.385 1328.19 896.907 1327.06 Q895.449 1325.93 892.451 1325.93 L886.395 1325.93 M882.303 1322.56 L892.755 1322.56 Q897.433 1322.56 899.965 1324.51 Q902.497 1326.45 902.497 1330.04 Q902.497 1332.81 901.201 1334.45 Q899.905 1336.09 897.393 1336.5 Q900.411 1337.15 902.072 1339.21 Q903.753 1341.26 903.753 1344.34 Q903.753 1348.39 900.998 1350.6 Q898.244 1352.8 893.16 1352.8 L882.303 1352.8 L882.303 1322.56 Z" fill="#000000" fill-rule="nonzero" fill-opacity="1" /><path clip-path="url(#clip700)" d="M914.852 1338.36 L914.852 1349.44 L921.415 1349.44 Q924.716 1349.44 926.296 1348.08 Q927.896 1346.71 927.896 1343.89 Q927.896 1341.06 926.296 1339.72 Q924.716 1338.36 921.415 1338.36 L914.852 1338.36 M914.852 1325.93 L914.852 1335.04 L920.908 1335.04 Q923.906 1335.04 925.364 1333.93 Q926.843 1332.79 926.843 1330.48 Q926.843 1328.19 925.364 1327.06 Q923.906 1325.93 920.908 1325.93 L914.852 1325.93 M910.761 1322.56 L921.212 1322.56 Q925.891 1322.56 928.423 1324.51 Q930.955 1326.45 930.955 1330.04 Q930.955 1332.81 929.658 1334.45 Q928.362 1336.09 925.851 1336.5 Q928.869 1337.15 930.529 1339.21 Q932.211 1341.26 932.211 1344.34 Q932.211 1348.39 929.456 1350.6 Q926.701 1352.8 921.617 1352.8 L910.761 1352.8 L910.761 1322.56 Z" fill="#000000" fill-rule="nonzero" fill-opacity="1" /><path clip-path="url(#clip700)" d="M932.798 1322.56 L937.193 1322.56 L945.578 1335 L953.903 1322.56 L958.298 1322.56 L947.604 1338.4 L947.604 1352.8 L943.492 1352.8 L943.492 1338.4 L932.798 1322.56 Z" fill="#000000" fill-rule="nonzero" fill-opacity="1" /><path clip-path="url(#clip700)" d="M1234.39 835.102 L1240.48 835.102 L1248.2 855.681 L1255.96 835.102 L1262.06 835.102 L1262.06 865.342 L1258.07 865.342 L1258.07 838.789 L1250.27 859.529 L1246.16 859.529 L1238.36 838.789 L1238.36 865.342 L1234.39 865.342 L1234.39 835.102 Z" fill="#000000" fill-rule="nonzero" fill-opacity="1" /><path clip-path="url(#clip700)" d="M1280.28 839.133 L1274.73 854.182 L1285.85 854.182 L1280.28 839.133 M1277.98 835.102 L1282.61 835.102 L1294.14 865.342 L1289.89 865.342 L1287.13 857.585 L1273.5 857.585 L1270.74 865.342 L1266.43 865.342 L1277.98 835.102 Z" fill="#000000" fill-rule="nonzero" fill-opacity="1" /><path clip-path="url(#clip700)" d="M639.531 250.559 L639.531 261.922 L644.676 261.922 Q647.531 261.922 649.091 260.444 Q650.651 258.965 650.651 256.231 Q650.651 253.517 649.091 252.038 Q647.531 250.559 644.676 250.559 L639.531 250.559 M635.439 247.197 L644.676 247.197 Q649.759 247.197 652.352 249.506 Q654.965 251.795 654.965 256.231 Q654.965 260.707 652.352 262.996 Q649.759 265.284 644.676 265.284 L639.531 265.284 L639.531 277.437 L635.439 277.437 L635.439 247.197 Z" fill="#000000" fill-rule="nonzero" fill-opacity="1" /><path clip-path="url(#clip700)" d="M660.454 247.197 L677.832 247.197 L677.832 250.64 L664.545 250.64 L664.545 259.552 L676.536 259.552 L676.536 262.996 L664.545 262.996 L664.545 277.437 L660.454 277.437 L660.454 247.197 Z" fill="#000000" fill-rule="nonzero" fill-opacity="1" /><path clip-path="url(#clip700)" d="M684.314 247.197 L703.434 247.197 L703.434 250.64 L688.405 250.64 L688.405 259.593 L702.806 259.593 L702.806 263.036 L688.405 263.036 L688.405 273.994 L703.798 273.994 L703.798 277.437 L684.314 277.437 L684.314 247.197 Z" fill="#000000" fill-rule="nonzero" fill-opacity="1" /><path clip-path="url(#clip700)" d="M985.186 886.754 L989.278 886.754 L989.278 914.888 Q989.278 920.357 987.192 922.828 Q985.126 925.299 980.528 925.299 L978.968 925.299 L978.968 921.855 L980.244 921.855 Q982.958 921.855 984.072 920.336 Q985.186 918.817 985.186 914.888 L985.186 886.754 Z" fill="#000000" fill-rule="nonzero" fill-opacity="1" /><path clip-path="url(#clip700)" d="M1001.51 890.117 L1001.51 901.479 L1006.66 901.479 Q1009.51 901.479 1011.07 900.001 Q1012.63 898.522 1012.63 895.788 Q1012.63 893.074 1011.07 891.595 Q1009.51 890.117 1006.66 890.117 L1001.51 890.117 M997.42 886.754 L1006.66 886.754 Q1011.74 886.754 1014.33 889.063 Q1016.95 891.352 1016.95 895.788 Q1016.95 900.264 1014.33 902.553 Q1011.74 904.842 1006.66 904.842 L1001.51 904.842 L1001.51 916.994 L997.42 916.994 L997.42 886.754 Z" fill="#000000" fill-rule="nonzero" fill-opacity="1" /><path clip-path="url(#clip700)" d="M1022.43 886.754 L1028.53 886.754 L1036.25 907.333 L1044.01 886.754 L1050.1 886.754 L1050.1 916.994 L1046.11 916.994 L1046.11 890.441 L1038.31 911.181 L1034.2 911.181 L1026.4 890.441 L1026.4 916.994 L1022.43 916.994 L1022.43 886.754 Z" fill="#000000" fill-rule="nonzero" fill-opacity="1" /></svg>
