<?xml version="1.0" encoding="utf-8"?>
<svg xmlns="http://www.w3.org/2000/svg" xmlns:xlink="http://www.w3.org/1999/xlink" width="600" height="400" viewBox="0 0 2400 1600">
<defs>
  <clipPath id="clip520">
    <rect x="0" y="0" width="2400" height="1600"/>
  </clipPath>
</defs>
<path clip-path="url(#clip520)" d="M0 1600 L2400 1600 L2400 0 L0 0  Z" fill="#ffffff" fill-rule="evenodd" fill-opacity="1"/>
<defs>
  <clipPath id="clip521">
    <rect x="480" y="0" width="1681" height="1600"/>
  </clipPath>
</defs>
<path clip-path="url(#clip520)" d="M447.244 1552.76 L1952.76 1552.76 L1952.76 47.2441 L447.244 47.2441  Z" fill="#ffffff" fill-rule="evenodd" fill-opacity="1"/>
<defs>
  <clipPath id="clip522">
    <rect x="447" y="47" width="1507" height="1507"/>
  </clipPath>
</defs>
<polyline clip-path="url(#clip522)" style="stroke:#000000; stroke-linecap:round; stroke-linejoin:round; stroke-width:4; stroke-opacity:1; fill:none" points="878.922,417.682 662.317,262.317 "/>
<polyline clip-path="url(#clip522)" style="stroke:#000000; stroke-linecap:round; stroke-linejoin:round; stroke-width:4; stroke-opacity:1; fill:none" points="878.922,417.682 1097.19,586.465 "/>
<polyline clip-path="url(#clip522)" style="stroke:#000000; stroke-linecap:round; stroke-linejoin:round; stroke-width:4; stroke-opacity:1; fill:none" points="1531.6,501.598 1737.68,267.577 "/>
<polyline clip-path="url(#clip522)" style="stroke:#000000; stroke-linecap:round; stroke-linejoin:round; stroke-width:4; stroke-opacity:1; fill:none" points="1531.6,501.598 1323.27,788.978 "/>
<polyline clip-path="url(#clip522)" style="stroke:#000000; stroke-linecap:round; stroke-linejoin:round; stroke-width:4; stroke-opacity:1; fill:none" points="1353.84,1337.68 1323.27,788.978 "/>
<polyline clip-path="url(#clip522)" style="stroke:#000000; stroke-linecap:round; stroke-linejoin:round; stroke-width:4; stroke-opacity:1; fill:none" points="1097.19,586.465 1323.27,788.978 "/>
<path clip-path="url(#clip522)" d="M970.905 417.682 L970.614 410.374 L969.744 403.113 L968.299 395.943 L966.29 388.911 L963.727 382.06 L960.629 375.435 L957.014 369.077 L952.906 363.026 L948.329 357.321 L943.314 351.997 L937.892 347.089 L932.097 342.627 L925.966 338.64 L919.537 335.152 L912.852 332.186 L905.952 329.76 L898.881 327.891 L891.684 326.589 L884.406 325.863 L877.094 325.718 L869.793 326.154 L862.55 327.168 L855.41 328.755 L848.419 330.905 L841.621 333.602 L835.059 336.832 L828.774 340.572 L822.806 344.8 L817.193 349.489 L811.97 354.609 L807.17 360.128 L802.824 366.011 L798.96 372.22 L795.6 378.717 L792.768 385.46 L790.48 392.407 L788.752 399.513 L787.593 406.735 L787.012 414.026 L787.012 421.339 L787.593 428.63 L788.752 435.852 L790.48 442.958 L792.768 449.905 L795.6 456.648 L798.96 463.145 L802.824 469.354 L807.17 475.237 L811.97 480.756 L817.193 485.876 L822.806 490.565 L828.774 494.793 L835.059 498.533 L841.621 501.763 L848.419 504.46 L855.41 506.61 L862.55 508.197 L869.793 509.211 L877.094 509.647 L884.406 509.502 L891.684 508.776 L898.881 507.474 L905.952 505.604 L912.852 503.179 L919.537 500.213 L925.966 496.725 L932.097 492.738 L937.892 488.276 L943.314 483.368 L948.329 478.044 L952.906 472.339 L957.014 466.288 L960.629 459.93 L963.727 453.305 L966.29 446.454 L968.299 439.422 L969.744 432.252 L970.614 424.991 L970.905 417.682 L970.905 417.682  Z" fill="#9e0142" fill-rule="evenodd" fill-opacity="1"/>
<polyline clip-path="url(#clip522)" style="stroke:#000000; stroke-linecap:round; stroke-linejoin:round; stroke-width:4; stroke-opacity:1; fill:none" points="970.905,417.682 970.614,410.374 969.744,403.113 968.299,395.943 966.29,388.911 963.727,382.06 960.629,375.435 957.014,369.077 952.906,363.026 948.329,357.321 943.314,351.997 937.892,347.089 932.097,342.627 925.966,338.64 919.537,335.152 912.852,332.186 905.952,329.76 898.881,327.891 891.684,326.589 884.406,325.863 877.094,325.718 869.793,326.154 862.55,327.168 855.41,328.755 848.419,330.905 841.621,333.602 835.059,336.832 828.774,340.572 822.806,344.8 817.193,349.489 811.97,354.609 807.17,360.128 802.824,366.011 798.96,372.22 795.6,378.717 792.768,385.46 790.48,392.407 788.752,399.513 787.593,406.735 787.012,414.026 787.012,421.339 787.593,428.63 788.752,435.852 790.48,442.958 792.768,449.905 795.6,456.648 798.96,463.145 802.824,469.354 807.17,475.237 811.97,480.756 817.193,485.876 822.806,490.565 828.774,494.793 835.059,498.533 841.621,501.763 848.419,504.46 855.41,506.61 862.55,508.197 869.793,509.211 877.094,509.647 884.406,509.502 891.684,508.776 898.881,507.474 905.952,505.604 912.852,503.179 919.537,500.213 925.966,496.725 932.097,492.738 937.892,488.276 943.314,483.368 948.329,478.044 952.906,472.339 957.014,466.288 960.629,459.93 963.727,453.305 966.29,446.454 968.299,439.422 969.744,432.252 970.614,424.991 970.905,417.682 "/>
<path clip-path="url(#clip522)" d="M754.3 262.317 L754.009 255.009 L753.139 247.747 L751.694 240.578 L749.684 233.545 L747.122 226.695 L744.024 220.07 L740.409 213.712 L736.301 207.661 L731.724 201.956 L726.709 196.632 L721.287 191.724 L715.492 187.262 L709.361 183.274 L702.932 179.787 L696.246 176.821 L689.346 174.395 L682.276 172.526 L675.079 171.224 L667.801 170.498 L660.488 170.352 L653.188 170.788 L645.944 171.803 L638.805 173.39 L631.814 175.539 L625.016 178.237 L618.454 181.466 L612.169 185.207 L606.201 189.435 L600.588 194.124 L595.365 199.244 L590.565 204.763 L586.219 210.645 L582.355 216.855 L578.995 223.351 L576.163 230.095 L573.875 237.041 L572.147 244.148 L570.988 251.37 L570.407 258.66 L570.407 265.974 L570.988 273.265 L572.147 280.486 L573.875 287.593 L576.163 294.54 L578.995 301.283 L582.355 307.78 L586.219 313.989 L590.565 319.872 L595.365 325.39 L600.588 330.51 L606.201 335.199 L612.169 339.427 L618.454 343.168 L625.016 346.397 L631.814 349.095 L638.805 351.244 L645.944 352.831 L653.188 353.846 L660.488 354.282 L667.801 354.137 L675.079 353.411 L682.276 352.109 L689.346 350.239 L696.246 347.814 L702.932 344.848 L709.361 341.36 L715.492 337.373 L721.287 332.911 L726.709 328.002 L731.724 322.679 L736.301 316.974 L740.409 310.923 L744.024 304.565 L747.122 297.94 L749.684 291.089 L751.694 284.057 L753.139 276.887 L754.009 269.625 L754.3 262.317 L754.3 262.317  Z" fill="#9e0142" fill-rule="evenodd" fill-opacity="1"/>
<polyline clip-path="url(#clip522)" style="stroke:#000000; stroke-linecap:round; stroke-linejoin:round; stroke-width:4; stroke-opacity:1; fill:none" points="754.3,262.317 754.009,255.009 753.139,247.747 751.694,240.578 749.684,233.545 747.122,226.695 744.024,220.07 740.409,213.712 736.301,207.661 731.724,201.956 726.709,196.632 721.287,191.724 715.492,187.262 709.361,183.274 702.932,179.787 696.246,176.821 689.346,174.395 682.276,172.526 675.079,171.224 667.801,170.498 660.488,170.352 653.188,170.788 645.944,171.803 638.805,173.39 631.814,175.539 625.016,178.237 618.454,181.466 612.169,185.207 606.201,189.435 600.588,194.124 595.365,199.244 590.565,204.763 586.219,210.645 582.355,216.855 578.995,223.351 576.163,230.095 573.875,237.041 572.147,244.148 570.988,251.37 570.407,258.66 570.407,265.974 570.988,273.265 572.147,280.486 573.875,287.593 576.163,294.54 578.995,301.283 582.355,307.78 586.219,313.989 590.565,319.872 595.365,325.39 600.588,330.51 606.201,335.199 612.169,339.427 618.454,343.168 625.016,346.397 631.814,349.095 638.805,351.244 645.944,352.831 653.188,353.846 660.488,354.282 667.801,354.137 675.079,353.411 682.276,352.109 689.346,350.239 696.246,347.814 702.932,344.848 709.361,341.36 715.492,337.373 721.287,332.911 726.709,328.002 731.724,322.679 736.301,316.974 740.409,310.923 744.024,304.565 747.122,297.94 749.684,291.089 751.694,284.057 753.139,276.887 754.009,269.625 754.3,262.317 "/>
<path clip-path="url(#clip522)" d="M1623.58 501.598 L1623.29 494.289 L1622.42 487.028 L1620.97 479.858 L1618.96 472.826 L1616.4 465.975 L1613.3 459.35 L1609.69 452.992 L1605.58 446.941 L1601 441.236 L1595.99 435.912 L1590.57 431.004 L1584.77 426.542 L1578.64 422.555 L1572.21 419.067 L1565.53 416.101 L1558.63 413.676 L1551.56 411.806 L1544.36 410.504 L1537.08 409.778 L1529.77 409.633 L1522.47 410.069 L1515.22 411.083 L1508.09 412.67 L1501.09 414.82 L1494.3 417.517 L1487.73 420.747 L1481.45 424.487 L1475.48 428.715 L1469.87 433.404 L1464.65 438.524 L1459.85 444.043 L1455.5 449.926 L1451.63 456.135 L1448.28 462.632 L1445.44 469.375 L1443.16 476.322 L1441.43 483.428 L1440.27 490.65 L1439.69 497.941 L1439.69 505.254 L1440.27 512.545 L1441.43 519.767 L1443.16 526.873 L1445.44 533.82 L1448.28 540.563 L1451.63 547.06 L1455.5 553.269 L1459.85 559.152 L1464.65 564.671 L1469.87 569.791 L1475.48 574.48 L1481.45 578.708 L1487.73 582.448 L1494.3 585.678 L1501.09 588.375 L1508.09 590.525 L1515.22 592.112 L1522.47 593.126 L1529.77 593.562 L1537.08 593.417 L1544.36 592.691 L1551.56 591.389 L1558.63 589.52 L1565.53 587.094 L1572.21 584.128 L1578.64 580.64 L1584.77 576.653 L1590.57 572.191 L1595.99 567.283 L1601 561.959 L1605.58 556.254 L1609.69 550.203 L1613.3 543.845 L1616.4 537.22 L1618.96 530.369 L1620.97 523.337 L1622.42 516.167 L1623.29 508.906 L1623.58 501.598 L1623.58 501.598  Z" fill="#5e4fa1" fill-rule="evenodd" fill-opacity="1"/>
<polyline clip-path="url(#clip522)" style="stroke:#000000; stroke-linecap:round; stroke-linejoin:round; stroke-width:4; stroke-opacity:1; fill:none" points="1623.58,501.598 1623.29,494.289 1622.42,487.028 1620.97,479.858 1618.96,472.826 1616.4,465.975 1613.3,459.35 1609.69,452.992 1605.58,446.941 1601,441.236 1595.99,435.912 1590.57,431.004 1584.77,426.542 1578.64,422.555 1572.21,419.067 1565.53,416.101 1558.63,413.676 1551.56,411.806 1544.36,410.504 1537.08,409.778 1529.77,409.633 1522.47,410.069 1515.22,411.083 1508.09,412.67 1501.09,414.82 1494.3,417.517 1487.73,420.747 1481.45,424.487 1475.48,428.715 1469.87,433.404 1464.65,438.524 1459.85,444.043 1455.5,449.926 1451.63,456.135 1448.28,462.632 1445.44,469.375 1443.16,476.322 1441.43,483.428 1440.27,490.65 1439.69,497.941 1439.69,505.254 1440.27,512.545 1441.43,519.767 1443.16,526.873 1445.44,533.82 1448.28,540.563 1451.63,547.06 1455.5,553.269 1459.85,559.152 1464.65,564.671 1469.87,569.791 1475.48,574.48 1481.45,578.708 1487.73,582.448 1494.3,585.678 1501.09,588.375 1508.09,590.525 1515.22,592.112 1522.47,593.126 1529.77,593.562 1537.08,593.417 1544.36,592.691 1551.56,591.389 1558.63,589.52 1565.53,587.094 1572.21,584.128 1578.64,580.64 1584.77,576.653 1590.57,572.191 1595.99,567.283 1601,561.959 1605.58,556.254 1609.69,550.203 1613.3,543.845 1616.4,537.22 1618.96,530.369 1620.97,523.337 1622.42,516.167 1623.29,508.906 1623.58,501.598 1623.58,501.598 "/>
<path clip-path="url(#clip522)" d="M1445.83 1337.68 L1445.53 1330.37 L1444.66 1323.11 L1443.22 1315.94 L1441.21 1308.91 L1438.65 1302.06 L1435.55 1295.44 L1431.93 1289.08 L1427.83 1283.03 L1423.25 1277.32 L1418.23 1272 L1412.81 1267.09 L1407.02 1262.63 L1400.89 1258.64 L1394.46 1255.15 L1387.77 1252.19 L1380.87 1249.76 L1373.8 1247.89 L1366.6 1246.59 L1359.33 1245.86 L1352.01 1245.72 L1344.71 1246.15 L1337.47 1247.17 L1330.33 1248.76 L1323.34 1250.9 L1316.54 1253.6 L1309.98 1256.83 L1303.69 1260.57 L1297.73 1264.8 L1292.11 1269.49 L1286.89 1274.61 L1282.09 1280.13 L1277.74 1286.01 L1273.88 1292.22 L1270.52 1298.72 L1267.69 1305.46 L1265.4 1312.41 L1263.67 1319.51 L1262.51 1326.74 L1261.93 1334.03 L1261.93 1341.34 L1262.51 1348.63 L1263.67 1355.85 L1265.4 1362.96 L1267.69 1369.91 L1270.52 1376.65 L1273.88 1383.15 L1277.74 1389.35 L1282.09 1395.24 L1286.89 1400.76 L1292.11 1405.88 L1297.73 1410.56 L1303.69 1414.79 L1309.98 1418.53 L1316.54 1421.76 L1323.34 1424.46 L1330.33 1426.61 L1337.47 1428.2 L1344.71 1429.21 L1352.01 1429.65 L1359.33 1429.5 L1366.6 1428.78 L1373.8 1427.47 L1380.87 1425.6 L1387.77 1423.18 L1394.46 1420.21 L1400.89 1416.73 L1407.02 1412.74 L1412.81 1408.28 L1418.23 1403.37 L1423.25 1398.04 L1427.83 1392.34 L1431.93 1386.29 L1435.55 1379.93 L1438.65 1373.31 L1441.21 1366.45 L1443.22 1359.42 L1444.66 1352.25 L1445.53 1344.99 L1445.83 1337.68 L1445.83 1337.68  Z" fill="#5e4fa1" fill-rule="evenodd" fill-opacity="1"/>
<polyline clip-path="url(#clip522)" style="stroke:#000000; stroke-linecap:round; stroke-linejoin:round; stroke-width:4; stroke-opacity:1; fill:none" points="1445.83,1337.68 1445.53,1330.37 1444.66,1323.11 1443.22,1315.94 1441.21,1308.91 1438.65,1302.06 1435.55,1295.44 1431.93,1289.08 1427.83,1283.03 1423.25,1277.32 1418.23,1272 1412.81,1267.09 1407.02,1262.63 1400.89,1258.64 1394.46,1255.15 1387.77,1252.19 1380.87,1249.76 1373.8,1247.89 1366.6,1246.59 1359.33,1245.86 1352.01,1245.72 1344.71,1246.15 1337.47,1247.17 1330.33,1248.76 1323.34,1250.9 1316.54,1253.6 1309.98,1256.83 1303.69,1260.57 1297.73,1264.8 1292.11,1269.49 1286.89,1274.61 1282.09,1280.13 1277.74,1286.01 1273.88,1292.22 1270.52,1298.72 1267.69,1305.46 1265.4,1312.41 1263.67,1319.51 1262.51,1326.74 1261.93,1334.03 1261.93,1341.34 1262.51,1348.63 1263.67,1355.85 1265.4,1362.96 1267.69,1369.91 1270.52,1376.65 1273.88,1383.15 1277.74,1389.35 1282.09,1395.24 1286.89,1400.76 1292.11,1405.88 1297.73,1410.56 1303.69,1414.79 1309.98,1418.53 1316.54,1421.76 1323.34,1424.46 1330.33,1426.61 1337.47,1428.2 1344.71,1429.21 1352.01,1429.65 1359.33,1429.5 1366.6,1428.78 1373.8,1427.47 1380.87,1425.6 1387.77,1423.18 1394.46,1420.21 1400.89,1416.73 1407.02,1412.74 1412.81,1408.28 1418.23,1403.37 1423.25,1398.04 1427.83,1392.34 1431.93,1386.29 1435.55,1379.93 1438.65,1373.31 1441.21,1366.45 1443.22,1359.42 1444.66,1352.25 1445.53,1344.99 1445.83,1337.68 "/>
<path clip-path="url(#clip522)" d="M1189.17 586.465 L1188.88 579.157 L1188.01 571.895 L1186.57 564.725 L1184.56 557.693 L1181.99 550.842 L1178.9 544.217 L1175.28 537.859 L1171.17 531.808 L1166.6 526.103 L1161.58 520.779 L1156.16 515.871 L1150.36 511.409 L1144.23 507.422 L1137.8 503.934 L1131.12 500.968 L1124.22 498.543 L1117.15 496.673 L1109.95 495.371 L1102.67 494.645 L1095.36 494.5 L1088.06 494.936 L1080.82 495.951 L1073.68 497.538 L1066.69 499.687 L1059.89 502.385 L1053.32 505.614 L1047.04 509.354 L1041.07 513.583 L1035.46 518.271 L1030.24 523.391 L1025.44 528.91 L1021.09 534.793 L1017.23 541.002 L1013.87 547.499 L1011.03 554.242 L1008.75 561.189 L1007.02 568.295 L1005.86 575.517 L1005.28 582.808 L1005.28 590.122 L1005.86 597.412 L1007.02 604.634 L1008.75 611.74 L1011.03 618.687 L1013.87 625.43 L1017.23 631.927 L1021.09 638.136 L1025.44 644.019 L1030.24 649.538 L1035.46 654.658 L1041.07 659.347 L1047.04 663.575 L1053.32 667.315 L1059.89 670.545 L1066.69 673.243 L1073.68 675.392 L1080.82 676.979 L1088.06 677.993 L1095.36 678.429 L1102.67 678.284 L1109.95 677.558 L1117.15 676.256 L1124.22 674.387 L1131.12 671.961 L1137.8 668.995 L1144.23 665.508 L1150.36 661.52 L1156.16 657.058 L1161.58 652.15 L1166.6 646.826 L1171.17 641.121 L1175.28 635.07 L1178.9 628.712 L1181.99 622.087 L1184.56 615.237 L1186.57 608.204 L1188.01 601.035 L1188.88 593.773 L1189.17 586.465 L1189.17 586.465  Z" fill="#5e4fa1" fill-rule="evenodd" fill-opacity="1"/>
<polyline clip-path="url(#clip522)" style="stroke:#000000; stroke-linecap:round; stroke-linejoin:round; stroke-width:4; stroke-opacity:1; fill:none" points="1189.17,586.465 1188.88,579.157 1188.01,571.895 1186.57,564.725 1184.56,557.693 1181.99,550.842 1178.9,544.217 1175.28,537.859 1171.17,531.808 1166.6,526.103 1161.58,520.779 1156.16,515.871 1150.36,511.409 1144.23,507.422 1137.8,503.934 1131.12,500.968 1124.22,498.543 1117.15,496.673 1109.95,495.371 1102.67,494.645 1095.36,494.5 1088.06,494.936 1080.82,495.951 1073.68,497.538 1066.69,499.687 1059.89,502.385 1053.32,505.614 1047.04,509.354 1041.07,513.583 1035.46,518.271 1030.24,523.391 1025.44,528.91 1021.09,534.793 1017.23,541.002 1013.87,547.499 1011.03,554.242 1008.75,561.189 1007.02,568.295 1005.86,575.517 1005.28,582.808 1005.28,590.122 1005.86,597.412 1007.02,604.634 1008.75,611.74 1011.03,618.687 1013.87,625.43 1017.23,631.927 1021.09,638.136 1025.44,644.019 1030.24,649.538 1035.46,654.658 1041.07,659.347 1047.04,663.575 1053.32,667.315 1059.89,670.545 1066.69,673.243 1073.68,675.392 1080.82,676.979 1088.06,677.993 1095.36,678.429 1102.67,678.284 1109.95,677.558 1117.15,676.256 1124.22,674.387 1131.12,671.961 1137.8,668.995 1144.23,665.508 1150.36,661.52 1156.16,657.058 1161.58,652.15 1166.6,646.826 1171.17,641.121 1175.28,635.07 1178.9,628.712 1181.99,622.087 1184.56,615.237 1186.57,608.204 1188.01,601.035 1188.88,593.773 1189.17,586.465 "/>
<path clip-path="url(#clip522)" d="M1829.67 267.577 L1829.37 260.269 L1828.5 253.007 L1827.06 245.837 L1825.05 238.805 L1822.49 231.955 L1819.39 225.33 L1815.77 218.971 L1811.67 212.921 L1807.09 207.215 L1802.07 201.892 L1796.65 196.984 L1790.86 192.522 L1784.73 188.534 L1778.3 185.046 L1771.61 182.08 L1764.71 179.655 L1757.64 177.785 L1750.44 176.484 L1743.17 175.758 L1735.85 175.612 L1728.55 176.048 L1721.31 177.063 L1714.17 178.65 L1707.18 180.799 L1700.38 183.497 L1693.82 186.726 L1687.53 190.467 L1681.57 194.695 L1675.95 199.384 L1670.73 204.504 L1665.93 210.023 L1661.58 215.905 L1657.72 222.115 L1654.36 228.611 L1651.53 235.354 L1649.24 242.301 L1647.51 249.408 L1646.35 256.629 L1645.77 263.92 L1645.77 271.234 L1646.35 278.525 L1647.51 285.746 L1649.24 292.853 L1651.53 299.8 L1654.36 306.543 L1657.72 313.04 L1661.58 319.249 L1665.93 325.132 L1670.73 330.65 L1675.95 335.77 L1681.57 340.459 L1687.53 344.687 L1693.82 348.428 L1700.38 351.657 L1707.18 354.355 L1714.17 356.504 L1721.31 358.091 L1728.55 359.106 L1735.85 359.542 L1743.17 359.396 L1750.44 358.67 L1757.64 357.369 L1764.71 355.499 L1771.61 353.074 L1778.3 350.108 L1784.73 346.62 L1790.86 342.633 L1796.65 338.171 L1802.07 333.262 L1807.09 327.939 L1811.67 322.233 L1815.77 316.183 L1819.39 309.825 L1822.49 303.199 L1825.05 296.349 L1827.06 289.317 L1828.5 282.147 L1829.37 274.885 L1829.67 267.577 L1829.67 267.577  Z" fill="#5e4fa1" fill-rule="evenodd" fill-opacity="1"/>
<polyline clip-path="url(#clip522)" style="stroke:#000000; stroke-linecap:round; stroke-linejoin:round; stroke-width:4; stroke-opacity:1; fill:none" points="1829.67,267.577 1829.37,260.269 1828.5,253.007 1827.06,245.837 1825.05,238.805 1822.49,231.955 1819.39,225.33 1815.77,218.971 1811.67,212.921 1807.09,207.215 1802.07,201.892 1796.65,196.984 1790.86,192.522 1784.73,188.534 1778.3,185.046 1771.61,182.08 1764.71,179.655 1757.64,177.785 1750.44,176.484 1743.17,175.758 1735.85,175.612 1728.55,176.048 1721.31,177.063 1714.17,178.65 1707.18,180.799 1700.38,183.497 1693.82,186.726 1687.53,190.467 1681.57,194.695 1675.95,199.384 1670.73,204.504 1665.93,210.023 1661.58,215.905 1657.72,222.115 1654.36,228.611 1651.53,235.354 1649.24,242.301 1647.51,249.408 1646.35,256.629 1645.77,263.92 1645.77,271.234 1646.35,278.525 1647.51,285.746 1649.24,292.853 1651.53,299.8 1654.36,306.543 1657.72,313.04 1661.58,319.249 1665.93,325.132 1670.73,330.65 1675.95,335.77 1681.57,340.459 1687.53,344.687 1693.82,348.428 1700.38,351.657 1707.18,354.355 1714.17,356.504 1721.31,358.091 1728.55,359.106 1735.85,359.542 1743.17,359.396 1750.44,358.67 1757.64,357.369 1764.71,355.499 1771.61,353.074 1778.3,350.108 1784.73,346.62 1790.86,342.633 1796.65,338.171 1802.07,333.262 1807.09,327.939 1811.67,322.233 1815.77,316.183 1819.39,309.825 1822.49,303.199 1825.05,296.349 1827.06,289.317 1828.5,282.147 1829.37,274.885 1829.67,267.577 "/>
<path clip-path="url(#clip522)" d="M1415.26 788.978 L1414.96 781.67 L1414.09 774.408 L1412.65 767.238 L1410.64 760.206 L1408.08 753.356 L1404.98 746.73 L1401.36 740.372 L1397.26 734.321 L1392.68 728.616 L1387.66 723.293 L1382.24 718.384 L1376.45 713.922 L1370.32 709.935 L1363.89 706.447 L1357.2 703.481 L1350.3 701.056 L1343.23 699.186 L1336.03 697.884 L1328.76 697.159 L1321.44 697.013 L1314.14 697.449 L1306.9 698.464 L1299.76 700.051 L1292.77 702.2 L1285.97 704.898 L1279.41 708.127 L1273.12 711.868 L1267.16 716.096 L1261.54 720.785 L1256.32 725.905 L1251.52 731.423 L1247.17 737.306 L1243.31 743.515 L1239.95 750.012 L1237.12 756.755 L1234.83 763.702 L1233.1 770.809 L1231.94 778.03 L1231.36 785.321 L1231.36 792.635 L1231.94 799.925 L1233.1 807.147 L1234.83 814.254 L1237.12 821.2 L1239.95 827.944 L1243.31 834.44 L1247.17 840.65 L1251.52 846.532 L1256.32 852.051 L1261.54 857.171 L1267.16 861.86 L1273.12 866.088 L1279.41 869.829 L1285.97 873.058 L1292.77 875.756 L1299.76 877.905 L1306.9 879.492 L1314.14 880.507 L1321.44 880.943 L1328.76 880.797 L1336.03 880.071 L1343.23 878.769 L1350.3 876.9 L1357.2 874.474 L1363.89 871.509 L1370.32 868.021 L1376.45 864.033 L1382.24 859.571 L1387.66 854.663 L1392.68 849.339 L1397.26 843.634 L1401.36 837.583 L1404.98 831.225 L1408.08 824.6 L1410.64 817.75 L1412.65 810.718 L1414.09 803.548 L1414.96 796.286 L1415.26 788.978 L1415.26 788.978  Z" fill="#5e4fa1" fill-rule="evenodd" fill-opacity="1"/>
<polyline clip-path="url(#clip522)" style="stroke:#000000; stroke-linecap:round; stroke-linejoin:round; stroke-width:4; stroke-opacity:1; fill:none" points="1415.26,788.978 1414.96,781.67 1414.09,774.408 1412.65,767.238 1410.64,760.206 1408.08,753.356 1404.98,746.73 1401.36,740.372 1397.26,734.321 1392.68,728.616 1387.66,723.293 1382.24,718.384 1376.45,713.922 1370.32,709.935 1363.89,706.447 1357.2,703.481 1350.3,701.056 1343.23,699.186 1336.03,697.884 1328.76,697.159 1321.44,697.013 1314.14,697.449 1306.9,698.464 1299.76,700.051 1292.77,702.2 1285.97,704.898 1279.41,708.127 1273.12,711.868 1267.16,716.096 1261.54,720.785 1256.32,725.905 1251.52,731.423 1247.17,737.306 1243.31,743.515 1239.95,750.012 1237.12,756.755 1234.83,763.702 1233.1,770.809 1231.94,778.03 1231.36,785.321 1231.36,792.635 1231.94,799.925 1233.1,807.147 1234.83,814.254 1237.12,821.2 1239.95,827.944 1243.31,834.44 1247.17,840.65 1251.52,846.532 1256.32,852.051 1261.54,857.171 1267.16,861.86 1273.12,866.088 1279.41,869.829 1285.97,873.058 1292.77,875.756 1299.76,877.905 1306.9,879.492 1314.14,880.507 1321.44,880.943 1328.76,880.797 1336.03,880.071 1343.23,878.769 1350.3,876.9 1357.2,874.474 1363.89,871.509 1370.32,868.021 1376.45,864.033 1382.24,859.571 1387.66,854.663 1392.68,849.339 1397.26,843.634 1401.36,837.583 1404.98,831.225 1408.08,824.6 1410.64,817.75 1412.65,810.718 1414.09,803.548 1414.96,796.286 1415.26,788.978 "/>
<circle clip-path="url(#clip522)" cx="878.922" cy="417.682" r="0.36" fill="#5e4fa1" fill-rule="evenodd" fill-opacity="1" stroke="#000000" stroke-opacity="1" stroke-width="3.2"/>
<circle clip-path="url(#clip522)" cx="662.317" cy="262.317" r="0.36" fill="#5e4fa1" fill-rule="evenodd" fill-opacity="1" stroke="#000000" stroke-opacity="1" stroke-width="3.2"/>
<circle clip-path="url(#clip522)" cx="1531.6" cy="501.598" r="0.36" fill="#5e4fa1" fill-rule="evenodd" fill-opacity="1" stroke="#000000" stroke-opacity="1" stroke-width="3.2"/>
<circle clip-path="url(#clip522)" cx="1353.84" cy="1337.68" r="0.36" fill="#5e4fa1" fill-rule="evenodd" fill-opacity="1" stroke="#000000" stroke-opacity="1" stroke-width="3.2"/>
<circle clip-path="url(#clip522)" cx="1097.19" cy="586.465" r="0.36" fill="#5e4fa1" fill-rule="evenodd" fill-opacity="1" stroke="#000000" stroke-opacity="1" stroke-width="3.2"/>
<circle clip-path="url(#clip522)" cx="1737.68" cy="267.577" r="0.36" fill="#5e4fa1" fill-rule="evenodd" fill-opacity="1" stroke="#000000" stroke-opacity="1" stroke-width="3.2"/>
<circle clip-path="url(#clip522)" cx="1323.27" cy="788.978" r="0.36" fill="#5e4fa1" fill-rule="evenodd" fill-opacity="1" stroke="#000000" stroke-opacity="1" stroke-width="3.2"/>
<path clip-path="url(#clip520)" d="M838.818 428.488 L838.818 420.366 L832.134 420.366 L832.134 417.004 L842.869 417.004 L842.869 429.987 Q840.5 431.668 837.644 432.539 Q834.788 433.39 831.547 433.39 Q824.458 433.39 820.448 429.258 Q816.457 425.106 816.457 417.713 Q816.457 410.3 820.448 406.168 Q824.458 402.016 831.547 402.016 Q834.504 402.016 837.158 402.745 Q839.831 403.474 842.079 404.892 L842.079 409.246 Q839.811 407.322 837.259 406.35 Q834.707 405.378 831.891 405.378 Q826.342 405.378 823.546 408.477 Q820.772 411.576 820.772 417.713 Q820.772 423.83 823.546 426.929 Q826.342 430.028 831.891 430.028 Q834.059 430.028 835.76 429.663 Q837.461 429.278 838.818 428.488 Z" fill="#000000" fill-rule="nonzero" fill-opacity="1" /><path clip-path="url(#clip520)" d="M862.617 405.337 Q858.161 405.337 855.528 408.659 Q852.916 411.981 852.916 417.713 Q852.916 423.425 855.528 426.746 Q858.161 430.068 862.617 430.068 Q867.073 430.068 869.666 426.746 Q872.279 423.425 872.279 417.713 Q872.279 411.981 869.666 408.659 Q867.073 405.337 862.617 405.337 M862.617 402.016 Q868.977 402.016 872.785 406.289 Q876.593 410.543 876.593 417.713 Q876.593 424.863 872.785 429.136 Q868.977 433.39 862.617 433.39 Q856.237 433.39 852.409 429.136 Q848.601 424.883 848.601 417.713 Q848.601 410.543 852.409 406.289 Q856.237 402.016 862.617 402.016 Z" fill="#000000" fill-rule="nonzero" fill-opacity="1" /><path clip-path="url(#clip520)" d="M895.268 405.337 Q890.812 405.337 888.179 408.659 Q885.566 411.981 885.566 417.713 Q885.566 423.425 888.179 426.746 Q890.812 430.068 895.268 430.068 Q899.724 430.068 902.316 426.746 Q904.929 423.425 904.929 417.713 Q904.929 411.981 902.316 408.659 Q899.724 405.337 895.268 405.337 M895.268 402.016 Q901.628 402.016 905.435 406.289 Q909.243 410.543 909.243 417.713 Q909.243 424.863 905.435 429.136 Q901.628 433.39 895.268 433.39 Q888.888 433.39 885.059 429.136 Q881.252 424.883 881.252 417.713 Q881.252 410.543 885.059 406.289 Q888.888 402.016 895.268 402.016 Z" fill="#000000" fill-rule="nonzero" fill-opacity="1" /><path clip-path="url(#clip520)" d="M936.263 428.488 L936.263 420.366 L929.579 420.366 L929.579 417.004 L940.314 417.004 L940.314 429.987 Q937.944 431.668 935.088 432.539 Q932.232 433.39 928.992 433.39 Q921.902 433.39 917.892 429.258 Q913.902 425.106 913.902 417.713 Q913.902 410.3 917.892 406.168 Q921.902 402.016 928.992 402.016 Q931.949 402.016 934.602 402.745 Q937.276 403.474 939.524 404.892 L939.524 409.246 Q937.255 407.322 934.703 406.35 Q932.151 405.378 929.336 405.378 Q923.786 405.378 920.991 408.477 Q918.216 411.576 918.216 417.713 Q918.216 423.83 920.991 426.929 Q923.786 430.028 929.336 430.028 Q931.503 430.028 933.204 429.663 Q934.906 429.278 936.263 428.488 Z" fill="#000000" fill-rule="nonzero" fill-opacity="1" /><path clip-path="url(#clip520)" d="M614.689 251.228 L609.139 266.277 L620.259 266.277 L614.689 251.228 M612.38 247.197 L617.018 247.197 L628.543 277.437 L624.289 277.437 L621.535 269.68 L607.903 269.68 L605.149 277.437 L600.835 277.437 L612.38 247.197 Z" fill="#000000" fill-rule="nonzero" fill-opacity="1" /><path clip-path="url(#clip520)" d="M632.958 247.197 L639.055 247.197 L646.772 267.776 L654.529 247.197 L660.626 247.197 L660.626 277.437 L656.636 277.437 L656.636 250.884 L648.838 271.624 L644.726 271.624 L636.928 250.884 L636.928 277.437 L632.958 277.437 L632.958 247.197 Z" fill="#000000" fill-rule="nonzero" fill-opacity="1" /><path clip-path="url(#clip520)" d="M667.006 247.197 L690.765 247.197 L690.765 250.316 L671.644 273.994 L691.231 273.994 L691.231 277.437 L666.54 277.437 L666.54 274.318 L685.661 250.64 L667.006 250.64 L667.006 247.197 Z" fill="#000000" fill-rule="nonzero" fill-opacity="1" /><path clip-path="url(#clip520)" d="M697.165 247.197 L702.674 247.197 L716.083 272.495 L716.083 247.197 L720.053 247.197 L720.053 277.437 L714.543 277.437 L701.135 252.139 L701.135 277.437 L697.165 277.437 L697.165 247.197 Z" fill="#000000" fill-rule="nonzero" fill-opacity="1" /><path clip-path="url(#clip520)" d="M1525.4 486.478 L1550.98 486.478 L1550.98 489.921 L1540.25 489.921 L1540.25 516.718 L1536.13 516.718 L1536.13 489.921 L1525.4 489.921 L1525.4 486.478 Z" fill="#000000" fill-rule="nonzero" fill-opacity="1" /><path clip-path="url(#clip520)" d="M1328.6 1338.36 L1328.6 1349.44 L1335.17 1349.44 Q1338.47 1349.44 1340.05 1348.08 Q1341.65 1346.71 1341.65 1343.89 Q1341.65 1341.06 1340.05 1339.72 Q1338.47 1338.36 1335.17 1338.36 L1328.6 1338.36 M1328.6 1325.93 L1328.6 1335.04 L1334.66 1335.04 Q1337.66 1335.04 1339.12 1333.93 Q1340.6 1332.79 1340.6 1330.48 Q1340.6 1328.19 1339.12 1327.06 Q1337.66 1325.93 1334.66 1325.93 L1328.6 1325.93 M1324.51 1322.56 L1334.96 1322.56 Q1339.64 1322.56 1342.18 1324.51 Q1344.71 1326.45 1344.71 1330.04 Q1344.71 1332.81 1343.41 1334.45 Q1342.11 1336.09 1339.6 1336.5 Q1342.62 1337.15 1344.28 1339.21 Q1345.96 1341.26 1345.96 1344.34 Q1345.96 1348.39 1343.21 1350.6 Q1340.45 1352.8 1335.37 1352.8 L1324.51 1352.8 L1324.51 1322.56 Z" fill="#000000" fill-rule="nonzero" fill-opacity="1" /><path clip-path="url(#clip520)" d="M1357.06 1338.36 L1357.06 1349.44 L1363.63 1349.44 Q1366.93 1349.44 1368.51 1348.08 Q1370.11 1346.71 1370.11 1343.89 Q1370.11 1341.06 1368.51 1339.72 Q1366.93 1338.36 1363.63 1338.36 L1357.06 1338.36 M1357.06 1325.93 L1357.06 1335.04 L1363.12 1335.04 Q1366.12 1335.04 1367.57 1333.93 Q1369.05 1332.79 1369.05 1330.48 Q1369.05 1328.19 1367.57 1327.06 Q1366.12 1325.93 1363.12 1325.93 L1357.06 1325.93 M1352.97 1322.56 L1363.42 1322.56 Q1368.1 1322.56 1370.63 1324.51 Q1373.16 1326.45 1373.16 1330.04 Q1373.16 1332.81 1371.87 1334.45 Q1370.57 1336.09 1368.06 1336.5 Q1371.08 1337.15 1372.74 1339.21 Q1374.42 1341.26 1374.42 1344.34 Q1374.42 1348.39 1371.67 1350.6 Q1368.91 1352.8 1363.83 1352.8 L1352.97 1352.8 L1352.97 1322.56 Z" fill="#000000" fill-rule="nonzero" fill-opacity="1" /><path clip-path="url(#clip520)" d="M1375.01 1322.56 L1379.4 1322.56 L1387.79 1335 L1396.11 1322.56 L1400.51 1322.56 L1389.81 1338.4 L1389.81 1352.8 L1385.7 1352.8 L1385.7 1338.4 L1375.01 1322.56 Z" fill="#000000" fill-rule="nonzero" fill-opacity="1" /><path clip-path="url(#clip520)" d="M1069.18 571.345 L1075.27 571.345 L1082.99 591.923 L1090.75 571.345 L1096.84 571.345 L1096.84 601.585 L1092.85 601.585 L1092.85 575.031 L1085.06 595.772 L1080.94 595.772 L1073.15 575.031 L1073.15 601.585 L1069.18 601.585 L1069.18 571.345 Z" fill="#000000" fill-rule="nonzero" fill-opacity="1" /><path clip-path="url(#clip520)" d="M1115.07 575.375 L1109.52 590.424 L1120.64 590.424 L1115.07 575.375 M1112.76 571.345 L1117.4 571.345 L1128.93 601.585 L1124.67 601.585 L1121.92 593.827 L1108.29 593.827 L1105.53 601.585 L1101.22 601.585 L1112.76 571.345 Z" fill="#000000" fill-rule="nonzero" fill-opacity="1" /><path clip-path="url(#clip520)" d="M1714.9 255.819 L1714.9 267.182 L1720.04 267.182 Q1722.9 267.182 1724.46 265.704 Q1726.02 264.225 1726.02 261.491 Q1726.02 258.776 1724.46 257.298 Q1722.9 255.819 1720.04 255.819 L1714.9 255.819 M1710.81 252.457 L1720.04 252.457 Q1725.12 252.457 1727.72 254.766 Q1730.33 257.055 1730.33 261.491 Q1730.33 265.967 1727.72 268.256 Q1725.12 270.544 1720.04 270.544 L1714.9 270.544 L1714.9 282.697 L1710.81 282.697 L1710.81 252.457 Z" fill="#000000" fill-rule="nonzero" fill-opacity="1" /><path clip-path="url(#clip520)" d="M1735.82 252.457 L1753.2 252.457 L1753.2 255.9 L1739.91 255.9 L1739.91 264.812 L1751.9 264.812 L1751.9 268.256 L1739.91 268.256 L1739.91 282.697 L1735.82 282.697 L1735.82 252.457 Z" fill="#000000" fill-rule="nonzero" fill-opacity="1" /><path clip-path="url(#clip520)" d="M1759.68 252.457 L1778.8 252.457 L1778.8 255.9 L1763.77 255.9 L1763.77 264.853 L1778.17 264.853 L1778.17 268.296 L1763.77 268.296 L1763.77 279.254 L1779.16 279.254 L1779.16 282.697 L1759.68 282.697 L1759.68 252.457 Z" fill="#000000" fill-rule="nonzero" fill-opacity="1" /><path clip-path="url(#clip520)" d="M1297.42 773.858 L1301.51 773.858 L1301.51 801.991 Q1301.51 807.46 1299.42 809.931 Q1297.36 812.402 1292.76 812.402 L1291.2 812.402 L1291.2 808.959 L1292.48 808.959 Q1295.19 808.959 1296.3 807.44 Q1297.42 805.921 1297.42 801.991 L1297.42 773.858 Z" fill="#000000" fill-rule="nonzero" fill-opacity="1" /><path clip-path="url(#clip520)" d="M1313.74 777.22 L1313.74 788.583 L1318.89 788.583 Q1321.74 788.583 1323.3 787.104 Q1324.86 785.626 1324.86 782.891 Q1324.86 780.177 1323.3 778.699 Q1321.74 777.22 1318.89 777.22 L1313.74 777.22 M1309.65 773.858 L1318.89 773.858 Q1323.97 773.858 1326.56 776.167 Q1329.18 778.456 1329.18 782.891 Q1329.18 787.368 1326.56 789.656 Q1323.97 791.945 1318.89 791.945 L1313.74 791.945 L1313.74 804.098 L1309.65 804.098 L1309.65 773.858 Z" fill="#000000" fill-rule="nonzero" fill-opacity="1" /><path clip-path="url(#clip520)" d="M1334.67 773.858 L1340.76 773.858 L1348.48 794.436 L1356.24 773.858 L1362.33 773.858 L1362.33 804.098 L1358.34 804.098 L1358.34 777.544 L1350.54 798.285 L1346.43 798.285 L1338.64 777.544 L1338.64 804.098 L1334.67 804.098 L1334.67 773.858 Z" fill="#000000" fill-rule="nonzero" fill-opacity="1" /></svg>
