<?xml version="1.0" encoding="utf-8"?>
<svg xmlns="http://www.w3.org/2000/svg" xmlns:xlink="http://www.w3.org/1999/xlink" width="600" height="400" viewBox="0 0 2400 1600">
<defs>
  <clipPath id="clip450">
    <rect x="0" y="0" width="2400" height="1600"/>
  </clipPath>
</defs>
<path clip-path="url(#clip450)" d="M0 1600 L2400 1600 L2400 0 L0 0  Z" fill="#ffffff" fill-rule="evenodd" fill-opacity="1"/>
<defs>
  <clipPath id="clip451">
    <rect x="480" y="0" width="1681" height="1600"/>
  </clipPath>
</defs>
<path clip-path="url(#clip450)" d="M447.244 1552.76 L1952.76 1552.76 L1952.76 47.2441 L447.244 47.2441  Z" fill="#ffffff" fill-rule="evenodd" fill-opacity="1"/>
<defs>
  <clipPath id="clip452">
    <rect x="447" y="47" width="1507" height="1507"/>
  </clipPath>
</defs>
<polyline clip-path="url(#clip452)" style="stroke:#000000; stroke-linecap:round; stroke-linejoin:round; stroke-width:4; stroke-opacity:1; fill:none" points="1737.68,1199.24 1190.44,1337.68 "/>
<polyline clip-path="url(#clip452)" style="stroke:#000000; stroke-linecap:round; stroke-linejoin:round; stroke-width:4; stroke-opacity:1; fill:none" points="1005.28,672.185 1374.17,514.975 "/>
<polyline clip-path="url(#clip452)" style="stroke:#000000; stroke-linecap:round; stroke-linejoin:round; stroke-width:4; stroke-opacity:1; fill:none" points="1005.28,672.185 662.317,535.592 "/>
<polyline clip-path="url(#clip452)" style="stroke:#000000; stroke-linecap:round; stroke-linejoin:round; stroke-width:4; stroke-opacity:1; fill:none" points="1005.28,672.185 1237.22,262.317 "/>
<polyline clip-path="url(#clip452)" style="stroke:#000000; stroke-linecap:round; stroke-linejoin:round; stroke-width:4; stroke-opacity:1; fill:none" points="1005.28,672.185 824.516,276.643 "/>
<polyline clip-path="url(#clip452)" style="stroke:#000000; stroke-linecap:round; stroke-linejoin:round; stroke-width:4; stroke-opacity:1; fill:none" points="1374.17,514.975 662.317,535.592 "/>
<polyline clip-path="url(#clip452)" style="stroke:#000000; stroke-linecap:round; stroke-linejoin:round; stroke-width:4; stroke-opacity:1; fill:none" points="1374.17,514.975 1237.22,262.317 "/>
<polyline clip-path="url(#clip452)" style="stroke:#000000; stroke-linecap:round; stroke-linejoin:round; stroke-width:4; stroke-opacity:1; fill:none" points="1374.17,514.975 824.516,276.643 "/>
<polyline clip-path="url(#clip452)" style="stroke:#000000; stroke-linecap:round; stroke-linejoin:round; stroke-width:4; stroke-opacity:1; fill:none" points="662.317,535.592 1237.22,262.317 "/>
<polyline clip-path="url(#clip452)" style="stroke:#000000; stroke-linecap:round; stroke-linejoin:round; stroke-width:4; stroke-opacity:1; fill:none" points="662.317,535.592 824.516,276.643 "/>
<polyline clip-path="url(#clip452)" style="stroke:#000000; stroke-linecap:round; stroke-linejoin:round; stroke-width:4; stroke-opacity:1; fill:none" points="1237.22,262.317 824.516,276.643 "/>
<path clip-path="url(#clip452)" d="M1829.67 1199.24 L1829.37 1191.93 L1828.5 1184.67 L1827.06 1177.5 L1825.05 1170.47 L1822.49 1163.62 L1819.39 1156.99 L1815.77 1150.64 L1811.67 1144.58 L1807.09 1138.88 L1802.07 1133.56 L1796.65 1128.65 L1790.86 1124.19 L1784.73 1120.2 L1778.3 1116.71 L1771.61 1113.74 L1764.71 1111.32 L1757.64 1109.45 L1750.44 1108.15 L1743.17 1107.42 L1735.85 1107.28 L1728.55 1107.71 L1721.31 1108.73 L1714.17 1110.31 L1707.18 1112.46 L1700.38 1115.16 L1693.82 1118.39 L1687.53 1122.13 L1681.57 1126.36 L1675.95 1131.05 L1670.73 1136.17 L1665.93 1141.69 L1661.58 1147.57 L1657.72 1153.78 L1654.36 1160.28 L1651.53 1167.02 L1649.24 1173.97 L1647.51 1181.07 L1646.35 1188.29 L1645.77 1195.58 L1645.77 1202.9 L1646.35 1210.19 L1647.51 1217.41 L1649.24 1224.52 L1651.53 1231.46 L1654.36 1238.21 L1657.72 1244.7 L1661.58 1250.91 L1665.93 1256.8 L1670.73 1262.31 L1675.95 1267.43 L1681.57 1272.12 L1687.53 1276.35 L1693.82 1280.09 L1700.38 1283.32 L1707.18 1286.02 L1714.17 1288.17 L1721.31 1289.75 L1728.55 1290.77 L1735.85 1291.21 L1743.17 1291.06 L1750.44 1290.33 L1757.64 1289.03 L1764.71 1287.16 L1771.61 1284.74 L1778.3 1281.77 L1784.73 1278.28 L1790.86 1274.3 L1796.65 1269.83 L1802.07 1264.93 L1807.09 1259.6 L1811.67 1253.9 L1815.77 1247.85 L1819.39 1241.49 L1822.49 1234.86 L1825.05 1228.01 L1827.06 1220.98 L1828.5 1213.81 L1829.37 1206.55 L1829.67 1199.24 L1829.67 1199.24  Z" fill="#9e0142" fill-rule="evenodd" fill-opacity="1"/>
<polyline clip-path="url(#clip452)" style="stroke:#000000; stroke-linecap:round; stroke-linejoin:round; stroke-width:4; stroke-opacity:1; fill:none" points="1829.67,1199.24 1829.37,1191.93 1828.5,1184.67 1827.06,1177.5 1825.05,1170.47 1822.49,1163.62 1819.39,1156.99 1815.77,1150.64 1811.67,1144.58 1807.09,1138.88 1802.07,1133.56 1796.65,1128.65 1790.86,1124.19 1784.73,1120.2 1778.3,1116.71 1771.61,1113.74 1764.71,1111.32 1757.64,1109.45 1750.44,1108.15 1743.17,1107.42 1735.85,1107.28 1728.55,1107.71 1721.31,1108.73 1714.17,1110.31 1707.18,1112.46 1700.38,1115.16 1693.82,1118.39 1687.53,1122.13 1681.57,1126.36 1675.95,1131.05 1670.73,1136.17 1665.93,1141.69 1661.58,1147.57 1657.72,1153.78 1654.36,1160.28 1651.53,1167.02 1649.24,1173.97 1647.51,1181.07 1646.35,1188.29 1645.77,1195.58 1645.77,1202.9 1646.35,1210.19 1647.51,1217.41 1649.24,1224.52 1651.53,1231.46 1654.36,1238.21 1657.72,1244.7 1661.58,1250.91 1665.93,1256.8 1670.73,1262.31 1675.95,1267.43 1681.57,1272.12 1687.53,1276.35 1693.82,1280.09 1700.38,1283.32 1707.18,1286.02 1714.17,1288.17 1721.31,1289.75 1728.55,1290.77 1735.85,1291.21 1743.17,1291.06 1750.44,1290.33 1757.64,1289.03 1764.71,1287.16 1771.61,1284.74 1778.3,1281.77 1784.73,1278.28 1790.86,1274.3 1796.65,1269.83 1802.07,1264.93 1807.09,1259.6 1811.67,1253.9 1815.77,1247.85 1819.39,1241.49 1822.49,1234.86 1825.05,1228.01 1827.06,1220.98 1828.5,1213.81 1829.37,1206.55 1829.67,1199.24 "/>
<path clip-path="url(#clip452)" d="M1282.43 1337.68 L1282.14 1330.37 L1281.26 1323.11 L1279.82 1315.94 L1277.81 1308.91 L1275.25 1302.06 L1272.15 1295.44 L1268.54 1289.08 L1264.43 1283.03 L1259.85 1277.32 L1254.84 1272 L1249.41 1267.09 L1243.62 1262.63 L1237.49 1258.64 L1231.06 1255.15 L1224.37 1252.19 L1217.47 1249.76 L1210.4 1247.89 L1203.2 1246.59 L1195.93 1245.86 L1188.61 1245.72 L1181.31 1246.15 L1174.07 1247.17 L1166.93 1248.76 L1159.94 1250.9 L1153.14 1253.6 L1146.58 1256.83 L1140.29 1260.57 L1134.33 1264.8 L1128.71 1269.49 L1123.49 1274.61 L1118.69 1280.13 L1114.35 1286.01 L1110.48 1292.22 L1107.12 1298.72 L1104.29 1305.46 L1102 1312.41 L1100.27 1319.51 L1099.11 1326.74 L1098.53 1334.03 L1098.53 1341.34 L1099.11 1348.63 L1100.27 1355.85 L1102 1362.96 L1104.29 1369.91 L1107.12 1376.65 L1110.48 1383.15 L1114.35 1389.35 L1118.69 1395.24 L1123.49 1400.76 L1128.71 1405.88 L1134.33 1410.56 L1140.29 1414.79 L1146.58 1418.53 L1153.14 1421.76 L1159.94 1424.46 L1166.93 1426.61 L1174.07 1428.2 L1181.31 1429.21 L1188.61 1429.65 L1195.93 1429.5 L1203.2 1428.78 L1210.4 1427.47 L1217.47 1425.6 L1224.37 1423.18 L1231.06 1420.21 L1237.49 1416.73 L1243.62 1412.74 L1249.41 1408.28 L1254.84 1403.37 L1259.85 1398.04 L1264.43 1392.34 L1268.54 1386.29 L1272.15 1379.93 L1275.25 1373.31 L1277.81 1366.45 L1279.82 1359.42 L1281.26 1352.25 L1282.14 1344.99 L1282.43 1337.68 L1282.43 1337.68  Z" fill="#9e0142" fill-rule="evenodd" fill-opacity="1"/>
<polyline clip-path="url(#clip452)" style="stroke:#000000; stroke-linecap:round; stroke-linejoin:round; stroke-width:4; stroke-opacity:1; fill:none" points="1282.43,1337.68 1282.14,1330.37 1281.26,1323.11 1279.82,1315.94 1277.81,1308.91 1275.25,1302.06 1272.15,1295.44 1268.54,1289.08 1264.43,1283.03 1259.85,1277.32 1254.84,1272 1249.41,1267.09 1243.62,1262.63 1237.49,1258.64 1231.06,1255.15 1224.37,1252.19 1217.47,1249.76 1210.4,1247.89 1203.2,1246.59 1195.93,1245.86 1188.61,1245.72 1181.31,1246.15 1174.07,1247.17 1166.93,1248.76 1159.94,1250.9 1153.14,1253.6 1146.58,1256.83 1140.29,1260.57 1134.33,1264.8 1128.71,1269.49 1123.49,1274.61 1118.69,1280.13 1114.35,1286.01 1110.48,1292.22 1107.12,1298.72 1104.29,1305.46 1102,1312.41 1100.27,1319.51 1099.11,1326.74 1098.53,1334.03 1098.53,1341.34 1099.11,1348.63 1100.27,1355.85 1102,1362.96 1104.29,1369.91 1107.12,1376.65 1110.48,1383.15 1114.35,1389.35 1118.69,1395.24 1123.49,1400.76 1128.71,1405.88 1134.33,1410.56 1140.29,1414.79 1146.58,1418.53 1153.14,1421.76 1159.94,1424.46 1166.93,1426.61 1174.07,1428.2 1181.31,1429.21 1188.61,1429.65 1195.93,1429.5 1203.2,1428.78 1210.4,1427.47 1217.47,1425.6 1224.37,1423.18 1231.06,1420.21 1237.49,1416.73 1243.62,1412.74 1249.41,1408.28 1254.84,1403.37 1259.85,1398.04 1264.43,1392.34 1268.54,1386.29 1272.15,1379.93 1275.25,1373.31 1277.81,1366.45 1279.82,1359.42 1281.26,1352.25 1282.14,1344.99 1282.43,1337.68 "/>
<path clip-path="url(#clip452)" d="M1097.26 672.185 L1096.97 664.877 L1096.1 657.615 L1094.65 650.446 L1092.65 643.413 L1090.08 636.563 L1086.98 629.938 L1083.37 623.58 L1079.26 617.529 L1074.68 611.824 L1069.67 606.5 L1064.25 601.592 L1058.45 597.13 L1052.32 593.142 L1045.89 589.655 L1039.21 586.689 L1032.31 584.263 L1025.24 582.394 L1018.04 581.092 L1010.76 580.366 L1003.45 580.22 L996.148 580.656 L988.905 581.671 L981.766 583.258 L974.775 585.407 L967.976 588.105 L961.414 591.334 L955.129 595.075 L949.161 599.303 L943.548 603.992 L938.325 609.112 L933.526 614.631 L929.18 620.513 L925.315 626.723 L921.956 633.219 L919.124 639.963 L916.836 646.909 L915.107 654.016 L913.949 661.238 L913.368 668.528 L913.368 675.842 L913.949 683.133 L915.107 690.354 L916.836 697.461 L919.124 704.408 L921.956 711.151 L925.315 717.648 L929.18 723.857 L933.526 729.74 L938.325 735.258 L943.548 740.378 L949.161 745.067 L955.129 749.295 L961.414 753.036 L967.976 756.265 L974.775 758.963 L981.766 761.112 L988.905 762.699 L996.148 763.714 L1003.45 764.15 L1010.76 764.005 L1018.04 763.279 L1025.24 761.977 L1032.31 760.107 L1039.21 757.682 L1045.89 754.716 L1052.32 751.228 L1058.45 747.241 L1064.25 742.779 L1069.67 737.87 L1074.68 732.547 L1079.26 726.842 L1083.37 720.791 L1086.98 714.433 L1090.08 707.808 L1092.65 700.957 L1094.65 693.925 L1096.1 686.755 L1096.97 679.493 L1097.26 672.185 L1097.26 672.185  Z" fill="#5e4fa1" fill-rule="evenodd" fill-opacity="1"/>
<polyline clip-path="url(#clip452)" style="stroke:#000000; stroke-linecap:round; stroke-linejoin:round; stroke-width:4; stroke-opacity:1; fill:none" points="1097.26,672.185 1096.97,664.877 1096.1,657.615 1094.65,650.446 1092.65,643.413 1090.08,636.563 1086.98,629.938 1083.37,623.58 1079.26,617.529 1074.68,611.824 1069.67,606.5 1064.25,601.592 1058.45,597.13 1052.32,593.142 1045.89,589.655 1039.21,586.689 1032.31,584.263 1025.24,582.394 1018.04,581.092 1010.76,580.366 1003.45,580.22 996.148,580.656 988.905,581.671 981.766,583.258 974.775,585.407 967.976,588.105 961.414,591.334 955.129,595.075 949.161,599.303 943.548,603.992 938.325,609.112 933.526,614.631 929.18,620.513 925.315,626.723 921.956,633.219 919.124,639.963 916.836,646.909 915.107,654.016 913.949,661.238 913.368,668.528 913.368,675.842 913.949,683.133 915.107,690.354 916.836,697.461 919.124,704.408 921.956,711.151 925.315,717.648 929.18,723.857 933.526,729.74 938.325,735.258 943.548,740.378 949.161,745.067 955.129,749.295 961.414,753.036 967.976,756.265 974.775,758.963 981.766,761.112 988.905,762.699 996.148,763.714 1003.45,764.15 1010.76,764.005 1018.04,763.279 1025.24,761.977 1032.31,760.107 1039.21,757.682 1045.89,754.716 1052.32,751.228 1058.45,747.241 1064.25,742.779 1069.67,737.87 1074.68,732.547 1079.26,726.842 1083.37,720.791 1086.98,714.433 1090.08,707.808 1092.65,700.957 1094.65,693.925 1096.1,686.755 1096.97,679.493 1097.26,672.185 "/>
<path clip-path="url(#clip452)" d="M1466.15 514.975 L1465.86 507.667 L1464.99 500.405 L1463.55 493.235 L1461.54 486.203 L1458.98 479.352 L1455.88 472.727 L1452.26 466.369 L1448.15 460.318 L1443.58 454.613 L1438.56 449.29 L1433.14 444.381 L1427.35 439.919 L1421.21 435.932 L1414.79 432.444 L1408.1 429.478 L1401.2 427.053 L1394.13 425.183 L1386.93 423.881 L1379.65 423.155 L1372.34 423.01 L1365.04 423.446 L1357.8 424.461 L1350.66 426.048 L1343.67 428.197 L1336.87 430.895 L1330.31 434.124 L1324.02 437.865 L1318.05 442.093 L1312.44 446.781 L1307.22 451.901 L1302.42 457.42 L1298.07 463.303 L1294.21 469.512 L1290.85 476.009 L1288.02 482.752 L1285.73 489.699 L1284 496.806 L1282.84 504.027 L1282.26 511.318 L1282.26 518.632 L1282.84 525.922 L1284 533.144 L1285.73 540.25 L1288.02 547.197 L1290.85 553.94 L1294.21 560.437 L1298.07 566.647 L1302.42 572.529 L1307.22 578.048 L1312.44 583.168 L1318.05 587.857 L1324.02 592.085 L1330.31 595.825 L1336.87 599.055 L1343.67 601.753 L1350.66 603.902 L1357.8 605.489 L1365.04 606.503 L1372.34 606.939 L1379.65 606.794 L1386.93 606.068 L1394.13 604.766 L1401.2 602.897 L1408.1 600.471 L1414.79 597.505 L1421.21 594.018 L1427.35 590.03 L1433.14 585.568 L1438.56 580.66 L1443.58 575.336 L1448.15 569.631 L1452.26 563.58 L1455.88 557.222 L1458.98 550.597 L1461.54 543.747 L1463.55 536.714 L1464.99 529.545 L1465.86 522.283 L1466.15 514.975 L1466.15 514.975  Z" fill="#5e4fa1" fill-rule="evenodd" fill-opacity="1"/>
<polyline clip-path="url(#clip452)" style="stroke:#000000; stroke-linecap:round; stroke-linejoin:round; stroke-width:4; stroke-opacity:1; fill:none" points="1466.15,514.975 1465.86,507.667 1464.99,500.405 1463.55,493.235 1461.54,486.203 1458.98,479.352 1455.88,472.727 1452.26,466.369 1448.15,460.318 1443.58,454.613 1438.56,449.29 1433.14,444.381 1427.35,439.919 1421.21,435.932 1414.79,432.444 1408.1,429.478 1401.2,427.053 1394.13,425.183 1386.93,423.881 1379.65,423.155 1372.34,423.01 1365.04,423.446 1357.8,424.461 1350.66,426.048 1343.67,428.197 1336.87,430.895 1330.31,434.124 1324.02,437.865 1318.05,442.093 1312.44,446.781 1307.22,451.901 1302.42,457.42 1298.07,463.303 1294.21,469.512 1290.85,476.009 1288.02,482.752 1285.73,489.699 1284,496.806 1282.84,504.027 1282.26,511.318 1282.26,518.632 1282.84,525.922 1284,533.144 1285.73,540.25 1288.02,547.197 1290.85,553.94 1294.21,560.437 1298.07,566.647 1302.42,572.529 1307.22,578.048 1312.44,583.168 1318.05,587.857 1324.02,592.085 1330.31,595.825 1336.87,599.055 1343.67,601.753 1350.66,603.902 1357.8,605.489 1365.04,606.503 1372.34,606.939 1379.65,606.794 1386.93,606.068 1394.13,604.766 1401.2,602.897 1408.1,600.471 1414.79,597.505 1421.21,594.018 1427.35,590.03 1433.14,585.568 1438.56,580.66 1443.58,575.336 1448.15,569.631 1452.26,563.58 1455.88,557.222 1458.98,550.597 1461.54,543.747 1463.55,536.714 1464.99,529.545 1465.86,522.283 1466.15,514.975 "/>
<path clip-path="url(#clip452)" d="M754.3 535.592 L754.009 528.284 L753.139 521.022 L751.694 513.853 L749.684 506.82 L747.122 499.97 L744.024 493.345 L740.409 486.987 L736.301 480.936 L731.724 475.231 L726.709 469.907 L721.287 464.999 L715.492 460.537 L709.361 456.549 L702.932 453.061 L696.246 450.096 L689.346 447.67 L682.276 445.801 L675.079 444.499 L667.801 443.773 L660.488 443.627 L653.188 444.063 L645.944 445.078 L638.805 446.665 L631.814 448.814 L625.016 451.512 L618.454 454.741 L612.169 458.482 L606.201 462.71 L600.588 467.399 L595.365 472.519 L590.565 478.038 L586.219 483.92 L582.355 490.13 L578.995 496.626 L576.163 503.37 L573.875 510.316 L572.147 517.423 L570.988 524.645 L570.407 531.935 L570.407 539.249 L570.988 546.54 L572.147 553.761 L573.875 560.868 L576.163 567.815 L578.995 574.558 L582.355 581.055 L586.219 587.264 L590.565 593.147 L595.365 598.665 L600.588 603.785 L606.201 608.474 L612.169 612.702 L618.454 616.443 L625.016 619.672 L631.814 622.37 L638.805 624.519 L645.944 626.106 L653.188 627.121 L660.488 627.557 L667.801 627.412 L675.079 626.686 L682.276 625.384 L689.346 623.514 L696.246 621.089 L702.932 618.123 L709.361 614.635 L715.492 610.648 L721.287 606.186 L726.709 601.277 L731.724 595.954 L736.301 590.249 L740.409 584.198 L744.024 577.84 L747.122 571.215 L749.684 564.364 L751.694 557.332 L753.139 550.162 L754.009 542.9 L754.3 535.592 L754.3 535.592  Z" fill="#5e4fa1" fill-rule="evenodd" fill-opacity="1"/>
<polyline clip-path="url(#clip452)" style="stroke:#000000; stroke-linecap:round; stroke-linejoin:round; stroke-width:4; stroke-opacity:1; fill:none" points="754.3,535.592 754.009,528.284 753.139,521.022 751.694,513.853 749.684,506.82 747.122,499.97 744.024,493.345 740.409,486.987 736.301,480.936 731.724,475.231 726.709,469.907 721.287,464.999 715.492,460.537 709.361,456.549 702.932,453.061 696.246,450.096 689.346,447.67 682.276,445.801 675.079,444.499 667.801,443.773 660.488,443.627 653.188,444.063 645.944,445.078 638.805,446.665 631.814,448.814 625.016,451.512 618.454,454.741 612.169,458.482 606.201,462.71 600.588,467.399 595.365,472.519 590.565,478.038 586.219,483.92 582.355,490.13 578.995,496.626 576.163,503.37 573.875,510.316 572.147,517.423 570.988,524.645 570.407,531.935 570.407,539.249 570.988,546.54 572.147,553.761 573.875,560.868 576.163,567.815 578.995,574.558 582.355,581.055 586.219,587.264 590.565,593.147 595.365,598.665 600.588,603.785 606.201,608.474 612.169,612.702 618.454,616.443 625.016,619.672 631.814,622.37 638.805,624.519 645.944,626.106 653.188,627.121 660.488,627.557 667.801,627.412 675.079,626.686 682.276,625.384 689.346,623.514 696.246,621.089 702.932,618.123 709.361,614.635 715.492,610.648 721.287,606.186 726.709,601.277 731.724,595.954 736.301,590.249 740.409,584.198 744.024,577.84 747.122,571.215 749.684,564.364 751.694,557.332 753.139,550.162 754.009,542.9 754.3,535.592 "/>
<path clip-path="url(#clip452)" d="M1329.2 262.317 L1328.91 255.009 L1328.04 247.747 L1326.6 240.578 L1324.59 233.545 L1322.02 226.695 L1318.93 220.07 L1315.31 213.712 L1311.2 207.661 L1306.63 201.956 L1301.61 196.632 L1296.19 191.724 L1290.39 187.262 L1284.26 183.274 L1277.83 179.787 L1271.15 176.821 L1264.25 174.395 L1257.18 172.526 L1249.98 171.224 L1242.7 170.498 L1235.39 170.352 L1228.09 170.788 L1220.85 171.803 L1213.71 173.39 L1206.72 175.539 L1199.92 178.237 L1193.36 181.466 L1187.07 185.207 L1181.1 189.435 L1175.49 194.124 L1170.27 199.244 L1165.47 204.763 L1161.12 210.645 L1157.26 216.855 L1153.9 223.351 L1151.07 230.095 L1148.78 237.041 L1147.05 244.148 L1145.89 251.37 L1145.31 258.66 L1145.31 265.974 L1145.89 273.265 L1147.05 280.486 L1148.78 287.593 L1151.07 294.54 L1153.9 301.283 L1157.26 307.78 L1161.12 313.989 L1165.47 319.872 L1170.27 325.39 L1175.49 330.51 L1181.1 335.199 L1187.07 339.427 L1193.36 343.168 L1199.92 346.397 L1206.72 349.095 L1213.71 351.244 L1220.85 352.831 L1228.09 353.846 L1235.39 354.282 L1242.7 354.137 L1249.98 353.411 L1257.18 352.109 L1264.25 350.239 L1271.15 347.814 L1277.83 344.848 L1284.26 341.36 L1290.39 337.373 L1296.19 332.911 L1301.61 328.002 L1306.63 322.679 L1311.2 316.974 L1315.31 310.923 L1318.93 304.565 L1322.02 297.94 L1324.59 291.089 L1326.6 284.057 L1328.04 276.887 L1328.91 269.625 L1329.2 262.317 L1329.2 262.317  Z" fill="#5e4fa1" fill-rule="evenodd" fill-opacity="1"/>
<polyline clip-path="url(#clip452)" style="stroke:#000000; stroke-linecap:round; stroke-linejoin:round; stroke-width:4; stroke-opacity:1; fill:none" points="1329.2,262.317 1328.91,255.009 1328.04,247.747 1326.6,240.578 1324.59,233.545 1322.02,226.695 1318.93,220.07 1315.31,213.712 1311.2,207.661 1306.63,201.956 1301.61,196.632 1296.19,191.724 1290.39,187.262 1284.26,183.274 1277.83,179.787 1271.15,176.821 1264.25,174.395 1257.18,172.526 1249.98,171.224 1242.7,170.498 1235.39,170.352 1228.09,170.788 1220.85,171.803 1213.71,173.39 1206.72,175.539 1199.92,178.237 1193.36,181.466 1187.07,185.207 1181.1,189.435 1175.49,194.124 1170.27,199.244 1165.47,204.763 1161.12,210.645 1157.26,216.855 1153.9,223.351 1151.07,230.095 1148.78,237.041 1147.05,244.148 1145.89,251.37 1145.31,258.66 1145.31,265.974 1145.89,273.265 1147.05,280.486 1148.78,287.593 1151.07,294.54 1153.9,301.283 1157.26,307.78 1161.12,313.989 1165.47,319.872 1170.27,325.39 1175.49,330.51 1181.1,335.199 1187.07,339.427 1193.36,343.168 1199.92,346.397 1206.72,349.095 1213.71,351.244 1220.85,352.831 1228.09,353.846 1235.39,354.282 1242.7,354.137 1249.98,353.411 1257.18,352.109 1264.25,350.239 1271.15,347.814 1277.83,344.848 1284.26,341.36 1290.39,337.373 1296.19,332.911 1301.61,328.002 1306.63,322.679 1311.2,316.974 1315.31,310.923 1318.93,304.565 1322.02,297.94 1324.59,291.089 1326.6,284.057 1328.04,276.887 1328.91,269.625 1329.2,262.317 "/>
<path clip-path="url(#clip452)" d="M916.499 276.643 L916.209 269.335 L915.338 262.073 L913.893 254.903 L911.884 247.871 L909.322 241.02 L906.223 234.395 L902.608 228.037 L898.5 221.986 L893.923 216.281 L888.908 210.958 L883.486 206.049 L877.691 201.587 L871.56 197.6 L865.131 194.112 L858.446 191.146 L851.546 188.721 L844.475 186.851 L837.278 185.549 L830 184.823 L822.688 184.678 L815.387 185.114 L808.144 186.129 L801.004 187.716 L794.013 189.865 L787.215 192.563 L780.653 195.792 L774.368 199.533 L768.4 203.761 L762.787 208.45 L757.564 213.57 L752.764 219.088 L748.419 224.971 L744.554 231.18 L741.195 237.677 L738.362 244.42 L736.074 251.367 L734.346 258.474 L733.187 265.695 L732.606 272.986 L732.606 280.3 L733.187 287.59 L734.346 294.812 L736.074 301.919 L738.362 308.865 L741.195 315.609 L744.554 322.105 L748.419 328.315 L752.764 334.197 L757.564 339.716 L762.787 344.836 L768.4 349.525 L774.368 353.753 L780.653 357.493 L787.215 360.723 L794.013 363.421 L801.004 365.57 L808.144 367.157 L815.387 368.172 L822.688 368.608 L830 368.462 L837.278 367.736 L844.475 366.434 L851.546 364.565 L858.446 362.139 L865.131 359.173 L871.56 355.686 L877.691 351.698 L883.486 347.236 L888.908 342.328 L893.923 337.004 L898.5 331.299 L902.608 325.248 L906.223 318.89 L909.322 312.265 L911.884 305.415 L913.893 298.382 L915.338 291.213 L916.209 283.951 L916.499 276.643 L916.499 276.643  Z" fill="#5e4fa1" fill-rule="evenodd" fill-opacity="1"/>
<polyline clip-path="url(#clip452)" style="stroke:#000000; stroke-linecap:round; stroke-linejoin:round; stroke-width:4; stroke-opacity:1; fill:none" points="916.499,276.643 916.209,269.335 915.338,262.073 913.893,254.903 911.884,247.871 909.322,241.02 906.223,234.395 902.608,228.037 898.5,221.986 893.923,216.281 888.908,210.958 883.486,206.049 877.691,201.587 871.56,197.6 865.131,194.112 858.446,191.146 851.546,188.721 844.475,186.851 837.278,185.549 830,184.823 822.688,184.678 815.387,185.114 808.144,186.129 801.004,187.716 794.013,189.865 787.215,192.563 780.653,195.792 774.368,199.533 768.4,203.761 762.787,208.45 757.564,213.57 752.764,219.088 748.419,224.971 744.554,231.18 741.195,237.677 738.362,244.42 736.074,251.367 734.346,258.474 733.187,265.695 732.606,272.986 732.606,280.3 733.187,287.59 734.346,294.812 736.074,301.919 738.362,308.865 741.195,315.609 744.554,322.105 748.419,328.315 752.764,334.197 757.564,339.716 762.787,344.836 768.4,349.525 774.368,353.753 780.653,357.493 787.215,360.723 794.013,363.421 801.004,365.57 808.144,367.157 815.387,368.172 822.688,368.608 830,368.462 837.278,367.736 844.475,366.434 851.546,364.565 858.446,362.139 865.131,359.173 871.56,355.686 877.691,351.698 883.486,347.236 888.908,342.328 893.923,337.004 898.5,331.299 902.608,325.248 906.223,318.89 909.322,312.265 911.884,305.415 913.893,298.382 915.338,291.213 916.209,283.951 916.499,276.643 "/>
<circle clip-path="url(#clip452)" cx="1737.68" cy="1199.24" r="0.36" fill="#5e4fa1" fill-rule="evenodd" fill-opacity="1" stroke="#000000" stroke-opacity="1" stroke-width="3.2"/>
<circle clip-path="url(#clip452)" cx="1190.44" cy="1337.68" r="0.36" fill="#5e4fa1" fill-rule="evenodd" fill-opacity="1" stroke="#000000" stroke-opacity="1" stroke-width="3.2"/>
<circle clip-path="url(#clip452)" cx="1005.28" cy="672.185" r="0.36" fill="#5e4fa1" fill-rule="evenodd" fill-opacity="1" stroke="#000000" stroke-opacity="1" stroke-width="3.2"/>
<circle clip-path="url(#clip452)" cx="1374.17" cy="514.975" r="0.36" fill="#5e4fa1" fill-rule="evenodd" fill-opacity="1" stroke="#000000" stroke-opacity="1" stroke-width="3.2"/>
<circle clip-path="url(#clip452)" cx="662.317" cy="535.592" r="0.36" fill="#5e4fa1" fill-rule="evenodd" fill-opacity="1" stroke="#000000" stroke-opacity="1" stroke-width="3.2"/>
<circle clip-path="url(#clip452)" cx="1237.22" cy="262.317" r="0.36" fill="#5e4fa1" fill-rule="evenodd" fill-opacity="1" stroke="#000000" stroke-opacity="1" stroke-width="3.2"/>
<circle clip-path="url(#clip452)" cx="824.516" cy="276.643" r="0.36" fill="#5e4fa1" fill-rule="evenodd" fill-opacity="1" stroke="#000000" stroke-opacity="1" stroke-width="3.2"/>
<path clip-path="url(#clip450)" d="M1697.58 1210.05 L1697.58 1201.92 L1690.89 1201.92 L1690.89 1198.56 L1701.63 1198.56 L1701.63 1211.55 Q1699.26 1213.23 1696.4 1214.1 Q1693.55 1214.95 1690.31 1214.95 Q1683.22 1214.95 1679.21 1210.82 Q1675.22 1206.66 1675.22 1199.27 Q1675.22 1191.86 1679.21 1187.73 Q1683.22 1183.57 1690.31 1183.57 Q1693.26 1183.57 1695.92 1184.3 Q1698.59 1185.03 1700.84 1186.45 L1700.84 1190.8 Q1698.57 1188.88 1696.02 1187.91 Q1693.47 1186.94 1690.65 1186.94 Q1685.1 1186.94 1682.31 1190.04 Q1679.53 1193.13 1679.53 1199.27 Q1679.53 1205.39 1682.31 1208.49 Q1685.1 1211.59 1690.65 1211.59 Q1692.82 1211.59 1694.52 1211.22 Q1696.22 1210.84 1697.58 1210.05 Z" fill="#000000" fill-rule="nonzero" fill-opacity="1" /><path clip-path="url(#clip450)" d="M1721.38 1186.9 Q1716.92 1186.9 1714.29 1190.22 Q1711.68 1193.54 1711.68 1199.27 Q1711.68 1204.98 1714.29 1208.3 Q1716.92 1211.63 1721.38 1211.63 Q1725.83 1211.63 1728.43 1208.3 Q1731.04 1204.98 1731.04 1199.27 Q1731.04 1193.54 1728.43 1190.22 Q1725.83 1186.9 1721.38 1186.9 M1721.38 1183.57 Q1727.74 1183.57 1731.55 1187.85 Q1735.35 1192.1 1735.35 1199.27 Q1735.35 1206.42 1731.55 1210.69 Q1727.74 1214.95 1721.38 1214.95 Q1715 1214.95 1711.17 1210.69 Q1707.36 1206.44 1707.36 1199.27 Q1707.36 1192.1 1711.17 1187.85 Q1715 1183.57 1721.38 1183.57 Z" fill="#000000" fill-rule="nonzero" fill-opacity="1" /><path clip-path="url(#clip450)" d="M1754.03 1186.9 Q1749.57 1186.9 1746.94 1190.22 Q1744.33 1193.54 1744.33 1199.27 Q1744.33 1204.98 1746.94 1208.3 Q1749.57 1211.63 1754.03 1211.63 Q1758.48 1211.63 1761.08 1208.3 Q1763.69 1204.98 1763.69 1199.27 Q1763.69 1193.54 1761.08 1190.22 Q1758.48 1186.9 1754.03 1186.9 M1754.03 1183.57 Q1760.39 1183.57 1764.2 1187.85 Q1768 1192.1 1768 1199.27 Q1768 1206.42 1764.2 1210.69 Q1760.39 1214.95 1754.03 1214.95 Q1747.65 1214.95 1743.82 1210.69 Q1740.01 1206.44 1740.01 1199.27 Q1740.01 1192.1 1743.82 1187.85 Q1747.65 1183.57 1754.03 1183.57 Z" fill="#000000" fill-rule="nonzero" fill-opacity="1" /><path clip-path="url(#clip450)" d="M1795.02 1210.05 L1795.02 1201.92 L1788.34 1201.92 L1788.34 1198.56 L1799.07 1198.56 L1799.07 1211.55 Q1796.7 1213.23 1793.85 1214.1 Q1790.99 1214.95 1787.75 1214.95 Q1780.66 1214.95 1776.65 1210.82 Q1772.66 1206.66 1772.66 1199.27 Q1772.66 1191.86 1776.65 1187.73 Q1780.66 1183.57 1787.75 1183.57 Q1790.71 1183.57 1793.36 1184.3 Q1796.04 1185.03 1798.28 1186.45 L1798.28 1190.8 Q1796.02 1188.88 1793.46 1187.91 Q1790.91 1186.94 1788.1 1186.94 Q1782.55 1186.94 1779.75 1190.04 Q1776.98 1193.13 1776.98 1199.27 Q1776.98 1205.39 1779.75 1208.49 Q1782.55 1211.59 1788.1 1211.59 Q1790.26 1211.59 1791.96 1211.22 Q1793.67 1210.84 1795.02 1210.05 Z" fill="#000000" fill-rule="nonzero" fill-opacity="1" /><path clip-path="url(#clip450)" d="M1142.81 1326.59 L1137.26 1341.64 L1148.38 1341.64 L1142.81 1326.59 M1140.51 1322.56 L1145.14 1322.56 L1156.67 1352.8 L1152.42 1352.8 L1149.66 1345.05 L1136.03 1345.05 L1133.27 1352.8 L1128.96 1352.8 L1140.51 1322.56 Z" fill="#000000" fill-rule="nonzero" fill-opacity="1" /><path clip-path="url(#clip450)" d="M1161.08 1322.56 L1167.18 1322.56 L1174.9 1343.14 L1182.66 1322.56 L1188.75 1322.56 L1188.75 1352.8 L1184.76 1352.8 L1184.76 1326.25 L1176.96 1346.99 L1172.85 1346.99 L1165.05 1326.25 L1165.05 1352.8 L1161.08 1352.8 L1161.08 1322.56 Z" fill="#000000" fill-rule="nonzero" fill-opacity="1" /><path clip-path="url(#clip450)" d="M1195.13 1322.56 L1218.89 1322.56 L1218.89 1325.68 L1199.77 1349.36 L1219.36 1349.36 L1219.36 1352.8 L1194.67 1352.8 L1194.67 1349.68 L1213.79 1326.01 L1195.13 1326.01 L1195.13 1322.56 Z" fill="#000000" fill-rule="nonzero" fill-opacity="1" /><path clip-path="url(#clip450)" d="M1225.29 1322.56 L1230.8 1322.56 L1244.21 1347.86 L1244.21 1322.56 L1248.18 1322.56 L1248.18 1352.8 L1242.67 1352.8 L1229.26 1327.5 L1229.26 1352.8 L1225.29 1352.8 L1225.29 1322.56 Z" fill="#000000" fill-rule="nonzero" fill-opacity="1" /><path clip-path="url(#clip450)" d="M999.08 657.065 L1024.66 657.065 L1024.66 660.508 L1013.93 660.508 L1013.93 687.305 L1009.81 687.305 L1009.81 660.508 L999.08 660.508 L999.08 657.065 Z" fill="#000000" fill-rule="nonzero" fill-opacity="1" /><path clip-path="url(#clip450)" d="M1348.93 515.653 L1348.93 526.732 L1355.5 526.732 Q1358.8 526.732 1360.38 525.375 Q1361.98 523.998 1361.98 521.183 Q1361.98 518.347 1360.38 517.01 Q1358.8 515.653 1355.5 515.653 L1348.93 515.653 M1348.93 503.217 L1348.93 512.331 L1354.99 512.331 Q1357.99 512.331 1359.45 511.217 Q1360.92 510.083 1360.92 507.774 Q1360.92 505.485 1359.45 504.351 Q1357.99 503.217 1354.99 503.217 L1348.93 503.217 M1344.84 499.855 L1355.29 499.855 Q1359.97 499.855 1362.5 501.799 Q1365.04 503.744 1365.04 507.329 Q1365.04 510.103 1363.74 511.744 Q1362.44 513.385 1359.93 513.79 Q1362.95 514.438 1364.61 516.504 Q1366.29 518.55 1366.29 521.628 Q1366.29 525.679 1363.54 527.887 Q1360.78 530.095 1355.7 530.095 L1344.84 530.095 L1344.84 499.855 Z" fill="#000000" fill-rule="nonzero" fill-opacity="1" /><path clip-path="url(#clip450)" d="M1377.39 515.653 L1377.39 526.732 L1383.95 526.732 Q1387.25 526.732 1388.83 525.375 Q1390.43 523.998 1390.43 521.183 Q1390.43 518.347 1388.83 517.01 Q1387.25 515.653 1383.95 515.653 L1377.39 515.653 M1377.39 503.217 L1377.39 512.331 L1383.45 512.331 Q1386.44 512.331 1387.9 511.217 Q1389.38 510.083 1389.38 507.774 Q1389.38 505.485 1387.9 504.351 Q1386.44 503.217 1383.45 503.217 L1377.39 503.217 M1373.3 499.855 L1383.75 499.855 Q1388.43 499.855 1390.96 501.799 Q1393.49 503.744 1393.49 507.329 Q1393.49 510.103 1392.2 511.744 Q1390.9 513.385 1388.39 513.79 Q1391.41 514.438 1393.07 516.504 Q1394.75 518.55 1394.75 521.628 Q1394.75 525.679 1391.99 527.887 Q1389.24 530.095 1384.16 530.095 L1373.3 530.095 L1373.3 499.855 Z" fill="#000000" fill-rule="nonzero" fill-opacity="1" /><path clip-path="url(#clip450)" d="M1395.34 499.855 L1399.73 499.855 L1408.12 512.291 L1416.44 499.855 L1420.84 499.855 L1410.14 515.694 L1410.14 530.095 L1406.03 530.095 L1406.03 515.694 L1395.34 499.855 Z" fill="#000000" fill-rule="nonzero" fill-opacity="1" /><path clip-path="url(#clip450)" d="M634.305 520.472 L640.402 520.472 L648.119 541.051 L655.876 520.472 L661.973 520.472 L661.973 550.712 L657.983 550.712 L657.983 524.158 L650.185 544.899 L646.073 544.899 L638.275 524.158 L638.275 550.712 L634.305 550.712 L634.305 520.472 Z" fill="#000000" fill-rule="nonzero" fill-opacity="1" /><path clip-path="url(#clip450)" d="M680.202 524.503 L674.652 539.552 L685.772 539.552 L680.202 524.503 M677.893 520.472 L682.531 520.472 L694.056 550.712 L689.803 550.712 L687.048 542.955 L673.417 542.955 L670.662 550.712 L666.348 550.712 L677.893 520.472 Z" fill="#000000" fill-rule="nonzero" fill-opacity="1" /><path clip-path="url(#clip450)" d="M1214.43 250.559 L1214.43 261.922 L1219.58 261.922 Q1222.43 261.922 1223.99 260.444 Q1225.55 258.965 1225.55 256.231 Q1225.55 253.517 1223.99 252.038 Q1222.43 250.559 1219.58 250.559 L1214.43 250.559 M1210.34 247.197 L1219.58 247.197 Q1224.66 247.197 1227.25 249.506 Q1229.87 251.795 1229.87 256.231 Q1229.87 260.707 1227.25 262.996 Q1224.66 265.284 1219.58 265.284 L1214.43 265.284 L1214.43 277.437 L1210.34 277.437 L1210.34 247.197 Z" fill="#000000" fill-rule="nonzero" fill-opacity="1" /><path clip-path="url(#clip450)" d="M1235.36 247.197 L1252.73 247.197 L1252.73 250.64 L1239.45 250.64 L1239.45 259.552 L1251.44 259.552 L1251.44 262.996 L1239.45 262.996 L1239.45 277.437 L1235.36 277.437 L1235.36 247.197 Z" fill="#000000" fill-rule="nonzero" fill-opacity="1" /><path clip-path="url(#clip450)" d="M1259.22 247.197 L1278.34 247.197 L1278.34 250.64 L1263.31 250.64 L1263.31 259.593 L1277.71 259.593 L1277.71 263.036 L1263.31 263.036 L1263.31 273.994 L1278.7 273.994 L1278.7 277.437 L1259.22 277.437 L1259.22 247.197 Z" fill="#000000" fill-rule="nonzero" fill-opacity="1" /><path clip-path="url(#clip450)" d="M798.662 261.523 L802.753 261.523 L802.753 289.656 Q802.753 295.125 800.667 297.596 Q798.601 300.067 794.003 300.067 L792.443 300.067 L792.443 296.624 L793.719 296.624 Q796.434 296.624 797.548 295.105 Q798.662 293.586 798.662 289.656 L798.662 261.523 Z" fill="#000000" fill-rule="nonzero" fill-opacity="1" /><path clip-path="url(#clip450)" d="M814.987 264.885 L814.987 276.248 L820.131 276.248 Q822.987 276.248 824.547 274.769 Q826.106 273.291 826.106 270.556 Q826.106 267.842 824.547 266.364 Q822.987 264.885 820.131 264.885 L814.987 264.885 M810.895 261.523 L820.131 261.523 Q825.215 261.523 827.808 263.832 Q830.421 266.121 830.421 270.556 Q830.421 275.033 827.808 277.321 Q825.215 279.61 820.131 279.61 L814.987 279.61 L814.987 291.763 L810.895 291.763 L810.895 261.523 Z" fill="#000000" fill-rule="nonzero" fill-opacity="1" /><path clip-path="url(#clip450)" d="M835.91 261.523 L842.006 261.523 L849.723 282.101 L857.481 261.523 L863.577 261.523 L863.577 291.763 L859.587 291.763 L859.587 265.209 L851.789 285.95 L847.677 285.95 L839.879 265.209 L839.879 291.763 L835.91 291.763 L835.91 261.523 Z" fill="#000000" fill-rule="nonzero" fill-opacity="1" /></svg>
