<?xml version="1.0" encoding="utf-8"?>
<svg xmlns="http://www.w3.org/2000/svg" xmlns:xlink="http://www.w3.org/1999/xlink" width="600" height="400" viewBox="0 0 2400 1600">
<defs>
  <clipPath id="clip900">
    <rect x="0" y="0" width="2400" height="1600"/>
  </clipPath>
</defs>
<path clip-path="url(#clip900)" d="M0 1600 L2400 1600 L2400 0 L0 0  Z" fill="#ffffff" fill-rule="evenodd" fill-opacity="1"/>
<defs>
  <clipPath id="clip901">
    <rect x="480" y="0" width="1681" height="1600"/>
  </clipPath>
</defs>
<path clip-path="url(#clip900)" d="M447.244 1552.76 L1952.76 1552.76 L1952.76 47.2441 L447.244 47.2441  Z" fill="#ffffff" fill-rule="evenodd" fill-opacity="1"/>
<defs>
  <clipPath id="clip902">
    <rect x="447" y="47" width="1507" height="1507"/>
  </clipPath>
</defs>
<polyline clip-path="url(#clip902)" style="stroke:#000000; stroke-linecap:round; stroke-linejoin:round; stroke-width:4; stroke-opacity:1; fill:none" points="915.678,421.58 662.317,262.317 "/>
<polyline clip-path="url(#clip902)" style="stroke:#000000; stroke-linecap:round; stroke-linejoin:round; stroke-width:4; stroke-opacity:1; fill:none" points="915.678,421.58 1176.6,577.527 "/>
<polyline clip-path="url(#clip902)" style="stroke:#000000; stroke-linecap:round; stroke-linejoin:round; stroke-width:4; stroke-opacity:1; fill:none" points="1502.35,1044.26 1567.76,1337.68 "/>
<polyline clip-path="url(#clip902)" style="stroke:#000000; stroke-linecap:round; stroke-linejoin:round; stroke-width:4; stroke-opacity:1; fill:none" points="1502.35,1044.26 1459.61,728.771 "/>
<polyline clip-path="url(#clip902)" style="stroke:#000000; stroke-linecap:round; stroke-linejoin:round; stroke-width:4; stroke-opacity:1; fill:none" points="1737.68,555.504 1459.61,728.771 "/>
<polyline clip-path="url(#clip902)" style="stroke:#000000; stroke-linecap:round; stroke-linejoin:round; stroke-width:4; stroke-opacity:1; fill:none" points="1176.6,577.527 1459.61,728.771 "/>
<path clip-path="url(#clip902)" d="M1007.66 421.58 L1007.37 414.272 L1006.5 407.01 L1005.06 399.84 L1003.05 392.808 L1000.48 385.957 L997.385 379.332 L993.77 372.974 L989.662 366.923 L985.085 361.218 L980.07 355.895 L974.648 350.986 L968.853 346.524 L962.722 342.537 L956.293 339.049 L949.608 336.083 L942.708 333.658 L935.637 331.788 L928.44 330.486 L921.162 329.76 L913.85 329.615 L906.549 330.051 L899.306 331.066 L892.166 332.653 L885.175 334.802 L878.377 337.5 L871.815 340.729 L865.53 344.47 L859.562 348.698 L853.949 353.387 L848.726 358.507 L843.926 364.025 L839.581 369.908 L835.716 376.117 L832.357 382.614 L829.524 389.357 L827.236 396.304 L825.508 403.411 L824.349 410.632 L823.768 417.923 L823.768 425.237 L824.349 432.527 L825.508 439.749 L827.236 446.856 L829.524 453.802 L832.357 460.545 L835.716 467.042 L839.581 473.252 L843.926 479.134 L848.726 484.653 L853.949 489.773 L859.562 494.462 L865.53 498.69 L871.815 502.43 L878.377 505.66 L885.175 508.358 L892.166 510.507 L899.306 512.094 L906.549 513.108 L913.85 513.545 L921.162 513.399 L928.44 512.673 L935.637 511.371 L942.708 509.502 L949.608 507.076 L956.293 504.11 L962.722 500.623 L968.853 496.635 L974.648 492.173 L980.07 487.265 L985.085 481.941 L989.662 476.236 L993.77 470.185 L997.385 463.827 L1000.48 457.202 L1003.05 450.352 L1005.06 443.319 L1006.5 436.15 L1007.37 428.888 L1007.66 421.58 L1007.66 421.58  Z" fill="#9e0142" fill-rule="evenodd" fill-opacity="1"/>
<polyline clip-path="url(#clip902)" style="stroke:#000000; stroke-linecap:round; stroke-linejoin:round; stroke-width:4; stroke-opacity:1; fill:none" points="1007.66,421.58 1007.37,414.272 1006.5,407.01 1005.06,399.84 1003.05,392.808 1000.48,385.957 997.385,379.332 993.77,372.974 989.662,366.923 985.085,361.218 980.07,355.895 974.648,350.986 968.853,346.524 962.722,342.537 956.293,339.049 949.608,336.083 942.708,333.658 935.637,331.788 928.44,330.486 921.162,329.76 913.85,329.615 906.549,330.051 899.306,331.066 892.166,332.653 885.175,334.802 878.377,337.5 871.815,340.729 865.53,344.47 859.562,348.698 853.949,353.387 848.726,358.507 843.926,364.025 839.581,369.908 835.716,376.117 832.357,382.614 829.524,389.357 827.236,396.304 825.508,403.411 824.349,410.632 823.768,417.923 823.768,425.237 824.349,432.527 825.508,439.749 827.236,446.856 829.524,453.802 832.357,460.545 835.716,467.042 839.581,473.252 843.926,479.134 848.726,484.653 853.949,489.773 859.562,494.462 865.53,498.69 871.815,502.43 878.377,505.66 885.175,508.358 892.166,510.507 899.306,512.094 906.549,513.108 913.85,513.545 921.162,513.399 928.44,512.673 935.637,511.371 942.708,509.502 949.608,507.076 956.293,504.11 962.722,500.623 968.853,496.635 974.648,492.173 980.07,487.265 985.085,481.941 989.662,476.236 993.77,470.185 997.385,463.827 1000.48,457.202 1003.05,450.352 1005.06,443.319 1006.5,436.15 1007.37,428.888 1007.66,421.58 "/>
<path clip-path="url(#clip902)" d="M754.3 262.317 L754.009 255.009 L753.139 247.747 L751.694 240.578 L749.684 233.545 L747.122 226.695 L744.024 220.07 L740.409 213.712 L736.301 207.661 L731.724 201.956 L726.709 196.632 L721.287 191.724 L715.492 187.262 L709.361 183.274 L702.932 179.787 L696.246 176.821 L689.346 174.395 L682.276 172.526 L675.079 171.224 L667.801 170.498 L660.488 170.352 L653.188 170.788 L645.944 171.803 L638.805 173.39 L631.814 175.539 L625.016 178.237 L618.454 181.466 L612.169 185.207 L606.201 189.435 L600.588 194.124 L595.365 199.244 L590.565 204.763 L586.219 210.645 L582.355 216.855 L578.995 223.351 L576.163 230.095 L573.875 237.041 L572.147 244.148 L570.988 251.37 L570.407 258.66 L570.407 265.974 L570.988 273.265 L572.147 280.486 L573.875 287.593 L576.163 294.54 L578.995 301.283 L582.355 307.78 L586.219 313.989 L590.565 319.872 L595.365 325.39 L600.588 330.51 L606.201 335.199 L612.169 339.427 L618.454 343.168 L625.016 346.397 L631.814 349.095 L638.805 351.244 L645.944 352.831 L653.188 353.846 L660.488 354.282 L667.801 354.137 L675.079 353.411 L682.276 352.109 L689.346 350.239 L696.246 347.814 L702.932 344.848 L709.361 341.36 L715.492 337.373 L721.287 332.911 L726.709 328.002 L731.724 322.679 L736.301 316.974 L740.409 310.923 L744.024 304.565 L747.122 297.94 L749.684 291.089 L751.694 284.057 L753.139 276.887 L754.009 269.625 L754.3 262.317 L754.3 262.317  Z" fill="#9e0142" fill-rule="evenodd" fill-opacity="1"/>
<polyline clip-path="url(#clip902)" style="stroke:#000000; stroke-linecap:round; stroke-linejoin:round; stroke-width:4; stroke-opacity:1; fill:none" points="754.3,262.317 754.009,255.009 753.139,247.747 751.694,240.578 749.684,233.545 747.122,226.695 744.024,220.07 740.409,213.712 736.301,207.661 731.724,201.956 726.709,196.632 721.287,191.724 715.492,187.262 709.361,183.274 702.932,179.787 696.246,176.821 689.346,174.395 682.276,172.526 675.079,171.224 667.801,170.498 660.488,170.352 653.188,170.788 645.944,171.803 638.805,173.39 631.814,175.539 625.016,178.237 618.454,181.466 612.169,185.207 606.201,189.435 600.588,194.124 595.365,199.244 590.565,204.763 586.219,210.645 582.355,216.855 578.995,223.351 576.163,230.095 573.875,237.041 572.147,244.148 570.988,251.37 570.407,258.66 570.407,265.974 570.988,273.265 572.147,280.486 573.875,287.593 576.163,294.54 578.995,301.283 582.355,307.78 586.219,313.989 590.565,319.872 595.365,325.39 600.588,330.51 606.201,335.199 612.169,339.427 618.454,343.168 625.016,346.397 631.814,349.095 638.805,351.244 645.944,352.831 653.188,353.846 660.488,354.282 667.801,354.137 675.079,353.411 682.276,352.109 689.346,350.239 696.246,347.814 702.932,344.848 709.361,341.36 715.492,337.373 721.287,332.911 726.709,328.002 731.724,322.679 736.301,316.974 740.409,310.923 744.024,304.565 747.122,297.94 749.684,291.089 751.694,284.057 753.139,276.887 754.009,269.625 754.3,262.317 "/>
<path clip-path="url(#clip902)" d="M1594.33 1044.26 L1594.04 1036.95 L1593.17 1029.69 L1591.73 1022.52 L1589.72 1015.49 L1587.15 1008.64 L1584.06 1002.02 L1580.44 995.657 L1576.33 989.607 L1571.76 983.901 L1566.74 978.578 L1561.32 973.669 L1555.52 969.207 L1549.39 965.22 L1542.96 961.732 L1536.28 958.766 L1529.38 956.341 L1522.31 954.471 L1515.11 953.17 L1507.83 952.444 L1500.52 952.298 L1493.22 952.734 L1485.98 953.749 L1478.84 955.336 L1471.85 957.485 L1465.05 960.183 L1458.49 963.412 L1452.2 967.153 L1446.23 971.381 L1440.62 976.07 L1435.4 981.19 L1430.6 986.708 L1426.25 992.591 L1422.39 998.8 L1419.03 1005.3 L1416.2 1012.04 L1413.91 1018.99 L1412.18 1026.09 L1411.02 1033.32 L1410.44 1040.61 L1410.44 1047.92 L1411.02 1055.21 L1412.18 1062.43 L1413.91 1069.54 L1416.2 1076.49 L1419.03 1083.23 L1422.39 1089.73 L1426.25 1095.93 L1430.6 1101.82 L1435.4 1107.34 L1440.62 1112.46 L1446.23 1117.15 L1452.2 1121.37 L1458.49 1125.11 L1465.05 1128.34 L1471.85 1131.04 L1478.84 1133.19 L1485.98 1134.78 L1493.22 1135.79 L1500.52 1136.23 L1507.83 1136.08 L1515.11 1135.36 L1522.31 1134.05 L1529.38 1132.18 L1536.28 1129.76 L1542.96 1126.79 L1549.39 1123.31 L1555.52 1119.32 L1561.32 1114.86 L1566.74 1109.95 L1571.76 1104.62 L1576.33 1098.92 L1580.44 1092.87 L1584.06 1086.51 L1587.15 1079.89 L1589.72 1073.03 L1591.73 1066 L1593.17 1058.83 L1594.04 1051.57 L1594.33 1044.26 L1594.33 1044.26  Z" fill="#5e4fa1" fill-rule="evenodd" fill-opacity="1"/>
<polyline clip-path="url(#clip902)" style="stroke:#000000; stroke-linecap:round; stroke-linejoin:round; stroke-width:4; stroke-opacity:1; fill:none" points="1594.33,1044.26 1594.04,1036.95 1593.17,1029.69 1591.73,1022.52 1589.72,1015.49 1587.15,1008.64 1584.06,1002.02 1580.44,995.657 1576.33,989.607 1571.76,983.901 1566.74,978.578 1561.32,973.669 1555.52,969.207 1549.39,965.22 1542.96,961.732 1536.28,958.766 1529.38,956.341 1522.31,954.471 1515.11,953.17 1507.83,952.444 1500.52,952.298 1493.22,952.734 1485.98,953.749 1478.84,955.336 1471.85,957.485 1465.05,960.183 1458.49,963.412 1452.2,967.153 1446.23,971.381 1440.62,976.07 1435.4,981.19 1430.6,986.708 1426.25,992.591 1422.39,998.8 1419.03,1005.3 1416.2,1012.04 1413.91,1018.99 1412.18,1026.09 1411.02,1033.32 1410.44,1040.61 1410.44,1047.92 1411.02,1055.21 1412.18,1062.43 1413.91,1069.54 1416.2,1076.49 1419.03,1083.23 1422.39,1089.73 1426.25,1095.93 1430.6,1101.82 1435.4,1107.34 1440.62,1112.46 1446.23,1117.15 1452.2,1121.37 1458.49,1125.11 1465.05,1128.34 1471.85,1131.04 1478.84,1133.19 1485.98,1134.78 1493.22,1135.79 1500.52,1136.23 1507.83,1136.08 1515.11,1135.36 1522.31,1134.05 1529.38,1132.18 1536.28,1129.76 1542.96,1126.79 1549.39,1123.31 1555.52,1119.32 1561.32,1114.86 1566.74,1109.95 1571.76,1104.62 1576.33,1098.92 1580.44,1092.87 1584.06,1086.51 1587.15,1079.89 1589.72,1073.03 1591.73,1066 1593.17,1058.83 1594.04,1051.57 1594.33,1044.26 "/>
<path clip-path="url(#clip902)" d="M1829.67 555.504 L1829.37 548.196 L1828.5 540.934 L1827.06 533.765 L1825.05 526.732 L1822.49 519.882 L1819.39 513.257 L1815.77 506.899 L1811.67 500.848 L1807.09 495.143 L1802.07 489.819 L1796.65 484.911 L1790.86 480.449 L1784.73 476.461 L1778.3 472.974 L1771.61 470.008 L1764.71 467.582 L1757.64 465.713 L1750.44 464.411 L1743.17 463.685 L1735.85 463.539 L1728.55 463.975 L1721.31 464.99 L1714.17 466.577 L1707.18 468.726 L1700.38 471.424 L1693.82 474.653 L1687.53 478.394 L1681.57 482.622 L1675.95 487.311 L1670.73 492.431 L1665.93 497.95 L1661.58 503.832 L1657.72 510.042 L1654.36 516.538 L1651.53 523.282 L1649.24 530.228 L1647.51 537.335 L1646.35 544.557 L1645.77 551.847 L1645.77 559.161 L1646.35 566.452 L1647.51 573.673 L1649.24 580.78 L1651.53 587.727 L1654.36 594.47 L1657.72 600.967 L1661.58 607.176 L1665.93 613.059 L1670.73 618.577 L1675.95 623.697 L1681.57 628.386 L1687.53 632.614 L1693.82 636.355 L1700.38 639.584 L1707.18 642.282 L1714.17 644.431 L1721.31 646.018 L1728.55 647.033 L1735.85 647.469 L1743.17 647.324 L1750.44 646.598 L1757.64 645.296 L1764.71 643.426 L1771.61 641.001 L1778.3 638.035 L1784.73 634.547 L1790.86 630.56 L1796.65 626.098 L1802.07 621.189 L1807.09 615.866 L1811.67 610.161 L1815.77 604.11 L1819.39 597.752 L1822.49 591.127 L1825.05 584.276 L1827.06 577.244 L1828.5 570.074 L1829.37 562.812 L1829.67 555.504 L1829.67 555.504  Z" fill="#5e4fa1" fill-rule="evenodd" fill-opacity="1"/>
<polyline clip-path="url(#clip902)" style="stroke:#000000; stroke-linecap:round; stroke-linejoin:round; stroke-width:4; stroke-opacity:1; fill:none" points="1829.67,555.504 1829.37,548.196 1828.5,540.934 1827.06,533.765 1825.05,526.732 1822.49,519.882 1819.39,513.257 1815.77,506.899 1811.67,500.848 1807.09,495.143 1802.07,489.819 1796.65,484.911 1790.86,480.449 1784.73,476.461 1778.3,472.974 1771.61,470.008 1764.71,467.582 1757.64,465.713 1750.44,464.411 1743.17,463.685 1735.85,463.539 1728.55,463.975 1721.31,464.99 1714.17,466.577 1707.18,468.726 1700.38,471.424 1693.82,474.653 1687.53,478.394 1681.57,482.622 1675.95,487.311 1670.73,492.431 1665.93,497.95 1661.58,503.832 1657.72,510.042 1654.36,516.538 1651.53,523.282 1649.24,530.228 1647.51,537.335 1646.35,544.557 1645.77,551.847 1645.77,559.161 1646.35,566.452 1647.51,573.673 1649.24,580.78 1651.53,587.727 1654.36,594.47 1657.72,600.967 1661.58,607.176 1665.93,613.059 1670.73,618.577 1675.95,623.697 1681.57,628.386 1687.53,632.614 1693.82,636.355 1700.38,639.584 1707.18,642.282 1714.17,644.431 1721.31,646.018 1728.55,647.033 1735.85,647.469 1743.17,647.324 1750.44,646.598 1757.64,645.296 1764.71,643.426 1771.61,641.001 1778.3,638.035 1784.73,634.547 1790.86,630.56 1796.65,626.098 1802.07,621.189 1807.09,615.866 1811.67,610.161 1815.77,604.11 1819.39,597.752 1822.49,591.127 1825.05,584.276 1827.06,577.244 1828.5,570.074 1829.37,562.812 1829.67,555.504 1829.67,555.504 "/>
<path clip-path="url(#clip902)" d="M1268.59 577.527 L1268.29 570.219 L1267.42 562.957 L1265.98 555.787 L1263.97 548.755 L1261.41 541.905 L1258.31 535.279 L1254.69 528.921 L1250.59 522.871 L1246.01 517.165 L1240.99 511.842 L1235.57 506.933 L1229.78 502.471 L1223.65 498.484 L1217.22 494.996 L1210.53 492.03 L1203.63 489.605 L1196.56 487.735 L1189.36 486.434 L1182.09 485.708 L1174.77 485.562 L1167.47 485.998 L1160.23 487.013 L1153.09 488.6 L1146.1 490.749 L1139.3 493.447 L1132.74 496.676 L1126.45 500.417 L1120.49 504.645 L1114.87 509.334 L1109.65 514.454 L1104.85 519.972 L1100.5 525.855 L1096.64 532.064 L1093.28 538.561 L1090.45 545.304 L1088.16 552.251 L1086.43 559.358 L1085.27 566.579 L1084.69 573.87 L1084.69 581.184 L1085.27 588.475 L1086.43 595.696 L1088.16 602.803 L1090.45 609.75 L1093.28 616.493 L1096.64 622.989 L1100.5 629.199 L1104.85 635.081 L1109.65 640.6 L1114.87 645.72 L1120.49 650.409 L1126.45 654.637 L1132.74 658.378 L1139.3 661.607 L1146.1 664.305 L1153.09 666.454 L1160.23 668.041 L1167.47 669.056 L1174.77 669.492 L1182.09 669.346 L1189.36 668.62 L1196.56 667.319 L1203.63 665.449 L1210.53 663.024 L1217.22 660.058 L1223.65 656.57 L1229.78 652.582 L1235.57 648.12 L1240.99 643.212 L1246.01 637.889 L1250.59 632.183 L1254.69 626.133 L1258.31 619.774 L1261.41 613.149 L1263.97 606.299 L1265.98 599.267 L1267.42 592.097 L1268.29 584.835 L1268.59 577.527 L1268.59 577.527  Z" fill="#5e4fa1" fill-rule="evenodd" fill-opacity="1"/>
<polyline clip-path="url(#clip902)" style="stroke:#000000; stroke-linecap:round; stroke-linejoin:round; stroke-width:4; stroke-opacity:1; fill:none" points="1268.59,577.527 1268.29,570.219 1267.42,562.957 1265.98,555.787 1263.97,548.755 1261.41,541.905 1258.31,535.279 1254.69,528.921 1250.59,522.871 1246.01,517.165 1240.99,511.842 1235.57,506.933 1229.78,502.471 1223.65,498.484 1217.22,494.996 1210.53,492.03 1203.63,489.605 1196.56,487.735 1189.36,486.434 1182.09,485.708 1174.77,485.562 1167.47,485.998 1160.23,487.013 1153.09,488.6 1146.1,490.749 1139.3,493.447 1132.74,496.676 1126.45,500.417 1120.49,504.645 1114.87,509.334 1109.65,514.454 1104.85,519.972 1100.5,525.855 1096.64,532.064 1093.28,538.561 1090.45,545.304 1088.16,552.251 1086.43,559.358 1085.27,566.579 1084.69,573.87 1084.69,581.184 1085.27,588.475 1086.43,595.696 1088.16,602.803 1090.45,609.75 1093.28,616.493 1096.64,622.989 1100.5,629.199 1104.85,635.081 1109.65,640.6 1114.87,645.72 1120.49,650.409 1126.45,654.637 1132.74,658.378 1139.3,661.607 1146.1,664.305 1153.09,666.454 1160.23,668.041 1167.47,669.056 1174.77,669.492 1182.09,669.346 1189.36,668.62 1196.56,667.319 1203.63,665.449 1210.53,663.024 1217.22,660.058 1223.65,656.57 1229.78,652.582 1235.57,648.12 1240.99,643.212 1246.01,637.889 1250.59,632.183 1254.69,626.133 1258.31,619.774 1261.41,613.149 1263.97,606.299 1265.98,599.267 1267.42,592.097 1268.29,584.835 1268.59,577.527 1268.59,577.527 "/>
<path clip-path="url(#clip902)" d="M1659.74 1337.68 L1659.45 1330.37 L1658.58 1323.11 L1657.13 1315.94 L1655.12 1308.91 L1652.56 1302.06 L1649.46 1295.44 L1645.85 1289.08 L1641.74 1283.03 L1637.16 1277.32 L1632.15 1272 L1626.73 1267.09 L1620.93 1262.63 L1614.8 1258.64 L1608.37 1255.15 L1601.69 1252.19 L1594.79 1249.76 L1587.71 1247.89 L1580.52 1246.59 L1573.24 1245.86 L1565.93 1245.72 L1558.63 1246.15 L1551.38 1247.17 L1544.24 1248.76 L1537.25 1250.9 L1530.45 1253.6 L1523.89 1256.83 L1517.61 1260.57 L1511.64 1264.8 L1506.03 1269.49 L1500.8 1274.61 L1496 1280.13 L1491.66 1286.01 L1487.79 1292.22 L1484.43 1298.72 L1481.6 1305.46 L1479.31 1312.41 L1477.59 1319.51 L1476.43 1326.74 L1475.85 1334.03 L1475.85 1341.34 L1476.43 1348.63 L1477.59 1355.85 L1479.31 1362.96 L1481.6 1369.91 L1484.43 1376.65 L1487.79 1383.15 L1491.66 1389.35 L1496 1395.24 L1500.8 1400.76 L1506.03 1405.88 L1511.64 1410.56 L1517.61 1414.79 L1523.89 1418.53 L1530.45 1421.76 L1537.25 1424.46 L1544.24 1426.61 L1551.38 1428.2 L1558.63 1429.21 L1565.93 1429.65 L1573.24 1429.5 L1580.52 1428.78 L1587.71 1427.47 L1594.79 1425.6 L1601.69 1423.18 L1608.37 1420.21 L1614.8 1416.73 L1620.93 1412.74 L1626.73 1408.28 L1632.15 1403.37 L1637.16 1398.04 L1641.74 1392.34 L1645.85 1386.29 L1649.46 1379.93 L1652.56 1373.31 L1655.12 1366.45 L1657.13 1359.42 L1658.58 1352.25 L1659.45 1344.99 L1659.74 1337.68 L1659.74 1337.68  Z" fill="#5e4fa1" fill-rule="evenodd" fill-opacity="1"/>
<polyline clip-path="url(#clip902)" style="stroke:#000000; stroke-linecap:round; stroke-linejoin:round; stroke-width:4; stroke-opacity:1; fill:none" points="1659.74,1337.68 1659.45,1330.37 1658.58,1323.11 1657.13,1315.94 1655.12,1308.91 1652.56,1302.06 1649.46,1295.44 1645.85,1289.08 1641.74,1283.03 1637.16,1277.32 1632.15,1272 1626.73,1267.09 1620.93,1262.63 1614.8,1258.64 1608.37,1255.15 1601.69,1252.19 1594.79,1249.76 1587.71,1247.89 1580.52,1246.59 1573.24,1245.86 1565.93,1245.72 1558.63,1246.15 1551.38,1247.17 1544.24,1248.76 1537.25,1250.9 1530.45,1253.6 1523.89,1256.83 1517.61,1260.57 1511.64,1264.8 1506.03,1269.49 1500.8,1274.61 1496,1280.13 1491.66,1286.01 1487.79,1292.22 1484.43,1298.72 1481.6,1305.46 1479.31,1312.41 1477.59,1319.51 1476.43,1326.74 1475.85,1334.03 1475.85,1341.34 1476.43,1348.63 1477.59,1355.85 1479.31,1362.96 1481.6,1369.91 1484.43,1376.65 1487.79,1383.15 1491.66,1389.35 1496,1395.24 1500.8,1400.76 1506.03,1405.88 1511.64,1410.56 1517.61,1414.79 1523.89,1418.53 1530.45,1421.76 1537.25,1424.46 1544.24,1426.61 1551.38,1428.2 1558.63,1429.21 1565.93,1429.65 1573.24,1429.5 1580.52,1428.78 1587.71,1427.47 1594.79,1425.6 1601.69,1423.18 1608.37,1420.21 1614.8,1416.73 1620.93,1412.74 1626.73,1408.28 1632.15,1403.37 1637.16,1398.04 1641.74,1392.34 1645.85,1386.29 1649.46,1379.93 1652.56,1373.31 1655.12,1366.45 1657.13,1359.42 1658.58,1352.25 1659.45,1344.99 1659.74,1337.68 "/>
<path clip-path="url(#clip902)" d="M1551.59 728.771 L1551.3 721.463 L1550.43 714.201 L1548.98 707.031 L1546.98 699.999 L1544.41 693.149 L1541.31 686.523 L1537.7 680.165 L1533.59 674.115 L1529.01 668.409 L1524 663.086 L1518.58 658.178 L1512.78 653.716 L1506.65 649.728 L1500.22 646.24 L1493.54 643.274 L1486.64 640.849 L1479.57 638.979 L1472.37 637.678 L1465.09 636.952 L1457.78 636.806 L1450.48 637.242 L1443.23 638.257 L1436.1 639.844 L1429.1 641.993 L1422.31 644.691 L1415.74 647.92 L1409.46 651.661 L1403.49 655.889 L1397.88 660.578 L1392.66 665.698 L1387.86 671.217 L1383.51 677.099 L1379.65 683.309 L1376.29 689.805 L1373.45 696.548 L1371.17 703.495 L1369.44 710.602 L1368.28 717.823 L1367.7 725.114 L1367.7 732.428 L1368.28 739.719 L1369.44 746.94 L1371.17 754.047 L1373.45 760.994 L1376.29 767.737 L1379.65 774.234 L1383.51 780.443 L1387.86 786.325 L1392.66 791.844 L1397.88 796.964 L1403.49 801.653 L1409.46 805.881 L1415.74 809.622 L1422.31 812.851 L1429.1 815.549 L1436.1 817.698 L1443.23 819.285 L1450.48 820.3 L1457.78 820.736 L1465.09 820.59 L1472.37 819.864 L1479.57 818.563 L1486.64 816.693 L1493.54 814.268 L1500.22 811.302 L1506.65 807.814 L1512.78 803.826 L1518.58 799.364 L1524 794.456 L1529.01 789.133 L1533.59 783.427 L1537.7 777.377 L1541.31 771.019 L1544.41 764.393 L1546.98 757.543 L1548.98 750.511 L1550.43 743.341 L1551.3 736.079 L1551.59 728.771 L1551.59 728.771  Z" fill="#5e4fa1" fill-rule="evenodd" fill-opacity="1"/>
<polyline clip-path="url(#clip902)" style="stroke:#000000; stroke-linecap:round; stroke-linejoin:round; stroke-width:4; stroke-opacity:1; fill:none" points="1551.59,728.771 1551.3,721.463 1550.43,714.201 1548.98,707.031 1546.98,699.999 1544.41,693.149 1541.31,686.523 1537.7,680.165 1533.59,674.115 1529.01,668.409 1524,663.086 1518.58,658.178 1512.78,653.716 1506.65,649.728 1500.22,646.24 1493.54,643.274 1486.64,640.849 1479.57,638.979 1472.37,637.678 1465.09,636.952 1457.78,636.806 1450.48,637.242 1443.23,638.257 1436.1,639.844 1429.1,641.993 1422.31,644.691 1415.74,647.92 1409.46,651.661 1403.49,655.889 1397.88,660.578 1392.66,665.698 1387.86,671.217 1383.51,677.099 1379.65,683.309 1376.29,689.805 1373.45,696.548 1371.17,703.495 1369.44,710.602 1368.28,717.823 1367.7,725.114 1367.7,732.428 1368.28,739.719 1369.44,746.94 1371.17,754.047 1373.45,760.994 1376.29,767.737 1379.65,774.234 1383.51,780.443 1387.86,786.325 1392.66,791.844 1397.88,796.964 1403.49,801.653 1409.46,805.881 1415.74,809.622 1422.31,812.851 1429.1,815.549 1436.1,817.698 1443.23,819.285 1450.48,820.3 1457.78,820.736 1465.09,820.59 1472.37,819.864 1479.57,818.563 1486.64,816.693 1493.54,814.268 1500.22,811.302 1506.65,807.814 1512.78,803.826 1518.58,799.364 1524,794.456 1529.01,789.133 1533.59,783.427 1537.7,777.377 1541.31,771.019 1544.41,764.393 1546.98,757.543 1548.98,750.511 1550.43,743.341 1551.3,736.079 1551.59,728.771 1551.59,728.771 "/>
<circle clip-path="url(#clip902)" style="fill:#5e4fa1; stroke:none; fill-opacity:0" cx="915.678" cy="421.58" r="2"/>
<circle clip-path="url(#clip902)" style="fill:#5e4fa1; stroke:none; fill-opacity:0" cx="662.317" cy="262.317" r="2"/>
<circle clip-path="url(#clip902)" style="fill:#5e4fa1; stroke:none; fill-opacity:0" cx="1502.35" cy="1044.26" r="2"/>
<circle clip-path="url(#clip902)" style="fill:#5e4fa1; stroke:none; fill-opacity:0" cx="1737.68" cy="555.504" r="2"/>
<circle clip-path="url(#clip902)" style="fill:#5e4fa1; stroke:none; fill-opacity:0" cx="1176.6" cy="577.527" r="2"/>
<circle clip-path="url(#clip902)" style="fill:#5e4fa1; stroke:none; fill-opacity:0" cx="1567.76" cy="1337.68" r="2"/>
<circle clip-path="url(#clip902)" style="fill:#5e4fa1; stroke:none; fill-opacity:0" cx="1459.61" cy="728.771" r="2"/>
<path clip-path="url(#clip900)" d="M875.574 432.386 L875.574 424.263 L868.89 424.263 L868.89 420.901 L879.625 420.901 L879.625 433.884 Q877.256 435.565 874.4 436.436 Q871.544 437.287 868.303 437.287 Q861.214 437.287 857.204 433.155 Q853.213 429.003 853.213 421.61 Q853.213 414.197 857.204 410.065 Q861.214 405.913 868.303 405.913 Q871.26 405.913 873.914 406.642 Q876.587 407.371 878.835 408.789 L878.835 413.144 Q876.567 411.22 874.015 410.247 Q871.463 409.275 868.647 409.275 Q863.098 409.275 860.303 412.374 Q857.528 415.473 857.528 421.61 Q857.528 427.727 860.303 430.826 Q863.098 433.925 868.647 433.925 Q870.815 433.925 872.516 433.56 Q874.217 433.175 875.574 432.386 Z" fill="#000000" fill-rule="nonzero" fill-opacity="1" /><path clip-path="url(#clip900)" d="M899.373 409.235 Q894.917 409.235 892.284 412.556 Q889.672 415.878 889.672 421.61 Q889.672 427.322 892.284 430.644 Q894.917 433.965 899.373 433.965 Q903.829 433.965 906.422 430.644 Q909.035 427.322 909.035 421.61 Q909.035 415.878 906.422 412.556 Q903.829 409.235 899.373 409.235 M899.373 405.913 Q905.733 405.913 909.541 410.187 Q913.349 414.44 913.349 421.61 Q913.349 428.76 909.541 433.034 Q905.733 437.287 899.373 437.287 Q892.993 437.287 889.165 433.034 Q885.357 428.78 885.357 421.61 Q885.357 414.44 889.165 410.187 Q892.993 405.913 899.373 405.913 Z" fill="#000000" fill-rule="nonzero" fill-opacity="1" /><path clip-path="url(#clip900)" d="M932.024 409.235 Q927.568 409.235 924.935 412.556 Q922.322 415.878 922.322 421.61 Q922.322 427.322 924.935 430.644 Q927.568 433.965 932.024 433.965 Q936.48 433.965 939.072 430.644 Q941.685 427.322 941.685 421.61 Q941.685 415.878 939.072 412.556 Q936.48 409.235 932.024 409.235 M932.024 405.913 Q938.384 405.913 942.192 410.187 Q945.999 414.44 945.999 421.61 Q945.999 428.76 942.192 433.034 Q938.384 437.287 932.024 437.287 Q925.644 437.287 921.815 433.034 Q918.008 428.78 918.008 421.61 Q918.008 414.44 921.815 410.187 Q925.644 405.913 932.024 405.913 Z" fill="#000000" fill-rule="nonzero" fill-opacity="1" /><path clip-path="url(#clip900)" d="M973.019 432.386 L973.019 424.263 L966.335 424.263 L966.335 420.901 L977.07 420.901 L977.07 433.884 Q974.7 435.565 971.844 436.436 Q968.988 437.287 965.748 437.287 Q958.658 437.287 954.648 433.155 Q950.658 429.003 950.658 421.61 Q950.658 414.197 954.648 410.065 Q958.658 405.913 965.748 405.913 Q968.705 405.913 971.358 406.642 Q974.032 407.371 976.28 408.789 L976.28 413.144 Q974.011 411.22 971.459 410.247 Q968.907 409.275 966.092 409.275 Q960.542 409.275 957.747 412.374 Q954.972 415.473 954.972 421.61 Q954.972 427.727 957.747 430.826 Q960.542 433.925 966.092 433.925 Q968.259 433.925 969.96 433.56 Q971.662 433.175 973.019 432.386 Z" fill="#000000" fill-rule="nonzero" fill-opacity="1" /><path clip-path="url(#clip900)" d="M614.689 251.228 L609.139 266.277 L620.259 266.277 L614.689 251.228 M612.38 247.197 L617.018 247.197 L628.543 277.437 L624.289 277.437 L621.535 269.68 L607.903 269.68 L605.149 277.437 L600.835 277.437 L612.38 247.197 Z" fill="#000000" fill-rule="nonzero" fill-opacity="1" /><path clip-path="url(#clip900)" d="M632.958 247.197 L639.055 247.197 L646.772 267.776 L654.529 247.197 L660.626 247.197 L660.626 277.437 L656.636 277.437 L656.636 250.884 L648.838 271.624 L644.726 271.624 L636.928 250.884 L636.928 277.437 L632.958 277.437 L632.958 247.197 Z" fill="#000000" fill-rule="nonzero" fill-opacity="1" /><path clip-path="url(#clip900)" d="M667.006 247.197 L690.765 247.197 L690.765 250.316 L671.644 273.994 L691.231 273.994 L691.231 277.437 L666.54 277.437 L666.54 274.318 L685.661 250.64 L667.006 250.64 L667.006 247.197 Z" fill="#000000" fill-rule="nonzero" fill-opacity="1" /><path clip-path="url(#clip900)" d="M697.165 247.197 L702.674 247.197 L716.083 272.495 L716.083 247.197 L720.053 247.197 L720.053 277.437 L714.543 277.437 L701.135 252.139 L701.135 277.437 L697.165 277.437 L697.165 247.197 Z" fill="#000000" fill-rule="nonzero" fill-opacity="1" /><path clip-path="url(#clip900)" d="M1496.15 1029.14 L1521.73 1029.14 L1521.73 1032.59 L1511 1032.59 L1511 1059.38 L1506.89 1059.38 L1506.89 1032.59 L1496.15 1032.59 L1496.15 1029.14 Z" fill="#000000" fill-rule="nonzero" fill-opacity="1" /><path clip-path="url(#clip900)" d="M1712.45 556.183 L1712.45 567.262 L1719.01 567.262 Q1722.31 567.262 1723.89 565.905 Q1725.49 564.528 1725.49 561.712 Q1725.49 558.877 1723.89 557.54 Q1722.31 556.183 1719.01 556.183 L1712.45 556.183 M1712.45 543.746 L1712.45 552.861 L1718.5 552.861 Q1721.5 552.861 1722.96 551.747 Q1724.44 550.613 1724.44 548.304 Q1724.44 546.015 1722.96 544.881 Q1721.5 543.746 1718.5 543.746 L1712.45 543.746 M1708.35 540.384 L1718.81 540.384 Q1723.48 540.384 1726.02 542.329 Q1728.55 544.273 1728.55 547.858 Q1728.55 550.633 1727.25 552.274 Q1725.96 553.914 1723.44 554.319 Q1726.46 554.967 1728.12 557.033 Q1729.8 559.079 1729.8 562.158 Q1729.8 566.209 1727.05 568.416 Q1724.29 570.624 1719.21 570.624 L1708.35 570.624 L1708.35 540.384 Z" fill="#000000" fill-rule="nonzero" fill-opacity="1" /><path clip-path="url(#clip900)" d="M1740.9 556.183 L1740.9 567.262 L1747.47 567.262 Q1750.77 567.262 1752.35 565.905 Q1753.95 564.528 1753.95 561.712 Q1753.95 558.877 1752.35 557.54 Q1750.77 556.183 1747.47 556.183 L1740.9 556.183 M1740.9 543.746 L1740.9 552.861 L1746.96 552.861 Q1749.96 552.861 1751.42 551.747 Q1752.89 550.613 1752.89 548.304 Q1752.89 546.015 1751.42 544.881 Q1749.96 543.746 1746.96 543.746 L1740.9 543.746 M1736.81 540.384 L1747.26 540.384 Q1751.94 540.384 1754.47 542.329 Q1757.01 544.273 1757.01 547.858 Q1757.01 550.633 1755.71 552.274 Q1754.41 553.914 1751.9 554.319 Q1754.92 554.967 1756.58 557.033 Q1758.26 559.079 1758.26 562.158 Q1758.26 566.209 1755.51 568.416 Q1752.75 570.624 1747.67 570.624 L1736.81 570.624 L1736.81 540.384 Z" fill="#000000" fill-rule="nonzero" fill-opacity="1" /><path clip-path="url(#clip900)" d="M1758.85 540.384 L1763.24 540.384 L1771.63 552.82 L1779.95 540.384 L1784.35 540.384 L1773.65 556.223 L1773.65 570.624 L1769.54 570.624 L1769.54 556.223 L1758.85 540.384 Z" fill="#000000" fill-rule="nonzero" fill-opacity="1" /><path clip-path="url(#clip900)" d="M1148.59 562.407 L1154.69 562.407 L1162.4 582.986 L1170.16 562.407 L1176.26 562.407 L1176.26 592.647 L1172.27 592.647 L1172.27 566.093 L1164.47 586.834 L1160.36 586.834 L1152.56 566.093 L1152.56 592.647 L1148.59 592.647 L1148.59 562.407 Z" fill="#000000" fill-rule="nonzero" fill-opacity="1" /><path clip-path="url(#clip900)" d="M1194.49 566.438 L1188.94 581.487 L1200.06 581.487 L1194.49 566.438 M1192.18 562.407 L1196.82 562.407 L1208.34 592.647 L1204.09 592.647 L1201.33 584.889 L1187.7 584.889 L1184.95 592.647 L1180.63 592.647 L1192.18 562.407 Z" fill="#000000" fill-rule="nonzero" fill-opacity="1" /><path clip-path="url(#clip900)" d="M1544.97 1325.93 L1544.97 1337.29 L1550.11 1337.29 Q1552.97 1337.29 1554.53 1335.81 Q1556.09 1334.33 1556.09 1331.6 Q1556.09 1328.88 1554.53 1327.4 Q1552.97 1325.93 1550.11 1325.93 L1544.97 1325.93 M1540.88 1322.56 L1550.11 1322.56 Q1555.2 1322.56 1557.79 1324.87 Q1560.4 1327.16 1560.4 1331.6 Q1560.4 1336.07 1557.79 1338.36 Q1555.2 1340.65 1550.11 1340.65 L1544.97 1340.65 L1544.97 1352.8 L1540.88 1352.8 L1540.88 1322.56 Z" fill="#000000" fill-rule="nonzero" fill-opacity="1" /><path clip-path="url(#clip900)" d="M1565.89 1322.56 L1583.27 1322.56 L1583.27 1326.01 L1569.98 1326.01 L1569.98 1334.92 L1581.97 1334.92 L1581.97 1338.36 L1569.98 1338.36 L1569.98 1352.8 L1565.89 1352.8 L1565.89 1322.56 Z" fill="#000000" fill-rule="nonzero" fill-opacity="1" /><path clip-path="url(#clip900)" d="M1589.75 1322.56 L1608.87 1322.56 L1608.87 1326.01 L1593.84 1326.01 L1593.84 1334.96 L1608.24 1334.96 L1608.24 1338.4 L1593.84 1338.4 L1593.84 1349.36 L1609.24 1349.36 L1609.24 1352.8 L1589.75 1352.8 L1589.75 1322.56 Z" fill="#000000" fill-rule="nonzero" fill-opacity="1" /><path clip-path="url(#clip900)" d="M1433.75 713.651 L1437.84 713.651 L1437.84 741.785 Q1437.84 747.253 1435.76 749.724 Q1433.69 752.195 1429.09 752.195 L1427.53 752.195 L1427.53 748.752 L1428.81 748.752 Q1431.52 748.752 1432.64 747.233 Q1433.75 745.714 1433.75 741.785 L1433.75 713.651 Z" fill="#000000" fill-rule="nonzero" fill-opacity="1" /><path clip-path="url(#clip900)" d="M1450.08 717.013 L1450.08 728.376 L1455.22 728.376 Q1458.08 728.376 1459.64 726.897 Q1461.2 725.419 1461.2 722.685 Q1461.2 719.97 1459.64 718.492 Q1458.08 717.013 1455.22 717.013 L1450.08 717.013 M1445.99 713.651 L1455.22 713.651 Q1460.31 713.651 1462.9 715.96 Q1465.51 718.249 1465.51 722.685 Q1465.51 727.161 1462.9 729.45 Q1460.31 731.738 1455.22 731.738 L1450.08 731.738 L1450.08 743.891 L1445.99 743.891 L1445.99 713.651 Z" fill="#000000" fill-rule="nonzero" fill-opacity="1" /><path clip-path="url(#clip900)" d="M1471 713.651 L1477.1 713.651 L1484.81 734.23 L1492.57 713.651 L1498.67 713.651 L1498.67 743.891 L1494.68 743.891 L1494.68 717.337 L1486.88 738.078 L1482.77 738.078 L1474.97 717.337 L1474.97 743.891 L1471 743.891 L1471 713.651 Z" fill="#000000" fill-rule="nonzero" fill-opacity="1" /></svg>
