<?xml version="1.0" encoding="utf-8"?>
<svg xmlns="http://www.w3.org/2000/svg" xmlns:xlink="http://www.w3.org/1999/xlink" width="600" height="400" viewBox="0 0 2400 1600">
<defs>
  <clipPath id="clip500">
    <rect x="0" y="0" width="2400" height="1600"/>
  </clipPath>
</defs>
<path clip-path="url(#clip500)" d="M0 1600 L2400 1600 L2400 0 L0 0  Z" fill="#ffffff" fill-rule="evenodd" fill-opacity="1"/>
<defs>
  <clipPath id="clip501">
    <rect x="480" y="0" width="1681" height="1600"/>
  </clipPath>
</defs>
<path clip-path="url(#clip500)" d="M447.244 1552.76 L1952.76 1552.76 L1952.76 47.2441 L447.244 47.2441  Z" fill="#ffffff" fill-rule="evenodd" fill-opacity="1"/>
<defs>
  <clipPath id="clip502">
    <rect x="447" y="47" width="1507" height="1507"/>
  </clipPath>
</defs>
<polyline clip-path="url(#clip502)" style="stroke:#000000; stroke-linecap:round; stroke-linejoin:round; stroke-width:4; stroke-opacity:1; fill:none" points="1593.72,262.317 1737.68,822.463 "/>
<polyline clip-path="url(#clip502)" style="stroke:#000000; stroke-linecap:round; stroke-linejoin:round; stroke-width:4; stroke-opacity:1; fill:none" points="662.317,934.825 1035.16,1337.68 "/>
<polyline clip-path="url(#clip502)" style="stroke:#000000; stroke-linecap:round; stroke-linejoin:round; stroke-width:4; stroke-opacity:1; fill:none" points="662.317,934.825 765.107,1331.42 "/>
<polyline clip-path="url(#clip502)" style="stroke:#000000; stroke-linecap:round; stroke-linejoin:round; stroke-width:4; stroke-opacity:1; fill:none" points="662.317,934.825 854.155,639.4 "/>
<polyline clip-path="url(#clip502)" style="stroke:#000000; stroke-linecap:round; stroke-linejoin:round; stroke-width:4; stroke-opacity:1; fill:none" points="662.317,934.825 1068.14,911.155 "/>
<polyline clip-path="url(#clip502)" style="stroke:#000000; stroke-linecap:round; stroke-linejoin:round; stroke-width:4; stroke-opacity:1; fill:none" points="1035.16,1337.68 765.107,1331.42 "/>
<polyline clip-path="url(#clip502)" style="stroke:#000000; stroke-linecap:round; stroke-linejoin:round; stroke-width:4; stroke-opacity:1; fill:none" points="1035.16,1337.68 854.155,639.4 "/>
<polyline clip-path="url(#clip502)" style="stroke:#000000; stroke-linecap:round; stroke-linejoin:round; stroke-width:4; stroke-opacity:1; fill:none" points="1035.16,1337.68 1068.14,911.155 "/>
<polyline clip-path="url(#clip502)" style="stroke:#000000; stroke-linecap:round; stroke-linejoin:round; stroke-width:4; stroke-opacity:1; fill:none" points="765.107,1331.42 854.155,639.4 "/>
<polyline clip-path="url(#clip502)" style="stroke:#000000; stroke-linecap:round; stroke-linejoin:round; stroke-width:4; stroke-opacity:1; fill:none" points="765.107,1331.42 1068.14,911.155 "/>
<polyline clip-path="url(#clip502)" style="stroke:#000000; stroke-linecap:round; stroke-linejoin:round; stroke-width:4; stroke-opacity:1; fill:none" points="854.155,639.4 1068.14,911.155 "/>
<path clip-path="url(#clip502)" d="M1685.7 262.317 L1685.41 255.009 L1684.54 247.747 L1683.09 240.578 L1681.08 233.545 L1678.52 226.695 L1675.42 220.07 L1671.81 213.712 L1667.7 207.661 L1663.12 201.956 L1658.11 196.632 L1652.69 191.724 L1646.89 187.262 L1640.76 183.274 L1634.33 179.787 L1627.65 176.821 L1620.75 174.395 L1613.67 172.526 L1606.48 171.224 L1599.2 170.498 L1591.89 170.352 L1584.59 170.788 L1577.34 171.803 L1570.2 173.39 L1563.21 175.539 L1556.41 178.237 L1549.85 181.466 L1543.57 185.207 L1537.6 189.435 L1531.99 194.124 L1526.76 199.244 L1521.96 204.763 L1517.62 210.645 L1513.75 216.855 L1510.39 223.351 L1507.56 230.095 L1505.27 237.041 L1503.55 244.148 L1502.39 251.37 L1501.81 258.66 L1501.81 265.974 L1502.39 273.265 L1503.55 280.486 L1505.27 287.593 L1507.56 294.54 L1510.39 301.283 L1513.75 307.78 L1517.62 313.989 L1521.96 319.872 L1526.76 325.39 L1531.99 330.51 L1537.6 335.199 L1543.57 339.427 L1549.85 343.168 L1556.41 346.397 L1563.21 349.095 L1570.2 351.244 L1577.34 352.831 L1584.59 353.846 L1591.89 354.282 L1599.2 354.137 L1606.48 353.411 L1613.67 352.109 L1620.75 350.239 L1627.65 347.814 L1634.33 344.848 L1640.76 341.36 L1646.89 337.373 L1652.69 332.911 L1658.11 328.002 L1663.12 322.679 L1667.7 316.974 L1671.81 310.923 L1675.42 304.565 L1678.52 297.94 L1681.08 291.089 L1683.09 284.057 L1684.54 276.887 L1685.41 269.625 L1685.7 262.317 L1685.7 262.317  Z" fill="#9e0142" fill-rule="evenodd" fill-opacity="1"/>
<polyline clip-path="url(#clip502)" style="stroke:#000000; stroke-linecap:round; stroke-linejoin:round; stroke-width:4; stroke-opacity:1; fill:none" points="1685.7,262.317 1685.41,255.009 1684.54,247.747 1683.09,240.578 1681.08,233.545 1678.52,226.695 1675.42,220.07 1671.81,213.712 1667.7,207.661 1663.12,201.956 1658.11,196.632 1652.69,191.724 1646.89,187.262 1640.76,183.274 1634.33,179.787 1627.65,176.821 1620.75,174.395 1613.67,172.526 1606.48,171.224 1599.2,170.498 1591.89,170.352 1584.59,170.788 1577.34,171.803 1570.2,173.39 1563.21,175.539 1556.41,178.237 1549.85,181.466 1543.57,185.207 1537.6,189.435 1531.99,194.124 1526.76,199.244 1521.96,204.763 1517.62,210.645 1513.75,216.855 1510.39,223.351 1507.56,230.095 1505.27,237.041 1503.55,244.148 1502.39,251.37 1501.81,258.66 1501.81,265.974 1502.39,273.265 1503.55,280.486 1505.27,287.593 1507.56,294.54 1510.39,301.283 1513.75,307.78 1517.62,313.989 1521.96,319.872 1526.76,325.39 1531.99,330.51 1537.6,335.199 1543.57,339.427 1549.85,343.168 1556.41,346.397 1563.21,349.095 1570.2,351.244 1577.34,352.831 1584.59,353.846 1591.89,354.282 1599.2,354.137 1606.48,353.411 1613.67,352.109 1620.75,350.239 1627.65,347.814 1634.33,344.848 1640.76,341.36 1646.89,337.373 1652.69,332.911 1658.11,328.002 1663.12,322.679 1667.7,316.974 1671.81,310.923 1675.42,304.565 1678.52,297.94 1681.08,291.089 1683.09,284.057 1684.54,276.887 1685.41,269.625 1685.7,262.317 "/>
<path clip-path="url(#clip502)" d="M1829.67 822.463 L1829.37 815.154 L1828.5 807.893 L1827.06 800.723 L1825.05 793.691 L1822.49 786.84 L1819.39 780.215 L1815.77 773.857 L1811.67 767.806 L1807.09 762.101 L1802.07 756.777 L1796.65 751.869 L1790.86 747.407 L1784.73 743.42 L1778.3 739.932 L1771.61 736.966 L1764.71 734.541 L1757.64 732.671 L1750.44 731.369 L1743.17 730.643 L1735.85 730.498 L1728.55 730.934 L1721.31 731.949 L1714.17 733.535 L1707.18 735.685 L1700.38 738.382 L1693.82 741.612 L1687.53 745.352 L1681.57 749.58 L1675.95 754.269 L1670.73 759.389 L1665.93 764.908 L1661.58 770.791 L1657.72 777 L1654.36 783.497 L1651.53 790.24 L1649.24 797.187 L1647.51 804.293 L1646.35 811.515 L1645.77 818.806 L1645.77 826.119 L1646.35 833.41 L1647.51 840.632 L1649.24 847.738 L1651.53 854.685 L1654.36 861.428 L1657.72 867.925 L1661.58 874.134 L1665.93 880.017 L1670.73 885.536 L1675.95 890.656 L1681.57 895.345 L1687.53 899.573 L1693.82 903.313 L1700.38 906.543 L1707.18 909.24 L1714.17 911.39 L1721.31 912.977 L1728.55 913.991 L1735.85 914.427 L1743.17 914.282 L1750.44 913.556 L1757.64 912.254 L1764.71 910.385 L1771.61 907.959 L1778.3 904.993 L1784.73 901.505 L1790.86 897.518 L1796.65 893.056 L1802.07 888.148 L1807.09 882.824 L1811.67 877.119 L1815.77 871.068 L1819.39 864.71 L1822.49 858.085 L1825.05 851.235 L1827.06 844.202 L1828.5 837.032 L1829.37 829.771 L1829.67 822.463 L1829.67 822.463  Z" fill="#9e0142" fill-rule="evenodd" fill-opacity="1"/>
<polyline clip-path="url(#clip502)" style="stroke:#000000; stroke-linecap:round; stroke-linejoin:round; stroke-width:4; stroke-opacity:1; fill:none" points="1829.67,822.463 1829.37,815.154 1828.5,807.893 1827.06,800.723 1825.05,793.691 1822.49,786.84 1819.39,780.215 1815.77,773.857 1811.67,767.806 1807.09,762.101 1802.07,756.777 1796.65,751.869 1790.86,747.407 1784.73,743.42 1778.3,739.932 1771.61,736.966 1764.71,734.541 1757.64,732.671 1750.44,731.369 1743.17,730.643 1735.85,730.498 1728.55,730.934 1721.31,731.949 1714.17,733.535 1707.18,735.685 1700.38,738.382 1693.82,741.612 1687.53,745.352 1681.57,749.58 1675.95,754.269 1670.73,759.389 1665.93,764.908 1661.58,770.791 1657.72,777 1654.36,783.497 1651.53,790.24 1649.24,797.187 1647.51,804.293 1646.35,811.515 1645.77,818.806 1645.77,826.119 1646.35,833.41 1647.51,840.632 1649.24,847.738 1651.53,854.685 1654.36,861.428 1657.72,867.925 1661.58,874.134 1665.93,880.017 1670.73,885.536 1675.95,890.656 1681.57,895.345 1687.53,899.573 1693.82,903.313 1700.38,906.543 1707.18,909.24 1714.17,911.39 1721.31,912.977 1728.55,913.991 1735.85,914.427 1743.17,914.282 1750.44,913.556 1757.64,912.254 1764.71,910.385 1771.61,907.959 1778.3,904.993 1784.73,901.505 1790.86,897.518 1796.65,893.056 1802.07,888.148 1807.09,882.824 1811.67,877.119 1815.77,871.068 1819.39,864.71 1822.49,858.085 1825.05,851.235 1827.06,844.202 1828.5,837.032 1829.37,829.771 1829.67,822.463 "/>
<path clip-path="url(#clip502)" d="M754.3 934.825 L754.009 927.517 L753.139 920.255 L751.694 913.085 L749.684 906.053 L747.122 899.202 L744.024 892.577 L740.409 886.219 L736.301 880.168 L731.724 874.463 L726.709 869.14 L721.287 864.231 L715.492 859.769 L709.361 855.782 L702.932 852.294 L696.246 849.328 L689.346 846.903 L682.276 845.033 L675.079 843.731 L667.801 843.005 L660.488 842.86 L653.188 843.296 L645.944 844.311 L638.805 845.898 L631.814 848.047 L625.016 850.745 L618.454 853.974 L612.169 857.715 L606.201 861.943 L600.588 866.632 L595.365 871.752 L590.565 877.27 L586.219 883.153 L582.355 889.362 L578.995 895.859 L576.163 902.602 L573.875 909.549 L572.147 916.656 L570.988 923.877 L570.407 931.168 L570.407 938.482 L570.988 945.772 L572.147 952.994 L573.875 960.101 L576.163 967.047 L578.995 973.791 L582.355 980.287 L586.219 986.497 L590.565 992.379 L595.365 997.898 L600.588 1003.02 L606.201 1007.71 L612.169 1011.94 L618.454 1015.68 L625.016 1018.9 L631.814 1021.6 L638.805 1023.75 L645.944 1025.34 L653.188 1026.35 L660.488 1026.79 L667.801 1026.64 L675.079 1025.92 L682.276 1024.62 L689.346 1022.75 L696.246 1020.32 L702.932 1017.36 L709.361 1013.87 L715.492 1009.88 L721.287 1005.42 L726.709 1000.51 L731.724 995.186 L736.301 989.481 L740.409 983.43 L744.024 977.072 L747.122 970.447 L749.684 963.597 L751.694 956.564 L753.139 949.395 L754.009 942.133 L754.3 934.825 L754.3 934.825  Z" fill="#5e4fa1" fill-rule="evenodd" fill-opacity="1"/>
<polyline clip-path="url(#clip502)" style="stroke:#000000; stroke-linecap:round; stroke-linejoin:round; stroke-width:4; stroke-opacity:1; fill:none" points="754.3,934.825 754.009,927.517 753.139,920.255 751.694,913.085 749.684,906.053 747.122,899.202 744.024,892.577 740.409,886.219 736.301,880.168 731.724,874.463 726.709,869.14 721.287,864.231 715.492,859.769 709.361,855.782 702.932,852.294 696.246,849.328 689.346,846.903 682.276,845.033 675.079,843.731 667.801,843.005 660.488,842.86 653.188,843.296 645.944,844.311 638.805,845.898 631.814,848.047 625.016,850.745 618.454,853.974 612.169,857.715 606.201,861.943 600.588,866.632 595.365,871.752 590.565,877.27 586.219,883.153 582.355,889.362 578.995,895.859 576.163,902.602 573.875,909.549 572.147,916.656 570.988,923.877 570.407,931.168 570.407,938.482 570.988,945.772 572.147,952.994 573.875,960.101 576.163,967.047 578.995,973.791 582.355,980.287 586.219,986.497 590.565,992.379 595.365,997.898 600.588,1003.02 606.201,1007.71 612.169,1011.94 618.454,1015.68 625.016,1018.9 631.814,1021.6 638.805,1023.75 645.944,1025.34 653.188,1026.35 660.488,1026.79 667.801,1026.64 675.079,1025.92 682.276,1024.62 689.346,1022.75 696.246,1020.32 702.932,1017.36 709.361,1013.87 715.492,1009.88 721.287,1005.42 726.709,1000.51 731.724,995.186 736.301,989.481 740.409,983.43 744.024,977.072 747.122,970.447 749.684,963.597 751.694,956.564 753.139,949.395 754.009,942.133 754.3,934.825 754.3,934.825 "/>
<path clip-path="url(#clip502)" d="M1127.15 1337.68 L1126.86 1330.37 L1125.99 1323.11 L1124.54 1315.94 L1122.53 1308.91 L1119.97 1302.06 L1116.87 1295.44 L1113.26 1289.08 L1109.15 1283.03 L1104.57 1277.32 L1099.56 1272 L1094.13 1267.09 L1088.34 1262.63 L1082.21 1258.64 L1075.78 1255.15 L1069.09 1252.19 L1062.19 1249.76 L1055.12 1247.89 L1047.93 1246.59 L1040.65 1245.86 L1033.33 1245.72 L1026.03 1246.15 L1018.79 1247.17 L1011.65 1248.76 L1004.66 1250.9 L997.862 1253.6 L991.3 1256.83 L985.015 1260.57 L979.047 1264.8 L973.434 1269.49 L968.211 1274.61 L963.412 1280.13 L959.066 1286.01 L955.201 1292.22 L951.842 1298.72 L949.009 1305.46 L946.722 1312.41 L944.993 1319.51 L943.835 1326.74 L943.254 1334.03 L943.254 1341.34 L943.835 1348.63 L944.993 1355.85 L946.722 1362.96 L949.009 1369.91 L951.842 1376.65 L955.201 1383.15 L959.066 1389.35 L963.412 1395.24 L968.211 1400.76 L973.434 1405.88 L979.047 1410.56 L985.015 1414.79 L991.3 1418.53 L997.862 1421.76 L1004.66 1424.46 L1011.65 1426.61 L1018.79 1428.2 L1026.03 1429.21 L1033.33 1429.65 L1040.65 1429.5 L1047.93 1428.78 L1055.12 1427.47 L1062.19 1425.6 L1069.09 1423.18 L1075.78 1420.21 L1082.21 1416.73 L1088.34 1412.74 L1094.13 1408.28 L1099.56 1403.37 L1104.57 1398.04 L1109.15 1392.34 L1113.26 1386.29 L1116.87 1379.93 L1119.97 1373.31 L1122.53 1366.45 L1124.54 1359.42 L1125.99 1352.25 L1126.86 1344.99 L1127.15 1337.68 L1127.15 1337.68  Z" fill="#5e4fa1" fill-rule="evenodd" fill-opacity="1"/>
<polyline clip-path="url(#clip502)" style="stroke:#000000; stroke-linecap:round; stroke-linejoin:round; stroke-width:4; stroke-opacity:1; fill:none" points="1127.15,1337.68 1126.86,1330.37 1125.99,1323.11 1124.54,1315.94 1122.53,1308.91 1119.97,1302.06 1116.87,1295.44 1113.26,1289.08 1109.15,1283.03 1104.57,1277.32 1099.56,1272 1094.13,1267.09 1088.34,1262.63 1082.21,1258.64 1075.78,1255.15 1069.09,1252.19 1062.19,1249.76 1055.12,1247.89 1047.93,1246.59 1040.65,1245.86 1033.33,1245.72 1026.03,1246.15 1018.79,1247.17 1011.65,1248.76 1004.66,1250.9 997.862,1253.6 991.3,1256.83 985.015,1260.57 979.047,1264.8 973.434,1269.49 968.211,1274.61 963.412,1280.13 959.066,1286.01 955.201,1292.22 951.842,1298.72 949.009,1305.46 946.722,1312.41 944.993,1319.51 943.835,1326.74 943.254,1334.03 943.254,1341.34 943.835,1348.63 944.993,1355.85 946.722,1362.96 949.009,1369.91 951.842,1376.65 955.201,1383.15 959.066,1389.35 963.412,1395.24 968.211,1400.76 973.434,1405.88 979.047,1410.56 985.015,1414.79 991.3,1418.53 997.862,1421.76 1004.66,1424.46 1011.65,1426.61 1018.79,1428.2 1026.03,1429.21 1033.33,1429.65 1040.65,1429.5 1047.93,1428.78 1055.12,1427.47 1062.19,1425.6 1069.09,1423.18 1075.78,1420.21 1082.21,1416.73 1088.34,1412.74 1094.13,1408.28 1099.56,1403.37 1104.57,1398.04 1109.15,1392.34 1113.26,1386.29 1116.87,1379.93 1119.97,1373.31 1122.53,1366.45 1124.54,1359.42 1125.99,1352.25 1126.86,1344.99 1127.15,1337.68 "/>
<path clip-path="url(#clip502)" d="M857.09 1331.42 L856.8 1324.11 L855.929 1316.85 L854.484 1309.68 L852.475 1302.65 L849.913 1295.8 L846.814 1289.17 L843.199 1282.81 L839.091 1276.76 L834.515 1271.06 L829.499 1265.73 L824.077 1260.82 L818.282 1256.36 L812.151 1252.37 L805.722 1248.89 L799.037 1245.92 L792.137 1243.5 L785.066 1241.63 L777.869 1240.32 L770.591 1239.6 L763.279 1239.45 L755.978 1239.89 L748.735 1240.9 L741.595 1242.49 L734.604 1244.64 L727.806 1247.34 L721.244 1250.57 L714.959 1254.31 L708.991 1258.54 L703.378 1263.22 L698.155 1268.34 L693.355 1273.86 L689.01 1279.75 L685.145 1285.96 L681.786 1292.45 L678.953 1299.19 L676.665 1306.14 L674.937 1313.25 L673.778 1320.47 L673.197 1327.76 L673.197 1335.07 L673.778 1342.37 L674.937 1349.59 L676.665 1356.69 L678.953 1363.64 L681.786 1370.38 L685.145 1376.88 L689.01 1383.09 L693.355 1388.97 L698.155 1394.49 L703.378 1399.61 L708.991 1404.3 L714.959 1408.53 L721.244 1412.27 L727.806 1415.5 L734.604 1418.2 L741.595 1420.34 L748.735 1421.93 L755.978 1422.95 L763.279 1423.38 L770.591 1423.24 L777.869 1422.51 L785.066 1421.21 L792.137 1419.34 L799.037 1416.91 L805.722 1413.95 L812.151 1410.46 L818.282 1406.47 L824.077 1402.01 L829.499 1397.1 L834.515 1391.78 L839.091 1386.07 L843.199 1380.02 L846.814 1373.67 L849.913 1367.04 L852.475 1360.19 L854.484 1353.16 L855.929 1345.99 L856.8 1338.73 L857.09 1331.42 L857.09 1331.42  Z" fill="#5e4fa1" fill-rule="evenodd" fill-opacity="1"/>
<polyline clip-path="url(#clip502)" style="stroke:#000000; stroke-linecap:round; stroke-linejoin:round; stroke-width:4; stroke-opacity:1; fill:none" points="857.09,1331.42 856.8,1324.11 855.929,1316.85 854.484,1309.68 852.475,1302.65 849.913,1295.8 846.814,1289.17 843.199,1282.81 839.091,1276.76 834.515,1271.06 829.499,1265.73 824.077,1260.82 818.282,1256.36 812.151,1252.37 805.722,1248.89 799.037,1245.92 792.137,1243.5 785.066,1241.63 777.869,1240.32 770.591,1239.6 763.279,1239.45 755.978,1239.89 748.735,1240.9 741.595,1242.49 734.604,1244.64 727.806,1247.34 721.244,1250.57 714.959,1254.31 708.991,1258.54 703.378,1263.22 698.155,1268.34 693.355,1273.86 689.01,1279.75 685.145,1285.96 681.786,1292.45 678.953,1299.19 676.665,1306.14 674.937,1313.25 673.778,1320.47 673.197,1327.76 673.197,1335.07 673.778,1342.37 674.937,1349.59 676.665,1356.69 678.953,1363.64 681.786,1370.38 685.145,1376.88 689.01,1383.09 693.355,1388.97 698.155,1394.49 703.378,1399.61 708.991,1404.3 714.959,1408.53 721.244,1412.27 727.806,1415.5 734.604,1418.2 741.595,1420.34 748.735,1421.93 755.978,1422.95 763.279,1423.38 770.591,1423.24 777.869,1422.51 785.066,1421.21 792.137,1419.34 799.037,1416.91 805.722,1413.95 812.151,1410.46 818.282,1406.47 824.077,1402.01 829.499,1397.1 834.515,1391.78 839.091,1386.07 843.199,1380.02 846.814,1373.67 849.913,1367.04 852.475,1360.19 854.484,1353.16 855.929,1345.99 856.8,1338.73 857.09,1331.42 "/>
<path clip-path="url(#clip502)" d="M946.138 639.4 L945.847 632.092 L944.977 624.83 L943.532 617.66 L941.522 610.628 L938.96 603.777 L935.862 597.152 L932.247 590.794 L928.139 584.743 L923.562 579.038 L918.547 573.714 L913.125 568.806 L907.33 564.344 L901.198 560.357 L894.77 556.869 L888.084 553.903 L881.184 551.478 L874.114 549.608 L866.916 548.306 L859.639 547.58 L852.326 547.435 L845.025 547.871 L837.782 548.886 L830.643 550.472 L823.652 552.622 L816.854 555.319 L810.291 558.549 L804.007 562.289 L798.039 566.518 L792.426 571.206 L787.203 576.326 L782.403 581.845 L778.057 587.728 L774.193 593.937 L770.833 600.434 L768.001 607.177 L765.713 614.124 L763.985 621.23 L762.826 628.452 L762.245 635.743 L762.245 643.057 L762.826 650.347 L763.985 657.569 L765.713 664.675 L768.001 671.622 L770.833 678.365 L774.193 684.862 L778.057 691.071 L782.403 696.954 L787.203 702.473 L792.426 707.593 L798.039 712.282 L804.007 716.51 L810.291 720.25 L816.854 723.48 L823.652 726.178 L830.643 728.327 L837.782 729.914 L845.025 730.928 L852.326 731.364 L859.639 731.219 L866.916 730.493 L874.114 729.191 L881.184 727.322 L888.084 724.896 L894.77 721.93 L901.198 718.443 L907.33 714.455 L913.125 709.993 L918.547 705.085 L923.562 699.761 L928.139 694.056 L932.247 688.005 L935.862 681.647 L938.96 675.022 L941.522 668.172 L943.532 661.139 L944.977 653.97 L945.847 646.708 L946.138 639.4 L946.138 639.4  Z" fill="#5e4fa1" fill-rule="evenodd" fill-opacity="1"/>
<polyline clip-path="url(#clip502)" style="stroke:#000000; stroke-linecap:round; stroke-linejoin:round; stroke-width:4; stroke-opacity:1; fill:none" points="946.138,639.4 945.847,632.092 944.977,624.83 943.532,617.66 941.522,610.628 938.96,603.777 935.862,597.152 932.247,590.794 928.139,584.743 923.562,579.038 918.547,573.714 913.125,568.806 907.33,564.344 901.198,560.357 894.77,556.869 888.084,553.903 881.184,551.478 874.114,549.608 866.916,548.306 859.639,547.58 852.326,547.435 845.025,547.871 837.782,548.886 830.643,550.472 823.652,552.622 816.854,555.319 810.291,558.549 804.007,562.289 798.039,566.518 792.426,571.206 787.203,576.326 782.403,581.845 778.057,587.728 774.193,593.937 770.833,600.434 768.001,607.177 765.713,614.124 763.985,621.23 762.826,628.452 762.245,635.743 762.245,643.057 762.826,650.347 763.985,657.569 765.713,664.675 768.001,671.622 770.833,678.365 774.193,684.862 778.057,691.071 782.403,696.954 787.203,702.473 792.426,707.593 798.039,712.282 804.007,716.51 810.291,720.25 816.854,723.48 823.652,726.178 830.643,728.327 837.782,729.914 845.025,730.928 852.326,731.364 859.639,731.219 866.916,730.493 874.114,729.191 881.184,727.322 888.084,724.896 894.77,721.93 901.198,718.443 907.33,714.455 913.125,709.993 918.547,705.085 923.562,699.761 928.139,694.056 932.247,688.005 935.862,681.647 938.96,675.022 941.522,668.172 943.532,661.139 944.977,653.97 945.847,646.708 946.138,639.4 "/>
<path clip-path="url(#clip502)" d="M1160.12 911.155 L1159.83 903.847 L1158.96 896.585 L1157.51 889.416 L1155.5 882.383 L1152.94 875.533 L1149.84 868.908 L1146.23 862.55 L1142.12 856.499 L1137.54 850.794 L1132.53 845.47 L1127.11 840.562 L1121.31 836.1 L1115.18 832.112 L1108.75 828.625 L1102.06 825.659 L1095.17 823.233 L1088.09 821.364 L1080.9 820.062 L1073.62 819.336 L1066.31 819.191 L1059.01 819.627 L1051.76 820.641 L1044.62 822.228 L1037.63 824.377 L1030.83 827.075 L1024.27 830.305 L1017.99 834.045 L1012.02 838.273 L1006.41 842.962 L1001.18 848.082 L996.384 853.601 L992.038 859.484 L988.173 865.693 L984.814 872.19 L981.982 878.933 L979.694 885.88 L977.965 892.986 L976.807 900.208 L976.226 907.498 L976.226 914.812 L976.807 922.103 L977.965 929.324 L979.694 936.431 L981.982 943.378 L984.814 950.121 L988.173 956.618 L992.038 962.827 L996.384 968.71 L1001.18 974.229 L1006.41 979.349 L1012.02 984.037 L1017.99 988.265 L1024.27 992.006 L1030.83 995.235 L1037.63 997.933 L1044.62 1000.08 L1051.76 1001.67 L1059.01 1002.68 L1066.31 1003.12 L1073.62 1002.97 L1080.9 1002.25 L1088.09 1000.95 L1095.17 999.077 L1102.06 996.652 L1108.75 993.686 L1115.18 990.198 L1121.31 986.211 L1127.11 981.749 L1132.53 976.84 L1137.54 971.517 L1142.12 965.812 L1146.23 959.761 L1149.84 953.403 L1152.94 946.778 L1155.5 939.927 L1157.51 932.895 L1158.96 925.725 L1159.83 918.463 L1160.12 911.155 L1160.12 911.155  Z" fill="#5e4fa1" fill-rule="evenodd" fill-opacity="1"/>
<polyline clip-path="url(#clip502)" style="stroke:#000000; stroke-linecap:round; stroke-linejoin:round; stroke-width:4; stroke-opacity:1; fill:none" points="1160.12,911.155 1159.83,903.847 1158.96,896.585 1157.51,889.416 1155.5,882.383 1152.94,875.533 1149.84,868.908 1146.23,862.55 1142.12,856.499 1137.54,850.794 1132.53,845.47 1127.11,840.562 1121.31,836.1 1115.18,832.112 1108.75,828.625 1102.06,825.659 1095.17,823.233 1088.09,821.364 1080.9,820.062 1073.62,819.336 1066.31,819.191 1059.01,819.627 1051.76,820.641 1044.62,822.228 1037.63,824.377 1030.83,827.075 1024.27,830.305 1017.99,834.045 1012.02,838.273 1006.41,842.962 1001.18,848.082 996.384,853.601 992.038,859.484 988.173,865.693 984.814,872.19 981.982,878.933 979.694,885.88 977.965,892.986 976.807,900.208 976.226,907.498 976.226,914.812 976.807,922.103 977.965,929.324 979.694,936.431 981.982,943.378 984.814,950.121 988.173,956.618 992.038,962.827 996.384,968.71 1001.18,974.229 1006.41,979.349 1012.02,984.037 1017.99,988.265 1024.27,992.006 1030.83,995.235 1037.63,997.933 1044.62,1000.08 1051.76,1001.67 1059.01,1002.68 1066.31,1003.12 1073.62,1002.97 1080.9,1002.25 1088.09,1000.95 1095.17,999.077 1102.06,996.652 1108.75,993.686 1115.18,990.198 1121.31,986.211 1127.11,981.749 1132.53,976.84 1137.54,971.517 1142.12,965.812 1146.23,959.761 1149.84,953.403 1152.94,946.778 1155.5,939.927 1157.51,932.895 1158.96,925.725 1159.83,918.463 1160.12,911.155 "/>
<circle clip-path="url(#clip502)" cx="1593.72" cy="262.317" r="0.36" fill="#5e4fa1" fill-rule="evenodd" fill-opacity="1" stroke="#000000" stroke-opacity="1" stroke-width="3.2"/>
<circle clip-path="url(#clip502)" cx="1737.68" cy="822.463" r="0.36" fill="#5e4fa1" fill-rule="evenodd" fill-opacity="1" stroke="#000000" stroke-opacity="1" stroke-width="3.2"/>
<circle clip-path="url(#clip502)" cx="662.317" cy="934.825" r="0.36" fill="#5e4fa1" fill-rule="evenodd" fill-opacity="1" stroke="#000000" stroke-opacity="1" stroke-width="3.2"/>
<circle clip-path="url(#clip502)" cx="1035.16" cy="1337.68" r="0.36" fill="#5e4fa1" fill-rule="evenodd" fill-opacity="1" stroke="#000000" stroke-opacity="1" stroke-width="3.2"/>
<circle clip-path="url(#clip502)" cx="765.107" cy="1331.42" r="0.36" fill="#5e4fa1" fill-rule="evenodd" fill-opacity="1" stroke="#000000" stroke-opacity="1" stroke-width="3.2"/>
<circle clip-path="url(#clip502)" cx="854.155" cy="639.4" r="0.36" fill="#5e4fa1" fill-rule="evenodd" fill-opacity="1" stroke="#000000" stroke-opacity="1" stroke-width="3.2"/>
<circle clip-path="url(#clip502)" cx="1068.14" cy="911.155" r="0.36" fill="#5e4fa1" fill-rule="evenodd" fill-opacity="1" stroke="#000000" stroke-opacity="1" stroke-width="3.2"/>
<path clip-path="url(#clip500)" d="M1553.61 273.123 L1553.61 265.001 L1546.93 265.001 L1546.93 261.639 L1557.66 261.639 L1557.66 274.622 Q1555.29 276.303 1552.44 277.174 Q1549.58 278.025 1546.34 278.025 Q1539.25 278.025 1535.24 273.893 Q1531.25 269.74 1531.25 262.348 Q1531.25 254.934 1535.24 250.803 Q1539.25 246.65 1546.34 246.65 Q1549.3 246.65 1551.95 247.38 Q1554.62 248.109 1556.87 249.526 L1556.87 253.881 Q1554.6 251.957 1552.05 250.985 Q1549.5 250.013 1546.69 250.013 Q1541.14 250.013 1538.34 253.112 Q1535.57 256.21 1535.57 262.348 Q1535.57 268.464 1538.34 271.563 Q1541.14 274.662 1546.69 274.662 Q1548.85 274.662 1550.55 274.298 Q1552.26 273.913 1553.61 273.123 Z" fill="#000000" fill-rule="nonzero" fill-opacity="1" /><path clip-path="url(#clip500)" d="M1577.41 249.972 Q1572.96 249.972 1570.32 253.294 Q1567.71 256.616 1567.71 262.348 Q1567.71 268.059 1570.32 271.381 Q1572.96 274.703 1577.41 274.703 Q1581.87 274.703 1584.46 271.381 Q1587.07 268.059 1587.07 262.348 Q1587.07 256.616 1584.46 253.294 Q1581.87 249.972 1577.41 249.972 M1577.41 246.65 Q1583.77 246.65 1587.58 250.924 Q1591.39 255.177 1591.39 262.348 Q1591.39 269.497 1587.58 273.771 Q1583.77 278.025 1577.41 278.025 Q1571.03 278.025 1567.2 273.771 Q1563.4 269.518 1563.4 262.348 Q1563.4 255.177 1567.2 250.924 Q1571.03 246.65 1577.41 246.65 Z" fill="#000000" fill-rule="nonzero" fill-opacity="1" /><path clip-path="url(#clip500)" d="M1610.06 249.972 Q1605.61 249.972 1602.97 253.294 Q1600.36 256.616 1600.36 262.348 Q1600.36 268.059 1602.97 271.381 Q1605.61 274.703 1610.06 274.703 Q1614.52 274.703 1617.11 271.381 Q1619.72 268.059 1619.72 262.348 Q1619.72 256.616 1617.11 253.294 Q1614.52 249.972 1610.06 249.972 M1610.06 246.65 Q1616.42 246.65 1620.23 250.924 Q1624.04 255.177 1624.04 262.348 Q1624.04 269.497 1620.23 273.771 Q1616.42 278.025 1610.06 278.025 Q1603.68 278.025 1599.85 273.771 Q1596.05 269.518 1596.05 262.348 Q1596.05 255.177 1599.85 250.924 Q1603.68 246.65 1610.06 246.65 Z" fill="#000000" fill-rule="nonzero" fill-opacity="1" /><path clip-path="url(#clip500)" d="M1651.06 273.123 L1651.06 265.001 L1644.37 265.001 L1644.37 261.639 L1655.11 261.639 L1655.11 274.622 Q1652.74 276.303 1649.88 277.174 Q1647.03 278.025 1643.79 278.025 Q1636.7 278.025 1632.69 273.893 Q1628.7 269.74 1628.7 262.348 Q1628.7 254.934 1632.69 250.803 Q1636.7 246.65 1643.79 246.65 Q1646.74 246.65 1649.4 247.38 Q1652.07 248.109 1654.32 249.526 L1654.32 253.881 Q1652.05 251.957 1649.5 250.985 Q1646.94 250.013 1644.13 250.013 Q1638.58 250.013 1635.78 253.112 Q1633.01 256.21 1633.01 262.348 Q1633.01 268.464 1635.78 271.563 Q1638.58 274.662 1644.13 274.662 Q1646.3 274.662 1648 274.298 Q1649.7 273.913 1651.06 273.123 Z" fill="#000000" fill-rule="nonzero" fill-opacity="1" /><path clip-path="url(#clip500)" d="M1690.05 811.373 L1684.5 826.422 L1695.62 826.422 L1690.05 811.373 M1687.75 807.343 L1692.38 807.343 L1703.91 837.583 L1699.65 837.583 L1696.9 829.825 L1683.27 829.825 L1680.51 837.583 L1676.2 837.583 L1687.75 807.343 Z" fill="#000000" fill-rule="nonzero" fill-opacity="1" /><path clip-path="url(#clip500)" d="M1708.32 807.343 L1714.42 807.343 L1722.14 827.921 L1729.89 807.343 L1735.99 807.343 L1735.99 837.583 L1732 837.583 L1732 811.029 L1724.2 831.77 L1720.09 831.77 L1712.29 811.029 L1712.29 837.583 L1708.32 837.583 L1708.32 807.343 Z" fill="#000000" fill-rule="nonzero" fill-opacity="1" /><path clip-path="url(#clip500)" d="M1742.37 807.343 L1766.13 807.343 L1766.13 810.462 L1747.01 834.139 L1766.6 834.139 L1766.6 837.583 L1741.91 837.583 L1741.91 834.463 L1761.03 810.786 L1742.37 810.786 L1742.37 807.343 Z" fill="#000000" fill-rule="nonzero" fill-opacity="1" /><path clip-path="url(#clip500)" d="M1772.53 807.343 L1778.04 807.343 L1791.45 832.64 L1791.45 807.343 L1795.42 807.343 L1795.42 837.583 L1789.91 837.583 L1776.5 812.285 L1776.5 837.583 L1772.53 837.583 L1772.53 807.343 Z" fill="#000000" fill-rule="nonzero" fill-opacity="1" /><path clip-path="url(#clip500)" d="M656.119 919.705 L681.701 919.705 L681.701 923.148 L670.966 923.148 L670.966 949.945 L666.854 949.945 L666.854 923.148 L656.119 923.148 L656.119 919.705 Z" fill="#000000" fill-rule="nonzero" fill-opacity="1" /><path clip-path="url(#clip500)" d="M1009.93 1338.36 L1009.93 1349.44 L1016.49 1349.44 Q1019.79 1349.44 1021.37 1348.08 Q1022.97 1346.71 1022.97 1343.89 Q1022.97 1341.06 1021.37 1339.72 Q1019.79 1338.36 1016.49 1338.36 L1009.93 1338.36 M1009.93 1325.93 L1009.93 1335.04 L1015.98 1335.04 Q1018.98 1335.04 1020.44 1333.93 Q1021.92 1332.79 1021.92 1330.48 Q1021.92 1328.19 1020.44 1327.06 Q1018.98 1325.93 1015.98 1325.93 L1009.93 1325.93 M1005.84 1322.56 L1016.29 1322.56 Q1020.97 1322.56 1023.5 1324.51 Q1026.03 1326.45 1026.03 1330.04 Q1026.03 1332.81 1024.73 1334.45 Q1023.44 1336.09 1020.92 1336.5 Q1023.94 1337.15 1025.6 1339.21 Q1027.28 1341.26 1027.28 1344.34 Q1027.28 1348.39 1024.53 1350.6 Q1021.78 1352.8 1016.69 1352.8 L1005.84 1352.8 L1005.84 1322.56 Z" fill="#000000" fill-rule="nonzero" fill-opacity="1" /><path clip-path="url(#clip500)" d="M1038.38 1338.36 L1038.38 1349.44 L1044.95 1349.44 Q1048.25 1349.44 1049.83 1348.08 Q1051.43 1346.71 1051.43 1343.89 Q1051.43 1341.06 1049.83 1339.72 Q1048.25 1338.36 1044.95 1338.36 L1038.38 1338.36 M1038.38 1325.93 L1038.38 1335.04 L1044.44 1335.04 Q1047.44 1335.04 1048.9 1333.93 Q1050.37 1332.79 1050.37 1330.48 Q1050.37 1328.19 1048.9 1327.06 Q1047.44 1325.93 1044.44 1325.93 L1038.38 1325.93 M1034.29 1322.56 L1044.74 1322.56 Q1049.42 1322.56 1051.95 1324.51 Q1054.49 1326.45 1054.49 1330.04 Q1054.49 1332.81 1053.19 1334.45 Q1051.89 1336.09 1049.38 1336.5 Q1052.4 1337.15 1054.06 1339.21 Q1055.74 1341.26 1055.74 1344.34 Q1055.74 1348.39 1052.99 1350.6 Q1050.23 1352.8 1045.15 1352.8 L1034.29 1352.8 L1034.29 1322.56 Z" fill="#000000" fill-rule="nonzero" fill-opacity="1" /><path clip-path="url(#clip500)" d="M1056.33 1322.56 L1060.72 1322.56 L1069.11 1335 L1077.43 1322.56 L1081.83 1322.56 L1071.14 1338.4 L1071.14 1352.8 L1067.02 1352.8 L1067.02 1338.4 L1056.33 1322.56 Z" fill="#000000" fill-rule="nonzero" fill-opacity="1" /><path clip-path="url(#clip500)" d="M737.095 1316.3 L743.192 1316.3 L750.909 1336.88 L758.667 1316.3 L764.763 1316.3 L764.763 1346.54 L760.773 1346.54 L760.773 1319.98 L752.975 1340.72 L748.863 1340.72 L741.065 1319.98 L741.065 1346.54 L737.095 1346.54 L737.095 1316.3 Z" fill="#000000" fill-rule="nonzero" fill-opacity="1" /><path clip-path="url(#clip500)" d="M782.992 1320.33 L777.442 1335.38 L788.562 1335.38 L782.992 1320.33 M780.683 1316.3 L785.321 1316.3 L796.846 1346.54 L792.593 1346.54 L789.838 1338.78 L776.207 1338.78 L773.452 1346.54 L769.138 1346.54 L780.683 1316.3 Z" fill="#000000" fill-rule="nonzero" fill-opacity="1" /><path clip-path="url(#clip500)" d="M831.369 627.642 L831.369 639.005 L836.513 639.005 Q839.369 639.005 840.929 637.526 Q842.489 636.047 842.489 633.313 Q842.489 630.599 840.929 629.12 Q839.369 627.642 836.513 627.642 L831.369 627.642 M827.277 624.28 L836.513 624.28 Q841.597 624.28 844.19 626.589 Q846.803 628.877 846.803 633.313 Q846.803 637.789 844.19 640.078 Q841.597 642.367 836.513 642.367 L831.369 642.367 L831.369 654.52 L827.277 654.52 L827.277 624.28 Z" fill="#000000" fill-rule="nonzero" fill-opacity="1" /><path clip-path="url(#clip500)" d="M852.292 624.28 L869.67 624.28 L869.67 627.723 L856.383 627.723 L856.383 636.635 L868.374 636.635 L868.374 640.078 L856.383 640.078 L856.383 654.52 L852.292 654.52 L852.292 624.28 Z" fill="#000000" fill-rule="nonzero" fill-opacity="1" /><path clip-path="url(#clip500)" d="M876.152 624.28 L895.272 624.28 L895.272 627.723 L880.243 627.723 L880.243 636.675 L894.644 636.675 L894.644 640.119 L880.243 640.119 L880.243 651.076 L895.636 651.076 L895.636 654.52 L876.152 654.52 L876.152 624.28 Z" fill="#000000" fill-rule="nonzero" fill-opacity="1" /><path clip-path="url(#clip500)" d="M1042.28 896.035 L1046.37 896.035 L1046.37 924.169 Q1046.37 929.638 1044.29 932.109 Q1042.22 934.58 1037.62 934.58 L1036.06 934.58 L1036.06 931.136 L1037.34 931.136 Q1040.05 931.136 1041.17 929.617 Q1042.28 928.098 1042.28 924.169 L1042.28 896.035 Z" fill="#000000" fill-rule="nonzero" fill-opacity="1" /><path clip-path="url(#clip500)" d="M1058.61 899.398 L1058.61 910.76 L1063.75 910.76 Q1066.61 910.76 1068.17 909.282 Q1069.73 907.803 1069.73 905.069 Q1069.73 902.355 1068.17 900.876 Q1066.61 899.398 1063.75 899.398 L1058.61 899.398 M1054.51 896.035 L1063.75 896.035 Q1068.83 896.035 1071.43 898.344 Q1074.04 900.633 1074.04 905.069 Q1074.04 909.545 1071.43 911.834 Q1068.83 914.123 1063.75 914.123 L1058.61 914.123 L1058.61 926.275 L1054.51 926.275 L1054.51 896.035 Z" fill="#000000" fill-rule="nonzero" fill-opacity="1" /><path clip-path="url(#clip500)" d="M1079.53 896.035 L1085.63 896.035 L1093.34 916.614 L1101.1 896.035 L1107.2 896.035 L1107.2 926.275 L1103.21 926.275 L1103.21 899.722 L1095.41 920.462 L1091.3 920.462 L1083.5 899.722 L1083.5 926.275 L1079.53 926.275 L1079.53 896.035 Z" fill="#000000" fill-rule="nonzero" fill-opacity="1" /></svg>
