<?xml version="1.0" encoding="utf-8"?>
<svg xmlns="http://www.w3.org/2000/svg" xmlns:xlink="http://www.w3.org/1999/xlink" width="600" height="400" viewBox="0 0 2400 1600">
<defs>
  <clipPath id="clip210">
    <rect x="0" y="0" width="2400" height="1600"/>
  </clipPath>
</defs>
<path clip-path="url(#clip210)" d="M0 1600 L2400 1600 L2400 0 L0 0  Z" fill="#ffffff" fill-rule="evenodd" fill-opacity="1"/>
<defs>
  <clipPath id="clip211">
    <rect x="480" y="0" width="1681" height="1600"/>
  </clipPath>
</defs>
<path clip-path="url(#clip210)" d="M447.244 1552.76 L1952.76 1552.76 L1952.76 47.2441 L447.244 47.2441  Z" fill="#ffffff" fill-rule="evenodd" fill-opacity="1"/>
<defs>
  <clipPath id="clip212">
    <rect x="447" y="47" width="1507" height="1507"/>
  </clipPath>
</defs>
<polyline clip-path="url(#clip212)" style="stroke:#000000; stroke-linecap:round; stroke-linejoin:round; stroke-width:4; stroke-opacity:1; fill:none" points="662.317,887.675 773.121,262.317 "/>
<polyline clip-path="url(#clip212)" style="stroke:#000000; stroke-linecap:round; stroke-linejoin:round; stroke-width:4; stroke-opacity:1; fill:none" points="1529.44,557.286 1737.68,845.61 "/>
<polyline clip-path="url(#clip212)" style="stroke:#000000; stroke-linecap:round; stroke-linejoin:round; stroke-width:4; stroke-opacity:1; fill:none" points="1529.44,557.286 1390.95,1337.68 "/>
<polyline clip-path="url(#clip212)" style="stroke:#000000; stroke-linecap:round; stroke-linejoin:round; stroke-width:4; stroke-opacity:1; fill:none" points="1529.44,557.286 1659.03,1288.83 "/>
<polyline clip-path="url(#clip212)" style="stroke:#000000; stroke-linecap:round; stroke-linejoin:round; stroke-width:4; stroke-opacity:1; fill:none" points="1529.44,557.286 1332.85,883.446 "/>
<polyline clip-path="url(#clip212)" style="stroke:#000000; stroke-linecap:round; stroke-linejoin:round; stroke-width:4; stroke-opacity:1; fill:none" points="1737.68,845.61 1390.95,1337.68 "/>
<polyline clip-path="url(#clip212)" style="stroke:#000000; stroke-linecap:round; stroke-linejoin:round; stroke-width:4; stroke-opacity:1; fill:none" points="1737.68,845.61 1659.03,1288.83 "/>
<polyline clip-path="url(#clip212)" style="stroke:#000000; stroke-linecap:round; stroke-linejoin:round; stroke-width:4; stroke-opacity:1; fill:none" points="1737.68,845.61 1332.85,883.446 "/>
<polyline clip-path="url(#clip212)" style="stroke:#000000; stroke-linecap:round; stroke-linejoin:round; stroke-width:4; stroke-opacity:1; fill:none" points="1390.95,1337.68 1659.03,1288.83 "/>
<polyline clip-path="url(#clip212)" style="stroke:#000000; stroke-linecap:round; stroke-linejoin:round; stroke-width:4; stroke-opacity:1; fill:none" points="1390.95,1337.68 1332.85,883.446 "/>
<polyline clip-path="url(#clip212)" style="stroke:#000000; stroke-linecap:round; stroke-linejoin:round; stroke-width:4; stroke-opacity:1; fill:none" points="1659.03,1288.83 1332.85,883.446 "/>
<path clip-path="url(#clip212)" d="M754.3 887.675 L754.009 880.367 L753.139 873.105 L751.694 865.936 L749.684 858.903 L747.122 852.053 L744.024 845.428 L740.409 839.07 L736.301 833.019 L731.724 827.314 L726.709 821.99 L721.287 817.082 L715.492 812.62 L709.361 808.632 L702.932 805.145 L696.246 802.179 L689.346 799.753 L682.276 797.884 L675.079 796.582 L667.801 795.856 L660.488 795.711 L653.188 796.147 L645.944 797.161 L638.805 798.748 L631.814 800.897 L625.016 803.595 L618.454 806.825 L612.169 810.565 L606.201 814.793 L600.588 819.482 L595.365 824.602 L590.565 830.121 L586.219 836.004 L582.355 842.213 L578.995 848.71 L576.163 855.453 L573.875 862.4 L572.147 869.506 L570.988 876.728 L570.407 884.018 L570.407 891.332 L570.988 898.623 L572.147 905.845 L573.875 912.951 L576.163 919.898 L578.995 926.641 L582.355 933.138 L586.219 939.347 L590.565 945.23 L595.365 950.749 L600.588 955.869 L606.201 960.557 L612.169 964.786 L618.454 968.526 L625.016 971.755 L631.814 974.453 L638.805 976.602 L645.944 978.189 L653.188 979.204 L660.488 979.64 L667.801 979.495 L675.079 978.769 L682.276 977.467 L689.346 975.597 L696.246 973.172 L702.932 970.206 L709.361 966.718 L715.492 962.731 L721.287 958.269 L726.709 953.361 L731.724 948.037 L736.301 942.332 L740.409 936.281 L744.024 929.923 L747.122 923.298 L749.684 916.447 L751.694 909.415 L753.139 902.245 L754.009 894.983 L754.3 887.675 L754.3 887.675  Z" fill="#9e0142" fill-rule="evenodd" fill-opacity="1"/>
<polyline clip-path="url(#clip212)" style="stroke:#000000; stroke-linecap:round; stroke-linejoin:round; stroke-width:4; stroke-opacity:1; fill:none" points="754.3,887.675 754.009,880.367 753.139,873.105 751.694,865.936 749.684,858.903 747.122,852.053 744.024,845.428 740.409,839.07 736.301,833.019 731.724,827.314 726.709,821.99 721.287,817.082 715.492,812.62 709.361,808.632 702.932,805.145 696.246,802.179 689.346,799.753 682.276,797.884 675.079,796.582 667.801,795.856 660.488,795.711 653.188,796.147 645.944,797.161 638.805,798.748 631.814,800.897 625.016,803.595 618.454,806.825 612.169,810.565 606.201,814.793 600.588,819.482 595.365,824.602 590.565,830.121 586.219,836.004 582.355,842.213 578.995,848.71 576.163,855.453 573.875,862.4 572.147,869.506 570.988,876.728 570.407,884.018 570.407,891.332 570.988,898.623 572.147,905.845 573.875,912.951 576.163,919.898 578.995,926.641 582.355,933.138 586.219,939.347 590.565,945.23 595.365,950.749 600.588,955.869 606.201,960.557 612.169,964.786 618.454,968.526 625.016,971.755 631.814,974.453 638.805,976.602 645.944,978.189 653.188,979.204 660.488,979.64 667.801,979.495 675.079,978.769 682.276,977.467 689.346,975.597 696.246,973.172 702.932,970.206 709.361,966.718 715.492,962.731 721.287,958.269 726.709,953.361 731.724,948.037 736.301,942.332 740.409,936.281 744.024,929.923 747.122,923.298 749.684,916.447 751.694,909.415 753.139,902.245 754.009,894.983 754.3,887.675 "/>
<path clip-path="url(#clip212)" d="M865.104 262.317 L864.814 255.009 L863.943 247.747 L862.498 240.578 L860.489 233.545 L857.927 226.695 L854.828 220.07 L851.213 213.712 L847.105 207.661 L842.528 201.956 L837.513 196.632 L832.091 191.724 L826.296 187.262 L820.165 183.274 L813.736 179.787 L807.051 176.821 L800.151 174.395 L793.08 172.526 L785.883 171.224 L778.605 170.498 L771.293 170.352 L763.992 170.788 L756.749 171.803 L749.609 173.39 L742.618 175.539 L735.82 178.237 L729.258 181.466 L722.973 185.207 L717.005 189.435 L711.392 194.124 L706.169 199.244 L701.369 204.763 L697.024 210.645 L693.159 216.855 L689.8 223.351 L686.967 230.095 L684.679 237.041 L682.951 244.148 L681.792 251.37 L681.211 258.66 L681.211 265.974 L681.792 273.265 L682.951 280.486 L684.679 287.593 L686.967 294.54 L689.8 301.283 L693.159 307.78 L697.024 313.989 L701.369 319.872 L706.169 325.39 L711.392 330.51 L717.005 335.199 L722.973 339.427 L729.258 343.168 L735.82 346.397 L742.618 349.095 L749.609 351.244 L756.749 352.831 L763.992 353.846 L771.293 354.282 L778.605 354.137 L785.883 353.411 L793.08 352.109 L800.151 350.239 L807.051 347.814 L813.736 344.848 L820.165 341.36 L826.296 337.373 L832.091 332.911 L837.513 328.002 L842.528 322.679 L847.105 316.974 L851.213 310.923 L854.828 304.565 L857.927 297.94 L860.489 291.089 L862.498 284.057 L863.943 276.887 L864.814 269.625 L865.104 262.317 L865.104 262.317  Z" fill="#9e0142" fill-rule="evenodd" fill-opacity="1"/>
<polyline clip-path="url(#clip212)" style="stroke:#000000; stroke-linecap:round; stroke-linejoin:round; stroke-width:4; stroke-opacity:1; fill:none" points="865.104,262.317 864.814,255.009 863.943,247.747 862.498,240.578 860.489,233.545 857.927,226.695 854.828,220.07 851.213,213.712 847.105,207.661 842.528,201.956 837.513,196.632 832.091,191.724 826.296,187.262 820.165,183.274 813.736,179.787 807.051,176.821 800.151,174.395 793.08,172.526 785.883,171.224 778.605,170.498 771.293,170.352 763.992,170.788 756.749,171.803 749.609,173.39 742.618,175.539 735.82,178.237 729.258,181.466 722.973,185.207 717.005,189.435 711.392,194.124 706.169,199.244 701.369,204.763 697.024,210.645 693.159,216.855 689.8,223.351 686.967,230.095 684.679,237.041 682.951,244.148 681.792,251.37 681.211,258.66 681.211,265.974 681.792,273.265 682.951,280.486 684.679,287.593 686.967,294.54 689.8,301.283 693.159,307.78 697.024,313.989 701.369,319.872 706.169,325.39 711.392,330.51 717.005,335.199 722.973,339.427 729.258,343.168 735.82,346.397 742.618,349.095 749.609,351.244 756.749,352.831 763.992,353.846 771.293,354.282 778.605,354.137 785.883,353.411 793.08,352.109 800.151,350.239 807.051,347.814 813.736,344.848 820.165,341.36 826.296,337.373 832.091,332.911 837.513,328.002 842.528,322.679 847.105,316.974 851.213,310.923 854.828,304.565 857.927,297.94 860.489,291.089 862.498,284.057 863.943,276.887 864.814,269.625 865.104,262.317 "/>
<path clip-path="url(#clip212)" d="M1621.43 557.286 L1621.14 549.978 L1620.27 542.717 L1618.82 535.547 L1616.81 528.515 L1614.25 521.664 L1611.15 515.039 L1607.54 508.681 L1603.43 502.63 L1598.85 496.925 L1593.84 491.601 L1588.41 486.693 L1582.62 482.231 L1576.49 478.244 L1570.06 474.756 L1563.37 471.79 L1556.47 469.364 L1549.4 467.495 L1542.21 466.193 L1534.93 465.467 L1527.62 465.322 L1520.31 465.758 L1513.07 466.772 L1505.93 468.359 L1498.94 470.509 L1492.14 473.206 L1485.58 476.436 L1479.3 480.176 L1473.33 484.404 L1467.71 489.093 L1462.49 494.213 L1457.69 499.732 L1453.35 505.615 L1449.48 511.824 L1446.12 518.321 L1443.29 525.064 L1441 532.011 L1439.27 539.117 L1438.12 546.339 L1437.53 553.63 L1437.53 560.943 L1438.12 568.234 L1439.27 575.456 L1441 582.562 L1443.29 589.509 L1446.12 596.252 L1449.48 602.749 L1453.35 608.958 L1457.69 614.841 L1462.49 620.36 L1467.71 625.48 L1473.33 630.169 L1479.3 634.397 L1485.58 638.137 L1492.14 641.367 L1498.94 644.064 L1505.93 646.214 L1513.07 647.801 L1520.31 648.815 L1527.62 649.251 L1534.93 649.106 L1542.21 648.38 L1549.4 647.078 L1556.47 645.209 L1563.37 642.783 L1570.06 639.817 L1576.49 636.329 L1582.62 632.342 L1588.41 627.88 L1593.84 622.972 L1598.85 617.648 L1603.43 611.943 L1607.54 605.892 L1611.15 599.534 L1614.25 592.909 L1616.81 586.058 L1618.82 579.026 L1620.27 571.856 L1621.14 564.595 L1621.43 557.286 L1621.43 557.286  Z" fill="#5e4fa1" fill-rule="evenodd" fill-opacity="1"/>
<polyline clip-path="url(#clip212)" style="stroke:#000000; stroke-linecap:round; stroke-linejoin:round; stroke-width:4; stroke-opacity:1; fill:none" points="1621.43,557.286 1621.14,549.978 1620.27,542.717 1618.82,535.547 1616.81,528.515 1614.25,521.664 1611.15,515.039 1607.54,508.681 1603.43,502.63 1598.85,496.925 1593.84,491.601 1588.41,486.693 1582.62,482.231 1576.49,478.244 1570.06,474.756 1563.37,471.79 1556.47,469.364 1549.4,467.495 1542.21,466.193 1534.93,465.467 1527.62,465.322 1520.31,465.758 1513.07,466.772 1505.93,468.359 1498.94,470.509 1492.14,473.206 1485.58,476.436 1479.3,480.176 1473.33,484.404 1467.71,489.093 1462.49,494.213 1457.69,499.732 1453.35,505.615 1449.48,511.824 1446.12,518.321 1443.29,525.064 1441,532.011 1439.27,539.117 1438.12,546.339 1437.53,553.63 1437.53,560.943 1438.12,568.234 1439.27,575.456 1441,582.562 1443.29,589.509 1446.12,596.252 1449.48,602.749 1453.35,608.958 1457.69,614.841 1462.49,620.36 1467.71,625.48 1473.33,630.169 1479.3,634.397 1485.58,638.137 1492.14,641.367 1498.94,644.064 1505.93,646.214 1513.07,647.801 1520.31,648.815 1527.62,649.251 1534.93,649.106 1542.21,648.38 1549.4,647.078 1556.47,645.209 1563.37,642.783 1570.06,639.817 1576.49,636.329 1582.62,632.342 1588.41,627.88 1593.84,622.972 1598.85,617.648 1603.43,611.943 1607.54,605.892 1611.15,599.534 1614.25,592.909 1616.81,586.058 1618.82,579.026 1620.27,571.856 1621.14,564.595 1621.43,557.286 "/>
<path clip-path="url(#clip212)" d="M1829.67 845.61 L1829.37 838.302 L1828.5 831.04 L1827.06 823.871 L1825.05 816.838 L1822.49 809.988 L1819.39 803.363 L1815.77 797.005 L1811.67 790.954 L1807.09 785.249 L1802.07 779.925 L1796.65 775.017 L1790.86 770.555 L1784.73 766.567 L1778.3 763.08 L1771.61 760.114 L1764.71 757.688 L1757.64 755.819 L1750.44 754.517 L1743.17 753.791 L1735.85 753.646 L1728.55 754.082 L1721.31 755.096 L1714.17 756.683 L1707.18 758.832 L1700.38 761.53 L1693.82 764.76 L1687.53 768.5 L1681.57 772.728 L1675.95 777.417 L1670.73 782.537 L1665.93 788.056 L1661.58 793.939 L1657.72 800.148 L1654.36 806.645 L1651.53 813.388 L1649.24 820.335 L1647.51 827.441 L1646.35 834.663 L1645.77 841.953 L1645.77 849.267 L1646.35 856.558 L1647.51 863.779 L1649.24 870.886 L1651.53 877.833 L1654.36 884.576 L1657.72 891.073 L1661.58 897.282 L1665.93 903.165 L1670.73 908.684 L1675.95 913.804 L1681.57 918.492 L1687.53 922.72 L1693.82 926.461 L1700.38 929.69 L1707.18 932.388 L1714.17 934.537 L1721.31 936.124 L1728.55 937.139 L1735.85 937.575 L1743.17 937.43 L1750.44 936.704 L1757.64 935.402 L1764.71 933.532 L1771.61 931.107 L1778.3 928.141 L1784.73 924.653 L1790.86 920.666 L1796.65 916.204 L1802.07 911.295 L1807.09 905.972 L1811.67 900.267 L1815.77 894.216 L1819.39 887.858 L1822.49 881.233 L1825.05 874.382 L1827.06 867.35 L1828.5 860.18 L1829.37 852.918 L1829.67 845.61 L1829.67 845.61  Z" fill="#5e4fa1" fill-rule="evenodd" fill-opacity="1"/>
<polyline clip-path="url(#clip212)" style="stroke:#000000; stroke-linecap:round; stroke-linejoin:round; stroke-width:4; stroke-opacity:1; fill:none" points="1829.67,845.61 1829.37,838.302 1828.5,831.04 1827.06,823.871 1825.05,816.838 1822.49,809.988 1819.39,803.363 1815.77,797.005 1811.67,790.954 1807.09,785.249 1802.07,779.925 1796.65,775.017 1790.86,770.555 1784.73,766.567 1778.3,763.08 1771.61,760.114 1764.71,757.688 1757.64,755.819 1750.44,754.517 1743.17,753.791 1735.85,753.646 1728.55,754.082 1721.31,755.096 1714.17,756.683 1707.18,758.832 1700.38,761.53 1693.82,764.76 1687.53,768.5 1681.57,772.728 1675.95,777.417 1670.73,782.537 1665.93,788.056 1661.58,793.939 1657.72,800.148 1654.36,806.645 1651.53,813.388 1649.24,820.335 1647.51,827.441 1646.35,834.663 1645.77,841.953 1645.77,849.267 1646.35,856.558 1647.51,863.779 1649.24,870.886 1651.53,877.833 1654.36,884.576 1657.72,891.073 1661.58,897.282 1665.93,903.165 1670.73,908.684 1675.95,913.804 1681.57,918.492 1687.53,922.72 1693.82,926.461 1700.38,929.69 1707.18,932.388 1714.17,934.537 1721.31,936.124 1728.55,937.139 1735.85,937.575 1743.17,937.43 1750.44,936.704 1757.64,935.402 1764.71,933.532 1771.61,931.107 1778.3,928.141 1784.73,924.653 1790.86,920.666 1796.65,916.204 1802.07,911.295 1807.09,905.972 1811.67,900.267 1815.77,894.216 1819.39,887.858 1822.49,881.233 1825.05,874.382 1827.06,867.35 1828.5,860.18 1829.37,852.918 1829.67,845.61 "/>
<path clip-path="url(#clip212)" d="M1482.93 1337.68 L1482.64 1330.37 L1481.77 1323.11 L1480.33 1315.94 L1478.32 1308.91 L1475.76 1302.06 L1472.66 1295.44 L1469.04 1289.08 L1464.94 1283.03 L1460.36 1277.32 L1455.34 1272 L1449.92 1267.09 L1444.13 1262.63 L1438 1258.64 L1431.57 1255.15 L1424.88 1252.19 L1417.98 1249.76 L1410.91 1247.89 L1403.71 1246.59 L1396.44 1245.86 L1389.12 1245.72 L1381.82 1246.15 L1374.58 1247.17 L1367.44 1248.76 L1360.45 1250.9 L1353.65 1253.6 L1347.09 1256.83 L1340.8 1260.57 L1334.84 1264.8 L1329.22 1269.49 L1324 1274.61 L1319.2 1280.13 L1314.85 1286.01 L1310.99 1292.22 L1307.63 1298.72 L1304.8 1305.46 L1302.51 1312.41 L1300.78 1319.51 L1299.62 1326.74 L1299.04 1334.03 L1299.04 1341.34 L1299.62 1348.63 L1300.78 1355.85 L1302.51 1362.96 L1304.8 1369.91 L1307.63 1376.65 L1310.99 1383.15 L1314.85 1389.35 L1319.2 1395.24 L1324 1400.76 L1329.22 1405.88 L1334.84 1410.56 L1340.8 1414.79 L1347.09 1418.53 L1353.65 1421.76 L1360.45 1424.46 L1367.44 1426.61 L1374.58 1428.2 L1381.82 1429.21 L1389.12 1429.65 L1396.44 1429.5 L1403.71 1428.78 L1410.91 1427.47 L1417.98 1425.6 L1424.88 1423.18 L1431.57 1420.21 L1438 1416.73 L1444.13 1412.74 L1449.92 1408.28 L1455.34 1403.37 L1460.36 1398.04 L1464.94 1392.34 L1469.04 1386.29 L1472.66 1379.93 L1475.76 1373.31 L1478.32 1366.45 L1480.33 1359.42 L1481.77 1352.25 L1482.64 1344.99 L1482.93 1337.68 L1482.93 1337.68  Z" fill="#5e4fa1" fill-rule="evenodd" fill-opacity="1"/>
<polyline clip-path="url(#clip212)" style="stroke:#000000; stroke-linecap:round; stroke-linejoin:round; stroke-width:4; stroke-opacity:1; fill:none" points="1482.93,1337.68 1482.64,1330.37 1481.77,1323.11 1480.33,1315.94 1478.32,1308.91 1475.76,1302.06 1472.66,1295.44 1469.04,1289.08 1464.94,1283.03 1460.36,1277.32 1455.34,1272 1449.92,1267.09 1444.13,1262.63 1438,1258.64 1431.57,1255.15 1424.88,1252.19 1417.98,1249.76 1410.91,1247.89 1403.71,1246.59 1396.44,1245.86 1389.12,1245.72 1381.82,1246.15 1374.58,1247.17 1367.44,1248.76 1360.45,1250.9 1353.65,1253.6 1347.09,1256.83 1340.8,1260.57 1334.84,1264.8 1329.22,1269.49 1324,1274.61 1319.2,1280.13 1314.85,1286.01 1310.99,1292.22 1307.63,1298.72 1304.8,1305.46 1302.51,1312.41 1300.78,1319.51 1299.62,1326.74 1299.04,1334.03 1299.04,1341.34 1299.62,1348.63 1300.78,1355.85 1302.51,1362.96 1304.8,1369.91 1307.63,1376.65 1310.99,1383.15 1314.85,1389.35 1319.2,1395.24 1324,1400.76 1329.22,1405.88 1334.84,1410.56 1340.8,1414.79 1347.09,1418.53 1353.65,1421.76 1360.45,1424.46 1367.44,1426.61 1374.58,1428.2 1381.82,1429.21 1389.12,1429.65 1396.44,1429.5 1403.71,1428.78 1410.91,1427.47 1417.98,1425.6 1424.88,1423.18 1431.57,1420.21 1438,1416.73 1444.13,1412.74 1449.92,1408.28 1455.34,1403.37 1460.36,1398.04 1464.94,1392.34 1469.04,1386.29 1472.66,1379.93 1475.76,1373.31 1478.32,1366.45 1480.33,1359.42 1481.77,1352.25 1482.64,1344.99 1482.93,1337.68 "/>
<path clip-path="url(#clip212)" d="M1751.01 1288.83 L1750.72 1281.52 L1749.85 1274.26 L1748.41 1267.09 L1746.4 1260.06 L1743.83 1253.21 L1740.74 1246.58 L1737.12 1240.23 L1733.01 1234.18 L1728.44 1228.47 L1723.42 1223.15 L1718 1218.24 L1712.2 1213.78 L1706.07 1209.79 L1699.64 1206.3 L1692.96 1203.34 L1686.06 1200.91 L1678.99 1199.04 L1671.79 1197.74 L1664.51 1197.01 L1657.2 1196.87 L1649.9 1197.3 L1642.66 1198.32 L1635.52 1199.9 L1628.53 1202.05 L1621.73 1204.75 L1615.17 1207.98 L1608.88 1211.72 L1602.91 1215.95 L1597.3 1220.64 L1592.08 1225.76 L1587.28 1231.28 L1582.93 1237.16 L1579.07 1243.37 L1575.71 1249.87 L1572.87 1256.61 L1570.59 1263.56 L1568.86 1270.66 L1567.7 1277.88 L1567.12 1285.18 L1567.12 1292.49 L1567.7 1299.78 L1568.86 1307 L1570.59 1314.11 L1572.87 1321.05 L1575.71 1327.8 L1579.07 1334.29 L1582.93 1340.5 L1587.28 1346.39 L1592.08 1351.91 L1597.3 1357.03 L1602.91 1361.71 L1608.88 1365.94 L1615.17 1369.68 L1621.73 1372.91 L1628.53 1375.61 L1635.52 1377.76 L1642.66 1379.35 L1649.9 1380.36 L1657.2 1380.8 L1664.51 1380.65 L1671.79 1379.93 L1678.99 1378.62 L1686.06 1376.75 L1692.96 1374.33 L1699.64 1371.36 L1706.07 1367.88 L1712.2 1363.89 L1718 1359.43 L1723.42 1354.52 L1728.44 1349.19 L1733.01 1343.49 L1737.12 1337.44 L1740.74 1331.08 L1743.83 1324.45 L1746.4 1317.6 L1748.41 1310.57 L1749.85 1303.4 L1750.72 1296.14 L1751.01 1288.83 L1751.01 1288.83  Z" fill="#5e4fa1" fill-rule="evenodd" fill-opacity="1"/>
<polyline clip-path="url(#clip212)" style="stroke:#000000; stroke-linecap:round; stroke-linejoin:round; stroke-width:4; stroke-opacity:1; fill:none" points="1751.01,1288.83 1750.72,1281.52 1749.85,1274.26 1748.41,1267.09 1746.4,1260.06 1743.83,1253.21 1740.74,1246.58 1737.12,1240.23 1733.01,1234.18 1728.44,1228.47 1723.42,1223.15 1718,1218.24 1712.2,1213.78 1706.07,1209.79 1699.64,1206.3 1692.96,1203.34 1686.06,1200.91 1678.99,1199.04 1671.79,1197.74 1664.51,1197.01 1657.2,1196.87 1649.9,1197.3 1642.66,1198.32 1635.52,1199.9 1628.53,1202.05 1621.73,1204.75 1615.17,1207.98 1608.88,1211.72 1602.91,1215.95 1597.3,1220.64 1592.08,1225.76 1587.28,1231.28 1582.93,1237.16 1579.07,1243.37 1575.71,1249.87 1572.87,1256.61 1570.59,1263.56 1568.86,1270.66 1567.7,1277.88 1567.12,1285.18 1567.12,1292.49 1567.7,1299.78 1568.86,1307 1570.59,1314.11 1572.87,1321.05 1575.71,1327.8 1579.07,1334.29 1582.93,1340.5 1587.28,1346.39 1592.08,1351.91 1597.3,1357.03 1602.91,1361.71 1608.88,1365.94 1615.17,1369.68 1621.73,1372.91 1628.53,1375.61 1635.52,1377.76 1642.66,1379.35 1649.9,1380.36 1657.2,1380.8 1664.51,1380.65 1671.79,1379.93 1678.99,1378.62 1686.06,1376.75 1692.96,1374.33 1699.64,1371.36 1706.07,1367.88 1712.2,1363.89 1718,1359.43 1723.42,1354.52 1728.44,1349.19 1733.01,1343.49 1737.12,1337.44 1740.74,1331.08 1743.83,1324.45 1746.4,1317.6 1748.41,1310.57 1749.85,1303.4 1750.72,1296.14 1751.01,1288.83 "/>
<path clip-path="url(#clip212)" d="M1424.83 883.446 L1424.54 876.138 L1423.67 868.876 L1422.23 861.706 L1420.22 854.674 L1417.66 847.823 L1414.56 841.198 L1410.94 834.84 L1406.83 828.789 L1402.26 823.084 L1397.24 817.761 L1391.82 812.852 L1386.02 808.39 L1379.89 804.403 L1373.46 800.915 L1366.78 797.949 L1359.88 795.524 L1352.81 793.654 L1345.61 792.352 L1338.33 791.626 L1331.02 791.481 L1323.72 791.917 L1316.48 792.932 L1309.34 794.519 L1302.35 796.668 L1295.55 799.366 L1288.99 802.595 L1282.7 806.336 L1276.73 810.564 L1271.12 815.252 L1265.9 820.372 L1261.1 825.891 L1256.75 831.774 L1252.89 837.983 L1249.53 844.48 L1246.7 851.223 L1244.41 858.17 L1242.68 865.277 L1241.52 872.498 L1240.94 879.789 L1240.94 887.103 L1241.52 894.393 L1242.68 901.615 L1244.41 908.721 L1246.7 915.668 L1249.53 922.411 L1252.89 928.908 L1256.75 935.118 L1261.1 941 L1265.9 946.519 L1271.12 951.639 L1276.73 956.328 L1282.7 960.556 L1288.99 964.296 L1295.55 967.526 L1302.35 970.224 L1309.34 972.373 L1316.48 973.96 L1323.72 974.974 L1331.02 975.41 L1338.33 975.265 L1345.61 974.539 L1352.81 973.237 L1359.88 971.368 L1366.78 968.942 L1373.46 965.976 L1379.89 962.489 L1386.02 958.501 L1391.82 954.039 L1397.24 949.131 L1402.26 943.807 L1406.83 938.102 L1410.94 932.051 L1414.56 925.693 L1417.66 919.068 L1420.22 912.218 L1422.23 905.185 L1423.67 898.016 L1424.54 890.754 L1424.83 883.446 L1424.83 883.446  Z" fill="#5e4fa1" fill-rule="evenodd" fill-opacity="1"/>
<polyline clip-path="url(#clip212)" style="stroke:#000000; stroke-linecap:round; stroke-linejoin:round; stroke-width:4; stroke-opacity:1; fill:none" points="1424.83,883.446 1424.54,876.138 1423.67,868.876 1422.23,861.706 1420.22,854.674 1417.66,847.823 1414.56,841.198 1410.94,834.84 1406.83,828.789 1402.26,823.084 1397.24,817.761 1391.82,812.852 1386.02,808.39 1379.89,804.403 1373.46,800.915 1366.78,797.949 1359.88,795.524 1352.81,793.654 1345.61,792.352 1338.33,791.626 1331.02,791.481 1323.72,791.917 1316.48,792.932 1309.34,794.519 1302.35,796.668 1295.55,799.366 1288.99,802.595 1282.7,806.336 1276.73,810.564 1271.12,815.252 1265.9,820.372 1261.1,825.891 1256.75,831.774 1252.89,837.983 1249.53,844.48 1246.7,851.223 1244.41,858.17 1242.68,865.277 1241.52,872.498 1240.94,879.789 1240.94,887.103 1241.52,894.393 1242.68,901.615 1244.41,908.721 1246.7,915.668 1249.53,922.411 1252.89,928.908 1256.75,935.118 1261.1,941 1265.9,946.519 1271.12,951.639 1276.73,956.328 1282.7,960.556 1288.99,964.296 1295.55,967.526 1302.35,970.224 1309.34,972.373 1316.48,973.96 1323.72,974.974 1331.02,975.41 1338.33,975.265 1345.61,974.539 1352.81,973.237 1359.88,971.368 1366.78,968.942 1373.46,965.976 1379.89,962.489 1386.02,958.501 1391.82,954.039 1397.24,949.131 1402.26,943.807 1406.83,938.102 1410.94,932.051 1414.56,925.693 1417.66,919.068 1420.22,912.218 1422.23,905.185 1423.67,898.016 1424.54,890.754 1424.83,883.446 "/>
<circle clip-path="url(#clip212)" cx="662.317" cy="887.675" r="0.36" fill="#5e4fa1" fill-rule="evenodd" fill-opacity="1" stroke="#000000" stroke-opacity="1" stroke-width="3.2"/>
<circle clip-path="url(#clip212)" cx="773.121" cy="262.317" r="0.36" fill="#5e4fa1" fill-rule="evenodd" fill-opacity="1" stroke="#000000" stroke-opacity="1" stroke-width="3.2"/>
<circle clip-path="url(#clip212)" cx="1529.44" cy="557.286" r="0.36" fill="#5e4fa1" fill-rule="evenodd" fill-opacity="1" stroke="#000000" stroke-opacity="1" stroke-width="3.2"/>
<circle clip-path="url(#clip212)" cx="1737.68" cy="845.61" r="0.36" fill="#5e4fa1" fill-rule="evenodd" fill-opacity="1" stroke="#000000" stroke-opacity="1" stroke-width="3.2"/>
<circle clip-path="url(#clip212)" cx="1390.95" cy="1337.68" r="0.36" fill="#5e4fa1" fill-rule="evenodd" fill-opacity="1" stroke="#000000" stroke-opacity="1" stroke-width="3.2"/>
<circle clip-path="url(#clip212)" cx="1659.03" cy="1288.83" r="0.36" fill="#5e4fa1" fill-rule="evenodd" fill-opacity="1" stroke="#000000" stroke-opacity="1" stroke-width="3.2"/>
<circle clip-path="url(#clip212)" cx="1332.85" cy="883.446" r="0.36" fill="#5e4fa1" fill-rule="evenodd" fill-opacity="1" stroke="#000000" stroke-opacity="1" stroke-width="3.2"/>
<path clip-path="url(#clip210)" d="M622.213 898.481 L622.213 890.359 L615.529 890.359 L615.529 886.997 L626.264 886.997 L626.264 899.98 Q623.894 901.661 621.038 902.532 Q618.183 903.383 614.942 903.383 Q607.853 903.383 603.842 899.251 Q599.852 895.099 599.852 887.706 Q599.852 880.293 603.842 876.161 Q607.853 872.008 614.942 872.008 Q617.899 872.008 620.552 872.738 Q623.226 873.467 625.474 874.885 L625.474 879.239 Q623.206 877.315 620.654 876.343 Q618.102 875.371 615.286 875.371 Q609.736 875.371 606.941 878.47 Q604.166 881.569 604.166 887.706 Q604.166 893.823 606.941 896.922 Q609.736 900.02 615.286 900.02 Q617.453 900.02 619.155 899.656 Q620.856 899.271 622.213 898.481 Z" fill="#000000" fill-rule="nonzero" fill-opacity="1" /><path clip-path="url(#clip210)" d="M646.012 875.33 Q641.556 875.33 638.923 878.652 Q636.31 881.974 636.31 887.706 Q636.31 893.418 638.923 896.739 Q641.556 900.061 646.012 900.061 Q650.468 900.061 653.061 896.739 Q655.674 893.418 655.674 887.706 Q655.674 881.974 653.061 878.652 Q650.468 875.33 646.012 875.33 M646.012 872.008 Q652.372 872.008 656.18 876.282 Q659.988 880.536 659.988 887.706 Q659.988 894.856 656.18 899.129 Q652.372 903.383 646.012 903.383 Q639.632 903.383 635.804 899.129 Q631.996 894.876 631.996 887.706 Q631.996 880.536 635.804 876.282 Q639.632 872.008 646.012 872.008 Z" fill="#000000" fill-rule="nonzero" fill-opacity="1" /><path clip-path="url(#clip210)" d="M678.663 875.33 Q674.207 875.33 671.574 878.652 Q668.961 881.974 668.961 887.706 Q668.961 893.418 671.574 896.739 Q674.207 900.061 678.663 900.061 Q683.119 900.061 685.711 896.739 Q688.324 893.418 688.324 887.706 Q688.324 881.974 685.711 878.652 Q683.119 875.33 678.663 875.33 M678.663 872.008 Q685.023 872.008 688.83 876.282 Q692.638 880.536 692.638 887.706 Q692.638 894.856 688.83 899.129 Q685.023 903.383 678.663 903.383 Q672.282 903.383 668.454 899.129 Q664.646 894.876 664.646 887.706 Q664.646 880.536 668.454 876.282 Q672.282 872.008 678.663 872.008 Z" fill="#000000" fill-rule="nonzero" fill-opacity="1" /><path clip-path="url(#clip210)" d="M719.658 898.481 L719.658 890.359 L712.974 890.359 L712.974 886.997 L723.709 886.997 L723.709 899.98 Q721.339 901.661 718.483 902.532 Q715.627 903.383 712.386 903.383 Q705.297 903.383 701.287 899.251 Q697.297 895.099 697.297 887.706 Q697.297 880.293 701.287 876.161 Q705.297 872.008 712.386 872.008 Q715.344 872.008 717.997 872.738 Q720.67 873.467 722.919 874.885 L722.919 879.239 Q720.65 877.315 718.098 876.343 Q715.546 875.371 712.731 875.371 Q707.181 875.371 704.386 878.47 Q701.611 881.569 701.611 887.706 Q701.611 893.823 704.386 896.922 Q707.181 900.02 712.731 900.02 Q714.898 900.02 716.599 899.656 Q718.301 899.271 719.658 898.481 Z" fill="#000000" fill-rule="nonzero" fill-opacity="1" /><path clip-path="url(#clip210)" d="M725.493 251.228 L719.943 266.277 L731.063 266.277 L725.493 251.228 M723.184 247.197 L727.822 247.197 L739.347 277.437 L735.094 277.437 L732.339 269.68 L718.708 269.68 L715.953 277.437 L711.639 277.437 L723.184 247.197 Z" fill="#000000" fill-rule="nonzero" fill-opacity="1" /><path clip-path="url(#clip210)" d="M743.762 247.197 L749.859 247.197 L757.576 267.776 L765.334 247.197 L771.43 247.197 L771.43 277.437 L767.44 277.437 L767.44 250.884 L759.642 271.624 L755.53 271.624 L747.732 250.884 L747.732 277.437 L743.762 277.437 L743.762 247.197 Z" fill="#000000" fill-rule="nonzero" fill-opacity="1" /><path clip-path="url(#clip210)" d="M777.81 247.197 L801.569 247.197 L801.569 250.316 L782.449 273.994 L802.035 273.994 L802.035 277.437 L777.344 277.437 L777.344 274.318 L796.465 250.64 L777.81 250.64 L777.81 247.197 Z" fill="#000000" fill-rule="nonzero" fill-opacity="1" /><path clip-path="url(#clip210)" d="M807.969 247.197 L813.479 247.197 L826.887 272.495 L826.887 247.197 L830.857 247.197 L830.857 277.437 L825.348 277.437 L811.939 252.139 L811.939 277.437 L807.969 277.437 L807.969 247.197 Z" fill="#000000" fill-rule="nonzero" fill-opacity="1" /><path clip-path="url(#clip210)" d="M1523.25 542.166 L1548.83 542.166 L1548.83 545.61 L1538.09 545.61 L1538.09 572.406 L1533.98 572.406 L1533.98 545.61 L1523.25 545.61 L1523.25 542.166 Z" fill="#000000" fill-rule="nonzero" fill-opacity="1" /><path clip-path="url(#clip210)" d="M1712.45 846.289 L1712.45 857.368 L1719.01 857.368 Q1722.31 857.368 1723.89 856.011 Q1725.49 854.634 1725.49 851.818 Q1725.49 848.983 1723.89 847.646 Q1722.31 846.289 1719.01 846.289 L1712.45 846.289 M1712.45 833.853 L1712.45 842.967 L1718.5 842.967 Q1721.5 842.967 1722.96 841.853 Q1724.44 840.719 1724.44 838.41 Q1724.44 836.121 1722.96 834.987 Q1721.5 833.853 1718.5 833.853 L1712.45 833.853 M1708.35 830.49 L1718.81 830.49 Q1723.48 830.49 1726.02 832.435 Q1728.55 834.379 1728.55 837.964 Q1728.55 840.739 1727.25 842.38 Q1725.96 844.02 1723.44 844.425 Q1726.46 845.074 1728.12 847.14 Q1729.8 849.185 1729.8 852.264 Q1729.8 856.315 1727.05 858.523 Q1724.29 860.73 1719.21 860.73 L1708.35 860.73 L1708.35 830.49 Z" fill="#000000" fill-rule="nonzero" fill-opacity="1" /><path clip-path="url(#clip210)" d="M1740.9 846.289 L1740.9 857.368 L1747.47 857.368 Q1750.77 857.368 1752.35 856.011 Q1753.95 854.634 1753.95 851.818 Q1753.95 848.983 1752.35 847.646 Q1750.77 846.289 1747.47 846.289 L1740.9 846.289 M1740.9 833.853 L1740.9 842.967 L1746.96 842.967 Q1749.96 842.967 1751.42 841.853 Q1752.89 840.719 1752.89 838.41 Q1752.89 836.121 1751.42 834.987 Q1749.96 833.853 1746.96 833.853 L1740.9 833.853 M1736.81 830.49 L1747.26 830.49 Q1751.94 830.49 1754.47 832.435 Q1757.01 834.379 1757.01 837.964 Q1757.01 840.739 1755.71 842.38 Q1754.41 844.02 1751.9 844.425 Q1754.92 845.074 1756.58 847.14 Q1758.26 849.185 1758.26 852.264 Q1758.26 856.315 1755.51 858.523 Q1752.75 860.73 1747.67 860.73 L1736.81 860.73 L1736.81 830.49 Z" fill="#000000" fill-rule="nonzero" fill-opacity="1" /><path clip-path="url(#clip210)" d="M1758.85 830.49 L1763.24 830.49 L1771.63 842.927 L1779.95 830.49 L1784.35 830.49 L1773.65 846.329 L1773.65 860.73 L1769.54 860.73 L1769.54 846.329 L1758.85 830.49 Z" fill="#000000" fill-rule="nonzero" fill-opacity="1" /><path clip-path="url(#clip210)" d="M1362.94 1322.56 L1369.04 1322.56 L1376.75 1343.14 L1384.51 1322.56 L1390.61 1322.56 L1390.61 1352.8 L1386.62 1352.8 L1386.62 1326.25 L1378.82 1346.99 L1374.71 1346.99 L1366.91 1326.25 L1366.91 1352.8 L1362.94 1352.8 L1362.94 1322.56 Z" fill="#000000" fill-rule="nonzero" fill-opacity="1" /><path clip-path="url(#clip210)" d="M1408.84 1326.59 L1403.29 1341.64 L1414.41 1341.64 L1408.84 1326.59 M1406.53 1322.56 L1411.17 1322.56 L1422.69 1352.8 L1418.44 1352.8 L1415.68 1345.05 L1402.05 1345.05 L1399.3 1352.8 L1394.98 1352.8 L1406.53 1322.56 Z" fill="#000000" fill-rule="nonzero" fill-opacity="1" /><path clip-path="url(#clip210)" d="M1636.24 1277.07 L1636.24 1288.44 L1641.39 1288.44 Q1644.24 1288.44 1645.8 1286.96 Q1647.36 1285.48 1647.36 1282.75 Q1647.36 1280.03 1645.8 1278.55 Q1644.24 1277.07 1641.39 1277.07 L1636.24 1277.07 M1632.15 1273.71 L1641.39 1273.71 Q1646.47 1273.71 1649.06 1276.02 Q1651.68 1278.31 1651.68 1282.75 Q1651.68 1287.22 1649.06 1289.51 Q1646.47 1291.8 1641.39 1291.8 L1636.24 1291.8 L1636.24 1303.95 L1632.15 1303.95 L1632.15 1273.71 Z" fill="#000000" fill-rule="nonzero" fill-opacity="1" /><path clip-path="url(#clip210)" d="M1657.17 1273.71 L1674.54 1273.71 L1674.54 1277.16 L1661.26 1277.16 L1661.26 1286.07 L1673.25 1286.07 L1673.25 1289.51 L1661.26 1289.51 L1661.26 1303.95 L1657.17 1303.95 L1657.17 1273.71 Z" fill="#000000" fill-rule="nonzero" fill-opacity="1" /><path clip-path="url(#clip210)" d="M1681.03 1273.71 L1700.15 1273.71 L1700.15 1277.16 L1685.12 1277.16 L1685.12 1286.11 L1699.52 1286.11 L1699.52 1289.55 L1685.12 1289.55 L1685.12 1300.51 L1700.51 1300.51 L1700.51 1303.95 L1681.03 1303.95 L1681.03 1273.71 Z" fill="#000000" fill-rule="nonzero" fill-opacity="1" /><path clip-path="url(#clip210)" d="M1307 868.326 L1311.09 868.326 L1311.09 896.459 Q1311.09 901.928 1309 904.399 Q1306.93 906.87 1302.34 906.87 L1300.78 906.87 L1300.78 903.427 L1302.05 903.427 Q1304.77 903.427 1305.88 901.908 Q1307 900.389 1307 896.459 L1307 868.326 Z" fill="#000000" fill-rule="nonzero" fill-opacity="1" /><path clip-path="url(#clip210)" d="M1323.32 871.688 L1323.32 883.051 L1328.46 883.051 Q1331.32 883.051 1332.88 881.572 Q1334.44 880.094 1334.44 877.359 Q1334.44 874.645 1332.88 873.167 Q1331.32 871.688 1328.46 871.688 L1323.32 871.688 M1319.23 868.326 L1328.46 868.326 Q1333.55 868.326 1336.14 870.635 Q1338.75 872.923 1338.75 877.359 Q1338.75 881.835 1336.14 884.124 Q1333.55 886.413 1328.46 886.413 L1323.32 886.413 L1323.32 898.566 L1319.23 898.566 L1319.23 868.326 Z" fill="#000000" fill-rule="nonzero" fill-opacity="1" /><path clip-path="url(#clip210)" d="M1344.24 868.326 L1350.34 868.326 L1358.06 888.904 L1365.81 868.326 L1371.91 868.326 L1371.91 898.566 L1367.92 898.566 L1367.92 872.012 L1360.12 892.753 L1356.01 892.753 L1348.21 872.012 L1348.21 898.566 L1344.24 898.566 L1344.24 868.326 Z" fill="#000000" fill-rule="nonzero" fill-opacity="1" /></svg>
