<?xml version="1.0" encoding="utf-8"?>
<svg xmlns="http://www.w3.org/2000/svg" xmlns:xlink="http://www.w3.org/1999/xlink" width="600" height="400" viewBox="0 0 2400 1600">
<defs>
  <clipPath id="clip280">
    <rect x="0" y="0" width="2400" height="1600"/>
  </clipPath>
</defs>
<path clip-path="url(#clip280)" d="M0 1600 L2400 1600 L2400 0 L0 0  Z" fill="#ffffff" fill-rule="evenodd" fill-opacity="1"/>
<defs>
  <clipPath id="clip281">
    <rect x="480" y="0" width="1681" height="1600"/>
  </clipPath>
</defs>
<path clip-path="url(#clip280)" d="M447.244 1552.76 L1952.76 1552.76 L1952.76 47.2441 L447.244 47.2441  Z" fill="#ffffff" fill-rule="evenodd" fill-opacity="1"/>
<defs>
  <clipPath id="clip282">
    <rect x="447" y="47" width="1507" height="1507"/>
  </clipPath>
</defs>
<polyline clip-path="url(#clip282)" style="stroke:#000000; stroke-linecap:round; stroke-linejoin:round; stroke-width:4; stroke-opacity:1; fill:none" points="856.309,475.155 662.317,262.317 "/>
<polyline clip-path="url(#clip282)" style="stroke:#000000; stroke-linecap:round; stroke-linejoin:round; stroke-width:4; stroke-opacity:1; fill:none" points="856.309,475.155 1050,697.965 "/>
<polyline clip-path="url(#clip282)" style="stroke:#000000; stroke-linecap:round; stroke-linejoin:round; stroke-width:4; stroke-opacity:1; fill:none" points="1497.16,853.877 1737.68,795.438 "/>
<polyline clip-path="url(#clip282)" style="stroke:#000000; stroke-linecap:round; stroke-linejoin:round; stroke-width:4; stroke-opacity:1; fill:none" points="1497.16,853.877 1246.58,947.676 "/>
<polyline clip-path="url(#clip282)" style="stroke:#000000; stroke-linecap:round; stroke-linejoin:round; stroke-width:4; stroke-opacity:1; fill:none" points="1196.78,1337.68 1246.58,947.676 "/>
<polyline clip-path="url(#clip282)" style="stroke:#000000; stroke-linecap:round; stroke-linejoin:round; stroke-width:4; stroke-opacity:1; fill:none" points="1050,697.965 1246.58,947.676 "/>
<path clip-path="url(#clip282)" d="M948.292 475.155 L948.001 467.847 L947.131 460.585 L945.686 453.416 L943.676 446.383 L941.114 439.533 L938.016 432.908 L934.401 426.55 L930.292 420.499 L925.716 414.794 L920.701 409.47 L915.279 404.562 L909.483 400.1 L903.352 396.112 L896.923 392.625 L890.238 389.659 L883.338 387.233 L876.267 385.364 L869.07 384.062 L861.792 383.336 L854.48 383.191 L847.179 383.627 L839.936 384.641 L832.796 386.228 L825.806 388.377 L819.007 391.075 L812.445 394.305 L806.16 398.045 L800.192 402.273 L794.579 406.962 L789.356 412.082 L784.557 417.601 L780.211 423.484 L776.346 429.693 L772.987 436.19 L770.155 442.933 L767.867 449.88 L766.138 456.986 L764.98 464.208 L764.399 471.498 L764.399 478.812 L764.98 486.103 L766.138 493.325 L767.867 500.431 L770.155 507.378 L772.987 514.121 L776.346 520.618 L780.211 526.827 L784.557 532.71 L789.356 538.229 L794.579 543.349 L800.192 548.037 L806.16 552.266 L812.445 556.006 L819.007 559.236 L825.806 561.933 L832.796 564.083 L839.936 565.669 L847.179 566.684 L854.48 567.12 L861.792 566.975 L869.07 566.249 L876.267 564.947 L883.338 563.077 L890.238 560.652 L896.923 557.686 L903.352 554.198 L909.483 550.211 L915.279 545.749 L920.701 540.841 L925.716 535.517 L930.292 529.812 L934.401 523.761 L938.016 517.403 L941.114 510.778 L943.676 503.927 L945.686 496.895 L947.131 489.725 L948.001 482.463 L948.292 475.155 L948.292 475.155  Z" fill="#9e0142" fill-rule="evenodd" fill-opacity="1"/>
<polyline clip-path="url(#clip282)" style="stroke:#000000; stroke-linecap:round; stroke-linejoin:round; stroke-width:4; stroke-opacity:1; fill:none" points="948.292,475.155 948.001,467.847 947.131,460.585 945.686,453.416 943.676,446.383 941.114,439.533 938.016,432.908 934.401,426.55 930.292,420.499 925.716,414.794 920.701,409.47 915.279,404.562 909.483,400.1 903.352,396.112 896.923,392.625 890.238,389.659 883.338,387.233 876.267,385.364 869.07,384.062 861.792,383.336 854.48,383.191 847.179,383.627 839.936,384.641 832.796,386.228 825.806,388.377 819.007,391.075 812.445,394.305 806.16,398.045 800.192,402.273 794.579,406.962 789.356,412.082 784.557,417.601 780.211,423.484 776.346,429.693 772.987,436.19 770.155,442.933 767.867,449.88 766.138,456.986 764.98,464.208 764.399,471.498 764.399,478.812 764.98,486.103 766.138,493.325 767.867,500.431 770.155,507.378 772.987,514.121 776.346,520.618 780.211,526.827 784.557,532.71 789.356,538.229 794.579,543.349 800.192,548.037 806.16,552.266 812.445,556.006 819.007,559.236 825.806,561.933 832.796,564.083 839.936,565.669 847.179,566.684 854.48,567.12 861.792,566.975 869.07,566.249 876.267,564.947 883.338,563.077 890.238,560.652 896.923,557.686 903.352,554.198 909.483,550.211 915.279,545.749 920.701,540.841 925.716,535.517 930.292,529.812 934.401,523.761 938.016,517.403 941.114,510.778 943.676,503.927 945.686,496.895 947.131,489.725 948.001,482.463 948.292,475.155 "/>
<path clip-path="url(#clip282)" d="M754.3 262.317 L754.009 255.009 L753.139 247.747 L751.694 240.578 L749.684 233.545 L747.122 226.695 L744.024 220.07 L740.409 213.712 L736.301 207.661 L731.724 201.956 L726.709 196.632 L721.287 191.724 L715.492 187.262 L709.361 183.274 L702.932 179.787 L696.246 176.821 L689.346 174.395 L682.276 172.526 L675.079 171.224 L667.801 170.498 L660.488 170.352 L653.188 170.788 L645.944 171.803 L638.805 173.39 L631.814 175.539 L625.016 178.237 L618.454 181.466 L612.169 185.207 L606.201 189.435 L600.588 194.124 L595.365 199.244 L590.565 204.763 L586.219 210.645 L582.355 216.855 L578.995 223.351 L576.163 230.095 L573.875 237.041 L572.147 244.148 L570.988 251.37 L570.407 258.66 L570.407 265.974 L570.988 273.265 L572.147 280.486 L573.875 287.593 L576.163 294.54 L578.995 301.283 L582.355 307.78 L586.219 313.989 L590.565 319.872 L595.365 325.39 L600.588 330.51 L606.201 335.199 L612.169 339.427 L618.454 343.168 L625.016 346.397 L631.814 349.095 L638.805 351.244 L645.944 352.831 L653.188 353.846 L660.488 354.282 L667.801 354.137 L675.079 353.411 L682.276 352.109 L689.346 350.239 L696.246 347.814 L702.932 344.848 L709.361 341.36 L715.492 337.373 L721.287 332.911 L726.709 328.002 L731.724 322.679 L736.301 316.974 L740.409 310.923 L744.024 304.565 L747.122 297.94 L749.684 291.089 L751.694 284.057 L753.139 276.887 L754.009 269.625 L754.3 262.317 L754.3 262.317  Z" fill="#9e0142" fill-rule="evenodd" fill-opacity="1"/>
<polyline clip-path="url(#clip282)" style="stroke:#000000; stroke-linecap:round; stroke-linejoin:round; stroke-width:4; stroke-opacity:1; fill:none" points="754.3,262.317 754.009,255.009 753.139,247.747 751.694,240.578 749.684,233.545 747.122,226.695 744.024,220.07 740.409,213.712 736.301,207.661 731.724,201.956 726.709,196.632 721.287,191.724 715.492,187.262 709.361,183.274 702.932,179.787 696.246,176.821 689.346,174.395 682.276,172.526 675.079,171.224 667.801,170.498 660.488,170.352 653.188,170.788 645.944,171.803 638.805,173.39 631.814,175.539 625.016,178.237 618.454,181.466 612.169,185.207 606.201,189.435 600.588,194.124 595.365,199.244 590.565,204.763 586.219,210.645 582.355,216.855 578.995,223.351 576.163,230.095 573.875,237.041 572.147,244.148 570.988,251.37 570.407,258.66 570.407,265.974 570.988,273.265 572.147,280.486 573.875,287.593 576.163,294.54 578.995,301.283 582.355,307.78 586.219,313.989 590.565,319.872 595.365,325.39 600.588,330.51 606.201,335.199 612.169,339.427 618.454,343.168 625.016,346.397 631.814,349.095 638.805,351.244 645.944,352.831 653.188,353.846 660.488,354.282 667.801,354.137 675.079,353.411 682.276,352.109 689.346,350.239 696.246,347.814 702.932,344.848 709.361,341.36 715.492,337.373 721.287,332.911 726.709,328.002 731.724,322.679 736.301,316.974 740.409,310.923 744.024,304.565 747.122,297.94 749.684,291.089 751.694,284.057 753.139,276.887 754.009,269.625 754.3,262.317 "/>
<path clip-path="url(#clip282)" d="M1589.14 853.877 L1588.85 846.569 L1587.98 839.307 L1586.54 832.137 L1584.53 825.105 L1581.97 818.255 L1578.87 811.629 L1575.25 805.271 L1571.14 799.221 L1566.57 793.515 L1561.55 788.192 L1556.13 783.283 L1550.34 778.821 L1544.2 774.834 L1537.78 771.346 L1531.09 768.38 L1524.19 765.955 L1517.12 764.085 L1509.92 762.784 L1502.64 762.058 L1495.33 761.912 L1488.03 762.348 L1480.79 763.363 L1473.65 764.95 L1466.66 767.099 L1459.86 769.797 L1453.3 773.026 L1447.01 776.767 L1441.04 780.995 L1435.43 785.684 L1430.21 790.804 L1425.41 796.322 L1421.06 802.205 L1417.2 808.414 L1413.84 814.911 L1411.01 821.654 L1408.72 828.601 L1406.99 835.708 L1405.83 842.929 L1405.25 850.22 L1405.25 857.534 L1405.83 864.825 L1406.99 872.046 L1408.72 879.153 L1411.01 886.1 L1413.84 892.843 L1417.2 899.339 L1421.06 905.549 L1425.41 911.431 L1430.21 916.95 L1435.43 922.07 L1441.04 926.759 L1447.01 930.987 L1453.3 934.728 L1459.86 937.957 L1466.66 940.655 L1473.65 942.804 L1480.79 944.391 L1488.03 945.406 L1495.33 945.842 L1502.64 945.696 L1509.92 944.97 L1517.12 943.669 L1524.19 941.799 L1531.09 939.374 L1537.78 936.408 L1544.2 932.92 L1550.34 928.932 L1556.13 924.47 L1561.55 919.562 L1566.57 914.239 L1571.14 908.533 L1575.25 902.483 L1578.87 896.124 L1581.97 889.499 L1584.53 882.649 L1586.54 875.617 L1587.98 868.447 L1588.85 861.185 L1589.14 853.877 L1589.14 853.877  Z" fill="#5e4fa1" fill-rule="evenodd" fill-opacity="1"/>
<polyline clip-path="url(#clip282)" style="stroke:#000000; stroke-linecap:round; stroke-linejoin:round; stroke-width:4; stroke-opacity:1; fill:none" points="1589.14,853.877 1588.85,846.569 1587.98,839.307 1586.54,832.137 1584.53,825.105 1581.97,818.255 1578.87,811.629 1575.25,805.271 1571.14,799.221 1566.57,793.515 1561.55,788.192 1556.13,783.283 1550.34,778.821 1544.2,774.834 1537.78,771.346 1531.09,768.38 1524.19,765.955 1517.12,764.085 1509.92,762.784 1502.64,762.058 1495.33,761.912 1488.03,762.348 1480.79,763.363 1473.65,764.95 1466.66,767.099 1459.86,769.797 1453.3,773.026 1447.01,776.767 1441.04,780.995 1435.43,785.684 1430.21,790.804 1425.41,796.322 1421.06,802.205 1417.2,808.414 1413.84,814.911 1411.01,821.654 1408.72,828.601 1406.99,835.708 1405.83,842.929 1405.25,850.22 1405.25,857.534 1405.83,864.825 1406.99,872.046 1408.72,879.153 1411.01,886.1 1413.84,892.843 1417.2,899.339 1421.06,905.549 1425.41,911.431 1430.21,916.95 1435.43,922.07 1441.04,926.759 1447.01,930.987 1453.3,934.728 1459.86,937.957 1466.66,940.655 1473.65,942.804 1480.79,944.391 1488.03,945.406 1495.33,945.842 1502.64,945.696 1509.92,944.97 1517.12,943.669 1524.19,941.799 1531.09,939.374 1537.78,936.408 1544.2,932.92 1550.34,928.932 1556.13,924.47 1561.55,919.562 1566.57,914.239 1571.14,908.533 1575.25,902.483 1578.87,896.124 1581.97,889.499 1584.53,882.649 1586.54,875.617 1587.98,868.447 1588.85,861.185 1589.14,853.877 "/>
<path clip-path="url(#clip282)" d="M1288.76 1337.68 L1288.47 1330.37 L1287.6 1323.11 L1286.15 1315.94 L1284.14 1308.91 L1281.58 1302.06 L1278.48 1295.44 L1274.87 1289.08 L1270.76 1283.03 L1266.18 1277.32 L1261.17 1272 L1255.75 1267.09 L1249.95 1262.63 L1243.82 1258.64 L1237.39 1255.15 L1230.71 1252.19 L1223.81 1249.76 L1216.73 1247.89 L1209.54 1246.59 L1202.26 1245.86 L1194.95 1245.72 L1187.65 1246.15 L1180.4 1247.17 L1173.26 1248.76 L1166.27 1250.9 L1159.48 1253.6 L1152.91 1256.83 L1146.63 1260.57 L1140.66 1264.8 L1135.05 1269.49 L1129.82 1274.61 L1125.02 1280.13 L1120.68 1286.01 L1116.81 1292.22 L1113.45 1298.72 L1110.62 1305.46 L1108.33 1312.41 L1106.61 1319.51 L1105.45 1326.74 L1104.87 1334.03 L1104.87 1341.34 L1105.45 1348.63 L1106.61 1355.85 L1108.33 1362.96 L1110.62 1369.91 L1113.45 1376.65 L1116.81 1383.15 L1120.68 1389.35 L1125.02 1395.24 L1129.82 1400.76 L1135.05 1405.88 L1140.66 1410.56 L1146.63 1414.79 L1152.91 1418.53 L1159.48 1421.76 L1166.27 1424.46 L1173.26 1426.61 L1180.4 1428.2 L1187.65 1429.21 L1194.95 1429.65 L1202.26 1429.5 L1209.54 1428.78 L1216.73 1427.47 L1223.81 1425.6 L1230.71 1423.18 L1237.39 1420.21 L1243.82 1416.73 L1249.95 1412.74 L1255.75 1408.28 L1261.17 1403.37 L1266.18 1398.04 L1270.76 1392.34 L1274.87 1386.29 L1278.48 1379.93 L1281.58 1373.31 L1284.14 1366.45 L1286.15 1359.42 L1287.6 1352.25 L1288.47 1344.99 L1288.76 1337.68 L1288.76 1337.68  Z" fill="#5e4fa1" fill-rule="evenodd" fill-opacity="1"/>
<polyline clip-path="url(#clip282)" style="stroke:#000000; stroke-linecap:round; stroke-linejoin:round; stroke-width:4; stroke-opacity:1; fill:none" points="1288.76,1337.68 1288.47,1330.37 1287.6,1323.11 1286.15,1315.94 1284.14,1308.91 1281.58,1302.06 1278.48,1295.44 1274.87,1289.08 1270.76,1283.03 1266.18,1277.32 1261.17,1272 1255.75,1267.09 1249.95,1262.63 1243.82,1258.64 1237.39,1255.15 1230.71,1252.19 1223.81,1249.76 1216.73,1247.89 1209.54,1246.59 1202.26,1245.86 1194.95,1245.72 1187.65,1246.15 1180.4,1247.17 1173.26,1248.76 1166.27,1250.9 1159.48,1253.6 1152.91,1256.83 1146.63,1260.57 1140.66,1264.8 1135.05,1269.49 1129.82,1274.61 1125.02,1280.13 1120.68,1286.01 1116.81,1292.22 1113.45,1298.72 1110.62,1305.46 1108.33,1312.41 1106.61,1319.51 1105.45,1326.74 1104.87,1334.03 1104.87,1341.34 1105.45,1348.63 1106.61,1355.85 1108.33,1362.96 1110.62,1369.91 1113.45,1376.65 1116.81,1383.15 1120.68,1389.35 1125.02,1395.24 1129.82,1400.76 1135.05,1405.88 1140.66,1410.56 1146.63,1414.79 1152.91,1418.53 1159.48,1421.76 1166.27,1424.46 1173.26,1426.61 1180.4,1428.2 1187.65,1429.21 1194.95,1429.65 1202.26,1429.5 1209.54,1428.78 1216.73,1427.47 1223.81,1425.6 1230.71,1423.18 1237.39,1420.21 1243.82,1416.73 1249.95,1412.74 1255.75,1408.28 1261.17,1403.37 1266.18,1398.04 1270.76,1392.34 1274.87,1386.29 1278.48,1379.93 1281.58,1373.31 1284.14,1366.45 1286.15,1359.42 1287.6,1352.25 1288.47,1344.99 1288.76,1337.68 "/>
<path clip-path="url(#clip282)" d="M1141.99 697.965 L1141.7 690.657 L1140.83 683.396 L1139.38 676.226 L1137.37 669.193 L1134.81 662.343 L1131.71 655.718 L1128.1 649.36 L1123.99 643.309 L1119.41 637.604 L1114.4 632.28 L1108.97 627.372 L1103.18 622.91 L1097.05 618.923 L1090.62 615.435 L1083.93 612.469 L1077.03 610.043 L1069.96 608.174 L1062.77 606.872 L1055.49 606.146 L1048.18 606.001 L1040.87 606.437 L1033.63 607.451 L1026.49 609.038 L1019.5 611.188 L1012.7 613.885 L1006.14 617.115 L999.855 620.855 L993.887 625.083 L988.274 629.772 L983.052 634.892 L978.252 640.411 L973.906 646.294 L970.041 652.503 L966.682 659 L963.85 665.743 L961.562 672.69 L959.833 679.796 L958.675 687.018 L958.094 694.309 L958.094 701.622 L958.675 708.913 L959.833 716.135 L961.562 723.241 L963.85 730.188 L966.682 736.931 L970.041 743.428 L973.906 749.637 L978.252 755.52 L983.052 761.039 L988.274 766.159 L993.887 770.848 L999.855 775.076 L1006.14 778.816 L1012.7 782.046 L1019.5 784.743 L1026.49 786.893 L1033.63 788.479 L1040.87 789.494 L1048.18 789.93 L1055.49 789.785 L1062.77 789.059 L1069.96 787.757 L1077.03 785.887 L1083.93 783.462 L1090.62 780.496 L1097.05 777.008 L1103.18 773.021 L1108.97 768.559 L1114.4 763.651 L1119.41 758.327 L1123.99 752.622 L1128.1 746.571 L1131.71 740.213 L1134.81 733.588 L1137.37 726.737 L1139.38 719.705 L1140.83 712.535 L1141.7 705.273 L1141.99 697.965 L1141.99 697.965  Z" fill="#5e4fa1" fill-rule="evenodd" fill-opacity="1"/>
<polyline clip-path="url(#clip282)" style="stroke:#000000; stroke-linecap:round; stroke-linejoin:round; stroke-width:4; stroke-opacity:1; fill:none" points="1141.99,697.965 1141.7,690.657 1140.83,683.396 1139.38,676.226 1137.37,669.193 1134.81,662.343 1131.71,655.718 1128.1,649.36 1123.99,643.309 1119.41,637.604 1114.4,632.28 1108.97,627.372 1103.18,622.91 1097.05,618.923 1090.62,615.435 1083.93,612.469 1077.03,610.043 1069.96,608.174 1062.77,606.872 1055.49,606.146 1048.18,606.001 1040.87,606.437 1033.63,607.451 1026.49,609.038 1019.5,611.188 1012.7,613.885 1006.14,617.115 999.855,620.855 993.887,625.083 988.274,629.772 983.052,634.892 978.252,640.411 973.906,646.294 970.041,652.503 966.682,659 963.85,665.743 961.562,672.69 959.833,679.796 958.675,687.018 958.094,694.309 958.094,701.622 958.675,708.913 959.833,716.135 961.562,723.241 963.85,730.188 966.682,736.931 970.041,743.428 973.906,749.637 978.252,755.52 983.052,761.039 988.274,766.159 993.887,770.848 999.855,775.076 1006.14,778.816 1012.7,782.046 1019.5,784.743 1026.49,786.893 1033.63,788.479 1040.87,789.494 1048.18,789.93 1055.49,789.785 1062.77,789.059 1069.96,787.757 1077.03,785.887 1083.93,783.462 1090.62,780.496 1097.05,777.008 1103.18,773.021 1108.97,768.559 1114.4,763.651 1119.41,758.327 1123.99,752.622 1128.1,746.571 1131.71,740.213 1134.81,733.588 1137.37,726.737 1139.38,719.705 1140.83,712.535 1141.7,705.273 1141.99,697.965 1141.99,697.965 "/>
<path clip-path="url(#clip282)" d="M1829.67 795.438 L1829.37 788.13 L1828.5 780.868 L1827.06 773.699 L1825.05 766.666 L1822.49 759.816 L1819.39 753.191 L1815.77 746.833 L1811.67 740.782 L1807.09 735.077 L1802.07 729.753 L1796.65 724.845 L1790.86 720.383 L1784.73 716.395 L1778.3 712.908 L1771.61 709.942 L1764.71 707.516 L1757.64 705.647 L1750.44 704.345 L1743.17 703.619 L1735.85 703.474 L1728.55 703.91 L1721.31 704.924 L1714.17 706.511 L1707.18 708.66 L1700.38 711.358 L1693.82 714.588 L1687.53 718.328 L1681.57 722.556 L1675.95 727.245 L1670.73 732.365 L1665.93 737.884 L1661.58 743.766 L1657.72 749.976 L1654.36 756.473 L1651.53 763.216 L1649.24 770.163 L1647.51 777.269 L1646.35 784.491 L1645.77 791.781 L1645.77 799.095 L1646.35 806.386 L1647.51 813.607 L1649.24 820.714 L1651.53 827.661 L1654.36 834.404 L1657.72 840.901 L1661.58 847.11 L1665.93 852.993 L1670.73 858.512 L1675.95 863.632 L1681.57 868.32 L1687.53 872.548 L1693.82 876.289 L1700.38 879.518 L1707.18 882.216 L1714.17 884.365 L1721.31 885.952 L1728.55 886.967 L1735.85 887.403 L1743.17 887.258 L1750.44 886.532 L1757.64 885.23 L1764.71 883.36 L1771.61 880.935 L1778.3 877.969 L1784.73 874.481 L1790.86 870.494 L1796.65 866.032 L1802.07 861.123 L1807.09 855.8 L1811.67 850.095 L1815.77 844.044 L1819.39 837.686 L1822.49 831.061 L1825.05 824.21 L1827.06 817.178 L1828.5 810.008 L1829.37 802.746 L1829.67 795.438 L1829.67 795.438  Z" fill="#5e4fa1" fill-rule="evenodd" fill-opacity="1"/>
<polyline clip-path="url(#clip282)" style="stroke:#000000; stroke-linecap:round; stroke-linejoin:round; stroke-width:4; stroke-opacity:1; fill:none" points="1829.67,795.438 1829.37,788.13 1828.5,780.868 1827.06,773.699 1825.05,766.666 1822.49,759.816 1819.39,753.191 1815.77,746.833 1811.67,740.782 1807.09,735.077 1802.07,729.753 1796.65,724.845 1790.86,720.383 1784.73,716.395 1778.3,712.908 1771.61,709.942 1764.71,707.516 1757.64,705.647 1750.44,704.345 1743.17,703.619 1735.85,703.474 1728.55,703.91 1721.31,704.924 1714.17,706.511 1707.18,708.66 1700.38,711.358 1693.82,714.588 1687.53,718.328 1681.57,722.556 1675.95,727.245 1670.73,732.365 1665.93,737.884 1661.58,743.766 1657.72,749.976 1654.36,756.473 1651.53,763.216 1649.24,770.163 1647.51,777.269 1646.35,784.491 1645.77,791.781 1645.77,799.095 1646.35,806.386 1647.51,813.607 1649.24,820.714 1651.53,827.661 1654.36,834.404 1657.72,840.901 1661.58,847.11 1665.93,852.993 1670.73,858.512 1675.95,863.632 1681.57,868.32 1687.53,872.548 1693.82,876.289 1700.38,879.518 1707.18,882.216 1714.17,884.365 1721.31,885.952 1728.55,886.967 1735.85,887.403 1743.17,887.258 1750.44,886.532 1757.64,885.23 1764.71,883.36 1771.61,880.935 1778.3,877.969 1784.73,874.481 1790.86,870.494 1796.65,866.032 1802.07,861.123 1807.09,855.8 1811.67,850.095 1815.77,844.044 1819.39,837.686 1822.49,831.061 1825.05,824.21 1827.06,817.178 1828.5,810.008 1829.37,802.746 1829.67,795.438 "/>
<path clip-path="url(#clip282)" d="M1338.56 947.676 L1338.27 940.368 L1337.4 933.106 L1335.96 925.936 L1333.95 918.904 L1331.38 912.054 L1328.29 905.429 L1324.67 899.07 L1320.56 893.02 L1315.99 887.314 L1310.97 881.991 L1305.55 877.083 L1299.75 872.621 L1293.62 868.633 L1287.19 865.145 L1280.51 862.179 L1273.61 859.754 L1266.54 857.884 L1259.34 856.583 L1252.06 855.857 L1244.75 855.711 L1237.45 856.147 L1230.21 857.162 L1223.07 858.749 L1216.08 860.898 L1209.28 863.596 L1202.72 866.825 L1196.43 870.566 L1190.46 874.794 L1184.85 879.483 L1179.63 884.603 L1174.83 890.122 L1170.48 896.004 L1166.62 902.214 L1163.26 908.71 L1160.42 915.453 L1158.14 922.4 L1156.41 929.507 L1155.25 936.728 L1154.67 944.019 L1154.67 951.333 L1155.25 958.624 L1156.41 965.845 L1158.14 972.952 L1160.42 979.899 L1163.26 986.642 L1166.62 993.139 L1170.48 999.348 L1174.83 1005.23 L1179.63 1010.75 L1184.85 1015.87 L1190.46 1020.56 L1196.43 1024.79 L1202.72 1028.53 L1209.28 1031.76 L1216.08 1034.45 L1223.07 1036.6 L1230.21 1038.19 L1237.45 1039.2 L1244.75 1039.64 L1252.06 1039.5 L1259.34 1038.77 L1266.54 1037.47 L1273.61 1035.6 L1280.51 1033.17 L1287.19 1030.21 L1293.62 1026.72 L1299.75 1022.73 L1305.55 1018.27 L1310.97 1013.36 L1315.99 1008.04 L1320.56 1002.33 L1324.67 996.282 L1328.29 989.924 L1331.38 983.298 L1333.95 976.448 L1335.96 969.416 L1337.4 962.246 L1338.27 954.984 L1338.56 947.676 L1338.56 947.676  Z" fill="#5e4fa1" fill-rule="evenodd" fill-opacity="1"/>
<polyline clip-path="url(#clip282)" style="stroke:#000000; stroke-linecap:round; stroke-linejoin:round; stroke-width:4; stroke-opacity:1; fill:none" points="1338.56,947.676 1338.27,940.368 1337.4,933.106 1335.96,925.936 1333.95,918.904 1331.38,912.054 1328.29,905.429 1324.67,899.07 1320.56,893.02 1315.99,887.314 1310.97,881.991 1305.55,877.083 1299.75,872.621 1293.62,868.633 1287.19,865.145 1280.51,862.179 1273.61,859.754 1266.54,857.884 1259.34,856.583 1252.06,855.857 1244.75,855.711 1237.45,856.147 1230.21,857.162 1223.07,858.749 1216.08,860.898 1209.28,863.596 1202.72,866.825 1196.43,870.566 1190.46,874.794 1184.85,879.483 1179.63,884.603 1174.83,890.122 1170.48,896.004 1166.62,902.214 1163.26,908.71 1160.42,915.453 1158.14,922.4 1156.41,929.507 1155.25,936.728 1154.67,944.019 1154.67,951.333 1155.25,958.624 1156.41,965.845 1158.14,972.952 1160.42,979.899 1163.26,986.642 1166.62,993.139 1170.48,999.348 1174.83,1005.23 1179.63,1010.75 1184.85,1015.87 1190.46,1020.56 1196.43,1024.79 1202.72,1028.53 1209.28,1031.76 1216.08,1034.45 1223.07,1036.6 1230.21,1038.19 1237.45,1039.2 1244.75,1039.64 1252.06,1039.5 1259.34,1038.77 1266.54,1037.47 1273.61,1035.6 1280.51,1033.17 1287.19,1030.21 1293.62,1026.72 1299.75,1022.73 1305.55,1018.27 1310.97,1013.36 1315.99,1008.04 1320.56,1002.33 1324.67,996.282 1328.29,989.924 1331.38,983.298 1333.95,976.448 1335.96,969.416 1337.4,962.246 1338.27,954.984 1338.56,947.676 "/>
<circle clip-path="url(#clip282)" cx="856.309" cy="475.155" r="0.36" fill="#5e4fa1" fill-rule="evenodd" fill-opacity="1" stroke="#000000" stroke-opacity="1" stroke-width="3.2"/>
<circle clip-path="url(#clip282)" cx="662.317" cy="262.317" r="0.36" fill="#5e4fa1" fill-rule="evenodd" fill-opacity="1" stroke="#000000" stroke-opacity="1" stroke-width="3.2"/>
<circle clip-path="url(#clip282)" cx="1497.16" cy="853.877" r="0.36" fill="#5e4fa1" fill-rule="evenodd" fill-opacity="1" stroke="#000000" stroke-opacity="1" stroke-width="3.2"/>
<circle clip-path="url(#clip282)" cx="1196.78" cy="1337.68" r="0.36" fill="#5e4fa1" fill-rule="evenodd" fill-opacity="1" stroke="#000000" stroke-opacity="1" stroke-width="3.2"/>
<circle clip-path="url(#clip282)" cx="1050" cy="697.965" r="0.36" fill="#5e4fa1" fill-rule="evenodd" fill-opacity="1" stroke="#000000" stroke-opacity="1" stroke-width="3.2"/>
<circle clip-path="url(#clip282)" cx="1737.68" cy="795.438" r="0.36" fill="#5e4fa1" fill-rule="evenodd" fill-opacity="1" stroke="#000000" stroke-opacity="1" stroke-width="3.2"/>
<circle clip-path="url(#clip282)" cx="1246.58" cy="947.676" r="0.36" fill="#5e4fa1" fill-rule="evenodd" fill-opacity="1" stroke="#000000" stroke-opacity="1" stroke-width="3.2"/>
<path clip-path="url(#clip280)" d="M816.205 485.961 L816.205 477.839 L809.521 477.839 L809.521 474.477 L820.256 474.477 L820.256 487.46 Q817.886 489.141 815.03 490.012 Q812.174 490.863 808.934 490.863 Q801.844 490.863 797.834 486.731 Q793.844 482.579 793.844 475.186 Q793.844 467.773 797.834 463.641 Q801.844 459.489 808.934 459.489 Q811.891 459.489 814.544 460.218 Q817.218 460.947 819.466 462.365 L819.466 466.719 Q817.197 464.795 814.645 463.823 Q812.093 462.851 809.278 462.851 Q803.728 462.851 800.933 465.95 Q798.158 469.049 798.158 475.186 Q798.158 481.303 800.933 484.402 Q803.728 487.501 809.278 487.501 Q811.445 487.501 813.146 487.136 Q814.848 486.751 816.205 485.961 Z" fill="#000000" fill-rule="nonzero" fill-opacity="1" /><path clip-path="url(#clip280)" d="M840.004 462.81 Q835.548 462.81 832.915 466.132 Q830.302 469.454 830.302 475.186 Q830.302 480.898 832.915 484.219 Q835.548 487.541 840.004 487.541 Q844.46 487.541 847.053 484.219 Q849.665 480.898 849.665 475.186 Q849.665 469.454 847.053 466.132 Q844.46 462.81 840.004 462.81 M840.004 459.489 Q846.364 459.489 850.172 463.762 Q853.98 468.016 853.98 475.186 Q853.98 482.336 850.172 486.609 Q846.364 490.863 840.004 490.863 Q833.624 490.863 829.796 486.609 Q825.988 482.356 825.988 475.186 Q825.988 468.016 829.796 463.762 Q833.624 459.489 840.004 459.489 Z" fill="#000000" fill-rule="nonzero" fill-opacity="1" /><path clip-path="url(#clip280)" d="M872.654 462.81 Q868.198 462.81 865.565 466.132 Q862.952 469.454 862.952 475.186 Q862.952 480.898 865.565 484.219 Q868.198 487.541 872.654 487.541 Q877.11 487.541 879.703 484.219 Q882.316 480.898 882.316 475.186 Q882.316 469.454 879.703 466.132 Q877.11 462.81 872.654 462.81 M872.654 459.489 Q879.014 459.489 882.822 463.762 Q886.63 468.016 886.63 475.186 Q886.63 482.336 882.822 486.609 Q879.014 490.863 872.654 490.863 Q866.274 490.863 862.446 486.609 Q858.638 482.356 858.638 475.186 Q858.638 468.016 862.446 463.762 Q866.274 459.489 872.654 459.489 Z" fill="#000000" fill-rule="nonzero" fill-opacity="1" /><path clip-path="url(#clip280)" d="M913.649 485.961 L913.649 477.839 L906.965 477.839 L906.965 474.477 L917.7 474.477 L917.7 487.46 Q915.331 489.141 912.475 490.012 Q909.619 490.863 906.378 490.863 Q899.289 490.863 895.279 486.731 Q891.288 482.579 891.288 475.186 Q891.288 467.773 895.279 463.641 Q899.289 459.489 906.378 459.489 Q909.335 459.489 911.989 460.218 Q914.662 460.947 916.91 462.365 L916.91 466.719 Q914.642 464.795 912.09 463.823 Q909.538 462.851 906.722 462.851 Q901.173 462.851 898.377 465.95 Q895.603 469.049 895.603 475.186 Q895.603 481.303 898.377 484.402 Q901.173 487.501 906.722 487.501 Q908.89 487.501 910.591 487.136 Q912.292 486.751 913.649 485.961 Z" fill="#000000" fill-rule="nonzero" fill-opacity="1" /><path clip-path="url(#clip280)" d="M614.689 251.228 L609.139 266.277 L620.259 266.277 L614.689 251.228 M612.38 247.197 L617.018 247.197 L628.543 277.437 L624.289 277.437 L621.535 269.68 L607.903 269.68 L605.149 277.437 L600.835 277.437 L612.38 247.197 Z" fill="#000000" fill-rule="nonzero" fill-opacity="1" /><path clip-path="url(#clip280)" d="M632.958 247.197 L639.055 247.197 L646.772 267.776 L654.529 247.197 L660.626 247.197 L660.626 277.437 L656.636 277.437 L656.636 250.884 L648.838 271.624 L644.726 271.624 L636.928 250.884 L636.928 277.437 L632.958 277.437 L632.958 247.197 Z" fill="#000000" fill-rule="nonzero" fill-opacity="1" /><path clip-path="url(#clip280)" d="M667.006 247.197 L690.765 247.197 L690.765 250.316 L671.644 273.994 L691.231 273.994 L691.231 277.437 L666.54 277.437 L666.54 274.318 L685.661 250.64 L667.006 250.64 L667.006 247.197 Z" fill="#000000" fill-rule="nonzero" fill-opacity="1" /><path clip-path="url(#clip280)" d="M697.165 247.197 L702.674 247.197 L716.083 272.495 L716.083 247.197 L720.053 247.197 L720.053 277.437 L714.543 277.437 L701.135 252.139 L701.135 277.437 L697.165 277.437 L697.165 247.197 Z" fill="#000000" fill-rule="nonzero" fill-opacity="1" /><path clip-path="url(#clip280)" d="M1490.96 838.757 L1516.54 838.757 L1516.54 842.2 L1505.81 842.2 L1505.81 868.997 L1501.7 868.997 L1501.7 842.2 L1490.96 842.2 L1490.96 838.757 Z" fill="#000000" fill-rule="nonzero" fill-opacity="1" /><path clip-path="url(#clip280)" d="M1171.54 1338.36 L1171.54 1349.44 L1178.1 1349.44 Q1181.4 1349.44 1182.98 1348.08 Q1184.58 1346.71 1184.58 1343.89 Q1184.58 1341.06 1182.98 1339.72 Q1181.4 1338.36 1178.1 1338.36 L1171.54 1338.36 M1171.54 1325.93 L1171.54 1335.04 L1177.6 1335.04 Q1180.59 1335.04 1182.05 1333.93 Q1183.53 1332.79 1183.53 1330.48 Q1183.53 1328.19 1182.05 1327.06 Q1180.59 1325.93 1177.6 1325.93 L1171.54 1325.93 M1167.45 1322.56 L1177.9 1322.56 Q1182.58 1322.56 1185.11 1324.51 Q1187.64 1326.45 1187.64 1330.04 Q1187.64 1332.81 1186.35 1334.45 Q1185.05 1336.09 1182.54 1336.5 Q1185.56 1337.15 1187.22 1339.21 Q1188.9 1341.26 1188.9 1344.34 Q1188.9 1348.39 1186.14 1350.6 Q1183.39 1352.8 1178.3 1352.8 L1167.45 1352.8 L1167.45 1322.56 Z" fill="#000000" fill-rule="nonzero" fill-opacity="1" /><path clip-path="url(#clip280)" d="M1200 1338.36 L1200 1349.44 L1206.56 1349.44 Q1209.86 1349.44 1211.44 1348.08 Q1213.04 1346.71 1213.04 1343.89 Q1213.04 1341.06 1211.44 1339.72 Q1209.86 1338.36 1206.56 1338.36 L1200 1338.36 M1200 1325.93 L1200 1335.04 L1206.05 1335.04 Q1209.05 1335.04 1210.51 1333.93 Q1211.99 1332.79 1211.99 1330.48 Q1211.99 1328.19 1210.51 1327.06 Q1209.05 1325.93 1206.05 1325.93 L1200 1325.93 M1195.91 1322.56 L1206.36 1322.56 Q1211.04 1322.56 1213.57 1324.51 Q1216.1 1326.45 1216.1 1330.04 Q1216.1 1332.81 1214.8 1334.45 Q1213.51 1336.09 1211 1336.5 Q1214.01 1337.15 1215.67 1339.21 Q1217.36 1341.26 1217.36 1344.34 Q1217.36 1348.39 1214.6 1350.6 Q1211.85 1352.8 1206.76 1352.8 L1195.91 1352.8 L1195.91 1322.56 Z" fill="#000000" fill-rule="nonzero" fill-opacity="1" /><path clip-path="url(#clip280)" d="M1217.94 1322.56 L1222.34 1322.56 L1230.72 1335 L1239.05 1322.56 L1243.44 1322.56 L1232.75 1338.4 L1232.75 1352.8 L1228.64 1352.8 L1228.64 1338.4 L1217.94 1322.56 Z" fill="#000000" fill-rule="nonzero" fill-opacity="1" /><path clip-path="url(#clip280)" d="M1021.99 682.845 L1028.09 682.845 L1035.81 703.424 L1043.56 682.845 L1049.66 682.845 L1049.66 713.085 L1045.67 713.085 L1045.67 686.532 L1037.87 707.272 L1033.76 707.272 L1025.96 686.532 L1025.96 713.085 L1021.99 713.085 L1021.99 682.845 Z" fill="#000000" fill-rule="nonzero" fill-opacity="1" /><path clip-path="url(#clip280)" d="M1067.89 686.876 L1062.34 701.925 L1073.46 701.925 L1067.89 686.876 M1065.58 682.845 L1070.22 682.845 L1081.74 713.085 L1077.49 713.085 L1074.73 705.328 L1061.1 705.328 L1058.35 713.085 L1054.03 713.085 L1065.58 682.845 Z" fill="#000000" fill-rule="nonzero" fill-opacity="1" /><path clip-path="url(#clip280)" d="M1714.9 783.681 L1714.9 795.043 L1720.04 795.043 Q1722.9 795.043 1724.46 793.565 Q1726.02 792.086 1726.02 789.352 Q1726.02 786.638 1724.46 785.159 Q1722.9 783.681 1720.04 783.681 L1714.9 783.681 M1710.81 780.318 L1720.04 780.318 Q1725.12 780.318 1727.72 782.627 Q1730.33 784.916 1730.33 789.352 Q1730.33 793.828 1727.72 796.117 Q1725.12 798.406 1720.04 798.406 L1714.9 798.406 L1714.9 810.558 L1710.81 810.558 L1710.81 780.318 Z" fill="#000000" fill-rule="nonzero" fill-opacity="1" /><path clip-path="url(#clip280)" d="M1735.82 780.318 L1753.2 780.318 L1753.2 783.762 L1739.91 783.762 L1739.91 792.674 L1751.9 792.674 L1751.9 796.117 L1739.91 796.117 L1739.91 810.558 L1735.82 810.558 L1735.82 780.318 Z" fill="#000000" fill-rule="nonzero" fill-opacity="1" /><path clip-path="url(#clip280)" d="M1759.68 780.318 L1778.8 780.318 L1778.8 783.762 L1763.77 783.762 L1763.77 792.714 L1778.17 792.714 L1778.17 796.157 L1763.77 796.157 L1763.77 807.115 L1779.16 807.115 L1779.16 810.558 L1759.68 810.558 L1759.68 780.318 Z" fill="#000000" fill-rule="nonzero" fill-opacity="1" /><path clip-path="url(#clip280)" d="M1220.72 932.556 L1224.82 932.556 L1224.82 960.69 Q1224.82 966.158 1222.73 968.629 Q1220.66 971.1 1216.07 971.1 L1214.51 971.1 L1214.51 967.657 L1215.78 967.657 Q1218.5 967.657 1219.61 966.138 Q1220.72 964.619 1220.72 960.69 L1220.72 932.556 Z" fill="#000000" fill-rule="nonzero" fill-opacity="1" /><path clip-path="url(#clip280)" d="M1237.05 935.918 L1237.05 947.281 L1242.19 947.281 Q1245.05 947.281 1246.61 945.802 Q1248.17 944.324 1248.17 941.59 Q1248.17 938.875 1246.61 937.397 Q1245.05 935.918 1242.19 935.918 L1237.05 935.918 M1232.96 932.556 L1242.19 932.556 Q1247.28 932.556 1249.87 934.865 Q1252.48 937.154 1252.48 941.59 Q1252.48 946.066 1249.87 948.355 Q1247.28 950.643 1242.19 950.643 L1237.05 950.643 L1237.05 962.796 L1232.96 962.796 L1232.96 932.556 Z" fill="#000000" fill-rule="nonzero" fill-opacity="1" /><path clip-path="url(#clip280)" d="M1257.97 932.556 L1264.07 932.556 L1271.79 953.135 L1279.54 932.556 L1285.64 932.556 L1285.64 962.796 L1281.65 962.796 L1281.65 936.242 L1273.85 956.983 L1269.74 956.983 L1261.94 936.242 L1261.94 962.796 L1257.97 962.796 L1257.97 932.556 Z" fill="#000000" fill-rule="nonzero" fill-opacity="1" /></svg>
