<?xml version="1.0" encoding="utf-8"?>
<svg xmlns="http://www.w3.org/2000/svg" xmlns:xlink="http://www.w3.org/1999/xlink" width="600" height="400" viewBox="0 0 2400 1600">
<defs>
  <clipPath id="clip280">
    <rect x="0" y="0" width="2400" height="1600"/>
  </clipPath>
</defs>
<path clip-path="url(#clip280)" d="M0 1600 L2400 1600 L2400 0 L0 0  Z" fill="#ffffff" fill-rule="evenodd" fill-opacity="1"/>
<defs>
  <clipPath id="clip281">
    <rect x="480" y="0" width="1681" height="1600"/>
  </clipPath>
</defs>
<path clip-path="url(#clip280)" d="M447.244 1552.76 L1952.76 1552.76 L1952.76 47.2441 L447.244 47.2441  Z" fill="#ffffff" fill-rule="evenodd" fill-opacity="1"/>
<defs>
  <clipPath id="clip282">
    <rect x="447" y="47" width="1507" height="1507"/>
  </clipPath>
</defs>
<polyline clip-path="url(#clip282)" style="stroke:#000000; stroke-linecap:round; stroke-linejoin:round; stroke-width:4; stroke-opacity:1; fill:none" points="1517.21,508.706 1737.68,384.91 "/>
<polyline clip-path="url(#clip282)" style="stroke:#000000; stroke-linecap:round; stroke-linejoin:round; stroke-width:4; stroke-opacity:1; fill:none" points="1517.21,508.706 1294.74,645.223 "/>
<polyline clip-path="url(#clip282)" style="stroke:#000000; stroke-linecap:round; stroke-linejoin:round; stroke-width:4; stroke-opacity:1; fill:none" points="862.513,511.987 662.317,262.317 "/>
<polyline clip-path="url(#clip282)" style="stroke:#000000; stroke-linecap:round; stroke-linejoin:round; stroke-width:4; stroke-opacity:1; fill:none" points="862.513,511.987 1063.61,813.273 "/>
<polyline clip-path="url(#clip282)" style="stroke:#000000; stroke-linecap:round; stroke-linejoin:round; stroke-width:4; stroke-opacity:1; fill:none" points="1019.29,1337.68 1063.61,813.273 "/>
<polyline clip-path="url(#clip282)" style="stroke:#000000; stroke-linecap:round; stroke-linejoin:round; stroke-width:4; stroke-opacity:1; fill:none" points="1294.74,645.223 1063.61,813.273 "/>
<path clip-path="url(#clip282)" d="M1609.19 508.706 L1608.9 501.398 L1608.03 494.136 L1606.59 486.967 L1604.58 479.934 L1602.02 473.084 L1598.92 466.459 L1595.3 460.101 L1591.19 454.05 L1586.62 448.345 L1581.6 443.021 L1576.18 438.113 L1570.38 433.651 L1564.25 429.663 L1557.82 426.175 L1551.14 423.21 L1544.24 420.784 L1537.17 418.915 L1529.97 417.613 L1522.69 416.887 L1515.38 416.741 L1508.08 417.177 L1500.84 418.192 L1493.7 419.779 L1486.71 421.928 L1479.91 424.626 L1473.35 427.855 L1467.06 431.596 L1461.09 435.824 L1455.48 440.513 L1450.26 445.633 L1445.46 451.152 L1441.11 457.034 L1437.25 463.244 L1433.89 469.74 L1431.06 476.484 L1428.77 483.43 L1427.04 490.537 L1425.88 497.759 L1425.3 505.049 L1425.3 512.363 L1425.88 519.654 L1427.04 526.875 L1428.77 533.982 L1431.06 540.929 L1433.89 547.672 L1437.25 554.169 L1441.11 560.378 L1445.46 566.261 L1450.26 571.779 L1455.48 576.899 L1461.09 581.588 L1467.06 585.816 L1473.35 589.557 L1479.91 592.786 L1486.71 595.484 L1493.7 597.633 L1500.84 599.22 L1508.08 600.235 L1515.38 600.671 L1522.69 600.526 L1529.97 599.8 L1537.17 598.498 L1544.24 596.628 L1551.14 594.203 L1557.82 591.237 L1564.25 587.749 L1570.38 583.762 L1576.18 579.3 L1581.6 574.391 L1586.62 569.068 L1591.19 563.363 L1595.3 557.312 L1598.92 550.954 L1602.02 544.329 L1604.58 537.478 L1606.59 530.446 L1608.03 523.276 L1608.9 516.014 L1609.19 508.706 L1609.19 508.706  Z" fill="#9e0142" fill-rule="evenodd" fill-opacity="1"/>
<polyline clip-path="url(#clip282)" style="stroke:#000000; stroke-linecap:round; stroke-linejoin:round; stroke-width:4; stroke-opacity:1; fill:none" points="1609.19,508.706 1608.9,501.398 1608.03,494.136 1606.59,486.967 1604.58,479.934 1602.02,473.084 1598.92,466.459 1595.3,460.101 1591.19,454.05 1586.62,448.345 1581.6,443.021 1576.18,438.113 1570.38,433.651 1564.25,429.663 1557.82,426.175 1551.14,423.21 1544.24,420.784 1537.17,418.915 1529.97,417.613 1522.69,416.887 1515.38,416.741 1508.08,417.177 1500.84,418.192 1493.7,419.779 1486.71,421.928 1479.91,424.626 1473.35,427.855 1467.06,431.596 1461.09,435.824 1455.48,440.513 1450.26,445.633 1445.46,451.152 1441.11,457.034 1437.25,463.244 1433.89,469.74 1431.06,476.484 1428.77,483.43 1427.04,490.537 1425.88,497.759 1425.3,505.049 1425.3,512.363 1425.88,519.654 1427.04,526.875 1428.77,533.982 1431.06,540.929 1433.89,547.672 1437.25,554.169 1441.11,560.378 1445.46,566.261 1450.26,571.779 1455.48,576.899 1461.09,581.588 1467.06,585.816 1473.35,589.557 1479.91,592.786 1486.71,595.484 1493.7,597.633 1500.84,599.22 1508.08,600.235 1515.38,600.671 1522.69,600.526 1529.97,599.8 1537.17,598.498 1544.24,596.628 1551.14,594.203 1557.82,591.237 1564.25,587.749 1570.38,583.762 1576.18,579.3 1581.6,574.391 1586.62,569.068 1591.19,563.363 1595.3,557.312 1598.92,550.954 1602.02,544.329 1604.58,537.478 1606.59,530.446 1608.03,523.276 1608.9,516.014 1609.19,508.706 "/>
<path clip-path="url(#clip282)" d="M1829.67 384.91 L1829.37 377.602 L1828.5 370.34 L1827.06 363.171 L1825.05 356.138 L1822.49 349.288 L1819.39 342.663 L1815.77 336.305 L1811.67 330.254 L1807.09 324.549 L1802.07 319.225 L1796.65 314.317 L1790.86 309.855 L1784.73 305.867 L1778.3 302.38 L1771.61 299.414 L1764.71 296.988 L1757.64 295.119 L1750.44 293.817 L1743.17 293.091 L1735.85 292.946 L1728.55 293.382 L1721.31 294.396 L1714.17 295.983 L1707.18 298.132 L1700.38 300.83 L1693.82 304.06 L1687.53 307.8 L1681.57 312.028 L1675.95 316.717 L1670.73 321.837 L1665.93 327.356 L1661.58 333.239 L1657.72 339.448 L1654.36 345.945 L1651.53 352.688 L1649.24 359.635 L1647.51 366.741 L1646.35 373.963 L1645.77 381.253 L1645.77 388.567 L1646.35 395.858 L1647.51 403.079 L1649.24 410.186 L1651.53 417.133 L1654.36 423.876 L1657.72 430.373 L1661.58 436.582 L1665.93 442.465 L1670.73 447.984 L1675.95 453.104 L1681.57 457.792 L1687.53 462.021 L1693.82 465.761 L1700.38 468.99 L1707.18 471.688 L1714.17 473.837 L1721.31 475.424 L1728.55 476.439 L1735.85 476.875 L1743.17 476.73 L1750.44 476.004 L1757.64 474.702 L1764.71 472.832 L1771.61 470.407 L1778.3 467.441 L1784.73 463.953 L1790.86 459.966 L1796.65 455.504 L1802.07 450.596 L1807.09 445.272 L1811.67 439.567 L1815.77 433.516 L1819.39 427.158 L1822.49 420.533 L1825.05 413.682 L1827.06 406.65 L1828.5 399.48 L1829.37 392.218 L1829.67 384.91 L1829.67 384.91  Z" fill="#9e0142" fill-rule="evenodd" fill-opacity="1"/>
<polyline clip-path="url(#clip282)" style="stroke:#000000; stroke-linecap:round; stroke-linejoin:round; stroke-width:4; stroke-opacity:1; fill:none" points="1829.67,384.91 1829.37,377.602 1828.5,370.34 1827.06,363.171 1825.05,356.138 1822.49,349.288 1819.39,342.663 1815.77,336.305 1811.67,330.254 1807.09,324.549 1802.07,319.225 1796.65,314.317 1790.86,309.855 1784.73,305.867 1778.3,302.38 1771.61,299.414 1764.71,296.988 1757.64,295.119 1750.44,293.817 1743.17,293.091 1735.85,292.946 1728.55,293.382 1721.31,294.396 1714.17,295.983 1707.18,298.132 1700.38,300.83 1693.82,304.06 1687.53,307.8 1681.57,312.028 1675.95,316.717 1670.73,321.837 1665.93,327.356 1661.58,333.239 1657.72,339.448 1654.36,345.945 1651.53,352.688 1649.24,359.635 1647.51,366.741 1646.35,373.963 1645.77,381.253 1645.77,388.567 1646.35,395.858 1647.51,403.079 1649.24,410.186 1651.53,417.133 1654.36,423.876 1657.72,430.373 1661.58,436.582 1665.93,442.465 1670.73,447.984 1675.95,453.104 1681.57,457.792 1687.53,462.021 1693.82,465.761 1700.38,468.99 1707.18,471.688 1714.17,473.837 1721.31,475.424 1728.55,476.439 1735.85,476.875 1743.17,476.73 1750.44,476.004 1757.64,474.702 1764.71,472.832 1771.61,470.407 1778.3,467.441 1784.73,463.953 1790.86,459.966 1796.65,455.504 1802.07,450.596 1807.09,445.272 1811.67,439.567 1815.77,433.516 1819.39,427.158 1822.49,420.533 1825.05,413.682 1827.06,406.65 1828.5,399.48 1829.37,392.218 1829.67,384.91 1829.67,384.91 "/>
<path clip-path="url(#clip282)" d="M954.496 511.987 L954.205 504.679 L953.334 497.417 L951.89 490.247 L949.88 483.215 L947.318 476.365 L944.219 469.739 L940.605 463.381 L936.496 457.331 L931.92 451.625 L926.905 446.302 L921.482 441.393 L915.687 436.931 L909.556 432.944 L903.127 429.456 L896.442 426.49 L889.542 424.065 L882.471 422.195 L875.274 420.893 L867.996 420.168 L860.684 420.022 L853.383 420.458 L846.14 421.473 L839 423.06 L832.009 425.209 L825.211 427.907 L818.649 431.136 L812.364 434.877 L806.396 439.105 L800.783 443.794 L795.56 448.914 L790.761 454.432 L786.415 460.315 L782.55 466.524 L779.191 473.021 L776.358 479.764 L774.071 486.711 L772.342 493.818 L771.183 501.039 L770.602 508.33 L770.602 515.644 L771.183 522.935 L772.342 530.156 L774.071 537.263 L776.358 544.21 L779.191 550.953 L782.55 557.449 L786.415 563.659 L790.761 569.541 L795.56 575.06 L800.783 580.18 L806.396 584.869 L812.364 589.097 L818.649 592.838 L825.211 596.067 L832.009 598.765 L839 600.914 L846.14 602.501 L853.383 603.516 L860.684 603.952 L867.996 603.806 L875.274 603.08 L882.471 601.778 L889.542 599.909 L896.442 597.484 L903.127 594.518 L909.556 591.03 L915.687 587.042 L921.482 582.58 L926.905 577.672 L931.92 572.348 L936.496 566.643 L940.605 560.593 L944.219 554.234 L947.318 547.609 L949.88 540.759 L951.89 533.727 L953.334 526.557 L954.205 519.295 L954.496 511.987 L954.496 511.987  Z" fill="#5e4fa1" fill-rule="evenodd" fill-opacity="1"/>
<polyline clip-path="url(#clip282)" style="stroke:#000000; stroke-linecap:round; stroke-linejoin:round; stroke-width:4; stroke-opacity:1; fill:none" points="954.496,511.987 954.205,504.679 953.334,497.417 951.89,490.247 949.88,483.215 947.318,476.365 944.219,469.739 940.605,463.381 936.496,457.331 931.92,451.625 926.905,446.302 921.482,441.393 915.687,436.931 909.556,432.944 903.127,429.456 896.442,426.49 889.542,424.065 882.471,422.195 875.274,420.893 867.996,420.168 860.684,420.022 853.383,420.458 846.14,421.473 839,423.06 832.009,425.209 825.211,427.907 818.649,431.136 812.364,434.877 806.396,439.105 800.783,443.794 795.56,448.914 790.761,454.432 786.415,460.315 782.55,466.524 779.191,473.021 776.358,479.764 774.071,486.711 772.342,493.818 771.183,501.039 770.602,508.33 770.602,515.644 771.183,522.935 772.342,530.156 774.071,537.263 776.358,544.21 779.191,550.953 782.55,557.449 786.415,563.659 790.761,569.541 795.56,575.06 800.783,580.18 806.396,584.869 812.364,589.097 818.649,592.838 825.211,596.067 832.009,598.765 839,600.914 846.14,602.501 853.383,603.516 860.684,603.952 867.996,603.806 875.274,603.08 882.471,601.778 889.542,599.909 896.442,597.484 903.127,594.518 909.556,591.03 915.687,587.042 921.482,582.58 926.905,577.672 931.92,572.348 936.496,566.643 940.605,560.593 944.219,554.234 947.318,547.609 949.88,540.759 951.89,533.727 953.334,526.557 954.205,519.295 954.496,511.987 "/>
<path clip-path="url(#clip282)" d="M1111.28 1337.68 L1110.99 1330.37 L1110.12 1323.11 L1108.67 1315.94 L1106.66 1308.91 L1104.1 1302.06 L1101 1295.44 L1097.39 1289.08 L1093.28 1283.03 L1088.7 1277.32 L1083.69 1272 L1078.26 1267.09 L1072.47 1262.63 L1066.34 1258.64 L1059.91 1255.15 L1053.22 1252.19 L1046.32 1249.76 L1039.25 1247.89 L1032.06 1246.59 L1024.78 1245.86 L1017.47 1245.72 L1010.16 1246.15 L1002.92 1247.17 L995.782 1248.76 L988.791 1250.9 L981.993 1253.6 L975.431 1256.83 L969.146 1260.57 L963.178 1264.8 L957.565 1269.49 L952.342 1274.61 L947.542 1280.13 L943.196 1286.01 L939.332 1292.22 L935.972 1298.72 L933.14 1305.46 L930.852 1312.41 L929.124 1319.51 L927.965 1326.74 L927.384 1334.03 L927.384 1341.34 L927.965 1348.63 L929.124 1355.85 L930.852 1362.96 L933.14 1369.91 L935.972 1376.65 L939.332 1383.15 L943.196 1389.35 L947.542 1395.24 L952.342 1400.76 L957.565 1405.88 L963.178 1410.56 L969.146 1414.79 L975.431 1418.53 L981.993 1421.76 L988.791 1424.46 L995.782 1426.61 L1002.92 1428.2 L1010.16 1429.21 L1017.47 1429.65 L1024.78 1429.5 L1032.06 1428.78 L1039.25 1427.47 L1046.32 1425.6 L1053.22 1423.18 L1059.91 1420.21 L1066.34 1416.73 L1072.47 1412.74 L1078.26 1408.28 L1083.69 1403.37 L1088.7 1398.04 L1093.28 1392.34 L1097.39 1386.29 L1101 1379.93 L1104.1 1373.31 L1106.66 1366.45 L1108.67 1359.42 L1110.12 1352.25 L1110.99 1344.99 L1111.28 1337.68 L1111.28 1337.68  Z" fill="#5e4fa1" fill-rule="evenodd" fill-opacity="1"/>
<polyline clip-path="url(#clip282)" style="stroke:#000000; stroke-linecap:round; stroke-linejoin:round; stroke-width:4; stroke-opacity:1; fill:none" points="1111.28,1337.68 1110.99,1330.37 1110.12,1323.11 1108.67,1315.94 1106.66,1308.91 1104.1,1302.06 1101,1295.44 1097.39,1289.08 1093.28,1283.03 1088.7,1277.32 1083.69,1272 1078.26,1267.09 1072.47,1262.63 1066.34,1258.64 1059.91,1255.15 1053.22,1252.19 1046.32,1249.76 1039.25,1247.89 1032.06,1246.59 1024.78,1245.86 1017.47,1245.72 1010.16,1246.15 1002.92,1247.17 995.782,1248.76 988.791,1250.9 981.993,1253.6 975.431,1256.83 969.146,1260.57 963.178,1264.8 957.565,1269.49 952.342,1274.61 947.542,1280.13 943.196,1286.01 939.332,1292.22 935.972,1298.72 933.14,1305.46 930.852,1312.41 929.124,1319.51 927.965,1326.74 927.384,1334.03 927.384,1341.34 927.965,1348.63 929.124,1355.85 930.852,1362.96 933.14,1369.91 935.972,1376.65 939.332,1383.15 943.196,1389.35 947.542,1395.24 952.342,1400.76 957.565,1405.88 963.178,1410.56 969.146,1414.79 975.431,1418.53 981.993,1421.76 988.791,1424.46 995.782,1426.61 1002.92,1428.2 1010.16,1429.21 1017.47,1429.65 1024.78,1429.5 1032.06,1428.78 1039.25,1427.47 1046.32,1425.6 1053.22,1423.18 1059.91,1420.21 1066.34,1416.73 1072.47,1412.74 1078.26,1408.28 1083.69,1403.37 1088.7,1398.04 1093.28,1392.34 1097.39,1386.29 1101,1379.93 1104.1,1373.31 1106.66,1366.45 1108.67,1359.42 1110.12,1352.25 1110.99,1344.99 1111.28,1337.68 "/>
<path clip-path="url(#clip282)" d="M1386.72 645.223 L1386.43 637.915 L1385.56 630.653 L1384.12 623.484 L1382.11 616.451 L1379.55 609.601 L1376.45 602.976 L1372.83 596.618 L1368.72 590.567 L1364.15 584.862 L1359.13 579.538 L1353.71 574.63 L1347.92 570.168 L1341.78 566.18 L1335.36 562.693 L1328.67 559.727 L1321.77 557.301 L1314.7 555.432 L1307.5 554.13 L1300.22 553.404 L1292.91 553.259 L1285.61 553.695 L1278.37 554.709 L1271.23 556.296 L1264.24 558.445 L1257.44 561.143 L1250.88 564.373 L1244.59 568.113 L1238.62 572.341 L1233.01 577.03 L1227.79 582.15 L1222.99 587.669 L1218.64 593.552 L1214.78 599.761 L1211.42 606.258 L1208.59 613.001 L1206.3 619.948 L1204.57 627.054 L1203.41 634.276 L1202.83 641.566 L1202.83 648.88 L1203.41 656.171 L1204.57 663.393 L1206.3 670.499 L1208.59 677.446 L1211.42 684.189 L1214.78 690.686 L1218.64 696.895 L1222.99 702.778 L1227.79 708.297 L1233.01 713.417 L1238.62 718.105 L1244.59 722.334 L1250.88 726.074 L1257.44 729.303 L1264.24 732.001 L1271.23 734.15 L1278.37 735.737 L1285.61 736.752 L1292.91 737.188 L1300.22 737.043 L1307.5 736.317 L1314.7 735.015 L1321.77 733.145 L1328.67 730.72 L1335.36 727.754 L1341.78 724.266 L1347.92 720.279 L1353.71 715.817 L1359.13 710.909 L1364.15 705.585 L1368.72 699.88 L1372.83 693.829 L1376.45 687.471 L1379.55 680.846 L1382.11 673.995 L1384.12 666.963 L1385.56 659.793 L1386.43 652.531 L1386.72 645.223 L1386.72 645.223  Z" fill="#5e4fa1" fill-rule="evenodd" fill-opacity="1"/>
<polyline clip-path="url(#clip282)" style="stroke:#000000; stroke-linecap:round; stroke-linejoin:round; stroke-width:4; stroke-opacity:1; fill:none" points="1386.72,645.223 1386.43,637.915 1385.56,630.653 1384.12,623.484 1382.11,616.451 1379.55,609.601 1376.45,602.976 1372.83,596.618 1368.72,590.567 1364.15,584.862 1359.13,579.538 1353.71,574.63 1347.92,570.168 1341.78,566.18 1335.36,562.693 1328.67,559.727 1321.77,557.301 1314.7,555.432 1307.5,554.13 1300.22,553.404 1292.91,553.259 1285.61,553.695 1278.37,554.709 1271.23,556.296 1264.24,558.445 1257.44,561.143 1250.88,564.373 1244.59,568.113 1238.62,572.341 1233.01,577.03 1227.79,582.15 1222.99,587.669 1218.64,593.552 1214.78,599.761 1211.42,606.258 1208.59,613.001 1206.3,619.948 1204.57,627.054 1203.41,634.276 1202.83,641.566 1202.83,648.88 1203.41,656.171 1204.57,663.393 1206.3,670.499 1208.59,677.446 1211.42,684.189 1214.78,690.686 1218.64,696.895 1222.99,702.778 1227.79,708.297 1233.01,713.417 1238.62,718.105 1244.59,722.334 1250.88,726.074 1257.44,729.303 1264.24,732.001 1271.23,734.15 1278.37,735.737 1285.61,736.752 1292.91,737.188 1300.22,737.043 1307.5,736.317 1314.7,735.015 1321.77,733.145 1328.67,730.72 1335.36,727.754 1341.78,724.266 1347.92,720.279 1353.71,715.817 1359.13,710.909 1364.15,705.585 1368.72,699.88 1372.83,693.829 1376.45,687.471 1379.55,680.846 1382.11,673.995 1384.12,666.963 1385.56,659.793 1386.43,652.531 1386.72,645.223 "/>
<path clip-path="url(#clip282)" d="M754.3 262.317 L754.009 255.009 L753.139 247.747 L751.694 240.578 L749.684 233.545 L747.122 226.695 L744.024 220.07 L740.409 213.712 L736.301 207.661 L731.724 201.956 L726.709 196.632 L721.287 191.724 L715.492 187.262 L709.361 183.274 L702.932 179.787 L696.246 176.821 L689.346 174.395 L682.276 172.526 L675.079 171.224 L667.801 170.498 L660.488 170.352 L653.188 170.788 L645.944 171.803 L638.805 173.39 L631.814 175.539 L625.016 178.237 L618.454 181.466 L612.169 185.207 L606.201 189.435 L600.588 194.124 L595.365 199.244 L590.565 204.763 L586.219 210.645 L582.355 216.855 L578.995 223.351 L576.163 230.095 L573.875 237.041 L572.147 244.148 L570.988 251.37 L570.407 258.66 L570.407 265.974 L570.988 273.265 L572.147 280.486 L573.875 287.593 L576.163 294.54 L578.995 301.283 L582.355 307.78 L586.219 313.989 L590.565 319.872 L595.365 325.39 L600.588 330.51 L606.201 335.199 L612.169 339.427 L618.454 343.168 L625.016 346.397 L631.814 349.095 L638.805 351.244 L645.944 352.831 L653.188 353.846 L660.488 354.282 L667.801 354.137 L675.079 353.411 L682.276 352.109 L689.346 350.239 L696.246 347.814 L702.932 344.848 L709.361 341.36 L715.492 337.373 L721.287 332.911 L726.709 328.002 L731.724 322.679 L736.301 316.974 L740.409 310.923 L744.024 304.565 L747.122 297.94 L749.684 291.089 L751.694 284.057 L753.139 276.887 L754.009 269.625 L754.3 262.317 L754.3 262.317  Z" fill="#5e4fa1" fill-rule="evenodd" fill-opacity="1"/>
<polyline clip-path="url(#clip282)" style="stroke:#000000; stroke-linecap:round; stroke-linejoin:round; stroke-width:4; stroke-opacity:1; fill:none" points="754.3,262.317 754.009,255.009 753.139,247.747 751.694,240.578 749.684,233.545 747.122,226.695 744.024,220.07 740.409,213.712 736.301,207.661 731.724,201.956 726.709,196.632 721.287,191.724 715.492,187.262 709.361,183.274 702.932,179.787 696.246,176.821 689.346,174.395 682.276,172.526 675.079,171.224 667.801,170.498 660.488,170.352 653.188,170.788 645.944,171.803 638.805,173.39 631.814,175.539 625.016,178.237 618.454,181.466 612.169,185.207 606.201,189.435 600.588,194.124 595.365,199.244 590.565,204.763 586.219,210.645 582.355,216.855 578.995,223.351 576.163,230.095 573.875,237.041 572.147,244.148 570.988,251.37 570.407,258.66 570.407,265.974 570.988,273.265 572.147,280.486 573.875,287.593 576.163,294.54 578.995,301.283 582.355,307.78 586.219,313.989 590.565,319.872 595.365,325.39 600.588,330.51 606.201,335.199 612.169,339.427 618.454,343.168 625.016,346.397 631.814,349.095 638.805,351.244 645.944,352.831 653.188,353.846 660.488,354.282 667.801,354.137 675.079,353.411 682.276,352.109 689.346,350.239 696.246,347.814 702.932,344.848 709.361,341.36 715.492,337.373 721.287,332.911 726.709,328.002 731.724,322.679 736.301,316.974 740.409,310.923 744.024,304.565 747.122,297.94 749.684,291.089 751.694,284.057 753.139,276.887 754.009,269.625 754.3,262.317 "/>
<path clip-path="url(#clip282)" d="M1155.59 813.273 L1155.3 805.964 L1154.43 798.703 L1152.99 791.533 L1150.98 784.501 L1148.42 777.65 L1145.32 771.025 L1141.7 764.667 L1137.59 758.616 L1133.02 752.911 L1128 747.587 L1122.58 742.679 L1116.79 738.217 L1110.65 734.23 L1104.23 730.742 L1097.54 727.776 L1090.64 725.351 L1083.57 723.481 L1076.37 722.179 L1069.09 721.453 L1061.78 721.308 L1054.48 721.744 L1047.24 722.758 L1040.1 724.345 L1033.11 726.495 L1026.31 729.192 L1019.75 732.422 L1013.46 736.162 L1007.49 740.39 L1001.88 745.079 L996.658 750.199 L991.859 755.718 L987.513 761.601 L983.648 767.81 L980.289 774.307 L977.456 781.05 L975.169 787.997 L973.44 795.103 L972.282 802.325 L971.7 809.616 L971.7 816.929 L972.282 824.22 L973.44 831.442 L975.169 838.548 L977.456 845.495 L980.289 852.238 L983.648 858.735 L987.513 864.944 L991.859 870.827 L996.658 876.346 L1001.88 881.466 L1007.49 886.155 L1013.46 890.383 L1019.75 894.123 L1026.31 897.353 L1033.11 900.05 L1040.1 902.2 L1047.24 903.787 L1054.48 904.801 L1061.78 905.237 L1069.09 905.092 L1076.37 904.366 L1083.57 903.064 L1090.64 901.195 L1097.54 898.769 L1104.23 895.803 L1110.65 892.315 L1116.79 888.328 L1122.58 883.866 L1128 878.958 L1133.02 873.634 L1137.59 867.929 L1141.7 861.878 L1145.32 855.52 L1148.42 848.895 L1150.98 842.044 L1152.99 835.012 L1154.43 827.842 L1155.3 820.581 L1155.59 813.273 L1155.59 813.273  Z" fill="#5e4fa1" fill-rule="evenodd" fill-opacity="1"/>
<polyline clip-path="url(#clip282)" style="stroke:#000000; stroke-linecap:round; stroke-linejoin:round; stroke-width:4; stroke-opacity:1; fill:none" points="1155.59,813.273 1155.3,805.964 1154.43,798.703 1152.99,791.533 1150.98,784.501 1148.42,777.65 1145.32,771.025 1141.7,764.667 1137.59,758.616 1133.02,752.911 1128,747.587 1122.58,742.679 1116.79,738.217 1110.65,734.23 1104.23,730.742 1097.54,727.776 1090.64,725.351 1083.57,723.481 1076.37,722.179 1069.09,721.453 1061.78,721.308 1054.48,721.744 1047.24,722.758 1040.1,724.345 1033.11,726.495 1026.31,729.192 1019.75,732.422 1013.46,736.162 1007.49,740.39 1001.88,745.079 996.658,750.199 991.859,755.718 987.513,761.601 983.648,767.81 980.289,774.307 977.456,781.05 975.169,787.997 973.44,795.103 972.282,802.325 971.7,809.616 971.7,816.929 972.282,824.22 973.44,831.442 975.169,838.548 977.456,845.495 980.289,852.238 983.648,858.735 987.513,864.944 991.859,870.827 996.658,876.346 1001.88,881.466 1007.49,886.155 1013.46,890.383 1019.75,894.123 1026.31,897.353 1033.11,900.05 1040.1,902.2 1047.24,903.787 1054.48,904.801 1061.78,905.237 1069.09,905.092 1076.37,904.366 1083.57,903.064 1090.64,901.195 1097.54,898.769 1104.23,895.803 1110.65,892.315 1116.79,888.328 1122.58,883.866 1128,878.958 1133.02,873.634 1137.59,867.929 1141.7,861.878 1145.32,855.52 1148.42,848.895 1150.98,842.044 1152.99,835.012 1154.43,827.842 1155.3,820.581 1155.59,813.273 "/>
<circle clip-path="url(#clip282)" cx="1517.21" cy="508.706" r="0.36" fill="#5e4fa1" fill-rule="evenodd" fill-opacity="1" stroke="#000000" stroke-opacity="1" stroke-width="3.2"/>
<circle clip-path="url(#clip282)" cx="1737.68" cy="384.91" r="0.36" fill="#5e4fa1" fill-rule="evenodd" fill-opacity="1" stroke="#000000" stroke-opacity="1" stroke-width="3.2"/>
<circle clip-path="url(#clip282)" cx="862.513" cy="511.987" r="0.36" fill="#5e4fa1" fill-rule="evenodd" fill-opacity="1" stroke="#000000" stroke-opacity="1" stroke-width="3.2"/>
<circle clip-path="url(#clip282)" cx="1019.29" cy="1337.68" r="0.36" fill="#5e4fa1" fill-rule="evenodd" fill-opacity="1" stroke="#000000" stroke-opacity="1" stroke-width="3.2"/>
<circle clip-path="url(#clip282)" cx="1294.74" cy="645.223" r="0.36" fill="#5e4fa1" fill-rule="evenodd" fill-opacity="1" stroke="#000000" stroke-opacity="1" stroke-width="3.2"/>
<circle clip-path="url(#clip282)" cx="662.317" cy="262.317" r="0.36" fill="#5e4fa1" fill-rule="evenodd" fill-opacity="1" stroke="#000000" stroke-opacity="1" stroke-width="3.2"/>
<circle clip-path="url(#clip282)" cx="1063.61" cy="813.273" r="0.36" fill="#5e4fa1" fill-rule="evenodd" fill-opacity="1" stroke="#000000" stroke-opacity="1" stroke-width="3.2"/>
<path clip-path="url(#clip280)" d="M1477.11 519.512 L1477.11 511.39 L1470.42 511.39 L1470.42 508.028 L1481.16 508.028 L1481.16 521.011 Q1478.79 522.692 1475.93 523.563 Q1473.08 524.414 1469.83 524.414 Q1462.75 524.414 1458.74 520.282 Q1454.75 516.129 1454.75 508.737 Q1454.75 501.323 1458.74 497.191 Q1462.75 493.039 1469.83 493.039 Q1472.79 493.039 1475.45 493.768 Q1478.12 494.498 1480.37 495.915 L1480.37 500.27 Q1478.1 498.346 1475.55 497.374 Q1472.99 496.402 1470.18 496.402 Q1464.63 496.402 1461.83 499.5 Q1459.06 502.599 1459.06 508.737 Q1459.06 514.853 1461.83 517.952 Q1464.63 521.051 1470.18 521.051 Q1472.35 521.051 1474.05 520.687 Q1475.75 520.302 1477.11 519.512 Z" fill="#000000" fill-rule="nonzero" fill-opacity="1" /><path clip-path="url(#clip280)" d="M1500.91 496.361 Q1496.45 496.361 1493.82 499.683 Q1491.2 503.005 1491.2 508.737 Q1491.2 514.448 1493.82 517.77 Q1496.45 521.092 1500.91 521.092 Q1505.36 521.092 1507.95 517.77 Q1510.57 514.448 1510.57 508.737 Q1510.57 503.005 1507.95 499.683 Q1505.36 496.361 1500.91 496.361 M1500.91 493.039 Q1507.27 493.039 1511.07 497.313 Q1514.88 501.566 1514.88 508.737 Q1514.88 515.886 1511.07 520.16 Q1507.27 524.414 1500.91 524.414 Q1494.53 524.414 1490.7 520.16 Q1486.89 515.907 1486.89 508.737 Q1486.89 501.566 1490.7 497.313 Q1494.53 493.039 1500.91 493.039 Z" fill="#000000" fill-rule="nonzero" fill-opacity="1" /><path clip-path="url(#clip280)" d="M1533.56 496.361 Q1529.1 496.361 1526.47 499.683 Q1523.85 503.005 1523.85 508.737 Q1523.85 514.448 1526.47 517.77 Q1529.1 521.092 1533.56 521.092 Q1538.01 521.092 1540.6 517.77 Q1543.22 514.448 1543.22 508.737 Q1543.22 503.005 1540.6 499.683 Q1538.01 496.361 1533.56 496.361 M1533.56 493.039 Q1539.92 493.039 1543.72 497.313 Q1547.53 501.566 1547.53 508.737 Q1547.53 515.886 1543.72 520.16 Q1539.92 524.414 1533.56 524.414 Q1527.18 524.414 1523.35 520.16 Q1519.54 515.907 1519.54 508.737 Q1519.54 501.566 1523.35 497.313 Q1527.18 493.039 1533.56 493.039 Z" fill="#000000" fill-rule="nonzero" fill-opacity="1" /><path clip-path="url(#clip280)" d="M1574.55 519.512 L1574.55 511.39 L1567.87 511.39 L1567.87 508.028 L1578.6 508.028 L1578.6 521.011 Q1576.23 522.692 1573.38 523.563 Q1570.52 524.414 1567.28 524.414 Q1560.19 524.414 1556.18 520.282 Q1552.19 516.129 1552.19 508.737 Q1552.19 501.323 1556.18 497.191 Q1560.19 493.039 1567.28 493.039 Q1570.24 493.039 1572.89 493.768 Q1575.56 494.498 1577.81 495.915 L1577.81 500.27 Q1575.54 498.346 1572.99 497.374 Q1570.44 496.402 1567.62 496.402 Q1562.07 496.402 1559.28 499.5 Q1556.5 502.599 1556.5 508.737 Q1556.5 514.853 1559.28 517.952 Q1562.07 521.051 1567.62 521.051 Q1569.79 521.051 1571.49 520.687 Q1573.19 520.302 1574.55 519.512 Z" fill="#000000" fill-rule="nonzero" fill-opacity="1" /><path clip-path="url(#clip280)" d="M1690.05 373.821 L1684.5 388.87 L1695.62 388.87 L1690.05 373.821 M1687.75 369.79 L1692.38 369.79 L1703.91 400.03 L1699.65 400.03 L1696.9 392.273 L1683.27 392.273 L1680.51 400.03 L1676.2 400.03 L1687.75 369.79 Z" fill="#000000" fill-rule="nonzero" fill-opacity="1" /><path clip-path="url(#clip280)" d="M1708.32 369.79 L1714.42 369.79 L1722.14 390.369 L1729.89 369.79 L1735.99 369.79 L1735.99 400.03 L1732 400.03 L1732 373.477 L1724.2 394.217 L1720.09 394.217 L1712.29 373.477 L1712.29 400.03 L1708.32 400.03 L1708.32 369.79 Z" fill="#000000" fill-rule="nonzero" fill-opacity="1" /><path clip-path="url(#clip280)" d="M1742.37 369.79 L1766.13 369.79 L1766.13 372.91 L1747.01 396.587 L1766.6 396.587 L1766.6 400.03 L1741.91 400.03 L1741.91 396.911 L1761.03 373.234 L1742.37 373.234 L1742.37 369.79 Z" fill="#000000" fill-rule="nonzero" fill-opacity="1" /><path clip-path="url(#clip280)" d="M1772.53 369.79 L1778.04 369.79 L1791.45 395.088 L1791.45 369.79 L1795.42 369.79 L1795.42 400.03 L1789.91 400.03 L1776.5 374.732 L1776.5 400.03 L1772.53 400.03 L1772.53 369.79 Z" fill="#000000" fill-rule="nonzero" fill-opacity="1" /><path clip-path="url(#clip280)" d="M856.315 496.867 L881.896 496.867 L881.896 500.31 L871.161 500.31 L871.161 527.107 L867.05 527.107 L867.05 500.31 L856.315 500.31 L856.315 496.867 Z" fill="#000000" fill-rule="nonzero" fill-opacity="1" /><path clip-path="url(#clip280)" d="M994.057 1338.36 L994.057 1349.44 L1000.62 1349.44 Q1003.92 1349.44 1005.5 1348.08 Q1007.1 1346.71 1007.1 1343.89 Q1007.1 1341.06 1005.5 1339.72 Q1003.92 1338.36 1000.62 1338.36 L994.057 1338.36 M994.057 1325.93 L994.057 1335.04 L1000.11 1335.04 Q1003.11 1335.04 1004.57 1333.93 Q1006.05 1332.79 1006.05 1330.48 Q1006.05 1328.19 1004.57 1327.06 Q1003.11 1325.93 1000.11 1325.93 L994.057 1325.93 M989.966 1322.56 L1000.42 1322.56 Q1005.1 1322.56 1007.63 1324.51 Q1010.16 1326.45 1010.16 1330.04 Q1010.16 1332.81 1008.86 1334.45 Q1007.57 1336.09 1005.06 1336.5 Q1008.07 1337.15 1009.73 1339.21 Q1011.42 1341.26 1011.42 1344.34 Q1011.42 1348.39 1008.66 1350.6 Q1005.91 1352.8 1000.82 1352.8 L989.966 1352.8 L989.966 1322.56 Z" fill="#000000" fill-rule="nonzero" fill-opacity="1" /><path clip-path="url(#clip280)" d="M1022.51 1338.36 L1022.51 1349.44 L1029.08 1349.44 Q1032.38 1349.44 1033.96 1348.08 Q1035.56 1346.71 1035.56 1343.89 Q1035.56 1341.06 1033.96 1339.72 Q1032.38 1338.36 1029.08 1338.36 L1022.51 1338.36 M1022.51 1325.93 L1022.51 1335.04 L1028.57 1335.04 Q1031.57 1335.04 1033.03 1333.93 Q1034.51 1332.79 1034.51 1330.48 Q1034.51 1328.19 1033.03 1327.06 Q1031.57 1325.93 1028.57 1325.93 L1022.51 1325.93 M1018.42 1322.56 L1028.87 1322.56 Q1033.55 1322.56 1036.09 1324.51 Q1038.62 1326.45 1038.62 1330.04 Q1038.62 1332.81 1037.32 1334.45 Q1036.02 1336.09 1033.51 1336.5 Q1036.53 1337.15 1038.19 1339.21 Q1039.87 1341.26 1039.87 1344.34 Q1039.87 1348.39 1037.12 1350.6 Q1034.36 1352.8 1029.28 1352.8 L1018.42 1352.8 L1018.42 1322.56 Z" fill="#000000" fill-rule="nonzero" fill-opacity="1" /><path clip-path="url(#clip280)" d="M1040.46 1322.56 L1044.86 1322.56 L1053.24 1335 L1061.57 1322.56 L1065.96 1322.56 L1055.27 1338.4 L1055.27 1352.8 L1051.15 1352.8 L1051.15 1338.4 L1040.46 1322.56 Z" fill="#000000" fill-rule="nonzero" fill-opacity="1" /><path clip-path="url(#clip280)" d="M1266.73 630.103 L1272.83 630.103 L1280.54 650.682 L1288.3 630.103 L1294.4 630.103 L1294.4 660.343 L1290.41 660.343 L1290.41 633.79 L1282.61 654.53 L1278.5 654.53 L1270.7 633.79 L1270.7 660.343 L1266.73 660.343 L1266.73 630.103 Z" fill="#000000" fill-rule="nonzero" fill-opacity="1" /><path clip-path="url(#clip280)" d="M1312.63 634.134 L1307.08 649.183 L1318.2 649.183 L1312.63 634.134 M1310.32 630.103 L1314.96 630.103 L1326.48 660.343 L1322.23 660.343 L1319.47 652.586 L1305.84 652.586 L1303.09 660.343 L1298.77 660.343 L1310.32 630.103 Z" fill="#000000" fill-rule="nonzero" fill-opacity="1" /><path clip-path="url(#clip280)" d="M639.531 250.559 L639.531 261.922 L644.676 261.922 Q647.531 261.922 649.091 260.444 Q650.651 258.965 650.651 256.231 Q650.651 253.517 649.091 252.038 Q647.531 250.559 644.676 250.559 L639.531 250.559 M635.439 247.197 L644.676 247.197 Q649.759 247.197 652.352 249.506 Q654.965 251.795 654.965 256.231 Q654.965 260.707 652.352 262.996 Q649.759 265.284 644.676 265.284 L639.531 265.284 L639.531 277.437 L635.439 277.437 L635.439 247.197 Z" fill="#000000" fill-rule="nonzero" fill-opacity="1" /><path clip-path="url(#clip280)" d="M660.454 247.197 L677.832 247.197 L677.832 250.64 L664.545 250.64 L664.545 259.552 L676.536 259.552 L676.536 262.996 L664.545 262.996 L664.545 277.437 L660.454 277.437 L660.454 247.197 Z" fill="#000000" fill-rule="nonzero" fill-opacity="1" /><path clip-path="url(#clip280)" d="M684.314 247.197 L703.434 247.197 L703.434 250.64 L688.405 250.64 L688.405 259.593 L702.806 259.593 L702.806 263.036 L688.405 263.036 L688.405 273.994 L703.798 273.994 L703.798 277.437 L684.314 277.437 L684.314 247.197 Z" fill="#000000" fill-rule="nonzero" fill-opacity="1" /><path clip-path="url(#clip280)" d="M1037.76 798.153 L1041.85 798.153 L1041.85 826.286 Q1041.85 831.755 1039.76 834.226 Q1037.69 836.697 1033.1 836.697 L1031.54 836.697 L1031.54 833.254 L1032.81 833.254 Q1035.53 833.254 1036.64 831.735 Q1037.76 830.215 1037.76 826.286 L1037.76 798.153 Z" fill="#000000" fill-rule="nonzero" fill-opacity="1" /><path clip-path="url(#clip280)" d="M1054.08 801.515 L1054.08 812.878 L1059.23 812.878 Q1062.08 812.878 1063.64 811.399 Q1065.2 809.92 1065.2 807.186 Q1065.2 804.472 1063.64 802.993 Q1062.08 801.515 1059.23 801.515 L1054.08 801.515 M1049.99 798.153 L1059.23 798.153 Q1064.31 798.153 1066.9 800.462 Q1069.51 802.75 1069.51 807.186 Q1069.51 811.662 1066.9 813.951 Q1064.31 816.24 1059.23 816.24 L1054.08 816.24 L1054.08 828.393 L1049.99 828.393 L1049.99 798.153 Z" fill="#000000" fill-rule="nonzero" fill-opacity="1" /><path clip-path="url(#clip280)" d="M1075 798.153 L1081.1 798.153 L1088.82 818.731 L1096.57 798.153 L1102.67 798.153 L1102.67 828.393 L1098.68 828.393 L1098.68 801.839 L1090.88 822.579 L1086.77 822.579 L1078.97 801.839 L1078.97 828.393 L1075 828.393 L1075 798.153 Z" fill="#000000" fill-rule="nonzero" fill-opacity="1" /></svg>
