<?xml version="1.0" encoding="utf-8"?>
<svg xmlns="http://www.w3.org/2000/svg" xmlns:xlink="http://www.w3.org/1999/xlink" width="600" height="400" viewBox="0 0 2400 1600">
<defs>
  <clipPath id="clip510">
    <rect x="0" y="0" width="2400" height="1600"/>
  </clipPath>
</defs>
<path clip-path="url(#clip510)" d="M0 1600 L2400 1600 L2400 0 L0 0  Z" fill="#ffffff" fill-rule="evenodd" fill-opacity="1"/>
<defs>
  <clipPath id="clip511">
    <rect x="480" y="0" width="1681" height="1600"/>
  </clipPath>
</defs>
<path clip-path="url(#clip510)" d="M447.244 1552.76 L1952.76 1552.76 L1952.76 47.2441 L447.244 47.2441  Z" fill="#ffffff" fill-rule="evenodd" fill-opacity="1"/>
<defs>
  <clipPath id="clip512">
    <rect x="447" y="47" width="1507" height="1507"/>
  </clipPath>
</defs>
<polyline clip-path="url(#clip512)" style="stroke:#000000; stroke-linecap:round; stroke-linejoin:round; stroke-width:4; stroke-opacity:1; fill:none" points="1737.68,595.766 1674.81,1337.68 "/>
<polyline clip-path="url(#clip512)" style="stroke:#000000; stroke-linecap:round; stroke-linejoin:round; stroke-width:4; stroke-opacity:1; fill:none" points="894.08,1188.75 1065.39,765.717 "/>
<polyline clip-path="url(#clip512)" style="stroke:#000000; stroke-linecap:round; stroke-linejoin:round; stroke-width:4; stroke-opacity:1; fill:none" points="894.08,1188.75 706.041,387.116 "/>
<polyline clip-path="url(#clip512)" style="stroke:#000000; stroke-linecap:round; stroke-linejoin:round; stroke-width:4; stroke-opacity:1; fill:none" points="894.08,1188.75 662.317,913.276 "/>
<polyline clip-path="url(#clip512)" style="stroke:#000000; stroke-linecap:round; stroke-linejoin:round; stroke-width:4; stroke-opacity:1; fill:none" points="894.08,1188.75 971.042,262.317 "/>
<polyline clip-path="url(#clip512)" style="stroke:#000000; stroke-linecap:round; stroke-linejoin:round; stroke-width:4; stroke-opacity:1; fill:none" points="1065.39,765.717 706.041,387.116 "/>
<polyline clip-path="url(#clip512)" style="stroke:#000000; stroke-linecap:round; stroke-linejoin:round; stroke-width:4; stroke-opacity:1; fill:none" points="1065.39,765.717 662.317,913.276 "/>
<polyline clip-path="url(#clip512)" style="stroke:#000000; stroke-linecap:round; stroke-linejoin:round; stroke-width:4; stroke-opacity:1; fill:none" points="1065.39,765.717 971.042,262.317 "/>
<polyline clip-path="url(#clip512)" style="stroke:#000000; stroke-linecap:round; stroke-linejoin:round; stroke-width:4; stroke-opacity:1; fill:none" points="706.041,387.116 662.317,913.276 "/>
<polyline clip-path="url(#clip512)" style="stroke:#000000; stroke-linecap:round; stroke-linejoin:round; stroke-width:4; stroke-opacity:1; fill:none" points="706.041,387.116 971.042,262.317 "/>
<polyline clip-path="url(#clip512)" style="stroke:#000000; stroke-linecap:round; stroke-linejoin:round; stroke-width:4; stroke-opacity:1; fill:none" points="662.317,913.276 971.042,262.317 "/>
<path clip-path="url(#clip512)" d="M1829.67 595.766 L1829.37 588.458 L1828.5 581.196 L1827.06 574.026 L1825.05 566.994 L1822.49 560.143 L1819.39 553.518 L1815.77 547.16 L1811.67 541.109 L1807.09 535.404 L1802.07 530.081 L1796.65 525.172 L1790.86 520.71 L1784.73 516.723 L1778.3 513.235 L1771.61 510.269 L1764.71 507.844 L1757.64 505.974 L1750.44 504.672 L1743.17 503.946 L1735.85 503.801 L1728.55 504.237 L1721.31 505.252 L1714.17 506.839 L1707.18 508.988 L1700.38 511.686 L1693.82 514.915 L1687.53 518.656 L1681.57 522.884 L1675.95 527.573 L1670.73 532.693 L1665.93 538.211 L1661.58 544.094 L1657.72 550.303 L1654.36 556.8 L1651.53 563.543 L1649.24 570.49 L1647.51 577.597 L1646.35 584.818 L1645.77 592.109 L1645.77 599.423 L1646.35 606.713 L1647.51 613.935 L1649.24 621.042 L1651.53 627.988 L1654.36 634.732 L1657.72 641.228 L1661.58 647.438 L1665.93 653.32 L1670.73 658.839 L1675.95 663.959 L1681.57 668.648 L1687.53 672.876 L1693.82 676.616 L1700.38 679.846 L1707.18 682.544 L1714.17 684.693 L1721.31 686.28 L1728.55 687.295 L1735.85 687.731 L1743.17 687.585 L1750.44 686.859 L1757.64 685.557 L1764.71 683.688 L1771.61 681.262 L1778.3 678.296 L1784.73 674.809 L1790.86 670.821 L1796.65 666.359 L1802.07 661.451 L1807.09 656.127 L1811.67 650.422 L1815.77 644.371 L1819.39 638.013 L1822.49 631.388 L1825.05 624.538 L1827.06 617.505 L1828.5 610.336 L1829.37 603.074 L1829.67 595.766 L1829.67 595.766  Z" fill="#9e0142" fill-rule="evenodd" fill-opacity="1"/>
<polyline clip-path="url(#clip512)" style="stroke:#000000; stroke-linecap:round; stroke-linejoin:round; stroke-width:4; stroke-opacity:1; fill:none" points="1829.67,595.766 1829.37,588.458 1828.5,581.196 1827.06,574.026 1825.05,566.994 1822.49,560.143 1819.39,553.518 1815.77,547.16 1811.67,541.109 1807.09,535.404 1802.07,530.081 1796.65,525.172 1790.86,520.71 1784.73,516.723 1778.3,513.235 1771.61,510.269 1764.71,507.844 1757.64,505.974 1750.44,504.672 1743.17,503.946 1735.85,503.801 1728.55,504.237 1721.31,505.252 1714.17,506.839 1707.18,508.988 1700.38,511.686 1693.82,514.915 1687.53,518.656 1681.57,522.884 1675.95,527.573 1670.73,532.693 1665.93,538.211 1661.58,544.094 1657.72,550.303 1654.36,556.8 1651.53,563.543 1649.24,570.49 1647.51,577.597 1646.35,584.818 1645.77,592.109 1645.77,599.423 1646.35,606.713 1647.51,613.935 1649.24,621.042 1651.53,627.988 1654.36,634.732 1657.72,641.228 1661.58,647.438 1665.93,653.32 1670.73,658.839 1675.95,663.959 1681.57,668.648 1687.53,672.876 1693.82,676.616 1700.38,679.846 1707.18,682.544 1714.17,684.693 1721.31,686.28 1728.55,687.295 1735.85,687.731 1743.17,687.585 1750.44,686.859 1757.64,685.557 1764.71,683.688 1771.61,681.262 1778.3,678.296 1784.73,674.809 1790.86,670.821 1796.65,666.359 1802.07,661.451 1807.09,656.127 1811.67,650.422 1815.77,644.371 1819.39,638.013 1822.49,631.388 1825.05,624.538 1827.06,617.505 1828.5,610.336 1829.37,603.074 1829.67,595.766 "/>
<path clip-path="url(#clip512)" d="M1766.79 1337.68 L1766.5 1330.37 L1765.63 1323.11 L1764.18 1315.94 L1762.17 1308.91 L1759.61 1302.06 L1756.51 1295.44 L1752.9 1289.08 L1748.79 1283.03 L1744.21 1277.32 L1739.2 1272 L1733.78 1267.09 L1727.98 1262.63 L1721.85 1258.64 L1715.42 1255.15 L1708.74 1252.19 L1701.84 1249.76 L1694.76 1247.89 L1687.57 1246.59 L1680.29 1245.86 L1672.98 1245.72 L1665.68 1246.15 L1658.43 1247.17 L1651.29 1248.76 L1644.3 1250.9 L1637.5 1253.6 L1630.94 1256.83 L1624.66 1260.57 L1618.69 1264.8 L1613.08 1269.49 L1607.85 1274.61 L1603.05 1280.13 L1598.71 1286.01 L1594.84 1292.22 L1591.48 1298.72 L1588.65 1305.46 L1586.36 1312.41 L1584.64 1319.51 L1583.48 1326.74 L1582.9 1334.03 L1582.9 1341.34 L1583.48 1348.63 L1584.64 1355.85 L1586.36 1362.96 L1588.65 1369.91 L1591.48 1376.65 L1594.84 1383.15 L1598.71 1389.35 L1603.05 1395.24 L1607.85 1400.76 L1613.08 1405.88 L1618.69 1410.56 L1624.66 1414.79 L1630.94 1418.53 L1637.5 1421.76 L1644.3 1424.46 L1651.29 1426.61 L1658.43 1428.2 L1665.68 1429.21 L1672.98 1429.65 L1680.29 1429.5 L1687.57 1428.78 L1694.76 1427.47 L1701.84 1425.6 L1708.74 1423.18 L1715.42 1420.21 L1721.85 1416.73 L1727.98 1412.74 L1733.78 1408.28 L1739.2 1403.37 L1744.21 1398.04 L1748.79 1392.34 L1752.9 1386.29 L1756.51 1379.93 L1759.61 1373.31 L1762.17 1366.45 L1764.18 1359.42 L1765.63 1352.25 L1766.5 1344.99 L1766.79 1337.68 L1766.79 1337.68  Z" fill="#9e0142" fill-rule="evenodd" fill-opacity="1"/>
<polyline clip-path="url(#clip512)" style="stroke:#000000; stroke-linecap:round; stroke-linejoin:round; stroke-width:4; stroke-opacity:1; fill:none" points="1766.79,1337.68 1766.5,1330.37 1765.63,1323.11 1764.18,1315.94 1762.17,1308.91 1759.61,1302.06 1756.51,1295.44 1752.9,1289.08 1748.79,1283.03 1744.21,1277.32 1739.2,1272 1733.78,1267.09 1727.98,1262.63 1721.85,1258.64 1715.42,1255.15 1708.74,1252.19 1701.84,1249.76 1694.76,1247.89 1687.57,1246.59 1680.29,1245.86 1672.98,1245.72 1665.68,1246.15 1658.43,1247.17 1651.29,1248.76 1644.3,1250.9 1637.5,1253.6 1630.94,1256.83 1624.66,1260.57 1618.69,1264.8 1613.08,1269.49 1607.85,1274.61 1603.05,1280.13 1598.71,1286.01 1594.84,1292.22 1591.48,1298.72 1588.65,1305.46 1586.36,1312.41 1584.64,1319.51 1583.48,1326.74 1582.9,1334.03 1582.9,1341.34 1583.48,1348.63 1584.64,1355.85 1586.36,1362.96 1588.65,1369.91 1591.48,1376.65 1594.84,1383.15 1598.71,1389.35 1603.05,1395.24 1607.85,1400.76 1613.08,1405.88 1618.69,1410.56 1624.66,1414.79 1630.94,1418.53 1637.5,1421.76 1644.3,1424.46 1651.29,1426.61 1658.43,1428.2 1665.68,1429.21 1672.98,1429.65 1680.29,1429.5 1687.57,1428.78 1694.76,1427.47 1701.84,1425.6 1708.74,1423.18 1715.42,1420.21 1721.85,1416.73 1727.98,1412.74 1733.78,1408.28 1739.2,1403.37 1744.21,1398.04 1748.79,1392.34 1752.9,1386.29 1756.51,1379.93 1759.61,1373.31 1762.17,1366.45 1764.18,1359.42 1765.63,1352.25 1766.5,1344.99 1766.79,1337.68 "/>
<path clip-path="url(#clip512)" d="M986.063 1188.75 L985.773 1181.45 L984.902 1174.19 L983.457 1167.02 L981.448 1159.98 L978.886 1153.13 L975.787 1146.51 L972.172 1140.15 L968.064 1134.1 L963.488 1128.39 L958.472 1123.07 L953.05 1118.16 L947.255 1113.7 L941.124 1109.71 L934.695 1106.22 L928.01 1103.26 L921.11 1100.83 L914.039 1098.96 L906.842 1097.66 L899.564 1096.94 L892.252 1096.79 L884.951 1097.23 L877.708 1098.24 L870.568 1099.83 L863.577 1101.98 L856.779 1104.67 L850.217 1107.9 L843.932 1111.64 L837.964 1115.87 L832.351 1120.56 L827.128 1125.68 L822.328 1131.2 L817.983 1137.08 L814.118 1143.29 L810.759 1149.79 L807.926 1156.53 L805.638 1163.48 L803.91 1170.59 L802.751 1177.81 L802.17 1185.1 L802.17 1192.41 L802.751 1199.7 L803.91 1206.92 L805.638 1214.03 L807.926 1220.98 L810.759 1227.72 L814.118 1234.22 L817.983 1240.43 L822.328 1246.31 L827.128 1251.83 L832.351 1256.95 L837.964 1261.64 L843.932 1265.87 L850.217 1269.61 L856.779 1272.84 L863.577 1275.53 L870.568 1277.68 L877.708 1279.27 L884.951 1280.28 L892.252 1280.72 L899.564 1280.57 L906.842 1279.85 L914.039 1278.55 L921.11 1276.68 L928.01 1274.25 L934.695 1271.29 L941.124 1267.8 L947.255 1263.81 L953.05 1259.35 L958.472 1254.44 L963.488 1249.12 L968.064 1243.41 L972.172 1237.36 L975.787 1231 L978.886 1224.38 L981.448 1217.53 L983.457 1210.49 L984.902 1203.32 L985.773 1196.06 L986.063 1188.75 L986.063 1188.75  Z" fill="#5e4fa1" fill-rule="evenodd" fill-opacity="1"/>
<polyline clip-path="url(#clip512)" style="stroke:#000000; stroke-linecap:round; stroke-linejoin:round; stroke-width:4; stroke-opacity:1; fill:none" points="986.063,1188.75 985.773,1181.45 984.902,1174.19 983.457,1167.02 981.448,1159.98 978.886,1153.13 975.787,1146.51 972.172,1140.15 968.064,1134.1 963.488,1128.39 958.472,1123.07 953.05,1118.16 947.255,1113.7 941.124,1109.71 934.695,1106.22 928.01,1103.26 921.11,1100.83 914.039,1098.96 906.842,1097.66 899.564,1096.94 892.252,1096.79 884.951,1097.23 877.708,1098.24 870.568,1099.83 863.577,1101.98 856.779,1104.67 850.217,1107.9 843.932,1111.64 837.964,1115.87 832.351,1120.56 827.128,1125.68 822.328,1131.2 817.983,1137.08 814.118,1143.29 810.759,1149.79 807.926,1156.53 805.638,1163.48 803.91,1170.59 802.751,1177.81 802.17,1185.1 802.17,1192.41 802.751,1199.7 803.91,1206.92 805.638,1214.03 807.926,1220.98 810.759,1227.72 814.118,1234.22 817.983,1240.43 822.328,1246.31 827.128,1251.83 832.351,1256.95 837.964,1261.64 843.932,1265.87 850.217,1269.61 856.779,1272.84 863.577,1275.53 870.568,1277.68 877.708,1279.27 884.951,1280.28 892.252,1280.72 899.564,1280.57 906.842,1279.85 914.039,1278.55 921.11,1276.68 928.01,1274.25 934.695,1271.29 941.124,1267.8 947.255,1263.81 953.05,1259.35 958.472,1254.44 963.488,1249.12 968.064,1243.41 972.172,1237.36 975.787,1231 978.886,1224.38 981.448,1217.53 983.457,1210.49 984.902,1203.32 985.773,1196.06 986.063,1188.75 "/>
<path clip-path="url(#clip512)" d="M1157.37 765.717 L1157.08 758.409 L1156.21 751.147 L1154.77 743.978 L1152.76 736.945 L1150.19 730.095 L1147.1 723.47 L1143.48 717.112 L1139.37 711.061 L1134.8 705.356 L1129.78 700.032 L1124.36 695.124 L1118.56 690.662 L1112.43 686.674 L1106 683.187 L1099.32 680.221 L1092.42 677.795 L1085.35 675.926 L1078.15 674.624 L1070.87 673.898 L1063.56 673.753 L1056.26 674.189 L1049.02 675.203 L1041.88 676.79 L1034.88 678.939 L1028.09 681.637 L1021.52 684.867 L1015.24 688.607 L1009.27 692.835 L1003.66 697.524 L998.436 702.644 L993.636 708.163 L989.29 714.045 L985.426 720.255 L982.066 726.752 L979.234 733.495 L976.946 740.442 L975.218 747.548 L974.059 754.77 L973.478 762.06 L973.478 769.374 L974.059 776.665 L975.218 783.886 L976.946 790.993 L979.234 797.94 L982.066 804.683 L985.426 811.18 L989.29 817.389 L993.636 823.272 L998.436 828.791 L1003.66 833.911 L1009.27 838.599 L1015.24 842.827 L1021.52 846.568 L1028.09 849.797 L1034.88 852.495 L1041.88 854.644 L1049.02 856.231 L1056.26 857.246 L1063.56 857.682 L1070.87 857.537 L1078.15 856.811 L1085.35 855.509 L1092.42 853.639 L1099.32 851.214 L1106 848.248 L1112.43 844.76 L1118.56 840.773 L1124.36 836.311 L1129.78 831.402 L1134.8 826.079 L1139.37 820.374 L1143.48 814.323 L1147.1 807.965 L1150.19 801.34 L1152.76 794.489 L1154.77 787.457 L1156.21 780.287 L1157.08 773.025 L1157.37 765.717 L1157.37 765.717  Z" fill="#5e4fa1" fill-rule="evenodd" fill-opacity="1"/>
<polyline clip-path="url(#clip512)" style="stroke:#000000; stroke-linecap:round; stroke-linejoin:round; stroke-width:4; stroke-opacity:1; fill:none" points="1157.37,765.717 1157.08,758.409 1156.21,751.147 1154.77,743.978 1152.76,736.945 1150.19,730.095 1147.1,723.47 1143.48,717.112 1139.37,711.061 1134.8,705.356 1129.78,700.032 1124.36,695.124 1118.56,690.662 1112.43,686.674 1106,683.187 1099.32,680.221 1092.42,677.795 1085.35,675.926 1078.15,674.624 1070.87,673.898 1063.56,673.753 1056.26,674.189 1049.02,675.203 1041.88,676.79 1034.88,678.939 1028.09,681.637 1021.52,684.867 1015.24,688.607 1009.27,692.835 1003.66,697.524 998.436,702.644 993.636,708.163 989.29,714.045 985.426,720.255 982.066,726.752 979.234,733.495 976.946,740.442 975.218,747.548 974.059,754.77 973.478,762.06 973.478,769.374 974.059,776.665 975.218,783.886 976.946,790.993 979.234,797.94 982.066,804.683 985.426,811.18 989.29,817.389 993.636,823.272 998.436,828.791 1003.66,833.911 1009.27,838.599 1015.24,842.827 1021.52,846.568 1028.09,849.797 1034.88,852.495 1041.88,854.644 1049.02,856.231 1056.26,857.246 1063.56,857.682 1070.87,857.537 1078.15,856.811 1085.35,855.509 1092.42,853.639 1099.32,851.214 1106,848.248 1112.43,844.76 1118.56,840.773 1124.36,836.311 1129.78,831.402 1134.8,826.079 1139.37,820.374 1143.48,814.323 1147.1,807.965 1150.19,801.34 1152.76,794.489 1154.77,787.457 1156.21,780.287 1157.08,773.025 1157.37,765.717 "/>
<path clip-path="url(#clip512)" d="M798.024 387.116 L797.733 379.808 L796.863 372.546 L795.418 365.376 L793.408 358.344 L790.846 351.493 L787.748 344.868 L784.133 338.51 L780.024 332.459 L775.448 326.754 L770.433 321.431 L765.011 316.522 L759.216 312.06 L753.084 308.073 L746.656 304.585 L739.97 301.619 L733.07 299.194 L725.999 297.324 L718.802 296.022 L711.525 295.296 L704.212 295.151 L696.911 295.587 L689.668 296.602 L682.529 298.189 L675.538 300.338 L668.74 303.036 L662.177 306.265 L655.892 310.006 L649.924 314.234 L644.311 318.923 L639.089 324.043 L634.289 329.561 L629.943 335.444 L626.078 341.653 L622.719 348.15 L619.887 354.893 L617.599 361.84 L615.87 368.947 L614.712 376.168 L614.131 383.459 L614.131 390.773 L614.712 398.063 L615.87 405.285 L617.599 412.392 L619.887 419.338 L622.719 426.082 L626.078 432.578 L629.943 438.788 L634.289 444.67 L639.089 450.189 L644.311 455.309 L649.924 459.998 L655.892 464.226 L662.177 467.967 L668.74 471.196 L675.538 473.894 L682.529 476.043 L689.668 477.63 L696.911 478.645 L704.212 479.081 L711.525 478.935 L718.802 478.209 L725.999 476.907 L733.07 475.038 L739.97 472.612 L746.656 469.646 L753.084 466.159 L759.216 462.171 L765.011 457.709 L770.433 452.801 L775.448 447.477 L780.024 441.772 L784.133 435.721 L787.748 429.363 L790.846 422.738 L793.408 415.888 L795.418 408.855 L796.863 401.686 L797.733 394.424 L798.024 387.116 L798.024 387.116  Z" fill="#5e4fa1" fill-rule="evenodd" fill-opacity="1"/>
<polyline clip-path="url(#clip512)" style="stroke:#000000; stroke-linecap:round; stroke-linejoin:round; stroke-width:4; stroke-opacity:1; fill:none" points="798.024,387.116 797.733,379.808 796.863,372.546 795.418,365.376 793.408,358.344 790.846,351.493 787.748,344.868 784.133,338.51 780.024,332.459 775.448,326.754 770.433,321.431 765.011,316.522 759.216,312.06 753.084,308.073 746.656,304.585 739.97,301.619 733.07,299.194 725.999,297.324 718.802,296.022 711.525,295.296 704.212,295.151 696.911,295.587 689.668,296.602 682.529,298.189 675.538,300.338 668.74,303.036 662.177,306.265 655.892,310.006 649.924,314.234 644.311,318.923 639.089,324.043 634.289,329.561 629.943,335.444 626.078,341.653 622.719,348.15 619.887,354.893 617.599,361.84 615.87,368.947 614.712,376.168 614.131,383.459 614.131,390.773 614.712,398.063 615.87,405.285 617.599,412.392 619.887,419.338 622.719,426.082 626.078,432.578 629.943,438.788 634.289,444.67 639.089,450.189 644.311,455.309 649.924,459.998 655.892,464.226 662.177,467.967 668.74,471.196 675.538,473.894 682.529,476.043 689.668,477.63 696.911,478.645 704.212,479.081 711.525,478.935 718.802,478.209 725.999,476.907 733.07,475.038 739.97,472.612 746.656,469.646 753.084,466.159 759.216,462.171 765.011,457.709 770.433,452.801 775.448,447.477 780.024,441.772 784.133,435.721 787.748,429.363 790.846,422.738 793.408,415.888 795.418,408.855 796.863,401.686 797.733,394.424 798.024,387.116 "/>
<path clip-path="url(#clip512)" d="M754.3 913.276 L754.009 905.968 L753.139 898.706 L751.694 891.537 L749.684 884.504 L747.122 877.654 L744.024 871.029 L740.409 864.671 L736.301 858.62 L731.724 852.915 L726.709 847.591 L721.287 842.683 L715.492 838.221 L709.361 834.233 L702.932 830.746 L696.246 827.78 L689.346 825.354 L682.276 823.485 L675.079 822.183 L667.801 821.457 L660.488 821.312 L653.188 821.748 L645.944 822.762 L638.805 824.349 L631.814 826.498 L625.016 829.196 L618.454 832.426 L612.169 836.166 L606.201 840.394 L600.588 845.083 L595.365 850.203 L590.565 855.722 L586.219 861.604 L582.355 867.814 L578.995 874.311 L576.163 881.054 L573.875 888 L572.147 895.107 L570.988 902.329 L570.407 909.619 L570.407 916.933 L570.988 924.224 L572.147 931.445 L573.875 938.552 L576.163 945.499 L578.995 952.242 L582.355 958.739 L586.219 964.948 L590.565 970.831 L595.365 976.35 L600.588 981.47 L606.201 986.158 L612.169 990.386 L618.454 994.127 L625.016 997.356 L631.814 1000.05 L638.805 1002.2 L645.944 1003.79 L653.188 1004.81 L660.488 1005.24 L667.801 1005.1 L675.079 1004.37 L682.276 1003.07 L689.346 1001.2 L696.246 998.773 L702.932 995.807 L709.361 992.319 L715.492 988.332 L721.287 983.87 L726.709 978.961 L731.724 973.638 L736.301 967.933 L740.409 961.882 L744.024 955.524 L747.122 948.899 L749.684 942.048 L751.694 935.016 L753.139 927.846 L754.009 920.584 L754.3 913.276 L754.3 913.276  Z" fill="#5e4fa1" fill-rule="evenodd" fill-opacity="1"/>
<polyline clip-path="url(#clip512)" style="stroke:#000000; stroke-linecap:round; stroke-linejoin:round; stroke-width:4; stroke-opacity:1; fill:none" points="754.3,913.276 754.009,905.968 753.139,898.706 751.694,891.537 749.684,884.504 747.122,877.654 744.024,871.029 740.409,864.671 736.301,858.62 731.724,852.915 726.709,847.591 721.287,842.683 715.492,838.221 709.361,834.233 702.932,830.746 696.246,827.78 689.346,825.354 682.276,823.485 675.079,822.183 667.801,821.457 660.488,821.312 653.188,821.748 645.944,822.762 638.805,824.349 631.814,826.498 625.016,829.196 618.454,832.426 612.169,836.166 606.201,840.394 600.588,845.083 595.365,850.203 590.565,855.722 586.219,861.604 582.355,867.814 578.995,874.311 576.163,881.054 573.875,888 572.147,895.107 570.988,902.329 570.407,909.619 570.407,916.933 570.988,924.224 572.147,931.445 573.875,938.552 576.163,945.499 578.995,952.242 582.355,958.739 586.219,964.948 590.565,970.831 595.365,976.35 600.588,981.47 606.201,986.158 612.169,990.386 618.454,994.127 625.016,997.356 631.814,1000.05 638.805,1002.2 645.944,1003.79 653.188,1004.81 660.488,1005.24 667.801,1005.1 675.079,1004.37 682.276,1003.07 689.346,1001.2 696.246,998.773 702.932,995.807 709.361,992.319 715.492,988.332 721.287,983.87 726.709,978.961 731.724,973.638 736.301,967.933 740.409,961.882 744.024,955.524 747.122,948.899 749.684,942.048 751.694,935.016 753.139,927.846 754.009,920.584 754.3,913.276 "/>
<path clip-path="url(#clip512)" d="M1063.02 262.317 L1062.73 255.009 L1061.86 247.747 L1060.42 240.578 L1058.41 233.545 L1055.85 226.695 L1052.75 220.07 L1049.13 213.712 L1045.03 207.661 L1040.45 201.956 L1035.43 196.632 L1030.01 191.724 L1024.22 187.262 L1018.09 183.274 L1011.66 179.787 L1004.97 176.821 L998.071 174.395 L991 172.526 L983.803 171.224 L976.525 170.498 L969.213 170.352 L961.912 170.788 L954.669 171.803 L947.529 173.39 L940.538 175.539 L933.74 178.237 L927.178 181.466 L920.893 185.207 L914.925 189.435 L909.312 194.124 L904.089 199.244 L899.29 204.763 L894.944 210.645 L891.079 216.855 L887.72 223.351 L884.887 230.095 L882.6 237.041 L880.871 244.148 L879.713 251.37 L879.132 258.66 L879.132 265.974 L879.713 273.265 L880.871 280.486 L882.6 287.593 L884.887 294.54 L887.72 301.283 L891.079 307.78 L894.944 313.989 L899.29 319.872 L904.089 325.39 L909.312 330.51 L914.925 335.199 L920.893 339.427 L927.178 343.168 L933.74 346.397 L940.538 349.095 L947.529 351.244 L954.669 352.831 L961.912 353.846 L969.213 354.282 L976.525 354.137 L983.803 353.411 L991 352.109 L998.071 350.239 L1004.97 347.814 L1011.66 344.848 L1018.09 341.36 L1024.22 337.373 L1030.01 332.911 L1035.43 328.002 L1040.45 322.679 L1045.03 316.974 L1049.13 310.923 L1052.75 304.565 L1055.85 297.94 L1058.41 291.089 L1060.42 284.057 L1061.86 276.887 L1062.73 269.625 L1063.02 262.317 L1063.02 262.317  Z" fill="#5e4fa1" fill-rule="evenodd" fill-opacity="1"/>
<polyline clip-path="url(#clip512)" style="stroke:#000000; stroke-linecap:round; stroke-linejoin:round; stroke-width:4; stroke-opacity:1; fill:none" points="1063.02,262.317 1062.73,255.009 1061.86,247.747 1060.42,240.578 1058.41,233.545 1055.85,226.695 1052.75,220.07 1049.13,213.712 1045.03,207.661 1040.45,201.956 1035.43,196.632 1030.01,191.724 1024.22,187.262 1018.09,183.274 1011.66,179.787 1004.97,176.821 998.071,174.395 991,172.526 983.803,171.224 976.525,170.498 969.213,170.352 961.912,170.788 954.669,171.803 947.529,173.39 940.538,175.539 933.74,178.237 927.178,181.466 920.893,185.207 914.925,189.435 909.312,194.124 904.089,199.244 899.29,204.763 894.944,210.645 891.079,216.855 887.72,223.351 884.887,230.095 882.6,237.041 880.871,244.148 879.713,251.37 879.132,258.66 879.132,265.974 879.713,273.265 880.871,280.486 882.6,287.593 884.887,294.54 887.72,301.283 891.079,307.78 894.944,313.989 899.29,319.872 904.089,325.39 909.312,330.51 914.925,335.199 920.893,339.427 927.178,343.168 933.74,346.397 940.538,349.095 947.529,351.244 954.669,352.831 961.912,353.846 969.213,354.282 976.525,354.137 983.803,353.411 991,352.109 998.071,350.239 1004.97,347.814 1011.66,344.848 1018.09,341.36 1024.22,337.373 1030.01,332.911 1035.43,328.002 1040.45,322.679 1045.03,316.974 1049.13,310.923 1052.75,304.565 1055.85,297.94 1058.41,291.089 1060.42,284.057 1061.86,276.887 1062.73,269.625 1063.02,262.317 "/>
<circle clip-path="url(#clip512)" cx="1737.68" cy="595.766" r="0.36" fill="#5e4fa1" fill-rule="evenodd" fill-opacity="1" stroke="#000000" stroke-opacity="1" stroke-width="3.2"/>
<circle clip-path="url(#clip512)" cx="1674.81" cy="1337.68" r="0.36" fill="#5e4fa1" fill-rule="evenodd" fill-opacity="1" stroke="#000000" stroke-opacity="1" stroke-width="3.2"/>
<circle clip-path="url(#clip512)" cx="894.08" cy="1188.75" r="0.36" fill="#5e4fa1" fill-rule="evenodd" fill-opacity="1" stroke="#000000" stroke-opacity="1" stroke-width="3.2"/>
<circle clip-path="url(#clip512)" cx="1065.39" cy="765.717" r="0.36" fill="#5e4fa1" fill-rule="evenodd" fill-opacity="1" stroke="#000000" stroke-opacity="1" stroke-width="3.2"/>
<circle clip-path="url(#clip512)" cx="706.041" cy="387.116" r="0.36" fill="#5e4fa1" fill-rule="evenodd" fill-opacity="1" stroke="#000000" stroke-opacity="1" stroke-width="3.2"/>
<circle clip-path="url(#clip512)" cx="662.317" cy="913.276" r="0.36" fill="#5e4fa1" fill-rule="evenodd" fill-opacity="1" stroke="#000000" stroke-opacity="1" stroke-width="3.2"/>
<circle clip-path="url(#clip512)" cx="971.042" cy="262.317" r="0.36" fill="#5e4fa1" fill-rule="evenodd" fill-opacity="1" stroke="#000000" stroke-opacity="1" stroke-width="3.2"/>
<path clip-path="url(#clip510)" d="M1697.58 606.572 L1697.58 598.449 L1690.89 598.449 L1690.89 595.087 L1701.63 595.087 L1701.63 608.07 Q1699.26 609.752 1696.4 610.622 Q1693.55 611.473 1690.31 611.473 Q1683.22 611.473 1679.21 607.341 Q1675.22 603.189 1675.22 595.796 Q1675.22 588.383 1679.21 584.251 Q1683.22 580.099 1690.31 580.099 Q1693.26 580.099 1695.92 580.828 Q1698.59 581.557 1700.84 582.975 L1700.84 587.33 Q1698.57 585.406 1696.02 584.433 Q1693.47 583.461 1690.65 583.461 Q1685.1 583.461 1682.31 586.56 Q1679.53 589.659 1679.53 595.796 Q1679.53 601.913 1682.31 605.012 Q1685.1 608.111 1690.65 608.111 Q1692.82 608.111 1694.52 607.746 Q1696.22 607.361 1697.58 606.572 Z" fill="#000000" fill-rule="nonzero" fill-opacity="1" /><path clip-path="url(#clip510)" d="M1721.38 583.421 Q1716.92 583.421 1714.29 586.742 Q1711.68 590.064 1711.68 595.796 Q1711.68 601.508 1714.29 604.83 Q1716.92 608.151 1721.38 608.151 Q1725.83 608.151 1728.43 604.83 Q1731.04 601.508 1731.04 595.796 Q1731.04 590.064 1728.43 586.742 Q1725.83 583.421 1721.38 583.421 M1721.38 580.099 Q1727.74 580.099 1731.55 584.373 Q1735.35 588.626 1735.35 595.796 Q1735.35 602.946 1731.55 607.22 Q1727.74 611.473 1721.38 611.473 Q1715 611.473 1711.17 607.22 Q1707.36 602.966 1707.36 595.796 Q1707.36 588.626 1711.17 584.373 Q1715 580.099 1721.38 580.099 Z" fill="#000000" fill-rule="nonzero" fill-opacity="1" /><path clip-path="url(#clip510)" d="M1754.03 583.421 Q1749.57 583.421 1746.94 586.742 Q1744.33 590.064 1744.33 595.796 Q1744.33 601.508 1746.94 604.83 Q1749.57 608.151 1754.03 608.151 Q1758.48 608.151 1761.08 604.83 Q1763.69 601.508 1763.69 595.796 Q1763.69 590.064 1761.08 586.742 Q1758.48 583.421 1754.03 583.421 M1754.03 580.099 Q1760.39 580.099 1764.2 584.373 Q1768 588.626 1768 595.796 Q1768 602.946 1764.2 607.22 Q1760.39 611.473 1754.03 611.473 Q1747.65 611.473 1743.82 607.22 Q1740.01 602.966 1740.01 595.796 Q1740.01 588.626 1743.82 584.373 Q1747.65 580.099 1754.03 580.099 Z" fill="#000000" fill-rule="nonzero" fill-opacity="1" /><path clip-path="url(#clip510)" d="M1795.02 606.572 L1795.02 598.449 L1788.34 598.449 L1788.34 595.087 L1799.07 595.087 L1799.07 608.07 Q1796.7 609.752 1793.85 610.622 Q1790.99 611.473 1787.75 611.473 Q1780.66 611.473 1776.65 607.341 Q1772.66 603.189 1772.66 595.796 Q1772.66 588.383 1776.65 584.251 Q1780.66 580.099 1787.75 580.099 Q1790.71 580.099 1793.36 580.828 Q1796.04 581.557 1798.28 582.975 L1798.28 587.33 Q1796.02 585.406 1793.46 584.433 Q1790.91 583.461 1788.1 583.461 Q1782.55 583.461 1779.75 586.56 Q1776.98 589.659 1776.98 595.796 Q1776.98 601.913 1779.75 605.012 Q1782.55 608.111 1788.1 608.111 Q1790.26 608.111 1791.96 607.746 Q1793.67 607.361 1795.02 606.572 Z" fill="#000000" fill-rule="nonzero" fill-opacity="1" /><path clip-path="url(#clip510)" d="M1627.18 1326.59 L1621.63 1341.64 L1632.75 1341.64 L1627.18 1326.59 M1624.87 1322.56 L1629.51 1322.56 L1641.03 1352.8 L1636.78 1352.8 L1634.02 1345.05 L1620.39 1345.05 L1617.64 1352.8 L1613.32 1352.8 L1624.87 1322.56 Z" fill="#000000" fill-rule="nonzero" fill-opacity="1" /><path clip-path="url(#clip510)" d="M1645.45 1322.56 L1651.54 1322.56 L1659.26 1343.14 L1667.02 1322.56 L1673.11 1322.56 L1673.11 1352.8 L1669.12 1352.8 L1669.12 1326.25 L1661.33 1346.99 L1657.22 1346.99 L1649.42 1326.25 L1649.42 1352.8 L1645.45 1352.8 L1645.45 1322.56 Z" fill="#000000" fill-rule="nonzero" fill-opacity="1" /><path clip-path="url(#clip510)" d="M1679.5 1322.56 L1703.25 1322.56 L1703.25 1325.68 L1684.13 1349.36 L1703.72 1349.36 L1703.72 1352.8 L1679.03 1352.8 L1679.03 1349.68 L1698.15 1326.01 L1679.5 1326.01 L1679.5 1322.56 Z" fill="#000000" fill-rule="nonzero" fill-opacity="1" /><path clip-path="url(#clip510)" d="M1709.65 1322.56 L1715.16 1322.56 L1728.57 1347.86 L1728.57 1322.56 L1732.54 1322.56 L1732.54 1352.8 L1727.03 1352.8 L1713.62 1327.5 L1713.62 1352.8 L1709.65 1352.8 L1709.65 1322.56 Z" fill="#000000" fill-rule="nonzero" fill-opacity="1" /><path clip-path="url(#clip510)" d="M887.883 1173.63 L913.464 1173.63 L913.464 1177.08 L902.729 1177.08 L902.729 1203.87 L898.617 1203.87 L898.617 1177.08 L887.883 1177.08 L887.883 1173.63 Z" fill="#000000" fill-rule="nonzero" fill-opacity="1" /><path clip-path="url(#clip510)" d="M1040.15 766.396 L1040.15 777.475 L1046.71 777.475 Q1050.02 777.475 1051.59 776.118 Q1053.2 774.741 1053.2 771.925 Q1053.2 769.09 1051.59 767.753 Q1050.02 766.396 1046.71 766.396 L1040.15 766.396 M1040.15 753.96 L1040.15 763.074 L1046.21 763.074 Q1049.2 763.074 1050.66 761.96 Q1052.14 760.826 1052.14 758.517 Q1052.14 756.228 1050.66 755.094 Q1049.2 753.96 1046.21 753.96 L1040.15 753.96 M1036.06 750.597 L1046.51 750.597 Q1051.19 750.597 1053.72 752.542 Q1056.25 754.486 1056.25 758.071 Q1056.25 760.846 1054.96 762.487 Q1053.66 764.127 1051.15 764.532 Q1054.17 765.181 1055.83 767.247 Q1057.51 769.292 1057.51 772.371 Q1057.51 776.422 1054.75 778.63 Q1052 780.837 1046.92 780.837 L1036.06 780.837 L1036.06 750.597 Z" fill="#000000" fill-rule="nonzero" fill-opacity="1" /><path clip-path="url(#clip510)" d="M1068.61 766.396 L1068.61 777.475 L1075.17 777.475 Q1078.47 777.475 1080.05 776.118 Q1081.65 774.741 1081.65 771.925 Q1081.65 769.09 1080.05 767.753 Q1078.47 766.396 1075.17 766.396 L1068.61 766.396 M1068.61 753.96 L1068.61 763.074 L1074.66 763.074 Q1077.66 763.074 1079.12 761.96 Q1080.6 760.826 1080.6 758.517 Q1080.6 756.228 1079.12 755.094 Q1077.66 753.96 1074.66 753.96 L1068.61 753.96 M1064.52 750.597 L1074.97 750.597 Q1079.65 750.597 1082.18 752.542 Q1084.71 754.486 1084.71 758.071 Q1084.71 760.846 1083.41 762.487 Q1082.12 764.127 1079.61 764.532 Q1082.62 765.181 1084.29 767.247 Q1085.97 769.292 1085.97 772.371 Q1085.97 776.422 1083.21 778.63 Q1080.46 780.837 1075.37 780.837 L1064.52 780.837 L1064.52 750.597 Z" fill="#000000" fill-rule="nonzero" fill-opacity="1" /><path clip-path="url(#clip510)" d="M1086.55 750.597 L1090.95 750.597 L1099.33 763.034 L1107.66 750.597 L1112.05 750.597 L1101.36 766.436 L1101.36 780.837 L1097.25 780.837 L1097.25 766.436 L1086.55 750.597 Z" fill="#000000" fill-rule="nonzero" fill-opacity="1" /><path clip-path="url(#clip510)" d="M678.029 371.996 L684.126 371.996 L691.843 392.574 L699.6 371.996 L705.697 371.996 L705.697 402.236 L701.706 402.236 L701.706 375.682 L693.908 396.423 L689.797 396.423 L681.999 375.682 L681.999 402.236 L678.029 402.236 L678.029 371.996 Z" fill="#000000" fill-rule="nonzero" fill-opacity="1" /><path clip-path="url(#clip510)" d="M723.926 376.026 L718.376 391.076 L729.496 391.076 L723.926 376.026 M721.617 371.996 L726.255 371.996 L737.78 402.236 L733.526 402.236 L730.772 394.478 L717.14 394.478 L714.386 402.236 L710.072 402.236 L721.617 371.996 Z" fill="#000000" fill-rule="nonzero" fill-opacity="1" /><path clip-path="url(#clip510)" d="M639.531 901.519 L639.531 912.881 L644.676 912.881 Q647.531 912.881 649.091 911.403 Q650.651 909.924 650.651 907.19 Q650.651 904.476 649.091 902.997 Q647.531 901.519 644.676 901.519 L639.531 901.519 M635.439 898.156 L644.676 898.156 Q649.759 898.156 652.352 900.465 Q654.965 902.754 654.965 907.19 Q654.965 911.666 652.352 913.955 Q649.759 916.244 644.676 916.244 L639.531 916.244 L639.531 928.396 L635.439 928.396 L635.439 898.156 Z" fill="#000000" fill-rule="nonzero" fill-opacity="1" /><path clip-path="url(#clip510)" d="M660.454 898.156 L677.832 898.156 L677.832 901.6 L664.545 901.6 L664.545 910.512 L676.536 910.512 L676.536 913.955 L664.545 913.955 L664.545 928.396 L660.454 928.396 L660.454 898.156 Z" fill="#000000" fill-rule="nonzero" fill-opacity="1" /><path clip-path="url(#clip510)" d="M684.314 898.156 L703.434 898.156 L703.434 901.6 L688.405 901.6 L688.405 910.552 L702.806 910.552 L702.806 913.995 L688.405 913.995 L688.405 924.953 L703.798 924.953 L703.798 928.396 L684.314 928.396 L684.314 898.156 Z" fill="#000000" fill-rule="nonzero" fill-opacity="1" /><path clip-path="url(#clip510)" d="M945.187 247.197 L949.278 247.197 L949.278 275.331 Q949.278 280.799 947.192 283.271 Q945.126 285.742 940.528 285.742 L938.969 285.742 L938.969 282.298 L940.245 282.298 Q942.959 282.298 944.073 280.779 Q945.187 279.26 945.187 275.331 L945.187 247.197 Z" fill="#000000" fill-rule="nonzero" fill-opacity="1" /><path clip-path="url(#clip510)" d="M961.512 250.559 L961.512 261.922 L966.657 261.922 Q969.513 261.922 971.072 260.444 Q972.632 258.965 972.632 256.231 Q972.632 253.517 971.072 252.038 Q969.513 250.559 966.657 250.559 L961.512 250.559 M957.421 247.197 L966.657 247.197 Q971.741 247.197 974.333 249.506 Q976.946 251.795 976.946 256.231 Q976.946 260.707 974.333 262.996 Q971.741 265.284 966.657 265.284 L961.512 265.284 L961.512 277.437 L957.421 277.437 L957.421 247.197 Z" fill="#000000" fill-rule="nonzero" fill-opacity="1" /><path clip-path="url(#clip510)" d="M982.435 247.197 L988.532 247.197 L996.248 267.776 L1004.01 247.197 L1010.1 247.197 L1010.1 277.437 L1006.11 277.437 L1006.11 250.884 L998.314 271.624 L994.203 271.624 L986.405 250.884 L986.405 277.437 L982.435 277.437 L982.435 247.197 Z" fill="#000000" fill-rule="nonzero" fill-opacity="1" /></svg>
