<?xml version="1.0" encoding="utf-8"?>
<svg xmlns="http://www.w3.org/2000/svg" xmlns:xlink="http://www.w3.org/1999/xlink" width="600" height="400" viewBox="0 0 2400 1600">
<defs>
  <clipPath id="clip060">
    <rect x="0" y="0" width="2400" height="1600"/>
  </clipPath>
</defs>
<path clip-path="url(#clip060)" d="M0 1600 L2400 1600 L2400 0 L0 0  Z" fill="#ffffff" fill-rule="evenodd" fill-opacity="1"/>
<defs>
  <clipPath id="clip061">
    <rect x="480" y="0" width="1681" height="1600"/>
  </clipPath>
</defs>
<path clip-path="url(#clip060)" d="M447.244 1552.76 L1952.76 1552.76 L1952.76 47.2441 L447.244 47.2441  Z" fill="#ffffff" fill-rule="evenodd" fill-opacity="1"/>
<defs>
  <clipPath id="clip062">
    <rect x="447" y="47" width="1507" height="1507"/>
  </clipPath>
</defs>
<polyline clip-path="url(#clip062)" style="stroke:#000000; stroke-linecap:round; stroke-linejoin:round; stroke-width:4; stroke-opacity:1; fill:none" points="1737.68,640.276 1490.69,262.317 "/>
<polyline clip-path="url(#clip062)" style="stroke:#000000; stroke-linecap:round; stroke-linejoin:round; stroke-width:4; stroke-opacity:1; fill:none" points="1071.54,922.319 838.016,1337.68 "/>
<polyline clip-path="url(#clip062)" style="stroke:#000000; stroke-linecap:round; stroke-linejoin:round; stroke-width:4; stroke-opacity:1; fill:none" points="1071.54,922.319 804.895,785.113 "/>
<polyline clip-path="url(#clip062)" style="stroke:#000000; stroke-linecap:round; stroke-linejoin:round; stroke-width:4; stroke-opacity:1; fill:none" points="1071.54,922.319 662.317,1070.31 "/>
<polyline clip-path="url(#clip062)" style="stroke:#000000; stroke-linecap:round; stroke-linejoin:round; stroke-width:4; stroke-opacity:1; fill:none" points="1071.54,922.319 1114.27,1255.87 "/>
<polyline clip-path="url(#clip062)" style="stroke:#000000; stroke-linecap:round; stroke-linejoin:round; stroke-width:4; stroke-opacity:1; fill:none" points="838.016,1337.68 804.895,785.113 "/>
<polyline clip-path="url(#clip062)" style="stroke:#000000; stroke-linecap:round; stroke-linejoin:round; stroke-width:4; stroke-opacity:1; fill:none" points="838.016,1337.68 662.317,1070.31 "/>
<polyline clip-path="url(#clip062)" style="stroke:#000000; stroke-linecap:round; stroke-linejoin:round; stroke-width:4; stroke-opacity:1; fill:none" points="838.016,1337.68 1114.27,1255.87 "/>
<polyline clip-path="url(#clip062)" style="stroke:#000000; stroke-linecap:round; stroke-linejoin:round; stroke-width:4; stroke-opacity:1; fill:none" points="804.895,785.113 662.317,1070.31 "/>
<polyline clip-path="url(#clip062)" style="stroke:#000000; stroke-linecap:round; stroke-linejoin:round; stroke-width:4; stroke-opacity:1; fill:none" points="804.895,785.113 1114.27,1255.87 "/>
<polyline clip-path="url(#clip062)" style="stroke:#000000; stroke-linecap:round; stroke-linejoin:round; stroke-width:4; stroke-opacity:1; fill:none" points="662.317,1070.31 1114.27,1255.87 "/>
<path clip-path="url(#clip062)" d="M1829.67 640.276 L1829.37 632.968 L1828.5 625.706 L1827.06 618.537 L1825.05 611.504 L1822.49 604.654 L1819.39 598.029 L1815.77 591.671 L1811.67 585.62 L1807.09 579.915 L1802.07 574.591 L1796.65 569.683 L1790.86 565.221 L1784.73 561.233 L1778.3 557.746 L1771.61 554.78 L1764.71 552.354 L1757.64 550.485 L1750.44 549.183 L1743.17 548.457 L1735.85 548.312 L1728.55 548.748 L1721.31 549.762 L1714.17 551.349 L1707.18 553.498 L1700.38 556.196 L1693.82 559.426 L1687.53 563.166 L1681.57 567.394 L1675.95 572.083 L1670.73 577.203 L1665.93 582.722 L1661.58 588.604 L1657.72 594.814 L1654.36 601.311 L1651.53 608.054 L1649.24 615.001 L1647.51 622.107 L1646.35 629.329 L1645.77 636.619 L1645.77 643.933 L1646.35 651.224 L1647.51 658.445 L1649.24 665.552 L1651.53 672.499 L1654.36 679.242 L1657.72 685.739 L1661.58 691.948 L1665.93 697.831 L1670.73 703.35 L1675.95 708.47 L1681.57 713.158 L1687.53 717.386 L1693.82 721.127 L1700.38 724.356 L1707.18 727.054 L1714.17 729.203 L1721.31 730.79 L1728.55 731.805 L1735.85 732.241 L1743.17 732.096 L1750.44 731.37 L1757.64 730.068 L1764.71 728.198 L1771.61 725.773 L1778.3 722.807 L1784.73 719.319 L1790.86 715.332 L1796.65 710.87 L1802.07 705.961 L1807.09 700.638 L1811.67 694.933 L1815.77 688.882 L1819.39 682.524 L1822.49 675.899 L1825.05 669.048 L1827.06 662.016 L1828.5 654.846 L1829.37 647.584 L1829.67 640.276 L1829.67 640.276  Z" fill="#9e0142" fill-rule="evenodd" fill-opacity="1"/>
<polyline clip-path="url(#clip062)" style="stroke:#000000; stroke-linecap:round; stroke-linejoin:round; stroke-width:4; stroke-opacity:1; fill:none" points="1829.67,640.276 1829.37,632.968 1828.5,625.706 1827.06,618.537 1825.05,611.504 1822.49,604.654 1819.39,598.029 1815.77,591.671 1811.67,585.62 1807.09,579.915 1802.07,574.591 1796.65,569.683 1790.86,565.221 1784.73,561.233 1778.3,557.746 1771.61,554.78 1764.71,552.354 1757.64,550.485 1750.44,549.183 1743.17,548.457 1735.85,548.312 1728.55,548.748 1721.31,549.762 1714.17,551.349 1707.18,553.498 1700.38,556.196 1693.82,559.426 1687.53,563.166 1681.57,567.394 1675.95,572.083 1670.73,577.203 1665.93,582.722 1661.58,588.604 1657.72,594.814 1654.36,601.311 1651.53,608.054 1649.24,615.001 1647.51,622.107 1646.35,629.329 1645.77,636.619 1645.77,643.933 1646.35,651.224 1647.51,658.445 1649.24,665.552 1651.53,672.499 1654.36,679.242 1657.72,685.739 1661.58,691.948 1665.93,697.831 1670.73,703.35 1675.95,708.47 1681.57,713.158 1687.53,717.386 1693.82,721.127 1700.38,724.356 1707.18,727.054 1714.17,729.203 1721.31,730.79 1728.55,731.805 1735.85,732.241 1743.17,732.096 1750.44,731.37 1757.64,730.068 1764.71,728.198 1771.61,725.773 1778.3,722.807 1784.73,719.319 1790.86,715.332 1796.65,710.87 1802.07,705.961 1807.09,700.638 1811.67,694.933 1815.77,688.882 1819.39,682.524 1822.49,675.899 1825.05,669.048 1827.06,662.016 1828.5,654.846 1829.37,647.584 1829.67,640.276 "/>
<path clip-path="url(#clip062)" d="M1582.67 262.317 L1582.38 255.009 L1581.51 247.747 L1580.06 240.578 L1578.05 233.545 L1575.49 226.695 L1572.39 220.07 L1568.78 213.712 L1564.67 207.661 L1560.09 201.956 L1555.08 196.632 L1549.66 191.724 L1543.86 187.262 L1537.73 183.274 L1531.3 179.787 L1524.62 176.821 L1517.72 174.395 L1510.64 172.526 L1503.45 171.224 L1496.17 170.498 L1488.86 170.352 L1481.56 170.788 L1474.31 171.803 L1467.17 173.39 L1460.18 175.539 L1453.38 178.237 L1446.82 181.466 L1440.54 185.207 L1434.57 189.435 L1428.96 194.124 L1423.73 199.244 L1418.93 204.763 L1414.59 210.645 L1410.72 216.855 L1407.36 223.351 L1404.53 230.095 L1402.24 237.041 L1400.52 244.148 L1399.36 251.37 L1398.78 258.66 L1398.78 265.974 L1399.36 273.265 L1400.52 280.486 L1402.24 287.593 L1404.53 294.54 L1407.36 301.283 L1410.72 307.78 L1414.59 313.989 L1418.93 319.872 L1423.73 325.39 L1428.96 330.51 L1434.57 335.199 L1440.54 339.427 L1446.82 343.168 L1453.38 346.397 L1460.18 349.095 L1467.17 351.244 L1474.31 352.831 L1481.56 353.846 L1488.86 354.282 L1496.17 354.137 L1503.45 353.411 L1510.64 352.109 L1517.72 350.239 L1524.62 347.814 L1531.3 344.848 L1537.73 341.36 L1543.86 337.373 L1549.66 332.911 L1555.08 328.002 L1560.09 322.679 L1564.67 316.974 L1568.78 310.923 L1572.39 304.565 L1575.49 297.94 L1578.05 291.089 L1580.06 284.057 L1581.51 276.887 L1582.38 269.625 L1582.67 262.317 L1582.67 262.317  Z" fill="#9e0142" fill-rule="evenodd" fill-opacity="1"/>
<polyline clip-path="url(#clip062)" style="stroke:#000000; stroke-linecap:round; stroke-linejoin:round; stroke-width:4; stroke-opacity:1; fill:none" points="1582.67,262.317 1582.38,255.009 1581.51,247.747 1580.06,240.578 1578.05,233.545 1575.49,226.695 1572.39,220.07 1568.78,213.712 1564.67,207.661 1560.09,201.956 1555.08,196.632 1549.66,191.724 1543.86,187.262 1537.73,183.274 1531.3,179.787 1524.62,176.821 1517.72,174.395 1510.64,172.526 1503.45,171.224 1496.17,170.498 1488.86,170.352 1481.56,170.788 1474.31,171.803 1467.17,173.39 1460.18,175.539 1453.38,178.237 1446.82,181.466 1440.54,185.207 1434.57,189.435 1428.96,194.124 1423.73,199.244 1418.93,204.763 1414.59,210.645 1410.72,216.855 1407.36,223.351 1404.53,230.095 1402.24,237.041 1400.52,244.148 1399.36,251.37 1398.78,258.66 1398.78,265.974 1399.36,273.265 1400.52,280.486 1402.24,287.593 1404.53,294.54 1407.36,301.283 1410.72,307.78 1414.59,313.989 1418.93,319.872 1423.73,325.39 1428.96,330.51 1434.57,335.199 1440.54,339.427 1446.82,343.168 1453.38,346.397 1460.18,349.095 1467.17,351.244 1474.31,352.831 1481.56,353.846 1488.86,354.282 1496.17,354.137 1503.45,353.411 1510.64,352.109 1517.72,350.239 1524.62,347.814 1531.3,344.848 1537.73,341.36 1543.86,337.373 1549.66,332.911 1555.08,328.002 1560.09,322.679 1564.67,316.974 1568.78,310.923 1572.39,304.565 1575.49,297.94 1578.05,291.089 1580.06,284.057 1581.51,276.887 1582.38,269.625 1582.67,262.317 "/>
<path clip-path="url(#clip062)" d="M1163.52 922.319 L1163.23 915.011 L1162.36 907.749 L1160.91 900.58 L1158.9 893.547 L1156.34 886.697 L1153.24 880.072 L1149.63 873.714 L1145.52 867.663 L1140.94 861.958 L1135.93 856.634 L1130.51 851.726 L1124.71 847.264 L1118.58 843.276 L1112.15 839.789 L1105.47 836.823 L1098.57 834.397 L1091.49 832.528 L1084.3 831.226 L1077.02 830.5 L1069.71 830.355 L1062.41 830.791 L1055.16 831.805 L1048.02 833.392 L1041.03 835.541 L1034.23 838.239 L1027.67 841.469 L1021.39 845.209 L1015.42 849.437 L1009.81 854.126 L1004.58 859.246 L999.784 864.765 L995.438 870.648 L991.573 876.857 L988.214 883.354 L985.382 890.097 L983.094 897.044 L981.365 904.15 L980.207 911.372 L979.626 918.662 L979.626 925.976 L980.207 933.267 L981.365 940.489 L983.094 947.595 L985.382 954.542 L988.214 961.285 L991.573 967.782 L995.438 973.991 L999.784 979.874 L1004.58 985.393 L1009.81 990.513 L1015.42 995.201 L1021.39 999.43 L1027.67 1003.17 L1034.23 1006.4 L1041.03 1009.1 L1048.02 1011.25 L1055.16 1012.83 L1062.41 1013.85 L1069.71 1014.28 L1077.02 1014.14 L1084.3 1013.41 L1091.49 1012.11 L1098.57 1010.24 L1105.47 1007.82 L1112.15 1004.85 L1118.58 1001.36 L1124.71 997.375 L1130.51 992.913 L1135.93 988.005 L1140.94 982.681 L1145.52 976.976 L1149.63 970.925 L1153.24 964.567 L1156.34 957.942 L1158.9 951.091 L1160.91 944.059 L1162.36 936.889 L1163.23 929.627 L1163.52 922.319 L1163.52 922.319  Z" fill="#5e4fa1" fill-rule="evenodd" fill-opacity="1"/>
<polyline clip-path="url(#clip062)" style="stroke:#000000; stroke-linecap:round; stroke-linejoin:round; stroke-width:4; stroke-opacity:1; fill:none" points="1163.52,922.319 1163.23,915.011 1162.36,907.749 1160.91,900.58 1158.9,893.547 1156.34,886.697 1153.24,880.072 1149.63,873.714 1145.52,867.663 1140.94,861.958 1135.93,856.634 1130.51,851.726 1124.71,847.264 1118.58,843.276 1112.15,839.789 1105.47,836.823 1098.57,834.397 1091.49,832.528 1084.3,831.226 1077.02,830.5 1069.71,830.355 1062.41,830.791 1055.16,831.805 1048.02,833.392 1041.03,835.541 1034.23,838.239 1027.67,841.469 1021.39,845.209 1015.42,849.437 1009.81,854.126 1004.58,859.246 999.784,864.765 995.438,870.648 991.573,876.857 988.214,883.354 985.382,890.097 983.094,897.044 981.365,904.15 980.207,911.372 979.626,918.662 979.626,925.976 980.207,933.267 981.365,940.489 983.094,947.595 985.382,954.542 988.214,961.285 991.573,967.782 995.438,973.991 999.784,979.874 1004.58,985.393 1009.81,990.513 1015.42,995.201 1021.39,999.43 1027.67,1003.17 1034.23,1006.4 1041.03,1009.1 1048.02,1011.25 1055.16,1012.83 1062.41,1013.85 1069.71,1014.28 1077.02,1014.14 1084.3,1013.41 1091.49,1012.11 1098.57,1010.24 1105.47,1007.82 1112.15,1004.85 1118.58,1001.36 1124.71,997.375 1130.51,992.913 1135.93,988.005 1140.94,982.681 1145.52,976.976 1149.63,970.925 1153.24,964.567 1156.34,957.942 1158.9,951.091 1160.91,944.059 1162.36,936.889 1163.23,929.627 1163.52,922.319 "/>
<path clip-path="url(#clip062)" d="M929.999 1337.68 L929.708 1330.37 L928.838 1323.11 L927.393 1315.94 L925.383 1308.91 L922.821 1302.06 L919.723 1295.44 L916.108 1289.08 L912 1283.03 L907.423 1277.32 L902.408 1272 L896.986 1267.09 L891.191 1262.63 L885.06 1258.64 L878.631 1255.15 L871.945 1252.19 L865.045 1249.76 L857.975 1247.89 L850.777 1246.59 L843.5 1245.86 L836.187 1245.72 L828.887 1246.15 L821.643 1247.17 L814.504 1248.76 L807.513 1250.9 L800.715 1253.6 L794.152 1256.83 L787.868 1260.57 L781.9 1264.8 L776.287 1269.49 L771.064 1274.61 L766.264 1280.13 L761.918 1286.01 L758.054 1292.22 L754.694 1298.72 L751.862 1305.46 L749.574 1312.41 L747.846 1319.51 L746.687 1326.74 L746.106 1334.03 L746.106 1341.34 L746.687 1348.63 L747.846 1355.85 L749.574 1362.96 L751.862 1369.91 L754.694 1376.65 L758.054 1383.15 L761.918 1389.35 L766.264 1395.24 L771.064 1400.76 L776.287 1405.88 L781.9 1410.56 L787.868 1414.79 L794.152 1418.53 L800.715 1421.76 L807.513 1424.46 L814.504 1426.61 L821.643 1428.2 L828.887 1429.21 L836.187 1429.65 L843.5 1429.5 L850.777 1428.78 L857.975 1427.47 L865.045 1425.6 L871.945 1423.18 L878.631 1420.21 L885.06 1416.73 L891.191 1412.74 L896.986 1408.28 L902.408 1403.37 L907.423 1398.04 L912 1392.34 L916.108 1386.29 L919.723 1379.93 L922.821 1373.31 L925.383 1366.45 L927.393 1359.42 L928.838 1352.25 L929.708 1344.99 L929.999 1337.68 L929.999 1337.68  Z" fill="#5e4fa1" fill-rule="evenodd" fill-opacity="1"/>
<polyline clip-path="url(#clip062)" style="stroke:#000000; stroke-linecap:round; stroke-linejoin:round; stroke-width:4; stroke-opacity:1; fill:none" points="929.999,1337.68 929.708,1330.37 928.838,1323.11 927.393,1315.94 925.383,1308.91 922.821,1302.06 919.723,1295.44 916.108,1289.08 912,1283.03 907.423,1277.32 902.408,1272 896.986,1267.09 891.191,1262.63 885.06,1258.64 878.631,1255.15 871.945,1252.19 865.045,1249.76 857.975,1247.89 850.777,1246.59 843.5,1245.86 836.187,1245.72 828.887,1246.15 821.643,1247.17 814.504,1248.76 807.513,1250.9 800.715,1253.6 794.152,1256.83 787.868,1260.57 781.9,1264.8 776.287,1269.49 771.064,1274.61 766.264,1280.13 761.918,1286.01 758.054,1292.22 754.694,1298.72 751.862,1305.46 749.574,1312.41 747.846,1319.51 746.687,1326.74 746.106,1334.03 746.106,1341.34 746.687,1348.63 747.846,1355.85 749.574,1362.96 751.862,1369.91 754.694,1376.65 758.054,1383.15 761.918,1389.35 766.264,1395.24 771.064,1400.76 776.287,1405.88 781.9,1410.56 787.868,1414.79 794.152,1418.53 800.715,1421.76 807.513,1424.46 814.504,1426.61 821.643,1428.2 828.887,1429.21 836.187,1429.65 843.5,1429.5 850.777,1428.78 857.975,1427.47 865.045,1425.6 871.945,1423.18 878.631,1420.21 885.06,1416.73 891.191,1412.74 896.986,1408.28 902.408,1403.37 907.423,1398.04 912,1392.34 916.108,1386.29 919.723,1379.93 922.821,1373.31 925.383,1366.45 927.393,1359.42 928.838,1352.25 929.708,1344.99 929.999,1337.68 "/>
<path clip-path="url(#clip062)" d="M896.878 785.113 L896.587 777.805 L895.717 770.543 L894.272 763.373 L892.262 756.341 L889.7 749.491 L886.602 742.865 L882.987 736.507 L878.879 730.457 L874.302 724.751 L869.287 719.428 L863.865 714.519 L858.07 710.057 L851.938 706.07 L845.51 702.582 L838.824 699.616 L831.924 697.191 L824.853 695.321 L817.656 694.02 L810.379 693.294 L803.066 693.148 L795.765 693.584 L788.522 694.599 L781.383 696.186 L774.392 698.335 L767.594 701.033 L761.031 704.262 L754.747 708.003 L748.779 712.231 L743.166 716.92 L737.943 722.04 L733.143 727.558 L728.797 733.441 L724.932 739.65 L721.573 746.147 L718.741 752.89 L716.453 759.837 L714.724 766.944 L713.566 774.165 L712.985 781.456 L712.985 788.77 L713.566 796.061 L714.724 803.282 L716.453 810.389 L718.741 817.336 L721.573 824.079 L724.932 830.575 L728.797 836.785 L733.143 842.667 L737.943 848.186 L743.166 853.306 L748.779 857.995 L754.747 862.223 L761.031 865.964 L767.594 869.193 L774.392 871.891 L781.383 874.04 L788.522 875.627 L795.765 876.642 L803.066 877.078 L810.379 876.932 L817.656 876.206 L824.853 874.904 L831.924 873.035 L838.824 870.61 L845.51 867.644 L851.938 864.156 L858.07 860.168 L863.865 855.706 L869.287 850.798 L874.302 845.475 L878.879 839.769 L882.987 833.719 L886.602 827.36 L889.7 820.735 L892.262 813.885 L894.272 806.853 L895.717 799.683 L896.587 792.421 L896.878 785.113 L896.878 785.113  Z" fill="#5e4fa1" fill-rule="evenodd" fill-opacity="1"/>
<polyline clip-path="url(#clip062)" style="stroke:#000000; stroke-linecap:round; stroke-linejoin:round; stroke-width:4; stroke-opacity:1; fill:none" points="896.878,785.113 896.587,777.805 895.717,770.543 894.272,763.373 892.262,756.341 889.7,749.491 886.602,742.865 882.987,736.507 878.879,730.457 874.302,724.751 869.287,719.428 863.865,714.519 858.07,710.057 851.938,706.07 845.51,702.582 838.824,699.616 831.924,697.191 824.853,695.321 817.656,694.02 810.379,693.294 803.066,693.148 795.765,693.584 788.522,694.599 781.383,696.186 774.392,698.335 767.594,701.033 761.031,704.262 754.747,708.003 748.779,712.231 743.166,716.92 737.943,722.04 733.143,727.558 728.797,733.441 724.932,739.65 721.573,746.147 718.741,752.89 716.453,759.837 714.724,766.944 713.566,774.165 712.985,781.456 712.985,788.77 713.566,796.061 714.724,803.282 716.453,810.389 718.741,817.336 721.573,824.079 724.932,830.575 728.797,836.785 733.143,842.667 737.943,848.186 743.166,853.306 748.779,857.995 754.747,862.223 761.031,865.964 767.594,869.193 774.392,871.891 781.383,874.04 788.522,875.627 795.765,876.642 803.066,877.078 810.379,876.932 817.656,876.206 824.853,874.904 831.924,873.035 838.824,870.61 845.51,867.644 851.938,864.156 858.07,860.168 863.865,855.706 869.287,850.798 874.302,845.475 878.879,839.769 882.987,833.719 886.602,827.36 889.7,820.735 892.262,813.885 894.272,806.853 895.717,799.683 896.587,792.421 896.878,785.113 896.878,785.113 "/>
<path clip-path="url(#clip062)" d="M754.3 1070.31 L754.009 1063 L753.139 1055.74 L751.694 1048.57 L749.684 1041.54 L747.122 1034.69 L744.024 1028.06 L740.409 1021.7 L736.301 1015.65 L731.724 1009.95 L726.709 1004.62 L721.287 999.716 L715.492 995.254 L709.361 991.266 L702.932 987.779 L696.246 984.813 L689.346 982.387 L682.276 980.518 L675.079 979.216 L667.801 978.49 L660.488 978.345 L653.188 978.781 L645.944 979.795 L638.805 981.382 L631.814 983.531 L625.016 986.229 L618.454 989.459 L612.169 993.199 L606.201 997.427 L600.588 1002.12 L595.365 1007.24 L590.565 1012.75 L586.219 1018.64 L582.355 1024.85 L578.995 1031.34 L576.163 1038.09 L573.875 1045.03 L572.147 1052.14 L570.988 1059.36 L570.407 1066.65 L570.407 1073.97 L570.988 1081.26 L572.147 1088.48 L573.875 1095.59 L576.163 1102.53 L578.995 1109.28 L582.355 1115.77 L586.219 1121.98 L590.565 1127.86 L595.365 1133.38 L600.588 1138.5 L606.201 1143.19 L612.169 1147.42 L618.454 1151.16 L625.016 1154.39 L631.814 1157.09 L638.805 1159.24 L645.944 1160.82 L653.188 1161.84 L660.488 1162.27 L667.801 1162.13 L675.079 1161.4 L682.276 1160.1 L689.346 1158.23 L696.246 1155.81 L702.932 1152.84 L709.361 1149.35 L715.492 1145.36 L721.287 1140.9 L726.709 1135.99 L731.724 1130.67 L736.301 1124.97 L740.409 1118.91 L744.024 1112.56 L747.122 1105.93 L749.684 1099.08 L751.694 1092.05 L753.139 1084.88 L754.009 1077.62 L754.3 1070.31 L754.3 1070.31  Z" fill="#5e4fa1" fill-rule="evenodd" fill-opacity="1"/>
<polyline clip-path="url(#clip062)" style="stroke:#000000; stroke-linecap:round; stroke-linejoin:round; stroke-width:4; stroke-opacity:1; fill:none" points="754.3,1070.31 754.009,1063 753.139,1055.74 751.694,1048.57 749.684,1041.54 747.122,1034.69 744.024,1028.06 740.409,1021.7 736.301,1015.65 731.724,1009.95 726.709,1004.62 721.287,999.716 715.492,995.254 709.361,991.266 702.932,987.779 696.246,984.813 689.346,982.387 682.276,980.518 675.079,979.216 667.801,978.49 660.488,978.345 653.188,978.781 645.944,979.795 638.805,981.382 631.814,983.531 625.016,986.229 618.454,989.459 612.169,993.199 606.201,997.427 600.588,1002.12 595.365,1007.24 590.565,1012.75 586.219,1018.64 582.355,1024.85 578.995,1031.34 576.163,1038.09 573.875,1045.03 572.147,1052.14 570.988,1059.36 570.407,1066.65 570.407,1073.97 570.988,1081.26 572.147,1088.48 573.875,1095.59 576.163,1102.53 578.995,1109.28 582.355,1115.77 586.219,1121.98 590.565,1127.86 595.365,1133.38 600.588,1138.5 606.201,1143.19 612.169,1147.42 618.454,1151.16 625.016,1154.39 631.814,1157.09 638.805,1159.24 645.944,1160.82 653.188,1161.84 660.488,1162.27 667.801,1162.13 675.079,1161.4 682.276,1160.1 689.346,1158.23 696.246,1155.81 702.932,1152.84 709.361,1149.35 715.492,1145.36 721.287,1140.9 726.709,1135.99 731.724,1130.67 736.301,1124.97 740.409,1118.91 744.024,1112.56 747.122,1105.93 749.684,1099.08 751.694,1092.05 753.139,1084.88 754.009,1077.62 754.3,1070.31 "/>
<path clip-path="url(#clip062)" d="M1206.26 1255.87 L1205.96 1248.56 L1205.09 1241.3 L1203.65 1234.13 L1201.64 1227.1 L1199.08 1220.25 L1195.98 1213.62 L1192.36 1207.27 L1188.26 1201.21 L1183.68 1195.51 L1178.66 1190.19 L1173.24 1185.28 L1167.45 1180.82 L1161.32 1176.83 L1154.89 1173.34 L1148.2 1170.37 L1141.3 1167.95 L1134.23 1166.08 L1127.03 1164.78 L1119.76 1164.05 L1112.44 1163.91 L1105.14 1164.34 L1097.9 1165.36 L1090.76 1166.94 L1083.77 1169.09 L1076.97 1171.79 L1070.41 1175.02 L1064.12 1178.76 L1058.16 1182.99 L1052.54 1187.68 L1047.32 1192.8 L1042.52 1198.32 L1038.17 1204.2 L1034.31 1210.41 L1030.95 1216.9 L1028.12 1223.65 L1025.83 1230.59 L1024.1 1237.7 L1022.94 1244.92 L1022.36 1252.21 L1022.36 1259.53 L1022.94 1266.82 L1024.1 1274.04 L1025.83 1281.15 L1028.12 1288.09 L1030.95 1294.84 L1034.31 1301.33 L1038.17 1307.54 L1042.52 1313.43 L1047.32 1318.94 L1052.54 1324.06 L1058.16 1328.75 L1064.12 1332.98 L1070.41 1336.72 L1076.97 1339.95 L1083.77 1342.65 L1090.76 1344.8 L1097.9 1346.38 L1105.14 1347.4 L1112.44 1347.84 L1119.76 1347.69 L1127.03 1346.96 L1134.23 1345.66 L1141.3 1343.79 L1148.2 1341.37 L1154.89 1338.4 L1161.32 1334.91 L1167.45 1330.93 L1173.24 1326.46 L1178.66 1321.56 L1183.68 1316.23 L1188.26 1310.53 L1192.36 1304.48 L1195.98 1298.12 L1199.08 1291.49 L1201.64 1284.64 L1203.65 1277.61 L1205.09 1270.44 L1205.96 1263.18 L1206.26 1255.87 L1206.26 1255.87  Z" fill="#5e4fa1" fill-rule="evenodd" fill-opacity="1"/>
<polyline clip-path="url(#clip062)" style="stroke:#000000; stroke-linecap:round; stroke-linejoin:round; stroke-width:4; stroke-opacity:1; fill:none" points="1206.26,1255.87 1205.96,1248.56 1205.09,1241.3 1203.65,1234.13 1201.64,1227.1 1199.08,1220.25 1195.98,1213.62 1192.36,1207.27 1188.26,1201.21 1183.68,1195.51 1178.66,1190.19 1173.24,1185.28 1167.45,1180.82 1161.32,1176.83 1154.89,1173.34 1148.2,1170.37 1141.3,1167.95 1134.23,1166.08 1127.03,1164.78 1119.76,1164.05 1112.44,1163.91 1105.14,1164.34 1097.9,1165.36 1090.76,1166.94 1083.77,1169.09 1076.97,1171.79 1070.41,1175.02 1064.12,1178.76 1058.16,1182.99 1052.54,1187.68 1047.32,1192.8 1042.52,1198.32 1038.17,1204.2 1034.31,1210.41 1030.95,1216.9 1028.12,1223.65 1025.83,1230.59 1024.1,1237.7 1022.94,1244.92 1022.36,1252.21 1022.36,1259.53 1022.94,1266.82 1024.1,1274.04 1025.83,1281.15 1028.12,1288.09 1030.95,1294.84 1034.31,1301.33 1038.17,1307.54 1042.52,1313.43 1047.32,1318.94 1052.54,1324.06 1058.16,1328.75 1064.12,1332.98 1070.41,1336.72 1076.97,1339.95 1083.77,1342.65 1090.76,1344.8 1097.9,1346.38 1105.14,1347.4 1112.44,1347.84 1119.76,1347.69 1127.03,1346.96 1134.23,1345.66 1141.3,1343.79 1148.2,1341.37 1154.89,1338.4 1161.32,1334.91 1167.45,1330.93 1173.24,1326.46 1178.66,1321.56 1183.68,1316.23 1188.26,1310.53 1192.36,1304.48 1195.98,1298.12 1199.08,1291.49 1201.64,1284.64 1203.65,1277.61 1205.09,1270.44 1205.96,1263.18 1206.26,1255.87 "/>
<circle clip-path="url(#clip062)" cx="1737.68" cy="640.276" r="0.36" fill="#5e4fa1" fill-rule="evenodd" fill-opacity="1" stroke="#000000" stroke-opacity="1" stroke-width="3.2"/>
<circle clip-path="url(#clip062)" cx="1490.69" cy="262.317" r="0.36" fill="#5e4fa1" fill-rule="evenodd" fill-opacity="1" stroke="#000000" stroke-opacity="1" stroke-width="3.2"/>
<circle clip-path="url(#clip062)" cx="1071.54" cy="922.319" r="0.36" fill="#5e4fa1" fill-rule="evenodd" fill-opacity="1" stroke="#000000" stroke-opacity="1" stroke-width="3.2"/>
<circle clip-path="url(#clip062)" cx="838.016" cy="1337.68" r="0.36" fill="#5e4fa1" fill-rule="evenodd" fill-opacity="1" stroke="#000000" stroke-opacity="1" stroke-width="3.2"/>
<circle clip-path="url(#clip062)" cx="804.895" cy="785.113" r="0.36" fill="#5e4fa1" fill-rule="evenodd" fill-opacity="1" stroke="#000000" stroke-opacity="1" stroke-width="3.2"/>
<circle clip-path="url(#clip062)" cx="662.317" cy="1070.31" r="0.36" fill="#5e4fa1" fill-rule="evenodd" fill-opacity="1" stroke="#000000" stroke-opacity="1" stroke-width="3.2"/>
<circle clip-path="url(#clip062)" cx="1114.27" cy="1255.87" r="0.36" fill="#5e4fa1" fill-rule="evenodd" fill-opacity="1" stroke="#000000" stroke-opacity="1" stroke-width="3.2"/>
<path clip-path="url(#clip060)" d="M1697.58 651.082 L1697.58 642.96 L1690.89 642.96 L1690.89 639.598 L1701.63 639.598 L1701.63 652.581 Q1699.26 654.262 1696.4 655.133 Q1693.55 655.984 1690.31 655.984 Q1683.22 655.984 1679.21 651.852 Q1675.22 647.7 1675.22 640.307 Q1675.22 632.894 1679.21 628.762 Q1683.22 624.609 1690.31 624.609 Q1693.26 624.609 1695.92 625.339 Q1698.59 626.068 1700.84 627.486 L1700.84 631.84 Q1698.57 629.916 1696.02 628.944 Q1693.47 627.972 1690.65 627.972 Q1685.1 627.972 1682.31 631.071 Q1679.53 634.17 1679.53 640.307 Q1679.53 646.424 1682.31 649.523 Q1685.1 652.621 1690.65 652.621 Q1692.82 652.621 1694.52 652.257 Q1696.22 651.872 1697.58 651.082 Z" fill="#000000" fill-rule="nonzero" fill-opacity="1" /><path clip-path="url(#clip060)" d="M1721.38 627.931 Q1716.92 627.931 1714.29 631.253 Q1711.68 634.575 1711.68 640.307 Q1711.68 646.018 1714.29 649.34 Q1716.92 652.662 1721.38 652.662 Q1725.83 652.662 1728.43 649.34 Q1731.04 646.018 1731.04 640.307 Q1731.04 634.575 1728.43 631.253 Q1725.83 627.931 1721.38 627.931 M1721.38 624.609 Q1727.74 624.609 1731.55 628.883 Q1735.35 633.137 1735.35 640.307 Q1735.35 647.457 1731.55 651.73 Q1727.74 655.984 1721.38 655.984 Q1715 655.984 1711.17 651.73 Q1707.36 647.477 1707.36 640.307 Q1707.36 633.137 1711.17 628.883 Q1715 624.609 1721.38 624.609 Z" fill="#000000" fill-rule="nonzero" fill-opacity="1" /><path clip-path="url(#clip060)" d="M1754.03 627.931 Q1749.57 627.931 1746.94 631.253 Q1744.33 634.575 1744.33 640.307 Q1744.33 646.018 1746.94 649.34 Q1749.57 652.662 1754.03 652.662 Q1758.48 652.662 1761.08 649.34 Q1763.69 646.018 1763.69 640.307 Q1763.69 634.575 1761.08 631.253 Q1758.48 627.931 1754.03 627.931 M1754.03 624.609 Q1760.39 624.609 1764.2 628.883 Q1768 633.137 1768 640.307 Q1768 647.457 1764.2 651.73 Q1760.39 655.984 1754.03 655.984 Q1747.65 655.984 1743.82 651.73 Q1740.01 647.477 1740.01 640.307 Q1740.01 633.137 1743.82 628.883 Q1747.65 624.609 1754.03 624.609 Z" fill="#000000" fill-rule="nonzero" fill-opacity="1" /><path clip-path="url(#clip060)" d="M1795.02 651.082 L1795.02 642.96 L1788.34 642.96 L1788.34 639.598 L1799.07 639.598 L1799.07 652.581 Q1796.7 654.262 1793.85 655.133 Q1790.99 655.984 1787.75 655.984 Q1780.66 655.984 1776.65 651.852 Q1772.66 647.7 1772.66 640.307 Q1772.66 632.894 1776.65 628.762 Q1780.66 624.609 1787.75 624.609 Q1790.71 624.609 1793.36 625.339 Q1796.04 626.068 1798.28 627.486 L1798.28 631.84 Q1796.02 629.916 1793.46 628.944 Q1790.91 627.972 1788.1 627.972 Q1782.55 627.972 1779.75 631.071 Q1776.98 634.17 1776.98 640.307 Q1776.98 646.424 1779.75 649.523 Q1782.55 652.621 1788.1 652.621 Q1790.26 652.621 1791.96 652.257 Q1793.67 651.872 1795.02 651.082 Z" fill="#000000" fill-rule="nonzero" fill-opacity="1" /><path clip-path="url(#clip060)" d="M1443.06 251.228 L1437.51 266.277 L1448.63 266.277 L1443.06 251.228 M1440.75 247.197 L1445.39 247.197 L1456.91 277.437 L1452.66 277.437 L1449.9 269.68 L1436.27 269.68 L1433.52 277.437 L1429.2 277.437 L1440.75 247.197 Z" fill="#000000" fill-rule="nonzero" fill-opacity="1" /><path clip-path="url(#clip060)" d="M1461.33 247.197 L1467.42 247.197 L1475.14 267.776 L1482.9 247.197 L1488.99 247.197 L1488.99 277.437 L1485 277.437 L1485 250.884 L1477.21 271.624 L1473.1 271.624 L1465.3 250.884 L1465.3 277.437 L1461.33 277.437 L1461.33 247.197 Z" fill="#000000" fill-rule="nonzero" fill-opacity="1" /><path clip-path="url(#clip060)" d="M1495.38 247.197 L1519.13 247.197 L1519.13 250.316 L1500.01 273.994 L1519.6 273.994 L1519.6 277.437 L1494.91 277.437 L1494.91 274.318 L1514.03 250.64 L1495.38 250.64 L1495.38 247.197 Z" fill="#000000" fill-rule="nonzero" fill-opacity="1" /><path clip-path="url(#clip060)" d="M1525.53 247.197 L1531.04 247.197 L1544.45 272.495 L1544.45 247.197 L1548.42 247.197 L1548.42 277.437 L1542.91 277.437 L1529.5 252.139 L1529.5 277.437 L1525.53 277.437 L1525.53 247.197 Z" fill="#000000" fill-rule="nonzero" fill-opacity="1" /><path clip-path="url(#clip060)" d="M1065.34 907.199 L1090.92 907.199 L1090.92 910.643 L1080.18 910.643 L1080.18 937.439 L1076.07 937.439 L1076.07 910.643 L1065.34 910.643 L1065.34 907.199 Z" fill="#000000" fill-rule="nonzero" fill-opacity="1" /><path clip-path="url(#clip060)" d="M812.779 1338.36 L812.779 1349.44 L819.342 1349.44 Q822.643 1349.44 824.223 1348.08 Q825.823 1346.71 825.823 1343.89 Q825.823 1341.06 824.223 1339.72 Q822.643 1338.36 819.342 1338.36 L812.779 1338.36 M812.779 1325.93 L812.779 1335.04 L818.835 1335.04 Q821.833 1335.04 823.291 1333.93 Q824.77 1332.79 824.77 1330.48 Q824.77 1328.19 823.291 1327.06 Q821.833 1325.93 818.835 1325.93 L812.779 1325.93 M808.688 1322.56 L819.139 1322.56 Q823.818 1322.56 826.35 1324.51 Q828.881 1326.45 828.881 1330.04 Q828.881 1332.81 827.585 1334.45 Q826.289 1336.09 823.777 1336.5 Q826.795 1337.15 828.456 1339.21 Q830.137 1341.26 830.137 1344.34 Q830.137 1348.39 827.383 1350.6 Q824.628 1352.8 819.544 1352.8 L808.688 1352.8 L808.688 1322.56 Z" fill="#000000" fill-rule="nonzero" fill-opacity="1" /><path clip-path="url(#clip060)" d="M841.237 1338.36 L841.237 1349.44 L847.799 1349.44 Q851.101 1349.44 852.68 1348.08 Q854.281 1346.71 854.281 1343.89 Q854.281 1341.06 852.68 1339.72 Q851.101 1338.36 847.799 1338.36 L841.237 1338.36 M841.237 1325.93 L841.237 1335.04 L847.293 1335.04 Q850.29 1335.04 851.749 1333.93 Q853.227 1332.79 853.227 1330.48 Q853.227 1328.19 851.749 1327.06 Q850.29 1325.93 847.293 1325.93 L841.237 1325.93 M837.145 1322.56 L847.597 1322.56 Q852.275 1322.56 854.807 1324.51 Q857.339 1326.45 857.339 1330.04 Q857.339 1332.81 856.043 1334.45 Q854.746 1336.09 852.235 1336.5 Q855.253 1337.15 856.914 1339.21 Q858.595 1341.26 858.595 1344.34 Q858.595 1348.39 855.84 1350.6 Q853.086 1352.8 848.002 1352.8 L837.145 1352.8 L837.145 1322.56 Z" fill="#000000" fill-rule="nonzero" fill-opacity="1" /><path clip-path="url(#clip060)" d="M859.182 1322.56 L863.577 1322.56 L871.963 1335 L880.287 1322.56 L884.683 1322.56 L873.988 1338.4 L873.988 1352.8 L869.877 1352.8 L869.877 1338.4 L859.182 1322.56 Z" fill="#000000" fill-rule="nonzero" fill-opacity="1" /><path clip-path="url(#clip060)" d="M776.883 769.993 L782.98 769.993 L790.697 790.572 L798.454 769.993 L804.551 769.993 L804.551 800.233 L800.561 800.233 L800.561 773.679 L792.763 794.42 L788.651 794.42 L780.853 773.679 L780.853 800.233 L776.883 800.233 L776.883 769.993 Z" fill="#000000" fill-rule="nonzero" fill-opacity="1" /><path clip-path="url(#clip060)" d="M822.78 774.024 L817.23 789.073 L828.35 789.073 L822.78 774.024 M820.471 769.993 L825.109 769.993 L836.634 800.233 L832.381 800.233 L829.626 792.475 L815.995 792.475 L813.24 800.233 L808.926 800.233 L820.471 769.993 Z" fill="#000000" fill-rule="nonzero" fill-opacity="1" /><path clip-path="url(#clip060)" d="M639.531 1058.55 L639.531 1069.91 L644.676 1069.91 Q647.531 1069.91 649.091 1068.44 Q650.651 1066.96 650.651 1064.22 Q650.651 1061.51 649.091 1060.03 Q647.531 1058.55 644.676 1058.55 L639.531 1058.55 M635.439 1055.19 L644.676 1055.19 Q649.759 1055.19 652.352 1057.5 Q654.965 1059.79 654.965 1064.22 Q654.965 1068.7 652.352 1070.99 Q649.759 1073.28 644.676 1073.28 L639.531 1073.28 L639.531 1085.43 L635.439 1085.43 L635.439 1055.19 Z" fill="#000000" fill-rule="nonzero" fill-opacity="1" /><path clip-path="url(#clip060)" d="M660.454 1055.19 L677.832 1055.19 L677.832 1058.63 L664.545 1058.63 L664.545 1067.54 L676.536 1067.54 L676.536 1070.99 L664.545 1070.99 L664.545 1085.43 L660.454 1085.43 L660.454 1055.19 Z" fill="#000000" fill-rule="nonzero" fill-opacity="1" /><path clip-path="url(#clip060)" d="M684.314 1055.19 L703.434 1055.19 L703.434 1058.63 L688.405 1058.63 L688.405 1067.59 L702.806 1067.59 L702.806 1071.03 L688.405 1071.03 L688.405 1081.99 L703.798 1081.99 L703.798 1085.43 L684.314 1085.43 L684.314 1055.19 Z" fill="#000000" fill-rule="nonzero" fill-opacity="1" /><path clip-path="url(#clip060)" d="M1088.42 1240.75 L1092.51 1240.75 L1092.51 1268.88 Q1092.51 1274.35 1090.42 1276.82 Q1088.36 1279.3 1083.76 1279.3 L1082.2 1279.3 L1082.2 1275.85 L1083.48 1275.85 Q1086.19 1275.85 1087.3 1274.33 Q1088.42 1272.81 1088.42 1268.88 L1088.42 1240.75 Z" fill="#000000" fill-rule="nonzero" fill-opacity="1" /><path clip-path="url(#clip060)" d="M1104.74 1244.11 L1104.74 1255.48 L1109.89 1255.48 Q1112.74 1255.48 1114.3 1254 Q1115.86 1252.52 1115.86 1249.78 Q1115.86 1247.07 1114.3 1245.59 Q1112.74 1244.11 1109.89 1244.11 L1104.74 1244.11 M1100.65 1240.75 L1109.89 1240.75 Q1114.97 1240.75 1117.56 1243.06 Q1120.18 1245.35 1120.18 1249.78 Q1120.18 1254.26 1117.56 1256.55 Q1114.97 1258.84 1109.89 1258.84 L1104.74 1258.84 L1104.74 1270.99 L1100.65 1270.99 L1100.65 1240.75 Z" fill="#000000" fill-rule="nonzero" fill-opacity="1" /><path clip-path="url(#clip060)" d="M1125.67 1240.75 L1131.76 1240.75 L1139.48 1261.33 L1147.24 1240.75 L1153.33 1240.75 L1153.33 1270.99 L1149.34 1270.99 L1149.34 1244.44 L1141.55 1265.18 L1137.43 1265.18 L1129.64 1244.44 L1129.64 1270.99 L1125.67 1270.99 L1125.67 1240.75 Z" fill="#000000" fill-rule="nonzero" fill-opacity="1" /></svg>
