<?xml version="1.0" encoding="utf-8"?>
<svg xmlns="http://www.w3.org/2000/svg" xmlns:xlink="http://www.w3.org/1999/xlink" width="600" height="400" viewBox="0 0 2400 1600">
<defs>
  <clipPath id="clip090">
    <rect x="0" y="0" width="2400" height="1600"/>
  </clipPath>
</defs>
<path clip-path="url(#clip090)" d="M0 1600 L2400 1600 L2400 0 L0 0  Z" fill="#ffffff" fill-rule="evenodd" fill-opacity="1"/>
<defs>
  <clipPath id="clip091">
    <rect x="480" y="0" width="1681" height="1600"/>
  </clipPath>
</defs>
<path clip-path="url(#clip090)" d="M217.783 1423.18 L2352.76 1423.18 L2352.76 47.2441 L217.783 47.2441  Z" fill="#ffffff" fill-rule="evenodd" fill-opacity="1"/>
<defs>
  <clipPath id="clip092">
    <rect x="217" y="47" width="2136" height="1377"/>
  </clipPath>
</defs>
<polyline clip-path="url(#clip092)" style="stroke:#000000; stroke-linecap:round; stroke-linejoin:round; stroke-width:2; stroke-opacity:0.1; fill:none" points="274.607,1423.18 274.607,47.2441 "/>
<polyline clip-path="url(#clip092)" style="stroke:#000000; stroke-linecap:round; stroke-linejoin:round; stroke-width:2; stroke-opacity:0.1; fill:none" points="779.175,1423.18 779.175,47.2441 "/>
<polyline clip-path="url(#clip092)" style="stroke:#000000; stroke-linecap:round; stroke-linejoin:round; stroke-width:2; stroke-opacity:0.1; fill:none" points="1285.13,1423.18 1285.13,47.2441 "/>
<polyline clip-path="url(#clip092)" style="stroke:#000000; stroke-linecap:round; stroke-linejoin:round; stroke-width:2; stroke-opacity:0.1; fill:none" points="1789.69,1423.18 1789.69,47.2441 "/>
<polyline clip-path="url(#clip092)" style="stroke:#000000; stroke-linecap:round; stroke-linejoin:round; stroke-width:2; stroke-opacity:0.1; fill:none" points="2294.26,1423.18 2294.26,47.2441 "/>
<polyline clip-path="url(#clip092)" style="stroke:#000000; stroke-linecap:round; stroke-linejoin:round; stroke-width:2; stroke-opacity:0.1; fill:none" points="217.783,1378.66 2352.76,1378.66 "/>
<polyline clip-path="url(#clip092)" style="stroke:#000000; stroke-linecap:round; stroke-linejoin:round; stroke-width:2; stroke-opacity:0.1; fill:none" points="217.783,1105.08 2352.76,1105.08 "/>
<polyline clip-path="url(#clip092)" style="stroke:#000000; stroke-linecap:round; stroke-linejoin:round; stroke-width:2; stroke-opacity:0.1; fill:none" points="217.783,831.503 2352.76,831.503 "/>
<polyline clip-path="url(#clip092)" style="stroke:#000000; stroke-linecap:round; stroke-linejoin:round; stroke-width:2; stroke-opacity:0.1; fill:none" points="217.783,557.925 2352.76,557.925 "/>
<polyline clip-path="url(#clip092)" style="stroke:#000000; stroke-linecap:round; stroke-linejoin:round; stroke-width:2; stroke-opacity:0.1; fill:none" points="217.783,284.346 2352.76,284.346 "/>
<polyline clip-path="url(#clip090)" style="stroke:#000000; stroke-linecap:round; stroke-linejoin:round; stroke-width:4; stroke-opacity:1; fill:none" points="217.783,1423.18 2352.76,1423.18 "/>
<polyline clip-path="url(#clip090)" style="stroke:#000000; stroke-linecap:round; stroke-linejoin:round; stroke-width:4; stroke-opacity:1; fill:none" points="274.607,1423.18 274.607,1404.28 "/>
<polyline clip-path="url(#clip090)" style="stroke:#000000; stroke-linecap:round; stroke-linejoin:round; stroke-width:4; stroke-opacity:1; fill:none" points="779.175,1423.18 779.175,1404.28 "/>
<polyline clip-path="url(#clip090)" style="stroke:#000000; stroke-linecap:round; stroke-linejoin:round; stroke-width:4; stroke-opacity:1; fill:none" points="1285.13,1423.18 1285.13,1404.28 "/>
<polyline clip-path="url(#clip090)" style="stroke:#000000; stroke-linecap:round; stroke-linejoin:round; stroke-width:4; stroke-opacity:1; fill:none" points="1789.69,1423.18 1789.69,1404.28 "/>
<polyline clip-path="url(#clip090)" style="stroke:#000000; stroke-linecap:round; stroke-linejoin:round; stroke-width:4; stroke-opacity:1; fill:none" points="2294.26,1423.18 2294.26,1404.28 "/>
<path clip-path="url(#clip090)" d="M146.401 1481.64 L162.721 1481.64 L162.721 1485.58 L140.776 1485.58 L140.776 1481.64 Q143.438 1478.89 148.022 1474.26 Q152.628 1469.61 153.809 1468.27 Q156.054 1465.74 156.934 1464.01 Q157.837 1462.25 157.837 1460.56 Q157.837 1457.8 155.892 1456.07 Q153.971 1454.33 150.869 1454.33 Q148.67 1454.33 146.216 1455.09 Q143.786 1455.86 141.008 1457.41 L141.008 1452.69 Q143.832 1451.55 146.286 1450.97 Q148.739 1450.39 150.776 1450.39 Q156.147 1450.39 159.341 1453.08 Q162.536 1455.77 162.536 1460.26 Q162.536 1462.39 161.725 1464.31 Q160.938 1466.2 158.832 1468.8 Q158.253 1469.47 155.151 1472.69 Q152.05 1475.88 146.401 1481.64 Z" fill="#000000" fill-rule="nonzero" fill-opacity="1" /><path clip-path="url(#clip090)" d="M182.535 1454.1 Q178.924 1454.1 177.096 1457.66 Q175.29 1461.2 175.29 1468.33 Q175.29 1475.44 177.096 1479.01 Q178.924 1482.55 182.535 1482.55 Q186.17 1482.55 187.975 1479.01 Q189.804 1475.44 189.804 1468.33 Q189.804 1461.2 187.975 1457.66 Q186.17 1454.1 182.535 1454.1 M182.535 1450.39 Q188.346 1450.39 191.401 1455 Q194.48 1459.58 194.48 1468.33 Q194.48 1477.06 191.401 1481.67 Q188.346 1486.25 182.535 1486.25 Q176.725 1486.25 173.647 1481.67 Q170.591 1477.06 170.591 1468.33 Q170.591 1459.58 173.647 1455 Q176.725 1450.39 182.535 1450.39 Z" fill="#000000" fill-rule="nonzero" fill-opacity="1" /><path clip-path="url(#clip090)" d="M203.508 1481.64 L211.146 1481.64 L211.146 1455.28 L202.836 1456.95 L202.836 1452.69 L211.1 1451.02 L215.776 1451.02 L215.776 1481.64 L223.415 1481.64 L223.415 1485.58 L203.508 1485.58 L203.508 1481.64 Z" fill="#000000" fill-rule="nonzero" fill-opacity="1" /><path clip-path="url(#clip090)" d="M232.998 1484.86 L232.998 1480.6 Q234.757 1481.44 236.563 1481.88 Q238.369 1482.32 240.105 1482.32 Q244.734 1482.32 247.165 1479.21 Q249.618 1476.09 249.966 1469.75 Q248.623 1471.74 246.563 1472.8 Q244.503 1473.87 242.003 1473.87 Q236.818 1473.87 233.785 1470.74 Q230.776 1467.59 230.776 1462.15 Q230.776 1456.83 233.924 1453.61 Q237.072 1450.39 242.304 1450.39 Q248.299 1450.39 251.447 1455 Q254.618 1459.58 254.618 1468.33 Q254.618 1476.51 250.73 1481.39 Q246.864 1486.25 240.313 1486.25 Q238.554 1486.25 236.748 1485.9 Q234.943 1485.56 232.998 1484.86 M242.304 1470.21 Q245.452 1470.21 247.281 1468.06 Q249.132 1465.9 249.132 1462.15 Q249.132 1458.43 247.281 1456.27 Q245.452 1454.1 242.304 1454.1 Q239.156 1454.1 237.304 1456.27 Q235.475 1458.43 235.475 1462.15 Q235.475 1465.9 237.304 1468.06 Q239.156 1470.21 242.304 1470.21 Z" fill="#000000" fill-rule="nonzero" fill-opacity="1" /><path clip-path="url(#clip090)" d="M260.267 1470.7 L272.743 1470.7 L272.743 1474.49 L260.267 1474.49 L260.267 1470.7 Z" fill="#000000" fill-rule="nonzero" fill-opacity="1" /><path clip-path="url(#clip090)" d="M290.128 1454.1 Q286.516 1454.1 284.688 1457.66 Q282.882 1461.2 282.882 1468.33 Q282.882 1475.44 284.688 1479.01 Q286.516 1482.55 290.128 1482.55 Q293.762 1482.55 295.567 1479.01 Q297.396 1475.44 297.396 1468.33 Q297.396 1461.2 295.567 1457.66 Q293.762 1454.1 290.128 1454.1 M290.128 1450.39 Q295.938 1450.39 298.993 1455 Q302.072 1459.58 302.072 1468.33 Q302.072 1477.06 298.993 1481.67 Q295.938 1486.25 290.128 1486.25 Q284.317 1486.25 281.239 1481.67 Q278.183 1477.06 278.183 1468.33 Q278.183 1459.58 281.239 1455 Q284.317 1450.39 290.128 1450.39 Z" fill="#000000" fill-rule="nonzero" fill-opacity="1" /><path clip-path="url(#clip090)" d="M311.1 1481.64 L318.738 1481.64 L318.738 1455.28 L310.428 1456.95 L310.428 1452.69 L318.692 1451.02 L323.368 1451.02 L323.368 1481.64 L331.007 1481.64 L331.007 1485.58 L311.1 1485.58 L311.1 1481.64 Z" fill="#000000" fill-rule="nonzero" fill-opacity="1" /><path clip-path="url(#clip090)" d="M337.697 1470.7 L350.173 1470.7 L350.173 1474.49 L337.697 1474.49 L337.697 1470.7 Z" fill="#000000" fill-rule="nonzero" fill-opacity="1" /><path clip-path="url(#clip090)" d="M367.558 1454.1 Q363.947 1454.1 362.118 1457.66 Q360.312 1461.2 360.312 1468.33 Q360.312 1475.44 362.118 1479.01 Q363.947 1482.55 367.558 1482.55 Q371.192 1482.55 372.997 1479.01 Q374.826 1475.44 374.826 1468.33 Q374.826 1461.2 372.997 1457.66 Q371.192 1454.1 367.558 1454.1 M367.558 1450.39 Q373.368 1450.39 376.423 1455 Q379.502 1459.58 379.502 1468.33 Q379.502 1477.06 376.423 1481.67 Q373.368 1486.25 367.558 1486.25 Q361.747 1486.25 358.669 1481.67 Q355.613 1477.06 355.613 1468.33 Q355.613 1459.58 358.669 1455 Q361.747 1450.39 367.558 1450.39 Z" fill="#000000" fill-rule="nonzero" fill-opacity="1" /><path clip-path="url(#clip090)" d="M388.53 1481.64 L396.169 1481.64 L396.169 1455.28 L387.858 1456.95 L387.858 1452.69 L396.122 1451.02 L400.798 1451.02 L400.798 1481.64 L408.437 1481.64 L408.437 1485.58 L388.53 1485.58 L388.53 1481.64 Z" fill="#000000" fill-rule="nonzero" fill-opacity="1" /><path clip-path="url(#clip090)" d="M650.97 1481.64 L667.289 1481.64 L667.289 1485.58 L645.345 1485.58 L645.345 1481.64 Q648.007 1478.89 652.59 1474.26 Q657.196 1469.61 658.377 1468.27 Q660.622 1465.74 661.502 1464.01 Q662.405 1462.25 662.405 1460.56 Q662.405 1457.8 660.46 1456.07 Q658.539 1454.33 655.437 1454.33 Q653.238 1454.33 650.784 1455.09 Q648.354 1455.86 645.576 1457.41 L645.576 1452.69 Q648.4 1451.55 650.854 1450.97 Q653.308 1450.39 655.345 1450.39 Q660.715 1450.39 663.909 1453.08 Q667.104 1455.77 667.104 1460.26 Q667.104 1462.39 666.294 1464.31 Q665.507 1466.2 663.4 1468.8 Q662.821 1469.47 659.72 1472.69 Q656.618 1475.88 650.97 1481.64 Z" fill="#000000" fill-rule="nonzero" fill-opacity="1" /><path clip-path="url(#clip090)" d="M687.104 1454.1 Q683.493 1454.1 681.664 1457.66 Q679.858 1461.2 679.858 1468.33 Q679.858 1475.44 681.664 1479.01 Q683.493 1482.55 687.104 1482.55 Q690.738 1482.55 692.543 1479.01 Q694.372 1475.44 694.372 1468.33 Q694.372 1461.2 692.543 1457.66 Q690.738 1454.1 687.104 1454.1 M687.104 1450.39 Q692.914 1450.39 695.969 1455 Q699.048 1459.58 699.048 1468.33 Q699.048 1477.06 695.969 1481.67 Q692.914 1486.25 687.104 1486.25 Q681.293 1486.25 678.215 1481.67 Q675.159 1477.06 675.159 1468.33 Q675.159 1459.58 678.215 1455 Q681.293 1450.39 687.104 1450.39 Z" fill="#000000" fill-rule="nonzero" fill-opacity="1" /><path clip-path="url(#clip090)" d="M711.293 1481.64 L727.613 1481.64 L727.613 1485.58 L705.668 1485.58 L705.668 1481.64 Q708.33 1478.89 712.914 1474.26 Q717.52 1469.61 718.701 1468.27 Q720.946 1465.74 721.826 1464.01 Q722.728 1462.25 722.728 1460.56 Q722.728 1457.8 720.784 1456.07 Q718.863 1454.33 715.761 1454.33 Q713.562 1454.33 711.108 1455.09 Q708.678 1455.86 705.9 1457.41 L705.9 1452.69 Q708.724 1451.55 711.178 1450.97 Q713.631 1450.39 715.668 1450.39 Q721.039 1450.39 724.233 1453.08 Q727.427 1455.77 727.427 1460.26 Q727.427 1462.39 726.617 1464.31 Q725.83 1466.2 723.724 1468.8 Q723.145 1469.47 720.043 1472.69 Q716.941 1475.88 711.293 1481.64 Z" fill="#000000" fill-rule="nonzero" fill-opacity="1" /><path clip-path="url(#clip090)" d="M747.427 1454.1 Q743.816 1454.1 741.988 1457.66 Q740.182 1461.2 740.182 1468.33 Q740.182 1475.44 741.988 1479.01 Q743.816 1482.55 747.427 1482.55 Q751.062 1482.55 752.867 1479.01 Q754.696 1475.44 754.696 1468.33 Q754.696 1461.2 752.867 1457.66 Q751.062 1454.1 747.427 1454.1 M747.427 1450.39 Q753.238 1450.39 756.293 1455 Q759.372 1459.58 759.372 1468.33 Q759.372 1477.06 756.293 1481.67 Q753.238 1486.25 747.427 1486.25 Q741.617 1486.25 738.539 1481.67 Q735.483 1477.06 735.483 1468.33 Q735.483 1459.58 738.539 1455 Q741.617 1450.39 747.427 1450.39 Z" fill="#000000" fill-rule="nonzero" fill-opacity="1" /><path clip-path="url(#clip090)" d="M764.835 1470.7 L777.311 1470.7 L777.311 1474.49 L764.835 1474.49 L764.835 1470.7 Z" fill="#000000" fill-rule="nonzero" fill-opacity="1" /><path clip-path="url(#clip090)" d="M794.696 1454.1 Q791.085 1454.1 789.256 1457.66 Q787.45 1461.2 787.45 1468.33 Q787.45 1475.44 789.256 1479.01 Q791.085 1482.55 794.696 1482.55 Q798.33 1482.55 800.135 1479.01 Q801.964 1475.44 801.964 1468.33 Q801.964 1461.2 800.135 1457.66 Q798.33 1454.1 794.696 1454.1 M794.696 1450.39 Q800.506 1450.39 803.561 1455 Q806.64 1459.58 806.64 1468.33 Q806.64 1477.06 803.561 1481.67 Q800.506 1486.25 794.696 1486.25 Q788.886 1486.25 785.807 1481.67 Q782.751 1477.06 782.751 1468.33 Q782.751 1459.58 785.807 1455 Q788.886 1450.39 794.696 1450.39 Z" fill="#000000" fill-rule="nonzero" fill-opacity="1" /><path clip-path="url(#clip090)" d="M815.668 1481.64 L823.307 1481.64 L823.307 1455.28 L814.996 1456.95 L814.996 1452.69 L823.26 1451.02 L827.936 1451.02 L827.936 1481.64 L835.575 1481.64 L835.575 1485.58 L815.668 1485.58 L815.668 1481.64 Z" fill="#000000" fill-rule="nonzero" fill-opacity="1" /><path clip-path="url(#clip090)" d="M842.265 1470.7 L854.742 1470.7 L854.742 1474.49 L842.265 1474.49 L842.265 1470.7 Z" fill="#000000" fill-rule="nonzero" fill-opacity="1" /><path clip-path="url(#clip090)" d="M872.126 1454.1 Q868.515 1454.1 866.686 1457.66 Q864.88 1461.2 864.88 1468.33 Q864.88 1475.44 866.686 1479.01 Q868.515 1482.55 872.126 1482.55 Q875.76 1482.55 877.566 1479.01 Q879.394 1475.44 879.394 1468.33 Q879.394 1461.2 877.566 1457.66 Q875.76 1454.1 872.126 1454.1 M872.126 1450.39 Q877.936 1450.39 880.991 1455 Q884.07 1459.58 884.07 1468.33 Q884.07 1477.06 880.991 1481.67 Q877.936 1486.25 872.126 1486.25 Q866.316 1486.25 863.237 1481.67 Q860.181 1477.06 860.181 1468.33 Q860.181 1459.58 863.237 1455 Q866.316 1450.39 872.126 1450.39 Z" fill="#000000" fill-rule="nonzero" fill-opacity="1" /><path clip-path="url(#clip090)" d="M893.098 1481.64 L900.737 1481.64 L900.737 1455.28 L892.427 1456.95 L892.427 1452.69 L900.69 1451.02 L905.366 1451.02 L905.366 1481.64 L913.005 1481.64 L913.005 1485.58 L893.098 1485.58 L893.098 1481.64 Z" fill="#000000" fill-rule="nonzero" fill-opacity="1" /><path clip-path="url(#clip090)" d="M1156.92 1481.64 L1173.24 1481.64 L1173.24 1485.58 L1151.3 1485.58 L1151.3 1481.64 Q1153.96 1478.89 1158.54 1474.26 Q1163.15 1469.61 1164.33 1468.27 Q1166.57 1465.74 1167.45 1464.01 Q1168.36 1462.25 1168.36 1460.56 Q1168.36 1457.8 1166.41 1456.07 Q1164.49 1454.33 1161.39 1454.33 Q1159.19 1454.33 1156.73 1455.09 Q1154.3 1455.86 1151.53 1457.41 L1151.53 1452.69 Q1154.35 1451.55 1156.8 1450.97 Q1159.26 1450.39 1161.3 1450.39 Q1166.67 1450.39 1169.86 1453.08 Q1173.05 1455.77 1173.05 1460.26 Q1173.05 1462.39 1172.24 1464.31 Q1171.46 1466.2 1169.35 1468.8 Q1168.77 1469.47 1165.67 1472.69 Q1162.57 1475.88 1156.92 1481.64 Z" fill="#000000" fill-rule="nonzero" fill-opacity="1" /><path clip-path="url(#clip090)" d="M1193.05 1454.1 Q1189.44 1454.1 1187.61 1457.66 Q1185.81 1461.2 1185.81 1468.33 Q1185.81 1475.44 1187.61 1479.01 Q1189.44 1482.55 1193.05 1482.55 Q1196.69 1482.55 1198.49 1479.01 Q1200.32 1475.44 1200.32 1468.33 Q1200.32 1461.2 1198.49 1457.66 Q1196.69 1454.1 1193.05 1454.1 M1193.05 1450.39 Q1198.86 1450.39 1201.92 1455 Q1205 1459.58 1205 1468.33 Q1205 1477.06 1201.92 1481.67 Q1198.86 1486.25 1193.05 1486.25 Q1187.24 1486.25 1184.17 1481.67 Q1181.11 1477.06 1181.11 1468.33 Q1181.11 1459.58 1184.17 1455 Q1187.24 1450.39 1193.05 1450.39 Z" fill="#000000" fill-rule="nonzero" fill-opacity="1" /><path clip-path="url(#clip090)" d="M1217.24 1481.64 L1233.56 1481.64 L1233.56 1485.58 L1211.62 1485.58 L1211.62 1481.64 Q1214.28 1478.89 1218.86 1474.26 Q1223.47 1469.61 1224.65 1468.27 Q1226.9 1465.74 1227.78 1464.01 Q1228.68 1462.25 1228.68 1460.56 Q1228.68 1457.8 1226.73 1456.07 Q1224.81 1454.33 1221.71 1454.33 Q1219.51 1454.33 1217.06 1455.09 Q1214.63 1455.86 1211.85 1457.41 L1211.85 1452.69 Q1214.67 1451.55 1217.13 1450.97 Q1219.58 1450.39 1221.62 1450.39 Q1226.99 1450.39 1230.18 1453.08 Q1233.38 1455.77 1233.38 1460.26 Q1233.38 1462.39 1232.57 1464.31 Q1231.78 1466.2 1229.67 1468.8 Q1229.1 1469.47 1225.99 1472.69 Q1222.89 1475.88 1217.24 1481.64 Z" fill="#000000" fill-rule="nonzero" fill-opacity="1" /><path clip-path="url(#clip090)" d="M1244.19 1481.64 L1251.83 1481.64 L1251.83 1455.28 L1243.52 1456.95 L1243.52 1452.69 L1251.78 1451.02 L1256.46 1451.02 L1256.46 1481.64 L1264.1 1481.64 L1264.1 1485.58 L1244.19 1485.58 L1244.19 1481.64 Z" fill="#000000" fill-rule="nonzero" fill-opacity="1" /><path clip-path="url(#clip090)" d="M1270.79 1470.7 L1283.26 1470.7 L1283.26 1474.49 L1270.79 1474.49 L1270.79 1470.7 Z" fill="#000000" fill-rule="nonzero" fill-opacity="1" /><path clip-path="url(#clip090)" d="M1300.65 1454.1 Q1297.04 1454.1 1295.21 1457.66 Q1293.4 1461.2 1293.4 1468.33 Q1293.4 1475.44 1295.21 1479.01 Q1297.04 1482.55 1300.65 1482.55 Q1304.28 1482.55 1306.09 1479.01 Q1307.91 1475.44 1307.91 1468.33 Q1307.91 1461.2 1306.09 1457.66 Q1304.28 1454.1 1300.65 1454.1 M1300.65 1450.39 Q1306.46 1450.39 1309.51 1455 Q1312.59 1459.58 1312.59 1468.33 Q1312.59 1477.06 1309.51 1481.67 Q1306.46 1486.25 1300.65 1486.25 Q1294.84 1486.25 1291.76 1481.67 Q1288.7 1477.06 1288.7 1468.33 Q1288.7 1459.58 1291.76 1455 Q1294.84 1450.39 1300.65 1450.39 Z" fill="#000000" fill-rule="nonzero" fill-opacity="1" /><path clip-path="url(#clip090)" d="M1321.62 1481.64 L1329.26 1481.64 L1329.26 1455.28 L1320.95 1456.95 L1320.95 1452.69 L1329.21 1451.02 L1333.89 1451.02 L1333.89 1481.64 L1341.53 1481.64 L1341.53 1485.58 L1321.62 1485.58 L1321.62 1481.64 Z" fill="#000000" fill-rule="nonzero" fill-opacity="1" /><path clip-path="url(#clip090)" d="M1348.22 1470.7 L1360.69 1470.7 L1360.69 1474.49 L1348.22 1474.49 L1348.22 1470.7 Z" fill="#000000" fill-rule="nonzero" fill-opacity="1" /><path clip-path="url(#clip090)" d="M1378.08 1454.1 Q1374.47 1454.1 1372.64 1457.66 Q1370.83 1461.2 1370.83 1468.33 Q1370.83 1475.44 1372.64 1479.01 Q1374.47 1482.55 1378.08 1482.55 Q1381.71 1482.55 1383.52 1479.01 Q1385.34 1475.44 1385.34 1468.33 Q1385.34 1461.2 1383.52 1457.66 Q1381.71 1454.1 1378.08 1454.1 M1378.08 1450.39 Q1383.89 1450.39 1386.94 1455 Q1390.02 1459.58 1390.02 1468.33 Q1390.02 1477.06 1386.94 1481.67 Q1383.89 1486.25 1378.08 1486.25 Q1372.27 1486.25 1369.19 1481.67 Q1366.13 1477.06 1366.13 1468.33 Q1366.13 1459.58 1369.19 1455 Q1372.27 1450.39 1378.08 1450.39 Z" fill="#000000" fill-rule="nonzero" fill-opacity="1" /><path clip-path="url(#clip090)" d="M1399.05 1481.64 L1406.69 1481.64 L1406.69 1455.28 L1398.38 1456.95 L1398.38 1452.69 L1406.64 1451.02 L1411.32 1451.02 L1411.32 1481.64 L1418.96 1481.64 L1418.96 1485.58 L1399.05 1485.58 L1399.05 1481.64 Z" fill="#000000" fill-rule="nonzero" fill-opacity="1" /><path clip-path="url(#clip090)" d="M1661.49 1481.64 L1677.81 1481.64 L1677.81 1485.58 L1655.86 1485.58 L1655.86 1481.64 Q1658.53 1478.89 1663.11 1474.26 Q1667.72 1469.61 1668.9 1468.27 Q1671.14 1465.74 1672.02 1464.01 Q1672.92 1462.25 1672.92 1460.56 Q1672.92 1457.8 1670.98 1456.07 Q1669.06 1454.33 1665.96 1454.33 Q1663.76 1454.33 1661.3 1455.09 Q1658.87 1455.86 1656.09 1457.41 L1656.09 1452.69 Q1658.92 1451.55 1661.37 1450.97 Q1663.83 1450.39 1665.86 1450.39 Q1671.23 1450.39 1674.43 1453.08 Q1677.62 1455.77 1677.62 1460.26 Q1677.62 1462.39 1676.81 1464.31 Q1676.03 1466.2 1673.92 1468.8 Q1673.34 1469.47 1670.24 1472.69 Q1667.14 1475.88 1661.49 1481.64 Z" fill="#000000" fill-rule="nonzero" fill-opacity="1" /><path clip-path="url(#clip090)" d="M1697.62 1454.1 Q1694.01 1454.1 1692.18 1457.66 Q1690.38 1461.2 1690.38 1468.33 Q1690.38 1475.44 1692.18 1479.01 Q1694.01 1482.55 1697.62 1482.55 Q1701.26 1482.55 1703.06 1479.01 Q1704.89 1475.44 1704.89 1468.33 Q1704.89 1461.2 1703.06 1457.66 Q1701.26 1454.1 1697.62 1454.1 M1697.62 1450.39 Q1703.43 1450.39 1706.49 1455 Q1709.57 1459.58 1709.57 1468.33 Q1709.57 1477.06 1706.49 1481.67 Q1703.43 1486.25 1697.62 1486.25 Q1691.81 1486.25 1688.73 1481.67 Q1685.68 1477.06 1685.68 1468.33 Q1685.68 1459.58 1688.73 1455 Q1691.81 1450.39 1697.62 1450.39 Z" fill="#000000" fill-rule="nonzero" fill-opacity="1" /><path clip-path="url(#clip090)" d="M1721.81 1481.64 L1738.13 1481.64 L1738.13 1485.58 L1716.19 1485.58 L1716.19 1481.64 Q1718.85 1478.89 1723.43 1474.26 Q1728.04 1469.61 1729.22 1468.27 Q1731.46 1465.74 1732.34 1464.01 Q1733.25 1462.25 1733.25 1460.56 Q1733.25 1457.8 1731.3 1456.07 Q1729.38 1454.33 1726.28 1454.33 Q1724.08 1454.33 1721.63 1455.09 Q1719.2 1455.86 1716.42 1457.41 L1716.42 1452.69 Q1719.24 1451.55 1721.7 1450.97 Q1724.15 1450.39 1726.19 1450.39 Q1731.56 1450.39 1734.75 1453.08 Q1737.95 1455.77 1737.95 1460.26 Q1737.95 1462.39 1737.14 1464.31 Q1736.35 1466.2 1734.24 1468.8 Q1733.66 1469.47 1730.56 1472.69 Q1727.46 1475.88 1721.81 1481.64 Z" fill="#000000" fill-rule="nonzero" fill-opacity="1" /><path clip-path="url(#clip090)" d="M1751.97 1481.64 L1768.29 1481.64 L1768.29 1485.58 L1746.35 1485.58 L1746.35 1481.64 Q1749.01 1478.89 1753.59 1474.26 Q1758.2 1469.61 1759.38 1468.27 Q1761.63 1465.74 1762.51 1464.01 Q1763.41 1462.25 1763.41 1460.56 Q1763.41 1457.8 1761.46 1456.07 Q1759.54 1454.33 1756.44 1454.33 Q1754.24 1454.33 1751.79 1455.09 Q1749.36 1455.86 1746.58 1457.41 L1746.58 1452.69 Q1749.4 1451.55 1751.86 1450.97 Q1754.31 1450.39 1756.35 1450.39 Q1761.72 1450.39 1764.91 1453.08 Q1768.11 1455.77 1768.11 1460.26 Q1768.11 1462.39 1767.3 1464.31 Q1766.51 1466.2 1764.4 1468.8 Q1763.83 1469.47 1760.72 1472.69 Q1757.62 1475.88 1751.97 1481.64 Z" fill="#000000" fill-rule="nonzero" fill-opacity="1" /><path clip-path="url(#clip090)" d="M1775.35 1470.7 L1787.83 1470.7 L1787.83 1474.49 L1775.35 1474.49 L1775.35 1470.7 Z" fill="#000000" fill-rule="nonzero" fill-opacity="1" /><path clip-path="url(#clip090)" d="M1805.21 1454.1 Q1801.6 1454.1 1799.77 1457.66 Q1797.97 1461.2 1797.97 1468.33 Q1797.97 1475.44 1799.77 1479.01 Q1801.6 1482.55 1805.21 1482.55 Q1808.85 1482.55 1810.65 1479.01 Q1812.48 1475.44 1812.48 1468.33 Q1812.48 1461.2 1810.65 1457.66 Q1808.85 1454.1 1805.21 1454.1 M1805.21 1450.39 Q1811.02 1450.39 1814.08 1455 Q1817.16 1459.58 1817.16 1468.33 Q1817.16 1477.06 1814.08 1481.67 Q1811.02 1486.25 1805.21 1486.25 Q1799.4 1486.25 1796.33 1481.67 Q1793.27 1477.06 1793.27 1468.33 Q1793.27 1459.58 1796.33 1455 Q1799.4 1450.39 1805.21 1450.39 Z" fill="#000000" fill-rule="nonzero" fill-opacity="1" /><path clip-path="url(#clip090)" d="M1826.19 1481.64 L1833.83 1481.64 L1833.83 1455.28 L1825.52 1456.95 L1825.52 1452.69 L1833.78 1451.02 L1838.45 1451.02 L1838.45 1481.64 L1846.09 1481.64 L1846.09 1485.58 L1826.19 1485.58 L1826.19 1481.64 Z" fill="#000000" fill-rule="nonzero" fill-opacity="1" /><path clip-path="url(#clip090)" d="M1852.78 1470.7 L1865.26 1470.7 L1865.26 1474.49 L1852.78 1474.49 L1852.78 1470.7 Z" fill="#000000" fill-rule="nonzero" fill-opacity="1" /><path clip-path="url(#clip090)" d="M1882.64 1454.1 Q1879.03 1454.1 1877.2 1457.66 Q1875.4 1461.2 1875.4 1468.33 Q1875.4 1475.44 1877.2 1479.01 Q1879.03 1482.55 1882.64 1482.55 Q1886.28 1482.55 1888.08 1479.01 Q1889.91 1475.44 1889.91 1468.33 Q1889.91 1461.2 1888.08 1457.66 Q1886.28 1454.1 1882.64 1454.1 M1882.64 1450.39 Q1888.45 1450.39 1891.51 1455 Q1894.59 1459.58 1894.59 1468.33 Q1894.59 1477.06 1891.51 1481.67 Q1888.45 1486.25 1882.64 1486.25 Q1876.83 1486.25 1873.76 1481.67 Q1870.7 1477.06 1870.7 1468.33 Q1870.7 1459.58 1873.76 1455 Q1876.83 1450.39 1882.64 1450.39 Z" fill="#000000" fill-rule="nonzero" fill-opacity="1" /><path clip-path="url(#clip090)" d="M1903.62 1481.64 L1911.26 1481.64 L1911.26 1455.28 L1902.95 1456.95 L1902.95 1452.69 L1911.21 1451.02 L1915.89 1451.02 L1915.89 1481.64 L1923.52 1481.64 L1923.52 1485.58 L1903.62 1485.58 L1903.62 1481.64 Z" fill="#000000" fill-rule="nonzero" fill-opacity="1" /><path clip-path="url(#clip090)" d="M2166.06 1481.64 L2182.38 1481.64 L2182.38 1485.58 L2160.43 1485.58 L2160.43 1481.64 Q2163.09 1478.89 2167.68 1474.26 Q2172.28 1469.61 2173.46 1468.27 Q2175.71 1465.74 2176.59 1464.01 Q2177.49 1462.25 2177.49 1460.56 Q2177.49 1457.8 2175.55 1456.07 Q2173.63 1454.33 2170.52 1454.33 Q2168.32 1454.33 2165.87 1455.09 Q2163.44 1455.86 2160.66 1457.41 L2160.66 1452.69 Q2163.49 1451.55 2165.94 1450.97 Q2168.39 1450.39 2170.43 1450.39 Q2175.8 1450.39 2179 1453.08 Q2182.19 1455.77 2182.19 1460.26 Q2182.19 1462.39 2181.38 1464.31 Q2180.59 1466.2 2178.49 1468.8 Q2177.91 1469.47 2174.81 1472.69 Q2171.7 1475.88 2166.06 1481.64 Z" fill="#000000" fill-rule="nonzero" fill-opacity="1" /><path clip-path="url(#clip090)" d="M2202.19 1454.1 Q2198.58 1454.1 2196.75 1457.66 Q2194.95 1461.2 2194.95 1468.33 Q2194.95 1475.44 2196.75 1479.01 Q2198.58 1482.55 2202.19 1482.55 Q2205.82 1482.55 2207.63 1479.01 Q2209.46 1475.44 2209.46 1468.33 Q2209.46 1461.2 2207.63 1457.66 Q2205.82 1454.1 2202.19 1454.1 M2202.19 1450.39 Q2208 1450.39 2211.06 1455 Q2214.13 1459.58 2214.13 1468.33 Q2214.13 1477.06 2211.06 1481.67 Q2208 1486.25 2202.19 1486.25 Q2196.38 1486.25 2193.3 1481.67 Q2190.25 1477.06 2190.25 1468.33 Q2190.25 1459.58 2193.3 1455 Q2196.38 1450.39 2202.19 1450.39 Z" fill="#000000" fill-rule="nonzero" fill-opacity="1" /><path clip-path="url(#clip090)" d="M2226.38 1481.64 L2242.7 1481.64 L2242.7 1485.58 L2220.76 1485.58 L2220.76 1481.64 Q2223.42 1478.89 2228 1474.26 Q2232.61 1469.61 2233.79 1468.27 Q2236.03 1465.74 2236.91 1464.01 Q2237.82 1462.25 2237.82 1460.56 Q2237.82 1457.8 2235.87 1456.07 Q2233.95 1454.33 2230.85 1454.33 Q2228.65 1454.33 2226.19 1455.09 Q2223.76 1455.86 2220.99 1457.41 L2220.99 1452.69 Q2223.81 1451.55 2226.26 1450.97 Q2228.72 1450.39 2230.76 1450.39 Q2236.13 1450.39 2239.32 1453.08 Q2242.51 1455.77 2242.51 1460.26 Q2242.51 1462.39 2241.7 1464.31 Q2240.92 1466.2 2238.81 1468.8 Q2238.23 1469.47 2235.13 1472.69 Q2232.03 1475.88 2226.38 1481.64 Z" fill="#000000" fill-rule="nonzero" fill-opacity="1" /><path clip-path="url(#clip090)" d="M2266.68 1466.95 Q2270.04 1467.66 2271.91 1469.93 Q2273.81 1472.2 2273.81 1475.53 Q2273.81 1480.65 2270.29 1483.45 Q2266.77 1486.25 2260.29 1486.25 Q2258.12 1486.25 2255.8 1485.81 Q2253.51 1485.39 2251.06 1484.54 L2251.06 1480.02 Q2253 1481.16 2255.32 1481.74 Q2257.63 1482.32 2260.15 1482.32 Q2264.55 1482.32 2266.84 1480.58 Q2269.16 1478.84 2269.16 1475.53 Q2269.16 1472.48 2267 1470.77 Q2264.88 1469.03 2261.06 1469.03 L2257.03 1469.03 L2257.03 1465.19 L2261.24 1465.19 Q2264.69 1465.19 2266.52 1463.82 Q2268.35 1462.43 2268.35 1459.84 Q2268.35 1457.18 2266.45 1455.77 Q2264.57 1454.33 2261.06 1454.33 Q2259.13 1454.33 2256.94 1454.75 Q2254.74 1455.16 2252.1 1456.04 L2252.1 1451.88 Q2254.76 1451.14 2257.07 1450.77 Q2259.41 1450.39 2261.47 1450.39 Q2266.8 1450.39 2269.9 1452.83 Q2273 1455.23 2273 1459.35 Q2273 1462.22 2271.36 1464.21 Q2269.71 1466.18 2266.68 1466.95 Z" fill="#000000" fill-rule="nonzero" fill-opacity="1" /><path clip-path="url(#clip090)" d="M2279.92 1470.7 L2292.4 1470.7 L2292.4 1474.49 L2279.92 1474.49 L2279.92 1470.7 Z" fill="#000000" fill-rule="nonzero" fill-opacity="1" /><path clip-path="url(#clip090)" d="M2309.78 1454.1 Q2306.17 1454.1 2304.34 1457.66 Q2302.54 1461.2 2302.54 1468.33 Q2302.54 1475.44 2304.34 1479.01 Q2306.17 1482.55 2309.78 1482.55 Q2313.42 1482.55 2315.22 1479.01 Q2317.05 1475.44 2317.05 1468.33 Q2317.05 1461.2 2315.22 1457.66 Q2313.42 1454.1 2309.78 1454.1 M2309.78 1450.39 Q2315.59 1450.39 2318.65 1455 Q2321.73 1459.58 2321.73 1468.33 Q2321.73 1477.06 2318.65 1481.67 Q2315.59 1486.25 2309.78 1486.25 Q2303.97 1486.25 2300.89 1481.67 Q2297.84 1477.06 2297.84 1468.33 Q2297.84 1459.58 2300.89 1455 Q2303.97 1450.39 2309.78 1450.39 Z" fill="#000000" fill-rule="nonzero" fill-opacity="1" /><path clip-path="url(#clip090)" d="M2330.75 1481.64 L2338.39 1481.64 L2338.39 1455.28 L2330.08 1456.95 L2330.08 1452.69 L2338.35 1451.02 L2343.02 1451.02 L2343.02 1481.64 L2350.66 1481.64 L2350.66 1485.58 L2330.75 1485.58 L2330.75 1481.64 Z" fill="#000000" fill-rule="nonzero" fill-opacity="1" /><path clip-path="url(#clip090)" d="M2357.35 1470.7 L2369.83 1470.7 L2369.83 1474.49 L2357.35 1474.49 L2357.35 1470.7 Z" fill="#000000" fill-rule="nonzero" fill-opacity="1" /><path clip-path="url(#clip090)" d="M2387.21 1454.1 Q2383.6 1454.1 2381.77 1457.66 Q2379.97 1461.2 2379.97 1468.33 Q2379.97 1475.44 2381.77 1479.01 Q2383.6 1482.55 2387.21 1482.55 Q2390.85 1482.55 2392.65 1479.01 Q2394.48 1475.44 2394.48 1468.33 Q2394.48 1461.2 2392.65 1457.66 Q2390.85 1454.1 2387.21 1454.1 M2387.21 1450.39 Q2393.02 1450.39 2396.08 1455 Q2399.16 1459.58 2399.16 1468.33 Q2399.16 1477.06 2396.08 1481.67 Q2393.02 1486.25 2387.21 1486.25 Q2381.4 1486.25 2378.32 1481.67 Q2375.27 1477.06 2375.27 1468.33 Q2375.27 1459.58 2378.32 1455 Q2381.4 1450.39 2387.21 1450.39 Z" fill="#000000" fill-rule="nonzero" fill-opacity="1" /><path clip-path="url(#clip090)" d="M2408.18 1481.64 L2415.82 1481.64 L2415.82 1455.28 L2407.51 1456.95 L2407.51 1452.69 L2415.78 1451.02 L2420.45 1451.02 L2420.45 1481.64 L2428.09 1481.64 L2428.09 1485.58 L2408.18 1485.58 L2408.18 1481.64 Z" fill="#000000" fill-rule="nonzero" fill-opacity="1" /><path clip-path="url(#clip090)" d="M1218.73 1525.81 L1218.73 1562.76 L1226.5 1562.76 Q1236.33 1562.76 1240.88 1558.3 Q1245.47 1553.85 1245.47 1544.24 Q1245.47 1534.69 1240.88 1530.26 Q1236.33 1525.81 1226.5 1525.81 L1218.73 1525.81 M1212.3 1520.52 L1225.51 1520.52 Q1239.32 1520.52 1245.79 1526.28 Q1252.25 1532.01 1252.25 1544.24 Q1252.25 1556.52 1245.75 1562.28 Q1239.26 1568.04 1225.51 1568.04 L1212.3 1568.04 L1212.3 1520.52 Z" fill="#000000" fill-rule="nonzero" fill-opacity="1" /><path clip-path="url(#clip090)" d="M1278.44 1550.12 Q1271.34 1550.12 1268.61 1551.75 Q1265.87 1553.37 1265.87 1557.29 Q1265.87 1560.4 1267.91 1562.25 Q1269.98 1564.07 1273.51 1564.07 Q1278.38 1564.07 1281.31 1560.63 Q1284.27 1557.16 1284.27 1551.43 L1284.27 1550.12 L1278.44 1550.12 M1290.12 1547.71 L1290.12 1568.04 L1284.27 1568.04 L1284.27 1562.63 Q1282.26 1565.88 1279.27 1567.44 Q1276.28 1568.97 1271.95 1568.97 Q1266.47 1568.97 1263.23 1565.91 Q1260.01 1562.82 1260.01 1557.67 Q1260.01 1551.65 1264.02 1548.6 Q1268.07 1545.54 1276.06 1545.54 L1284.27 1545.54 L1284.27 1544.97 Q1284.27 1540.93 1281.59 1538.73 Q1278.95 1536.5 1274.15 1536.5 Q1271.09 1536.5 1268.19 1537.23 Q1265.3 1537.97 1262.62 1539.43 L1262.62 1534.02 Q1265.84 1532.78 1268.86 1532.17 Q1271.89 1531.54 1274.75 1531.54 Q1282.48 1531.54 1286.3 1535.55 Q1290.12 1539.56 1290.12 1547.71 Z" fill="#000000" fill-rule="nonzero" fill-opacity="1" /><path clip-path="url(#clip090)" d="M1307.98 1522.27 L1307.98 1532.4 L1320.04 1532.4 L1320.04 1536.95 L1307.98 1536.95 L1307.98 1556.3 Q1307.98 1560.66 1309.16 1561.9 Q1310.37 1563.14 1314.03 1563.14 L1320.04 1563.14 L1320.04 1568.04 L1314.03 1568.04 Q1307.25 1568.04 1304.67 1565.53 Q1302.09 1562.98 1302.09 1556.3 L1302.09 1536.95 L1297.79 1536.95 L1297.79 1532.4 L1302.09 1532.4 L1302.09 1522.27 L1307.98 1522.27 Z" fill="#000000" fill-rule="nonzero" fill-opacity="1" /><path clip-path="url(#clip090)" d="M1358.24 1548.76 L1358.24 1551.62 L1331.31 1551.62 Q1331.69 1557.67 1334.94 1560.85 Q1338.22 1564 1344.04 1564 Q1347.41 1564 1350.57 1563.17 Q1353.75 1562.35 1356.87 1560.69 L1356.87 1566.23 Q1353.72 1567.57 1350.41 1568.27 Q1347.1 1568.97 1343.69 1568.97 Q1335.16 1568.97 1330.16 1564 Q1325.2 1559.04 1325.2 1550.57 Q1325.2 1541.82 1329.91 1536.69 Q1334.65 1531.54 1342.67 1531.54 Q1349.87 1531.54 1354.03 1536.18 Q1358.24 1540.8 1358.24 1548.76 M1352.38 1547.04 Q1352.32 1542.23 1349.67 1539.37 Q1347.06 1536.5 1342.74 1536.5 Q1337.83 1536.5 1334.87 1539.27 Q1331.95 1542.04 1331.5 1547.07 L1352.38 1547.04 Z" fill="#000000" fill-rule="nonzero" fill-opacity="1" /><polyline clip-path="url(#clip090)" style="stroke:#000000; stroke-linecap:round; stroke-linejoin:round; stroke-width:4; stroke-opacity:1; fill:none" points="217.783,1423.18 217.783,47.2441 "/>
<polyline clip-path="url(#clip090)" style="stroke:#000000; stroke-linecap:round; stroke-linejoin:round; stroke-width:4; stroke-opacity:1; fill:none" points="217.783,1378.66 236.681,1378.66 "/>
<polyline clip-path="url(#clip090)" style="stroke:#000000; stroke-linecap:round; stroke-linejoin:round; stroke-width:4; stroke-opacity:1; fill:none" points="217.783,1105.08 236.681,1105.08 "/>
<polyline clip-path="url(#clip090)" style="stroke:#000000; stroke-linecap:round; stroke-linejoin:round; stroke-width:4; stroke-opacity:1; fill:none" points="217.783,831.503 236.681,831.503 "/>
<polyline clip-path="url(#clip090)" style="stroke:#000000; stroke-linecap:round; stroke-linejoin:round; stroke-width:4; stroke-opacity:1; fill:none" points="217.783,557.925 236.681,557.925 "/>
<polyline clip-path="url(#clip090)" style="stroke:#000000; stroke-linecap:round; stroke-linejoin:round; stroke-width:4; stroke-opacity:1; fill:none" points="217.783,284.346 236.681,284.346 "/>
<path clip-path="url(#clip090)" d="M115.418 1392.01 L123.056 1392.01 L123.056 1365.64 L114.746 1367.31 L114.746 1363.05 L123.01 1361.38 L127.686 1361.38 L127.686 1392.01 L135.325 1392.01 L135.325 1395.94 L115.418 1395.94 L115.418 1392.01 Z" fill="#000000" fill-rule="nonzero" fill-opacity="1" /><path clip-path="url(#clip090)" d="M144.769 1390.06 L149.653 1390.06 L149.653 1395.94 L144.769 1395.94 L144.769 1390.06 Z" fill="#000000" fill-rule="nonzero" fill-opacity="1" /><path clip-path="url(#clip090)" d="M169.839 1364.46 Q166.227 1364.46 164.399 1368.02 Q162.593 1371.57 162.593 1378.69 Q162.593 1385.8 164.399 1389.37 Q166.227 1392.91 169.839 1392.91 Q173.473 1392.91 175.278 1389.37 Q177.107 1385.8 177.107 1378.69 Q177.107 1371.57 175.278 1368.02 Q173.473 1364.46 169.839 1364.46 M169.839 1360.76 Q175.649 1360.76 178.704 1365.36 Q181.783 1369.94 181.783 1378.69 Q181.783 1387.42 178.704 1392.03 Q175.649 1396.61 169.839 1396.61 Q164.028 1396.61 160.95 1392.03 Q157.894 1387.42 157.894 1378.69 Q157.894 1369.94 160.95 1365.36 Q164.028 1360.76 169.839 1360.76 Z" fill="#000000" fill-rule="nonzero" fill-opacity="1" /><path clip-path="url(#clip090)" d="M117.015 1118.43 L124.654 1118.43 L124.654 1092.06 L116.343 1093.73 L116.343 1089.47 L124.607 1087.8 L129.283 1087.8 L129.283 1118.43 L136.922 1118.43 L136.922 1122.36 L117.015 1122.36 L117.015 1118.43 Z" fill="#000000" fill-rule="nonzero" fill-opacity="1" /><path clip-path="url(#clip090)" d="M146.366 1116.48 L151.251 1116.48 L151.251 1122.36 L146.366 1122.36 L146.366 1116.48 Z" fill="#000000" fill-rule="nonzero" fill-opacity="1" /><path clip-path="url(#clip090)" d="M165.464 1118.43 L181.783 1118.43 L181.783 1122.36 L159.839 1122.36 L159.839 1118.43 Q162.501 1115.67 167.084 1111.04 Q171.69 1106.39 172.871 1105.05 Q175.116 1102.52 175.996 1100.79 Q176.899 1099.03 176.899 1097.34 Q176.899 1094.58 174.954 1092.85 Q173.033 1091.11 169.931 1091.11 Q167.732 1091.11 165.278 1091.88 Q162.848 1092.64 160.07 1094.19 L160.07 1089.47 Q162.894 1088.33 165.348 1087.76 Q167.802 1087.18 169.839 1087.18 Q175.209 1087.18 178.403 1089.86 Q181.598 1092.55 181.598 1097.04 Q181.598 1099.17 180.788 1101.09 Q180.001 1102.99 177.894 1105.58 Q177.315 1106.25 174.214 1109.47 Q171.112 1112.66 165.464 1118.43 Z" fill="#000000" fill-rule="nonzero" fill-opacity="1" /><path clip-path="url(#clip090)" d="M114.931 844.848 L122.57 844.848 L122.57 818.483 L114.26 820.149 L114.26 815.89 L122.524 814.223 L127.2 814.223 L127.2 844.848 L134.839 844.848 L134.839 848.783 L114.931 848.783 L114.931 844.848 Z" fill="#000000" fill-rule="nonzero" fill-opacity="1" /><path clip-path="url(#clip090)" d="M144.283 842.904 L149.167 842.904 L149.167 848.783 L144.283 848.783 L144.283 842.904 Z" fill="#000000" fill-rule="nonzero" fill-opacity="1" /><path clip-path="url(#clip090)" d="M172.2 818.297 L160.394 836.746 L172.2 836.746 L172.2 818.297 M170.973 814.223 L176.852 814.223 L176.852 836.746 L181.783 836.746 L181.783 840.635 L176.852 840.635 L176.852 848.783 L172.2 848.783 L172.2 840.635 L156.598 840.635 L156.598 836.121 L170.973 814.223 Z" fill="#000000" fill-rule="nonzero" fill-opacity="1" /><path clip-path="url(#clip090)" d="M115.256 571.27 L122.894 571.27 L122.894 544.904 L114.584 546.571 L114.584 542.312 L122.848 540.645 L127.524 540.645 L127.524 571.27 L135.163 571.27 L135.163 575.205 L115.256 575.205 L115.256 571.27 Z" fill="#000000" fill-rule="nonzero" fill-opacity="1" /><path clip-path="url(#clip090)" d="M144.607 569.325 L149.491 569.325 L149.491 575.205 L144.607 575.205 L144.607 569.325 Z" fill="#000000" fill-rule="nonzero" fill-opacity="1" /><path clip-path="url(#clip090)" d="M170.255 556.062 Q167.107 556.062 165.255 558.214 Q163.427 560.367 163.427 564.117 Q163.427 567.844 165.255 570.02 Q167.107 572.173 170.255 572.173 Q173.403 572.173 175.232 570.02 Q177.084 567.844 177.084 564.117 Q177.084 560.367 175.232 558.214 Q173.403 556.062 170.255 556.062 M179.538 541.409 L179.538 545.668 Q177.778 544.835 175.973 544.395 Q174.19 543.955 172.431 543.955 Q167.802 543.955 165.348 547.08 Q162.917 550.205 162.57 556.524 Q163.936 554.511 165.996 553.446 Q168.056 552.358 170.533 552.358 Q175.741 552.358 178.751 555.529 Q181.783 558.677 181.783 564.117 Q181.783 569.441 178.635 572.659 Q175.487 575.876 170.255 575.876 Q164.26 575.876 161.089 571.293 Q157.917 566.686 157.917 557.96 Q157.917 549.765 161.806 544.904 Q165.695 540.02 172.246 540.02 Q174.005 540.02 175.788 540.367 Q177.593 540.714 179.538 541.409 Z" fill="#000000" fill-rule="nonzero" fill-opacity="1" /><path clip-path="url(#clip090)" d="M115.51 297.691 L123.149 297.691 L123.149 271.326 L114.839 272.992 L114.839 268.733 L123.103 267.066 L127.779 267.066 L127.779 297.691 L135.417 297.691 L135.417 301.626 L115.51 301.626 L115.51 297.691 Z" fill="#000000" fill-rule="nonzero" fill-opacity="1" /><path clip-path="url(#clip090)" d="M144.862 295.747 L149.746 295.747 L149.746 301.626 L144.862 301.626 L144.862 295.747 Z" fill="#000000" fill-rule="nonzero" fill-opacity="1" /><path clip-path="url(#clip090)" d="M169.931 285.215 Q166.598 285.215 164.677 286.997 Q162.778 288.779 162.778 291.904 Q162.778 295.029 164.677 296.812 Q166.598 298.594 169.931 298.594 Q173.264 298.594 175.186 296.812 Q177.107 295.006 177.107 291.904 Q177.107 288.779 175.186 286.997 Q173.288 285.215 169.931 285.215 M165.255 283.224 Q162.246 282.483 160.556 280.423 Q158.89 278.363 158.89 275.4 Q158.89 271.256 161.829 268.849 Q164.792 266.441 169.931 266.441 Q175.093 266.441 178.033 268.849 Q180.973 271.256 180.973 275.4 Q180.973 278.363 179.283 280.423 Q177.616 282.483 174.63 283.224 Q178.01 284.011 179.885 286.302 Q181.783 288.594 181.783 291.904 Q181.783 296.927 178.704 299.613 Q175.649 302.298 169.931 302.298 Q164.214 302.298 161.135 299.613 Q158.079 296.927 158.079 291.904 Q158.079 288.594 159.978 286.302 Q161.876 284.011 165.255 283.224 M163.542 275.84 Q163.542 278.525 165.209 280.029 Q166.899 281.534 169.931 281.534 Q172.94 281.534 174.63 280.029 Q176.343 278.525 176.343 275.84 Q176.343 273.154 174.63 271.65 Q172.94 270.145 169.931 270.145 Q166.899 270.145 165.209 271.65 Q163.542 273.154 163.542 275.84 Z" fill="#000000" fill-rule="nonzero" fill-opacity="1" /><path clip-path="url(#clip090)" d="M20.1444 1028.58 L26.9239 1028.58 Q23.9002 1031.82 22.4043 1035.51 Q20.9083 1039.17 20.9083 1043.31 Q20.9083 1051.46 25.9054 1055.79 Q30.8707 1060.12 40.2919 1060.12 Q49.6813 1060.12 54.6784 1055.79 Q59.6436 1051.46 59.6436 1043.31 Q59.6436 1039.17 58.1477 1035.51 Q56.6518 1031.82 53.6281 1028.58 L60.3439 1028.58 Q62.6355 1031.95 63.7814 1035.74 Q64.9272 1039.49 64.9272 1043.69 Q64.9272 1054.48 58.3387 1060.69 Q51.7183 1066.9 40.2919 1066.9 Q28.8336 1066.9 22.2451 1060.69 Q15.6248 1054.48 15.6248 1043.69 Q15.6248 1039.43 16.7706 1035.67 Q17.8846 1031.89 20.1444 1028.58 Z" fill="#000000" fill-rule="nonzero" fill-opacity="1" /><path clip-path="url(#clip090)" d="M49.9359 1019.5 L28.3562 1019.5 L28.3562 1013.65 L49.7131 1013.65 Q54.7739 1013.65 57.3202 1011.67 Q59.8346 1009.7 59.8346 1005.75 Q59.8346 1001.01 56.8109 998.275 Q53.7872 995.506 48.5673 995.506 L28.3562 995.506 L28.3562 989.649 L64.0042 989.649 L64.0042 995.506 L58.5296 995.506 Q61.7762 997.638 63.3676 1000.47 Q64.9272 1003.27 64.9272 1007 Q64.9272 1013.14 61.1078 1016.32 Q57.2883 1019.5 49.9359 1019.5 M27.4968 1004.77 L27.4968 1004.77 Z" fill="#000000" fill-rule="nonzero" fill-opacity="1" /><path clip-path="url(#clip090)" d="M35.1993 949.832 Q31.2526 947.636 29.3747 944.58 Q27.4968 941.525 27.4968 937.387 Q27.4968 931.817 31.4117 928.793 Q35.2948 925.769 42.4881 925.769 L64.0042 925.769 L64.0042 931.658 L42.679 931.658 Q37.5546 931.658 35.072 933.472 Q32.5894 935.286 32.5894 939.01 Q32.5894 943.562 35.6131 946.203 Q38.6368 948.845 43.8567 948.845 L64.0042 948.845 L64.0042 954.733 L42.679 954.733 Q37.5228 954.733 35.072 956.548 Q32.5894 958.362 32.5894 962.149 Q32.5894 966.637 35.6449 969.279 Q38.6686 971.921 43.8567 971.921 L64.0042 971.921 L64.0042 977.809 L28.3562 977.809 L28.3562 971.921 L33.8944 971.921 Q30.616 969.916 29.0564 967.115 Q27.4968 964.314 27.4968 960.462 Q27.4968 956.579 29.4702 953.874 Q31.4436 951.137 35.1993 949.832 Z" fill="#000000" fill-rule="nonzero" fill-opacity="1" /><path clip-path="url(#clip090)" d="M35.1993 886.334 Q31.2526 884.138 29.3747 881.082 Q27.4968 878.027 27.4968 873.889 Q27.4968 868.319 31.4117 865.295 Q35.2948 862.271 42.4881 862.271 L64.0042 862.271 L64.0042 868.16 L42.679 868.16 Q37.5546 868.16 35.072 869.974 Q32.5894 871.788 32.5894 875.512 Q32.5894 880.064 35.6131 882.705 Q38.6368 885.347 43.8567 885.347 L64.0042 885.347 L64.0042 891.235 L42.679 891.235 Q37.5228 891.235 35.072 893.05 Q32.5894 894.864 32.5894 898.651 Q32.5894 903.139 35.6449 905.781 Q38.6686 908.423 43.8567 908.423 L64.0042 908.423 L64.0042 914.311 L28.3562 914.311 L28.3562 908.423 L33.8944 908.423 Q30.616 906.418 29.0564 903.617 Q27.4968 900.816 27.4968 896.965 Q27.4968 893.081 29.4702 890.376 Q31.4436 887.639 35.1993 886.334 Z" fill="#000000" fill-rule="nonzero" fill-opacity="1" /><path clip-path="url(#clip090)" d="M49.9359 851.195 L28.3562 851.195 L28.3562 845.339 L49.7131 845.339 Q54.7739 845.339 57.3202 843.365 Q59.8346 841.392 59.8346 837.445 Q59.8346 832.703 56.8109 829.966 Q53.7872 827.196 48.5673 827.196 L28.3562 827.196 L28.3562 821.34 L64.0042 821.34 L64.0042 827.196 L58.5296 827.196 Q61.7762 829.329 63.3676 832.162 Q64.9272 834.963 64.9272 838.687 Q64.9272 844.829 61.1078 848.012 Q57.2883 851.195 49.9359 851.195 M27.4968 836.459 L27.4968 836.459 Z" fill="#000000" fill-rule="nonzero" fill-opacity="1" /><path clip-path="url(#clip090)" d="M14.479 809.277 L14.479 803.421 L64.0042 803.421 L64.0042 809.277 L14.479 809.277 Z" fill="#000000" fill-rule="nonzero" fill-opacity="1" /><path clip-path="url(#clip090)" d="M46.0847 774.966 Q46.0847 782.064 47.7079 784.801 Q49.3312 787.538 53.2461 787.538 Q56.3653 787.538 58.2114 785.501 Q60.0256 783.432 60.0256 779.899 Q60.0256 775.029 56.5881 772.101 Q53.1188 769.141 47.3897 769.141 L46.0847 769.141 L46.0847 774.966 M43.6657 763.285 L64.0042 763.285 L64.0042 769.141 L58.5933 769.141 Q61.8398 771.146 63.3994 774.138 Q64.9272 777.13 64.9272 781.459 Q64.9272 786.933 61.8716 790.18 Q58.7843 793.395 53.6281 793.395 Q47.6125 793.395 44.5569 789.384 Q41.5014 785.342 41.5014 777.353 L41.5014 769.141 L40.9285 769.141 Q36.8862 769.141 34.6901 771.815 Q32.4621 774.457 32.4621 779.263 Q32.4621 782.318 33.1941 785.215 Q33.9262 788.111 35.3903 790.785 L29.9795 790.785 Q28.7381 787.57 28.1334 784.546 Q27.4968 781.522 27.4968 778.658 Q27.4968 770.924 31.5072 767.104 Q35.5176 763.285 43.6657 763.285 Z" fill="#000000" fill-rule="nonzero" fill-opacity="1" /><path clip-path="url(#clip090)" d="M18.2347 745.429 L28.3562 745.429 L28.3562 733.366 L32.9077 733.366 L32.9077 745.429 L52.2594 745.429 Q56.6199 745.429 57.8613 744.251 Q59.1026 743.042 59.1026 739.382 L59.1026 733.366 L64.0042 733.366 L64.0042 739.382 Q64.0042 746.161 61.4897 748.739 Q58.9434 751.317 52.2594 751.317 L32.9077 751.317 L32.9077 755.614 L28.3562 755.614 L28.3562 751.317 L18.2347 751.317 L18.2347 745.429 Z" fill="#000000" fill-rule="nonzero" fill-opacity="1" /><path clip-path="url(#clip090)" d="M28.3562 725.663 L28.3562 719.807 L64.0042 719.807 L64.0042 725.663 L28.3562 725.663 M14.479 725.663 L14.479 719.807 L21.895 719.807 L21.895 725.663 L14.479 725.663 Z" fill="#000000" fill-rule="nonzero" fill-opacity="1" /><path clip-path="url(#clip090)" d="M28.3562 711.754 L28.3562 705.548 L58.275 694.408 L28.3562 683.268 L28.3562 677.061 L64.0042 690.429 L64.0042 698.386 L28.3562 711.754 Z" fill="#000000" fill-rule="nonzero" fill-opacity="1" /><path clip-path="url(#clip090)" d="M44.7161 638.485 L47.5806 638.485 L47.5806 665.412 Q53.6281 665.03 56.8109 661.784 Q59.9619 658.505 59.9619 652.681 Q59.9619 649.307 59.1344 646.156 Q58.3069 642.973 56.6518 639.854 L62.1899 639.854 Q63.5267 643.005 64.227 646.315 Q64.9272 649.625 64.9272 653.031 Q64.9272 661.561 59.9619 666.558 Q54.9967 671.523 46.5303 671.523 Q37.7774 671.523 32.6531 666.812 Q27.4968 662.07 27.4968 654.049 Q27.4968 646.856 32.1438 642.686 Q36.7589 638.485 44.7161 638.485 M42.9973 644.342 Q38.1912 644.405 35.3266 647.047 Q32.4621 649.657 32.4621 653.986 Q32.4621 658.887 35.2312 661.847 Q38.0002 664.775 43.0292 665.221 L42.9973 644.342 Z" fill="#000000" fill-rule="nonzero" fill-opacity="1" /><path clip-path="url(#clip090)" d="M41.7242 585.363 Q42.4244 583.294 44.7161 581.353 Q47.0077 579.379 51.0181 577.406 L64.0042 570.881 L64.0042 577.788 L51.8138 583.867 Q47.0395 586.223 45.48 588.451 Q43.9204 590.647 43.9204 594.466 L43.9204 601.468 L64.0042 601.468 L64.0042 607.898 L16.4842 607.898 L16.4842 593.384 Q16.4842 585.236 19.8898 581.226 Q23.2955 577.215 30.1704 577.215 Q34.6582 577.215 37.6183 579.316 Q40.5784 581.385 41.7242 585.363 M21.7677 601.468 L38.6368 601.468 L38.6368 593.384 Q38.6368 588.737 36.5043 586.382 Q34.34 583.995 30.1704 583.995 Q26.0009 583.995 23.9002 586.382 Q21.7677 588.737 21.7677 593.384 L21.7677 601.468 Z" fill="#000000" fill-rule="nonzero" fill-opacity="1" /><path clip-path="url(#clip090)" d="M44.7161 535.297 L47.5806 535.297 L47.5806 562.224 Q53.6281 561.842 56.8109 558.595 Q59.9619 555.317 59.9619 549.492 Q59.9619 546.119 59.1344 542.968 Q58.3069 539.785 56.6518 536.666 L62.1899 536.666 Q63.5267 539.817 64.227 543.127 Q64.9272 546.437 64.9272 549.843 Q64.9272 558.373 59.9619 563.37 Q54.9967 568.335 46.5303 568.335 Q37.7774 568.335 32.6531 563.624 Q27.4968 558.882 27.4968 550.861 Q27.4968 543.668 32.1438 539.498 Q36.7589 535.297 44.7161 535.297 M42.9973 541.153 Q38.1912 541.217 35.3266 543.859 Q32.4621 546.469 32.4621 550.797 Q32.4621 555.699 35.2312 558.659 Q38.0002 561.587 43.0292 562.033 L42.9973 541.153 Z" fill="#000000" fill-rule="nonzero" fill-opacity="1" /><path clip-path="url(#clip090)" d="M18.2347 519.892 L28.3562 519.892 L28.3562 507.829 L32.9077 507.829 L32.9077 519.892 L52.2594 519.892 Q56.6199 519.892 57.8613 518.714 Q59.1026 517.505 59.1026 513.845 L59.1026 507.829 L64.0042 507.829 L64.0042 513.845 Q64.0042 520.624 61.4897 523.202 Q58.9434 525.78 52.2594 525.78 L32.9077 525.78 L32.9077 530.077 L28.3562 530.077 L28.3562 525.78 L18.2347 525.78 L18.2347 519.892 Z" fill="#000000" fill-rule="nonzero" fill-opacity="1" /><path clip-path="url(#clip090)" d="M49.9359 500.731 L28.3562 500.731 L28.3562 494.875 L49.7131 494.875 Q54.7739 494.875 57.3202 492.901 Q59.8346 490.928 59.8346 486.981 Q59.8346 482.239 56.8109 479.502 Q53.7872 476.732 48.5673 476.732 L28.3562 476.732 L28.3562 470.876 L64.0042 470.876 L64.0042 476.732 L58.5296 476.732 Q61.7762 478.865 63.3676 481.698 Q64.9272 484.499 64.9272 488.223 Q64.9272 494.365 61.1078 497.548 Q57.2883 500.731 49.9359 500.731 M27.4968 485.995 L27.4968 485.995 Z" fill="#000000" fill-rule="nonzero" fill-opacity="1" /><path clip-path="url(#clip090)" d="M33.8307 438.156 Q33.2578 439.143 33.0032 440.321 Q32.7167 441.466 32.7167 442.867 Q32.7167 447.832 35.9632 450.506 Q39.1779 453.148 45.2253 453.148 L64.0042 453.148 L64.0042 459.036 L28.3562 459.036 L28.3562 453.148 L33.8944 453.148 Q30.6479 451.301 29.0883 448.341 Q27.4968 445.381 27.4968 441.148 Q27.4968 440.543 27.5923 439.811 Q27.656 439.079 27.8151 438.188 L33.8307 438.156 Z" fill="#000000" fill-rule="nonzero" fill-opacity="1" /><path clip-path="url(#clip090)" d="M42.4881 403.527 L64.0042 403.527 L64.0042 409.383 L42.679 409.383 Q37.6183 409.383 35.1038 411.357 Q32.5894 413.33 32.5894 417.277 Q32.5894 422.019 35.6131 424.756 Q38.6368 427.494 43.8567 427.494 L64.0042 427.494 L64.0042 433.382 L28.3562 433.382 L28.3562 427.494 L33.8944 427.494 Q30.6797 425.393 29.0883 422.56 Q27.4968 419.696 27.4968 415.972 Q27.4968 409.829 31.3163 406.678 Q35.1038 403.527 42.4881 403.527 Z" fill="#000000" fill-rule="nonzero" fill-opacity="1" /><polyline clip-path="url(#clip092)" style="stroke:#009af9; stroke-linecap:round; stroke-linejoin:round; stroke-width:4; stroke-opacity:1; fill:none" points="278.207,1384.24 279.589,1368.81 283.736,1339.19 285.119,1327.1 286.501,1325.18 287.883,1313.21 289.266,1310.64 293.413,1340.49 294.795,1344.8 296.178,1337.38 297.56,1333.74 298.942,1328.91 304.472,1337.49 305.854,1332.93 307.237,1341.43 308.619,1332.32 312.766,1338.56 314.149,1330.89 315.531,1315.69 316.913,1313.25 318.296,1308.73 322.443,1296.28 323.825,1300.27 325.208,1300.03 326.59,1298.68 327.972,1295.05 332.119,1291.98 333.502,1287.32 334.884,1279.48 336.267,1277.61 337.649,1272.09 343.178,1269.55 344.561,1269.28 345.943,1265.47 347.326,1243.97 351.473,1244.25 352.855,1250.79 354.238,1264.16 355.62,1268.85 357.002,1262.25 361.149,1264.61 362.532,1252.31 363.914,1259.68 365.297,1258.88 366.679,1263.58 370.768,1260.93 372.151,1254.36 373.533,1245.8 374.916,1293.96 376.298,1272.37 380.445,1269.38 381.827,1268.1 383.21,1271.59 384.592,1268.18 385.975,1280.23 390.122,1274.71 391.504,1275.59 392.887,1284.48 394.269,1276.1 395.651,1272.17 399.798,1272.26 401.181,1277.73 402.563,1273.62 403.946,1261.13 405.328,1247.45 409.475,1245.29 410.857,1248.14 412.24,1242.94 413.622,1239.21 415.005,1236.3 419.152,1231.59 420.534,1234.53 421.916,1228.63 423.299,1226.95 428.828,1215.41 430.211,1212.36 431.593,1214.78 432.975,1211.92 434.358,1213.83 438.505,1213.19 439.887,1204.47 441.27,1213.53 442.652,1211.74 444.035,1192.89 448.182,1205.57 449.564,1214.16 450.946,1213.67 452.329,1211.83 453.711,1216.96 457.858,1247.74 459.241,1247.14 460.623,1239.35 462.005,1225.37 463.388,1221.9 467.535,1226.34 468.917,1211.35 470.3,1215.02 471.682,1237.52 473.064,1235.32 478.594,1258.76 479.976,1275.71 481.359,1216.41 482.741,1224.92 486.888,1211.38 488.271,1193.79 489.653,1195.43 491.035,1180.24 492.418,1164.87 496.565,1154.02 497.947,1152.61 499.33,1143.04 500.712,1137.32 502.094,1142.02 506.242,1141.34 507.624,1130.79 509.006,1121.55 510.389,1118.57 511.771,1125.95 515.918,1134.11 517.301,1141.3 518.683,1142.57 520.065,1137 521.448,1145.29 525.595,1131.23 526.977,1119.12 528.36,1106.36 531.124,1093.65 535.272,1106.58 536.654,1098.58 538.036,1087.5 539.419,1082.72 540.801,1067.29 544.948,1069.08 546.331,1051.64 547.713,1058.3 549.095,1068.3 550.478,1076.77 554.625,1094.85 556.007,1093.97 557.39,1079.52 558.772,1089.52 560.154,1063.07 564.301,1079.02 565.684,1096.74 567.066,1096.26 568.449,1100.99 569.831,1080.75 573.978,1107.42 575.36,1088.17 576.743,1086.45 578.125,1059.42 579.508,1065.54 583.655,1075.7 585.037,1071.18 586.42,1082.64 587.802,1081.26 589.184,1060.21 593.331,1037.02 594.714,1047.75 596.096,1036.51 597.479,1035.96 598.861,1057.25 603.008,1038 604.39,1049.44 605.773,1031.67 607.155,945.106 608.538,949.726 614.067,939.364 615.449,922.35 616.832,913.462 618.214,898.182 622.361,909.327 623.744,933.451 625.126,930.611 626.508,927.028 627.891,924.51 632.038,950.423 633.42,913.236 634.803,923.549 636.185,919.958 637.568,935.041 641.715,924.948 643.097,931.016 644.479,928.429 645.862,922.476 647.244,918.701 651.391,921.343 652.774,926.979 654.156,935.572 655.538,935.963 656.921,916.829 661.068,917.004 662.45,923.769 663.833,917.742 665.215,919.829 666.597,911.078 670.745,912.944 672.127,907.13 673.509,919.147 674.892,905.764 676.274,901.291 680.421,902.181 681.804,900.829 683.186,915.878 684.568,903.464 685.951,903.945 690.098,903.289 691.48,917.796 692.863,898.701 694.245,897.904 695.627,896.641 699.832,909.194 701.215,896.664 702.597,901.116 703.979,901.353 705.362,906.529 709.509,908.691 710.891,905.193 712.274,899.695 713.656,880.472 715.038,878.473 719.185,880.746 720.568,888.471 721.95,883.774 723.333,882.441 724.715,887.179 728.862,884.062 730.244,891.981 731.627,884.225 734.392,897.511 738.539,918.771 739.921,936.334 741.303,931.092 742.686,931.497 744.068,928.797 748.215,928.421 749.598,919.872 750.98,928.365 752.363,907.352 753.745,908.788 757.892,919.212 759.274,913.069 760.657,911.616 762.039,899.455 763.422,898.267 767.569,890.885 768.951,886.591 771.716,887.666 773.098,881.006 777.245,880.996 778.628,883.385 781.392,882.414 782.775,892.65 786.922,898.79 788.304,914.248 789.687,919.158 791.069,910.132 792.451,909.015 796.599,903.653 797.981,882.513 799.363,884.382 800.746,868.056 802.128,866.499 807.658,868.831 809.04,877.103 810.422,870.564 811.805,885.15 815.952,893.633 817.334,884.17 818.717,888.782 820.099,888.591 821.481,908.916 825.629,889.338 827.011,876.495 828.393,870.483 829.776,879.533 831.158,887.593 835.305,878.297 836.688,874.372 838.07,856.284 839.452,847.5 840.835,854.761 846.364,838.297 847.747,822.634 849.129,813.202 850.511,814.658 854.659,839.755 856.041,866.022 857.423,866.582 858.806,916.234 860.188,968.635 864.335,898.91 865.718,937.196 867.1,912.234 868.482,936.317 869.865,940.757 873.954,976.086 875.337,899.243 876.719,988.478 878.101,1153.89 879.484,1096.52 883.631,1275.46 885.013,1172.11 886.396,1320.6 887.778,1351.36 889.16,1348.26 893.308,1375.54 894.69,1218.71 896.072,1217.69 897.455,1185.46 898.837,1233.77 902.984,1206.96 904.367,1185.25 905.749,1180.74 907.131,1132.74 908.514,1135.34 912.661,1068.42 914.043,1067.9 915.426,1047.37 916.808,1004.89 922.337,996.663 923.72,943.578 925.102,962.537 926.485,897.531 927.867,851.439 932.014,906.329 933.397,962.732 934.779,939.831 936.161,924.658 937.544,950.595 941.691,922.652 943.073,924.838 944.456,903.565 945.838,904.644 947.22,945.764 951.367,933.555 952.75,970.834 954.132,961.758 955.515,982.479 956.897,961.926 961.044,921.208 962.426,933.046 963.809,943.141 965.191,946.027 966.574,933.268 970.721,890.189 972.103,897.117 973.485,896.08 974.868,885.25 976.25,882.923 981.78,855.874 983.162,801.95 984.545,833.775 985.927,809.776 990.074,775.396 991.456,776.203 992.839,777.601 994.221,804.503 995.604,781.111 999.751,780.102 1001.13,790.104 1002.52,780.968 1003.9,845.516 1005.28,847.174 1009.43,812.124 1010.81,799.516 1012.19,811.204 1013.57,800.396 1014.96,822.285 1019.1,782.736 1020.49,807.836 1021.87,814.037 1023.25,809.615 1024.63,829.89 1028.78,817.269 1030.16,817.51 1031.55,819.801 1032.93,821.934 1038.46,833.419 1039.84,824.986 1041.22,833.16 1042.6,822.152 1043.99,828.453 1048.13,847.329 1049.52,825.648 1050.9,811.263 1052.28,823.761 1053.66,827.99 1057.81,806.99 1059.19,808.763 1060.58,788.545 1061.96,806.17 1063.34,796.807 1067.49,809.991 1068.87,818.231 1070.25,804.099 1071.63,802.017 1073.02,811.41 1077.16,795.824 1078.55,781.073 1079.93,777.078 1081.31,789.044 1082.69,770.7 1086.84,772.419 1088.22,779.429 1089.61,748.841 1090.99,749.369 1092.37,733.468 1096.52,716.289 1097.9,732.569 1099.28,724.665 1100.66,752.769 1102.05,744.403 1106.19,742.457 1107.58,736.67 1108.96,723.705 1110.34,740.791 1111.72,735.016 1115.87,733.781 1117.25,746.561 1118.64,717.146 1120.02,766.843 1121.4,778.658 1126.93,789.972 1128.31,765.161 1129.69,781.317 1131.08,761.103 1135.22,737.207 1136.61,751.981 1137.99,748.164 1139.37,750.012 1140.75,739.631 1144.9,782.105 1146.28,760.795 1147.67,783.566 1149.05,781.893 1150.43,769.383 1154.58,751.342 1155.96,748.698 1157.34,744.531 1158.72,727.274 1160.11,736.616 1164.25,720.455 1165.64,728.601 1167.02,703.088 1168.4,664.864 1169.78,658.383 1173.93,661.672 1175.31,652.936 1176.7,668.653 1178.08,659.282 1179.46,677.532 1183.61,698.619 1184.99,695.657 1186.37,686.501 1187.75,703.97 1189.14,698.251 1193.28,736.25 1194.67,719.873 1196.05,757.413 1197.43,739.257 1198.81,753.494 1203.02,737.366 1204.4,702.538 1205.78,684.053 1207.17,661.882 1208.55,642.699 1212.69,683.679 1214.08,691.422 1215.46,655.429 1216.84,611.352 1218.22,597.994 1222.37,561.469 1223.75,583.694 1225.14,596.216 1226.52,587.993 1227.9,587.113 1232.05,584.723 1233.43,569.663 1234.81,556.335 1237.58,551.584 1241.72,563.701 1243.11,550.486 1244.49,560.114 1245.87,565.938 1247.25,585.04 1251.4,570.875 1252.78,582.438 1254.17,595.7 1255.55,595.401 1256.93,608.878 1261.08,607.782 1262.46,594.292 1263.84,581.362 1265.22,577.198 1266.61,589.955 1270.75,591.653 1272.14,576.783 1273.52,593.492 1274.9,589.793 1280.43,590.805 1281.81,582.699 1283.2,577.608 1284.58,567.604 1290.11,581.28 1291.49,591.221 1292.87,528.45 1294.25,527.151 1295.64,546.167 1299.78,559.965 1301.17,544.383 1302.55,523.612 1303.93,546.687 1305.31,551.59 1310.84,568.785 1312.23,559.505 1313.61,570.197 1314.99,566.831 1319.14,561.003 1320.52,548.336 1321.9,592.903 1323.28,615.952 1324.67,649.557 1328.81,649.666 1330.2,638.153 1331.58,636.249 1332.96,627.469 1334.34,631.137 1338.49,595.618 1339.87,567.742 1341.26,575.821 1342.64,588.417 1344.02,594.614 1349.55,590.728 1350.93,586.863 1352.31,576.706 1353.7,584.665 1357.84,591.905 1359.23,626.484 1360.61,632.737 1361.99,661.637 1363.37,645.62 1367.52,621.271 1368.9,657.038 1370.29,681.827 1371.67,721.131 1373.05,706.729 1377.2,691.728 1378.58,670.613 1379.96,656.252 1381.34,635.827 1382.73,614.546 1386.82,588.7 1388.2,579.559 1389.58,614.233 1390.96,677.735 1392.35,630.841 1396.49,586.923 1397.88,571.297 1399.26,578.732 1400.64,567.866 1402.02,534.251 1406.17,540.716 1407.55,546.967 1408.93,543.651 1410.32,527.521 1415.85,486.104 1417.23,484.103 1418.61,480.531 1419.99,469.902 1421.38,461.688 1425.52,459.814 1426.91,444.409 1428.29,439.502 1429.67,432.265 1431.05,432.64 1435.2,434.9 1436.58,422.879 1437.96,427.801 1439.35,438.127 1440.73,443.943 1444.88,443.263 1446.26,434.911 1447.64,444.467 1449.02,416.291 1450.41,418.917 1454.55,400.184 1455.94,405.683 1457.32,407.52 1458.7,395.342 1460.08,381.902 1464.23,393.36 1465.61,429.916 1466.99,479.065 1468.38,468.784 1469.76,461.96 1473.91,479.909 1475.29,477.291 1476.67,503.773 1478.05,475.691 1479.44,478.53 1483.58,507.004 1484.97,504.571 1486.35,492.186 1487.73,455.02 1489.11,464.629 1494.64,468.19 1496.02,455.123 1497.41,437.047 1498.79,426.301 1502.94,419.416 1504.32,409.407 1505.7,425.287 1507.08,422.67 1508.47,403.755 1512.61,399.701 1514,387.845 1515.38,389.082 1516.76,381.541 1518.14,394.009 1522.29,386.593 1523.67,383.84 1525.05,392.107 1526.44,390.574 1527.82,395.14 1531.97,381.869 1533.35,369.612 1534.73,365.771 1536.11,348.364 1537.5,334.953 1543.03,335.637 1544.41,318.596 1545.79,336.306 1547.17,323.874 1551.32,329.474 1552.7,328.393 1554.08,322.053 1555.47,326.266 1556.85,332.736 1561,341.657 1562.38,295.217 1563.76,302.275 1565.14,293.732 1566.53,269.65 1570.67,272.491 1572.06,253.167 1573.44,266.813 1574.82,254.221 1576.2,250.377 1580.35,256.465 1581.73,255.321 1583.11,252.797 1584.5,237.261 1585.88,235.74 1590.03,257.508 1591.41,249.515 1592.79,244.266 1594.17,242.661 1595.56,232.147 1599.7,223.102 1601.09,261.807 1602.47,283.446 1603.85,283.185 1605.23,265.666 1609.38,264.54 1610.76,266.429 1612.14,241.78 1613.53,299.062 1614.91,305.647 1619.06,306.28 1620.44,321.406 1621.82,318.525 1623.2,301.536 1624.59,318.383 1630.12,336.536 1631.5,315.659 1632.88,339.274 1634.26,351.968 1638.41,345.32 1639.79,362.574 1641.17,347.13 1642.56,324.79 1643.94,314.312 1648.09,317.445 1649.47,339.323 1650.85,338.565 1652.23,330.67 1653.62,333.962 1657.76,339.007 1659.15,350.902 1660.53,352.097 1661.91,383.154 1663.29,390.387 1667.44,411.837 1668.82,415.251 1670.2,411.431 1671.59,377.239 1672.97,397.558 1677.12,405.047 1678.5,406.869 1679.88,406.688 1681.26,372.12 1682.65,363.65 1686.79,363.859 1688.18,368.318 1689.56,342.165 1690.94,326.113 1692.32,321.06 1696.47,313.117 1697.85,323.715 1699.23,331.556 1700.62,310.197 1702,319.318 1706.15,295.635 1707.53,289.101 1708.91,264.349 1710.29,258.096 1711.68,242.4 1715.88,271.692 1717.26,286.093 1718.65,288.431 1720.03,281.138 1721.41,260.885 1725.56,234.64 1726.94,208.907 1728.32,237.601 1729.7,249.346 1731.09,253.487 1735.23,256.26 1736.62,248.545 1738,255.389 1740.76,268.956 1744.91,263.176 1746.29,293.807 1747.68,299.756 1749.06,317.292 1750.44,295.249 1754.59,268.594 1755.97,255.086 1757.35,271.566 1758.73,275.134 1760.12,262.87 1764.26,252.664 1765.65,258.123 1767.03,246.292 1768.41,259.594 1769.79,289.698 1773.94,301.071 1775.32,284.168 1776.7,293.937 1778.09,272.591 1783.62,257.159 1785,242.528 1786.38,207.985 1787.76,192.64 1789.15,187.758 1793.29,192.591 1794.68,219.744 1796.06,227.979 1797.44,212.804 1798.82,214.326 1802.97,223.259 1804.35,251.431 1805.73,249.871 1807.12,270.528 1808.5,315.795 1814.03,322.266 1815.41,309.561 1816.79,372.45 1818.18,383.612 1822.32,352.034 1823.71,375.639 1825.09,418.601 1826.47,411.153 1827.85,407.217 1832,373.403 1833.38,359.892 1834.76,381.337 1836.15,388.815 1837.53,413.234 1841.68,421.978 1843.06,391.965 1844.44,374.104 1845.82,411.429 1847.21,432.149 1851.35,438.48 1852.74,442.706 1854.12,451.896 1855.5,460.343 1856.88,438.57 1862.41,495.735 1863.79,525.728 1865.18,506.761 1866.56,447.03 1870.71,447.611 1872.09,445.775 1873.47,406.539 1874.85,404.953 1876.24,385.194 1880.38,445.269 1881.77,463.333 1883.15,430.435 1884.53,432.555 1885.91,461.484 1890,461.592 1891.38,430.35 1892.77,432.118 1894.15,359.854 1895.53,311.352 1899.68,313.773 1901.06,311.199 1902.44,342.36 1903.83,339.53 1905.21,324.07 1909.36,294.384 1910.74,280.342 1912.12,283.049 1913.5,307.552 1914.89,287.936 1919.03,283.068 1920.41,282.042 1921.8,239.391 1923.18,231.415 1924.56,217.829 1928.71,241.749 1930.09,241.326 1931.47,225.26 1932.86,225.231 1938.39,223.738 1939.77,182.492 1941.15,165.63 1942.53,201.063 1943.92,247.01 1948.06,251.33 1949.44,283.771 1950.83,296.31 1952.21,271.649 1953.59,351.815 1957.74,343.372 1959.12,342.217 1960.5,293.581 1961.89,359.208 1963.27,362.639 1967.42,393.408 1968.8,422.576 1970.18,425.529 1971.56,419.446 1972.95,394.775 1977.09,391.23 1978.47,405.666 1979.86,542.034 1981.24,547.22 1982.62,611.774 1986.77,569.531 1988.15,570.129 1989.53,566.627 1990.92,407.885 1992.3,361.365 1997.83,389.586 1999.21,417.271 2000.59,367.409 2001.98,369.459 2006.12,337.116 2007.5,329.186 2008.89,340.827 2010.27,315.825 2011.65,350.502 2015.8,410.874 2017.18,403.904 2018.56,379.095 2019.95,412.186 2021.33,420.171 2026.86,377.787 2028.24,369.757 2029.62,337.406 2031.01,290.246 2035.15,296.859 2036.53,329.687 2037.92,325.104 2039.3,329.483 2040.68,304.499 2046.21,284.823 2047.59,273.863 2048.98,260.796 2050.36,256.728 2054.51,248.339 2055.89,279.919 2057.27,278.771 2058.65,270.786 2060.03,296.513 2064.18,281.009 2065.56,260.356 2066.95,249.076 2068.33,258.145 2069.71,257.777 2073.86,257.155 2075.24,302.981 2076.62,270.436 2078.01,245.9 2079.39,221.049 2083.54,197.369 2084.92,195.5 2086.3,158.053 2087.68,176.079 2089.06,186.897 2093.21,159.409 2094.59,168.108 2095.98,152.678 2097.36,155.458 2098.74,153.2 2102.89,156.635 2104.27,144.966 2105.65,161.557 2107.04,158.747 2108.42,156.516 2112.57,215.126 2113.95,210.507 2115.33,205.685 2116.71,221.438 2118.09,306.319 2122.24,304.017 2123.62,314.904 2125.01,321.555 2126.39,286.153 2127.77,299.238 2133.3,305.819 2134.68,247.705 2136.07,227.653 2137.45,212.146 2141.6,191.984 2142.98,243.989 2144.36,264.5 2145.74,282.861 2147.12,280.48 2151.27,257.943 2152.65,268.482 2154.04,301.285 2155.42,324.534 2156.8,318.21 2160.95,347.029 2162.33,355.563 2163.71,310.341 2165.1,352.319 2166.48,351.984 2170.63,307.115 2172.01,274.769 2173.39,302.266 2174.77,291.001 2176.15,312.11 2180.3,310.694 2181.68,293.351 2183.07,301.913 2184.45,264.322 2185.83,306.26 2189.98,296.141 2191.36,282.702 2192.74,288.293 2194.13,297.734 2195.51,274.629 2199.66,270.857 2201.04,240.354 2202.42,231.841 2203.8,234.007 2205.18,191.849 2209.33,223.455 2210.71,235.974 2212.1,265.568 2213.48,266.155 2214.86,245.851 2219.07,226.182 2220.45,218.768 2221.83,265.845 2223.21,192.127 2224.6,209.323 2228.74,220.251 2230.13,163.648 2231.51,165.003 2232.89,168.328 2234.27,149 2238.42,106.567 2239.8,92.8215 2241.18,89.7777 2243.95,86.1857 2248.1,120.454 2249.48,141.766 2250.86,122.574 2252.24,200.149 2253.63,171.651 2257.77,180.714 2259.16,182.775 2260.54,160.379 2261.92,164.16 2263.3,189.278 2267.45,183.434 2268.83,195.558 2270.21,179.903 2271.6,197.981 2272.98,194.091 2277.13,220.154 2278.51,228.821 2279.89,197.332 2281.27,193.6 2282.66,178.609 2288.19,192.438 2289.57,195.002 2290.95,164.227 2292.33,163.263 "/>
</svg>
