<?xml version="1.0" encoding="utf-8"?>
<svg xmlns="http://www.w3.org/2000/svg" xmlns:xlink="http://www.w3.org/1999/xlink" width="600" height="400" viewBox="0 0 2400 1600">
<defs>
  <clipPath id="clip730">
    <rect x="0" y="0" width="2400" height="1600"/>
  </clipPath>
</defs>
<path clip-path="url(#clip730)" d="M0 1600 L2400 1600 L2400 0 L0 0  Z" fill="#ffffff" fill-rule="evenodd" fill-opacity="1"/>
<defs>
  <clipPath id="clip731">
    <rect x="480" y="0" width="1681" height="1600"/>
  </clipPath>
</defs>
<path clip-path="url(#clip730)" d="M217.783 1423.18 L2352.76 1423.18 L2352.76 47.2441 L217.783 47.2441  Z" fill="#ffffff" fill-rule="evenodd" fill-opacity="1"/>
<defs>
  <clipPath id="clip732">
    <rect x="217" y="47" width="2136" height="1377"/>
  </clipPath>
</defs>
<polyline clip-path="url(#clip732)" style="stroke:#000000; stroke-linecap:round; stroke-linejoin:round; stroke-width:2; stroke-opacity:0.1; fill:none" points="274.607,1423.18 274.607,47.2441 "/>
<polyline clip-path="url(#clip732)" style="stroke:#000000; stroke-linecap:round; stroke-linejoin:round; stroke-width:2; stroke-opacity:0.1; fill:none" points="779.175,1423.18 779.175,47.2441 "/>
<polyline clip-path="url(#clip732)" style="stroke:#000000; stroke-linecap:round; stroke-linejoin:round; stroke-width:2; stroke-opacity:0.1; fill:none" points="1285.13,1423.18 1285.13,47.2441 "/>
<polyline clip-path="url(#clip732)" style="stroke:#000000; stroke-linecap:round; stroke-linejoin:round; stroke-width:2; stroke-opacity:0.1; fill:none" points="1789.69,1423.18 1789.69,47.2441 "/>
<polyline clip-path="url(#clip732)" style="stroke:#000000; stroke-linecap:round; stroke-linejoin:round; stroke-width:2; stroke-opacity:0.1; fill:none" points="2294.26,1423.18 2294.26,47.2441 "/>
<polyline clip-path="url(#clip732)" style="stroke:#000000; stroke-linecap:round; stroke-linejoin:round; stroke-width:2; stroke-opacity:0.1; fill:none" points="217.783,1366.2 2352.76,1366.2 "/>
<polyline clip-path="url(#clip732)" style="stroke:#000000; stroke-linecap:round; stroke-linejoin:round; stroke-width:2; stroke-opacity:0.1; fill:none" points="217.783,1083.26 2352.76,1083.26 "/>
<polyline clip-path="url(#clip732)" style="stroke:#000000; stroke-linecap:round; stroke-linejoin:round; stroke-width:2; stroke-opacity:0.1; fill:none" points="217.783,800.325 2352.76,800.325 "/>
<polyline clip-path="url(#clip732)" style="stroke:#000000; stroke-linecap:round; stroke-linejoin:round; stroke-width:2; stroke-opacity:0.1; fill:none" points="217.783,517.39 2352.76,517.39 "/>
<polyline clip-path="url(#clip732)" style="stroke:#000000; stroke-linecap:round; stroke-linejoin:round; stroke-width:2; stroke-opacity:0.1; fill:none" points="217.783,234.454 2352.76,234.454 "/>
<polyline clip-path="url(#clip730)" style="stroke:#000000; stroke-linecap:round; stroke-linejoin:round; stroke-width:4; stroke-opacity:1; fill:none" points="217.783,1423.18 2352.76,1423.18 "/>
<polyline clip-path="url(#clip730)" style="stroke:#000000; stroke-linecap:round; stroke-linejoin:round; stroke-width:4; stroke-opacity:1; fill:none" points="274.607,1423.18 274.607,1404.28 "/>
<polyline clip-path="url(#clip730)" style="stroke:#000000; stroke-linecap:round; stroke-linejoin:round; stroke-width:4; stroke-opacity:1; fill:none" points="779.175,1423.18 779.175,1404.28 "/>
<polyline clip-path="url(#clip730)" style="stroke:#000000; stroke-linecap:round; stroke-linejoin:round; stroke-width:4; stroke-opacity:1; fill:none" points="1285.13,1423.18 1285.13,1404.28 "/>
<polyline clip-path="url(#clip730)" style="stroke:#000000; stroke-linecap:round; stroke-linejoin:round; stroke-width:4; stroke-opacity:1; fill:none" points="1789.69,1423.18 1789.69,1404.28 "/>
<polyline clip-path="url(#clip730)" style="stroke:#000000; stroke-linecap:round; stroke-linejoin:round; stroke-width:4; stroke-opacity:1; fill:none" points="2294.26,1423.18 2294.26,1404.28 "/>
<path clip-path="url(#clip730)" d="M146.401 1481.64 L162.721 1481.64 L162.721 1485.58 L140.776 1485.58 L140.776 1481.64 Q143.438 1478.89 148.022 1474.26 Q152.628 1469.61 153.809 1468.27 Q156.054 1465.74 156.934 1464.01 Q157.837 1462.25 157.837 1460.56 Q157.837 1457.8 155.892 1456.07 Q153.971 1454.33 150.869 1454.33 Q148.67 1454.33 146.216 1455.09 Q143.786 1455.86 141.008 1457.41 L141.008 1452.69 Q143.832 1451.55 146.286 1450.97 Q148.739 1450.39 150.776 1450.39 Q156.147 1450.39 159.341 1453.08 Q162.536 1455.77 162.536 1460.26 Q162.536 1462.39 161.725 1464.31 Q160.938 1466.2 158.832 1468.8 Q158.253 1469.47 155.151 1472.69 Q152.05 1475.88 146.401 1481.64 Z" fill="#000000" fill-rule="nonzero" fill-opacity="1" /><path clip-path="url(#clip730)" d="M182.535 1454.1 Q178.924 1454.1 177.096 1457.66 Q175.29 1461.2 175.29 1468.33 Q175.29 1475.44 177.096 1479.01 Q178.924 1482.55 182.535 1482.55 Q186.17 1482.55 187.975 1479.01 Q189.804 1475.44 189.804 1468.33 Q189.804 1461.2 187.975 1457.66 Q186.17 1454.1 182.535 1454.1 M182.535 1450.39 Q188.346 1450.39 191.401 1455 Q194.48 1459.58 194.48 1468.33 Q194.48 1477.06 191.401 1481.67 Q188.346 1486.25 182.535 1486.25 Q176.725 1486.25 173.647 1481.67 Q170.591 1477.06 170.591 1468.33 Q170.591 1459.58 173.647 1455 Q176.725 1450.39 182.535 1450.39 Z" fill="#000000" fill-rule="nonzero" fill-opacity="1" /><path clip-path="url(#clip730)" d="M203.508 1481.64 L211.146 1481.64 L211.146 1455.28 L202.836 1456.95 L202.836 1452.69 L211.1 1451.02 L215.776 1451.02 L215.776 1481.64 L223.415 1481.64 L223.415 1485.58 L203.508 1485.58 L203.508 1481.64 Z" fill="#000000" fill-rule="nonzero" fill-opacity="1" /><path clip-path="url(#clip730)" d="M232.998 1484.86 L232.998 1480.6 Q234.757 1481.44 236.563 1481.88 Q238.369 1482.32 240.105 1482.32 Q244.734 1482.32 247.165 1479.21 Q249.618 1476.09 249.966 1469.75 Q248.623 1471.74 246.563 1472.8 Q244.503 1473.87 242.003 1473.87 Q236.818 1473.87 233.785 1470.74 Q230.776 1467.59 230.776 1462.15 Q230.776 1456.83 233.924 1453.61 Q237.072 1450.39 242.304 1450.39 Q248.299 1450.39 251.447 1455 Q254.618 1459.58 254.618 1468.33 Q254.618 1476.51 250.73 1481.39 Q246.864 1486.25 240.313 1486.25 Q238.554 1486.25 236.748 1485.9 Q234.943 1485.56 232.998 1484.86 M242.304 1470.21 Q245.452 1470.21 247.281 1468.06 Q249.132 1465.9 249.132 1462.15 Q249.132 1458.43 247.281 1456.27 Q245.452 1454.1 242.304 1454.1 Q239.156 1454.1 237.304 1456.27 Q235.475 1458.43 235.475 1462.15 Q235.475 1465.9 237.304 1468.06 Q239.156 1470.21 242.304 1470.21 Z" fill="#000000" fill-rule="nonzero" fill-opacity="1" /><path clip-path="url(#clip730)" d="M260.267 1470.7 L272.743 1470.7 L272.743 1474.49 L260.267 1474.49 L260.267 1470.7 Z" fill="#000000" fill-rule="nonzero" fill-opacity="1" /><path clip-path="url(#clip730)" d="M290.128 1454.1 Q286.516 1454.1 284.688 1457.66 Q282.882 1461.2 282.882 1468.33 Q282.882 1475.44 284.688 1479.01 Q286.516 1482.55 290.128 1482.55 Q293.762 1482.55 295.567 1479.01 Q297.396 1475.44 297.396 1468.33 Q297.396 1461.2 295.567 1457.66 Q293.762 1454.1 290.128 1454.1 M290.128 1450.39 Q295.938 1450.39 298.993 1455 Q302.072 1459.58 302.072 1468.33 Q302.072 1477.06 298.993 1481.67 Q295.938 1486.25 290.128 1486.25 Q284.317 1486.25 281.239 1481.67 Q278.183 1477.06 278.183 1468.33 Q278.183 1459.58 281.239 1455 Q284.317 1450.39 290.128 1450.39 Z" fill="#000000" fill-rule="nonzero" fill-opacity="1" /><path clip-path="url(#clip730)" d="M311.1 1481.64 L318.738 1481.64 L318.738 1455.28 L310.428 1456.95 L310.428 1452.69 L318.692 1451.02 L323.368 1451.02 L323.368 1481.64 L331.007 1481.64 L331.007 1485.58 L311.1 1485.58 L311.1 1481.64 Z" fill="#000000" fill-rule="nonzero" fill-opacity="1" /><path clip-path="url(#clip730)" d="M337.697 1470.7 L350.173 1470.7 L350.173 1474.49 L337.697 1474.49 L337.697 1470.7 Z" fill="#000000" fill-rule="nonzero" fill-opacity="1" /><path clip-path="url(#clip730)" d="M367.558 1454.1 Q363.947 1454.1 362.118 1457.66 Q360.312 1461.2 360.312 1468.33 Q360.312 1475.44 362.118 1479.01 Q363.947 1482.55 367.558 1482.55 Q371.192 1482.55 372.997 1479.01 Q374.826 1475.44 374.826 1468.33 Q374.826 1461.2 372.997 1457.66 Q371.192 1454.1 367.558 1454.1 M367.558 1450.39 Q373.368 1450.39 376.423 1455 Q379.502 1459.58 379.502 1468.33 Q379.502 1477.06 376.423 1481.67 Q373.368 1486.25 367.558 1486.25 Q361.747 1486.25 358.669 1481.67 Q355.613 1477.06 355.613 1468.33 Q355.613 1459.58 358.669 1455 Q361.747 1450.39 367.558 1450.39 Z" fill="#000000" fill-rule="nonzero" fill-opacity="1" /><path clip-path="url(#clip730)" d="M388.53 1481.64 L396.169 1481.64 L396.169 1455.28 L387.858 1456.95 L387.858 1452.69 L396.122 1451.02 L400.798 1451.02 L400.798 1481.64 L408.437 1481.64 L408.437 1485.58 L388.53 1485.58 L388.53 1481.64 Z" fill="#000000" fill-rule="nonzero" fill-opacity="1" /><path clip-path="url(#clip730)" d="M650.97 1481.64 L667.289 1481.64 L667.289 1485.58 L645.345 1485.58 L645.345 1481.64 Q648.007 1478.89 652.59 1474.26 Q657.196 1469.61 658.377 1468.27 Q660.622 1465.74 661.502 1464.01 Q662.405 1462.25 662.405 1460.56 Q662.405 1457.8 660.46 1456.07 Q658.539 1454.33 655.437 1454.33 Q653.238 1454.33 650.784 1455.09 Q648.354 1455.86 645.576 1457.41 L645.576 1452.69 Q648.4 1451.55 650.854 1450.97 Q653.308 1450.39 655.345 1450.39 Q660.715 1450.39 663.909 1453.08 Q667.104 1455.77 667.104 1460.26 Q667.104 1462.39 666.294 1464.31 Q665.507 1466.2 663.4 1468.8 Q662.821 1469.47 659.72 1472.69 Q656.618 1475.88 650.97 1481.64 Z" fill="#000000" fill-rule="nonzero" fill-opacity="1" /><path clip-path="url(#clip730)" d="M687.104 1454.1 Q683.493 1454.1 681.664 1457.66 Q679.858 1461.2 679.858 1468.33 Q679.858 1475.44 681.664 1479.01 Q683.493 1482.55 687.104 1482.55 Q690.738 1482.55 692.543 1479.01 Q694.372 1475.44 694.372 1468.33 Q694.372 1461.2 692.543 1457.66 Q690.738 1454.1 687.104 1454.1 M687.104 1450.39 Q692.914 1450.39 695.969 1455 Q699.048 1459.58 699.048 1468.33 Q699.048 1477.06 695.969 1481.67 Q692.914 1486.25 687.104 1486.25 Q681.293 1486.25 678.215 1481.67 Q675.159 1477.06 675.159 1468.33 Q675.159 1459.58 678.215 1455 Q681.293 1450.39 687.104 1450.39 Z" fill="#000000" fill-rule="nonzero" fill-opacity="1" /><path clip-path="url(#clip730)" d="M711.293 1481.64 L727.613 1481.64 L727.613 1485.58 L705.668 1485.58 L705.668 1481.64 Q708.33 1478.89 712.914 1474.26 Q717.52 1469.61 718.701 1468.27 Q720.946 1465.74 721.826 1464.01 Q722.728 1462.25 722.728 1460.56 Q722.728 1457.8 720.784 1456.07 Q718.863 1454.33 715.761 1454.33 Q713.562 1454.33 711.108 1455.09 Q708.678 1455.86 705.9 1457.41 L705.9 1452.69 Q708.724 1451.55 711.178 1450.97 Q713.631 1450.39 715.668 1450.39 Q721.039 1450.39 724.233 1453.08 Q727.427 1455.77 727.427 1460.26 Q727.427 1462.39 726.617 1464.31 Q725.83 1466.2 723.724 1468.8 Q723.145 1469.47 720.043 1472.69 Q716.941 1475.88 711.293 1481.64 Z" fill="#000000" fill-rule="nonzero" fill-opacity="1" /><path clip-path="url(#clip730)" d="M747.427 1454.1 Q743.816 1454.1 741.988 1457.66 Q740.182 1461.2 740.182 1468.33 Q740.182 1475.44 741.988 1479.01 Q743.816 1482.55 747.427 1482.55 Q751.062 1482.55 752.867 1479.01 Q754.696 1475.44 754.696 1468.33 Q754.696 1461.2 752.867 1457.66 Q751.062 1454.1 747.427 1454.1 M747.427 1450.39 Q753.238 1450.39 756.293 1455 Q759.372 1459.58 759.372 1468.33 Q759.372 1477.06 756.293 1481.67 Q753.238 1486.25 747.427 1486.25 Q741.617 1486.25 738.539 1481.67 Q735.483 1477.06 735.483 1468.33 Q735.483 1459.58 738.539 1455 Q741.617 1450.39 747.427 1450.39 Z" fill="#000000" fill-rule="nonzero" fill-opacity="1" /><path clip-path="url(#clip730)" d="M764.835 1470.7 L777.311 1470.7 L777.311 1474.49 L764.835 1474.49 L764.835 1470.7 Z" fill="#000000" fill-rule="nonzero" fill-opacity="1" /><path clip-path="url(#clip730)" d="M794.696 1454.1 Q791.085 1454.1 789.256 1457.66 Q787.45 1461.2 787.45 1468.33 Q787.45 1475.44 789.256 1479.01 Q791.085 1482.55 794.696 1482.55 Q798.33 1482.55 800.135 1479.01 Q801.964 1475.44 801.964 1468.33 Q801.964 1461.2 800.135 1457.66 Q798.33 1454.1 794.696 1454.1 M794.696 1450.39 Q800.506 1450.39 803.561 1455 Q806.64 1459.58 806.64 1468.33 Q806.64 1477.06 803.561 1481.67 Q800.506 1486.25 794.696 1486.25 Q788.886 1486.25 785.807 1481.67 Q782.751 1477.06 782.751 1468.33 Q782.751 1459.58 785.807 1455 Q788.886 1450.39 794.696 1450.39 Z" fill="#000000" fill-rule="nonzero" fill-opacity="1" /><path clip-path="url(#clip730)" d="M815.668 1481.64 L823.307 1481.64 L823.307 1455.28 L814.996 1456.95 L814.996 1452.69 L823.26 1451.02 L827.936 1451.02 L827.936 1481.64 L835.575 1481.64 L835.575 1485.58 L815.668 1485.58 L815.668 1481.64 Z" fill="#000000" fill-rule="nonzero" fill-opacity="1" /><path clip-path="url(#clip730)" d="M842.265 1470.7 L854.742 1470.7 L854.742 1474.49 L842.265 1474.49 L842.265 1470.7 Z" fill="#000000" fill-rule="nonzero" fill-opacity="1" /><path clip-path="url(#clip730)" d="M872.126 1454.1 Q868.515 1454.1 866.686 1457.66 Q864.88 1461.2 864.88 1468.33 Q864.88 1475.44 866.686 1479.01 Q868.515 1482.55 872.126 1482.55 Q875.76 1482.55 877.566 1479.01 Q879.394 1475.44 879.394 1468.33 Q879.394 1461.2 877.566 1457.66 Q875.76 1454.1 872.126 1454.1 M872.126 1450.39 Q877.936 1450.39 880.991 1455 Q884.07 1459.58 884.07 1468.33 Q884.07 1477.06 880.991 1481.67 Q877.936 1486.25 872.126 1486.25 Q866.316 1486.25 863.237 1481.67 Q860.181 1477.06 860.181 1468.33 Q860.181 1459.58 863.237 1455 Q866.316 1450.39 872.126 1450.39 Z" fill="#000000" fill-rule="nonzero" fill-opacity="1" /><path clip-path="url(#clip730)" d="M893.098 1481.64 L900.737 1481.64 L900.737 1455.28 L892.427 1456.95 L892.427 1452.69 L900.69 1451.02 L905.366 1451.02 L905.366 1481.64 L913.005 1481.64 L913.005 1485.58 L893.098 1485.58 L893.098 1481.64 Z" fill="#000000" fill-rule="nonzero" fill-opacity="1" /><path clip-path="url(#clip730)" d="M1156.92 1481.64 L1173.24 1481.64 L1173.24 1485.58 L1151.3 1485.58 L1151.3 1481.64 Q1153.96 1478.89 1158.54 1474.26 Q1163.15 1469.61 1164.33 1468.27 Q1166.57 1465.74 1167.45 1464.01 Q1168.36 1462.25 1168.36 1460.56 Q1168.36 1457.8 1166.41 1456.07 Q1164.49 1454.33 1161.39 1454.33 Q1159.19 1454.33 1156.73 1455.09 Q1154.3 1455.86 1151.53 1457.41 L1151.53 1452.69 Q1154.35 1451.55 1156.8 1450.97 Q1159.26 1450.39 1161.3 1450.39 Q1166.67 1450.39 1169.86 1453.08 Q1173.05 1455.77 1173.05 1460.26 Q1173.05 1462.39 1172.24 1464.31 Q1171.46 1466.2 1169.35 1468.8 Q1168.77 1469.47 1165.67 1472.69 Q1162.57 1475.88 1156.92 1481.64 Z" fill="#000000" fill-rule="nonzero" fill-opacity="1" /><path clip-path="url(#clip730)" d="M1193.05 1454.1 Q1189.44 1454.1 1187.61 1457.66 Q1185.81 1461.2 1185.81 1468.33 Q1185.81 1475.44 1187.61 1479.01 Q1189.44 1482.55 1193.05 1482.55 Q1196.69 1482.55 1198.49 1479.01 Q1200.32 1475.44 1200.32 1468.33 Q1200.32 1461.2 1198.49 1457.66 Q1196.69 1454.1 1193.05 1454.1 M1193.05 1450.39 Q1198.86 1450.39 1201.92 1455 Q1205 1459.58 1205 1468.33 Q1205 1477.06 1201.92 1481.67 Q1198.86 1486.25 1193.05 1486.25 Q1187.24 1486.25 1184.17 1481.67 Q1181.11 1477.06 1181.11 1468.33 Q1181.11 1459.58 1184.17 1455 Q1187.24 1450.39 1193.05 1450.39 Z" fill="#000000" fill-rule="nonzero" fill-opacity="1" /><path clip-path="url(#clip730)" d="M1217.24 1481.64 L1233.56 1481.64 L1233.56 1485.58 L1211.62 1485.58 L1211.62 1481.64 Q1214.28 1478.89 1218.86 1474.26 Q1223.47 1469.61 1224.65 1468.27 Q1226.9 1465.74 1227.78 1464.01 Q1228.68 1462.25 1228.68 1460.56 Q1228.68 1457.8 1226.73 1456.07 Q1224.81 1454.33 1221.71 1454.33 Q1219.51 1454.33 1217.06 1455.09 Q1214.63 1455.86 1211.85 1457.41 L1211.85 1452.69 Q1214.67 1451.55 1217.13 1450.97 Q1219.58 1450.39 1221.62 1450.39 Q1226.99 1450.39 1230.18 1453.08 Q1233.38 1455.77 1233.38 1460.26 Q1233.38 1462.39 1232.57 1464.31 Q1231.78 1466.2 1229.67 1468.8 Q1229.1 1469.47 1225.99 1472.69 Q1222.89 1475.88 1217.24 1481.64 Z" fill="#000000" fill-rule="nonzero" fill-opacity="1" /><path clip-path="url(#clip730)" d="M1244.19 1481.64 L1251.83 1481.64 L1251.83 1455.28 L1243.52 1456.95 L1243.52 1452.69 L1251.78 1451.02 L1256.46 1451.02 L1256.46 1481.64 L1264.1 1481.64 L1264.1 1485.58 L1244.19 1485.58 L1244.19 1481.64 Z" fill="#000000" fill-rule="nonzero" fill-opacity="1" /><path clip-path="url(#clip730)" d="M1270.79 1470.7 L1283.26 1470.7 L1283.26 1474.49 L1270.79 1474.49 L1270.79 1470.7 Z" fill="#000000" fill-rule="nonzero" fill-opacity="1" /><path clip-path="url(#clip730)" d="M1300.65 1454.1 Q1297.04 1454.1 1295.21 1457.66 Q1293.4 1461.2 1293.4 1468.33 Q1293.4 1475.44 1295.21 1479.01 Q1297.04 1482.55 1300.65 1482.55 Q1304.28 1482.55 1306.09 1479.01 Q1307.91 1475.44 1307.91 1468.33 Q1307.91 1461.2 1306.09 1457.66 Q1304.28 1454.1 1300.65 1454.1 M1300.65 1450.39 Q1306.46 1450.39 1309.51 1455 Q1312.59 1459.58 1312.59 1468.33 Q1312.59 1477.06 1309.51 1481.67 Q1306.46 1486.25 1300.65 1486.25 Q1294.84 1486.25 1291.76 1481.67 Q1288.7 1477.06 1288.7 1468.33 Q1288.7 1459.58 1291.76 1455 Q1294.84 1450.39 1300.65 1450.39 Z" fill="#000000" fill-rule="nonzero" fill-opacity="1" /><path clip-path="url(#clip730)" d="M1321.62 1481.64 L1329.26 1481.64 L1329.26 1455.28 L1320.95 1456.95 L1320.95 1452.69 L1329.21 1451.02 L1333.89 1451.02 L1333.89 1481.64 L1341.53 1481.64 L1341.53 1485.58 L1321.62 1485.58 L1321.62 1481.64 Z" fill="#000000" fill-rule="nonzero" fill-opacity="1" /><path clip-path="url(#clip730)" d="M1348.22 1470.7 L1360.69 1470.7 L1360.69 1474.49 L1348.22 1474.49 L1348.22 1470.7 Z" fill="#000000" fill-rule="nonzero" fill-opacity="1" /><path clip-path="url(#clip730)" d="M1378.08 1454.1 Q1374.47 1454.1 1372.64 1457.66 Q1370.83 1461.2 1370.83 1468.33 Q1370.83 1475.44 1372.64 1479.01 Q1374.47 1482.55 1378.08 1482.55 Q1381.71 1482.55 1383.52 1479.01 Q1385.34 1475.44 1385.34 1468.33 Q1385.34 1461.2 1383.52 1457.66 Q1381.71 1454.1 1378.08 1454.1 M1378.08 1450.39 Q1383.89 1450.39 1386.94 1455 Q1390.02 1459.58 1390.02 1468.33 Q1390.02 1477.06 1386.94 1481.67 Q1383.89 1486.25 1378.08 1486.25 Q1372.27 1486.25 1369.19 1481.67 Q1366.13 1477.06 1366.13 1468.33 Q1366.13 1459.58 1369.19 1455 Q1372.27 1450.39 1378.08 1450.39 Z" fill="#000000" fill-rule="nonzero" fill-opacity="1" /><path clip-path="url(#clip730)" d="M1399.05 1481.64 L1406.69 1481.64 L1406.69 1455.28 L1398.38 1456.95 L1398.38 1452.69 L1406.64 1451.02 L1411.32 1451.02 L1411.32 1481.64 L1418.96 1481.64 L1418.96 1485.58 L1399.05 1485.58 L1399.05 1481.64 Z" fill="#000000" fill-rule="nonzero" fill-opacity="1" /><path clip-path="url(#clip730)" d="M1661.49 1481.64 L1677.81 1481.64 L1677.81 1485.58 L1655.86 1485.58 L1655.86 1481.64 Q1658.53 1478.89 1663.11 1474.26 Q1667.72 1469.61 1668.9 1468.27 Q1671.14 1465.74 1672.02 1464.01 Q1672.92 1462.25 1672.92 1460.56 Q1672.92 1457.8 1670.98 1456.07 Q1669.06 1454.33 1665.96 1454.33 Q1663.76 1454.33 1661.3 1455.09 Q1658.87 1455.86 1656.09 1457.41 L1656.09 1452.69 Q1658.92 1451.55 1661.37 1450.97 Q1663.83 1450.39 1665.86 1450.39 Q1671.23 1450.39 1674.43 1453.08 Q1677.62 1455.77 1677.62 1460.26 Q1677.62 1462.39 1676.81 1464.31 Q1676.03 1466.2 1673.92 1468.8 Q1673.34 1469.47 1670.24 1472.69 Q1667.14 1475.88 1661.49 1481.64 Z" fill="#000000" fill-rule="nonzero" fill-opacity="1" /><path clip-path="url(#clip730)" d="M1697.62 1454.1 Q1694.01 1454.1 1692.18 1457.66 Q1690.38 1461.2 1690.38 1468.33 Q1690.38 1475.44 1692.18 1479.01 Q1694.01 1482.55 1697.62 1482.55 Q1701.26 1482.55 1703.06 1479.01 Q1704.89 1475.44 1704.89 1468.33 Q1704.89 1461.2 1703.06 1457.66 Q1701.26 1454.1 1697.62 1454.1 M1697.62 1450.39 Q1703.43 1450.39 1706.49 1455 Q1709.57 1459.58 1709.57 1468.33 Q1709.57 1477.06 1706.49 1481.67 Q1703.43 1486.25 1697.62 1486.25 Q1691.81 1486.25 1688.73 1481.67 Q1685.68 1477.06 1685.68 1468.33 Q1685.68 1459.58 1688.73 1455 Q1691.81 1450.39 1697.62 1450.39 Z" fill="#000000" fill-rule="nonzero" fill-opacity="1" /><path clip-path="url(#clip730)" d="M1721.81 1481.64 L1738.13 1481.64 L1738.13 1485.58 L1716.19 1485.58 L1716.19 1481.64 Q1718.85 1478.89 1723.43 1474.26 Q1728.04 1469.61 1729.22 1468.27 Q1731.46 1465.74 1732.34 1464.01 Q1733.25 1462.25 1733.25 1460.56 Q1733.25 1457.8 1731.3 1456.07 Q1729.38 1454.33 1726.28 1454.33 Q1724.08 1454.33 1721.63 1455.09 Q1719.2 1455.86 1716.42 1457.41 L1716.42 1452.69 Q1719.24 1451.55 1721.7 1450.97 Q1724.15 1450.39 1726.19 1450.39 Q1731.56 1450.39 1734.75 1453.08 Q1737.95 1455.77 1737.95 1460.26 Q1737.95 1462.39 1737.14 1464.31 Q1736.35 1466.2 1734.24 1468.8 Q1733.66 1469.47 1730.56 1472.69 Q1727.46 1475.88 1721.81 1481.64 Z" fill="#000000" fill-rule="nonzero" fill-opacity="1" /><path clip-path="url(#clip730)" d="M1751.97 1481.64 L1768.29 1481.64 L1768.29 1485.58 L1746.35 1485.58 L1746.35 1481.64 Q1749.01 1478.89 1753.59 1474.26 Q1758.2 1469.61 1759.38 1468.27 Q1761.63 1465.74 1762.51 1464.01 Q1763.41 1462.25 1763.41 1460.56 Q1763.41 1457.8 1761.46 1456.07 Q1759.54 1454.33 1756.44 1454.33 Q1754.24 1454.33 1751.79 1455.09 Q1749.36 1455.86 1746.58 1457.41 L1746.58 1452.69 Q1749.4 1451.55 1751.86 1450.97 Q1754.31 1450.39 1756.35 1450.39 Q1761.72 1450.39 1764.91 1453.08 Q1768.11 1455.77 1768.11 1460.26 Q1768.11 1462.39 1767.3 1464.31 Q1766.51 1466.2 1764.4 1468.8 Q1763.83 1469.47 1760.72 1472.69 Q1757.62 1475.88 1751.97 1481.64 Z" fill="#000000" fill-rule="nonzero" fill-opacity="1" /><path clip-path="url(#clip730)" d="M1775.35 1470.7 L1787.83 1470.7 L1787.83 1474.49 L1775.35 1474.49 L1775.35 1470.7 Z" fill="#000000" fill-rule="nonzero" fill-opacity="1" /><path clip-path="url(#clip730)" d="M1805.21 1454.1 Q1801.6 1454.1 1799.77 1457.66 Q1797.97 1461.2 1797.97 1468.33 Q1797.97 1475.44 1799.77 1479.01 Q1801.6 1482.55 1805.21 1482.55 Q1808.85 1482.55 1810.65 1479.01 Q1812.48 1475.44 1812.48 1468.33 Q1812.48 1461.2 1810.65 1457.66 Q1808.85 1454.1 1805.21 1454.1 M1805.21 1450.39 Q1811.02 1450.39 1814.08 1455 Q1817.16 1459.58 1817.16 1468.33 Q1817.16 1477.06 1814.08 1481.67 Q1811.02 1486.25 1805.21 1486.25 Q1799.4 1486.25 1796.33 1481.67 Q1793.27 1477.06 1793.27 1468.33 Q1793.27 1459.58 1796.33 1455 Q1799.4 1450.39 1805.21 1450.39 Z" fill="#000000" fill-rule="nonzero" fill-opacity="1" /><path clip-path="url(#clip730)" d="M1826.19 1481.64 L1833.83 1481.64 L1833.83 1455.28 L1825.52 1456.95 L1825.52 1452.69 L1833.78 1451.02 L1838.45 1451.02 L1838.45 1481.64 L1846.09 1481.64 L1846.09 1485.58 L1826.19 1485.58 L1826.19 1481.64 Z" fill="#000000" fill-rule="nonzero" fill-opacity="1" /><path clip-path="url(#clip730)" d="M1852.78 1470.7 L1865.26 1470.7 L1865.26 1474.49 L1852.78 1474.49 L1852.78 1470.7 Z" fill="#000000" fill-rule="nonzero" fill-opacity="1" /><path clip-path="url(#clip730)" d="M1882.64 1454.1 Q1879.03 1454.1 1877.2 1457.66 Q1875.4 1461.2 1875.4 1468.33 Q1875.4 1475.44 1877.2 1479.01 Q1879.03 1482.55 1882.64 1482.55 Q1886.28 1482.55 1888.08 1479.01 Q1889.91 1475.44 1889.91 1468.33 Q1889.91 1461.2 1888.08 1457.66 Q1886.28 1454.1 1882.64 1454.1 M1882.64 1450.39 Q1888.45 1450.39 1891.51 1455 Q1894.59 1459.58 1894.59 1468.33 Q1894.59 1477.06 1891.51 1481.67 Q1888.45 1486.25 1882.64 1486.25 Q1876.83 1486.25 1873.76 1481.67 Q1870.7 1477.06 1870.7 1468.33 Q1870.7 1459.58 1873.76 1455 Q1876.83 1450.39 1882.64 1450.39 Z" fill="#000000" fill-rule="nonzero" fill-opacity="1" /><path clip-path="url(#clip730)" d="M1903.62 1481.64 L1911.26 1481.64 L1911.26 1455.28 L1902.95 1456.95 L1902.95 1452.69 L1911.21 1451.02 L1915.89 1451.02 L1915.89 1481.64 L1923.52 1481.64 L1923.52 1485.58 L1903.62 1485.58 L1903.62 1481.64 Z" fill="#000000" fill-rule="nonzero" fill-opacity="1" /><path clip-path="url(#clip730)" d="M2166.06 1481.64 L2182.38 1481.64 L2182.38 1485.58 L2160.43 1485.58 L2160.43 1481.64 Q2163.09 1478.89 2167.68 1474.26 Q2172.28 1469.61 2173.46 1468.27 Q2175.71 1465.74 2176.59 1464.01 Q2177.49 1462.25 2177.49 1460.56 Q2177.49 1457.8 2175.55 1456.07 Q2173.63 1454.33 2170.52 1454.33 Q2168.32 1454.33 2165.87 1455.09 Q2163.44 1455.86 2160.66 1457.41 L2160.66 1452.69 Q2163.49 1451.55 2165.94 1450.97 Q2168.39 1450.39 2170.43 1450.39 Q2175.8 1450.39 2179 1453.08 Q2182.19 1455.77 2182.19 1460.26 Q2182.19 1462.39 2181.38 1464.31 Q2180.59 1466.2 2178.49 1468.8 Q2177.91 1469.47 2174.81 1472.69 Q2171.7 1475.88 2166.06 1481.64 Z" fill="#000000" fill-rule="nonzero" fill-opacity="1" /><path clip-path="url(#clip730)" d="M2202.19 1454.1 Q2198.58 1454.1 2196.75 1457.66 Q2194.95 1461.2 2194.95 1468.33 Q2194.95 1475.44 2196.75 1479.01 Q2198.58 1482.55 2202.19 1482.55 Q2205.82 1482.55 2207.63 1479.01 Q2209.46 1475.44 2209.46 1468.33 Q2209.46 1461.2 2207.63 1457.66 Q2205.82 1454.1 2202.19 1454.1 M2202.19 1450.39 Q2208 1450.39 2211.06 1455 Q2214.13 1459.58 2214.13 1468.33 Q2214.13 1477.06 2211.06 1481.67 Q2208 1486.25 2202.19 1486.25 Q2196.38 1486.25 2193.3 1481.67 Q2190.25 1477.06 2190.25 1468.33 Q2190.25 1459.58 2193.3 1455 Q2196.38 1450.39 2202.19 1450.39 Z" fill="#000000" fill-rule="nonzero" fill-opacity="1" /><path clip-path="url(#clip730)" d="M2226.38 1481.64 L2242.7 1481.64 L2242.7 1485.58 L2220.76 1485.58 L2220.76 1481.64 Q2223.42 1478.89 2228 1474.26 Q2232.61 1469.61 2233.79 1468.27 Q2236.03 1465.74 2236.91 1464.01 Q2237.82 1462.25 2237.82 1460.56 Q2237.82 1457.8 2235.87 1456.07 Q2233.95 1454.33 2230.85 1454.33 Q2228.65 1454.33 2226.19 1455.09 Q2223.76 1455.86 2220.99 1457.41 L2220.99 1452.69 Q2223.81 1451.55 2226.26 1450.97 Q2228.72 1450.39 2230.76 1450.39 Q2236.13 1450.39 2239.32 1453.08 Q2242.51 1455.77 2242.51 1460.26 Q2242.51 1462.39 2241.7 1464.31 Q2240.92 1466.2 2238.81 1468.8 Q2238.23 1469.47 2235.13 1472.69 Q2232.03 1475.88 2226.38 1481.64 Z" fill="#000000" fill-rule="nonzero" fill-opacity="1" /><path clip-path="url(#clip730)" d="M2266.68 1466.95 Q2270.04 1467.66 2271.91 1469.93 Q2273.81 1472.2 2273.81 1475.53 Q2273.81 1480.65 2270.29 1483.45 Q2266.77 1486.25 2260.29 1486.25 Q2258.12 1486.25 2255.8 1485.81 Q2253.51 1485.39 2251.06 1484.54 L2251.06 1480.02 Q2253 1481.16 2255.32 1481.74 Q2257.63 1482.32 2260.15 1482.32 Q2264.55 1482.32 2266.84 1480.58 Q2269.16 1478.84 2269.16 1475.53 Q2269.16 1472.48 2267 1470.77 Q2264.88 1469.03 2261.06 1469.03 L2257.03 1469.03 L2257.03 1465.19 L2261.24 1465.19 Q2264.69 1465.19 2266.52 1463.82 Q2268.35 1462.43 2268.35 1459.84 Q2268.35 1457.18 2266.45 1455.77 Q2264.57 1454.33 2261.06 1454.33 Q2259.13 1454.33 2256.94 1454.75 Q2254.74 1455.16 2252.1 1456.04 L2252.1 1451.88 Q2254.76 1451.14 2257.07 1450.77 Q2259.41 1450.39 2261.47 1450.39 Q2266.8 1450.39 2269.9 1452.83 Q2273 1455.23 2273 1459.35 Q2273 1462.22 2271.36 1464.21 Q2269.71 1466.18 2266.68 1466.95 Z" fill="#000000" fill-rule="nonzero" fill-opacity="1" /><path clip-path="url(#clip730)" d="M2279.92 1470.7 L2292.4 1470.7 L2292.4 1474.49 L2279.92 1474.49 L2279.92 1470.7 Z" fill="#000000" fill-rule="nonzero" fill-opacity="1" /><path clip-path="url(#clip730)" d="M2309.78 1454.1 Q2306.17 1454.1 2304.34 1457.66 Q2302.54 1461.2 2302.54 1468.33 Q2302.54 1475.44 2304.34 1479.01 Q2306.17 1482.55 2309.78 1482.55 Q2313.42 1482.55 2315.22 1479.01 Q2317.05 1475.44 2317.05 1468.33 Q2317.05 1461.2 2315.22 1457.66 Q2313.42 1454.1 2309.78 1454.1 M2309.78 1450.39 Q2315.59 1450.39 2318.65 1455 Q2321.73 1459.58 2321.73 1468.33 Q2321.73 1477.06 2318.65 1481.67 Q2315.59 1486.25 2309.78 1486.25 Q2303.97 1486.25 2300.89 1481.67 Q2297.84 1477.06 2297.84 1468.33 Q2297.84 1459.58 2300.89 1455 Q2303.97 1450.39 2309.78 1450.39 Z" fill="#000000" fill-rule="nonzero" fill-opacity="1" /><path clip-path="url(#clip730)" d="M2330.75 1481.64 L2338.39 1481.64 L2338.39 1455.28 L2330.08 1456.95 L2330.08 1452.69 L2338.35 1451.02 L2343.02 1451.02 L2343.02 1481.64 L2350.66 1481.64 L2350.66 1485.58 L2330.75 1485.58 L2330.75 1481.64 Z" fill="#000000" fill-rule="nonzero" fill-opacity="1" /><path clip-path="url(#clip730)" d="M2357.35 1470.7 L2369.83 1470.7 L2369.83 1474.49 L2357.35 1474.49 L2357.35 1470.7 Z" fill="#000000" fill-rule="nonzero" fill-opacity="1" /><path clip-path="url(#clip730)" d="M2387.21 1454.1 Q2383.6 1454.1 2381.77 1457.66 Q2379.97 1461.2 2379.97 1468.33 Q2379.97 1475.44 2381.77 1479.01 Q2383.6 1482.55 2387.21 1482.55 Q2390.85 1482.55 2392.65 1479.01 Q2394.48 1475.44 2394.48 1468.33 Q2394.48 1461.2 2392.65 1457.66 Q2390.85 1454.1 2387.21 1454.1 M2387.21 1450.39 Q2393.02 1450.39 2396.08 1455 Q2399.16 1459.58 2399.16 1468.33 Q2399.16 1477.06 2396.08 1481.67 Q2393.02 1486.25 2387.21 1486.25 Q2381.4 1486.25 2378.32 1481.67 Q2375.27 1477.06 2375.27 1468.33 Q2375.27 1459.58 2378.32 1455 Q2381.4 1450.39 2387.21 1450.39 Z" fill="#000000" fill-rule="nonzero" fill-opacity="1" /><path clip-path="url(#clip730)" d="M2408.18 1481.64 L2415.82 1481.64 L2415.82 1455.28 L2407.51 1456.95 L2407.51 1452.69 L2415.78 1451.02 L2420.45 1451.02 L2420.45 1481.64 L2428.09 1481.64 L2428.09 1485.58 L2408.18 1485.58 L2408.18 1481.64 Z" fill="#000000" fill-rule="nonzero" fill-opacity="1" /><path clip-path="url(#clip730)" d="M1218.73 1525.81 L1218.73 1562.76 L1226.5 1562.76 Q1236.33 1562.76 1240.88 1558.3 Q1245.47 1553.85 1245.47 1544.24 Q1245.47 1534.69 1240.88 1530.26 Q1236.33 1525.81 1226.5 1525.81 L1218.73 1525.81 M1212.3 1520.52 L1225.51 1520.52 Q1239.32 1520.52 1245.79 1526.28 Q1252.25 1532.01 1252.25 1544.24 Q1252.25 1556.52 1245.75 1562.28 Q1239.26 1568.04 1225.51 1568.04 L1212.3 1568.04 L1212.3 1520.52 Z" fill="#000000" fill-rule="nonzero" fill-opacity="1" /><path clip-path="url(#clip730)" d="M1278.44 1550.12 Q1271.34 1550.12 1268.61 1551.75 Q1265.87 1553.37 1265.87 1557.29 Q1265.87 1560.4 1267.91 1562.25 Q1269.98 1564.07 1273.51 1564.07 Q1278.38 1564.07 1281.31 1560.63 Q1284.27 1557.16 1284.27 1551.43 L1284.27 1550.12 L1278.44 1550.12 M1290.12 1547.71 L1290.12 1568.04 L1284.27 1568.04 L1284.27 1562.63 Q1282.26 1565.88 1279.27 1567.44 Q1276.28 1568.97 1271.95 1568.97 Q1266.47 1568.97 1263.23 1565.91 Q1260.01 1562.82 1260.01 1557.67 Q1260.01 1551.65 1264.02 1548.6 Q1268.07 1545.54 1276.06 1545.54 L1284.27 1545.54 L1284.27 1544.97 Q1284.27 1540.93 1281.59 1538.73 Q1278.95 1536.5 1274.15 1536.5 Q1271.09 1536.5 1268.19 1537.23 Q1265.3 1537.97 1262.62 1539.43 L1262.62 1534.02 Q1265.84 1532.78 1268.86 1532.17 Q1271.89 1531.54 1274.75 1531.54 Q1282.48 1531.54 1286.3 1535.55 Q1290.12 1539.56 1290.12 1547.71 Z" fill="#000000" fill-rule="nonzero" fill-opacity="1" /><path clip-path="url(#clip730)" d="M1307.98 1522.27 L1307.98 1532.4 L1320.04 1532.4 L1320.04 1536.95 L1307.98 1536.95 L1307.98 1556.3 Q1307.98 1560.66 1309.16 1561.9 Q1310.37 1563.14 1314.03 1563.14 L1320.04 1563.14 L1320.04 1568.04 L1314.03 1568.04 Q1307.25 1568.04 1304.67 1565.53 Q1302.09 1562.98 1302.09 1556.3 L1302.09 1536.95 L1297.79 1536.95 L1297.79 1532.4 L1302.09 1532.4 L1302.09 1522.27 L1307.98 1522.27 Z" fill="#000000" fill-rule="nonzero" fill-opacity="1" /><path clip-path="url(#clip730)" d="M1358.24 1548.76 L1358.24 1551.62 L1331.31 1551.62 Q1331.69 1557.67 1334.94 1560.85 Q1338.22 1564 1344.04 1564 Q1347.41 1564 1350.57 1563.17 Q1353.75 1562.35 1356.87 1560.69 L1356.87 1566.23 Q1353.72 1567.57 1350.41 1568.27 Q1347.1 1568.97 1343.69 1568.97 Q1335.16 1568.97 1330.16 1564 Q1325.2 1559.04 1325.2 1550.57 Q1325.2 1541.82 1329.91 1536.69 Q1334.65 1531.54 1342.67 1531.54 Q1349.87 1531.54 1354.03 1536.18 Q1358.24 1540.8 1358.24 1548.76 M1352.38 1547.04 Q1352.32 1542.23 1349.67 1539.37 Q1347.06 1536.5 1342.74 1536.5 Q1337.83 1536.5 1334.87 1539.27 Q1331.95 1542.04 1331.5 1547.07 L1352.38 1547.04 Z" fill="#000000" fill-rule="nonzero" fill-opacity="1" /><polyline clip-path="url(#clip730)" style="stroke:#000000; stroke-linecap:round; stroke-linejoin:round; stroke-width:4; stroke-opacity:1; fill:none" points="217.783,1423.18 217.783,47.2441 "/>
<polyline clip-path="url(#clip730)" style="stroke:#000000; stroke-linecap:round; stroke-linejoin:round; stroke-width:4; stroke-opacity:1; fill:none" points="217.783,1366.2 236.681,1366.2 "/>
<polyline clip-path="url(#clip730)" style="stroke:#000000; stroke-linecap:round; stroke-linejoin:round; stroke-width:4; stroke-opacity:1; fill:none" points="217.783,1083.26 236.681,1083.26 "/>
<polyline clip-path="url(#clip730)" style="stroke:#000000; stroke-linecap:round; stroke-linejoin:round; stroke-width:4; stroke-opacity:1; fill:none" points="217.783,800.325 236.681,800.325 "/>
<polyline clip-path="url(#clip730)" style="stroke:#000000; stroke-linecap:round; stroke-linejoin:round; stroke-width:4; stroke-opacity:1; fill:none" points="217.783,517.39 236.681,517.39 "/>
<polyline clip-path="url(#clip730)" style="stroke:#000000; stroke-linecap:round; stroke-linejoin:round; stroke-width:4; stroke-opacity:1; fill:none" points="217.783,234.454 236.681,234.454 "/>
<path clip-path="url(#clip730)" d="M115.418 1379.54 L123.056 1379.54 L123.056 1353.18 L114.746 1354.84 L114.746 1350.58 L123.01 1348.92 L127.686 1348.92 L127.686 1379.54 L135.325 1379.54 L135.325 1383.48 L115.418 1383.48 L115.418 1379.54 Z" fill="#000000" fill-rule="nonzero" fill-opacity="1" /><path clip-path="url(#clip730)" d="M144.769 1377.6 L149.653 1377.6 L149.653 1383.48 L144.769 1383.48 L144.769 1377.6 Z" fill="#000000" fill-rule="nonzero" fill-opacity="1" /><path clip-path="url(#clip730)" d="M169.839 1351.99 Q166.227 1351.99 164.399 1355.56 Q162.593 1359.1 162.593 1366.23 Q162.593 1373.34 164.399 1376.9 Q166.227 1380.44 169.839 1380.44 Q173.473 1380.44 175.278 1376.9 Q177.107 1373.34 177.107 1366.23 Q177.107 1359.1 175.278 1355.56 Q173.473 1351.99 169.839 1351.99 M169.839 1348.29 Q175.649 1348.29 178.704 1352.9 Q181.783 1357.48 181.783 1366.23 Q181.783 1374.96 178.704 1379.56 Q175.649 1384.15 169.839 1384.15 Q164.028 1384.15 160.95 1379.56 Q157.894 1374.96 157.894 1366.23 Q157.894 1357.48 160.95 1352.9 Q164.028 1348.29 169.839 1348.29 Z" fill="#000000" fill-rule="nonzero" fill-opacity="1" /><path clip-path="url(#clip730)" d="M117.015 1096.61 L124.654 1096.61 L124.654 1070.24 L116.343 1071.91 L116.343 1067.65 L124.607 1065.98 L129.283 1065.98 L129.283 1096.61 L136.922 1096.61 L136.922 1100.54 L117.015 1100.54 L117.015 1096.61 Z" fill="#000000" fill-rule="nonzero" fill-opacity="1" /><path clip-path="url(#clip730)" d="M146.366 1094.66 L151.251 1094.66 L151.251 1100.54 L146.366 1100.54 L146.366 1094.66 Z" fill="#000000" fill-rule="nonzero" fill-opacity="1" /><path clip-path="url(#clip730)" d="M165.464 1096.61 L181.783 1096.61 L181.783 1100.54 L159.839 1100.54 L159.839 1096.61 Q162.501 1093.85 167.084 1089.22 Q171.69 1084.57 172.871 1083.23 Q175.116 1080.7 175.996 1078.97 Q176.899 1077.21 176.899 1075.52 Q176.899 1072.76 174.954 1071.03 Q173.033 1069.29 169.931 1069.29 Q167.732 1069.29 165.278 1070.05 Q162.848 1070.82 160.07 1072.37 L160.07 1067.65 Q162.894 1066.51 165.348 1065.93 Q167.802 1065.36 169.839 1065.36 Q175.209 1065.36 178.403 1068.04 Q181.598 1070.73 181.598 1075.22 Q181.598 1077.35 180.788 1079.27 Q180.001 1081.17 177.894 1083.76 Q177.315 1084.43 174.214 1087.65 Q171.112 1090.84 165.464 1096.61 Z" fill="#000000" fill-rule="nonzero" fill-opacity="1" /><path clip-path="url(#clip730)" d="M114.931 813.67 L122.57 813.67 L122.57 787.304 L114.26 788.971 L114.26 784.712 L122.524 783.045 L127.2 783.045 L127.2 813.67 L134.839 813.67 L134.839 817.605 L114.931 817.605 L114.931 813.67 Z" fill="#000000" fill-rule="nonzero" fill-opacity="1" /><path clip-path="url(#clip730)" d="M144.283 811.726 L149.167 811.726 L149.167 817.605 L144.283 817.605 L144.283 811.726 Z" fill="#000000" fill-rule="nonzero" fill-opacity="1" /><path clip-path="url(#clip730)" d="M172.2 787.119 L160.394 805.568 L172.2 805.568 L172.2 787.119 M170.973 783.045 L176.852 783.045 L176.852 805.568 L181.783 805.568 L181.783 809.457 L176.852 809.457 L176.852 817.605 L172.2 817.605 L172.2 809.457 L156.598 809.457 L156.598 804.943 L170.973 783.045 Z" fill="#000000" fill-rule="nonzero" fill-opacity="1" /><path clip-path="url(#clip730)" d="M115.256 530.735 L122.894 530.735 L122.894 504.369 L114.584 506.036 L114.584 501.776 L122.848 500.11 L127.524 500.11 L127.524 530.735 L135.163 530.735 L135.163 534.67 L115.256 534.67 L115.256 530.735 Z" fill="#000000" fill-rule="nonzero" fill-opacity="1" /><path clip-path="url(#clip730)" d="M144.607 528.79 L149.491 528.79 L149.491 534.67 L144.607 534.67 L144.607 528.79 Z" fill="#000000" fill-rule="nonzero" fill-opacity="1" /><path clip-path="url(#clip730)" d="M170.255 515.526 Q167.107 515.526 165.255 517.679 Q163.427 519.832 163.427 523.582 Q163.427 527.309 165.255 529.485 Q167.107 531.637 170.255 531.637 Q173.403 531.637 175.232 529.485 Q177.084 527.309 177.084 523.582 Q177.084 519.832 175.232 517.679 Q173.403 515.526 170.255 515.526 M179.538 500.874 L179.538 505.133 Q177.778 504.3 175.973 503.86 Q174.19 503.42 172.431 503.42 Q167.802 503.42 165.348 506.545 Q162.917 509.67 162.57 515.989 Q163.936 513.975 165.996 512.911 Q168.056 511.823 170.533 511.823 Q175.741 511.823 178.751 514.994 Q181.783 518.142 181.783 523.582 Q181.783 528.906 178.635 532.123 Q175.487 535.341 170.255 535.341 Q164.26 535.341 161.089 530.758 Q157.917 526.151 157.917 517.424 Q157.917 509.23 161.806 504.369 Q165.695 499.485 172.246 499.485 Q174.005 499.485 175.788 499.832 Q177.593 500.179 179.538 500.874 Z" fill="#000000" fill-rule="nonzero" fill-opacity="1" /><path clip-path="url(#clip730)" d="M115.51 247.799 L123.149 247.799 L123.149 221.434 L114.839 223.1 L114.839 218.841 L123.103 217.174 L127.779 217.174 L127.779 247.799 L135.417 247.799 L135.417 251.734 L115.51 251.734 L115.51 247.799 Z" fill="#000000" fill-rule="nonzero" fill-opacity="1" /><path clip-path="url(#clip730)" d="M144.862 245.855 L149.746 245.855 L149.746 251.734 L144.862 251.734 L144.862 245.855 Z" fill="#000000" fill-rule="nonzero" fill-opacity="1" /><path clip-path="url(#clip730)" d="M169.931 235.322 Q166.598 235.322 164.677 237.105 Q162.778 238.887 162.778 242.012 Q162.778 245.137 164.677 246.92 Q166.598 248.702 169.931 248.702 Q173.264 248.702 175.186 246.92 Q177.107 245.114 177.107 242.012 Q177.107 238.887 175.186 237.105 Q173.288 235.322 169.931 235.322 M165.255 233.332 Q162.246 232.591 160.556 230.531 Q158.89 228.471 158.89 225.508 Q158.89 221.364 161.829 218.957 Q164.792 216.549 169.931 216.549 Q175.093 216.549 178.033 218.957 Q180.973 221.364 180.973 225.508 Q180.973 228.471 179.283 230.531 Q177.616 232.591 174.63 233.332 Q178.01 234.119 179.885 236.41 Q181.783 238.702 181.783 242.012 Q181.783 247.035 178.704 249.72 Q175.649 252.406 169.931 252.406 Q164.214 252.406 161.135 249.72 Q158.079 247.035 158.079 242.012 Q158.079 238.702 159.978 236.41 Q161.876 234.119 165.255 233.332 M163.542 225.947 Q163.542 228.633 165.209 230.137 Q166.899 231.642 169.931 231.642 Q172.94 231.642 174.63 230.137 Q176.343 228.633 176.343 225.947 Q176.343 223.262 174.63 221.758 Q172.94 220.253 169.931 220.253 Q166.899 220.253 165.209 221.758 Q163.542 223.262 163.542 225.947 Z" fill="#000000" fill-rule="nonzero" fill-opacity="1" /><path clip-path="url(#clip730)" d="M20.1444 1028.58 L26.9239 1028.58 Q23.9002 1031.82 22.4043 1035.51 Q20.9083 1039.17 20.9083 1043.31 Q20.9083 1051.46 25.9054 1055.79 Q30.8707 1060.12 40.2919 1060.12 Q49.6813 1060.12 54.6784 1055.79 Q59.6436 1051.46 59.6436 1043.31 Q59.6436 1039.17 58.1477 1035.51 Q56.6518 1031.82 53.6281 1028.58 L60.3439 1028.58 Q62.6355 1031.95 63.7814 1035.74 Q64.9272 1039.49 64.9272 1043.69 Q64.9272 1054.48 58.3387 1060.69 Q51.7183 1066.9 40.2919 1066.9 Q28.8336 1066.9 22.2451 1060.69 Q15.6248 1054.48 15.6248 1043.69 Q15.6248 1039.43 16.7706 1035.67 Q17.8846 1031.89 20.1444 1028.58 Z" fill="#000000" fill-rule="nonzero" fill-opacity="1" /><path clip-path="url(#clip730)" d="M49.9359 1019.5 L28.3562 1019.5 L28.3562 1013.65 L49.7131 1013.65 Q54.7739 1013.65 57.3202 1011.67 Q59.8346 1009.7 59.8346 1005.75 Q59.8346 1001.01 56.8109 998.275 Q53.7872 995.506 48.5673 995.506 L28.3562 995.506 L28.3562 989.649 L64.0042 989.649 L64.0042 995.506 L58.5296 995.506 Q61.7762 997.638 63.3676 1000.47 Q64.9272 1003.27 64.9272 1007 Q64.9272 1013.14 61.1078 1016.32 Q57.2883 1019.5 49.9359 1019.5 M27.4968 1004.77 L27.4968 1004.77 Z" fill="#000000" fill-rule="nonzero" fill-opacity="1" /><path clip-path="url(#clip730)" d="M35.1993 949.832 Q31.2526 947.636 29.3747 944.58 Q27.4968 941.525 27.4968 937.387 Q27.4968 931.817 31.4117 928.793 Q35.2948 925.769 42.4881 925.769 L64.0042 925.769 L64.0042 931.658 L42.679 931.658 Q37.5546 931.658 35.072 933.472 Q32.5894 935.286 32.5894 939.01 Q32.5894 943.562 35.6131 946.203 Q38.6368 948.845 43.8567 948.845 L64.0042 948.845 L64.0042 954.733 L42.679 954.733 Q37.5228 954.733 35.072 956.548 Q32.5894 958.362 32.5894 962.149 Q32.5894 966.637 35.6449 969.279 Q38.6686 971.921 43.8567 971.921 L64.0042 971.921 L64.0042 977.809 L28.3562 977.809 L28.3562 971.921 L33.8944 971.921 Q30.616 969.916 29.0564 967.115 Q27.4968 964.314 27.4968 960.462 Q27.4968 956.579 29.4702 953.874 Q31.4436 951.137 35.1993 949.832 Z" fill="#000000" fill-rule="nonzero" fill-opacity="1" /><path clip-path="url(#clip730)" d="M35.1993 886.334 Q31.2526 884.138 29.3747 881.082 Q27.4968 878.027 27.4968 873.889 Q27.4968 868.319 31.4117 865.295 Q35.2948 862.271 42.4881 862.271 L64.0042 862.271 L64.0042 868.16 L42.679 868.16 Q37.5546 868.16 35.072 869.974 Q32.5894 871.788 32.5894 875.512 Q32.5894 880.064 35.6131 882.705 Q38.6368 885.347 43.8567 885.347 L64.0042 885.347 L64.0042 891.235 L42.679 891.235 Q37.5228 891.235 35.072 893.05 Q32.5894 894.864 32.5894 898.651 Q32.5894 903.139 35.6449 905.781 Q38.6686 908.423 43.8567 908.423 L64.0042 908.423 L64.0042 914.311 L28.3562 914.311 L28.3562 908.423 L33.8944 908.423 Q30.616 906.418 29.0564 903.617 Q27.4968 900.816 27.4968 896.965 Q27.4968 893.081 29.4702 890.376 Q31.4436 887.639 35.1993 886.334 Z" fill="#000000" fill-rule="nonzero" fill-opacity="1" /><path clip-path="url(#clip730)" d="M49.9359 851.195 L28.3562 851.195 L28.3562 845.339 L49.7131 845.339 Q54.7739 845.339 57.3202 843.365 Q59.8346 841.392 59.8346 837.445 Q59.8346 832.703 56.8109 829.966 Q53.7872 827.196 48.5673 827.196 L28.3562 827.196 L28.3562 821.34 L64.0042 821.34 L64.0042 827.196 L58.5296 827.196 Q61.7762 829.329 63.3676 832.162 Q64.9272 834.963 64.9272 838.687 Q64.9272 844.829 61.1078 848.012 Q57.2883 851.195 49.9359 851.195 M27.4968 836.459 L27.4968 836.459 Z" fill="#000000" fill-rule="nonzero" fill-opacity="1" /><path clip-path="url(#clip730)" d="M14.479 809.277 L14.479 803.421 L64.0042 803.421 L64.0042 809.277 L14.479 809.277 Z" fill="#000000" fill-rule="nonzero" fill-opacity="1" /><path clip-path="url(#clip730)" d="M46.0847 774.966 Q46.0847 782.064 47.7079 784.801 Q49.3312 787.538 53.2461 787.538 Q56.3653 787.538 58.2114 785.501 Q60.0256 783.432 60.0256 779.899 Q60.0256 775.029 56.5881 772.101 Q53.1188 769.141 47.3897 769.141 L46.0847 769.141 L46.0847 774.966 M43.6657 763.285 L64.0042 763.285 L64.0042 769.141 L58.5933 769.141 Q61.8398 771.146 63.3994 774.138 Q64.9272 777.13 64.9272 781.459 Q64.9272 786.933 61.8716 790.18 Q58.7843 793.395 53.6281 793.395 Q47.6125 793.395 44.5569 789.384 Q41.5014 785.342 41.5014 777.353 L41.5014 769.141 L40.9285 769.141 Q36.8862 769.141 34.6901 771.815 Q32.4621 774.457 32.4621 779.263 Q32.4621 782.318 33.1941 785.215 Q33.9262 788.111 35.3903 790.785 L29.9795 790.785 Q28.7381 787.57 28.1334 784.546 Q27.4968 781.522 27.4968 778.658 Q27.4968 770.924 31.5072 767.104 Q35.5176 763.285 43.6657 763.285 Z" fill="#000000" fill-rule="nonzero" fill-opacity="1" /><path clip-path="url(#clip730)" d="M18.2347 745.429 L28.3562 745.429 L28.3562 733.366 L32.9077 733.366 L32.9077 745.429 L52.2594 745.429 Q56.6199 745.429 57.8613 744.251 Q59.1026 743.042 59.1026 739.382 L59.1026 733.366 L64.0042 733.366 L64.0042 739.382 Q64.0042 746.161 61.4897 748.739 Q58.9434 751.317 52.2594 751.317 L32.9077 751.317 L32.9077 755.614 L28.3562 755.614 L28.3562 751.317 L18.2347 751.317 L18.2347 745.429 Z" fill="#000000" fill-rule="nonzero" fill-opacity="1" /><path clip-path="url(#clip730)" d="M28.3562 725.663 L28.3562 719.807 L64.0042 719.807 L64.0042 725.663 L28.3562 725.663 M14.479 725.663 L14.479 719.807 L21.895 719.807 L21.895 725.663 L14.479 725.663 Z" fill="#000000" fill-rule="nonzero" fill-opacity="1" /><path clip-path="url(#clip730)" d="M28.3562 711.754 L28.3562 705.548 L58.275 694.408 L28.3562 683.268 L28.3562 677.061 L64.0042 690.429 L64.0042 698.386 L28.3562 711.754 Z" fill="#000000" fill-rule="nonzero" fill-opacity="1" /><path clip-path="url(#clip730)" d="M44.7161 638.485 L47.5806 638.485 L47.5806 665.412 Q53.6281 665.03 56.8109 661.784 Q59.9619 658.505 59.9619 652.681 Q59.9619 649.307 59.1344 646.156 Q58.3069 642.973 56.6518 639.854 L62.1899 639.854 Q63.5267 643.005 64.227 646.315 Q64.9272 649.625 64.9272 653.031 Q64.9272 661.561 59.9619 666.558 Q54.9967 671.523 46.5303 671.523 Q37.7774 671.523 32.6531 666.812 Q27.4968 662.07 27.4968 654.049 Q27.4968 646.856 32.1438 642.686 Q36.7589 638.485 44.7161 638.485 M42.9973 644.342 Q38.1912 644.405 35.3266 647.047 Q32.4621 649.657 32.4621 653.986 Q32.4621 658.887 35.2312 661.847 Q38.0002 664.775 43.0292 665.221 L42.9973 644.342 Z" fill="#000000" fill-rule="nonzero" fill-opacity="1" /><path clip-path="url(#clip730)" d="M41.7242 585.363 Q42.4244 583.294 44.7161 581.353 Q47.0077 579.379 51.0181 577.406 L64.0042 570.881 L64.0042 577.788 L51.8138 583.867 Q47.0395 586.223 45.48 588.451 Q43.9204 590.647 43.9204 594.466 L43.9204 601.468 L64.0042 601.468 L64.0042 607.898 L16.4842 607.898 L16.4842 593.384 Q16.4842 585.236 19.8898 581.226 Q23.2955 577.215 30.1704 577.215 Q34.6582 577.215 37.6183 579.316 Q40.5784 581.385 41.7242 585.363 M21.7677 601.468 L38.6368 601.468 L38.6368 593.384 Q38.6368 588.737 36.5043 586.382 Q34.34 583.995 30.1704 583.995 Q26.0009 583.995 23.9002 586.382 Q21.7677 588.737 21.7677 593.384 L21.7677 601.468 Z" fill="#000000" fill-rule="nonzero" fill-opacity="1" /><path clip-path="url(#clip730)" d="M44.7161 535.297 L47.5806 535.297 L47.5806 562.224 Q53.6281 561.842 56.8109 558.595 Q59.9619 555.317 59.9619 549.492 Q59.9619 546.119 59.1344 542.968 Q58.3069 539.785 56.6518 536.666 L62.1899 536.666 Q63.5267 539.817 64.227 543.127 Q64.9272 546.437 64.9272 549.843 Q64.9272 558.373 59.9619 563.37 Q54.9967 568.335 46.5303 568.335 Q37.7774 568.335 32.6531 563.624 Q27.4968 558.882 27.4968 550.861 Q27.4968 543.668 32.1438 539.498 Q36.7589 535.297 44.7161 535.297 M42.9973 541.153 Q38.1912 541.217 35.3266 543.859 Q32.4621 546.469 32.4621 550.797 Q32.4621 555.699 35.2312 558.659 Q38.0002 561.587 43.0292 562.033 L42.9973 541.153 Z" fill="#000000" fill-rule="nonzero" fill-opacity="1" /><path clip-path="url(#clip730)" d="M18.2347 519.892 L28.3562 519.892 L28.3562 507.829 L32.9077 507.829 L32.9077 519.892 L52.2594 519.892 Q56.6199 519.892 57.8613 518.714 Q59.1026 517.505 59.1026 513.845 L59.1026 507.829 L64.0042 507.829 L64.0042 513.845 Q64.0042 520.624 61.4897 523.202 Q58.9434 525.78 52.2594 525.78 L32.9077 525.78 L32.9077 530.077 L28.3562 530.077 L28.3562 525.78 L18.2347 525.78 L18.2347 519.892 Z" fill="#000000" fill-rule="nonzero" fill-opacity="1" /><path clip-path="url(#clip730)" d="M49.9359 500.731 L28.3562 500.731 L28.3562 494.875 L49.7131 494.875 Q54.7739 494.875 57.3202 492.901 Q59.8346 490.928 59.8346 486.981 Q59.8346 482.239 56.8109 479.502 Q53.7872 476.732 48.5673 476.732 L28.3562 476.732 L28.3562 470.876 L64.0042 470.876 L64.0042 476.732 L58.5296 476.732 Q61.7762 478.865 63.3676 481.698 Q64.9272 484.499 64.9272 488.223 Q64.9272 494.365 61.1078 497.548 Q57.2883 500.731 49.9359 500.731 M27.4968 485.995 L27.4968 485.995 Z" fill="#000000" fill-rule="nonzero" fill-opacity="1" /><path clip-path="url(#clip730)" d="M33.8307 438.156 Q33.2578 439.143 33.0032 440.321 Q32.7167 441.466 32.7167 442.867 Q32.7167 447.832 35.9632 450.506 Q39.1779 453.148 45.2253 453.148 L64.0042 453.148 L64.0042 459.036 L28.3562 459.036 L28.3562 453.148 L33.8944 453.148 Q30.6479 451.301 29.0883 448.341 Q27.4968 445.381 27.4968 441.148 Q27.4968 440.543 27.5923 439.811 Q27.656 439.079 27.8151 438.188 L33.8307 438.156 Z" fill="#000000" fill-rule="nonzero" fill-opacity="1" /><path clip-path="url(#clip730)" d="M42.4881 403.527 L64.0042 403.527 L64.0042 409.383 L42.679 409.383 Q37.6183 409.383 35.1038 411.357 Q32.5894 413.33 32.5894 417.277 Q32.5894 422.019 35.6131 424.756 Q38.6368 427.494 43.8567 427.494 L64.0042 427.494 L64.0042 433.382 L28.3562 433.382 L28.3562 427.494 L33.8944 427.494 Q30.6797 425.393 29.0883 422.56 Q27.4968 419.696 27.4968 415.972 Q27.4968 409.829 31.3163 406.678 Q35.1038 403.527 42.4881 403.527 Z" fill="#000000" fill-rule="nonzero" fill-opacity="1" /><polyline clip-path="url(#clip732)" style="stroke:#009af9; stroke-linecap:round; stroke-linejoin:round; stroke-width:4; stroke-opacity:1; fill:none" points="278.207,1374.81 279.589,1356.08 283.736,1328.99 285.119,1316.59 286.501,1317.89 287.883,1305.73 289.266,1303.19 293.413,1332.7 294.795,1335.55 296.178,1327.09 297.56,1324.55 298.942,1318.63 304.472,1331.09 305.854,1327.23 307.237,1333.39 308.619,1320.93 312.766,1329.2 314.149,1322.68 315.531,1304.58 316.913,1302.04 318.296,1293.98 322.443,1281.87 323.825,1286.85 325.208,1287.28 326.59,1288.92 327.972,1282.47 332.119,1281.72 333.502,1276.52 334.884,1269.62 336.267,1266.93 337.649,1261.07 343.178,1258.51 344.561,1257.58 345.943,1252.52 347.326,1226.89 351.473,1226.69 352.855,1235.11 354.238,1250.02 355.62,1255.15 357.002,1249.68 361.149,1250.63 362.532,1238.74 363.914,1246.45 365.297,1245.97 366.679,1249.64 370.768,1245.01 372.151,1237.48 373.533,1230.35 374.916,1270.08 376.298,1248.98 380.445,1249.84 381.827,1249.43 383.21,1255.09 384.592,1249.15 385.975,1265.38 390.122,1261.19 391.504,1262.21 392.887,1273.61 394.269,1265.06 395.651,1259.42 399.798,1255.49 401.181,1260.12 402.563,1254.35 403.946,1243.73 405.328,1232.4 409.475,1229.02 410.857,1231.02 412.24,1224.82 413.622,1221.16 415.005,1217.75 419.152,1215.18 420.534,1216.85 421.916,1211.49 423.299,1208.21 428.828,1196.78 430.211,1194.95 431.593,1204.98 432.975,1203.22 434.358,1204.88 438.505,1202.84 439.887,1190.46 441.27,1195.88 442.652,1196.4 444.035,1173.37 448.182,1186.84 449.564,1194.85 450.946,1193.54 452.329,1194.56 453.711,1199.21 457.858,1232.26 459.241,1228.4 460.623,1220.06 462.005,1206.89 463.388,1203.56 467.535,1208.15 468.917,1193.05 470.3,1200.76 471.682,1224.86 473.064,1224.28 478.594,1247.72 479.976,1262.88 481.359,1210.6 482.741,1223.16 486.888,1210.67 488.271,1190.74 489.653,1194.66 491.035,1179.92 492.418,1166.84 496.565,1156.17 497.947,1155.17 499.33,1147 500.712,1138.9 502.094,1144.39 506.242,1143.4 507.624,1130.03 509.006,1122.99 510.389,1119.5 511.771,1128.92 515.918,1133.37 517.301,1141.95 518.683,1141.39 520.065,1135.4 521.448,1142.41 525.595,1126.89 526.977,1114.85 528.36,1103.6 531.124,1090.62 535.272,1103.42 536.654,1096.17 538.036,1084.23 539.419,1079.56 540.801,1063.57 544.948,1066.23 546.331,1051.26 547.713,1060.1 549.095,1068.07 550.478,1074.38 554.625,1089.01 556.007,1086.6 557.39,1071.95 558.772,1081.31 560.154,1055.54 564.301,1070.17 565.684,1086.74 567.066,1086.22 568.449,1088.4 569.831,1070.91 573.978,1099.63 575.36,1080.07 576.743,1078.69 578.125,1052.42 579.508,1057.75 583.655,1066.78 585.037,1060.21 586.42,1071.1 587.802,1070.57 589.184,1047.53 593.331,1024.04 594.714,1031.64 596.096,1020.54 597.479,1021.32 598.861,1041.56 603.008,1023.08 604.39,1035.01 605.773,1018.86 607.155,942.872 608.538,945.481 614.067,935.895 615.449,916.371 616.832,906.472 618.214,891.201 622.361,899.711 623.744,920.026 625.126,914.203 626.508,912.888 627.891,911.003 632.038,930.33 633.42,894.005 634.803,906.056 636.185,907.376 637.568,923.191 641.715,914.86 643.097,921.241 644.479,915.93 645.862,909.685 647.244,906.664 651.391,907.816 652.774,915.472 654.156,922.285 655.538,920.216 656.921,902.99 661.068,902.637 662.45,913.189 663.833,907.621 665.215,906.502 666.597,897.879 670.745,898.888 672.127,890.278 673.509,902.843 674.892,888.168 676.274,886.141 680.421,886.549 681.804,885.826 683.186,897.693 684.568,884.372 685.951,883.024 690.098,881.774 691.48,896.357 692.863,875.883 694.245,871.907 695.627,869.509 699.832,878.463 701.215,866.778 702.597,872.926 703.979,872.386 705.362,875.09 709.509,876.234 710.891,873.041 712.274,868.561 713.656,848.623 715.038,846.342 719.185,847.149 720.568,853.503 721.95,852.728 723.333,850.892 724.715,856.811 728.862,851.904 730.244,858.588 731.627,848.766 734.392,861.774 738.539,882.799 739.921,902.008 741.303,896.165 742.686,898.615 744.068,894.464 748.215,896.421 749.598,885.095 750.98,894.793 752.363,872.947 753.745,872.828 757.892,880.175 759.274,876.625 760.657,875.397 762.039,865.38 763.422,862.293 767.569,850.632 768.951,847.504 771.716,846.201 773.098,841.637 777.245,842.875 778.628,844.202 781.392,842.966 782.775,853.106 786.922,856.168 788.304,869.853 789.687,875.068 791.069,866.017 792.451,865.732 796.599,859.493 797.981,843.195 799.363,842.965 800.746,825.259 802.128,824.654 807.658,826.857 809.04,831.515 810.422,824.094 811.805,838.253 815.952,851.375 817.334,840.62 818.717,847.332 820.099,848.807 821.481,867.724 825.629,846.659 827.011,833.085 828.393,833.851 829.776,839.363 831.158,849.738 835.305,837.985 836.688,834.102 838.07,816.836 839.452,810.198 840.835,817.675 846.364,804.394 847.747,791.932 849.129,782.778 850.511,787.531 854.659,815.335 856.041,842.186 857.423,843.867 858.806,896.623 860.188,944.851 864.335,877.944 865.718,913.067 867.1,882.611 868.482,904.813 869.865,914.488 873.954,963.875 875.337,883.816 876.719,974.513 878.101,1136.82 879.484,1072.92 883.631,1268.75 885.013,1170.55 886.396,1334.75 887.778,1357.28 889.16,1356.35 893.308,1384.24 894.69,1213.36 896.072,1205.78 897.455,1171.97 898.837,1234.87 902.984,1203.86 904.367,1185.31 905.749,1184.32 907.131,1139.73 908.514,1148.68 912.661,1081.06 914.043,1078.29 915.426,1052.45 916.808,1006.92 922.337,1000.64 923.72,947.709 925.102,967.865 926.485,903.377 927.867,857.937 932.014,914.064 933.397,977.233 934.779,952.526 936.161,932.815 937.544,957.679 941.691,928.565 943.073,928.775 944.456,896.729 945.838,901.862 947.22,946.055 951.367,937.855 952.75,976.617 954.132,965.392 955.515,985.89 956.897,961.521 961.044,922.988 962.426,932.289 963.809,944.833 965.191,948.628 966.574,937.369 970.721,887.827 972.103,889.154 973.485,886.318 974.868,876.104 976.25,873.009 981.78,842.106 983.162,788.377 984.545,821.405 985.927,799.497 990.074,758.848 991.456,760.231 992.839,754.442 994.221,776.456 995.604,750.146 999.751,730.559 1001.13,742.413 1002.52,735.573 1003.9,811.78 1005.28,809.124 1009.43,772.906 1010.81,762.265 1012.19,773.592 1013.57,763.143 1014.96,782.324 1019.1,743.121 1020.49,769.73 1021.87,781.104 1023.25,773.944 1024.63,798.802 1028.78,782.645 1030.16,780.693 1031.55,785.383 1032.93,788.639 1038.46,800.347 1039.84,797.096 1041.22,799.965 1042.6,791.241 1043.99,796.884 1048.13,816.639 1049.52,795.195 1050.9,776.092 1052.28,789.994 1053.66,796.17 1057.81,782.691 1059.19,781.702 1060.58,764.334 1061.96,779.207 1063.34,772.759 1067.49,780.315 1068.87,791.457 1070.25,786.228 1071.63,784.875 1073.02,791.83 1077.16,773.571 1078.55,759.171 1079.93,756.763 1081.31,765.776 1082.69,747.847 1086.84,741.903 1088.22,748.129 1089.61,720.199 1090.99,720.035 1092.37,705.783 1096.52,689.899 1097.9,706.355 1099.28,699.723 1100.66,728.594 1102.05,721.552 1106.19,718.656 1107.58,714.587 1108.96,707.037 1110.34,722.556 1111.72,712.005 1115.87,710.825 1117.25,725.479 1118.64,696.468 1120.02,747.052 1121.4,759.809 1126.93,764.352 1128.31,743.846 1129.69,764.23 1131.08,749.404 1135.22,719.818 1136.61,741.848 1137.99,736.26 1139.37,738.374 1140.75,733.747 1144.9,777.648 1146.28,760.103 1147.67,785.41 1149.05,785.973 1150.43,773.587 1154.58,752.488 1155.96,750.362 1157.34,744.227 1158.72,721.225 1160.11,732.179 1164.25,716.958 1165.64,723.652 1167.02,693.556 1168.4,656.115 1169.78,654.186 1173.93,656.188 1175.31,649.573 1176.7,664.019 1178.08,657.306 1179.46,677.252 1183.61,696.748 1184.99,693.378 1186.37,684.154 1187.75,696.095 1189.14,693.42 1193.28,735.036 1194.67,718.486 1196.05,759.906 1197.43,738.963 1198.81,753.02 1203.02,733.941 1204.4,699.616 1205.78,680.454 1207.17,654.467 1208.55,638.63 1212.69,671.706 1214.08,678.693 1215.46,640.089 1216.84,593.662 1218.22,576.226 1222.37,532.825 1223.75,552.531 1225.14,564.221 1226.52,555.121 1227.9,554.494 1232.05,547.054 1233.43,529.76 1234.81,522.39 1237.58,519.848 1241.72,539.254 1243.11,527.326 1244.49,534.39 1245.87,532.846 1247.25,551.209 1251.4,534.355 1252.78,542.777 1254.17,557.754 1255.55,553.516 1256.93,568.796 1261.08,569.732 1262.46,555.221 1263.84,544.859 1265.22,541.687 1266.61,553.289 1270.75,555.491 1272.14,541.723 1273.52,558.5 1274.9,556.007 1280.43,553.143 1281.81,548.787 1283.2,542.309 1284.58,531.288 1290.11,549.774 1291.49,555.527 1292.87,497.675 1294.25,496.957 1295.64,524.275 1299.78,539.481 1301.17,523.329 1302.55,498.383 1303.93,519.784 1305.31,525.558 1310.84,536.422 1312.23,524.664 1313.61,536.882 1314.99,534.169 1319.14,526.741 1320.52,499.945 1321.9,527.97 1323.28,561.755 1324.67,594.757 1328.81,591.926 1330.2,583.965 1331.58,581.434 1332.96,572.562 1334.34,573.383 1338.49,537.244 1339.87,514.707 1341.26,525.232 1342.64,532.001 1344.02,537.204 1349.55,536.082 1350.93,532.116 1352.31,522.323 1353.7,525.838 1357.84,529.263 1359.23,566.528 1360.61,567.711 1361.99,599.036 1363.37,584.52 1367.52,560.593 1368.9,593.743 1370.29,615.233 1371.67,657.202 1373.05,641.152 1377.2,627.868 1378.58,608.428 1379.96,592.889 1381.34,568.713 1382.73,549.704 1386.82,525.163 1388.2,515.914 1389.58,542.088 1390.96,608.309 1392.35,566.47 1396.49,522.734 1397.88,513.738 1399.26,525.208 1400.64,513.517 1402.02,480.001 1406.17,489.276 1407.55,493.016 1408.93,487.868 1410.32,464.909 1415.85,427.391 1417.23,422.329 1418.61,419.083 1419.99,406.1 1421.38,394.877 1425.52,399.476 1426.91,388.149 1428.29,383.616 1429.67,380.624 1431.05,380.026 1435.2,384.909 1436.58,373.614 1437.96,373.68 1439.35,380.486 1440.73,379.497 1444.88,371.151 1446.26,362.811 1447.64,374.629 1449.02,344.152 1450.41,351.204 1454.55,335.411 1455.94,344.58 1457.32,346.607 1458.7,336.376 1460.08,319.312 1464.23,333.77 1465.61,369.105 1466.99,415.614 1468.38,401.719 1469.76,382.735 1473.91,393.634 1475.29,393.421 1476.67,423.717 1478.05,394.146 1479.44,402.093 1483.58,417.688 1484.97,423.282 1486.35,407.665 1487.73,367.909 1489.11,377.335 1494.64,377.488 1496.02,362.65 1497.41,350.785 1498.79,336.304 1502.94,326.131 1504.32,307.086 1505.7,328.97 1507.08,331.195 1508.47,312.83 1512.61,308.802 1514,301.714 1515.38,302.627 1516.76,300.351 1518.14,317.703 1522.29,311.627 1523.67,309.445 1525.05,317.463 1526.44,312.971 1527.82,314.776 1531.97,303.772 1533.35,291.528 1534.73,285.606 1536.11,271.783 1537.5,258.639 1543.03,261.037 1544.41,245.237 1545.79,264.832 1547.17,249.903 1551.32,253.616 1552.7,255.206 1554.08,247.419 1555.47,256.613 1556.85,265.895 1561,278.015 1562.38,226.883 1563.76,233.917 1565.14,228.612 1566.53,205.254 1570.67,209.152 1572.06,186.288 1573.44,201.33 1574.82,193.152 1576.2,187.761 1580.35,196.02 1581.73,197.805 1583.11,194.753 1584.5,178.464 1585.88,174.931 1590.03,200.318 1591.41,195.569 1592.79,189.91 1594.17,190.318 1595.56,180.868 1599.7,172.862 1601.09,205.071 1602.47,229.205 1603.85,231.333 1605.23,211.294 1609.38,208.796 1610.76,213.46 1612.14,188.451 1613.53,242.578 1614.91,246.703 1619.06,246.445 1620.44,259.459 1621.82,255.203 1623.2,236.8 1624.59,251.716 1630.12,273.316 1631.5,259.653 1632.88,279.53 1634.26,295.813 1638.41,287.452 1639.79,305.912 1641.17,286.945 1642.56,266.526 1643.94,255.005 1648.09,259.621 1649.47,280.89 1650.85,277.866 1652.23,265.753 1653.62,265.832 1657.76,268.124 1659.15,283.277 1660.53,288.447 1661.91,316.135 1663.29,318.253 1667.44,338.721 1668.82,339.415 1670.2,341.609 1671.59,306.37 1672.97,331.942 1677.12,339.412 1678.5,340.182 1679.88,341.554 1681.26,305.078 1682.65,296.665 1686.79,298.954 1688.18,305.225 1689.56,277.916 1690.94,263.914 1692.32,256.238 1696.47,247.457 1697.85,259.538 1699.23,267.102 1700.62,239.823 1702,246.928 1706.15,214.779 1707.53,209.635 1708.91,181.803 1710.29,171.938 1711.68,157.07 1715.88,179.312 1717.26,192.959 1718.65,196.214 1720.03,180.342 1721.41,161.044 1725.56,136.703 1726.94,115.962 1728.32,140.234 1729.7,156.659 1731.09,166.516 1735.23,172.916 1736.62,164.436 1738,170.266 1740.76,188.899 1744.91,177.483 1746.29,209.684 1747.68,218.322 1749.06,225.852 1750.44,210.928 1754.59,185.171 1755.97,165.527 1757.35,181.5 1758.73,189.949 1760.12,174.454 1764.26,172.58 1765.65,176.942 1767.03,161.395 1768.41,176.748 1769.79,201.565 1773.94,212.581 1775.32,190.215 1776.7,198.325 1778.09,170.328 1783.62,155.74 1785,145.569 1786.38,116.11 1787.76,101.767 1789.15,98.412 1793.29,102.051 1794.68,128.606 1796.06,138.693 1797.44,125.599 1798.82,129.088 1802.97,135.061 1804.35,155.079 1805.73,151.961 1807.12,169.506 1808.5,214.347 1814.03,219.626 1815.41,217.45 1816.79,281.284 1818.18,298.572 1822.32,269.663 1823.71,291.747 1825.09,326.839 1826.47,312.391 1827.85,302.356 1832,267.514 1833.38,247.734 1834.76,267.521 1836.15,276.407 1837.53,296.561 1841.68,303.277 1843.06,269.654 1844.44,251.483 1845.82,295.566 1847.21,318.023 1851.35,327.249 1852.74,325.568 1854.12,332.153 1855.5,343.878 1856.88,326.505 1862.41,380.335 1863.79,412.345 1865.18,389.396 1866.56,331.575 1870.71,329.387 1872.09,334.042 1873.47,291.58 1874.85,291.901 1876.24,277.691 1880.38,332.103 1881.77,353.598 1883.15,330.808 1884.53,331.854 1885.91,364.035 1890,369.26 1891.38,337.896 1892.77,336.743 1894.15,266.695 1895.53,219.654 1899.68,219.409 1901.06,211.313 1902.44,242.472 1903.83,235.27 1905.21,217.811 1909.36,188.932 1910.74,177.735 1912.12,181.565 1913.5,205.181 1914.89,189.138 1919.03,178.573 1920.41,184.649 1921.8,154.086 1923.18,147.837 1924.56,140.663 1928.71,160.827 1930.09,165.247 1931.47,148.124 1932.86,155.331 1938.39,154.977 1939.77,112.408 1941.15,95.6168 1942.53,134.727 1943.92,178.789 1948.06,182.845 1949.44,218.763 1950.83,227.65 1952.21,200.938 1953.59,282.192 1957.74,271.363 1959.12,267.454 1960.5,219.226 1961.89,283.182 1963.27,289.685 1967.42,325.719 1968.8,355.253 1970.18,367.02 1971.56,363.656 1972.95,333.491 1977.09,329.951 1978.47,331.722 1979.86,455.1 1981.24,460.77 1982.62,517.249 1986.77,474.526 1988.15,480.375 1989.53,471.183 1990.92,324.963 1992.3,277.686 1997.83,303.589 1999.21,333.045 2000.59,284.305 2001.98,293.14 2006.12,265.234 2007.5,256.325 2008.89,267.7 2010.27,248.194 2011.65,284.175 2015.8,354.367 2017.18,346.824 2018.56,319.24 2019.95,365.557 2021.33,367.957 2026.86,331.738 2028.24,326.662 2029.62,295.526 2031.01,245.488 2035.15,252.711 2036.53,289.676 2037.92,293.214 2039.3,295.491 2040.68,274.655 2046.21,252.983 2047.59,248.833 2048.98,227.015 2050.36,218.031 2054.51,212.298 2055.89,237.303 2057.27,233.751 2058.65,226.378 2060.03,245.912 2064.18,229.774 2065.56,205.169 2066.95,192.581 2068.33,199.167 2069.71,208.998 2073.86,208.559 2075.24,251.156 2076.62,215.067 2078.01,185.693 2079.39,161.596 2083.54,138.373 2084.92,134.669 2086.3,93.5523 2087.68,110.956 2089.06,124.757 2093.21,97.3194 2094.59,109.888 2095.98,89.864 2097.36,88.9164 2098.74,86.1857 2102.89,92.376 2104.27,86.4341 2105.65,107.822 2107.04,104.746 2108.42,101.663 2112.57,166.179 2113.95,159.752 2115.33,154.502 2116.71,166.034 2118.09,252.153 2122.24,256.211 2123.62,273.727 2125.01,284.042 2126.39,253.539 2127.77,267.162 2133.3,274.23 2134.68,216.862 2136.07,196.988 2137.45,172.574 2141.6,149.978 2142.98,208.681 2144.36,235.626 2145.74,257.424 2147.12,256.897 2151.27,238.088 2152.65,250.749 2154.04,281.205 2155.42,306.568 2156.8,304.249 2160.95,335.742 2162.33,339.732 2163.71,296.549 2165.1,348.515 2166.48,350.263 2170.63,307.134 2172.01,263.925 2173.39,291.966 2174.77,284.66 2176.15,308.615 2180.3,310.48 2181.68,292.243 2183.07,299.127 2184.45,260.042 2185.83,300.088 2189.98,286.694 2191.36,272.463 2192.74,280.913 2194.13,290.561 2195.51,261.35 2199.66,259.12 2201.04,229.364 2202.42,230.66 2203.8,239.96 2205.18,202.504 2209.33,230.987 2210.71,243.242 2212.1,272.3 2213.48,275.999 2214.86,251.301 2219.07,231.241 2220.45,223.11 2221.83,269.509 2223.21,199.137 2224.6,205.327 2228.74,215.599 2230.13,167.351 2231.51,171.353 2232.89,175.978 2234.27,157.743 2238.42,113.582 2239.8,99.7012 2241.18,94.4766 2243.95,92.2714 2248.1,129.554 2249.48,149.836 2250.86,129.755 2252.24,192.941 2253.63,173.657 2257.77,185.175 2259.16,187.254 2260.54,165.669 2261.92,166.577 2263.3,187.08 2267.45,179.269 2268.83,189.987 2270.21,180.705 2271.6,203.633 2272.98,198.052 2277.13,222.09 2278.51,228.438 2279.89,197.415 2281.27,193.961 2282.66,176.992 2288.19,191.467 2289.57,195.292 2290.95,160.06 2292.33,160.344 "/>
</svg>
