<?xml version="1.0" encoding="utf-8"?>
<svg xmlns="http://www.w3.org/2000/svg" xmlns:xlink="http://www.w3.org/1999/xlink" width="600" height="400" viewBox="0 0 2400 1600">
<defs>
  <clipPath id="clip120">
    <rect x="0" y="0" width="2400" height="1600"/>
  </clipPath>
</defs>
<path clip-path="url(#clip120)" d="M0 1600 L2400 1600 L2400 0 L0 0  Z" fill="#ffffff" fill-rule="evenodd" fill-opacity="1"/>
<defs>
  <clipPath id="clip121">
    <rect x="480" y="0" width="1681" height="1600"/>
  </clipPath>
</defs>
<path clip-path="url(#clip120)" d="M217.783 1423.18 L2352.76 1423.18 L2352.76 47.2441 L217.783 47.2441  Z" fill="#ffffff" fill-rule="evenodd" fill-opacity="1"/>
<defs>
  <clipPath id="clip122">
    <rect x="217" y="47" width="2136" height="1377"/>
  </clipPath>
</defs>
<polyline clip-path="url(#clip122)" style="stroke:#000000; stroke-linecap:round; stroke-linejoin:round; stroke-width:2; stroke-opacity:0.1; fill:none" points="274.607,1423.18 274.607,47.2441 "/>
<polyline clip-path="url(#clip122)" style="stroke:#000000; stroke-linecap:round; stroke-linejoin:round; stroke-width:2; stroke-opacity:0.1; fill:none" points="779.175,1423.18 779.175,47.2441 "/>
<polyline clip-path="url(#clip122)" style="stroke:#000000; stroke-linecap:round; stroke-linejoin:round; stroke-width:2; stroke-opacity:0.1; fill:none" points="1285.13,1423.18 1285.13,47.2441 "/>
<polyline clip-path="url(#clip122)" style="stroke:#000000; stroke-linecap:round; stroke-linejoin:round; stroke-width:2; stroke-opacity:0.1; fill:none" points="1789.69,1423.18 1789.69,47.2441 "/>
<polyline clip-path="url(#clip122)" style="stroke:#000000; stroke-linecap:round; stroke-linejoin:round; stroke-width:2; stroke-opacity:0.1; fill:none" points="2294.26,1423.18 2294.26,47.2441 "/>
<polyline clip-path="url(#clip122)" style="stroke:#000000; stroke-linecap:round; stroke-linejoin:round; stroke-width:2; stroke-opacity:0.1; fill:none" points="217.783,1378.76 2352.76,1378.76 "/>
<polyline clip-path="url(#clip122)" style="stroke:#000000; stroke-linecap:round; stroke-linejoin:round; stroke-width:2; stroke-opacity:0.1; fill:none" points="217.783,1105.14 2352.76,1105.14 "/>
<polyline clip-path="url(#clip122)" style="stroke:#000000; stroke-linecap:round; stroke-linejoin:round; stroke-width:2; stroke-opacity:0.1; fill:none" points="217.783,831.525 2352.76,831.525 "/>
<polyline clip-path="url(#clip122)" style="stroke:#000000; stroke-linecap:round; stroke-linejoin:round; stroke-width:2; stroke-opacity:0.1; fill:none" points="217.783,557.908 2352.76,557.908 "/>
<polyline clip-path="url(#clip122)" style="stroke:#000000; stroke-linecap:round; stroke-linejoin:round; stroke-width:2; stroke-opacity:0.1; fill:none" points="217.783,284.29 2352.76,284.29 "/>
<polyline clip-path="url(#clip120)" style="stroke:#000000; stroke-linecap:round; stroke-linejoin:round; stroke-width:4; stroke-opacity:1; fill:none" points="217.783,1423.18 2352.76,1423.18 "/>
<polyline clip-path="url(#clip120)" style="stroke:#000000; stroke-linecap:round; stroke-linejoin:round; stroke-width:4; stroke-opacity:1; fill:none" points="274.607,1423.18 274.607,1404.28 "/>
<polyline clip-path="url(#clip120)" style="stroke:#000000; stroke-linecap:round; stroke-linejoin:round; stroke-width:4; stroke-opacity:1; fill:none" points="779.175,1423.18 779.175,1404.28 "/>
<polyline clip-path="url(#clip120)" style="stroke:#000000; stroke-linecap:round; stroke-linejoin:round; stroke-width:4; stroke-opacity:1; fill:none" points="1285.13,1423.18 1285.13,1404.28 "/>
<polyline clip-path="url(#clip120)" style="stroke:#000000; stroke-linecap:round; stroke-linejoin:round; stroke-width:4; stroke-opacity:1; fill:none" points="1789.69,1423.18 1789.69,1404.28 "/>
<polyline clip-path="url(#clip120)" style="stroke:#000000; stroke-linecap:round; stroke-linejoin:round; stroke-width:4; stroke-opacity:1; fill:none" points="2294.26,1423.18 2294.26,1404.28 "/>
<path clip-path="url(#clip120)" d="M146.401 1481.64 L162.721 1481.64 L162.721 1485.58 L140.776 1485.58 L140.776 1481.64 Q143.438 1478.89 148.022 1474.26 Q152.628 1469.61 153.809 1468.27 Q156.054 1465.74 156.934 1464.01 Q157.837 1462.25 157.837 1460.56 Q157.837 1457.8 155.892 1456.07 Q153.971 1454.33 150.869 1454.33 Q148.67 1454.33 146.216 1455.09 Q143.786 1455.86 141.008 1457.41 L141.008 1452.69 Q143.832 1451.55 146.286 1450.97 Q148.739 1450.39 150.776 1450.39 Q156.147 1450.39 159.341 1453.08 Q162.536 1455.77 162.536 1460.26 Q162.536 1462.39 161.725 1464.31 Q160.938 1466.2 158.832 1468.8 Q158.253 1469.47 155.151 1472.69 Q152.05 1475.88 146.401 1481.64 Z" fill="#000000" fill-rule="nonzero" fill-opacity="1" /><path clip-path="url(#clip120)" d="M182.535 1454.1 Q178.924 1454.1 177.096 1457.66 Q175.29 1461.2 175.29 1468.33 Q175.29 1475.44 177.096 1479.01 Q178.924 1482.55 182.535 1482.55 Q186.17 1482.55 187.975 1479.01 Q189.804 1475.44 189.804 1468.33 Q189.804 1461.2 187.975 1457.66 Q186.17 1454.1 182.535 1454.1 M182.535 1450.39 Q188.346 1450.39 191.401 1455 Q194.48 1459.58 194.48 1468.33 Q194.48 1477.06 191.401 1481.67 Q188.346 1486.25 182.535 1486.25 Q176.725 1486.25 173.647 1481.67 Q170.591 1477.06 170.591 1468.33 Q170.591 1459.58 173.647 1455 Q176.725 1450.39 182.535 1450.39 Z" fill="#000000" fill-rule="nonzero" fill-opacity="1" /><path clip-path="url(#clip120)" d="M203.508 1481.64 L211.146 1481.64 L211.146 1455.28 L202.836 1456.95 L202.836 1452.69 L211.1 1451.02 L215.776 1451.02 L215.776 1481.64 L223.415 1481.64 L223.415 1485.58 L203.508 1485.58 L203.508 1481.64 Z" fill="#000000" fill-rule="nonzero" fill-opacity="1" /><path clip-path="url(#clip120)" d="M232.998 1484.86 L232.998 1480.6 Q234.757 1481.44 236.563 1481.88 Q238.369 1482.32 240.105 1482.32 Q244.734 1482.32 247.165 1479.21 Q249.618 1476.09 249.966 1469.75 Q248.623 1471.74 246.563 1472.8 Q244.503 1473.87 242.003 1473.87 Q236.818 1473.87 233.785 1470.74 Q230.776 1467.59 230.776 1462.15 Q230.776 1456.83 233.924 1453.61 Q237.072 1450.39 242.304 1450.39 Q248.299 1450.39 251.447 1455 Q254.618 1459.58 254.618 1468.33 Q254.618 1476.51 250.73 1481.39 Q246.864 1486.25 240.313 1486.25 Q238.554 1486.25 236.748 1485.9 Q234.943 1485.56 232.998 1484.86 M242.304 1470.21 Q245.452 1470.21 247.281 1468.06 Q249.132 1465.9 249.132 1462.15 Q249.132 1458.43 247.281 1456.27 Q245.452 1454.1 242.304 1454.1 Q239.156 1454.1 237.304 1456.27 Q235.475 1458.43 235.475 1462.15 Q235.475 1465.9 237.304 1468.06 Q239.156 1470.21 242.304 1470.21 Z" fill="#000000" fill-rule="nonzero" fill-opacity="1" /><path clip-path="url(#clip120)" d="M260.267 1470.7 L272.743 1470.7 L272.743 1474.49 L260.267 1474.49 L260.267 1470.7 Z" fill="#000000" fill-rule="nonzero" fill-opacity="1" /><path clip-path="url(#clip120)" d="M290.128 1454.1 Q286.516 1454.1 284.688 1457.66 Q282.882 1461.2 282.882 1468.33 Q282.882 1475.44 284.688 1479.01 Q286.516 1482.55 290.128 1482.55 Q293.762 1482.55 295.567 1479.01 Q297.396 1475.44 297.396 1468.33 Q297.396 1461.2 295.567 1457.66 Q293.762 1454.1 290.128 1454.1 M290.128 1450.39 Q295.938 1450.39 298.993 1455 Q302.072 1459.58 302.072 1468.33 Q302.072 1477.06 298.993 1481.67 Q295.938 1486.25 290.128 1486.25 Q284.317 1486.25 281.239 1481.67 Q278.183 1477.06 278.183 1468.33 Q278.183 1459.58 281.239 1455 Q284.317 1450.39 290.128 1450.39 Z" fill="#000000" fill-rule="nonzero" fill-opacity="1" /><path clip-path="url(#clip120)" d="M311.1 1481.64 L318.738 1481.64 L318.738 1455.28 L310.428 1456.95 L310.428 1452.69 L318.692 1451.02 L323.368 1451.02 L323.368 1481.64 L331.007 1481.64 L331.007 1485.58 L311.1 1485.58 L311.1 1481.64 Z" fill="#000000" fill-rule="nonzero" fill-opacity="1" /><path clip-path="url(#clip120)" d="M337.697 1470.7 L350.173 1470.7 L350.173 1474.49 L337.697 1474.49 L337.697 1470.7 Z" fill="#000000" fill-rule="nonzero" fill-opacity="1" /><path clip-path="url(#clip120)" d="M367.558 1454.1 Q363.947 1454.1 362.118 1457.66 Q360.312 1461.2 360.312 1468.33 Q360.312 1475.44 362.118 1479.01 Q363.947 1482.55 367.558 1482.55 Q371.192 1482.55 372.997 1479.01 Q374.826 1475.44 374.826 1468.33 Q374.826 1461.2 372.997 1457.66 Q371.192 1454.1 367.558 1454.1 M367.558 1450.39 Q373.368 1450.39 376.423 1455 Q379.502 1459.58 379.502 1468.33 Q379.502 1477.06 376.423 1481.67 Q373.368 1486.25 367.558 1486.25 Q361.747 1486.25 358.669 1481.67 Q355.613 1477.06 355.613 1468.33 Q355.613 1459.58 358.669 1455 Q361.747 1450.39 367.558 1450.39 Z" fill="#000000" fill-rule="nonzero" fill-opacity="1" /><path clip-path="url(#clip120)" d="M388.53 1481.64 L396.169 1481.64 L396.169 1455.28 L387.858 1456.95 L387.858 1452.69 L396.122 1451.02 L400.798 1451.02 L400.798 1481.64 L408.437 1481.64 L408.437 1485.58 L388.53 1485.58 L388.53 1481.64 Z" fill="#000000" fill-rule="nonzero" fill-opacity="1" /><path clip-path="url(#clip120)" d="M650.97 1481.64 L667.289 1481.64 L667.289 1485.58 L645.345 1485.58 L645.345 1481.64 Q648.007 1478.89 652.59 1474.26 Q657.196 1469.61 658.377 1468.27 Q660.622 1465.74 661.502 1464.01 Q662.405 1462.25 662.405 1460.56 Q662.405 1457.8 660.46 1456.07 Q658.539 1454.33 655.437 1454.33 Q653.238 1454.33 650.784 1455.09 Q648.354 1455.86 645.576 1457.41 L645.576 1452.69 Q648.4 1451.55 650.854 1450.97 Q653.308 1450.39 655.345 1450.39 Q660.715 1450.39 663.909 1453.08 Q667.104 1455.77 667.104 1460.26 Q667.104 1462.39 666.294 1464.31 Q665.507 1466.2 663.4 1468.8 Q662.821 1469.47 659.72 1472.69 Q656.618 1475.88 650.97 1481.64 Z" fill="#000000" fill-rule="nonzero" fill-opacity="1" /><path clip-path="url(#clip120)" d="M687.104 1454.1 Q683.493 1454.1 681.664 1457.66 Q679.858 1461.2 679.858 1468.33 Q679.858 1475.44 681.664 1479.01 Q683.493 1482.55 687.104 1482.55 Q690.738 1482.55 692.543 1479.01 Q694.372 1475.44 694.372 1468.33 Q694.372 1461.2 692.543 1457.66 Q690.738 1454.1 687.104 1454.1 M687.104 1450.39 Q692.914 1450.39 695.969 1455 Q699.048 1459.58 699.048 1468.33 Q699.048 1477.06 695.969 1481.67 Q692.914 1486.25 687.104 1486.25 Q681.293 1486.25 678.215 1481.67 Q675.159 1477.06 675.159 1468.33 Q675.159 1459.58 678.215 1455 Q681.293 1450.39 687.104 1450.39 Z" fill="#000000" fill-rule="nonzero" fill-opacity="1" /><path clip-path="url(#clip120)" d="M711.293 1481.64 L727.613 1481.64 L727.613 1485.58 L705.668 1485.58 L705.668 1481.64 Q708.33 1478.89 712.914 1474.26 Q717.52 1469.61 718.701 1468.27 Q720.946 1465.74 721.826 1464.01 Q722.728 1462.25 722.728 1460.56 Q722.728 1457.8 720.784 1456.07 Q718.863 1454.33 715.761 1454.33 Q713.562 1454.33 711.108 1455.09 Q708.678 1455.86 705.9 1457.41 L705.9 1452.69 Q708.724 1451.55 711.178 1450.97 Q713.631 1450.39 715.668 1450.39 Q721.039 1450.39 724.233 1453.08 Q727.427 1455.77 727.427 1460.26 Q727.427 1462.39 726.617 1464.31 Q725.83 1466.2 723.724 1468.8 Q723.145 1469.47 720.043 1472.69 Q716.941 1475.88 711.293 1481.64 Z" fill="#000000" fill-rule="nonzero" fill-opacity="1" /><path clip-path="url(#clip120)" d="M747.427 1454.1 Q743.816 1454.1 741.988 1457.66 Q740.182 1461.2 740.182 1468.33 Q740.182 1475.44 741.988 1479.01 Q743.816 1482.55 747.427 1482.55 Q751.062 1482.55 752.867 1479.01 Q754.696 1475.44 754.696 1468.33 Q754.696 1461.2 752.867 1457.66 Q751.062 1454.1 747.427 1454.1 M747.427 1450.39 Q753.238 1450.39 756.293 1455 Q759.372 1459.58 759.372 1468.33 Q759.372 1477.06 756.293 1481.67 Q753.238 1486.25 747.427 1486.25 Q741.617 1486.25 738.539 1481.67 Q735.483 1477.06 735.483 1468.33 Q735.483 1459.58 738.539 1455 Q741.617 1450.39 747.427 1450.39 Z" fill="#000000" fill-rule="nonzero" fill-opacity="1" /><path clip-path="url(#clip120)" d="M764.835 1470.7 L777.311 1470.7 L777.311 1474.49 L764.835 1474.49 L764.835 1470.7 Z" fill="#000000" fill-rule="nonzero" fill-opacity="1" /><path clip-path="url(#clip120)" d="M794.696 1454.1 Q791.085 1454.1 789.256 1457.66 Q787.45 1461.2 787.45 1468.33 Q787.45 1475.44 789.256 1479.01 Q791.085 1482.55 794.696 1482.55 Q798.33 1482.55 800.135 1479.01 Q801.964 1475.44 801.964 1468.33 Q801.964 1461.2 800.135 1457.66 Q798.33 1454.1 794.696 1454.1 M794.696 1450.39 Q800.506 1450.39 803.561 1455 Q806.64 1459.58 806.64 1468.33 Q806.64 1477.06 803.561 1481.67 Q800.506 1486.25 794.696 1486.25 Q788.886 1486.25 785.807 1481.67 Q782.751 1477.06 782.751 1468.33 Q782.751 1459.58 785.807 1455 Q788.886 1450.39 794.696 1450.39 Z" fill="#000000" fill-rule="nonzero" fill-opacity="1" /><path clip-path="url(#clip120)" d="M815.668 1481.64 L823.307 1481.64 L823.307 1455.28 L814.996 1456.95 L814.996 1452.69 L823.26 1451.02 L827.936 1451.02 L827.936 1481.64 L835.575 1481.64 L835.575 1485.58 L815.668 1485.58 L815.668 1481.64 Z" fill="#000000" fill-rule="nonzero" fill-opacity="1" /><path clip-path="url(#clip120)" d="M842.265 1470.7 L854.742 1470.7 L854.742 1474.49 L842.265 1474.49 L842.265 1470.7 Z" fill="#000000" fill-rule="nonzero" fill-opacity="1" /><path clip-path="url(#clip120)" d="M872.126 1454.1 Q868.515 1454.1 866.686 1457.66 Q864.88 1461.2 864.88 1468.33 Q864.88 1475.44 866.686 1479.01 Q868.515 1482.55 872.126 1482.55 Q875.76 1482.55 877.566 1479.01 Q879.394 1475.44 879.394 1468.33 Q879.394 1461.2 877.566 1457.66 Q875.76 1454.1 872.126 1454.1 M872.126 1450.39 Q877.936 1450.39 880.991 1455 Q884.07 1459.58 884.07 1468.33 Q884.07 1477.06 880.991 1481.67 Q877.936 1486.25 872.126 1486.25 Q866.316 1486.25 863.237 1481.67 Q860.181 1477.06 860.181 1468.33 Q860.181 1459.58 863.237 1455 Q866.316 1450.39 872.126 1450.39 Z" fill="#000000" fill-rule="nonzero" fill-opacity="1" /><path clip-path="url(#clip120)" d="M893.098 1481.64 L900.737 1481.64 L900.737 1455.28 L892.427 1456.95 L892.427 1452.69 L900.69 1451.02 L905.366 1451.02 L905.366 1481.64 L913.005 1481.64 L913.005 1485.58 L893.098 1485.58 L893.098 1481.64 Z" fill="#000000" fill-rule="nonzero" fill-opacity="1" /><path clip-path="url(#clip120)" d="M1156.92 1481.64 L1173.24 1481.64 L1173.24 1485.58 L1151.3 1485.58 L1151.3 1481.64 Q1153.96 1478.89 1158.54 1474.26 Q1163.15 1469.61 1164.33 1468.27 Q1166.57 1465.74 1167.45 1464.01 Q1168.36 1462.25 1168.36 1460.56 Q1168.36 1457.8 1166.41 1456.07 Q1164.49 1454.33 1161.39 1454.33 Q1159.19 1454.33 1156.73 1455.09 Q1154.3 1455.86 1151.53 1457.41 L1151.53 1452.69 Q1154.35 1451.55 1156.8 1450.97 Q1159.26 1450.39 1161.3 1450.39 Q1166.67 1450.39 1169.86 1453.08 Q1173.05 1455.77 1173.05 1460.26 Q1173.05 1462.39 1172.24 1464.31 Q1171.46 1466.2 1169.35 1468.8 Q1168.77 1469.47 1165.67 1472.69 Q1162.57 1475.88 1156.92 1481.64 Z" fill="#000000" fill-rule="nonzero" fill-opacity="1" /><path clip-path="url(#clip120)" d="M1193.05 1454.1 Q1189.44 1454.1 1187.61 1457.66 Q1185.81 1461.2 1185.81 1468.33 Q1185.81 1475.44 1187.61 1479.01 Q1189.44 1482.55 1193.05 1482.55 Q1196.69 1482.55 1198.49 1479.01 Q1200.32 1475.44 1200.32 1468.33 Q1200.32 1461.2 1198.49 1457.66 Q1196.69 1454.1 1193.05 1454.1 M1193.05 1450.39 Q1198.86 1450.39 1201.92 1455 Q1205 1459.58 1205 1468.33 Q1205 1477.06 1201.92 1481.67 Q1198.86 1486.25 1193.05 1486.25 Q1187.24 1486.25 1184.17 1481.67 Q1181.11 1477.06 1181.11 1468.33 Q1181.11 1459.58 1184.17 1455 Q1187.24 1450.39 1193.05 1450.39 Z" fill="#000000" fill-rule="nonzero" fill-opacity="1" /><path clip-path="url(#clip120)" d="M1217.24 1481.64 L1233.56 1481.64 L1233.56 1485.58 L1211.62 1485.58 L1211.62 1481.64 Q1214.28 1478.89 1218.86 1474.26 Q1223.47 1469.61 1224.65 1468.27 Q1226.9 1465.74 1227.78 1464.01 Q1228.68 1462.25 1228.68 1460.56 Q1228.68 1457.8 1226.73 1456.07 Q1224.81 1454.33 1221.71 1454.33 Q1219.51 1454.33 1217.06 1455.09 Q1214.63 1455.86 1211.85 1457.41 L1211.85 1452.69 Q1214.67 1451.55 1217.13 1450.97 Q1219.58 1450.39 1221.62 1450.39 Q1226.99 1450.39 1230.18 1453.08 Q1233.38 1455.77 1233.38 1460.26 Q1233.38 1462.39 1232.57 1464.31 Q1231.78 1466.2 1229.67 1468.8 Q1229.1 1469.47 1225.99 1472.69 Q1222.89 1475.88 1217.24 1481.64 Z" fill="#000000" fill-rule="nonzero" fill-opacity="1" /><path clip-path="url(#clip120)" d="M1244.19 1481.64 L1251.83 1481.64 L1251.83 1455.28 L1243.52 1456.95 L1243.52 1452.69 L1251.78 1451.02 L1256.46 1451.02 L1256.46 1481.64 L1264.1 1481.64 L1264.1 1485.58 L1244.19 1485.58 L1244.19 1481.64 Z" fill="#000000" fill-rule="nonzero" fill-opacity="1" /><path clip-path="url(#clip120)" d="M1270.79 1470.7 L1283.26 1470.7 L1283.26 1474.49 L1270.79 1474.49 L1270.79 1470.7 Z" fill="#000000" fill-rule="nonzero" fill-opacity="1" /><path clip-path="url(#clip120)" d="M1300.65 1454.1 Q1297.04 1454.1 1295.21 1457.66 Q1293.4 1461.2 1293.4 1468.33 Q1293.4 1475.44 1295.21 1479.01 Q1297.04 1482.55 1300.65 1482.55 Q1304.28 1482.55 1306.09 1479.01 Q1307.91 1475.44 1307.91 1468.33 Q1307.91 1461.2 1306.09 1457.66 Q1304.28 1454.1 1300.65 1454.1 M1300.65 1450.39 Q1306.46 1450.39 1309.51 1455 Q1312.59 1459.58 1312.59 1468.33 Q1312.59 1477.06 1309.51 1481.67 Q1306.46 1486.25 1300.65 1486.25 Q1294.84 1486.25 1291.76 1481.67 Q1288.7 1477.06 1288.7 1468.33 Q1288.7 1459.58 1291.76 1455 Q1294.84 1450.39 1300.65 1450.39 Z" fill="#000000" fill-rule="nonzero" fill-opacity="1" /><path clip-path="url(#clip120)" d="M1321.62 1481.64 L1329.26 1481.64 L1329.26 1455.28 L1320.95 1456.95 L1320.95 1452.69 L1329.21 1451.02 L1333.89 1451.02 L1333.89 1481.64 L1341.53 1481.64 L1341.53 1485.58 L1321.62 1485.58 L1321.62 1481.64 Z" fill="#000000" fill-rule="nonzero" fill-opacity="1" /><path clip-path="url(#clip120)" d="M1348.22 1470.7 L1360.69 1470.7 L1360.69 1474.49 L1348.22 1474.49 L1348.22 1470.7 Z" fill="#000000" fill-rule="nonzero" fill-opacity="1" /><path clip-path="url(#clip120)" d="M1378.08 1454.1 Q1374.47 1454.1 1372.64 1457.66 Q1370.83 1461.2 1370.83 1468.33 Q1370.83 1475.44 1372.64 1479.01 Q1374.47 1482.55 1378.08 1482.55 Q1381.71 1482.55 1383.52 1479.01 Q1385.34 1475.44 1385.34 1468.33 Q1385.34 1461.2 1383.52 1457.66 Q1381.71 1454.1 1378.08 1454.1 M1378.08 1450.39 Q1383.89 1450.39 1386.94 1455 Q1390.02 1459.58 1390.02 1468.33 Q1390.02 1477.06 1386.94 1481.67 Q1383.89 1486.25 1378.08 1486.25 Q1372.27 1486.25 1369.19 1481.67 Q1366.13 1477.06 1366.13 1468.33 Q1366.13 1459.58 1369.19 1455 Q1372.27 1450.39 1378.08 1450.39 Z" fill="#000000" fill-rule="nonzero" fill-opacity="1" /><path clip-path="url(#clip120)" d="M1399.05 1481.64 L1406.69 1481.64 L1406.69 1455.28 L1398.38 1456.95 L1398.38 1452.69 L1406.64 1451.02 L1411.32 1451.02 L1411.32 1481.64 L1418.96 1481.64 L1418.96 1485.58 L1399.05 1485.58 L1399.05 1481.64 Z" fill="#000000" fill-rule="nonzero" fill-opacity="1" /><path clip-path="url(#clip120)" d="M1661.49 1481.64 L1677.81 1481.64 L1677.81 1485.58 L1655.86 1485.58 L1655.86 1481.64 Q1658.53 1478.89 1663.11 1474.26 Q1667.72 1469.61 1668.9 1468.27 Q1671.14 1465.74 1672.02 1464.01 Q1672.92 1462.25 1672.92 1460.56 Q1672.92 1457.8 1670.98 1456.07 Q1669.06 1454.33 1665.96 1454.33 Q1663.76 1454.33 1661.3 1455.09 Q1658.87 1455.86 1656.09 1457.41 L1656.09 1452.69 Q1658.92 1451.55 1661.37 1450.97 Q1663.83 1450.39 1665.86 1450.39 Q1671.23 1450.39 1674.43 1453.08 Q1677.62 1455.77 1677.62 1460.26 Q1677.62 1462.39 1676.81 1464.31 Q1676.03 1466.2 1673.92 1468.8 Q1673.34 1469.47 1670.24 1472.69 Q1667.14 1475.88 1661.49 1481.64 Z" fill="#000000" fill-rule="nonzero" fill-opacity="1" /><path clip-path="url(#clip120)" d="M1697.62 1454.1 Q1694.01 1454.1 1692.18 1457.66 Q1690.38 1461.2 1690.38 1468.33 Q1690.38 1475.44 1692.18 1479.01 Q1694.01 1482.55 1697.62 1482.55 Q1701.26 1482.55 1703.06 1479.01 Q1704.89 1475.44 1704.89 1468.33 Q1704.89 1461.2 1703.06 1457.66 Q1701.26 1454.1 1697.62 1454.1 M1697.62 1450.39 Q1703.43 1450.39 1706.49 1455 Q1709.57 1459.58 1709.57 1468.33 Q1709.57 1477.06 1706.49 1481.67 Q1703.43 1486.25 1697.62 1486.25 Q1691.81 1486.25 1688.73 1481.67 Q1685.68 1477.06 1685.68 1468.33 Q1685.68 1459.58 1688.73 1455 Q1691.81 1450.39 1697.62 1450.39 Z" fill="#000000" fill-rule="nonzero" fill-opacity="1" /><path clip-path="url(#clip120)" d="M1721.81 1481.64 L1738.13 1481.64 L1738.13 1485.58 L1716.19 1485.58 L1716.19 1481.64 Q1718.85 1478.89 1723.43 1474.26 Q1728.04 1469.61 1729.22 1468.27 Q1731.46 1465.74 1732.34 1464.01 Q1733.25 1462.25 1733.25 1460.56 Q1733.25 1457.8 1731.3 1456.07 Q1729.38 1454.33 1726.28 1454.33 Q1724.08 1454.33 1721.63 1455.09 Q1719.2 1455.86 1716.42 1457.41 L1716.42 1452.69 Q1719.24 1451.55 1721.7 1450.97 Q1724.15 1450.39 1726.19 1450.39 Q1731.56 1450.39 1734.75 1453.08 Q1737.95 1455.77 1737.95 1460.26 Q1737.95 1462.39 1737.14 1464.31 Q1736.35 1466.2 1734.24 1468.8 Q1733.66 1469.47 1730.56 1472.69 Q1727.46 1475.88 1721.81 1481.64 Z" fill="#000000" fill-rule="nonzero" fill-opacity="1" /><path clip-path="url(#clip120)" d="M1751.97 1481.64 L1768.29 1481.64 L1768.29 1485.58 L1746.35 1485.58 L1746.35 1481.64 Q1749.01 1478.89 1753.59 1474.26 Q1758.2 1469.61 1759.38 1468.27 Q1761.63 1465.74 1762.51 1464.01 Q1763.41 1462.25 1763.41 1460.56 Q1763.41 1457.8 1761.46 1456.07 Q1759.54 1454.33 1756.44 1454.33 Q1754.24 1454.33 1751.79 1455.09 Q1749.36 1455.86 1746.58 1457.41 L1746.58 1452.69 Q1749.4 1451.55 1751.86 1450.97 Q1754.31 1450.39 1756.35 1450.39 Q1761.72 1450.39 1764.91 1453.08 Q1768.11 1455.77 1768.11 1460.26 Q1768.11 1462.39 1767.3 1464.31 Q1766.51 1466.2 1764.4 1468.8 Q1763.83 1469.47 1760.72 1472.69 Q1757.62 1475.88 1751.97 1481.64 Z" fill="#000000" fill-rule="nonzero" fill-opacity="1" /><path clip-path="url(#clip120)" d="M1775.35 1470.7 L1787.83 1470.7 L1787.83 1474.49 L1775.35 1474.49 L1775.35 1470.7 Z" fill="#000000" fill-rule="nonzero" fill-opacity="1" /><path clip-path="url(#clip120)" d="M1805.21 1454.1 Q1801.6 1454.1 1799.77 1457.66 Q1797.97 1461.2 1797.97 1468.33 Q1797.97 1475.44 1799.77 1479.01 Q1801.6 1482.55 1805.21 1482.55 Q1808.85 1482.55 1810.65 1479.01 Q1812.48 1475.44 1812.48 1468.33 Q1812.48 1461.2 1810.65 1457.66 Q1808.85 1454.1 1805.21 1454.1 M1805.21 1450.39 Q1811.02 1450.39 1814.08 1455 Q1817.16 1459.58 1817.16 1468.33 Q1817.16 1477.06 1814.08 1481.67 Q1811.02 1486.25 1805.21 1486.25 Q1799.4 1486.25 1796.33 1481.67 Q1793.27 1477.06 1793.27 1468.33 Q1793.27 1459.58 1796.33 1455 Q1799.4 1450.39 1805.21 1450.39 Z" fill="#000000" fill-rule="nonzero" fill-opacity="1" /><path clip-path="url(#clip120)" d="M1826.19 1481.64 L1833.83 1481.64 L1833.83 1455.28 L1825.52 1456.95 L1825.52 1452.69 L1833.78 1451.02 L1838.45 1451.02 L1838.45 1481.64 L1846.09 1481.64 L1846.09 1485.58 L1826.19 1485.58 L1826.19 1481.64 Z" fill="#000000" fill-rule="nonzero" fill-opacity="1" /><path clip-path="url(#clip120)" d="M1852.78 1470.7 L1865.26 1470.7 L1865.26 1474.49 L1852.78 1474.49 L1852.78 1470.7 Z" fill="#000000" fill-rule="nonzero" fill-opacity="1" /><path clip-path="url(#clip120)" d="M1882.64 1454.1 Q1879.03 1454.1 1877.2 1457.66 Q1875.4 1461.2 1875.4 1468.33 Q1875.4 1475.44 1877.2 1479.01 Q1879.03 1482.55 1882.64 1482.55 Q1886.28 1482.55 1888.08 1479.01 Q1889.91 1475.44 1889.91 1468.33 Q1889.91 1461.2 1888.08 1457.66 Q1886.28 1454.1 1882.64 1454.1 M1882.64 1450.39 Q1888.45 1450.39 1891.51 1455 Q1894.59 1459.58 1894.59 1468.33 Q1894.59 1477.06 1891.51 1481.67 Q1888.45 1486.25 1882.64 1486.25 Q1876.83 1486.25 1873.76 1481.67 Q1870.7 1477.06 1870.7 1468.33 Q1870.7 1459.58 1873.76 1455 Q1876.83 1450.39 1882.64 1450.39 Z" fill="#000000" fill-rule="nonzero" fill-opacity="1" /><path clip-path="url(#clip120)" d="M1903.62 1481.64 L1911.26 1481.64 L1911.26 1455.28 L1902.95 1456.95 L1902.95 1452.69 L1911.21 1451.02 L1915.89 1451.02 L1915.89 1481.64 L1923.52 1481.64 L1923.52 1485.58 L1903.62 1485.58 L1903.62 1481.64 Z" fill="#000000" fill-rule="nonzero" fill-opacity="1" /><path clip-path="url(#clip120)" d="M2166.06 1481.64 L2182.38 1481.64 L2182.38 1485.58 L2160.43 1485.58 L2160.43 1481.64 Q2163.09 1478.89 2167.68 1474.26 Q2172.28 1469.61 2173.46 1468.27 Q2175.71 1465.74 2176.59 1464.01 Q2177.49 1462.25 2177.49 1460.56 Q2177.49 1457.8 2175.55 1456.07 Q2173.63 1454.33 2170.52 1454.33 Q2168.32 1454.33 2165.87 1455.09 Q2163.44 1455.86 2160.66 1457.41 L2160.66 1452.69 Q2163.49 1451.55 2165.94 1450.97 Q2168.39 1450.39 2170.43 1450.39 Q2175.8 1450.39 2179 1453.08 Q2182.19 1455.77 2182.19 1460.26 Q2182.19 1462.39 2181.38 1464.31 Q2180.59 1466.2 2178.49 1468.8 Q2177.91 1469.47 2174.81 1472.69 Q2171.7 1475.88 2166.06 1481.64 Z" fill="#000000" fill-rule="nonzero" fill-opacity="1" /><path clip-path="url(#clip120)" d="M2202.19 1454.1 Q2198.58 1454.1 2196.75 1457.66 Q2194.95 1461.2 2194.95 1468.33 Q2194.95 1475.44 2196.75 1479.01 Q2198.58 1482.55 2202.19 1482.55 Q2205.82 1482.55 2207.63 1479.01 Q2209.46 1475.44 2209.46 1468.33 Q2209.46 1461.2 2207.63 1457.66 Q2205.82 1454.1 2202.19 1454.1 M2202.19 1450.39 Q2208 1450.39 2211.06 1455 Q2214.13 1459.58 2214.13 1468.33 Q2214.13 1477.06 2211.06 1481.67 Q2208 1486.25 2202.19 1486.25 Q2196.38 1486.25 2193.3 1481.67 Q2190.25 1477.06 2190.25 1468.33 Q2190.25 1459.58 2193.3 1455 Q2196.38 1450.39 2202.19 1450.39 Z" fill="#000000" fill-rule="nonzero" fill-opacity="1" /><path clip-path="url(#clip120)" d="M2226.38 1481.64 L2242.7 1481.64 L2242.7 1485.58 L2220.76 1485.58 L2220.76 1481.64 Q2223.42 1478.89 2228 1474.26 Q2232.61 1469.61 2233.79 1468.27 Q2236.03 1465.74 2236.91 1464.01 Q2237.82 1462.25 2237.82 1460.56 Q2237.82 1457.8 2235.87 1456.07 Q2233.95 1454.33 2230.85 1454.33 Q2228.65 1454.33 2226.19 1455.09 Q2223.76 1455.86 2220.99 1457.41 L2220.99 1452.69 Q2223.81 1451.55 2226.26 1450.97 Q2228.72 1450.39 2230.76 1450.39 Q2236.13 1450.39 2239.32 1453.08 Q2242.51 1455.77 2242.51 1460.26 Q2242.51 1462.39 2241.7 1464.31 Q2240.92 1466.2 2238.81 1468.8 Q2238.23 1469.47 2235.13 1472.69 Q2232.03 1475.88 2226.38 1481.64 Z" fill="#000000" fill-rule="nonzero" fill-opacity="1" /><path clip-path="url(#clip120)" d="M2266.68 1466.95 Q2270.04 1467.66 2271.91 1469.93 Q2273.81 1472.2 2273.81 1475.53 Q2273.81 1480.65 2270.29 1483.45 Q2266.77 1486.25 2260.29 1486.25 Q2258.12 1486.25 2255.8 1485.81 Q2253.51 1485.39 2251.06 1484.54 L2251.06 1480.02 Q2253 1481.16 2255.32 1481.74 Q2257.63 1482.32 2260.15 1482.32 Q2264.55 1482.32 2266.84 1480.58 Q2269.16 1478.84 2269.16 1475.53 Q2269.16 1472.48 2267 1470.77 Q2264.88 1469.03 2261.06 1469.03 L2257.03 1469.03 L2257.03 1465.19 L2261.24 1465.19 Q2264.69 1465.19 2266.52 1463.82 Q2268.35 1462.43 2268.35 1459.84 Q2268.35 1457.18 2266.45 1455.77 Q2264.57 1454.33 2261.06 1454.33 Q2259.13 1454.33 2256.94 1454.75 Q2254.74 1455.16 2252.1 1456.04 L2252.1 1451.88 Q2254.76 1451.14 2257.07 1450.77 Q2259.41 1450.39 2261.47 1450.39 Q2266.8 1450.39 2269.9 1452.83 Q2273 1455.23 2273 1459.35 Q2273 1462.22 2271.36 1464.21 Q2269.71 1466.18 2266.68 1466.95 Z" fill="#000000" fill-rule="nonzero" fill-opacity="1" /><path clip-path="url(#clip120)" d="M2279.92 1470.7 L2292.4 1470.7 L2292.4 1474.49 L2279.92 1474.49 L2279.92 1470.7 Z" fill="#000000" fill-rule="nonzero" fill-opacity="1" /><path clip-path="url(#clip120)" d="M2309.78 1454.1 Q2306.17 1454.1 2304.34 1457.66 Q2302.54 1461.2 2302.54 1468.33 Q2302.54 1475.44 2304.34 1479.01 Q2306.17 1482.55 2309.78 1482.55 Q2313.42 1482.55 2315.22 1479.01 Q2317.05 1475.44 2317.05 1468.33 Q2317.05 1461.2 2315.22 1457.66 Q2313.42 1454.1 2309.78 1454.1 M2309.78 1450.39 Q2315.59 1450.39 2318.65 1455 Q2321.73 1459.58 2321.73 1468.33 Q2321.73 1477.06 2318.65 1481.67 Q2315.59 1486.25 2309.78 1486.25 Q2303.97 1486.25 2300.89 1481.67 Q2297.84 1477.06 2297.84 1468.33 Q2297.84 1459.58 2300.89 1455 Q2303.97 1450.39 2309.78 1450.39 Z" fill="#000000" fill-rule="nonzero" fill-opacity="1" /><path clip-path="url(#clip120)" d="M2330.75 1481.64 L2338.39 1481.64 L2338.39 1455.28 L2330.08 1456.95 L2330.08 1452.69 L2338.35 1451.02 L2343.02 1451.02 L2343.02 1481.64 L2350.66 1481.64 L2350.66 1485.58 L2330.75 1485.58 L2330.75 1481.64 Z" fill="#000000" fill-rule="nonzero" fill-opacity="1" /><path clip-path="url(#clip120)" d="M2357.35 1470.7 L2369.83 1470.7 L2369.83 1474.49 L2357.35 1474.49 L2357.35 1470.7 Z" fill="#000000" fill-rule="nonzero" fill-opacity="1" /><path clip-path="url(#clip120)" d="M2387.21 1454.1 Q2383.6 1454.1 2381.77 1457.66 Q2379.97 1461.2 2379.97 1468.33 Q2379.97 1475.44 2381.77 1479.01 Q2383.6 1482.55 2387.21 1482.55 Q2390.85 1482.55 2392.65 1479.01 Q2394.48 1475.44 2394.48 1468.33 Q2394.48 1461.2 2392.65 1457.66 Q2390.85 1454.1 2387.21 1454.1 M2387.21 1450.39 Q2393.02 1450.39 2396.08 1455 Q2399.16 1459.58 2399.16 1468.33 Q2399.16 1477.06 2396.08 1481.67 Q2393.02 1486.25 2387.21 1486.25 Q2381.4 1486.25 2378.32 1481.67 Q2375.27 1477.06 2375.27 1468.33 Q2375.27 1459.58 2378.32 1455 Q2381.4 1450.39 2387.21 1450.39 Z" fill="#000000" fill-rule="nonzero" fill-opacity="1" /><path clip-path="url(#clip120)" d="M2408.18 1481.64 L2415.82 1481.64 L2415.82 1455.28 L2407.51 1456.95 L2407.51 1452.69 L2415.78 1451.02 L2420.45 1451.02 L2420.45 1481.64 L2428.09 1481.64 L2428.09 1485.58 L2408.18 1485.58 L2408.18 1481.64 Z" fill="#000000" fill-rule="nonzero" fill-opacity="1" /><path clip-path="url(#clip120)" d="M1218.73 1525.81 L1218.73 1562.76 L1226.5 1562.76 Q1236.33 1562.76 1240.88 1558.3 Q1245.47 1553.85 1245.47 1544.24 Q1245.47 1534.69 1240.88 1530.26 Q1236.33 1525.81 1226.5 1525.81 L1218.73 1525.81 M1212.3 1520.52 L1225.51 1520.52 Q1239.32 1520.52 1245.79 1526.28 Q1252.25 1532.01 1252.25 1544.24 Q1252.25 1556.52 1245.75 1562.28 Q1239.26 1568.04 1225.51 1568.04 L1212.3 1568.04 L1212.3 1520.52 Z" fill="#000000" fill-rule="nonzero" fill-opacity="1" /><path clip-path="url(#clip120)" d="M1278.44 1550.12 Q1271.34 1550.12 1268.61 1551.75 Q1265.87 1553.37 1265.87 1557.29 Q1265.87 1560.4 1267.91 1562.25 Q1269.98 1564.07 1273.51 1564.07 Q1278.38 1564.07 1281.31 1560.63 Q1284.27 1557.16 1284.27 1551.43 L1284.27 1550.12 L1278.44 1550.12 M1290.12 1547.71 L1290.12 1568.04 L1284.27 1568.04 L1284.27 1562.63 Q1282.26 1565.88 1279.27 1567.44 Q1276.28 1568.97 1271.95 1568.97 Q1266.47 1568.97 1263.23 1565.91 Q1260.01 1562.82 1260.01 1557.67 Q1260.01 1551.65 1264.02 1548.6 Q1268.07 1545.54 1276.06 1545.54 L1284.27 1545.54 L1284.27 1544.97 Q1284.27 1540.93 1281.59 1538.73 Q1278.95 1536.5 1274.15 1536.5 Q1271.09 1536.5 1268.19 1537.23 Q1265.3 1537.97 1262.62 1539.43 L1262.62 1534.02 Q1265.84 1532.78 1268.86 1532.17 Q1271.89 1531.54 1274.75 1531.54 Q1282.48 1531.54 1286.3 1535.55 Q1290.12 1539.56 1290.12 1547.71 Z" fill="#000000" fill-rule="nonzero" fill-opacity="1" /><path clip-path="url(#clip120)" d="M1307.98 1522.27 L1307.98 1532.4 L1320.04 1532.4 L1320.04 1536.95 L1307.98 1536.95 L1307.98 1556.3 Q1307.98 1560.66 1309.16 1561.9 Q1310.37 1563.14 1314.03 1563.14 L1320.04 1563.14 L1320.04 1568.04 L1314.03 1568.04 Q1307.25 1568.04 1304.67 1565.53 Q1302.09 1562.98 1302.09 1556.3 L1302.09 1536.95 L1297.79 1536.95 L1297.79 1532.4 L1302.09 1532.4 L1302.09 1522.27 L1307.98 1522.27 Z" fill="#000000" fill-rule="nonzero" fill-opacity="1" /><path clip-path="url(#clip120)" d="M1358.24 1548.76 L1358.24 1551.62 L1331.31 1551.62 Q1331.69 1557.67 1334.94 1560.85 Q1338.22 1564 1344.04 1564 Q1347.41 1564 1350.57 1563.17 Q1353.75 1562.35 1356.87 1560.69 L1356.87 1566.23 Q1353.72 1567.57 1350.41 1568.27 Q1347.1 1568.97 1343.69 1568.97 Q1335.16 1568.97 1330.16 1564 Q1325.2 1559.04 1325.2 1550.57 Q1325.2 1541.82 1329.91 1536.69 Q1334.65 1531.54 1342.67 1531.54 Q1349.87 1531.54 1354.03 1536.18 Q1358.24 1540.8 1358.24 1548.76 M1352.38 1547.04 Q1352.32 1542.23 1349.67 1539.37 Q1347.06 1536.5 1342.74 1536.5 Q1337.83 1536.5 1334.87 1539.27 Q1331.95 1542.04 1331.5 1547.07 L1352.38 1547.04 Z" fill="#000000" fill-rule="nonzero" fill-opacity="1" /><polyline clip-path="url(#clip120)" style="stroke:#000000; stroke-linecap:round; stroke-linejoin:round; stroke-width:4; stroke-opacity:1; fill:none" points="217.783,1423.18 217.783,47.2441 "/>
<polyline clip-path="url(#clip120)" style="stroke:#000000; stroke-linecap:round; stroke-linejoin:round; stroke-width:4; stroke-opacity:1; fill:none" points="217.783,1378.76 236.681,1378.76 "/>
<polyline clip-path="url(#clip120)" style="stroke:#000000; stroke-linecap:round; stroke-linejoin:round; stroke-width:4; stroke-opacity:1; fill:none" points="217.783,1105.14 236.681,1105.14 "/>
<polyline clip-path="url(#clip120)" style="stroke:#000000; stroke-linecap:round; stroke-linejoin:round; stroke-width:4; stroke-opacity:1; fill:none" points="217.783,831.525 236.681,831.525 "/>
<polyline clip-path="url(#clip120)" style="stroke:#000000; stroke-linecap:round; stroke-linejoin:round; stroke-width:4; stroke-opacity:1; fill:none" points="217.783,557.908 236.681,557.908 "/>
<polyline clip-path="url(#clip120)" style="stroke:#000000; stroke-linecap:round; stroke-linejoin:round; stroke-width:4; stroke-opacity:1; fill:none" points="217.783,284.29 236.681,284.29 "/>
<path clip-path="url(#clip120)" d="M115.418 1392.1 L123.056 1392.1 L123.056 1365.74 L114.746 1367.41 L114.746 1363.15 L123.01 1361.48 L127.686 1361.48 L127.686 1392.1 L135.325 1392.1 L135.325 1396.04 L115.418 1396.04 L115.418 1392.1 Z" fill="#000000" fill-rule="nonzero" fill-opacity="1" /><path clip-path="url(#clip120)" d="M144.769 1390.16 L149.653 1390.16 L149.653 1396.04 L144.769 1396.04 L144.769 1390.16 Z" fill="#000000" fill-rule="nonzero" fill-opacity="1" /><path clip-path="url(#clip120)" d="M169.839 1364.56 Q166.227 1364.56 164.399 1368.12 Q162.593 1371.67 162.593 1378.79 Q162.593 1385.9 164.399 1389.47 Q166.227 1393.01 169.839 1393.01 Q173.473 1393.01 175.278 1389.47 Q177.107 1385.9 177.107 1378.79 Q177.107 1371.67 175.278 1368.12 Q173.473 1364.56 169.839 1364.56 M169.839 1360.86 Q175.649 1360.86 178.704 1365.46 Q181.783 1370.04 181.783 1378.79 Q181.783 1387.52 178.704 1392.13 Q175.649 1396.71 169.839 1396.71 Q164.028 1396.71 160.95 1392.13 Q157.894 1387.52 157.894 1378.79 Q157.894 1370.04 160.95 1365.46 Q164.028 1360.86 169.839 1360.86 Z" fill="#000000" fill-rule="nonzero" fill-opacity="1" /><path clip-path="url(#clip120)" d="M117.015 1118.49 L124.654 1118.49 L124.654 1092.12 L116.343 1093.79 L116.343 1089.53 L124.607 1087.86 L129.283 1087.86 L129.283 1118.49 L136.922 1118.49 L136.922 1122.42 L117.015 1122.42 L117.015 1118.49 Z" fill="#000000" fill-rule="nonzero" fill-opacity="1" /><path clip-path="url(#clip120)" d="M146.366 1116.54 L151.251 1116.54 L151.251 1122.42 L146.366 1122.42 L146.366 1116.54 Z" fill="#000000" fill-rule="nonzero" fill-opacity="1" /><path clip-path="url(#clip120)" d="M165.464 1118.49 L181.783 1118.49 L181.783 1122.42 L159.839 1122.42 L159.839 1118.49 Q162.501 1115.73 167.084 1111.1 Q171.69 1106.45 172.871 1105.11 Q175.116 1102.58 175.996 1100.85 Q176.899 1099.09 176.899 1097.4 Q176.899 1094.64 174.954 1092.91 Q173.033 1091.17 169.931 1091.17 Q167.732 1091.17 165.278 1091.94 Q162.848 1092.7 160.07 1094.25 L160.07 1089.53 Q162.894 1088.39 165.348 1087.82 Q167.802 1087.24 169.839 1087.24 Q175.209 1087.24 178.403 1089.92 Q181.598 1092.61 181.598 1097.1 Q181.598 1099.23 180.788 1101.15 Q180.001 1103.05 177.894 1105.64 Q177.315 1106.31 174.214 1109.53 Q171.112 1112.72 165.464 1118.49 Z" fill="#000000" fill-rule="nonzero" fill-opacity="1" /><path clip-path="url(#clip120)" d="M114.931 844.87 L122.57 844.87 L122.57 818.504 L114.26 820.171 L114.26 815.912 L122.524 814.245 L127.2 814.245 L127.2 844.87 L134.839 844.87 L134.839 848.805 L114.931 848.805 L114.931 844.87 Z" fill="#000000" fill-rule="nonzero" fill-opacity="1" /><path clip-path="url(#clip120)" d="M144.283 842.925 L149.167 842.925 L149.167 848.805 L144.283 848.805 L144.283 842.925 Z" fill="#000000" fill-rule="nonzero" fill-opacity="1" /><path clip-path="url(#clip120)" d="M172.2 818.319 L160.394 836.768 L172.2 836.768 L172.2 818.319 M170.973 814.245 L176.852 814.245 L176.852 836.768 L181.783 836.768 L181.783 840.657 L176.852 840.657 L176.852 848.805 L172.2 848.805 L172.2 840.657 L156.598 840.657 L156.598 836.143 L170.973 814.245 Z" fill="#000000" fill-rule="nonzero" fill-opacity="1" /><path clip-path="url(#clip120)" d="M115.256 571.252 L122.894 571.252 L122.894 544.887 L114.584 546.553 L114.584 542.294 L122.848 540.628 L127.524 540.628 L127.524 571.252 L135.163 571.252 L135.163 575.188 L115.256 575.188 L115.256 571.252 Z" fill="#000000" fill-rule="nonzero" fill-opacity="1" /><path clip-path="url(#clip120)" d="M144.607 569.308 L149.491 569.308 L149.491 575.188 L144.607 575.188 L144.607 569.308 Z" fill="#000000" fill-rule="nonzero" fill-opacity="1" /><path clip-path="url(#clip120)" d="M170.255 556.044 Q167.107 556.044 165.255 558.197 Q163.427 560.35 163.427 564.1 Q163.427 567.826 165.255 570.002 Q167.107 572.155 170.255 572.155 Q173.403 572.155 175.232 570.002 Q177.084 567.826 177.084 564.1 Q177.084 560.35 175.232 558.197 Q173.403 556.044 170.255 556.044 M179.538 541.391 L179.538 545.651 Q177.778 544.817 175.973 544.378 Q174.19 543.938 172.431 543.938 Q167.802 543.938 165.348 547.063 Q162.917 550.188 162.57 556.507 Q163.936 554.493 165.996 553.428 Q168.056 552.34 170.533 552.34 Q175.741 552.34 178.751 555.512 Q181.783 558.66 181.783 564.1 Q181.783 569.424 178.635 572.641 Q175.487 575.859 170.255 575.859 Q164.26 575.859 161.089 571.276 Q157.917 566.669 157.917 557.942 Q157.917 549.748 161.806 544.887 Q165.695 540.003 172.246 540.003 Q174.005 540.003 175.788 540.35 Q177.593 540.697 179.538 541.391 Z" fill="#000000" fill-rule="nonzero" fill-opacity="1" /><path clip-path="url(#clip120)" d="M115.51 297.635 L123.149 297.635 L123.149 271.269 L114.839 272.936 L114.839 268.677 L123.103 267.01 L127.779 267.01 L127.779 297.635 L135.417 297.635 L135.417 301.57 L115.51 301.57 L115.51 297.635 Z" fill="#000000" fill-rule="nonzero" fill-opacity="1" /><path clip-path="url(#clip120)" d="M144.862 295.69 L149.746 295.69 L149.746 301.57 L144.862 301.57 L144.862 295.69 Z" fill="#000000" fill-rule="nonzero" fill-opacity="1" /><path clip-path="url(#clip120)" d="M169.931 285.158 Q166.598 285.158 164.677 286.94 Q162.778 288.723 162.778 291.848 Q162.778 294.973 164.677 296.755 Q166.598 298.538 169.931 298.538 Q173.264 298.538 175.186 296.755 Q177.107 294.95 177.107 291.848 Q177.107 288.723 175.186 286.94 Q173.288 285.158 169.931 285.158 M165.255 283.167 Q162.246 282.427 160.556 280.366 Q158.89 278.306 158.89 275.343 Q158.89 271.2 161.829 268.792 Q164.792 266.385 169.931 266.385 Q175.093 266.385 178.033 268.792 Q180.973 271.2 180.973 275.343 Q180.973 278.306 179.283 280.366 Q177.616 282.427 174.63 283.167 Q178.01 283.954 179.885 286.246 Q181.783 288.538 181.783 291.848 Q181.783 296.871 178.704 299.556 Q175.649 302.241 169.931 302.241 Q164.214 302.241 161.135 299.556 Q158.079 296.871 158.079 291.848 Q158.079 288.538 159.978 286.246 Q161.876 283.954 165.255 283.167 M163.542 275.783 Q163.542 278.468 165.209 279.973 Q166.899 281.478 169.931 281.478 Q172.94 281.478 174.63 279.973 Q176.343 278.468 176.343 275.783 Q176.343 273.098 174.63 271.593 Q172.94 270.089 169.931 270.089 Q166.899 270.089 165.209 271.593 Q163.542 273.098 163.542 275.783 Z" fill="#000000" fill-rule="nonzero" fill-opacity="1" /><path clip-path="url(#clip120)" d="M20.1444 1028.58 L26.9239 1028.58 Q23.9002 1031.82 22.4043 1035.51 Q20.9083 1039.17 20.9083 1043.31 Q20.9083 1051.46 25.9054 1055.79 Q30.8707 1060.12 40.2919 1060.12 Q49.6813 1060.12 54.6784 1055.79 Q59.6436 1051.46 59.6436 1043.31 Q59.6436 1039.17 58.1477 1035.51 Q56.6518 1031.82 53.6281 1028.58 L60.3439 1028.58 Q62.6355 1031.95 63.7814 1035.74 Q64.9272 1039.49 64.9272 1043.69 Q64.9272 1054.48 58.3387 1060.69 Q51.7183 1066.9 40.2919 1066.9 Q28.8336 1066.9 22.2451 1060.69 Q15.6248 1054.48 15.6248 1043.69 Q15.6248 1039.43 16.7706 1035.67 Q17.8846 1031.89 20.1444 1028.58 Z" fill="#000000" fill-rule="nonzero" fill-opacity="1" /><path clip-path="url(#clip120)" d="M49.9359 1019.5 L28.3562 1019.5 L28.3562 1013.65 L49.7131 1013.65 Q54.7739 1013.65 57.3202 1011.67 Q59.8346 1009.7 59.8346 1005.75 Q59.8346 1001.01 56.8109 998.275 Q53.7872 995.506 48.5673 995.506 L28.3562 995.506 L28.3562 989.649 L64.0042 989.649 L64.0042 995.506 L58.5296 995.506 Q61.7762 997.638 63.3676 1000.47 Q64.9272 1003.27 64.9272 1007 Q64.9272 1013.14 61.1078 1016.32 Q57.2883 1019.5 49.9359 1019.5 M27.4968 1004.77 L27.4968 1004.77 Z" fill="#000000" fill-rule="nonzero" fill-opacity="1" /><path clip-path="url(#clip120)" d="M35.1993 949.832 Q31.2526 947.636 29.3747 944.58 Q27.4968 941.525 27.4968 937.387 Q27.4968 931.817 31.4117 928.793 Q35.2948 925.769 42.4881 925.769 L64.0042 925.769 L64.0042 931.658 L42.679 931.658 Q37.5546 931.658 35.072 933.472 Q32.5894 935.286 32.5894 939.01 Q32.5894 943.562 35.6131 946.203 Q38.6368 948.845 43.8567 948.845 L64.0042 948.845 L64.0042 954.733 L42.679 954.733 Q37.5228 954.733 35.072 956.548 Q32.5894 958.362 32.5894 962.149 Q32.5894 966.637 35.6449 969.279 Q38.6686 971.921 43.8567 971.921 L64.0042 971.921 L64.0042 977.809 L28.3562 977.809 L28.3562 971.921 L33.8944 971.921 Q30.616 969.916 29.0564 967.115 Q27.4968 964.314 27.4968 960.462 Q27.4968 956.579 29.4702 953.874 Q31.4436 951.137 35.1993 949.832 Z" fill="#000000" fill-rule="nonzero" fill-opacity="1" /><path clip-path="url(#clip120)" d="M35.1993 886.334 Q31.2526 884.138 29.3747 881.082 Q27.4968 878.027 27.4968 873.889 Q27.4968 868.319 31.4117 865.295 Q35.2948 862.271 42.4881 862.271 L64.0042 862.271 L64.0042 868.16 L42.679 868.16 Q37.5546 868.16 35.072 869.974 Q32.5894 871.788 32.5894 875.512 Q32.5894 880.064 35.6131 882.705 Q38.6368 885.347 43.8567 885.347 L64.0042 885.347 L64.0042 891.235 L42.679 891.235 Q37.5228 891.235 35.072 893.05 Q32.5894 894.864 32.5894 898.651 Q32.5894 903.139 35.6449 905.781 Q38.6686 908.423 43.8567 908.423 L64.0042 908.423 L64.0042 914.311 L28.3562 914.311 L28.3562 908.423 L33.8944 908.423 Q30.616 906.418 29.0564 903.617 Q27.4968 900.816 27.4968 896.965 Q27.4968 893.081 29.4702 890.376 Q31.4436 887.639 35.1993 886.334 Z" fill="#000000" fill-rule="nonzero" fill-opacity="1" /><path clip-path="url(#clip120)" d="M49.9359 851.195 L28.3562 851.195 L28.3562 845.339 L49.7131 845.339 Q54.7739 845.339 57.3202 843.365 Q59.8346 841.392 59.8346 837.445 Q59.8346 832.703 56.8109 829.966 Q53.7872 827.196 48.5673 827.196 L28.3562 827.196 L28.3562 821.34 L64.0042 821.34 L64.0042 827.196 L58.5296 827.196 Q61.7762 829.329 63.3676 832.162 Q64.9272 834.963 64.9272 838.687 Q64.9272 844.829 61.1078 848.012 Q57.2883 851.195 49.9359 851.195 M27.4968 836.459 L27.4968 836.459 Z" fill="#000000" fill-rule="nonzero" fill-opacity="1" /><path clip-path="url(#clip120)" d="M14.479 809.277 L14.479 803.421 L64.0042 803.421 L64.0042 809.277 L14.479 809.277 Z" fill="#000000" fill-rule="nonzero" fill-opacity="1" /><path clip-path="url(#clip120)" d="M46.0847 774.966 Q46.0847 782.064 47.7079 784.801 Q49.3312 787.538 53.2461 787.538 Q56.3653 787.538 58.2114 785.501 Q60.0256 783.432 60.0256 779.899 Q60.0256 775.029 56.5881 772.101 Q53.1188 769.141 47.3897 769.141 L46.0847 769.141 L46.0847 774.966 M43.6657 763.285 L64.0042 763.285 L64.0042 769.141 L58.5933 769.141 Q61.8398 771.146 63.3994 774.138 Q64.9272 777.13 64.9272 781.459 Q64.9272 786.933 61.8716 790.18 Q58.7843 793.395 53.6281 793.395 Q47.6125 793.395 44.5569 789.384 Q41.5014 785.342 41.5014 777.353 L41.5014 769.141 L40.9285 769.141 Q36.8862 769.141 34.6901 771.815 Q32.4621 774.457 32.4621 779.263 Q32.4621 782.318 33.1941 785.215 Q33.9262 788.111 35.3903 790.785 L29.9795 790.785 Q28.7381 787.57 28.1334 784.546 Q27.4968 781.522 27.4968 778.658 Q27.4968 770.924 31.5072 767.104 Q35.5176 763.285 43.6657 763.285 Z" fill="#000000" fill-rule="nonzero" fill-opacity="1" /><path clip-path="url(#clip120)" d="M18.2347 745.429 L28.3562 745.429 L28.3562 733.366 L32.9077 733.366 L32.9077 745.429 L52.2594 745.429 Q56.6199 745.429 57.8613 744.251 Q59.1026 743.042 59.1026 739.382 L59.1026 733.366 L64.0042 733.366 L64.0042 739.382 Q64.0042 746.161 61.4897 748.739 Q58.9434 751.317 52.2594 751.317 L32.9077 751.317 L32.9077 755.614 L28.3562 755.614 L28.3562 751.317 L18.2347 751.317 L18.2347 745.429 Z" fill="#000000" fill-rule="nonzero" fill-opacity="1" /><path clip-path="url(#clip120)" d="M28.3562 725.663 L28.3562 719.807 L64.0042 719.807 L64.0042 725.663 L28.3562 725.663 M14.479 725.663 L14.479 719.807 L21.895 719.807 L21.895 725.663 L14.479 725.663 Z" fill="#000000" fill-rule="nonzero" fill-opacity="1" /><path clip-path="url(#clip120)" d="M28.3562 711.754 L28.3562 705.548 L58.275 694.408 L28.3562 683.268 L28.3562 677.061 L64.0042 690.429 L64.0042 698.386 L28.3562 711.754 Z" fill="#000000" fill-rule="nonzero" fill-opacity="1" /><path clip-path="url(#clip120)" d="M44.7161 638.485 L47.5806 638.485 L47.5806 665.412 Q53.6281 665.03 56.8109 661.784 Q59.9619 658.505 59.9619 652.681 Q59.9619 649.307 59.1344 646.156 Q58.3069 642.973 56.6518 639.854 L62.1899 639.854 Q63.5267 643.005 64.227 646.315 Q64.9272 649.625 64.9272 653.031 Q64.9272 661.561 59.9619 666.558 Q54.9967 671.523 46.5303 671.523 Q37.7774 671.523 32.6531 666.812 Q27.4968 662.07 27.4968 654.049 Q27.4968 646.856 32.1438 642.686 Q36.7589 638.485 44.7161 638.485 M42.9973 644.342 Q38.1912 644.405 35.3266 647.047 Q32.4621 649.657 32.4621 653.986 Q32.4621 658.887 35.2312 661.847 Q38.0002 664.775 43.0292 665.221 L42.9973 644.342 Z" fill="#000000" fill-rule="nonzero" fill-opacity="1" /><path clip-path="url(#clip120)" d="M41.7242 585.363 Q42.4244 583.294 44.7161 581.353 Q47.0077 579.379 51.0181 577.406 L64.0042 570.881 L64.0042 577.788 L51.8138 583.867 Q47.0395 586.223 45.48 588.451 Q43.9204 590.647 43.9204 594.466 L43.9204 601.468 L64.0042 601.468 L64.0042 607.898 L16.4842 607.898 L16.4842 593.384 Q16.4842 585.236 19.8898 581.226 Q23.2955 577.215 30.1704 577.215 Q34.6582 577.215 37.6183 579.316 Q40.5784 581.385 41.7242 585.363 M21.7677 601.468 L38.6368 601.468 L38.6368 593.384 Q38.6368 588.737 36.5043 586.382 Q34.34 583.995 30.1704 583.995 Q26.0009 583.995 23.9002 586.382 Q21.7677 588.737 21.7677 593.384 L21.7677 601.468 Z" fill="#000000" fill-rule="nonzero" fill-opacity="1" /><path clip-path="url(#clip120)" d="M44.7161 535.297 L47.5806 535.297 L47.5806 562.224 Q53.6281 561.842 56.8109 558.595 Q59.9619 555.317 59.9619 549.492 Q59.9619 546.119 59.1344 542.968 Q58.3069 539.785 56.6518 536.666 L62.1899 536.666 Q63.5267 539.817 64.227 543.127 Q64.9272 546.437 64.9272 549.843 Q64.9272 558.373 59.9619 563.37 Q54.9967 568.335 46.5303 568.335 Q37.7774 568.335 32.6531 563.624 Q27.4968 558.882 27.4968 550.861 Q27.4968 543.668 32.1438 539.498 Q36.7589 535.297 44.7161 535.297 M42.9973 541.153 Q38.1912 541.217 35.3266 543.859 Q32.4621 546.469 32.4621 550.797 Q32.4621 555.699 35.2312 558.659 Q38.0002 561.587 43.0292 562.033 L42.9973 541.153 Z" fill="#000000" fill-rule="nonzero" fill-opacity="1" /><path clip-path="url(#clip120)" d="M18.2347 519.892 L28.3562 519.892 L28.3562 507.829 L32.9077 507.829 L32.9077 519.892 L52.2594 519.892 Q56.6199 519.892 57.8613 518.714 Q59.1026 517.505 59.1026 513.845 L59.1026 507.829 L64.0042 507.829 L64.0042 513.845 Q64.0042 520.624 61.4897 523.202 Q58.9434 525.78 52.2594 525.78 L32.9077 525.78 L32.9077 530.077 L28.3562 530.077 L28.3562 525.78 L18.2347 525.78 L18.2347 519.892 Z" fill="#000000" fill-rule="nonzero" fill-opacity="1" /><path clip-path="url(#clip120)" d="M49.9359 500.731 L28.3562 500.731 L28.3562 494.875 L49.7131 494.875 Q54.7739 494.875 57.3202 492.901 Q59.8346 490.928 59.8346 486.981 Q59.8346 482.239 56.8109 479.502 Q53.7872 476.732 48.5673 476.732 L28.3562 476.732 L28.3562 470.876 L64.0042 470.876 L64.0042 476.732 L58.5296 476.732 Q61.7762 478.865 63.3676 481.698 Q64.9272 484.499 64.9272 488.223 Q64.9272 494.365 61.1078 497.548 Q57.2883 500.731 49.9359 500.731 M27.4968 485.995 L27.4968 485.995 Z" fill="#000000" fill-rule="nonzero" fill-opacity="1" /><path clip-path="url(#clip120)" d="M33.8307 438.156 Q33.2578 439.143 33.0032 440.321 Q32.7167 441.466 32.7167 442.867 Q32.7167 447.832 35.9632 450.506 Q39.1779 453.148 45.2253 453.148 L64.0042 453.148 L64.0042 459.036 L28.3562 459.036 L28.3562 453.148 L33.8944 453.148 Q30.6479 451.301 29.0883 448.341 Q27.4968 445.381 27.4968 441.148 Q27.4968 440.543 27.5923 439.811 Q27.656 439.079 27.8151 438.188 L33.8307 438.156 Z" fill="#000000" fill-rule="nonzero" fill-opacity="1" /><path clip-path="url(#clip120)" d="M42.4881 403.527 L64.0042 403.527 L64.0042 409.383 L42.679 409.383 Q37.6183 409.383 35.1038 411.357 Q32.5894 413.33 32.5894 417.277 Q32.5894 422.019 35.6131 424.756 Q38.6368 427.494 43.8567 427.494 L64.0042 427.494 L64.0042 433.382 L28.3562 433.382 L28.3562 427.494 L33.8944 427.494 Q30.6797 425.393 29.0883 422.56 Q27.4968 419.696 27.4968 415.972 Q27.4968 409.829 31.3163 406.678 Q35.1038 403.527 42.4881 403.527 Z" fill="#000000" fill-rule="nonzero" fill-opacity="1" /><polyline clip-path="url(#clip122)" style="stroke:#009af9; stroke-linecap:round; stroke-linejoin:round; stroke-width:4; stroke-opacity:1; fill:none" points="278.207,1384.24 279.589,1369.15 283.736,1339.65 285.119,1327.49 286.501,1325.56 287.883,1313.53 289.266,1310.88 293.413,1340.8 294.795,1345.16 296.178,1337.71 297.56,1334.07 298.942,1329.42 304.472,1337.76 305.854,1333.29 307.237,1341.87 308.619,1333.01 312.766,1339.24 314.149,1331.46 315.531,1316.33 316.913,1313.75 318.296,1309.27 322.443,1296.86 323.825,1300.98 325.208,1300.7 326.59,1299.25 327.972,1295.81 332.119,1292.81 333.502,1288.27 334.884,1280.45 336.267,1278.53 337.649,1273.17 343.178,1270.57 344.561,1270.22 345.943,1266.24 347.326,1244.45 351.473,1244.8 352.855,1251.28 354.238,1264.85 355.62,1269.72 357.002,1263.25 361.149,1265.58 362.532,1253.16 363.914,1260.79 365.297,1259.85 366.679,1264.61 370.768,1262.12 372.151,1255.69 373.533,1247.05 374.916,1295.09 376.298,1273.42 380.445,1270.6 381.827,1269.43 383.21,1272.9 384.592,1269.49 385.975,1281.33 390.122,1275.76 391.504,1276.63 392.887,1285.61 394.269,1277.29 395.651,1273.93 399.798,1273.8 401.181,1279.41 402.563,1275.3 403.946,1262.71 405.328,1249.07 409.475,1246.94 410.857,1249.71 412.24,1244.49 413.622,1240.87 415.005,1237.92 419.152,1233.12 420.534,1236.12 421.916,1230.14 423.299,1228.41 428.828,1216.73 430.211,1213.72 431.593,1215.82 432.975,1213.08 434.358,1215.05 438.505,1214.51 439.887,1205.65 441.27,1214.64 442.652,1212.87 444.035,1193.9 448.182,1206.63 449.564,1214.9 450.946,1214.41 452.329,1212.54 453.711,1217.68 457.858,1248.11 459.241,1247.54 460.623,1239.76 462.005,1225.83 463.388,1222.26 467.535,1226.41 468.917,1211.44 470.3,1215.19 471.682,1237.6 473.064,1235.56 478.594,1259.14 479.976,1276.11 481.359,1216.71 482.741,1225.31 486.888,1211.6 488.271,1194.16 489.653,1195.7 491.035,1180.37 492.418,1165.01 496.565,1154.26 497.947,1153.2 499.33,1143.83 500.712,1138.06 502.094,1142.73 506.242,1142.13 507.624,1131.67 509.006,1122.53 510.389,1119.48 511.771,1126.69 515.918,1134.82 517.301,1141.86 518.683,1142.71 520.065,1136.96 521.448,1145.34 525.595,1131.28 526.977,1119.21 528.36,1106.63 531.124,1093.71 535.272,1106.58 536.654,1098.66 538.036,1087.5 539.419,1082.59 540.801,1067.1 544.948,1068.99 546.331,1051.38 547.713,1058.24 549.095,1068.17 550.478,1076.67 554.625,1094.83 556.007,1093.84 557.39,1079.46 558.772,1089.49 560.154,1063.02 564.301,1078.91 565.684,1096.84 567.066,1096.27 568.449,1100.88 569.831,1080.39 573.978,1106.91 575.36,1087.55 576.743,1085.86 578.125,1058.92 579.508,1064.79 583.655,1074.89 585.037,1070.61 586.42,1081.77 587.802,1080.26 589.184,1059.3 593.331,1036.09 594.714,1046.82 596.096,1035.81 597.479,1035.3 598.861,1056.42 603.008,1037.12 604.39,1048.58 605.773,1030.89 607.155,944.533 608.538,949.087 614.067,938.363 615.449,921.404 616.832,912.958 618.214,897.475 622.361,908.584 623.744,932.862 625.126,930.308 626.508,926.673 627.891,924.113 632.038,950.148 633.42,912.781 634.803,923.115 636.185,919.465 637.568,934.63 641.715,924.65 643.097,929.352 644.479,926.63 645.862,920.357 647.244,916.204 651.391,918.818 652.774,924.289 654.156,932.732 655.538,933.375 656.921,914.386 661.068,914.368 662.45,920.86 663.833,914.945 665.215,917.176 666.597,908.834 670.745,910.526 672.127,904.867 673.509,917.031 674.892,903.599 676.274,898.96 680.421,899.986 681.804,898.588 683.186,913.759 684.568,901.056 685.951,901.513 690.098,900.999 691.48,915.467 692.863,896.216 694.245,895.512 695.627,894.484 699.832,907.216 701.215,894.54 702.597,899.083 703.979,898.854 705.362,904.052 709.509,906.323 710.891,902.855 712.274,897.202 713.656,877.69 715.038,875.774 719.185,877.879 720.568,885.682 721.95,880.99 723.333,879.713 724.715,884.6 728.862,881.387 730.244,889.481 731.627,881.713 734.392,895.175 738.539,916.356 739.921,933.87 741.303,928.732 742.686,929.212 744.068,926.525 748.215,926.233 749.598,917.393 750.98,926.266 752.363,905.145 753.745,906.553 757.892,917.109 759.274,911.104 760.657,909.602 762.039,897.599 763.422,897.216 767.569,889.36 768.951,885.061 771.716,886.119 773.098,879.462 777.245,879.421 778.628,881.779 781.392,880.987 782.775,891.219 786.922,897.72 788.304,913.136 789.687,918.086 791.069,909.024 792.451,907.833 796.599,902.691 797.981,881.598 799.363,883.528 800.746,867.224 802.128,865.523 807.658,867.634 809.04,875.816 810.422,869.254 811.805,883.854 815.952,892.249 817.334,882.837 818.717,887.233 820.099,887.152 821.481,907.183 825.629,887.602 827.011,874.723 828.393,868.71 829.776,877.649 831.158,885.619 835.305,876.376 836.688,872.517 838.07,854.339 839.452,845.496 840.835,852.492 846.364,836.41 847.747,820.753 849.129,811.375 850.511,812.669 854.659,837.449 856.041,863.416 857.423,863.808 858.806,913.115 860.188,965.757 864.335,895.876 865.718,934.188 867.1,909.337 868.482,933.167 869.865,937.224 873.954,971.911 875.337,895.17 876.719,984.756 878.101,1150.64 879.484,1094.11 883.631,1273.16 885.013,1169.18 886.396,1319.91 887.778,1351.46 889.16,1347.59 893.308,1375.54 894.69,1216.84 896.072,1215.68 897.455,1183.77 898.837,1233.09 902.984,1205.81 904.367,1184.45 905.749,1178.55 907.131,1130.23 908.514,1132.66 912.661,1066.14 914.043,1066.02 915.426,1045.93 916.808,1002.62 922.337,994.324 923.72,941.46 925.102,959.969 926.485,894.447 927.867,848.072 932.014,903.41 933.397,960.353 934.779,937.261 936.161,922.021 937.544,948.769 941.691,921.168 943.073,923.472 944.456,901.726 945.838,902.701 947.22,943.883 951.367,931.782 952.75,969.863 954.132,960.712 955.515,982.011 956.897,961.818 961.044,920.567 962.426,932.027 963.809,941.931 965.191,945 966.574,932.048 970.721,888.512 972.103,895.497 973.485,894.161 974.868,882.917 976.25,880.736 981.78,853.632 983.162,799.717 984.545,831.665 985.927,808.141 990.074,773.655 991.456,775.094 992.839,776.61 994.221,803.911 995.604,780.526 999.751,780.026 1001.13,789.758 1002.52,780.559 1003.9,844.794 1005.28,846.669 1009.43,811.074 1010.81,798.914 1012.19,810.53 1013.57,799.669 1014.96,821.534 1019.1,781.575 1020.49,806.883 1021.87,812.91 1023.25,808.287 1024.63,828.19 1028.78,815.79 1030.16,816.428 1031.55,818.713 1032.93,820.762 1038.46,832.683 1039.84,823.674 1041.22,831.91 1042.6,820.727 1043.99,827.03 1048.13,845.661 1049.52,823.973 1050.9,810.058 1052.28,822.53 1053.66,826.915 1057.81,806.082 1059.19,807.716 1060.58,787.507 1061.96,804.951 1063.34,795.339 1067.49,808.837 1068.87,817.081 1070.25,803.157 1071.63,800.757 1073.02,810.262 1077.16,794.542 1078.55,779.802 1079.93,775.848 1081.31,788.004 1082.69,769.465 1086.84,771.194 1088.22,778.183 1089.61,747.651 1090.99,748.111 1092.37,731.917 1096.52,714.676 1097.9,730.905 1099.28,722.853 1100.66,751.326 1102.05,742.758 1106.19,740.882 1107.58,735.199 1108.96,722.853 1110.34,740.093 1111.72,734.554 1115.87,733.291 1117.25,746.609 1118.64,717.169 1120.02,766.423 1121.4,778.206 1126.93,789.006 1128.31,764.311 1129.69,780.39 1131.08,759.859 1135.22,736.028 1136.61,750.815 1137.99,746.874 1139.37,748.62 1140.75,738.331 1144.9,780.945 1146.28,759.987 1147.67,782.418 1149.05,780.834 1150.43,768.527 1154.58,750.363 1155.96,747.552 1157.34,743.445 1158.72,726.494 1160.11,735.693 1164.25,719.663 1165.64,727.826 1167.02,702.479 1168.4,664.184 1169.78,657.789 1173.93,661.293 1175.31,653.112 1176.7,668.688 1178.08,659.443 1179.46,677.724 1183.61,699.009 1184.99,695.939 1186.37,686.896 1187.75,704.492 1189.14,698.797 1193.28,736.605 1194.67,720.177 1196.05,757.419 1197.43,739.178 1198.81,753.146 1203.02,736.82 1204.4,702.135 1205.78,683.648 1207.17,661.235 1208.55,641.873 1212.69,683.155 1214.08,691.04 1215.46,655.113 1216.84,609.603 1218.22,596.564 1222.37,559.528 1223.75,582.023 1225.14,594.847 1226.52,586.729 1227.9,586.253 1232.05,583.936 1233.43,568.854 1234.81,555.822 1237.58,551.525 1241.72,563.503 1243.11,551.611 1244.49,561.573 1245.87,567.354 1247.25,587.761 1251.4,573.301 1252.78,585.236 1254.17,598.007 1255.55,597.64 1256.93,611.209 1261.08,609.961 1262.46,596.58 1263.84,583.629 1265.22,579.561 1266.61,591.155 1270.75,593.063 1272.14,578.147 1273.52,594.949 1274.9,591.196 1280.43,592.101 1281.81,583.921 1283.2,578.503 1284.58,568.263 1290.11,581.697 1291.49,591.902 1292.87,529.078 1294.25,528.238 1295.64,547.326 1299.78,561.453 1301.17,545.733 1302.55,524.385 1303.93,548.984 1305.31,554.359 1310.84,573.445 1312.23,564.318 1313.61,575.497 1314.99,572.567 1319.14,568.833 1320.52,557.025 1321.9,604.144 1323.28,623.966 1324.67,657.149 1328.81,657.418 1330.2,644.611 1331.58,642.949 1332.96,634.14 1334.34,638.412 1338.49,603.054 1339.87,574.584 1341.26,582.461 1342.64,594.788 1344.02,601.223 1349.55,596.96 1350.93,592.588 1352.31,582.148 1353.7,590.016 1357.84,596.938 1359.23,631.426 1360.61,638.358 1361.99,666.619 1363.37,650.15 1367.52,626.586 1368.9,662.004 1370.29,686.429 1371.67,725.516 1373.05,710.757 1377.2,696.098 1378.58,675.781 1379.96,661.359 1381.34,641.17 1382.73,620.546 1386.82,594.561 1388.2,585.224 1389.58,619.885 1390.96,682.634 1392.35,635.961 1396.49,592.119 1397.88,575.945 1399.26,582.915 1400.64,572.295 1402.02,538.635 1406.17,544.782 1407.55,551.123 1408.93,547.068 1410.32,531.044 1415.85,490.188 1417.23,487.805 1418.61,484.092 1419.99,473.876 1421.38,465.266 1425.52,463.343 1426.91,448.027 1428.29,443.211 1429.67,435.845 1431.05,436.457 1435.2,438.587 1436.58,426.105 1437.96,431.555 1439.35,441.713 1440.73,447.823 1444.88,447.089 1446.26,438.748 1447.64,447.966 1449.02,419.57 1450.41,421.981 1454.55,402.863 1455.94,408.044 1457.32,409.745 1458.7,396.895 1460.08,383.794 1464.23,394.844 1465.61,431.633 1466.99,480.225 1468.38,469.838 1469.76,463.558 1473.91,481.643 1475.29,479.316 1476.67,505.83 1478.05,477.789 1479.44,480.508 1483.58,509.124 1484.97,506.584 1486.35,494.924 1487.73,458.22 1489.11,468.01 1494.64,472.609 1496.02,462.038 1497.41,444.195 1498.79,432.528 1502.94,426.686 1504.32,417.191 1505.7,432.615 1507.08,429.282 1508.47,410.606 1512.61,406.481 1514,394.477 1515.38,394.891 1516.76,387.607 1518.14,399.653 1522.29,392.272 1523.67,390.029 1525.05,398.077 1526.44,396.413 1527.82,400.698 1531.97,387.918 1533.35,375.36 1534.73,371.346 1536.11,353.831 1537.5,340.315 1543.03,340.965 1544.41,323.617 1545.79,341.328 1547.17,329.176 1551.32,334.358 1552.7,333.145 1554.08,326.55 1555.47,330.757 1556.85,336.938 1561,345.846 1562.38,299.749 1563.76,306.997 1565.14,298.111 1566.53,273.825 1570.67,276.75 1572.06,257.388 1573.44,271.561 1574.82,258.733 1576.2,254.542 1580.35,260.625 1581.73,259.663 1583.11,256.76 1584.5,241.651 1585.88,240.026 1590.03,261.88 1591.41,253.677 1592.79,248.234 1594.17,246.08 1595.56,235.201 1599.7,226.001 1601.09,264.857 1602.47,287.289 1603.85,286.656 1605.23,269.326 1609.38,268.519 1610.76,271.149 1612.14,246.007 1613.53,303.265 1614.91,310.407 1619.06,311.057 1620.44,326.432 1621.82,323.731 1623.2,306.458 1624.59,323.149 1630.12,341.043 1631.5,319.78 1632.88,343.583 1634.26,355.953 1638.41,349.216 1639.79,366.269 1641.17,350.526 1642.56,328.324 1643.94,317.587 1648.09,320.029 1649.47,342.043 1650.85,341.441 1652.23,334.322 1653.62,337.479 1657.76,342.406 1659.15,353.972 1660.53,355.243 1661.91,386.416 1663.29,393.592 1667.44,415.028 1668.82,418.46 1670.2,414.62 1671.59,380.576 1672.97,400.664 1677.12,407.942 1678.5,409.81 1679.88,410.069 1681.26,375.667 1682.65,367.05 1686.79,367.285 1688.18,372.97 1689.56,346.708 1690.94,330.578 1692.32,325.223 1696.47,317.424 1697.85,327.94 1699.23,335.419 1700.62,314.067 1702,323.151 1706.15,299.829 1707.53,293.424 1708.91,269.012 1710.29,261.341 1711.68,245.607 1715.88,275.172 1717.26,289.611 1718.65,291.529 1720.03,284.318 1721.41,264.354 1725.56,237.898 1726.94,212.336 1728.32,240.587 1729.7,251.762 1731.09,255.766 1735.23,258.317 1736.62,250.655 1738,257.579 1740.76,271.102 1744.91,265.325 1746.29,295.538 1747.68,301.014 1749.06,319.032 1750.44,296.842 1754.59,270.42 1755.97,256.721 1757.35,273.245 1758.73,276.582 1760.12,264.126 1764.26,253.876 1765.65,259.302 1767.03,247.756 1768.41,261.01 1769.79,291.619 1773.94,302.636 1775.32,286.113 1776.7,296.079 1778.09,274.617 1783.62,259.299 1785,244.791 1786.38,209.865 1787.76,194.805 1789.15,189.619 1793.29,194.61 1794.68,221.647 1796.06,229.339 1797.44,214.16 1798.82,215.909 1802.97,224.831 1804.35,253.131 1805.73,251.541 1807.12,271.75 1808.5,316.98 1814.03,322.981 1815.41,310.59 1816.79,373.685 1818.18,384.509 1822.32,352.848 1823.71,376.275 1825.09,418.952 1826.47,411.267 1827.85,407.676 1832,374.321 1833.38,361.148 1834.76,382.171 1836.15,389.082 1837.53,413.901 1841.68,422.468 1843.06,392.236 1844.44,374.696 1845.82,411.412 1847.21,431.973 1851.35,438.178 1852.74,442.758 1854.12,451.888 1855.5,459.796 1856.88,437.677 1862.41,494.861 1863.79,524.62 1865.18,506.235 1866.56,446.551 1870.71,447.281 1872.09,445.402 1873.47,406.159 1874.85,404.478 1876.24,384.459 1880.38,444.833 1881.77,462.799 1883.15,430.525 1884.53,432.294 1885.91,461.157 1890,460.999 1891.38,430.267 1892.77,432.689 1894.15,360.307 1895.53,312.109 1899.68,314.397 1901.06,312.174 1902.44,343.454 1903.83,340.841 1905.21,325.09 1909.36,295.718 1910.74,281.91 1912.12,284.322 1913.5,308.617 1914.89,288.212 1919.03,283.658 1920.41,282.655 1921.8,239.828 1923.18,231.732 1924.56,218.133 1928.71,241.994 1930.09,241.741 1931.47,225.794 1932.86,225.698 1938.39,223.81 1939.77,182.758 1941.15,165.534 1942.53,200.831 1943.92,246.688 1948.06,250.971 1949.44,282.871 1950.83,295.198 1952.21,271.424 1953.59,351.501 1957.74,343.052 1959.12,342.019 1960.5,293.895 1961.89,359.221 1963.27,362.259 1967.42,392.516 1968.8,421.838 1970.18,424.23 1971.56,418.725 1972.95,395.26 1977.09,391.442 1978.47,406.208 1979.86,542.216 1981.24,547.687 1982.62,612.137 1986.77,569.969 1988.15,570.388 1989.53,566.969 1990.92,408.416 1992.3,362.458 1997.83,389.921 1999.21,417.326 2000.59,367.895 2001.98,369.659 2006.12,337.277 2007.5,329.764 2008.89,341.405 2010.27,315.753 2011.65,350.07 2015.8,410.351 2017.18,403.169 2018.56,378.792 2019.95,411.335 2021.33,419.821 2026.86,377.635 2028.24,369.713 2029.62,337.459 2031.01,290.649 2035.15,297.412 2036.53,330.17 2037.92,325.49 2039.3,329.602 2040.68,304.628 2046.21,285.223 2047.59,274.461 2048.98,261.841 2050.36,257.441 2054.51,248.361 2055.89,279.913 2057.27,278.97 2058.65,270.875 2060.03,297.082 2064.18,281.284 2065.56,260.982 2066.95,249.94 2068.33,259.349 2069.71,258.587 2073.86,257.607 2075.24,303.451 2076.62,271.155 2078.01,246.758 2079.39,221.904 2083.54,198.069 2084.92,196.272 2086.3,158.831 2087.68,178.112 2089.06,189.179 2093.21,161.704 2094.59,170.08 2095.98,155.004 2097.36,157.392 2098.74,155.444 2102.89,159.056 2104.27,147.483 2105.65,163.759 2107.04,161.037 2108.42,157.643 2112.57,216.194 2113.95,211.455 2115.33,206.715 2116.71,222.999 2118.09,307.802 2122.24,305.634 2123.62,316.592 2125.01,323.106 2126.39,287.411 2127.77,300.477 2133.3,306.63 2134.68,248.636 2136.07,228.551 2137.45,213.187 2141.6,192.9 2142.98,244.367 2144.36,265.697 2145.74,284.399 2147.12,281.814 2151.27,259.158 2152.65,269.588 2154.04,302.038 2155.42,325.146 2156.8,318.436 2160.95,347.41 2162.33,356.05 2163.71,310.637 2165.1,352.664 2166.48,351.946 2170.63,307.373 2172.01,274.921 2173.39,302.695 2174.77,290.864 2176.15,311.54 2180.3,309.938 2181.68,291.756 2183.07,300.399 2184.45,262.918 2185.83,304.443 2189.98,295.139 2191.36,281.77 2192.74,287.02 2194.13,296.656 2195.51,273.678 2199.66,270.244 2201.04,240.127 2202.42,231.312 2203.8,233.59 2205.18,191.631 2209.33,223.216 2210.71,235.949 2212.1,265.115 2213.48,265.481 2214.86,245.425 2219.07,226.403 2220.45,219.091 2221.83,266.96 2223.21,193.773 2224.6,211.028 2228.74,221.569 2230.13,165.107 2231.51,166.249 2232.89,169.302 2234.27,149.911 2238.42,106.406 2239.8,92.573 2241.18,89.7198 2243.95,86.1857 2248.1,120.433 2249.48,142.369 2250.86,123.392 2252.24,200.879 2253.63,172.633 2257.77,181.398 2259.16,182.85 2260.54,160.025 2261.92,163.951 2263.3,188.865 2267.45,183.202 2268.83,195.488 2270.21,179.785 2271.6,197.556 2272.98,193.58 2277.13,219.229 2278.51,227.936 2279.89,195.449 2281.27,190.813 2282.66,175.743 2288.19,189.475 2289.57,191.454 2290.95,160.763 2292.33,159.654 "/>
</svg>
