<?xml version="1.0" encoding="utf-8"?>
<svg xmlns="http://www.w3.org/2000/svg" xmlns:xlink="http://www.w3.org/1999/xlink" width="600" height="400" viewBox="0 0 2400 1600">
<defs>
  <clipPath id="clip020">
    <rect x="0" y="0" width="2400" height="1600"/>
  </clipPath>
</defs>
<path clip-path="url(#clip020)" d="M0 1600 L2400 1600 L2400 0 L0 0  Z" fill="#ffffff" fill-rule="evenodd" fill-opacity="1"/>
<defs>
  <clipPath id="clip021">
    <rect x="480" y="0" width="1681" height="1600"/>
  </clipPath>
</defs>
<path clip-path="url(#clip020)" d="M217.783 1423.18 L2352.76 1423.18 L2352.76 47.2441 L217.783 47.2441  Z" fill="#ffffff" fill-rule="evenodd" fill-opacity="1"/>
<defs>
  <clipPath id="clip022">
    <rect x="217" y="47" width="2136" height="1377"/>
  </clipPath>
</defs>
<polyline clip-path="url(#clip022)" style="stroke:#000000; stroke-linecap:round; stroke-linejoin:round; stroke-width:2; stroke-opacity:0.1; fill:none" points="274.607,1423.18 274.607,47.2441 "/>
<polyline clip-path="url(#clip022)" style="stroke:#000000; stroke-linecap:round; stroke-linejoin:round; stroke-width:2; stroke-opacity:0.1; fill:none" points="779.175,1423.18 779.175,47.2441 "/>
<polyline clip-path="url(#clip022)" style="stroke:#000000; stroke-linecap:round; stroke-linejoin:round; stroke-width:2; stroke-opacity:0.1; fill:none" points="1285.13,1423.18 1285.13,47.2441 "/>
<polyline clip-path="url(#clip022)" style="stroke:#000000; stroke-linecap:round; stroke-linejoin:round; stroke-width:2; stroke-opacity:0.1; fill:none" points="1789.69,1423.18 1789.69,47.2441 "/>
<polyline clip-path="url(#clip022)" style="stroke:#000000; stroke-linecap:round; stroke-linejoin:round; stroke-width:2; stroke-opacity:0.1; fill:none" points="2294.26,1423.18 2294.26,47.2441 "/>
<polyline clip-path="url(#clip022)" style="stroke:#000000; stroke-linecap:round; stroke-linejoin:round; stroke-width:2; stroke-opacity:0.1; fill:none" points="217.783,1365.85 2352.76,1365.85 "/>
<polyline clip-path="url(#clip022)" style="stroke:#000000; stroke-linecap:round; stroke-linejoin:round; stroke-width:2; stroke-opacity:0.1; fill:none" points="217.783,1085.5 2352.76,1085.5 "/>
<polyline clip-path="url(#clip022)" style="stroke:#000000; stroke-linecap:round; stroke-linejoin:round; stroke-width:2; stroke-opacity:0.1; fill:none" points="217.783,805.146 2352.76,805.146 "/>
<polyline clip-path="url(#clip022)" style="stroke:#000000; stroke-linecap:round; stroke-linejoin:round; stroke-width:2; stroke-opacity:0.1; fill:none" points="217.783,524.791 2352.76,524.791 "/>
<polyline clip-path="url(#clip022)" style="stroke:#000000; stroke-linecap:round; stroke-linejoin:round; stroke-width:2; stroke-opacity:0.1; fill:none" points="217.783,244.437 2352.76,244.437 "/>
<polyline clip-path="url(#clip020)" style="stroke:#000000; stroke-linecap:round; stroke-linejoin:round; stroke-width:4; stroke-opacity:1; fill:none" points="217.783,1423.18 2352.76,1423.18 "/>
<polyline clip-path="url(#clip020)" style="stroke:#000000; stroke-linecap:round; stroke-linejoin:round; stroke-width:4; stroke-opacity:1; fill:none" points="274.607,1423.18 274.607,1404.28 "/>
<polyline clip-path="url(#clip020)" style="stroke:#000000; stroke-linecap:round; stroke-linejoin:round; stroke-width:4; stroke-opacity:1; fill:none" points="779.175,1423.18 779.175,1404.28 "/>
<polyline clip-path="url(#clip020)" style="stroke:#000000; stroke-linecap:round; stroke-linejoin:round; stroke-width:4; stroke-opacity:1; fill:none" points="1285.13,1423.18 1285.13,1404.28 "/>
<polyline clip-path="url(#clip020)" style="stroke:#000000; stroke-linecap:round; stroke-linejoin:round; stroke-width:4; stroke-opacity:1; fill:none" points="1789.69,1423.18 1789.69,1404.28 "/>
<polyline clip-path="url(#clip020)" style="stroke:#000000; stroke-linecap:round; stroke-linejoin:round; stroke-width:4; stroke-opacity:1; fill:none" points="2294.26,1423.18 2294.26,1404.28 "/>
<path clip-path="url(#clip020)" d="M146.401 1481.64 L162.721 1481.64 L162.721 1485.58 L140.776 1485.58 L140.776 1481.64 Q143.438 1478.89 148.022 1474.26 Q152.628 1469.61 153.809 1468.27 Q156.054 1465.74 156.934 1464.01 Q157.837 1462.25 157.837 1460.56 Q157.837 1457.8 155.892 1456.07 Q153.971 1454.33 150.869 1454.33 Q148.67 1454.33 146.216 1455.09 Q143.786 1455.86 141.008 1457.41 L141.008 1452.69 Q143.832 1451.55 146.286 1450.97 Q148.739 1450.39 150.776 1450.39 Q156.147 1450.39 159.341 1453.08 Q162.536 1455.77 162.536 1460.26 Q162.536 1462.39 161.725 1464.31 Q160.938 1466.2 158.832 1468.8 Q158.253 1469.47 155.151 1472.69 Q152.05 1475.88 146.401 1481.64 Z" fill="#000000" fill-rule="nonzero" fill-opacity="1" /><path clip-path="url(#clip020)" d="M182.535 1454.1 Q178.924 1454.1 177.096 1457.66 Q175.29 1461.2 175.29 1468.33 Q175.29 1475.44 177.096 1479.01 Q178.924 1482.55 182.535 1482.55 Q186.17 1482.55 187.975 1479.01 Q189.804 1475.44 189.804 1468.33 Q189.804 1461.2 187.975 1457.66 Q186.17 1454.1 182.535 1454.1 M182.535 1450.39 Q188.346 1450.39 191.401 1455 Q194.48 1459.58 194.48 1468.33 Q194.48 1477.06 191.401 1481.67 Q188.346 1486.25 182.535 1486.25 Q176.725 1486.25 173.647 1481.67 Q170.591 1477.06 170.591 1468.33 Q170.591 1459.58 173.647 1455 Q176.725 1450.39 182.535 1450.39 Z" fill="#000000" fill-rule="nonzero" fill-opacity="1" /><path clip-path="url(#clip020)" d="M203.508 1481.64 L211.146 1481.64 L211.146 1455.28 L202.836 1456.95 L202.836 1452.69 L211.1 1451.02 L215.776 1451.02 L215.776 1481.64 L223.415 1481.64 L223.415 1485.58 L203.508 1485.58 L203.508 1481.64 Z" fill="#000000" fill-rule="nonzero" fill-opacity="1" /><path clip-path="url(#clip020)" d="M232.998 1484.86 L232.998 1480.6 Q234.757 1481.44 236.563 1481.88 Q238.369 1482.32 240.105 1482.32 Q244.734 1482.32 247.165 1479.21 Q249.618 1476.09 249.966 1469.75 Q248.623 1471.74 246.563 1472.8 Q244.503 1473.87 242.003 1473.87 Q236.818 1473.87 233.785 1470.74 Q230.776 1467.59 230.776 1462.15 Q230.776 1456.83 233.924 1453.61 Q237.072 1450.39 242.304 1450.39 Q248.299 1450.39 251.447 1455 Q254.618 1459.58 254.618 1468.33 Q254.618 1476.51 250.73 1481.39 Q246.864 1486.25 240.313 1486.25 Q238.554 1486.25 236.748 1485.9 Q234.943 1485.56 232.998 1484.86 M242.304 1470.21 Q245.452 1470.21 247.281 1468.06 Q249.132 1465.9 249.132 1462.15 Q249.132 1458.43 247.281 1456.27 Q245.452 1454.1 242.304 1454.1 Q239.156 1454.1 237.304 1456.27 Q235.475 1458.43 235.475 1462.15 Q235.475 1465.9 237.304 1468.06 Q239.156 1470.21 242.304 1470.21 Z" fill="#000000" fill-rule="nonzero" fill-opacity="1" /><path clip-path="url(#clip020)" d="M260.267 1470.7 L272.743 1470.7 L272.743 1474.49 L260.267 1474.49 L260.267 1470.7 Z" fill="#000000" fill-rule="nonzero" fill-opacity="1" /><path clip-path="url(#clip020)" d="M290.128 1454.1 Q286.516 1454.1 284.688 1457.66 Q282.882 1461.2 282.882 1468.33 Q282.882 1475.44 284.688 1479.01 Q286.516 1482.55 290.128 1482.55 Q293.762 1482.55 295.567 1479.01 Q297.396 1475.44 297.396 1468.33 Q297.396 1461.2 295.567 1457.66 Q293.762 1454.1 290.128 1454.1 M290.128 1450.39 Q295.938 1450.39 298.993 1455 Q302.072 1459.58 302.072 1468.33 Q302.072 1477.06 298.993 1481.67 Q295.938 1486.25 290.128 1486.25 Q284.317 1486.25 281.239 1481.67 Q278.183 1477.06 278.183 1468.33 Q278.183 1459.58 281.239 1455 Q284.317 1450.39 290.128 1450.39 Z" fill="#000000" fill-rule="nonzero" fill-opacity="1" /><path clip-path="url(#clip020)" d="M311.1 1481.64 L318.738 1481.64 L318.738 1455.28 L310.428 1456.95 L310.428 1452.69 L318.692 1451.02 L323.368 1451.02 L323.368 1481.64 L331.007 1481.64 L331.007 1485.58 L311.1 1485.58 L311.1 1481.64 Z" fill="#000000" fill-rule="nonzero" fill-opacity="1" /><path clip-path="url(#clip020)" d="M337.697 1470.7 L350.173 1470.7 L350.173 1474.49 L337.697 1474.49 L337.697 1470.7 Z" fill="#000000" fill-rule="nonzero" fill-opacity="1" /><path clip-path="url(#clip020)" d="M367.558 1454.1 Q363.947 1454.1 362.118 1457.66 Q360.312 1461.2 360.312 1468.33 Q360.312 1475.44 362.118 1479.01 Q363.947 1482.55 367.558 1482.55 Q371.192 1482.55 372.997 1479.01 Q374.826 1475.44 374.826 1468.33 Q374.826 1461.2 372.997 1457.66 Q371.192 1454.1 367.558 1454.1 M367.558 1450.39 Q373.368 1450.39 376.423 1455 Q379.502 1459.58 379.502 1468.33 Q379.502 1477.06 376.423 1481.67 Q373.368 1486.25 367.558 1486.25 Q361.747 1486.25 358.669 1481.67 Q355.613 1477.06 355.613 1468.33 Q355.613 1459.58 358.669 1455 Q361.747 1450.39 367.558 1450.39 Z" fill="#000000" fill-rule="nonzero" fill-opacity="1" /><path clip-path="url(#clip020)" d="M388.53 1481.64 L396.169 1481.64 L396.169 1455.28 L387.858 1456.95 L387.858 1452.69 L396.122 1451.02 L400.798 1451.02 L400.798 1481.64 L408.437 1481.64 L408.437 1485.58 L388.53 1485.58 L388.53 1481.64 Z" fill="#000000" fill-rule="nonzero" fill-opacity="1" /><path clip-path="url(#clip020)" d="M650.97 1481.64 L667.289 1481.64 L667.289 1485.58 L645.345 1485.58 L645.345 1481.64 Q648.007 1478.89 652.59 1474.26 Q657.196 1469.61 658.377 1468.27 Q660.622 1465.74 661.502 1464.01 Q662.405 1462.25 662.405 1460.56 Q662.405 1457.8 660.46 1456.07 Q658.539 1454.33 655.437 1454.33 Q653.238 1454.33 650.784 1455.09 Q648.354 1455.86 645.576 1457.41 L645.576 1452.69 Q648.4 1451.55 650.854 1450.97 Q653.308 1450.39 655.345 1450.39 Q660.715 1450.39 663.909 1453.08 Q667.104 1455.77 667.104 1460.26 Q667.104 1462.39 666.294 1464.31 Q665.507 1466.2 663.4 1468.8 Q662.821 1469.47 659.72 1472.69 Q656.618 1475.88 650.97 1481.64 Z" fill="#000000" fill-rule="nonzero" fill-opacity="1" /><path clip-path="url(#clip020)" d="M687.104 1454.1 Q683.493 1454.1 681.664 1457.66 Q679.858 1461.2 679.858 1468.33 Q679.858 1475.44 681.664 1479.01 Q683.493 1482.55 687.104 1482.55 Q690.738 1482.55 692.543 1479.01 Q694.372 1475.44 694.372 1468.33 Q694.372 1461.2 692.543 1457.66 Q690.738 1454.1 687.104 1454.1 M687.104 1450.39 Q692.914 1450.39 695.969 1455 Q699.048 1459.58 699.048 1468.33 Q699.048 1477.06 695.969 1481.67 Q692.914 1486.25 687.104 1486.25 Q681.293 1486.25 678.215 1481.67 Q675.159 1477.06 675.159 1468.33 Q675.159 1459.58 678.215 1455 Q681.293 1450.39 687.104 1450.39 Z" fill="#000000" fill-rule="nonzero" fill-opacity="1" /><path clip-path="url(#clip020)" d="M711.293 1481.64 L727.613 1481.64 L727.613 1485.58 L705.668 1485.58 L705.668 1481.64 Q708.33 1478.89 712.914 1474.26 Q717.52 1469.61 718.701 1468.27 Q720.946 1465.74 721.826 1464.01 Q722.728 1462.25 722.728 1460.56 Q722.728 1457.8 720.784 1456.07 Q718.863 1454.33 715.761 1454.33 Q713.562 1454.33 711.108 1455.09 Q708.678 1455.86 705.9 1457.41 L705.9 1452.69 Q708.724 1451.55 711.178 1450.97 Q713.631 1450.39 715.668 1450.39 Q721.039 1450.39 724.233 1453.08 Q727.427 1455.77 727.427 1460.26 Q727.427 1462.39 726.617 1464.31 Q725.83 1466.2 723.724 1468.8 Q723.145 1469.47 720.043 1472.69 Q716.941 1475.88 711.293 1481.64 Z" fill="#000000" fill-rule="nonzero" fill-opacity="1" /><path clip-path="url(#clip020)" d="M747.427 1454.1 Q743.816 1454.1 741.988 1457.66 Q740.182 1461.2 740.182 1468.33 Q740.182 1475.44 741.988 1479.01 Q743.816 1482.55 747.427 1482.55 Q751.062 1482.55 752.867 1479.01 Q754.696 1475.44 754.696 1468.33 Q754.696 1461.2 752.867 1457.66 Q751.062 1454.1 747.427 1454.1 M747.427 1450.39 Q753.238 1450.39 756.293 1455 Q759.372 1459.58 759.372 1468.33 Q759.372 1477.06 756.293 1481.67 Q753.238 1486.25 747.427 1486.25 Q741.617 1486.25 738.539 1481.67 Q735.483 1477.06 735.483 1468.33 Q735.483 1459.58 738.539 1455 Q741.617 1450.39 747.427 1450.39 Z" fill="#000000" fill-rule="nonzero" fill-opacity="1" /><path clip-path="url(#clip020)" d="M764.835 1470.7 L777.311 1470.7 L777.311 1474.49 L764.835 1474.49 L764.835 1470.7 Z" fill="#000000" fill-rule="nonzero" fill-opacity="1" /><path clip-path="url(#clip020)" d="M794.696 1454.1 Q791.085 1454.1 789.256 1457.66 Q787.45 1461.2 787.45 1468.33 Q787.45 1475.44 789.256 1479.01 Q791.085 1482.55 794.696 1482.55 Q798.33 1482.55 800.135 1479.01 Q801.964 1475.44 801.964 1468.33 Q801.964 1461.2 800.135 1457.66 Q798.33 1454.1 794.696 1454.1 M794.696 1450.39 Q800.506 1450.39 803.561 1455 Q806.64 1459.58 806.64 1468.33 Q806.64 1477.06 803.561 1481.67 Q800.506 1486.25 794.696 1486.25 Q788.886 1486.25 785.807 1481.67 Q782.751 1477.06 782.751 1468.33 Q782.751 1459.58 785.807 1455 Q788.886 1450.39 794.696 1450.39 Z" fill="#000000" fill-rule="nonzero" fill-opacity="1" /><path clip-path="url(#clip020)" d="M815.668 1481.64 L823.307 1481.64 L823.307 1455.28 L814.996 1456.95 L814.996 1452.69 L823.26 1451.02 L827.936 1451.02 L827.936 1481.64 L835.575 1481.64 L835.575 1485.58 L815.668 1485.58 L815.668 1481.64 Z" fill="#000000" fill-rule="nonzero" fill-opacity="1" /><path clip-path="url(#clip020)" d="M842.265 1470.7 L854.742 1470.7 L854.742 1474.49 L842.265 1474.49 L842.265 1470.7 Z" fill="#000000" fill-rule="nonzero" fill-opacity="1" /><path clip-path="url(#clip020)" d="M872.126 1454.1 Q868.515 1454.1 866.686 1457.66 Q864.88 1461.2 864.88 1468.33 Q864.88 1475.44 866.686 1479.01 Q868.515 1482.55 872.126 1482.55 Q875.76 1482.55 877.566 1479.01 Q879.394 1475.44 879.394 1468.33 Q879.394 1461.2 877.566 1457.66 Q875.76 1454.1 872.126 1454.1 M872.126 1450.39 Q877.936 1450.39 880.991 1455 Q884.07 1459.58 884.07 1468.33 Q884.07 1477.06 880.991 1481.67 Q877.936 1486.25 872.126 1486.25 Q866.316 1486.25 863.237 1481.67 Q860.181 1477.06 860.181 1468.33 Q860.181 1459.58 863.237 1455 Q866.316 1450.39 872.126 1450.39 Z" fill="#000000" fill-rule="nonzero" fill-opacity="1" /><path clip-path="url(#clip020)" d="M893.098 1481.64 L900.737 1481.64 L900.737 1455.28 L892.427 1456.95 L892.427 1452.69 L900.69 1451.02 L905.366 1451.02 L905.366 1481.64 L913.005 1481.64 L913.005 1485.58 L893.098 1485.58 L893.098 1481.64 Z" fill="#000000" fill-rule="nonzero" fill-opacity="1" /><path clip-path="url(#clip020)" d="M1156.92 1481.64 L1173.24 1481.64 L1173.24 1485.58 L1151.3 1485.58 L1151.3 1481.64 Q1153.96 1478.89 1158.54 1474.26 Q1163.15 1469.61 1164.33 1468.27 Q1166.57 1465.74 1167.45 1464.01 Q1168.36 1462.25 1168.36 1460.56 Q1168.36 1457.8 1166.41 1456.07 Q1164.49 1454.33 1161.39 1454.33 Q1159.19 1454.33 1156.73 1455.09 Q1154.3 1455.86 1151.53 1457.41 L1151.53 1452.69 Q1154.35 1451.55 1156.8 1450.97 Q1159.26 1450.39 1161.3 1450.39 Q1166.67 1450.39 1169.86 1453.08 Q1173.05 1455.77 1173.05 1460.26 Q1173.05 1462.39 1172.24 1464.31 Q1171.46 1466.2 1169.35 1468.8 Q1168.77 1469.47 1165.67 1472.69 Q1162.57 1475.88 1156.92 1481.64 Z" fill="#000000" fill-rule="nonzero" fill-opacity="1" /><path clip-path="url(#clip020)" d="M1193.05 1454.1 Q1189.44 1454.1 1187.61 1457.66 Q1185.81 1461.2 1185.81 1468.33 Q1185.81 1475.44 1187.61 1479.01 Q1189.44 1482.55 1193.05 1482.55 Q1196.69 1482.55 1198.49 1479.01 Q1200.32 1475.44 1200.32 1468.33 Q1200.32 1461.2 1198.49 1457.66 Q1196.69 1454.1 1193.05 1454.1 M1193.05 1450.39 Q1198.86 1450.39 1201.92 1455 Q1205 1459.58 1205 1468.33 Q1205 1477.06 1201.92 1481.67 Q1198.86 1486.25 1193.05 1486.25 Q1187.24 1486.25 1184.17 1481.67 Q1181.11 1477.06 1181.11 1468.33 Q1181.11 1459.58 1184.17 1455 Q1187.24 1450.39 1193.05 1450.39 Z" fill="#000000" fill-rule="nonzero" fill-opacity="1" /><path clip-path="url(#clip020)" d="M1217.24 1481.64 L1233.56 1481.64 L1233.56 1485.58 L1211.62 1485.58 L1211.62 1481.64 Q1214.28 1478.89 1218.86 1474.26 Q1223.47 1469.61 1224.65 1468.27 Q1226.9 1465.74 1227.78 1464.01 Q1228.68 1462.25 1228.68 1460.56 Q1228.68 1457.8 1226.73 1456.07 Q1224.81 1454.33 1221.71 1454.33 Q1219.51 1454.33 1217.06 1455.09 Q1214.63 1455.86 1211.85 1457.41 L1211.85 1452.69 Q1214.67 1451.55 1217.13 1450.97 Q1219.58 1450.39 1221.62 1450.39 Q1226.99 1450.39 1230.18 1453.08 Q1233.38 1455.77 1233.38 1460.26 Q1233.38 1462.39 1232.57 1464.31 Q1231.78 1466.2 1229.67 1468.8 Q1229.1 1469.47 1225.99 1472.69 Q1222.89 1475.88 1217.24 1481.64 Z" fill="#000000" fill-rule="nonzero" fill-opacity="1" /><path clip-path="url(#clip020)" d="M1244.19 1481.64 L1251.83 1481.64 L1251.83 1455.28 L1243.52 1456.95 L1243.52 1452.69 L1251.78 1451.02 L1256.46 1451.02 L1256.46 1481.64 L1264.1 1481.64 L1264.1 1485.58 L1244.19 1485.58 L1244.19 1481.64 Z" fill="#000000" fill-rule="nonzero" fill-opacity="1" /><path clip-path="url(#clip020)" d="M1270.79 1470.7 L1283.26 1470.7 L1283.26 1474.49 L1270.79 1474.49 L1270.79 1470.7 Z" fill="#000000" fill-rule="nonzero" fill-opacity="1" /><path clip-path="url(#clip020)" d="M1300.65 1454.1 Q1297.04 1454.1 1295.21 1457.66 Q1293.4 1461.2 1293.4 1468.33 Q1293.4 1475.44 1295.21 1479.01 Q1297.04 1482.55 1300.65 1482.55 Q1304.28 1482.55 1306.09 1479.01 Q1307.91 1475.44 1307.91 1468.33 Q1307.91 1461.2 1306.09 1457.66 Q1304.28 1454.1 1300.65 1454.1 M1300.65 1450.39 Q1306.46 1450.39 1309.51 1455 Q1312.59 1459.58 1312.59 1468.33 Q1312.59 1477.06 1309.51 1481.67 Q1306.46 1486.25 1300.65 1486.25 Q1294.84 1486.25 1291.76 1481.67 Q1288.7 1477.06 1288.7 1468.33 Q1288.7 1459.58 1291.76 1455 Q1294.84 1450.39 1300.65 1450.39 Z" fill="#000000" fill-rule="nonzero" fill-opacity="1" /><path clip-path="url(#clip020)" d="M1321.62 1481.64 L1329.26 1481.64 L1329.26 1455.28 L1320.95 1456.95 L1320.95 1452.69 L1329.21 1451.02 L1333.89 1451.02 L1333.89 1481.64 L1341.53 1481.64 L1341.53 1485.58 L1321.62 1485.58 L1321.62 1481.64 Z" fill="#000000" fill-rule="nonzero" fill-opacity="1" /><path clip-path="url(#clip020)" d="M1348.22 1470.7 L1360.69 1470.7 L1360.69 1474.49 L1348.22 1474.49 L1348.22 1470.7 Z" fill="#000000" fill-rule="nonzero" fill-opacity="1" /><path clip-path="url(#clip020)" d="M1378.08 1454.1 Q1374.47 1454.1 1372.64 1457.66 Q1370.83 1461.2 1370.83 1468.33 Q1370.83 1475.44 1372.64 1479.01 Q1374.47 1482.55 1378.08 1482.55 Q1381.71 1482.55 1383.52 1479.01 Q1385.34 1475.44 1385.34 1468.33 Q1385.34 1461.2 1383.52 1457.66 Q1381.71 1454.1 1378.08 1454.1 M1378.08 1450.39 Q1383.89 1450.39 1386.94 1455 Q1390.02 1459.58 1390.02 1468.33 Q1390.02 1477.06 1386.94 1481.67 Q1383.89 1486.25 1378.08 1486.25 Q1372.27 1486.25 1369.19 1481.67 Q1366.13 1477.06 1366.13 1468.33 Q1366.13 1459.58 1369.19 1455 Q1372.27 1450.39 1378.08 1450.39 Z" fill="#000000" fill-rule="nonzero" fill-opacity="1" /><path clip-path="url(#clip020)" d="M1399.05 1481.64 L1406.69 1481.64 L1406.69 1455.28 L1398.38 1456.95 L1398.38 1452.69 L1406.64 1451.02 L1411.32 1451.02 L1411.32 1481.64 L1418.96 1481.64 L1418.96 1485.58 L1399.05 1485.58 L1399.05 1481.64 Z" fill="#000000" fill-rule="nonzero" fill-opacity="1" /><path clip-path="url(#clip020)" d="M1661.49 1481.64 L1677.81 1481.64 L1677.81 1485.58 L1655.86 1485.58 L1655.86 1481.64 Q1658.53 1478.89 1663.11 1474.26 Q1667.72 1469.61 1668.9 1468.27 Q1671.14 1465.74 1672.02 1464.01 Q1672.92 1462.25 1672.92 1460.56 Q1672.92 1457.8 1670.98 1456.07 Q1669.06 1454.33 1665.96 1454.33 Q1663.76 1454.33 1661.3 1455.09 Q1658.87 1455.86 1656.09 1457.41 L1656.09 1452.69 Q1658.92 1451.55 1661.37 1450.97 Q1663.83 1450.39 1665.86 1450.39 Q1671.23 1450.39 1674.43 1453.08 Q1677.62 1455.77 1677.62 1460.26 Q1677.62 1462.39 1676.81 1464.31 Q1676.03 1466.2 1673.92 1468.8 Q1673.34 1469.47 1670.24 1472.69 Q1667.14 1475.88 1661.49 1481.64 Z" fill="#000000" fill-rule="nonzero" fill-opacity="1" /><path clip-path="url(#clip020)" d="M1697.62 1454.1 Q1694.01 1454.1 1692.18 1457.66 Q1690.38 1461.2 1690.38 1468.33 Q1690.38 1475.44 1692.18 1479.01 Q1694.01 1482.55 1697.62 1482.55 Q1701.26 1482.55 1703.06 1479.01 Q1704.89 1475.44 1704.89 1468.33 Q1704.89 1461.2 1703.06 1457.66 Q1701.26 1454.1 1697.62 1454.1 M1697.62 1450.39 Q1703.43 1450.39 1706.49 1455 Q1709.57 1459.58 1709.57 1468.33 Q1709.57 1477.06 1706.49 1481.67 Q1703.43 1486.25 1697.62 1486.25 Q1691.81 1486.25 1688.73 1481.67 Q1685.68 1477.06 1685.68 1468.33 Q1685.68 1459.58 1688.73 1455 Q1691.81 1450.39 1697.62 1450.39 Z" fill="#000000" fill-rule="nonzero" fill-opacity="1" /><path clip-path="url(#clip020)" d="M1721.81 1481.64 L1738.13 1481.64 L1738.13 1485.58 L1716.19 1485.58 L1716.19 1481.64 Q1718.85 1478.89 1723.43 1474.26 Q1728.04 1469.61 1729.22 1468.27 Q1731.46 1465.74 1732.34 1464.01 Q1733.25 1462.25 1733.25 1460.56 Q1733.25 1457.8 1731.3 1456.07 Q1729.38 1454.33 1726.28 1454.33 Q1724.08 1454.33 1721.63 1455.09 Q1719.2 1455.86 1716.42 1457.41 L1716.42 1452.69 Q1719.24 1451.55 1721.7 1450.97 Q1724.15 1450.39 1726.19 1450.39 Q1731.56 1450.39 1734.75 1453.08 Q1737.95 1455.77 1737.95 1460.26 Q1737.95 1462.39 1737.14 1464.31 Q1736.35 1466.2 1734.24 1468.8 Q1733.66 1469.47 1730.56 1472.69 Q1727.46 1475.88 1721.81 1481.64 Z" fill="#000000" fill-rule="nonzero" fill-opacity="1" /><path clip-path="url(#clip020)" d="M1751.97 1481.64 L1768.29 1481.64 L1768.29 1485.58 L1746.35 1485.58 L1746.35 1481.64 Q1749.01 1478.89 1753.59 1474.26 Q1758.2 1469.61 1759.38 1468.27 Q1761.63 1465.74 1762.51 1464.01 Q1763.41 1462.25 1763.41 1460.56 Q1763.41 1457.8 1761.46 1456.07 Q1759.54 1454.33 1756.44 1454.33 Q1754.24 1454.33 1751.79 1455.09 Q1749.36 1455.86 1746.58 1457.41 L1746.58 1452.69 Q1749.4 1451.55 1751.86 1450.97 Q1754.31 1450.39 1756.35 1450.39 Q1761.72 1450.39 1764.91 1453.08 Q1768.11 1455.77 1768.11 1460.26 Q1768.11 1462.39 1767.3 1464.31 Q1766.51 1466.2 1764.4 1468.8 Q1763.83 1469.47 1760.72 1472.69 Q1757.62 1475.88 1751.97 1481.64 Z" fill="#000000" fill-rule="nonzero" fill-opacity="1" /><path clip-path="url(#clip020)" d="M1775.35 1470.7 L1787.83 1470.7 L1787.83 1474.49 L1775.35 1474.49 L1775.35 1470.7 Z" fill="#000000" fill-rule="nonzero" fill-opacity="1" /><path clip-path="url(#clip020)" d="M1805.21 1454.1 Q1801.6 1454.1 1799.77 1457.66 Q1797.97 1461.2 1797.97 1468.33 Q1797.97 1475.44 1799.77 1479.01 Q1801.6 1482.55 1805.21 1482.55 Q1808.85 1482.55 1810.65 1479.01 Q1812.48 1475.44 1812.48 1468.33 Q1812.48 1461.2 1810.65 1457.66 Q1808.85 1454.1 1805.21 1454.1 M1805.21 1450.39 Q1811.02 1450.39 1814.08 1455 Q1817.16 1459.58 1817.16 1468.33 Q1817.16 1477.06 1814.08 1481.67 Q1811.02 1486.25 1805.21 1486.25 Q1799.4 1486.25 1796.33 1481.67 Q1793.27 1477.06 1793.27 1468.33 Q1793.27 1459.58 1796.33 1455 Q1799.4 1450.39 1805.21 1450.39 Z" fill="#000000" fill-rule="nonzero" fill-opacity="1" /><path clip-path="url(#clip020)" d="M1826.19 1481.64 L1833.83 1481.64 L1833.83 1455.28 L1825.52 1456.95 L1825.52 1452.69 L1833.78 1451.02 L1838.45 1451.02 L1838.45 1481.64 L1846.09 1481.64 L1846.09 1485.58 L1826.19 1485.58 L1826.19 1481.64 Z" fill="#000000" fill-rule="nonzero" fill-opacity="1" /><path clip-path="url(#clip020)" d="M1852.78 1470.7 L1865.26 1470.7 L1865.26 1474.49 L1852.78 1474.49 L1852.78 1470.7 Z" fill="#000000" fill-rule="nonzero" fill-opacity="1" /><path clip-path="url(#clip020)" d="M1882.64 1454.1 Q1879.03 1454.1 1877.2 1457.66 Q1875.4 1461.2 1875.4 1468.33 Q1875.4 1475.44 1877.2 1479.01 Q1879.03 1482.55 1882.64 1482.55 Q1886.28 1482.55 1888.08 1479.01 Q1889.91 1475.44 1889.91 1468.33 Q1889.91 1461.2 1888.08 1457.66 Q1886.28 1454.1 1882.64 1454.1 M1882.64 1450.39 Q1888.45 1450.39 1891.51 1455 Q1894.59 1459.58 1894.59 1468.33 Q1894.59 1477.06 1891.51 1481.67 Q1888.45 1486.25 1882.64 1486.25 Q1876.83 1486.25 1873.76 1481.67 Q1870.7 1477.06 1870.7 1468.33 Q1870.7 1459.58 1873.76 1455 Q1876.83 1450.39 1882.64 1450.39 Z" fill="#000000" fill-rule="nonzero" fill-opacity="1" /><path clip-path="url(#clip020)" d="M1903.62 1481.64 L1911.26 1481.64 L1911.26 1455.28 L1902.95 1456.95 L1902.95 1452.69 L1911.21 1451.02 L1915.89 1451.02 L1915.89 1481.64 L1923.52 1481.64 L1923.52 1485.58 L1903.62 1485.58 L1903.62 1481.64 Z" fill="#000000" fill-rule="nonzero" fill-opacity="1" /><path clip-path="url(#clip020)" d="M2166.06 1481.64 L2182.38 1481.64 L2182.38 1485.58 L2160.43 1485.58 L2160.43 1481.64 Q2163.09 1478.89 2167.68 1474.26 Q2172.28 1469.61 2173.46 1468.27 Q2175.71 1465.74 2176.59 1464.01 Q2177.49 1462.25 2177.49 1460.56 Q2177.49 1457.8 2175.55 1456.07 Q2173.63 1454.33 2170.52 1454.33 Q2168.32 1454.33 2165.87 1455.09 Q2163.44 1455.86 2160.66 1457.41 L2160.66 1452.69 Q2163.49 1451.55 2165.94 1450.97 Q2168.39 1450.39 2170.43 1450.39 Q2175.8 1450.39 2179 1453.08 Q2182.19 1455.77 2182.19 1460.26 Q2182.19 1462.39 2181.38 1464.31 Q2180.59 1466.2 2178.49 1468.8 Q2177.91 1469.47 2174.81 1472.69 Q2171.7 1475.88 2166.06 1481.64 Z" fill="#000000" fill-rule="nonzero" fill-opacity="1" /><path clip-path="url(#clip020)" d="M2202.19 1454.1 Q2198.58 1454.1 2196.75 1457.66 Q2194.95 1461.2 2194.95 1468.33 Q2194.95 1475.44 2196.75 1479.01 Q2198.58 1482.55 2202.19 1482.55 Q2205.82 1482.55 2207.63 1479.01 Q2209.46 1475.44 2209.46 1468.33 Q2209.46 1461.2 2207.63 1457.66 Q2205.82 1454.1 2202.19 1454.1 M2202.19 1450.39 Q2208 1450.39 2211.06 1455 Q2214.13 1459.58 2214.13 1468.33 Q2214.13 1477.06 2211.06 1481.67 Q2208 1486.25 2202.19 1486.25 Q2196.38 1486.25 2193.3 1481.67 Q2190.25 1477.06 2190.25 1468.33 Q2190.25 1459.58 2193.3 1455 Q2196.38 1450.39 2202.19 1450.39 Z" fill="#000000" fill-rule="nonzero" fill-opacity="1" /><path clip-path="url(#clip020)" d="M2226.38 1481.64 L2242.7 1481.64 L2242.7 1485.58 L2220.76 1485.58 L2220.76 1481.64 Q2223.42 1478.89 2228 1474.26 Q2232.61 1469.61 2233.79 1468.27 Q2236.03 1465.74 2236.91 1464.01 Q2237.82 1462.25 2237.82 1460.56 Q2237.82 1457.8 2235.87 1456.07 Q2233.95 1454.33 2230.85 1454.33 Q2228.65 1454.33 2226.19 1455.09 Q2223.76 1455.86 2220.99 1457.41 L2220.99 1452.69 Q2223.81 1451.55 2226.26 1450.97 Q2228.72 1450.39 2230.76 1450.39 Q2236.13 1450.39 2239.32 1453.08 Q2242.51 1455.77 2242.51 1460.26 Q2242.51 1462.39 2241.7 1464.31 Q2240.92 1466.2 2238.81 1468.8 Q2238.23 1469.47 2235.13 1472.69 Q2232.03 1475.88 2226.38 1481.64 Z" fill="#000000" fill-rule="nonzero" fill-opacity="1" /><path clip-path="url(#clip020)" d="M2266.68 1466.95 Q2270.04 1467.66 2271.91 1469.93 Q2273.81 1472.2 2273.81 1475.53 Q2273.81 1480.65 2270.29 1483.45 Q2266.77 1486.25 2260.29 1486.25 Q2258.12 1486.25 2255.8 1485.81 Q2253.51 1485.39 2251.06 1484.54 L2251.06 1480.02 Q2253 1481.16 2255.32 1481.74 Q2257.63 1482.32 2260.15 1482.32 Q2264.55 1482.32 2266.84 1480.58 Q2269.16 1478.84 2269.16 1475.53 Q2269.16 1472.48 2267 1470.77 Q2264.88 1469.03 2261.06 1469.03 L2257.03 1469.03 L2257.03 1465.19 L2261.24 1465.19 Q2264.69 1465.19 2266.52 1463.82 Q2268.35 1462.43 2268.35 1459.84 Q2268.35 1457.18 2266.45 1455.77 Q2264.57 1454.33 2261.06 1454.33 Q2259.13 1454.33 2256.94 1454.75 Q2254.74 1455.16 2252.1 1456.04 L2252.1 1451.88 Q2254.76 1451.14 2257.07 1450.77 Q2259.41 1450.39 2261.47 1450.39 Q2266.8 1450.39 2269.9 1452.83 Q2273 1455.23 2273 1459.35 Q2273 1462.22 2271.36 1464.21 Q2269.71 1466.18 2266.68 1466.95 Z" fill="#000000" fill-rule="nonzero" fill-opacity="1" /><path clip-path="url(#clip020)" d="M2279.92 1470.7 L2292.4 1470.7 L2292.4 1474.49 L2279.92 1474.49 L2279.92 1470.7 Z" fill="#000000" fill-rule="nonzero" fill-opacity="1" /><path clip-path="url(#clip020)" d="M2309.78 1454.1 Q2306.17 1454.1 2304.34 1457.66 Q2302.54 1461.2 2302.54 1468.33 Q2302.54 1475.44 2304.34 1479.01 Q2306.17 1482.55 2309.78 1482.55 Q2313.42 1482.55 2315.22 1479.01 Q2317.05 1475.44 2317.05 1468.33 Q2317.05 1461.2 2315.22 1457.66 Q2313.42 1454.1 2309.78 1454.1 M2309.78 1450.39 Q2315.59 1450.39 2318.65 1455 Q2321.73 1459.58 2321.73 1468.33 Q2321.73 1477.06 2318.65 1481.67 Q2315.59 1486.25 2309.78 1486.25 Q2303.97 1486.25 2300.89 1481.67 Q2297.84 1477.06 2297.84 1468.33 Q2297.84 1459.58 2300.89 1455 Q2303.97 1450.39 2309.78 1450.39 Z" fill="#000000" fill-rule="nonzero" fill-opacity="1" /><path clip-path="url(#clip020)" d="M2330.75 1481.64 L2338.39 1481.64 L2338.39 1455.28 L2330.08 1456.95 L2330.08 1452.69 L2338.35 1451.02 L2343.02 1451.02 L2343.02 1481.64 L2350.66 1481.64 L2350.66 1485.58 L2330.75 1485.58 L2330.75 1481.64 Z" fill="#000000" fill-rule="nonzero" fill-opacity="1" /><path clip-path="url(#clip020)" d="M2357.35 1470.7 L2369.83 1470.7 L2369.83 1474.49 L2357.35 1474.49 L2357.35 1470.7 Z" fill="#000000" fill-rule="nonzero" fill-opacity="1" /><path clip-path="url(#clip020)" d="M2387.21 1454.1 Q2383.6 1454.1 2381.77 1457.66 Q2379.97 1461.2 2379.97 1468.33 Q2379.97 1475.44 2381.77 1479.01 Q2383.6 1482.55 2387.21 1482.55 Q2390.85 1482.55 2392.65 1479.01 Q2394.48 1475.44 2394.48 1468.33 Q2394.48 1461.2 2392.65 1457.66 Q2390.85 1454.1 2387.21 1454.1 M2387.21 1450.39 Q2393.02 1450.39 2396.08 1455 Q2399.16 1459.58 2399.16 1468.33 Q2399.16 1477.06 2396.08 1481.67 Q2393.02 1486.25 2387.21 1486.25 Q2381.4 1486.25 2378.32 1481.67 Q2375.27 1477.06 2375.27 1468.33 Q2375.27 1459.58 2378.32 1455 Q2381.4 1450.39 2387.21 1450.39 Z" fill="#000000" fill-rule="nonzero" fill-opacity="1" /><path clip-path="url(#clip020)" d="M2408.18 1481.64 L2415.82 1481.64 L2415.82 1455.28 L2407.51 1456.95 L2407.51 1452.69 L2415.78 1451.02 L2420.45 1451.02 L2420.45 1481.64 L2428.09 1481.64 L2428.09 1485.58 L2408.18 1485.58 L2408.18 1481.64 Z" fill="#000000" fill-rule="nonzero" fill-opacity="1" /><path clip-path="url(#clip020)" d="M1218.73 1525.81 L1218.73 1562.76 L1226.5 1562.76 Q1236.33 1562.76 1240.88 1558.3 Q1245.47 1553.85 1245.47 1544.24 Q1245.47 1534.69 1240.88 1530.26 Q1236.33 1525.81 1226.5 1525.81 L1218.73 1525.81 M1212.3 1520.52 L1225.51 1520.52 Q1239.32 1520.52 1245.79 1526.28 Q1252.25 1532.01 1252.25 1544.24 Q1252.25 1556.52 1245.75 1562.28 Q1239.26 1568.04 1225.51 1568.04 L1212.3 1568.04 L1212.3 1520.52 Z" fill="#000000" fill-rule="nonzero" fill-opacity="1" /><path clip-path="url(#clip020)" d="M1278.44 1550.12 Q1271.34 1550.12 1268.61 1551.75 Q1265.87 1553.37 1265.87 1557.29 Q1265.87 1560.4 1267.91 1562.25 Q1269.98 1564.07 1273.51 1564.07 Q1278.38 1564.07 1281.31 1560.63 Q1284.27 1557.16 1284.27 1551.43 L1284.27 1550.12 L1278.44 1550.12 M1290.12 1547.71 L1290.12 1568.04 L1284.27 1568.04 L1284.27 1562.63 Q1282.26 1565.88 1279.27 1567.44 Q1276.28 1568.97 1271.95 1568.97 Q1266.47 1568.97 1263.23 1565.91 Q1260.01 1562.82 1260.01 1557.67 Q1260.01 1551.65 1264.02 1548.6 Q1268.07 1545.54 1276.06 1545.54 L1284.27 1545.54 L1284.27 1544.97 Q1284.27 1540.93 1281.59 1538.73 Q1278.95 1536.5 1274.15 1536.5 Q1271.09 1536.5 1268.19 1537.23 Q1265.3 1537.97 1262.62 1539.43 L1262.62 1534.02 Q1265.84 1532.78 1268.86 1532.17 Q1271.89 1531.54 1274.75 1531.54 Q1282.48 1531.54 1286.3 1535.55 Q1290.12 1539.56 1290.12 1547.71 Z" fill="#000000" fill-rule="nonzero" fill-opacity="1" /><path clip-path="url(#clip020)" d="M1307.98 1522.27 L1307.98 1532.4 L1320.04 1532.4 L1320.04 1536.95 L1307.98 1536.95 L1307.98 1556.3 Q1307.98 1560.66 1309.16 1561.9 Q1310.37 1563.14 1314.03 1563.14 L1320.04 1563.14 L1320.04 1568.04 L1314.03 1568.04 Q1307.25 1568.04 1304.67 1565.53 Q1302.09 1562.98 1302.09 1556.3 L1302.09 1536.95 L1297.79 1536.95 L1297.79 1532.4 L1302.09 1532.4 L1302.09 1522.27 L1307.98 1522.27 Z" fill="#000000" fill-rule="nonzero" fill-opacity="1" /><path clip-path="url(#clip020)" d="M1358.24 1548.76 L1358.24 1551.62 L1331.31 1551.62 Q1331.69 1557.67 1334.94 1560.85 Q1338.22 1564 1344.04 1564 Q1347.41 1564 1350.57 1563.17 Q1353.75 1562.35 1356.87 1560.69 L1356.87 1566.23 Q1353.72 1567.57 1350.41 1568.27 Q1347.1 1568.97 1343.69 1568.97 Q1335.16 1568.97 1330.16 1564 Q1325.2 1559.04 1325.2 1550.57 Q1325.2 1541.82 1329.91 1536.69 Q1334.65 1531.54 1342.67 1531.54 Q1349.87 1531.54 1354.03 1536.18 Q1358.24 1540.8 1358.24 1548.76 M1352.38 1547.04 Q1352.32 1542.23 1349.67 1539.37 Q1347.06 1536.5 1342.74 1536.5 Q1337.83 1536.5 1334.87 1539.27 Q1331.95 1542.04 1331.5 1547.07 L1352.38 1547.04 Z" fill="#000000" fill-rule="nonzero" fill-opacity="1" /><polyline clip-path="url(#clip020)" style="stroke:#000000; stroke-linecap:round; stroke-linejoin:round; stroke-width:4; stroke-opacity:1; fill:none" points="217.783,1423.18 217.783,47.2441 "/>
<polyline clip-path="url(#clip020)" style="stroke:#000000; stroke-linecap:round; stroke-linejoin:round; stroke-width:4; stroke-opacity:1; fill:none" points="217.783,1365.85 236.681,1365.85 "/>
<polyline clip-path="url(#clip020)" style="stroke:#000000; stroke-linecap:round; stroke-linejoin:round; stroke-width:4; stroke-opacity:1; fill:none" points="217.783,1085.5 236.681,1085.5 "/>
<polyline clip-path="url(#clip020)" style="stroke:#000000; stroke-linecap:round; stroke-linejoin:round; stroke-width:4; stroke-opacity:1; fill:none" points="217.783,805.146 236.681,805.146 "/>
<polyline clip-path="url(#clip020)" style="stroke:#000000; stroke-linecap:round; stroke-linejoin:round; stroke-width:4; stroke-opacity:1; fill:none" points="217.783,524.791 236.681,524.791 "/>
<polyline clip-path="url(#clip020)" style="stroke:#000000; stroke-linecap:round; stroke-linejoin:round; stroke-width:4; stroke-opacity:1; fill:none" points="217.783,244.437 236.681,244.437 "/>
<path clip-path="url(#clip020)" d="M115.418 1379.2 L123.056 1379.2 L123.056 1352.83 L114.746 1354.5 L114.746 1350.24 L123.01 1348.57 L127.686 1348.57 L127.686 1379.2 L135.325 1379.2 L135.325 1383.13 L115.418 1383.13 L115.418 1379.2 Z" fill="#000000" fill-rule="nonzero" fill-opacity="1" /><path clip-path="url(#clip020)" d="M144.769 1377.26 L149.653 1377.26 L149.653 1383.13 L144.769 1383.13 L144.769 1377.26 Z" fill="#000000" fill-rule="nonzero" fill-opacity="1" /><path clip-path="url(#clip020)" d="M169.839 1351.65 Q166.227 1351.65 164.399 1355.22 Q162.593 1358.76 162.593 1365.89 Q162.593 1373 164.399 1376.56 Q166.227 1380.1 169.839 1380.1 Q173.473 1380.1 175.278 1376.56 Q177.107 1373 177.107 1365.89 Q177.107 1358.76 175.278 1355.22 Q173.473 1351.65 169.839 1351.65 M169.839 1347.95 Q175.649 1347.95 178.704 1352.56 Q181.783 1357.14 181.783 1365.89 Q181.783 1374.62 178.704 1379.22 Q175.649 1383.81 169.839 1383.81 Q164.028 1383.81 160.95 1379.22 Q157.894 1374.62 157.894 1365.89 Q157.894 1357.14 160.95 1352.56 Q164.028 1347.95 169.839 1347.95 Z" fill="#000000" fill-rule="nonzero" fill-opacity="1" /><path clip-path="url(#clip020)" d="M117.015 1098.85 L124.654 1098.85 L124.654 1072.48 L116.343 1074.15 L116.343 1069.89 L124.607 1068.22 L129.283 1068.22 L129.283 1098.85 L136.922 1098.85 L136.922 1102.78 L117.015 1102.78 L117.015 1098.85 Z" fill="#000000" fill-rule="nonzero" fill-opacity="1" /><path clip-path="url(#clip020)" d="M146.366 1096.9 L151.251 1096.9 L151.251 1102.78 L146.366 1102.78 L146.366 1096.9 Z" fill="#000000" fill-rule="nonzero" fill-opacity="1" /><path clip-path="url(#clip020)" d="M165.464 1098.85 L181.783 1098.85 L181.783 1102.78 L159.839 1102.78 L159.839 1098.85 Q162.501 1096.09 167.084 1091.46 Q171.69 1086.81 172.871 1085.47 Q175.116 1082.94 175.996 1081.21 Q176.899 1079.45 176.899 1077.76 Q176.899 1075 174.954 1073.27 Q173.033 1071.53 169.931 1071.53 Q167.732 1071.53 165.278 1072.29 Q162.848 1073.06 160.07 1074.61 L160.07 1069.89 Q162.894 1068.75 165.348 1068.17 Q167.802 1067.6 169.839 1067.6 Q175.209 1067.6 178.403 1070.28 Q181.598 1072.97 181.598 1077.46 Q181.598 1079.59 180.788 1081.51 Q180.001 1083.41 177.894 1086 Q177.315 1086.67 174.214 1089.89 Q171.112 1093.08 165.464 1098.85 Z" fill="#000000" fill-rule="nonzero" fill-opacity="1" /><path clip-path="url(#clip020)" d="M114.931 818.491 L122.57 818.491 L122.57 792.125 L114.26 793.792 L114.26 789.532 L122.524 787.866 L127.2 787.866 L127.2 818.491 L134.839 818.491 L134.839 822.426 L114.931 822.426 L114.931 818.491 Z" fill="#000000" fill-rule="nonzero" fill-opacity="1" /><path clip-path="url(#clip020)" d="M144.283 816.546 L149.167 816.546 L149.167 822.426 L144.283 822.426 L144.283 816.546 Z" fill="#000000" fill-rule="nonzero" fill-opacity="1" /><path clip-path="url(#clip020)" d="M172.2 791.94 L160.394 810.389 L172.2 810.389 L172.2 791.94 M170.973 787.866 L176.852 787.866 L176.852 810.389 L181.783 810.389 L181.783 814.278 L176.852 814.278 L176.852 822.426 L172.2 822.426 L172.2 814.278 L156.598 814.278 L156.598 809.764 L170.973 787.866 Z" fill="#000000" fill-rule="nonzero" fill-opacity="1" /><path clip-path="url(#clip020)" d="M115.256 538.136 L122.894 538.136 L122.894 511.771 L114.584 513.437 L114.584 509.178 L122.848 507.511 L127.524 507.511 L127.524 538.136 L135.163 538.136 L135.163 542.071 L115.256 542.071 L115.256 538.136 Z" fill="#000000" fill-rule="nonzero" fill-opacity="1" /><path clip-path="url(#clip020)" d="M144.607 536.192 L149.491 536.192 L149.491 542.071 L144.607 542.071 L144.607 536.192 Z" fill="#000000" fill-rule="nonzero" fill-opacity="1" /><path clip-path="url(#clip020)" d="M170.255 522.928 Q167.107 522.928 165.255 525.081 Q163.427 527.233 163.427 530.983 Q163.427 534.71 165.255 536.886 Q167.107 539.039 170.255 539.039 Q173.403 539.039 175.232 536.886 Q177.084 534.71 177.084 530.983 Q177.084 527.233 175.232 525.081 Q173.403 522.928 170.255 522.928 M179.538 508.275 L179.538 512.534 Q177.778 511.701 175.973 511.261 Q174.19 510.821 172.431 510.821 Q167.802 510.821 165.348 513.946 Q162.917 517.071 162.57 523.391 Q163.936 521.377 165.996 520.312 Q168.056 519.224 170.533 519.224 Q175.741 519.224 178.751 522.395 Q181.783 525.544 181.783 530.983 Q181.783 536.307 178.635 539.525 Q175.487 542.743 170.255 542.743 Q164.26 542.743 161.089 538.159 Q157.917 533.553 157.917 524.826 Q157.917 516.632 161.806 511.771 Q165.695 506.886 172.246 506.886 Q174.005 506.886 175.788 507.234 Q177.593 507.581 179.538 508.275 Z" fill="#000000" fill-rule="nonzero" fill-opacity="1" /><path clip-path="url(#clip020)" d="M115.51 257.782 L123.149 257.782 L123.149 231.416 L114.839 233.083 L114.839 228.823 L123.103 227.157 L127.779 227.157 L127.779 257.782 L135.417 257.782 L135.417 261.717 L115.51 261.717 L115.51 257.782 Z" fill="#000000" fill-rule="nonzero" fill-opacity="1" /><path clip-path="url(#clip020)" d="M144.862 255.837 L149.746 255.837 L149.746 261.717 L144.862 261.717 L144.862 255.837 Z" fill="#000000" fill-rule="nonzero" fill-opacity="1" /><path clip-path="url(#clip020)" d="M169.931 245.305 Q166.598 245.305 164.677 247.087 Q162.778 248.87 162.778 251.995 Q162.778 255.12 164.677 256.902 Q166.598 258.684 169.931 258.684 Q173.264 258.684 175.186 256.902 Q177.107 255.096 177.107 251.995 Q177.107 248.87 175.186 247.087 Q173.288 245.305 169.931 245.305 M165.255 243.314 Q162.246 242.573 160.556 240.513 Q158.89 238.453 158.89 235.49 Q158.89 231.347 161.829 228.939 Q164.792 226.532 169.931 226.532 Q175.093 226.532 178.033 228.939 Q180.973 231.347 180.973 235.49 Q180.973 238.453 179.283 240.513 Q177.616 242.573 174.63 243.314 Q178.01 244.101 179.885 246.393 Q181.783 248.684 181.783 251.995 Q181.783 257.018 178.704 259.703 Q175.649 262.388 169.931 262.388 Q164.214 262.388 161.135 259.703 Q158.079 257.018 158.079 251.995 Q158.079 248.684 159.978 246.393 Q161.876 244.101 165.255 243.314 M163.542 235.93 Q163.542 238.615 165.209 240.12 Q166.899 241.624 169.931 241.624 Q172.94 241.624 174.63 240.12 Q176.343 238.615 176.343 235.93 Q176.343 233.245 174.63 231.74 Q172.94 230.235 169.931 230.235 Q166.899 230.235 165.209 231.74 Q163.542 233.245 163.542 235.93 Z" fill="#000000" fill-rule="nonzero" fill-opacity="1" /><path clip-path="url(#clip020)" d="M20.1444 1028.58 L26.9239 1028.58 Q23.9002 1031.82 22.4043 1035.51 Q20.9083 1039.17 20.9083 1043.31 Q20.9083 1051.46 25.9054 1055.79 Q30.8707 1060.12 40.2919 1060.12 Q49.6813 1060.12 54.6784 1055.79 Q59.6436 1051.46 59.6436 1043.31 Q59.6436 1039.17 58.1477 1035.51 Q56.6518 1031.82 53.6281 1028.58 L60.3439 1028.58 Q62.6355 1031.95 63.7814 1035.74 Q64.9272 1039.49 64.9272 1043.69 Q64.9272 1054.48 58.3387 1060.69 Q51.7183 1066.9 40.2919 1066.9 Q28.8336 1066.9 22.2451 1060.69 Q15.6248 1054.48 15.6248 1043.69 Q15.6248 1039.43 16.7706 1035.67 Q17.8846 1031.89 20.1444 1028.58 Z" fill="#000000" fill-rule="nonzero" fill-opacity="1" /><path clip-path="url(#clip020)" d="M49.9359 1019.5 L28.3562 1019.5 L28.3562 1013.65 L49.7131 1013.65 Q54.7739 1013.65 57.3202 1011.67 Q59.8346 1009.7 59.8346 1005.75 Q59.8346 1001.01 56.8109 998.275 Q53.7872 995.506 48.5673 995.506 L28.3562 995.506 L28.3562 989.649 L64.0042 989.649 L64.0042 995.506 L58.5296 995.506 Q61.7762 997.638 63.3676 1000.47 Q64.9272 1003.27 64.9272 1007 Q64.9272 1013.14 61.1078 1016.32 Q57.2883 1019.5 49.9359 1019.5 M27.4968 1004.77 L27.4968 1004.77 Z" fill="#000000" fill-rule="nonzero" fill-opacity="1" /><path clip-path="url(#clip020)" d="M35.1993 949.832 Q31.2526 947.636 29.3747 944.58 Q27.4968 941.525 27.4968 937.387 Q27.4968 931.817 31.4117 928.793 Q35.2948 925.769 42.4881 925.769 L64.0042 925.769 L64.0042 931.658 L42.679 931.658 Q37.5546 931.658 35.072 933.472 Q32.5894 935.286 32.5894 939.01 Q32.5894 943.562 35.6131 946.203 Q38.6368 948.845 43.8567 948.845 L64.0042 948.845 L64.0042 954.733 L42.679 954.733 Q37.5228 954.733 35.072 956.548 Q32.5894 958.362 32.5894 962.149 Q32.5894 966.637 35.6449 969.279 Q38.6686 971.921 43.8567 971.921 L64.0042 971.921 L64.0042 977.809 L28.3562 977.809 L28.3562 971.921 L33.8944 971.921 Q30.616 969.916 29.0564 967.115 Q27.4968 964.314 27.4968 960.462 Q27.4968 956.579 29.4702 953.874 Q31.4436 951.137 35.1993 949.832 Z" fill="#000000" fill-rule="nonzero" fill-opacity="1" /><path clip-path="url(#clip020)" d="M35.1993 886.334 Q31.2526 884.138 29.3747 881.082 Q27.4968 878.027 27.4968 873.889 Q27.4968 868.319 31.4117 865.295 Q35.2948 862.271 42.4881 862.271 L64.0042 862.271 L64.0042 868.16 L42.679 868.16 Q37.5546 868.16 35.072 869.974 Q32.5894 871.788 32.5894 875.512 Q32.5894 880.064 35.6131 882.705 Q38.6368 885.347 43.8567 885.347 L64.0042 885.347 L64.0042 891.235 L42.679 891.235 Q37.5228 891.235 35.072 893.05 Q32.5894 894.864 32.5894 898.651 Q32.5894 903.139 35.6449 905.781 Q38.6686 908.423 43.8567 908.423 L64.0042 908.423 L64.0042 914.311 L28.3562 914.311 L28.3562 908.423 L33.8944 908.423 Q30.616 906.418 29.0564 903.617 Q27.4968 900.816 27.4968 896.965 Q27.4968 893.081 29.4702 890.376 Q31.4436 887.639 35.1993 886.334 Z" fill="#000000" fill-rule="nonzero" fill-opacity="1" /><path clip-path="url(#clip020)" d="M49.9359 851.195 L28.3562 851.195 L28.3562 845.339 L49.7131 845.339 Q54.7739 845.339 57.3202 843.365 Q59.8346 841.392 59.8346 837.445 Q59.8346 832.703 56.8109 829.966 Q53.7872 827.196 48.5673 827.196 L28.3562 827.196 L28.3562 821.34 L64.0042 821.34 L64.0042 827.196 L58.5296 827.196 Q61.7762 829.329 63.3676 832.162 Q64.9272 834.963 64.9272 838.687 Q64.9272 844.829 61.1078 848.012 Q57.2883 851.195 49.9359 851.195 M27.4968 836.459 L27.4968 836.459 Z" fill="#000000" fill-rule="nonzero" fill-opacity="1" /><path clip-path="url(#clip020)" d="M14.479 809.277 L14.479 803.421 L64.0042 803.421 L64.0042 809.277 L14.479 809.277 Z" fill="#000000" fill-rule="nonzero" fill-opacity="1" /><path clip-path="url(#clip020)" d="M46.0847 774.966 Q46.0847 782.064 47.7079 784.801 Q49.3312 787.538 53.2461 787.538 Q56.3653 787.538 58.2114 785.501 Q60.0256 783.432 60.0256 779.899 Q60.0256 775.029 56.5881 772.101 Q53.1188 769.141 47.3897 769.141 L46.0847 769.141 L46.0847 774.966 M43.6657 763.285 L64.0042 763.285 L64.0042 769.141 L58.5933 769.141 Q61.8398 771.146 63.3994 774.138 Q64.9272 777.13 64.9272 781.459 Q64.9272 786.933 61.8716 790.18 Q58.7843 793.395 53.6281 793.395 Q47.6125 793.395 44.5569 789.384 Q41.5014 785.342 41.5014 777.353 L41.5014 769.141 L40.9285 769.141 Q36.8862 769.141 34.6901 771.815 Q32.4621 774.457 32.4621 779.263 Q32.4621 782.318 33.1941 785.215 Q33.9262 788.111 35.3903 790.785 L29.9795 790.785 Q28.7381 787.57 28.1334 784.546 Q27.4968 781.522 27.4968 778.658 Q27.4968 770.924 31.5072 767.104 Q35.5176 763.285 43.6657 763.285 Z" fill="#000000" fill-rule="nonzero" fill-opacity="1" /><path clip-path="url(#clip020)" d="M18.2347 745.429 L28.3562 745.429 L28.3562 733.366 L32.9077 733.366 L32.9077 745.429 L52.2594 745.429 Q56.6199 745.429 57.8613 744.251 Q59.1026 743.042 59.1026 739.382 L59.1026 733.366 L64.0042 733.366 L64.0042 739.382 Q64.0042 746.161 61.4897 748.739 Q58.9434 751.317 52.2594 751.317 L32.9077 751.317 L32.9077 755.614 L28.3562 755.614 L28.3562 751.317 L18.2347 751.317 L18.2347 745.429 Z" fill="#000000" fill-rule="nonzero" fill-opacity="1" /><path clip-path="url(#clip020)" d="M28.3562 725.663 L28.3562 719.807 L64.0042 719.807 L64.0042 725.663 L28.3562 725.663 M14.479 725.663 L14.479 719.807 L21.895 719.807 L21.895 725.663 L14.479 725.663 Z" fill="#000000" fill-rule="nonzero" fill-opacity="1" /><path clip-path="url(#clip020)" d="M28.3562 711.754 L28.3562 705.548 L58.275 694.408 L28.3562 683.268 L28.3562 677.061 L64.0042 690.429 L64.0042 698.386 L28.3562 711.754 Z" fill="#000000" fill-rule="nonzero" fill-opacity="1" /><path clip-path="url(#clip020)" d="M44.7161 638.485 L47.5806 638.485 L47.5806 665.412 Q53.6281 665.03 56.8109 661.784 Q59.9619 658.505 59.9619 652.681 Q59.9619 649.307 59.1344 646.156 Q58.3069 642.973 56.6518 639.854 L62.1899 639.854 Q63.5267 643.005 64.227 646.315 Q64.9272 649.625 64.9272 653.031 Q64.9272 661.561 59.9619 666.558 Q54.9967 671.523 46.5303 671.523 Q37.7774 671.523 32.6531 666.812 Q27.4968 662.07 27.4968 654.049 Q27.4968 646.856 32.1438 642.686 Q36.7589 638.485 44.7161 638.485 M42.9973 644.342 Q38.1912 644.405 35.3266 647.047 Q32.4621 649.657 32.4621 653.986 Q32.4621 658.887 35.2312 661.847 Q38.0002 664.775 43.0292 665.221 L42.9973 644.342 Z" fill="#000000" fill-rule="nonzero" fill-opacity="1" /><path clip-path="url(#clip020)" d="M41.7242 585.363 Q42.4244 583.294 44.7161 581.353 Q47.0077 579.379 51.0181 577.406 L64.0042 570.881 L64.0042 577.788 L51.8138 583.867 Q47.0395 586.223 45.48 588.451 Q43.9204 590.647 43.9204 594.466 L43.9204 601.468 L64.0042 601.468 L64.0042 607.898 L16.4842 607.898 L16.4842 593.384 Q16.4842 585.236 19.8898 581.226 Q23.2955 577.215 30.1704 577.215 Q34.6582 577.215 37.6183 579.316 Q40.5784 581.385 41.7242 585.363 M21.7677 601.468 L38.6368 601.468 L38.6368 593.384 Q38.6368 588.737 36.5043 586.382 Q34.34 583.995 30.1704 583.995 Q26.0009 583.995 23.9002 586.382 Q21.7677 588.737 21.7677 593.384 L21.7677 601.468 Z" fill="#000000" fill-rule="nonzero" fill-opacity="1" /><path clip-path="url(#clip020)" d="M44.7161 535.297 L47.5806 535.297 L47.5806 562.224 Q53.6281 561.842 56.8109 558.595 Q59.9619 555.317 59.9619 549.492 Q59.9619 546.119 59.1344 542.968 Q58.3069 539.785 56.6518 536.666 L62.1899 536.666 Q63.5267 539.817 64.227 543.127 Q64.9272 546.437 64.9272 549.843 Q64.9272 558.373 59.9619 563.37 Q54.9967 568.335 46.5303 568.335 Q37.7774 568.335 32.6531 563.624 Q27.4968 558.882 27.4968 550.861 Q27.4968 543.668 32.1438 539.498 Q36.7589 535.297 44.7161 535.297 M42.9973 541.153 Q38.1912 541.217 35.3266 543.859 Q32.4621 546.469 32.4621 550.797 Q32.4621 555.699 35.2312 558.659 Q38.0002 561.587 43.0292 562.033 L42.9973 541.153 Z" fill="#000000" fill-rule="nonzero" fill-opacity="1" /><path clip-path="url(#clip020)" d="M18.2347 519.892 L28.3562 519.892 L28.3562 507.829 L32.9077 507.829 L32.9077 519.892 L52.2594 519.892 Q56.6199 519.892 57.8613 518.714 Q59.1026 517.505 59.1026 513.845 L59.1026 507.829 L64.0042 507.829 L64.0042 513.845 Q64.0042 520.624 61.4897 523.202 Q58.9434 525.78 52.2594 525.78 L32.9077 525.78 L32.9077 530.077 L28.3562 530.077 L28.3562 525.78 L18.2347 525.78 L18.2347 519.892 Z" fill="#000000" fill-rule="nonzero" fill-opacity="1" /><path clip-path="url(#clip020)" d="M49.9359 500.731 L28.3562 500.731 L28.3562 494.875 L49.7131 494.875 Q54.7739 494.875 57.3202 492.901 Q59.8346 490.928 59.8346 486.981 Q59.8346 482.239 56.8109 479.502 Q53.7872 476.732 48.5673 476.732 L28.3562 476.732 L28.3562 470.876 L64.0042 470.876 L64.0042 476.732 L58.5296 476.732 Q61.7762 478.865 63.3676 481.698 Q64.9272 484.499 64.9272 488.223 Q64.9272 494.365 61.1078 497.548 Q57.2883 500.731 49.9359 500.731 M27.4968 485.995 L27.4968 485.995 Z" fill="#000000" fill-rule="nonzero" fill-opacity="1" /><path clip-path="url(#clip020)" d="M33.8307 438.156 Q33.2578 439.143 33.0032 440.321 Q32.7167 441.466 32.7167 442.867 Q32.7167 447.832 35.9632 450.506 Q39.1779 453.148 45.2253 453.148 L64.0042 453.148 L64.0042 459.036 L28.3562 459.036 L28.3562 453.148 L33.8944 453.148 Q30.6479 451.301 29.0883 448.341 Q27.4968 445.381 27.4968 441.148 Q27.4968 440.543 27.5923 439.811 Q27.656 439.079 27.8151 438.188 L33.8307 438.156 Z" fill="#000000" fill-rule="nonzero" fill-opacity="1" /><path clip-path="url(#clip020)" d="M42.4881 403.527 L64.0042 403.527 L64.0042 409.383 L42.679 409.383 Q37.6183 409.383 35.1038 411.357 Q32.5894 413.33 32.5894 417.277 Q32.5894 422.019 35.6131 424.756 Q38.6368 427.494 43.8567 427.494 L64.0042 427.494 L64.0042 433.382 L28.3562 433.382 L28.3562 427.494 L33.8944 427.494 Q30.6797 425.393 29.0883 422.56 Q27.4968 419.696 27.4968 415.972 Q27.4968 409.829 31.3163 406.678 Q35.1038 403.527 42.4881 403.527 Z" fill="#000000" fill-rule="nonzero" fill-opacity="1" /><polyline clip-path="url(#clip022)" style="stroke:#009af9; stroke-linecap:round; stroke-linejoin:round; stroke-width:4; stroke-opacity:1; fill:none" points="278.207,1374.26 279.589,1355.61 283.736,1328.79 285.119,1316.44 286.501,1317.95 287.883,1305.93 289.266,1303.42 293.413,1332.68 294.795,1335.48 296.178,1327.09 297.56,1324.54 298.942,1318.72 304.472,1331.16 305.854,1327.37 307.237,1333.55 308.619,1321.24 312.766,1329.46 314.149,1323.02 315.531,1305.01 316.913,1302.59 318.296,1294.52 322.443,1282.5 323.825,1287.45 325.208,1287.91 326.59,1289.58 327.972,1283.19 332.119,1282.49 333.502,1277.32 334.884,1270.52 336.267,1267.84 337.649,1261.96 343.178,1259.45 344.561,1258.51 345.943,1253.47 347.326,1228.21 351.473,1228.06 352.855,1236.45 354.238,1251.16 355.62,1256.21 357.002,1250.75 361.149,1251.69 362.532,1239.92 363.914,1247.56 365.297,1247.08 366.679,1250.75 370.768,1246.18 372.151,1238.6 373.533,1231.58 374.916,1270.87 376.298,1249.97 380.445,1250.91 381.827,1250.45 383.21,1256.11 384.592,1250.31 385.975,1266.49 390.122,1262.35 391.504,1263.41 392.887,1274.68 394.269,1266.22 395.651,1260.71 399.798,1256.73 401.181,1261.25 402.563,1255.52 403.946,1244.97 405.328,1233.79 409.475,1230.42 410.857,1232.4 412.24,1226.28 413.622,1222.6 415.005,1219.2 419.152,1216.73 420.534,1218.43 421.916,1213.08 423.299,1209.82 428.828,1198.45 430.211,1196.6 431.593,1206.84 432.975,1205.08 434.358,1206.67 438.505,1204.57 439.887,1192.45 441.27,1197.76 442.652,1198.37 444.035,1175.55 448.182,1188.89 449.564,1196.91 450.946,1195.6 452.329,1196.6 453.711,1201.17 457.858,1233.92 459.241,1230.08 460.623,1221.87 462.005,1208.83 463.388,1205.52 467.535,1210.1 468.917,1195.15 470.3,1202.8 471.682,1226.75 473.064,1226.13 478.594,1249.34 479.976,1264.33 481.359,1212.63 482.741,1225.06 486.888,1212.76 488.271,1193.01 489.653,1196.99 491.035,1182.41 492.418,1169.48 496.565,1158.82 497.947,1157.77 499.33,1149.7 500.712,1141.64 502.094,1147.07 506.242,1146.03 507.624,1132.79 509.006,1125.85 510.389,1122.36 511.771,1131.79 515.918,1136.22 517.301,1144.73 518.683,1144.2 520.065,1138.23 521.448,1145.16 525.595,1129.73 526.977,1117.72 528.36,1106.57 531.124,1093.71 535.272,1106.33 536.654,1099.13 538.036,1087.29 539.419,1082.67 540.801,1066.86 544.948,1069.53 546.331,1054.71 547.713,1063.43 549.095,1071.33 550.478,1077.55 554.625,1092 556.007,1089.67 557.39,1075.16 558.772,1084.36 560.154,1058.89 564.301,1073.39 565.684,1089.74 567.066,1089.12 568.449,1091.29 569.831,1073.92 573.978,1102.53 575.36,1083.17 576.743,1081.8 578.125,1056.24 579.508,1061.56 583.655,1070.54 585.037,1064.04 586.42,1074.85 587.802,1074.35 589.184,1051.52 593.331,1028.24 594.714,1035.83 596.096,1024.81 597.479,1025.59 598.861,1045.72 603.008,1027.4 604.39,1039.18 605.773,1023.16 607.155,948.002 608.538,950.632 614.067,941.177 615.449,921.881 616.832,912.057 618.214,897.009 622.361,905.371 623.744,925.363 625.126,919.52 626.508,918.259 627.891,916.436 632.038,935.556 633.42,899.595 634.803,911.577 636.185,912.872 637.568,928.542 641.715,920.283 643.097,926.624 644.479,921.315 645.862,915.211 647.244,912.267 651.391,913.364 652.774,920.969 654.156,927.626 655.538,925.485 656.921,908.447 661.068,908.151 662.45,918.608 663.833,913.117 665.215,912.031 666.597,903.469 670.745,904.456 672.127,895.86 673.509,908.271 674.892,893.737 676.274,891.768 680.421,892.185 681.804,891.473 683.186,903.156 684.568,890.004 685.951,888.712 690.098,887.468 691.48,901.968 692.863,881.656 694.245,877.508 695.627,875.037 699.832,883.939 701.215,872.327 702.597,878.453 703.979,877.407 705.362,880.049 709.509,881.083 710.891,877.963 712.274,873.585 713.656,853.799 715.038,851.608 719.185,852.393 720.568,858.651 721.95,857.926 723.333,856.047 724.715,862.039 728.862,857.172 730.244,863.734 731.627,854.035 734.392,866.83 738.539,887.68 739.921,906.743 741.303,900.899 742.686,903.306 744.068,899.261 748.215,901.127 749.598,889.936 750.98,899.538 752.363,877.969 753.745,877.833 757.892,885.083 759.274,881.518 760.657,880.253 762.039,870.31 763.422,867.194 767.569,855.783 768.951,852.639 771.716,851.347 773.098,846.842 777.245,848.094 778.628,849.369 781.392,848.188 782.775,858.22 786.922,861.21 788.304,874.794 789.687,879.972 791.069,871.065 792.451,870.813 796.599,864.625 797.981,848.442 799.363,848.172 800.746,830.673 802.128,830.105 807.658,832.292 809.04,836.876 810.422,829.61 811.805,843.634 815.952,856.505 817.334,845.889 818.717,852.513 820.099,853.841 821.481,872.624 825.629,851.746 827.011,838.332 828.393,839.046 829.776,844.482 831.158,854.785 835.305,843.116 836.688,838.858 838.07,821.756 839.452,815.174 840.835,822.558 846.364,809.383 847.747,797.052 849.129,787.916 850.511,792.669 854.659,820.269 856.041,846.819 857.423,848.643 858.806,901.026 860.188,948.819 864.335,882.547 865.718,917.299 867.1,887.083 868.482,908.989 869.865,918.693 873.954,967.716 875.337,888.406 876.719,978.203 878.101,1139.01 879.484,1075.7 883.631,1269.71 885.013,1172.33 886.396,1335.12 887.778,1357.42 889.16,1356.8 893.308,1384.24 894.69,1215.16 896.072,1207.67 897.455,1174.19 898.837,1236.49 902.984,1206.04 904.367,1187.53 905.749,1186.8 907.131,1142.64 908.514,1151.72 912.661,1084.65 914.043,1081.8 915.426,1056.06 916.808,1011.04 922.337,1004.96 923.72,952.349 925.102,972.361 926.485,908.69 927.867,863.882 932.014,919.355 933.397,981.917 934.779,957.53 936.161,937.652 937.544,962.06 941.691,933.222 943.073,933.279 944.456,901.518 945.838,906.568 947.22,950.268 951.367,942.168 952.75,980.47 954.132,969.491 955.515,990.473 956.897,966.22 961.044,928.215 962.426,937.641 963.809,950.237 965.191,953.907 966.574,942.721 970.721,893.686 972.103,895.092 973.485,892.606 974.868,882.562 976.25,879.369 981.78,848.682 983.162,795.293 984.545,828.003 985.927,806.201 990.074,765.924 991.456,767.277 992.839,761.309 994.221,782.859 995.604,756.871 999.751,737.642 1001.13,749.521 1002.52,742.827 1003.9,818.311 1005.28,815.651 1009.43,779.839 1010.81,769.282 1012.19,780.472 1013.57,770.079 1014.96,789.168 1019.1,750.443 1020.49,776.766 1021.87,788.067 1023.25,780.968 1024.63,805.778 1028.78,789.683 1030.16,787.569 1031.55,792.153 1032.93,795.42 1038.46,806.974 1039.84,803.807 1041.22,806.674 1042.6,798.213 1043.99,803.725 1048.13,823.341 1049.52,802.08 1050.9,782.874 1052.28,796.654 1053.66,802.807 1057.81,789.547 1059.19,788.543 1060.58,771.312 1061.96,786.058 1063.34,779.631 1067.49,787.057 1068.87,798.06 1070.25,792.876 1071.63,791.576 1073.02,798.463 1077.16,780.433 1078.55,766.164 1079.93,763.793 1081.31,773.285 1082.69,755.518 1086.84,749.687 1088.22,755.8 1089.61,728.164 1090.99,728.088 1092.37,714.041 1096.52,698.33 1097.9,714.64 1099.28,708.171 1100.66,736.701 1102.05,729.754 1106.19,726.896 1107.58,722.901 1108.96,715.451 1110.34,730.699 1111.72,720.27 1115.87,719.225 1117.25,733.74 1118.64,705.02 1120.02,755.109 1121.4,767.742 1126.93,772.359 1128.31,751.993 1129.69,772.231 1131.08,757.704 1135.22,728.364 1136.61,750.419 1137.99,744.889 1139.37,747.077 1140.75,742.65 1144.9,786.006 1146.28,768.649 1147.67,793.742 1149.05,794.176 1150.43,781.943 1154.58,760.951 1155.96,758.897 1157.34,752.713 1158.72,729.671 1160.11,740.575 1164.25,725.512 1165.64,732.176 1167.02,702.198 1168.4,665.095 1169.78,663.313 1173.93,665.223 1175.31,658.697 1176.7,673.016 1178.08,666.374 1179.46,686.041 1183.61,705.435 1184.99,702.033 1186.37,692.85 1187.75,704.524 1189.14,701.879 1193.28,743.127 1194.67,726.647 1196.05,767.721 1197.43,746.923 1198.81,760.9 1203.02,742.025 1204.4,708.143 1205.78,689.157 1207.17,663.332 1208.55,647.767 1212.69,680.497 1214.08,687.456 1215.46,649.155 1216.84,603.4 1218.22,586.058 1222.37,543.18 1223.75,562.602 1225.14,574.241 1226.52,565.157 1227.9,564.524 1232.05,557.048 1233.43,540.039 1234.81,532.817 1237.58,530.211 1241.72,549.397 1243.11,537.613 1244.49,544.722 1245.87,543.257 1247.25,561.528 1251.4,544.677 1252.78,552.908 1254.17,567.905 1255.55,563.833 1256.93,578.839 1261.08,579.861 1262.46,565.5 1263.84,555.277 1265.22,552.126 1266.61,563.639 1270.75,565.81 1272.14,552.249 1273.52,568.789 1274.9,566.274 1280.43,563.439 1281.81,559.043 1283.2,552.663 1284.58,541.863 1290.11,560.27 1291.49,565.89 1292.87,508.439 1294.25,507.839 1295.64,535.39 1299.78,550.335 1301.17,534.462 1302.55,509.874 1303.93,531.091 1305.31,536.842 1310.84,547.422 1312.23,535.847 1313.61,547.861 1314.99,545.174 1319.14,537.761 1320.52,510.832 1321.9,538.229 1323.28,571.969 1324.67,604.691 1328.81,601.938 1330.2,594.155 1331.58,591.689 1332.96,583.036 1334.34,583.918 1338.49,548.335 1339.87,525.336 1341.26,535.699 1342.64,542.355 1344.02,547.513 1349.55,546.505 1350.93,542.55 1352.31,532.88 1353.7,536.376 1357.84,539.752 1359.23,576.594 1360.61,577.793 1361.99,608.842 1363.37,594.563 1367.52,570.728 1368.9,603.507 1370.29,624.873 1371.67,666.358 1373.05,650.419 1377.2,637.278 1378.58,618.022 1379.96,602.586 1381.34,578.662 1382.73,559.868 1386.82,535.529 1388.2,526.326 1389.58,552.273 1390.96,617.802 1392.35,576.485 1396.49,533.046 1397.88,524.177 1399.26,535.611 1400.64,524.069 1402.02,490.942 1406.17,500.154 1407.55,503.911 1408.93,498.869 1410.32,476.028 1415.85,438.956 1417.23,433.942 1418.61,430.75 1419.99,417.978 1421.38,406.873 1425.52,411.525 1426.91,400.382 1428.29,395.798 1429.67,392.895 1431.05,392.233 1435.2,397.079 1436.58,385.873 1437.96,385.879 1439.35,392.727 1440.73,391.743 1444.88,383.595 1446.26,375.439 1447.64,387.384 1449.02,357.266 1450.41,364.209 1454.55,348.664 1455.94,357.719 1457.32,359.685 1458.7,348.86 1460.08,331.965 1464.23,346.319 1465.61,381.3 1466.99,427.319 1468.38,413.555 1469.76,394.878 1473.91,405.773 1475.29,405.531 1476.67,435.467 1478.05,406.056 1479.44,413.883 1483.58,429.139 1484.97,434.783 1486.35,419.338 1487.73,379.901 1489.11,389.15 1494.64,389.306 1496.02,374.467 1497.41,362.79 1498.79,348.409 1502.94,338.213 1504.32,318.859 1505.7,340.711 1507.08,343.059 1508.47,324.858 1512.61,320.846 1514,313.955 1515.38,314.931 1516.76,312.829 1518.14,330.017 1522.29,323.995 1523.67,321.789 1525.05,329.798 1526.44,325.237 1527.82,326.902 1531.97,316.029 1533.35,303.896 1534.73,298.074 1536.11,284.376 1537.5,271.337 1543.03,273.806 1544.41,258.188 1545.79,277.647 1547.17,262.816 1551.32,266.56 1552.7,268.209 1554.08,260.471 1555.47,269.561 1556.85,278.752 1561,290.727 1562.38,240.06 1563.76,246.969 1565.14,241.839 1566.53,218.891 1570.67,222.807 1572.06,199.792 1573.44,214.928 1574.82,206.817 1576.2,201.529 1580.35,209.643 1581.73,211.445 1583.11,208.444 1584.5,192.283 1585.88,188.827 1590.03,214.201 1591.41,209.611 1592.79,204.076 1594.17,204.597 1595.56,195.267 1599.7,187.314 1601.09,219.05 1602.47,242.803 1603.85,244.823 1605.23,224.885 1609.38,222.54 1610.76,226.995 1612.14,202.319 1613.53,255.892 1614.91,259.929 1619.06,259.658 1620.44,272.543 1621.82,268.292 1623.2,250.071 1624.59,264.865 1630.12,286.367 1631.5,272.842 1632.88,292.634 1634.26,308.758 1638.41,300.448 1639.79,318.671 1641.17,299.934 1642.56,279.727 1643.94,268.325 1648.09,272.964 1649.47,293.983 1650.85,291.006 1652.23,279.052 1653.62,279.124 1657.76,281.334 1659.15,296.247 1660.53,301.319 1661.91,328.647 1663.29,330.777 1667.44,350.969 1668.82,351.589 1670.2,353.699 1671.59,318.776 1672.97,344.27 1677.12,351.795 1678.5,352.432 1679.88,353.833 1681.26,317.835 1682.65,309.54 1686.79,311.78 1688.18,317.987 1689.56,290.787 1690.94,277.093 1692.32,269.629 1696.47,261.023 1697.85,272.945 1699.23,280.491 1700.62,253.444 1702,260.372 1706.15,228.485 1707.53,223.398 1708.91,195.694 1710.29,186.112 1711.68,171.466 1715.88,193.384 1717.26,206.9 1718.65,210.082 1720.03,194.314 1721.41,175.229 1725.56,151.149 1726.94,130.64 1728.32,154.612 1729.7,171.226 1731.09,181.081 1735.23,187.545 1736.62,179.044 1738,184.778 1740.76,203.144 1744.91,191.805 1746.29,223.806 1747.68,232.435 1749.06,239.62 1750.44,224.901 1754.59,199.324 1755.97,180.204 1757.35,195.94 1758.73,204.291 1760.12,188.863 1764.26,186.929 1765.65,191.227 1767.03,175.808 1768.41,190.994 1769.79,215.412 1773.94,226.328 1775.32,204.253 1776.7,212.328 1778.09,184.674 1783.62,170.268 1785,160.272 1786.38,131.238 1787.76,116.997 1789.15,113.779 1793.29,117.361 1794.68,143.84 1796.06,153.765 1797.44,140.763 1798.82,144.131 1802.97,149.97 1804.35,169.654 1805.73,166.577 1807.12,183.845 1808.5,228.324 1814.03,233.59 1815.41,231.351 1816.79,294.414 1818.18,311.462 1822.32,282.878 1823.71,304.646 1825.09,339.433 1826.47,325.046 1827.85,315.143 1832,280.539 1833.38,260.519 1834.76,280.17 1836.15,288.915 1837.53,308.69 1841.68,315.387 1843.06,282.139 1844.44,264.15 1845.82,295.293 1847.21,317.688 1851.35,326.877 1852.74,325.238 1854.12,331.848 1855.5,343.629 1856.88,326.352 1862.41,379.784 1863.79,411.556 1865.18,388.673 1866.56,331.168 1870.71,328.981 1872.09,333.633 1873.47,291.479 1874.85,291.722 1876.24,277.568 1880.38,331.216 1881.77,352.471 1883.15,330.039 1884.53,331.06 1885.91,362.952 1890,368.09 1891.38,336.911 1892.77,335.898 1894.15,266.327 1895.53,219.559 1899.68,219.339 1901.06,211.2 1902.44,242.108 1903.83,234.887 1905.21,217.464 1909.36,188.761 1910.74,177.662 1912.12,181.41 1913.5,204.872 1914.89,188.959 1919.03,178.342 1920.41,184.35 1921.8,153.969 1923.18,147.775 1924.56,140.665 1928.71,160.645 1930.09,164.991 1931.47,148.01 1932.86,155.169 1938.39,155.089 1939.77,112.672 1941.15,96.0002 1942.53,134.855 1943.92,178.706 1948.06,182.846 1949.44,218.58 1950.83,227.535 1952.21,200.574 1953.59,281.624 1957.74,270.862 1959.12,266.922 1960.5,218.973 1961.89,282.505 1963.27,289.013 1967.42,324.713 1968.8,353.989 1970.18,365.634 1971.56,362.337 1972.95,332.336 1977.09,328.808 1978.47,330.587 1979.86,453.308 1981.24,458.863 1982.62,514.893 1986.77,472.399 1988.15,478.192 1989.53,469.109 1990.92,323.747 1992.3,276.806 1997.83,302.504 1999.21,331.808 2000.59,283.433 2001.98,292.23 2006.12,264.516 2007.5,255.659 2008.89,267.039 2010.27,247.727 2011.65,283.436 2015.8,353.214 2017.18,345.707 2018.56,318.26 2019.95,364.48 2021.33,366.723 2026.86,330.671 2028.24,325.581 2029.62,294.463 2031.01,244.765 2035.15,251.834 2036.53,288.669 2037.92,292.136 2039.3,294.377 2040.68,273.584 2046.21,252.097 2047.59,247.991 2048.98,226.321 2050.36,217.35 2054.51,211.786 2055.89,236.632 2057.27,233.077 2058.65,225.69 2060.03,245.066 2064.18,229.064 2065.56,204.553 2066.95,192.052 2068.33,198.601 2069.71,208.322 2073.86,207.963 2075.24,250.243 2076.62,214.413 2078.01,185.127 2079.39,161.073 2083.54,138.012 2084.92,134.319 2086.3,93.5493 2087.68,110.807 2089.06,124.653 2093.21,97.3286 2094.59,109.647 2095.98,89.8092 2097.36,88.9421 2098.74,86.1857 2102.89,92.3316 2104.27,86.6328 2105.65,107.908 2107.04,104.922 2108.42,101.961 2112.57,166.096 2113.95,159.689 2115.33,154.565 2116.71,166.041 2118.09,251.554 2122.24,255.597 2123.62,272.916 2125.01,283.147 2126.39,252.792 2127.77,266.355 2133.3,273.49 2134.68,216.342 2136.07,196.625 2137.45,172.346 2141.6,149.957 2142.98,208.492 2144.36,235.231 2145.74,256.933 2147.12,256.336 2151.27,237.585 2152.65,250.132 2154.04,280.471 2155.42,305.625 2156.8,303.366 2160.95,334.584 2162.33,338.567 2163.71,295.551 2165.1,347.27 2166.48,349.05 2170.63,306.054 2172.01,263.137 2173.39,290.987 2174.77,283.756 2176.15,307.545 2180.3,309.273 2181.68,291.11 2183.07,297.971 2184.45,258.974 2185.83,298.8 2189.98,285.38 2191.36,271.203 2192.74,279.678 2194.13,289.308 2195.51,260.275 2199.66,257.932 2201.04,228.362 2202.42,229.633 2203.8,238.96 2205.18,201.689 2209.33,230.134 2210.71,242.296 2212.1,271.073 2213.48,274.683 2214.86,250.225 2219.07,230.153 2220.45,222.013 2221.83,269.354 2223.21,199.494 2224.6,205.718 2228.74,215.935 2230.13,167.945 2231.51,171.856 2232.89,176.611 2234.27,158.486 2238.42,114.627 2239.8,100.776 2241.18,95.6199 2243.95,93.4364 2248.1,130.517 2249.48,150.571 2250.86,130.608 2252.24,193.524 2253.63,174.589 2257.77,186.044 2259.16,188.126 2260.54,166.633 2261.92,167.65 2263.3,188.062 2267.45,180.292 2268.83,190.912 2270.21,181.702 2271.6,204.575 2272.98,199.045 2277.13,222.967 2278.51,229.325 2279.89,198.499 2281.27,195.189 2282.66,178.327 2288.19,192.801 2289.57,196.644 2290.95,161.63 2292.33,161.866 "/>
</svg>
