<?xml version="1.0" encoding="utf-8"?>
<svg xmlns="http://www.w3.org/2000/svg" xmlns:xlink="http://www.w3.org/1999/xlink" width="600" height="400" viewBox="0 0 2400 1600">
<defs>
  <clipPath id="clip380">
    <rect x="0" y="0" width="2400" height="1600"/>
  </clipPath>
</defs>
<path clip-path="url(#clip380)" d="M0 1600 L2400 1600 L2400 0 L0 0  Z" fill="#ffffff" fill-rule="evenodd" fill-opacity="1"/>
<defs>
  <clipPath id="clip381">
    <rect x="480" y="0" width="1681" height="1600"/>
  </clipPath>
</defs>
<path clip-path="url(#clip380)" d="M217.783 1423.18 L2352.76 1423.18 L2352.76 47.2441 L217.783 47.2441  Z" fill="#ffffff" fill-rule="evenodd" fill-opacity="1"/>
<defs>
  <clipPath id="clip382">
    <rect x="217" y="47" width="2136" height="1377"/>
  </clipPath>
</defs>
<polyline clip-path="url(#clip382)" style="stroke:#000000; stroke-linecap:round; stroke-linejoin:round; stroke-width:2; stroke-opacity:0.1; fill:none" points="274.607,1423.18 274.607,47.2441 "/>
<polyline clip-path="url(#clip382)" style="stroke:#000000; stroke-linecap:round; stroke-linejoin:round; stroke-width:2; stroke-opacity:0.1; fill:none" points="779.175,1423.18 779.175,47.2441 "/>
<polyline clip-path="url(#clip382)" style="stroke:#000000; stroke-linecap:round; stroke-linejoin:round; stroke-width:2; stroke-opacity:0.1; fill:none" points="1285.13,1423.18 1285.13,47.2441 "/>
<polyline clip-path="url(#clip382)" style="stroke:#000000; stroke-linecap:round; stroke-linejoin:round; stroke-width:2; stroke-opacity:0.1; fill:none" points="1789.69,1423.18 1789.69,47.2441 "/>
<polyline clip-path="url(#clip382)" style="stroke:#000000; stroke-linecap:round; stroke-linejoin:round; stroke-width:2; stroke-opacity:0.1; fill:none" points="2294.26,1423.18 2294.26,47.2441 "/>
<polyline clip-path="url(#clip382)" style="stroke:#000000; stroke-linecap:round; stroke-linejoin:round; stroke-width:2; stroke-opacity:0.1; fill:none" points="217.783,1378.78 2352.76,1378.78 "/>
<polyline clip-path="url(#clip382)" style="stroke:#000000; stroke-linecap:round; stroke-linejoin:round; stroke-width:2; stroke-opacity:0.1; fill:none" points="217.783,1109.84 2352.76,1109.84 "/>
<polyline clip-path="url(#clip382)" style="stroke:#000000; stroke-linecap:round; stroke-linejoin:round; stroke-width:2; stroke-opacity:0.1; fill:none" points="217.783,840.893 2352.76,840.893 "/>
<polyline clip-path="url(#clip382)" style="stroke:#000000; stroke-linecap:round; stroke-linejoin:round; stroke-width:2; stroke-opacity:0.1; fill:none" points="217.783,571.949 2352.76,571.949 "/>
<polyline clip-path="url(#clip382)" style="stroke:#000000; stroke-linecap:round; stroke-linejoin:round; stroke-width:2; stroke-opacity:0.1; fill:none" points="217.783,303.005 2352.76,303.005 "/>
<polyline clip-path="url(#clip380)" style="stroke:#000000; stroke-linecap:round; stroke-linejoin:round; stroke-width:4; stroke-opacity:1; fill:none" points="217.783,1423.18 2352.76,1423.18 "/>
<polyline clip-path="url(#clip380)" style="stroke:#000000; stroke-linecap:round; stroke-linejoin:round; stroke-width:4; stroke-opacity:1; fill:none" points="274.607,1423.18 274.607,1404.28 "/>
<polyline clip-path="url(#clip380)" style="stroke:#000000; stroke-linecap:round; stroke-linejoin:round; stroke-width:4; stroke-opacity:1; fill:none" points="779.175,1423.18 779.175,1404.28 "/>
<polyline clip-path="url(#clip380)" style="stroke:#000000; stroke-linecap:round; stroke-linejoin:round; stroke-width:4; stroke-opacity:1; fill:none" points="1285.13,1423.18 1285.13,1404.28 "/>
<polyline clip-path="url(#clip380)" style="stroke:#000000; stroke-linecap:round; stroke-linejoin:round; stroke-width:4; stroke-opacity:1; fill:none" points="1789.69,1423.18 1789.69,1404.28 "/>
<polyline clip-path="url(#clip380)" style="stroke:#000000; stroke-linecap:round; stroke-linejoin:round; stroke-width:4; stroke-opacity:1; fill:none" points="2294.26,1423.18 2294.26,1404.28 "/>
<path clip-path="url(#clip380)" d="M146.401 1481.64 L162.721 1481.64 L162.721 1485.58 L140.776 1485.58 L140.776 1481.64 Q143.438 1478.89 148.022 1474.26 Q152.628 1469.61 153.809 1468.27 Q156.054 1465.74 156.934 1464.01 Q157.837 1462.25 157.837 1460.56 Q157.837 1457.8 155.892 1456.07 Q153.971 1454.33 150.869 1454.33 Q148.67 1454.33 146.216 1455.09 Q143.786 1455.86 141.008 1457.41 L141.008 1452.69 Q143.832 1451.55 146.286 1450.97 Q148.739 1450.39 150.776 1450.39 Q156.147 1450.39 159.341 1453.08 Q162.536 1455.77 162.536 1460.26 Q162.536 1462.39 161.725 1464.31 Q160.938 1466.2 158.832 1468.8 Q158.253 1469.47 155.151 1472.69 Q152.05 1475.88 146.401 1481.64 Z" fill="#000000" fill-rule="nonzero" fill-opacity="1" /><path clip-path="url(#clip380)" d="M182.535 1454.1 Q178.924 1454.1 177.096 1457.66 Q175.29 1461.2 175.29 1468.33 Q175.29 1475.44 177.096 1479.01 Q178.924 1482.55 182.535 1482.55 Q186.17 1482.55 187.975 1479.01 Q189.804 1475.44 189.804 1468.33 Q189.804 1461.2 187.975 1457.66 Q186.17 1454.1 182.535 1454.1 M182.535 1450.39 Q188.346 1450.39 191.401 1455 Q194.48 1459.58 194.48 1468.33 Q194.48 1477.06 191.401 1481.67 Q188.346 1486.25 182.535 1486.25 Q176.725 1486.25 173.647 1481.67 Q170.591 1477.06 170.591 1468.33 Q170.591 1459.58 173.647 1455 Q176.725 1450.39 182.535 1450.39 Z" fill="#000000" fill-rule="nonzero" fill-opacity="1" /><path clip-path="url(#clip380)" d="M203.508 1481.64 L211.146 1481.64 L211.146 1455.28 L202.836 1456.95 L202.836 1452.69 L211.1 1451.02 L215.776 1451.02 L215.776 1481.64 L223.415 1481.64 L223.415 1485.58 L203.508 1485.58 L203.508 1481.64 Z" fill="#000000" fill-rule="nonzero" fill-opacity="1" /><path clip-path="url(#clip380)" d="M232.998 1484.86 L232.998 1480.6 Q234.757 1481.44 236.563 1481.88 Q238.369 1482.32 240.105 1482.32 Q244.734 1482.32 247.165 1479.21 Q249.618 1476.09 249.966 1469.75 Q248.623 1471.74 246.563 1472.8 Q244.503 1473.87 242.003 1473.87 Q236.818 1473.87 233.785 1470.74 Q230.776 1467.59 230.776 1462.15 Q230.776 1456.83 233.924 1453.61 Q237.072 1450.39 242.304 1450.39 Q248.299 1450.39 251.447 1455 Q254.618 1459.58 254.618 1468.33 Q254.618 1476.51 250.73 1481.39 Q246.864 1486.25 240.313 1486.25 Q238.554 1486.25 236.748 1485.9 Q234.943 1485.56 232.998 1484.86 M242.304 1470.21 Q245.452 1470.21 247.281 1468.06 Q249.132 1465.9 249.132 1462.15 Q249.132 1458.43 247.281 1456.27 Q245.452 1454.1 242.304 1454.1 Q239.156 1454.1 237.304 1456.27 Q235.475 1458.43 235.475 1462.15 Q235.475 1465.9 237.304 1468.06 Q239.156 1470.21 242.304 1470.21 Z" fill="#000000" fill-rule="nonzero" fill-opacity="1" /><path clip-path="url(#clip380)" d="M260.267 1470.7 L272.743 1470.7 L272.743 1474.49 L260.267 1474.49 L260.267 1470.7 Z" fill="#000000" fill-rule="nonzero" fill-opacity="1" /><path clip-path="url(#clip380)" d="M290.128 1454.1 Q286.516 1454.1 284.688 1457.66 Q282.882 1461.2 282.882 1468.33 Q282.882 1475.44 284.688 1479.01 Q286.516 1482.55 290.128 1482.55 Q293.762 1482.55 295.567 1479.01 Q297.396 1475.44 297.396 1468.33 Q297.396 1461.2 295.567 1457.66 Q293.762 1454.1 290.128 1454.1 M290.128 1450.39 Q295.938 1450.39 298.993 1455 Q302.072 1459.58 302.072 1468.33 Q302.072 1477.06 298.993 1481.67 Q295.938 1486.25 290.128 1486.25 Q284.317 1486.25 281.239 1481.67 Q278.183 1477.06 278.183 1468.33 Q278.183 1459.58 281.239 1455 Q284.317 1450.39 290.128 1450.39 Z" fill="#000000" fill-rule="nonzero" fill-opacity="1" /><path clip-path="url(#clip380)" d="M311.1 1481.64 L318.738 1481.64 L318.738 1455.28 L310.428 1456.95 L310.428 1452.69 L318.692 1451.02 L323.368 1451.02 L323.368 1481.64 L331.007 1481.64 L331.007 1485.58 L311.1 1485.58 L311.1 1481.64 Z" fill="#000000" fill-rule="nonzero" fill-opacity="1" /><path clip-path="url(#clip380)" d="M337.697 1470.7 L350.173 1470.7 L350.173 1474.49 L337.697 1474.49 L337.697 1470.7 Z" fill="#000000" fill-rule="nonzero" fill-opacity="1" /><path clip-path="url(#clip380)" d="M367.558 1454.1 Q363.947 1454.1 362.118 1457.66 Q360.312 1461.2 360.312 1468.33 Q360.312 1475.44 362.118 1479.01 Q363.947 1482.55 367.558 1482.55 Q371.192 1482.55 372.997 1479.01 Q374.826 1475.44 374.826 1468.33 Q374.826 1461.2 372.997 1457.66 Q371.192 1454.1 367.558 1454.1 M367.558 1450.39 Q373.368 1450.39 376.423 1455 Q379.502 1459.58 379.502 1468.33 Q379.502 1477.06 376.423 1481.67 Q373.368 1486.25 367.558 1486.25 Q361.747 1486.25 358.669 1481.67 Q355.613 1477.06 355.613 1468.33 Q355.613 1459.58 358.669 1455 Q361.747 1450.39 367.558 1450.39 Z" fill="#000000" fill-rule="nonzero" fill-opacity="1" /><path clip-path="url(#clip380)" d="M388.53 1481.64 L396.169 1481.64 L396.169 1455.28 L387.858 1456.95 L387.858 1452.69 L396.122 1451.02 L400.798 1451.02 L400.798 1481.64 L408.437 1481.64 L408.437 1485.58 L388.53 1485.58 L388.53 1481.64 Z" fill="#000000" fill-rule="nonzero" fill-opacity="1" /><path clip-path="url(#clip380)" d="M650.97 1481.64 L667.289 1481.64 L667.289 1485.58 L645.345 1485.58 L645.345 1481.64 Q648.007 1478.89 652.59 1474.26 Q657.196 1469.61 658.377 1468.27 Q660.622 1465.74 661.502 1464.01 Q662.405 1462.25 662.405 1460.56 Q662.405 1457.8 660.46 1456.07 Q658.539 1454.33 655.437 1454.33 Q653.238 1454.33 650.784 1455.09 Q648.354 1455.86 645.576 1457.41 L645.576 1452.69 Q648.4 1451.55 650.854 1450.97 Q653.308 1450.39 655.345 1450.39 Q660.715 1450.39 663.909 1453.08 Q667.104 1455.77 667.104 1460.26 Q667.104 1462.39 666.294 1464.31 Q665.507 1466.2 663.4 1468.8 Q662.821 1469.47 659.72 1472.69 Q656.618 1475.88 650.97 1481.64 Z" fill="#000000" fill-rule="nonzero" fill-opacity="1" /><path clip-path="url(#clip380)" d="M687.104 1454.1 Q683.493 1454.1 681.664 1457.66 Q679.858 1461.2 679.858 1468.33 Q679.858 1475.44 681.664 1479.01 Q683.493 1482.55 687.104 1482.55 Q690.738 1482.55 692.543 1479.01 Q694.372 1475.44 694.372 1468.33 Q694.372 1461.2 692.543 1457.66 Q690.738 1454.1 687.104 1454.1 M687.104 1450.39 Q692.914 1450.39 695.969 1455 Q699.048 1459.58 699.048 1468.33 Q699.048 1477.06 695.969 1481.67 Q692.914 1486.25 687.104 1486.25 Q681.293 1486.25 678.215 1481.67 Q675.159 1477.06 675.159 1468.33 Q675.159 1459.58 678.215 1455 Q681.293 1450.39 687.104 1450.39 Z" fill="#000000" fill-rule="nonzero" fill-opacity="1" /><path clip-path="url(#clip380)" d="M711.293 1481.64 L727.613 1481.64 L727.613 1485.58 L705.668 1485.58 L705.668 1481.64 Q708.33 1478.89 712.914 1474.26 Q717.52 1469.61 718.701 1468.27 Q720.946 1465.74 721.826 1464.01 Q722.728 1462.25 722.728 1460.56 Q722.728 1457.8 720.784 1456.07 Q718.863 1454.33 715.761 1454.33 Q713.562 1454.33 711.108 1455.09 Q708.678 1455.86 705.9 1457.41 L705.9 1452.69 Q708.724 1451.55 711.178 1450.97 Q713.631 1450.39 715.668 1450.39 Q721.039 1450.39 724.233 1453.08 Q727.427 1455.77 727.427 1460.26 Q727.427 1462.39 726.617 1464.31 Q725.83 1466.2 723.724 1468.8 Q723.145 1469.47 720.043 1472.69 Q716.941 1475.88 711.293 1481.64 Z" fill="#000000" fill-rule="nonzero" fill-opacity="1" /><path clip-path="url(#clip380)" d="M747.427 1454.1 Q743.816 1454.1 741.988 1457.66 Q740.182 1461.2 740.182 1468.33 Q740.182 1475.44 741.988 1479.01 Q743.816 1482.55 747.427 1482.55 Q751.062 1482.55 752.867 1479.01 Q754.696 1475.44 754.696 1468.33 Q754.696 1461.2 752.867 1457.66 Q751.062 1454.1 747.427 1454.1 M747.427 1450.39 Q753.238 1450.39 756.293 1455 Q759.372 1459.58 759.372 1468.33 Q759.372 1477.06 756.293 1481.67 Q753.238 1486.25 747.427 1486.25 Q741.617 1486.25 738.539 1481.67 Q735.483 1477.06 735.483 1468.33 Q735.483 1459.58 738.539 1455 Q741.617 1450.39 747.427 1450.39 Z" fill="#000000" fill-rule="nonzero" fill-opacity="1" /><path clip-path="url(#clip380)" d="M764.835 1470.7 L777.311 1470.7 L777.311 1474.49 L764.835 1474.49 L764.835 1470.7 Z" fill="#000000" fill-rule="nonzero" fill-opacity="1" /><path clip-path="url(#clip380)" d="M794.696 1454.1 Q791.085 1454.1 789.256 1457.66 Q787.45 1461.2 787.45 1468.33 Q787.45 1475.44 789.256 1479.01 Q791.085 1482.55 794.696 1482.55 Q798.33 1482.55 800.135 1479.01 Q801.964 1475.44 801.964 1468.33 Q801.964 1461.2 800.135 1457.66 Q798.33 1454.1 794.696 1454.1 M794.696 1450.39 Q800.506 1450.39 803.561 1455 Q806.64 1459.58 806.64 1468.33 Q806.64 1477.06 803.561 1481.67 Q800.506 1486.25 794.696 1486.25 Q788.886 1486.25 785.807 1481.67 Q782.751 1477.06 782.751 1468.33 Q782.751 1459.58 785.807 1455 Q788.886 1450.39 794.696 1450.39 Z" fill="#000000" fill-rule="nonzero" fill-opacity="1" /><path clip-path="url(#clip380)" d="M815.668 1481.64 L823.307 1481.64 L823.307 1455.28 L814.996 1456.95 L814.996 1452.69 L823.26 1451.02 L827.936 1451.02 L827.936 1481.64 L835.575 1481.64 L835.575 1485.58 L815.668 1485.58 L815.668 1481.64 Z" fill="#000000" fill-rule="nonzero" fill-opacity="1" /><path clip-path="url(#clip380)" d="M842.265 1470.7 L854.742 1470.7 L854.742 1474.49 L842.265 1474.49 L842.265 1470.7 Z" fill="#000000" fill-rule="nonzero" fill-opacity="1" /><path clip-path="url(#clip380)" d="M872.126 1454.1 Q868.515 1454.1 866.686 1457.66 Q864.88 1461.2 864.88 1468.33 Q864.88 1475.44 866.686 1479.01 Q868.515 1482.55 872.126 1482.55 Q875.76 1482.55 877.566 1479.01 Q879.394 1475.44 879.394 1468.33 Q879.394 1461.2 877.566 1457.66 Q875.76 1454.1 872.126 1454.1 M872.126 1450.39 Q877.936 1450.39 880.991 1455 Q884.07 1459.58 884.07 1468.33 Q884.07 1477.06 880.991 1481.67 Q877.936 1486.25 872.126 1486.25 Q866.316 1486.25 863.237 1481.67 Q860.181 1477.06 860.181 1468.33 Q860.181 1459.58 863.237 1455 Q866.316 1450.39 872.126 1450.39 Z" fill="#000000" fill-rule="nonzero" fill-opacity="1" /><path clip-path="url(#clip380)" d="M893.098 1481.64 L900.737 1481.64 L900.737 1455.28 L892.427 1456.95 L892.427 1452.69 L900.69 1451.02 L905.366 1451.02 L905.366 1481.64 L913.005 1481.64 L913.005 1485.58 L893.098 1485.58 L893.098 1481.64 Z" fill="#000000" fill-rule="nonzero" fill-opacity="1" /><path clip-path="url(#clip380)" d="M1156.92 1481.64 L1173.24 1481.64 L1173.24 1485.58 L1151.3 1485.58 L1151.3 1481.64 Q1153.96 1478.89 1158.54 1474.26 Q1163.15 1469.61 1164.33 1468.27 Q1166.57 1465.74 1167.45 1464.01 Q1168.36 1462.25 1168.36 1460.56 Q1168.36 1457.8 1166.41 1456.07 Q1164.49 1454.33 1161.39 1454.33 Q1159.19 1454.33 1156.73 1455.09 Q1154.3 1455.86 1151.53 1457.41 L1151.53 1452.69 Q1154.35 1451.55 1156.8 1450.97 Q1159.26 1450.39 1161.3 1450.39 Q1166.67 1450.39 1169.86 1453.08 Q1173.05 1455.77 1173.05 1460.26 Q1173.05 1462.39 1172.24 1464.31 Q1171.46 1466.2 1169.35 1468.8 Q1168.77 1469.47 1165.67 1472.69 Q1162.57 1475.88 1156.92 1481.64 Z" fill="#000000" fill-rule="nonzero" fill-opacity="1" /><path clip-path="url(#clip380)" d="M1193.05 1454.1 Q1189.44 1454.1 1187.61 1457.66 Q1185.81 1461.2 1185.81 1468.33 Q1185.81 1475.44 1187.61 1479.01 Q1189.44 1482.55 1193.05 1482.55 Q1196.69 1482.55 1198.49 1479.01 Q1200.32 1475.44 1200.32 1468.33 Q1200.32 1461.2 1198.49 1457.66 Q1196.69 1454.1 1193.05 1454.1 M1193.05 1450.39 Q1198.86 1450.39 1201.92 1455 Q1205 1459.58 1205 1468.33 Q1205 1477.06 1201.92 1481.67 Q1198.86 1486.25 1193.05 1486.25 Q1187.24 1486.25 1184.17 1481.67 Q1181.11 1477.06 1181.11 1468.33 Q1181.11 1459.58 1184.17 1455 Q1187.24 1450.39 1193.05 1450.39 Z" fill="#000000" fill-rule="nonzero" fill-opacity="1" /><path clip-path="url(#clip380)" d="M1217.24 1481.64 L1233.56 1481.64 L1233.56 1485.58 L1211.62 1485.58 L1211.62 1481.64 Q1214.28 1478.89 1218.86 1474.26 Q1223.47 1469.61 1224.65 1468.27 Q1226.9 1465.74 1227.78 1464.01 Q1228.68 1462.25 1228.68 1460.56 Q1228.68 1457.8 1226.73 1456.07 Q1224.81 1454.33 1221.71 1454.33 Q1219.51 1454.33 1217.06 1455.09 Q1214.63 1455.86 1211.85 1457.41 L1211.85 1452.69 Q1214.67 1451.55 1217.13 1450.97 Q1219.58 1450.39 1221.62 1450.39 Q1226.99 1450.39 1230.18 1453.08 Q1233.38 1455.77 1233.38 1460.26 Q1233.38 1462.39 1232.57 1464.31 Q1231.78 1466.2 1229.67 1468.8 Q1229.1 1469.47 1225.99 1472.69 Q1222.89 1475.88 1217.24 1481.64 Z" fill="#000000" fill-rule="nonzero" fill-opacity="1" /><path clip-path="url(#clip380)" d="M1244.19 1481.64 L1251.83 1481.64 L1251.83 1455.28 L1243.52 1456.95 L1243.52 1452.69 L1251.78 1451.02 L1256.46 1451.02 L1256.46 1481.64 L1264.1 1481.64 L1264.1 1485.58 L1244.19 1485.58 L1244.19 1481.64 Z" fill="#000000" fill-rule="nonzero" fill-opacity="1" /><path clip-path="url(#clip380)" d="M1270.79 1470.7 L1283.26 1470.7 L1283.26 1474.49 L1270.79 1474.49 L1270.79 1470.7 Z" fill="#000000" fill-rule="nonzero" fill-opacity="1" /><path clip-path="url(#clip380)" d="M1300.65 1454.1 Q1297.04 1454.1 1295.21 1457.66 Q1293.4 1461.2 1293.4 1468.33 Q1293.4 1475.44 1295.21 1479.01 Q1297.04 1482.55 1300.65 1482.55 Q1304.28 1482.55 1306.09 1479.01 Q1307.91 1475.44 1307.91 1468.33 Q1307.91 1461.2 1306.09 1457.66 Q1304.28 1454.1 1300.65 1454.1 M1300.65 1450.39 Q1306.46 1450.39 1309.51 1455 Q1312.59 1459.58 1312.59 1468.33 Q1312.59 1477.06 1309.51 1481.67 Q1306.46 1486.25 1300.65 1486.25 Q1294.84 1486.25 1291.76 1481.67 Q1288.7 1477.06 1288.7 1468.33 Q1288.7 1459.58 1291.76 1455 Q1294.84 1450.39 1300.65 1450.39 Z" fill="#000000" fill-rule="nonzero" fill-opacity="1" /><path clip-path="url(#clip380)" d="M1321.62 1481.64 L1329.26 1481.64 L1329.26 1455.28 L1320.95 1456.95 L1320.95 1452.69 L1329.21 1451.02 L1333.89 1451.02 L1333.89 1481.64 L1341.53 1481.64 L1341.53 1485.58 L1321.62 1485.58 L1321.62 1481.64 Z" fill="#000000" fill-rule="nonzero" fill-opacity="1" /><path clip-path="url(#clip380)" d="M1348.22 1470.7 L1360.69 1470.7 L1360.69 1474.49 L1348.22 1474.49 L1348.22 1470.7 Z" fill="#000000" fill-rule="nonzero" fill-opacity="1" /><path clip-path="url(#clip380)" d="M1378.08 1454.1 Q1374.47 1454.1 1372.64 1457.66 Q1370.83 1461.2 1370.83 1468.33 Q1370.83 1475.44 1372.64 1479.01 Q1374.47 1482.55 1378.08 1482.55 Q1381.71 1482.55 1383.52 1479.01 Q1385.34 1475.44 1385.34 1468.33 Q1385.34 1461.2 1383.52 1457.66 Q1381.71 1454.1 1378.08 1454.1 M1378.08 1450.39 Q1383.89 1450.39 1386.94 1455 Q1390.02 1459.58 1390.02 1468.33 Q1390.02 1477.06 1386.94 1481.67 Q1383.89 1486.25 1378.08 1486.25 Q1372.27 1486.25 1369.19 1481.67 Q1366.13 1477.06 1366.13 1468.33 Q1366.13 1459.58 1369.19 1455 Q1372.27 1450.39 1378.08 1450.39 Z" fill="#000000" fill-rule="nonzero" fill-opacity="1" /><path clip-path="url(#clip380)" d="M1399.05 1481.64 L1406.69 1481.64 L1406.69 1455.28 L1398.38 1456.95 L1398.38 1452.69 L1406.64 1451.02 L1411.32 1451.02 L1411.32 1481.64 L1418.96 1481.64 L1418.96 1485.58 L1399.05 1485.58 L1399.05 1481.64 Z" fill="#000000" fill-rule="nonzero" fill-opacity="1" /><path clip-path="url(#clip380)" d="M1661.49 1481.64 L1677.81 1481.64 L1677.81 1485.58 L1655.86 1485.58 L1655.86 1481.64 Q1658.53 1478.89 1663.11 1474.26 Q1667.72 1469.61 1668.9 1468.27 Q1671.14 1465.74 1672.02 1464.01 Q1672.92 1462.25 1672.92 1460.56 Q1672.92 1457.8 1670.98 1456.07 Q1669.06 1454.33 1665.96 1454.33 Q1663.76 1454.33 1661.3 1455.09 Q1658.87 1455.86 1656.09 1457.41 L1656.09 1452.69 Q1658.92 1451.55 1661.37 1450.97 Q1663.83 1450.39 1665.86 1450.39 Q1671.23 1450.39 1674.43 1453.08 Q1677.62 1455.77 1677.62 1460.26 Q1677.62 1462.39 1676.81 1464.31 Q1676.03 1466.2 1673.92 1468.8 Q1673.34 1469.47 1670.24 1472.69 Q1667.14 1475.88 1661.49 1481.64 Z" fill="#000000" fill-rule="nonzero" fill-opacity="1" /><path clip-path="url(#clip380)" d="M1697.62 1454.1 Q1694.01 1454.1 1692.18 1457.66 Q1690.38 1461.2 1690.38 1468.33 Q1690.38 1475.44 1692.18 1479.01 Q1694.01 1482.55 1697.62 1482.55 Q1701.26 1482.55 1703.06 1479.01 Q1704.89 1475.44 1704.89 1468.33 Q1704.89 1461.2 1703.06 1457.66 Q1701.26 1454.1 1697.62 1454.1 M1697.62 1450.39 Q1703.43 1450.39 1706.49 1455 Q1709.57 1459.58 1709.57 1468.33 Q1709.57 1477.06 1706.49 1481.67 Q1703.43 1486.25 1697.62 1486.25 Q1691.81 1486.25 1688.73 1481.67 Q1685.68 1477.06 1685.68 1468.33 Q1685.68 1459.58 1688.73 1455 Q1691.81 1450.39 1697.62 1450.39 Z" fill="#000000" fill-rule="nonzero" fill-opacity="1" /><path clip-path="url(#clip380)" d="M1721.81 1481.64 L1738.13 1481.64 L1738.13 1485.58 L1716.19 1485.58 L1716.19 1481.64 Q1718.85 1478.89 1723.43 1474.26 Q1728.04 1469.61 1729.22 1468.27 Q1731.46 1465.74 1732.34 1464.01 Q1733.25 1462.25 1733.25 1460.56 Q1733.25 1457.8 1731.3 1456.07 Q1729.38 1454.33 1726.28 1454.33 Q1724.08 1454.33 1721.63 1455.09 Q1719.2 1455.86 1716.42 1457.41 L1716.42 1452.69 Q1719.24 1451.55 1721.7 1450.97 Q1724.15 1450.39 1726.19 1450.39 Q1731.56 1450.39 1734.75 1453.08 Q1737.95 1455.77 1737.95 1460.26 Q1737.95 1462.39 1737.14 1464.31 Q1736.35 1466.2 1734.24 1468.8 Q1733.66 1469.47 1730.56 1472.69 Q1727.46 1475.88 1721.81 1481.64 Z" fill="#000000" fill-rule="nonzero" fill-opacity="1" /><path clip-path="url(#clip380)" d="M1751.97 1481.64 L1768.29 1481.64 L1768.29 1485.58 L1746.35 1485.58 L1746.35 1481.64 Q1749.01 1478.89 1753.59 1474.26 Q1758.2 1469.61 1759.38 1468.27 Q1761.63 1465.74 1762.51 1464.01 Q1763.41 1462.25 1763.41 1460.56 Q1763.41 1457.8 1761.46 1456.07 Q1759.54 1454.33 1756.44 1454.33 Q1754.24 1454.33 1751.79 1455.09 Q1749.36 1455.86 1746.58 1457.41 L1746.58 1452.69 Q1749.4 1451.55 1751.86 1450.97 Q1754.31 1450.39 1756.35 1450.39 Q1761.72 1450.39 1764.91 1453.08 Q1768.11 1455.77 1768.11 1460.26 Q1768.11 1462.39 1767.3 1464.31 Q1766.51 1466.2 1764.4 1468.8 Q1763.83 1469.47 1760.72 1472.69 Q1757.62 1475.88 1751.97 1481.64 Z" fill="#000000" fill-rule="nonzero" fill-opacity="1" /><path clip-path="url(#clip380)" d="M1775.35 1470.7 L1787.83 1470.7 L1787.83 1474.49 L1775.35 1474.49 L1775.35 1470.7 Z" fill="#000000" fill-rule="nonzero" fill-opacity="1" /><path clip-path="url(#clip380)" d="M1805.21 1454.1 Q1801.6 1454.1 1799.77 1457.66 Q1797.97 1461.2 1797.97 1468.33 Q1797.97 1475.44 1799.77 1479.01 Q1801.6 1482.55 1805.21 1482.55 Q1808.85 1482.55 1810.65 1479.01 Q1812.48 1475.44 1812.48 1468.33 Q1812.48 1461.2 1810.65 1457.66 Q1808.85 1454.1 1805.21 1454.1 M1805.21 1450.39 Q1811.02 1450.39 1814.08 1455 Q1817.16 1459.58 1817.16 1468.33 Q1817.16 1477.06 1814.08 1481.67 Q1811.02 1486.25 1805.21 1486.25 Q1799.4 1486.25 1796.33 1481.67 Q1793.27 1477.06 1793.27 1468.33 Q1793.27 1459.58 1796.33 1455 Q1799.4 1450.39 1805.21 1450.39 Z" fill="#000000" fill-rule="nonzero" fill-opacity="1" /><path clip-path="url(#clip380)" d="M1826.19 1481.64 L1833.83 1481.64 L1833.83 1455.28 L1825.52 1456.95 L1825.52 1452.69 L1833.78 1451.02 L1838.45 1451.02 L1838.45 1481.64 L1846.09 1481.64 L1846.09 1485.58 L1826.19 1485.58 L1826.19 1481.64 Z" fill="#000000" fill-rule="nonzero" fill-opacity="1" /><path clip-path="url(#clip380)" d="M1852.78 1470.7 L1865.26 1470.7 L1865.26 1474.49 L1852.78 1474.49 L1852.78 1470.7 Z" fill="#000000" fill-rule="nonzero" fill-opacity="1" /><path clip-path="url(#clip380)" d="M1882.64 1454.1 Q1879.03 1454.1 1877.2 1457.66 Q1875.4 1461.2 1875.4 1468.33 Q1875.4 1475.44 1877.2 1479.01 Q1879.03 1482.55 1882.64 1482.55 Q1886.28 1482.55 1888.08 1479.01 Q1889.91 1475.44 1889.91 1468.33 Q1889.91 1461.2 1888.08 1457.66 Q1886.28 1454.1 1882.64 1454.1 M1882.64 1450.39 Q1888.45 1450.39 1891.51 1455 Q1894.59 1459.58 1894.59 1468.33 Q1894.59 1477.06 1891.51 1481.67 Q1888.45 1486.25 1882.64 1486.25 Q1876.83 1486.25 1873.76 1481.67 Q1870.7 1477.06 1870.7 1468.33 Q1870.7 1459.58 1873.76 1455 Q1876.83 1450.39 1882.64 1450.39 Z" fill="#000000" fill-rule="nonzero" fill-opacity="1" /><path clip-path="url(#clip380)" d="M1903.62 1481.64 L1911.26 1481.64 L1911.26 1455.28 L1902.95 1456.95 L1902.95 1452.69 L1911.21 1451.02 L1915.89 1451.02 L1915.89 1481.64 L1923.52 1481.64 L1923.52 1485.58 L1903.62 1485.58 L1903.62 1481.64 Z" fill="#000000" fill-rule="nonzero" fill-opacity="1" /><path clip-path="url(#clip380)" d="M2166.06 1481.64 L2182.38 1481.64 L2182.38 1485.58 L2160.43 1485.58 L2160.43 1481.64 Q2163.09 1478.89 2167.68 1474.26 Q2172.28 1469.61 2173.46 1468.27 Q2175.71 1465.74 2176.59 1464.01 Q2177.49 1462.25 2177.49 1460.56 Q2177.49 1457.8 2175.55 1456.07 Q2173.63 1454.33 2170.52 1454.33 Q2168.32 1454.33 2165.87 1455.09 Q2163.44 1455.86 2160.66 1457.41 L2160.66 1452.69 Q2163.49 1451.55 2165.94 1450.97 Q2168.39 1450.39 2170.43 1450.39 Q2175.8 1450.39 2179 1453.08 Q2182.19 1455.77 2182.19 1460.26 Q2182.19 1462.39 2181.38 1464.31 Q2180.59 1466.2 2178.49 1468.8 Q2177.91 1469.47 2174.81 1472.69 Q2171.7 1475.88 2166.06 1481.64 Z" fill="#000000" fill-rule="nonzero" fill-opacity="1" /><path clip-path="url(#clip380)" d="M2202.19 1454.1 Q2198.58 1454.1 2196.75 1457.66 Q2194.95 1461.2 2194.95 1468.33 Q2194.95 1475.44 2196.75 1479.01 Q2198.58 1482.55 2202.19 1482.55 Q2205.82 1482.55 2207.63 1479.01 Q2209.46 1475.44 2209.46 1468.33 Q2209.46 1461.2 2207.63 1457.66 Q2205.82 1454.1 2202.19 1454.1 M2202.19 1450.39 Q2208 1450.39 2211.06 1455 Q2214.13 1459.58 2214.13 1468.33 Q2214.13 1477.06 2211.06 1481.67 Q2208 1486.25 2202.19 1486.25 Q2196.38 1486.25 2193.3 1481.67 Q2190.25 1477.06 2190.25 1468.33 Q2190.25 1459.58 2193.3 1455 Q2196.38 1450.39 2202.19 1450.39 Z" fill="#000000" fill-rule="nonzero" fill-opacity="1" /><path clip-path="url(#clip380)" d="M2226.38 1481.64 L2242.7 1481.64 L2242.7 1485.58 L2220.76 1485.58 L2220.76 1481.64 Q2223.42 1478.89 2228 1474.26 Q2232.61 1469.61 2233.79 1468.27 Q2236.03 1465.74 2236.91 1464.01 Q2237.82 1462.25 2237.82 1460.56 Q2237.82 1457.8 2235.87 1456.07 Q2233.95 1454.33 2230.85 1454.33 Q2228.65 1454.33 2226.19 1455.09 Q2223.76 1455.86 2220.99 1457.41 L2220.99 1452.69 Q2223.81 1451.55 2226.26 1450.97 Q2228.72 1450.39 2230.76 1450.39 Q2236.13 1450.39 2239.32 1453.08 Q2242.51 1455.77 2242.51 1460.26 Q2242.51 1462.39 2241.7 1464.31 Q2240.92 1466.2 2238.81 1468.8 Q2238.23 1469.47 2235.13 1472.69 Q2232.03 1475.88 2226.38 1481.64 Z" fill="#000000" fill-rule="nonzero" fill-opacity="1" /><path clip-path="url(#clip380)" d="M2266.68 1466.95 Q2270.04 1467.66 2271.91 1469.93 Q2273.81 1472.2 2273.81 1475.53 Q2273.81 1480.65 2270.29 1483.45 Q2266.77 1486.25 2260.29 1486.25 Q2258.12 1486.25 2255.8 1485.81 Q2253.51 1485.39 2251.06 1484.54 L2251.06 1480.02 Q2253 1481.16 2255.32 1481.74 Q2257.63 1482.32 2260.15 1482.32 Q2264.55 1482.32 2266.84 1480.58 Q2269.16 1478.84 2269.16 1475.53 Q2269.16 1472.48 2267 1470.77 Q2264.88 1469.03 2261.06 1469.03 L2257.03 1469.03 L2257.03 1465.19 L2261.24 1465.19 Q2264.69 1465.19 2266.52 1463.82 Q2268.35 1462.43 2268.35 1459.84 Q2268.35 1457.18 2266.45 1455.77 Q2264.57 1454.33 2261.06 1454.33 Q2259.13 1454.33 2256.94 1454.75 Q2254.74 1455.16 2252.1 1456.04 L2252.1 1451.88 Q2254.76 1451.14 2257.07 1450.77 Q2259.41 1450.39 2261.47 1450.39 Q2266.8 1450.39 2269.9 1452.83 Q2273 1455.23 2273 1459.35 Q2273 1462.22 2271.36 1464.21 Q2269.71 1466.18 2266.68 1466.95 Z" fill="#000000" fill-rule="nonzero" fill-opacity="1" /><path clip-path="url(#clip380)" d="M2279.92 1470.7 L2292.4 1470.7 L2292.4 1474.49 L2279.92 1474.49 L2279.92 1470.7 Z" fill="#000000" fill-rule="nonzero" fill-opacity="1" /><path clip-path="url(#clip380)" d="M2309.78 1454.1 Q2306.17 1454.1 2304.34 1457.66 Q2302.54 1461.2 2302.54 1468.33 Q2302.54 1475.44 2304.34 1479.01 Q2306.17 1482.55 2309.78 1482.55 Q2313.42 1482.55 2315.22 1479.01 Q2317.05 1475.44 2317.05 1468.33 Q2317.05 1461.2 2315.22 1457.66 Q2313.42 1454.1 2309.78 1454.1 M2309.78 1450.39 Q2315.59 1450.39 2318.65 1455 Q2321.73 1459.58 2321.73 1468.33 Q2321.73 1477.06 2318.65 1481.67 Q2315.59 1486.25 2309.78 1486.25 Q2303.97 1486.25 2300.89 1481.67 Q2297.84 1477.06 2297.84 1468.33 Q2297.84 1459.58 2300.89 1455 Q2303.97 1450.39 2309.78 1450.39 Z" fill="#000000" fill-rule="nonzero" fill-opacity="1" /><path clip-path="url(#clip380)" d="M2330.75 1481.64 L2338.39 1481.64 L2338.39 1455.28 L2330.08 1456.95 L2330.08 1452.69 L2338.35 1451.02 L2343.02 1451.02 L2343.02 1481.64 L2350.66 1481.64 L2350.66 1485.58 L2330.75 1485.58 L2330.75 1481.64 Z" fill="#000000" fill-rule="nonzero" fill-opacity="1" /><path clip-path="url(#clip380)" d="M2357.35 1470.7 L2369.83 1470.7 L2369.83 1474.49 L2357.35 1474.49 L2357.35 1470.7 Z" fill="#000000" fill-rule="nonzero" fill-opacity="1" /><path clip-path="url(#clip380)" d="M2387.21 1454.1 Q2383.6 1454.1 2381.77 1457.66 Q2379.97 1461.2 2379.97 1468.33 Q2379.97 1475.44 2381.77 1479.01 Q2383.6 1482.55 2387.21 1482.55 Q2390.85 1482.55 2392.65 1479.01 Q2394.48 1475.44 2394.48 1468.33 Q2394.48 1461.2 2392.65 1457.66 Q2390.85 1454.1 2387.21 1454.1 M2387.21 1450.39 Q2393.02 1450.39 2396.08 1455 Q2399.16 1459.58 2399.16 1468.33 Q2399.16 1477.06 2396.08 1481.67 Q2393.02 1486.25 2387.21 1486.25 Q2381.4 1486.25 2378.32 1481.67 Q2375.27 1477.06 2375.27 1468.33 Q2375.27 1459.58 2378.32 1455 Q2381.4 1450.39 2387.21 1450.39 Z" fill="#000000" fill-rule="nonzero" fill-opacity="1" /><path clip-path="url(#clip380)" d="M2408.18 1481.64 L2415.82 1481.64 L2415.82 1455.28 L2407.51 1456.95 L2407.51 1452.69 L2415.78 1451.02 L2420.45 1451.02 L2420.45 1481.64 L2428.09 1481.64 L2428.09 1485.58 L2408.18 1485.58 L2408.18 1481.64 Z" fill="#000000" fill-rule="nonzero" fill-opacity="1" /><path clip-path="url(#clip380)" d="M1218.73 1525.81 L1218.73 1562.76 L1226.5 1562.76 Q1236.33 1562.76 1240.88 1558.3 Q1245.47 1553.85 1245.47 1544.24 Q1245.47 1534.69 1240.88 1530.26 Q1236.33 1525.81 1226.5 1525.81 L1218.73 1525.81 M1212.3 1520.52 L1225.51 1520.52 Q1239.32 1520.52 1245.79 1526.28 Q1252.25 1532.01 1252.25 1544.24 Q1252.25 1556.52 1245.75 1562.28 Q1239.26 1568.04 1225.51 1568.04 L1212.3 1568.04 L1212.3 1520.52 Z" fill="#000000" fill-rule="nonzero" fill-opacity="1" /><path clip-path="url(#clip380)" d="M1278.44 1550.12 Q1271.34 1550.12 1268.61 1551.75 Q1265.87 1553.37 1265.87 1557.29 Q1265.87 1560.4 1267.91 1562.25 Q1269.98 1564.07 1273.51 1564.07 Q1278.38 1564.07 1281.31 1560.63 Q1284.27 1557.16 1284.27 1551.43 L1284.27 1550.12 L1278.44 1550.12 M1290.12 1547.71 L1290.12 1568.04 L1284.27 1568.04 L1284.27 1562.63 Q1282.26 1565.88 1279.27 1567.44 Q1276.28 1568.97 1271.95 1568.97 Q1266.47 1568.97 1263.23 1565.91 Q1260.01 1562.82 1260.01 1557.67 Q1260.01 1551.65 1264.02 1548.6 Q1268.07 1545.54 1276.06 1545.54 L1284.27 1545.54 L1284.27 1544.97 Q1284.27 1540.93 1281.59 1538.73 Q1278.95 1536.5 1274.15 1536.5 Q1271.09 1536.5 1268.19 1537.23 Q1265.3 1537.97 1262.62 1539.43 L1262.62 1534.02 Q1265.84 1532.78 1268.86 1532.17 Q1271.89 1531.54 1274.75 1531.54 Q1282.48 1531.54 1286.3 1535.55 Q1290.12 1539.56 1290.12 1547.71 Z" fill="#000000" fill-rule="nonzero" fill-opacity="1" /><path clip-path="url(#clip380)" d="M1307.98 1522.27 L1307.98 1532.4 L1320.04 1532.4 L1320.04 1536.95 L1307.98 1536.95 L1307.98 1556.3 Q1307.98 1560.66 1309.16 1561.9 Q1310.37 1563.14 1314.03 1563.14 L1320.04 1563.14 L1320.04 1568.04 L1314.03 1568.04 Q1307.25 1568.04 1304.67 1565.53 Q1302.09 1562.98 1302.09 1556.3 L1302.09 1536.95 L1297.79 1536.95 L1297.79 1532.4 L1302.09 1532.4 L1302.09 1522.27 L1307.98 1522.27 Z" fill="#000000" fill-rule="nonzero" fill-opacity="1" /><path clip-path="url(#clip380)" d="M1358.24 1548.76 L1358.24 1551.62 L1331.31 1551.62 Q1331.69 1557.67 1334.94 1560.85 Q1338.22 1564 1344.04 1564 Q1347.41 1564 1350.57 1563.17 Q1353.75 1562.35 1356.87 1560.69 L1356.87 1566.23 Q1353.72 1567.57 1350.41 1568.27 Q1347.1 1568.97 1343.69 1568.97 Q1335.16 1568.97 1330.16 1564 Q1325.2 1559.04 1325.2 1550.57 Q1325.2 1541.82 1329.91 1536.69 Q1334.65 1531.54 1342.67 1531.54 Q1349.87 1531.54 1354.03 1536.18 Q1358.24 1540.8 1358.24 1548.76 M1352.38 1547.04 Q1352.32 1542.23 1349.67 1539.37 Q1347.06 1536.5 1342.74 1536.5 Q1337.83 1536.5 1334.87 1539.27 Q1331.95 1542.04 1331.5 1547.07 L1352.38 1547.04 Z" fill="#000000" fill-rule="nonzero" fill-opacity="1" /><polyline clip-path="url(#clip380)" style="stroke:#000000; stroke-linecap:round; stroke-linejoin:round; stroke-width:4; stroke-opacity:1; fill:none" points="217.783,1423.18 217.783,47.2441 "/>
<polyline clip-path="url(#clip380)" style="stroke:#000000; stroke-linecap:round; stroke-linejoin:round; stroke-width:4; stroke-opacity:1; fill:none" points="217.783,1378.78 236.681,1378.78 "/>
<polyline clip-path="url(#clip380)" style="stroke:#000000; stroke-linecap:round; stroke-linejoin:round; stroke-width:4; stroke-opacity:1; fill:none" points="217.783,1109.84 236.681,1109.84 "/>
<polyline clip-path="url(#clip380)" style="stroke:#000000; stroke-linecap:round; stroke-linejoin:round; stroke-width:4; stroke-opacity:1; fill:none" points="217.783,840.893 236.681,840.893 "/>
<polyline clip-path="url(#clip380)" style="stroke:#000000; stroke-linecap:round; stroke-linejoin:round; stroke-width:4; stroke-opacity:1; fill:none" points="217.783,571.949 236.681,571.949 "/>
<polyline clip-path="url(#clip380)" style="stroke:#000000; stroke-linecap:round; stroke-linejoin:round; stroke-width:4; stroke-opacity:1; fill:none" points="217.783,303.005 236.681,303.005 "/>
<path clip-path="url(#clip380)" d="M115.418 1392.13 L123.056 1392.13 L123.056 1365.76 L114.746 1367.43 L114.746 1363.17 L123.01 1361.5 L127.686 1361.5 L127.686 1392.13 L135.325 1392.13 L135.325 1396.06 L115.418 1396.06 L115.418 1392.13 Z" fill="#000000" fill-rule="nonzero" fill-opacity="1" /><path clip-path="url(#clip380)" d="M144.769 1390.18 L149.653 1390.18 L149.653 1396.06 L144.769 1396.06 L144.769 1390.18 Z" fill="#000000" fill-rule="nonzero" fill-opacity="1" /><path clip-path="url(#clip380)" d="M169.839 1364.58 Q166.227 1364.58 164.399 1368.14 Q162.593 1371.69 162.593 1378.82 Q162.593 1385.92 164.399 1389.49 Q166.227 1393.03 169.839 1393.03 Q173.473 1393.03 175.278 1389.49 Q177.107 1385.92 177.107 1378.82 Q177.107 1371.69 175.278 1368.14 Q173.473 1364.58 169.839 1364.58 M169.839 1360.88 Q175.649 1360.88 178.704 1365.48 Q181.783 1370.07 181.783 1378.82 Q181.783 1387.54 178.704 1392.15 Q175.649 1396.73 169.839 1396.73 Q164.028 1396.73 160.95 1392.15 Q157.894 1387.54 157.894 1378.82 Q157.894 1370.07 160.95 1365.48 Q164.028 1360.88 169.839 1360.88 Z" fill="#000000" fill-rule="nonzero" fill-opacity="1" /><path clip-path="url(#clip380)" d="M117.015 1123.18 L124.654 1123.18 L124.654 1096.82 L116.343 1098.48 L116.343 1094.22 L124.607 1092.56 L129.283 1092.56 L129.283 1123.18 L136.922 1123.18 L136.922 1127.12 L117.015 1127.12 L117.015 1123.18 Z" fill="#000000" fill-rule="nonzero" fill-opacity="1" /><path clip-path="url(#clip380)" d="M146.366 1121.24 L151.251 1121.24 L151.251 1127.12 L146.366 1127.12 L146.366 1121.24 Z" fill="#000000" fill-rule="nonzero" fill-opacity="1" /><path clip-path="url(#clip380)" d="M165.464 1123.18 L181.783 1123.18 L181.783 1127.12 L159.839 1127.12 L159.839 1123.18 Q162.501 1120.43 167.084 1115.8 Q171.69 1111.14 172.871 1109.8 Q175.116 1107.28 175.996 1105.54 Q176.899 1103.78 176.899 1102.09 Q176.899 1099.34 174.954 1097.6 Q173.033 1095.87 169.931 1095.87 Q167.732 1095.87 165.278 1096.63 Q162.848 1097.39 160.07 1098.95 L160.07 1094.22 Q162.894 1093.09 165.348 1092.51 Q167.802 1091.93 169.839 1091.93 Q175.209 1091.93 178.403 1094.62 Q181.598 1097.3 181.598 1101.79 Q181.598 1103.92 180.788 1105.84 Q180.001 1107.74 177.894 1110.33 Q177.315 1111.01 174.214 1114.22 Q171.112 1117.42 165.464 1123.18 Z" fill="#000000" fill-rule="nonzero" fill-opacity="1" /><path clip-path="url(#clip380)" d="M114.931 854.238 L122.57 854.238 L122.57 827.872 L114.26 829.539 L114.26 825.28 L122.524 823.613 L127.2 823.613 L127.2 854.238 L134.839 854.238 L134.839 858.173 L114.931 858.173 L114.931 854.238 Z" fill="#000000" fill-rule="nonzero" fill-opacity="1" /><path clip-path="url(#clip380)" d="M144.283 852.293 L149.167 852.293 L149.167 858.173 L144.283 858.173 L144.283 852.293 Z" fill="#000000" fill-rule="nonzero" fill-opacity="1" /><path clip-path="url(#clip380)" d="M172.2 827.687 L160.394 846.136 L172.2 846.136 L172.2 827.687 M170.973 823.613 L176.852 823.613 L176.852 846.136 L181.783 846.136 L181.783 850.025 L176.852 850.025 L176.852 858.173 L172.2 858.173 L172.2 850.025 L156.598 850.025 L156.598 845.511 L170.973 823.613 Z" fill="#000000" fill-rule="nonzero" fill-opacity="1" /><path clip-path="url(#clip380)" d="M115.256 585.294 L122.894 585.294 L122.894 558.928 L114.584 560.595 L114.584 556.336 L122.848 554.669 L127.524 554.669 L127.524 585.294 L135.163 585.294 L135.163 589.229 L115.256 589.229 L115.256 585.294 Z" fill="#000000" fill-rule="nonzero" fill-opacity="1" /><path clip-path="url(#clip380)" d="M144.607 583.349 L149.491 583.349 L149.491 589.229 L144.607 589.229 L144.607 583.349 Z" fill="#000000" fill-rule="nonzero" fill-opacity="1" /><path clip-path="url(#clip380)" d="M170.255 570.086 Q167.107 570.086 165.255 572.238 Q163.427 574.391 163.427 578.141 Q163.427 581.868 165.255 584.044 Q167.107 586.197 170.255 586.197 Q173.403 586.197 175.232 584.044 Q177.084 581.868 177.084 578.141 Q177.084 574.391 175.232 572.238 Q173.403 570.086 170.255 570.086 M179.538 555.433 L179.538 559.692 Q177.778 558.859 175.973 558.419 Q174.19 557.979 172.431 557.979 Q167.802 557.979 165.348 561.104 Q162.917 564.229 162.57 570.548 Q163.936 568.535 165.996 567.47 Q168.056 566.382 170.533 566.382 Q175.741 566.382 178.751 569.553 Q181.783 572.701 181.783 578.141 Q181.783 583.465 178.635 586.683 Q175.487 589.9 170.255 589.9 Q164.26 589.9 161.089 585.317 Q157.917 580.71 157.917 571.984 Q157.917 563.789 161.806 558.928 Q165.695 554.044 172.246 554.044 Q174.005 554.044 175.788 554.391 Q177.593 554.738 179.538 555.433 Z" fill="#000000" fill-rule="nonzero" fill-opacity="1" /><path clip-path="url(#clip380)" d="M115.51 316.35 L123.149 316.35 L123.149 289.984 L114.839 291.651 L114.839 287.392 L123.103 285.725 L127.779 285.725 L127.779 316.35 L135.417 316.35 L135.417 320.285 L115.51 320.285 L115.51 316.35 Z" fill="#000000" fill-rule="nonzero" fill-opacity="1" /><path clip-path="url(#clip380)" d="M144.862 314.405 L149.746 314.405 L149.746 320.285 L144.862 320.285 L144.862 314.405 Z" fill="#000000" fill-rule="nonzero" fill-opacity="1" /><path clip-path="url(#clip380)" d="M169.931 303.873 Q166.598 303.873 164.677 305.655 Q162.778 307.438 162.778 310.563 Q162.778 313.688 164.677 315.47 Q166.598 317.253 169.931 317.253 Q173.264 317.253 175.186 315.47 Q177.107 313.665 177.107 310.563 Q177.107 307.438 175.186 305.655 Q173.288 303.873 169.931 303.873 M165.255 301.882 Q162.246 301.141 160.556 299.081 Q158.89 297.021 158.89 294.058 Q158.89 289.915 161.829 287.507 Q164.792 285.1 169.931 285.1 Q175.093 285.1 178.033 287.507 Q180.973 289.915 180.973 294.058 Q180.973 297.021 179.283 299.081 Q177.616 301.141 174.63 301.882 Q178.01 302.669 179.885 304.961 Q181.783 307.253 181.783 310.563 Q181.783 315.586 178.704 318.271 Q175.649 320.956 169.931 320.956 Q164.214 320.956 161.135 318.271 Q158.079 315.586 158.079 310.563 Q158.079 307.253 159.978 304.961 Q161.876 302.669 165.255 301.882 M163.542 294.498 Q163.542 297.183 165.209 298.688 Q166.899 300.192 169.931 300.192 Q172.94 300.192 174.63 298.688 Q176.343 297.183 176.343 294.498 Q176.343 291.813 174.63 290.308 Q172.94 288.804 169.931 288.804 Q166.899 288.804 165.209 290.308 Q163.542 291.813 163.542 294.498 Z" fill="#000000" fill-rule="nonzero" fill-opacity="1" /><path clip-path="url(#clip380)" d="M20.1444 1028.58 L26.9239 1028.58 Q23.9002 1031.82 22.4043 1035.51 Q20.9083 1039.17 20.9083 1043.31 Q20.9083 1051.46 25.9054 1055.79 Q30.8707 1060.12 40.2919 1060.12 Q49.6813 1060.12 54.6784 1055.79 Q59.6436 1051.46 59.6436 1043.31 Q59.6436 1039.17 58.1477 1035.51 Q56.6518 1031.82 53.6281 1028.58 L60.3439 1028.58 Q62.6355 1031.95 63.7814 1035.74 Q64.9272 1039.49 64.9272 1043.69 Q64.9272 1054.48 58.3387 1060.69 Q51.7183 1066.9 40.2919 1066.9 Q28.8336 1066.9 22.2451 1060.69 Q15.6248 1054.48 15.6248 1043.69 Q15.6248 1039.43 16.7706 1035.67 Q17.8846 1031.89 20.1444 1028.58 Z" fill="#000000" fill-rule="nonzero" fill-opacity="1" /><path clip-path="url(#clip380)" d="M49.9359 1019.5 L28.3562 1019.5 L28.3562 1013.65 L49.7131 1013.65 Q54.7739 1013.65 57.3202 1011.67 Q59.8346 1009.7 59.8346 1005.75 Q59.8346 1001.01 56.8109 998.275 Q53.7872 995.506 48.5673 995.506 L28.3562 995.506 L28.3562 989.649 L64.0042 989.649 L64.0042 995.506 L58.5296 995.506 Q61.7762 997.638 63.3676 1000.47 Q64.9272 1003.27 64.9272 1007 Q64.9272 1013.14 61.1078 1016.32 Q57.2883 1019.5 49.9359 1019.5 M27.4968 1004.77 L27.4968 1004.77 Z" fill="#000000" fill-rule="nonzero" fill-opacity="1" /><path clip-path="url(#clip380)" d="M35.1993 949.832 Q31.2526 947.636 29.3747 944.58 Q27.4968 941.525 27.4968 937.387 Q27.4968 931.817 31.4117 928.793 Q35.2948 925.769 42.4881 925.769 L64.0042 925.769 L64.0042 931.658 L42.679 931.658 Q37.5546 931.658 35.072 933.472 Q32.5894 935.286 32.5894 939.01 Q32.5894 943.562 35.6131 946.203 Q38.6368 948.845 43.8567 948.845 L64.0042 948.845 L64.0042 954.733 L42.679 954.733 Q37.5228 954.733 35.072 956.548 Q32.5894 958.362 32.5894 962.149 Q32.5894 966.637 35.6449 969.279 Q38.6686 971.921 43.8567 971.921 L64.0042 971.921 L64.0042 977.809 L28.3562 977.809 L28.3562 971.921 L33.8944 971.921 Q30.616 969.916 29.0564 967.115 Q27.4968 964.314 27.4968 960.462 Q27.4968 956.579 29.4702 953.874 Q31.4436 951.137 35.1993 949.832 Z" fill="#000000" fill-rule="nonzero" fill-opacity="1" /><path clip-path="url(#clip380)" d="M35.1993 886.334 Q31.2526 884.138 29.3747 881.082 Q27.4968 878.027 27.4968 873.889 Q27.4968 868.319 31.4117 865.295 Q35.2948 862.271 42.4881 862.271 L64.0042 862.271 L64.0042 868.16 L42.679 868.16 Q37.5546 868.16 35.072 869.974 Q32.5894 871.788 32.5894 875.512 Q32.5894 880.064 35.6131 882.705 Q38.6368 885.347 43.8567 885.347 L64.0042 885.347 L64.0042 891.235 L42.679 891.235 Q37.5228 891.235 35.072 893.05 Q32.5894 894.864 32.5894 898.651 Q32.5894 903.139 35.6449 905.781 Q38.6686 908.423 43.8567 908.423 L64.0042 908.423 L64.0042 914.311 L28.3562 914.311 L28.3562 908.423 L33.8944 908.423 Q30.616 906.418 29.0564 903.617 Q27.4968 900.816 27.4968 896.965 Q27.4968 893.081 29.4702 890.376 Q31.4436 887.639 35.1993 886.334 Z" fill="#000000" fill-rule="nonzero" fill-opacity="1" /><path clip-path="url(#clip380)" d="M49.9359 851.195 L28.3562 851.195 L28.3562 845.339 L49.7131 845.339 Q54.7739 845.339 57.3202 843.365 Q59.8346 841.392 59.8346 837.445 Q59.8346 832.703 56.8109 829.966 Q53.7872 827.196 48.5673 827.196 L28.3562 827.196 L28.3562 821.34 L64.0042 821.34 L64.0042 827.196 L58.5296 827.196 Q61.7762 829.329 63.3676 832.162 Q64.9272 834.963 64.9272 838.687 Q64.9272 844.829 61.1078 848.012 Q57.2883 851.195 49.9359 851.195 M27.4968 836.459 L27.4968 836.459 Z" fill="#000000" fill-rule="nonzero" fill-opacity="1" /><path clip-path="url(#clip380)" d="M14.479 809.277 L14.479 803.421 L64.0042 803.421 L64.0042 809.277 L14.479 809.277 Z" fill="#000000" fill-rule="nonzero" fill-opacity="1" /><path clip-path="url(#clip380)" d="M46.0847 774.966 Q46.0847 782.064 47.7079 784.801 Q49.3312 787.538 53.2461 787.538 Q56.3653 787.538 58.2114 785.501 Q60.0256 783.432 60.0256 779.899 Q60.0256 775.029 56.5881 772.101 Q53.1188 769.141 47.3897 769.141 L46.0847 769.141 L46.0847 774.966 M43.6657 763.285 L64.0042 763.285 L64.0042 769.141 L58.5933 769.141 Q61.8398 771.146 63.3994 774.138 Q64.9272 777.13 64.9272 781.459 Q64.9272 786.933 61.8716 790.18 Q58.7843 793.395 53.6281 793.395 Q47.6125 793.395 44.5569 789.384 Q41.5014 785.342 41.5014 777.353 L41.5014 769.141 L40.9285 769.141 Q36.8862 769.141 34.6901 771.815 Q32.4621 774.457 32.4621 779.263 Q32.4621 782.318 33.1941 785.215 Q33.9262 788.111 35.3903 790.785 L29.9795 790.785 Q28.7381 787.57 28.1334 784.546 Q27.4968 781.522 27.4968 778.658 Q27.4968 770.924 31.5072 767.104 Q35.5176 763.285 43.6657 763.285 Z" fill="#000000" fill-rule="nonzero" fill-opacity="1" /><path clip-path="url(#clip380)" d="M18.2347 745.429 L28.3562 745.429 L28.3562 733.366 L32.9077 733.366 L32.9077 745.429 L52.2594 745.429 Q56.6199 745.429 57.8613 744.251 Q59.1026 743.042 59.1026 739.382 L59.1026 733.366 L64.0042 733.366 L64.0042 739.382 Q64.0042 746.161 61.4897 748.739 Q58.9434 751.317 52.2594 751.317 L32.9077 751.317 L32.9077 755.614 L28.3562 755.614 L28.3562 751.317 L18.2347 751.317 L18.2347 745.429 Z" fill="#000000" fill-rule="nonzero" fill-opacity="1" /><path clip-path="url(#clip380)" d="M28.3562 725.663 L28.3562 719.807 L64.0042 719.807 L64.0042 725.663 L28.3562 725.663 M14.479 725.663 L14.479 719.807 L21.895 719.807 L21.895 725.663 L14.479 725.663 Z" fill="#000000" fill-rule="nonzero" fill-opacity="1" /><path clip-path="url(#clip380)" d="M28.3562 711.754 L28.3562 705.548 L58.275 694.408 L28.3562 683.268 L28.3562 677.061 L64.0042 690.429 L64.0042 698.386 L28.3562 711.754 Z" fill="#000000" fill-rule="nonzero" fill-opacity="1" /><path clip-path="url(#clip380)" d="M44.7161 638.485 L47.5806 638.485 L47.5806 665.412 Q53.6281 665.03 56.8109 661.784 Q59.9619 658.505 59.9619 652.681 Q59.9619 649.307 59.1344 646.156 Q58.3069 642.973 56.6518 639.854 L62.1899 639.854 Q63.5267 643.005 64.227 646.315 Q64.9272 649.625 64.9272 653.031 Q64.9272 661.561 59.9619 666.558 Q54.9967 671.523 46.5303 671.523 Q37.7774 671.523 32.6531 666.812 Q27.4968 662.07 27.4968 654.049 Q27.4968 646.856 32.1438 642.686 Q36.7589 638.485 44.7161 638.485 M42.9973 644.342 Q38.1912 644.405 35.3266 647.047 Q32.4621 649.657 32.4621 653.986 Q32.4621 658.887 35.2312 661.847 Q38.0002 664.775 43.0292 665.221 L42.9973 644.342 Z" fill="#000000" fill-rule="nonzero" fill-opacity="1" /><path clip-path="url(#clip380)" d="M41.7242 585.363 Q42.4244 583.294 44.7161 581.353 Q47.0077 579.379 51.0181 577.406 L64.0042 570.881 L64.0042 577.788 L51.8138 583.867 Q47.0395 586.223 45.48 588.451 Q43.9204 590.647 43.9204 594.466 L43.9204 601.468 L64.0042 601.468 L64.0042 607.898 L16.4842 607.898 L16.4842 593.384 Q16.4842 585.236 19.8898 581.226 Q23.2955 577.215 30.1704 577.215 Q34.6582 577.215 37.6183 579.316 Q40.5784 581.385 41.7242 585.363 M21.7677 601.468 L38.6368 601.468 L38.6368 593.384 Q38.6368 588.737 36.5043 586.382 Q34.34 583.995 30.1704 583.995 Q26.0009 583.995 23.9002 586.382 Q21.7677 588.737 21.7677 593.384 L21.7677 601.468 Z" fill="#000000" fill-rule="nonzero" fill-opacity="1" /><path clip-path="url(#clip380)" d="M44.7161 535.297 L47.5806 535.297 L47.5806 562.224 Q53.6281 561.842 56.8109 558.595 Q59.9619 555.317 59.9619 549.492 Q59.9619 546.119 59.1344 542.968 Q58.3069 539.785 56.6518 536.666 L62.1899 536.666 Q63.5267 539.817 64.227 543.127 Q64.9272 546.437 64.9272 549.843 Q64.9272 558.373 59.9619 563.37 Q54.9967 568.335 46.5303 568.335 Q37.7774 568.335 32.6531 563.624 Q27.4968 558.882 27.4968 550.861 Q27.4968 543.668 32.1438 539.498 Q36.7589 535.297 44.7161 535.297 M42.9973 541.153 Q38.1912 541.217 35.3266 543.859 Q32.4621 546.469 32.4621 550.797 Q32.4621 555.699 35.2312 558.659 Q38.0002 561.587 43.0292 562.033 L42.9973 541.153 Z" fill="#000000" fill-rule="nonzero" fill-opacity="1" /><path clip-path="url(#clip380)" d="M18.2347 519.892 L28.3562 519.892 L28.3562 507.829 L32.9077 507.829 L32.9077 519.892 L52.2594 519.892 Q56.6199 519.892 57.8613 518.714 Q59.1026 517.505 59.1026 513.845 L59.1026 507.829 L64.0042 507.829 L64.0042 513.845 Q64.0042 520.624 61.4897 523.202 Q58.9434 525.78 52.2594 525.78 L32.9077 525.78 L32.9077 530.077 L28.3562 530.077 L28.3562 525.78 L18.2347 525.78 L18.2347 519.892 Z" fill="#000000" fill-rule="nonzero" fill-opacity="1" /><path clip-path="url(#clip380)" d="M49.9359 500.731 L28.3562 500.731 L28.3562 494.875 L49.7131 494.875 Q54.7739 494.875 57.3202 492.901 Q59.8346 490.928 59.8346 486.981 Q59.8346 482.239 56.8109 479.502 Q53.7872 476.732 48.5673 476.732 L28.3562 476.732 L28.3562 470.876 L64.0042 470.876 L64.0042 476.732 L58.5296 476.732 Q61.7762 478.865 63.3676 481.698 Q64.9272 484.499 64.9272 488.223 Q64.9272 494.365 61.1078 497.548 Q57.2883 500.731 49.9359 500.731 M27.4968 485.995 L27.4968 485.995 Z" fill="#000000" fill-rule="nonzero" fill-opacity="1" /><path clip-path="url(#clip380)" d="M33.8307 438.156 Q33.2578 439.143 33.0032 440.321 Q32.7167 441.466 32.7167 442.867 Q32.7167 447.832 35.9632 450.506 Q39.1779 453.148 45.2253 453.148 L64.0042 453.148 L64.0042 459.036 L28.3562 459.036 L28.3562 453.148 L33.8944 453.148 Q30.6479 451.301 29.0883 448.341 Q27.4968 445.381 27.4968 441.148 Q27.4968 440.543 27.5923 439.811 Q27.656 439.079 27.8151 438.188 L33.8307 438.156 Z" fill="#000000" fill-rule="nonzero" fill-opacity="1" /><path clip-path="url(#clip380)" d="M42.4881 403.527 L64.0042 403.527 L64.0042 409.383 L42.679 409.383 Q37.6183 409.383 35.1038 411.357 Q32.5894 413.33 32.5894 417.277 Q32.5894 422.019 35.6131 424.756 Q38.6368 427.494 43.8567 427.494 L64.0042 427.494 L64.0042 433.382 L28.3562 433.382 L28.3562 427.494 L33.8944 427.494 Q30.6797 425.393 29.0883 422.56 Q27.4968 419.696 27.4968 415.972 Q27.4968 409.829 31.3163 406.678 Q35.1038 403.527 42.4881 403.527 Z" fill="#000000" fill-rule="nonzero" fill-opacity="1" /><polyline clip-path="url(#clip382)" style="stroke:#009af9; stroke-linecap:round; stroke-linejoin:round; stroke-width:4; stroke-opacity:1; fill:none" points="278.207,1384.24 279.589,1369.05 283.736,1339.84 285.119,1328.53 286.501,1326.38 287.883,1314.6 289.266,1312.84 293.413,1342.44 294.795,1346.07 296.178,1338.91 297.56,1335.23 298.942,1330.16 304.472,1338.38 305.854,1333.82 307.237,1342.28 308.619,1333.38 312.766,1339.84 314.149,1332.14 315.531,1317.12 316.913,1314.86 318.296,1310.51 322.443,1298.26 323.825,1302.22 325.208,1301.74 326.59,1300.45 327.972,1296.89 332.119,1293.64 333.502,1289.06 334.884,1281.39 336.267,1279.54 337.649,1274.08 343.178,1271.61 344.561,1271.56 345.943,1267.74 347.326,1246.61 351.473,1246.78 352.855,1253.3 354.238,1266.47 355.62,1271.16 357.002,1264.56 361.149,1266.79 362.532,1254.66 363.914,1261.85 365.297,1260.77 366.679,1265.41 370.768,1262.76 372.151,1256.44 373.533,1247.96 374.916,1295.71 376.298,1274.4 380.445,1271.33 381.827,1269.92 383.21,1273.39 384.592,1269.98 385.975,1281.66 390.122,1276.21 391.504,1277.03 392.887,1285.65 394.269,1277.45 395.651,1273.56 399.798,1273.55 401.181,1279 402.563,1274.92 403.946,1262.42 405.328,1248.77 409.475,1246.45 410.857,1249.27 412.24,1244.19 413.622,1240.25 415.005,1237.34 419.152,1232.36 420.534,1235.34 421.916,1229.55 423.299,1227.79 428.828,1216.67 430.211,1213.52 431.593,1215.89 432.975,1213.06 434.358,1215.14 438.505,1214.49 439.887,1205.75 441.27,1214.81 442.652,1212.88 444.035,1194.33 448.182,1206.78 449.564,1215.11 450.946,1214.53 452.329,1212.72 453.711,1218.12 457.858,1248.28 459.241,1247.92 460.623,1240.23 462.005,1226.31 463.388,1222.71 467.535,1226.95 468.917,1212.16 470.3,1215.9 471.682,1237.97 473.064,1235.67 478.594,1258.73 479.976,1275.29 481.359,1216.39 482.741,1224.65 486.888,1210.88 488.271,1193.74 489.653,1195.23 491.035,1180.23 492.418,1165.38 496.565,1155.1 497.947,1153.43 499.33,1144.13 500.712,1138.39 502.094,1142.85 506.242,1142.33 507.624,1131.97 509.006,1123.28 510.389,1120.72 511.771,1128.05 515.918,1135.94 517.301,1142.94 518.683,1144.22 520.065,1138.66 521.448,1146.89 525.595,1133.28 526.977,1121.15 528.36,1108.55 531.124,1095.93 535.272,1108.56 536.654,1100.62 538.036,1089.74 539.419,1084.98 540.801,1069.56 544.948,1071.39 546.331,1054.15 547.713,1060.67 549.095,1070.51 550.478,1078.93 554.625,1096.73 556.007,1095.97 557.39,1081.67 558.772,1091.46 560.154,1065.43 564.301,1081.07 565.684,1098.6 567.066,1098.15 568.449,1102.83 569.831,1083.16 573.978,1109.35 575.36,1090.34 576.743,1088.58 578.125,1062.39 579.508,1068.35 583.655,1078.37 585.037,1074.27 586.42,1084.93 587.802,1083.14 589.184,1061.84 593.331,1038.71 594.714,1049.22 596.096,1038.54 597.479,1037.5 598.861,1058.47 603.008,1039.4 604.39,1050.42 605.773,1032.94 607.155,946.919 608.538,951.281 614.067,941.901 615.449,925.031 616.832,916.532 618.214,901.399 622.361,912.126 623.744,936.214 625.126,933.401 626.508,929.802 627.891,927.459 632.038,953.047 633.42,916.211 634.803,926.373 636.185,922.743 637.568,937.474 641.715,927.295 643.097,933.02 644.479,930.439 645.862,924.57 647.244,920.685 651.391,923.111 652.774,928.55 654.156,937.06 655.538,937.628 656.921,918.463 661.068,918.696 662.45,925.306 663.833,919.309 665.215,920.725 666.597,912.101 670.745,913.914 672.127,908.495 673.509,920.26 674.892,907.204 676.274,902.485 680.421,903.61 681.804,902.158 683.186,917.221 684.568,905.353 685.951,905.711 690.098,904.927 691.48,919.111 692.863,900.253 694.245,899.556 695.627,898.182 699.832,910.739 701.215,898.397 702.597,902.889 703.979,902.64 705.362,908.064 709.509,909.926 710.891,906.395 712.274,900.781 713.656,881.496 715.038,879.523 719.185,881.771 720.568,889.475 721.95,884.968 723.333,884.019 724.715,888.48 728.862,885.277 730.244,892.976 731.627,885.371 734.392,898.432 738.539,919.31 739.921,936.841 741.303,931.458 742.686,931.702 744.068,928.999 748.215,928.892 749.598,920.309 750.98,928.594 752.363,908.003 753.745,909.375 757.892,919.639 759.274,913.382 760.657,911.762 762.039,899.732 763.422,898.578 767.569,891.265 768.951,887.035 771.716,887.948 773.098,881.233 777.245,881.024 778.628,883.887 781.392,882.694 782.775,892.726 786.922,898.656 788.304,913.958 789.687,918.982 791.069,910.035 792.451,908.817 796.599,904.06 797.981,884.125 799.363,886.061 800.746,869.673 802.128,868.277 807.658,870.623 809.04,878.853 810.422,872.448 811.805,886.535 815.952,894.549 817.334,885.434 818.717,889.866 820.099,889.712 821.481,909.474 825.629,890.023 827.011,877.552 828.393,871.411 829.776,880.472 831.158,888.202 835.305,878.741 836.688,874.772 838.07,856.649 839.452,847.866 840.835,855.503 846.364,839.018 847.747,823.886 849.129,814.706 850.511,816.127 854.659,840.418 856.041,866.272 857.423,866.561 858.806,915.348 860.188,967.352 864.335,898.433 865.718,935.623 867.1,910.638 868.482,934.029 869.865,937.862 873.954,971.606 875.337,895.439 876.719,983.571 878.101,1147.07 879.484,1088.79 883.631,1265.31 885.013,1162.04 886.396,1308.82 887.778,1341.65 889.16,1338.45 893.308,1365.69 894.69,1210.51 896.072,1210.71 897.455,1181.01 898.837,1229.15 902.984,1201.53 904.367,1180.1 905.749,1174.95 907.131,1127.41 908.514,1129.48 912.661,1063.37 914.043,1063.19 915.426,1043.34 916.808,1001.21 922.337,992.835 923.72,940.473 925.102,959.108 926.485,894.388 927.867,848.824 932.014,903.424 933.397,959.199 934.779,936.567 936.161,921.694 937.544,948.264 941.691,920.728 943.073,922.736 944.456,901.881 945.838,902.892 947.22,943.115 951.367,931.227 952.75,967.935 954.132,959.001 955.515,980.02 956.897,959.738 961.044,919.448 962.426,930.805 963.809,940.59 965.191,943.438 966.574,931.211 970.721,888.764 972.103,895.749 973.485,894.736 974.868,885.014 976.25,883.019 981.78,856.54 983.162,803.007 984.545,834.409 985.927,810.2 990.074,776.35 991.456,777.129 992.839,778.633 994.221,805.362 995.604,781.959 999.751,781.48 1001.13,791.178 1002.52,781.785 1003.9,844.869 1005.28,846.689 1009.43,811.941 1010.81,799.254 1012.19,810.754 1013.57,800.321 1014.96,821.871 1019.1,782.743 1020.49,807.709 1021.87,813.516 1023.25,809.44 1024.63,829.132 1028.78,816.498 1030.16,816.336 1031.55,818.518 1032.93,820.633 1038.46,832.713 1039.84,824.251 1041.22,832.294 1042.6,821.203 1043.99,827.873 1048.13,846.235 1049.52,824.768 1050.9,810.773 1052.28,823.032 1053.66,826.989 1057.81,805.939 1059.19,807.923 1060.58,787.728 1061.96,805.337 1063.34,795.919 1067.49,809.202 1068.87,817.865 1070.25,803.478 1071.63,801.419 1073.02,810.632 1077.16,795.176 1078.55,781.399 1079.93,777.102 1081.31,789.236 1082.69,770.821 1086.84,772.95 1088.22,779.269 1089.61,748.821 1090.99,749.477 1092.37,733.825 1096.52,716.634 1097.9,732.752 1099.28,724.906 1100.66,752.654 1102.05,744.145 1106.19,742.325 1107.58,736.499 1108.96,723.391 1110.34,740.341 1111.72,734.792 1115.87,733.611 1117.25,746.1 1118.64,716.854 1120.02,765.925 1121.4,777.518 1126.93,788.578 1128.31,763.87 1129.69,779.829 1131.08,759.418 1135.22,735.742 1136.61,750.284 1137.99,746.867 1139.37,748.464 1140.75,737.941 1144.9,779.784 1146.28,758.914 1147.67,780.902 1149.05,779.284 1150.43,766.843 1154.58,748.996 1155.96,746.39 1157.34,742.3 1158.72,725.269 1160.11,734.395 1164.25,718.987 1165.64,726.57 1167.02,701.607 1168.4,664.655 1169.78,658.068 1173.93,661.58 1175.31,652.537 1176.7,668.216 1178.08,658.481 1179.46,676.562 1183.61,698.438 1184.99,695.341 1186.37,686.392 1187.75,704.174 1189.14,698.404 1193.28,735.359 1194.67,718.874 1196.05,756.129 1197.43,738.493 1198.81,752.394 1203.02,737.305 1204.4,702.701 1205.78,683.855 1207.17,663.557 1208.55,645.771 1212.69,686.861 1214.08,693.538 1215.46,657.715 1216.84,613.75 1218.22,600.72 1222.37,564.423 1223.75,586.448 1225.14,598.754 1226.52,590.227 1227.9,589.928 1232.05,587.022 1233.43,573.061 1234.81,559.485 1237.58,555.567 1241.72,567.881 1243.11,554.169 1244.49,564.16 1245.87,570.303 1247.25,588.893 1251.4,574.662 1252.78,586.214 1254.17,599.119 1255.55,599.037 1256.93,612.111 1261.08,610.752 1262.46,597.753 1263.84,585.929 1265.22,581.539 1266.61,594.154 1270.75,595.492 1272.14,580.78 1273.52,597.638 1274.9,593.793 1280.43,594.679 1281.81,586.544 1283.2,581.852 1284.58,571.71 1290.11,585.724 1291.49,595.973 1292.87,534.499 1294.25,533.437 1295.64,552.203 1299.78,566.368 1301.17,551.365 1302.55,531.614 1303.93,555.918 1305.31,561.166 1310.84,578.421 1312.23,568.941 1313.61,579.117 1314.99,575.884 1319.14,569.869 1320.52,558.072 1321.9,602.086 1323.28,624.817 1324.67,657.883 1328.81,658.364 1330.2,648.202 1331.58,646.982 1332.96,638.439 1334.34,641.893 1338.49,607.724 1339.87,581.901 1341.26,592.852 1342.64,602.417 1344.02,607.997 1349.55,605.214 1350.93,600.86 1352.31,590.032 1353.7,598.362 1357.84,604.993 1359.23,638.79 1360.61,645.756 1361.99,673.598 1363.37,657.806 1367.52,634.011 1368.9,669.48 1370.29,693.844 1371.67,732.078 1373.05,717.664 1377.2,702.989 1378.58,682.538 1379.96,668.327 1381.34,649.115 1382.73,627.994 1386.82,603.112 1388.2,593.502 1389.58,627.911 1390.96,690.187 1392.35,643.759 1396.49,600.059 1397.88,584.411 1399.26,591.455 1400.64,580.912 1402.02,547.478 1406.17,553.7 1407.55,560.016 1408.93,556.902 1410.32,540.963 1415.85,499.948 1417.23,497.809 1418.61,493.9 1419.99,483.39 1421.38,475.328 1425.52,472.598 1426.91,457.722 1428.29,452.54 1429.67,445.172 1431.05,445.606 1435.2,447.914 1436.58,435.484 1437.96,440.75 1439.35,450.835 1440.73,456.862 1444.88,456.525 1446.26,448.231 1447.64,458.178 1449.02,430.146 1450.41,432.629 1454.55,413.679 1455.94,418.763 1457.32,420.509 1458.7,407.154 1460.08,394.754 1464.23,405.635 1465.61,442.067 1466.99,490.304 1468.38,479.838 1469.76,473.218 1473.91,491.502 1475.29,489.062 1476.67,514.96 1478.05,487.278 1479.44,490.154 1483.58,518.422 1484.97,516.117 1486.35,504.352 1487.73,467.797 1489.11,477.136 1494.64,480.814 1496.02,468.656 1497.41,450.95 1498.79,440.072 1502.94,433.637 1504.32,424.001 1505.7,440.004 1507.08,436.962 1508.47,418.201 1512.61,413.977 1514,401.819 1515.38,403.119 1516.76,395.375 1518.14,407.459 1522.29,400.283 1523.67,397.567 1525.05,405.79 1526.44,404.53 1527.82,409.087 1531.97,396.057 1533.35,383.666 1534.73,379.983 1536.11,362.716 1537.5,349.262 1543.03,349.742 1544.41,332.666 1545.79,350.17 1547.17,337.866 1551.32,343.452 1552.7,342.391 1554.08,335.607 1555.47,339.451 1556.85,345.594 1561,354.159 1562.38,308.61 1563.76,315.846 1565.14,307.055 1566.53,283.071 1570.67,285.88 1572.06,266.403 1573.44,281.534 1574.82,268.788 1576.2,264.666 1580.35,270.669 1581.73,269.286 1583.11,266.668 1584.5,251.58 1585.88,250.045 1590.03,271.589 1591.41,263.678 1592.79,258.293 1594.17,256.667 1595.56,245.915 1599.7,236.879 1601.09,275.247 1602.47,296.636 1603.85,296.068 1605.23,278.815 1609.38,277.98 1610.76,280.132 1612.14,255.649 1613.53,312.245 1614.91,318.845 1619.06,319.327 1620.44,334.593 1621.82,331.71 1623.2,315.033 1624.59,331.592 1630.12,349.352 1631.5,328.454 1632.88,351.883 1634.26,364.234 1638.41,357.614 1639.79,374.404 1641.17,359.319 1642.56,337.132 1643.94,326.874 1648.09,329.466 1649.47,351.102 1650.85,350.609 1652.23,343.071 1653.62,346.155 1657.76,351.467 1659.15,362.935 1660.53,363.763 1661.91,394.65 1663.29,401.81 1667.44,422.813 1668.82,426.413 1670.2,422.418 1671.59,388.73 1672.97,408.444 1677.12,415.641 1678.5,417.576 1679.88,417.356 1681.26,383.224 1682.65,374.784 1686.79,374.852 1688.18,380.241 1689.56,354.401 1690.94,338.422 1692.32,333.122 1696.47,325.164 1697.85,335.472 1699.23,342.99 1700.62,322.053 1702,330.899 1706.15,307.894 1707.53,301.205 1708.91,277.034 1710.29,270.74 1711.68,255.225 1715.88,285.312 1717.26,299.529 1718.65,301.358 1720.03,294.359 1721.41,274.866 1725.56,248.986 1726.94,223.483 1728.32,251.698 1729.7,262.482 1731.09,266.485 1735.23,268.888 1736.62,261.332 1738,268.395 1740.76,281.525 1744.91,275.616 1746.29,305.845 1747.68,311.099 1749.06,328.857 1750.44,306.496 1754.59,280.241 1755.97,267.155 1757.35,283.637 1758.73,286.657 1760.12,274.341 1764.26,263.892 1765.65,269.106 1767.03,257.494 1768.41,270.414 1769.79,300.312 1773.94,311.178 1775.32,294.801 1776.7,304.397 1778.09,283.391 1783.62,267.855 1785,252.998 1786.38,218.512 1787.76,203.514 1789.15,198.457 1793.29,203.572 1794.68,230.15 1796.06,237.817 1797.44,222.582 1798.82,223.976 1802.97,233.781 1804.35,261.939 1805.73,260.197 1807.12,280.522 1808.5,325.376 1814.03,331.364 1815.41,318.242 1816.79,380.54 1818.18,391.485 1822.32,360.14 1823.71,383.476 1825.09,425.965 1826.47,418.228 1827.85,414.696 1832,381.726 1833.38,368.685 1834.76,389.684 1836.15,396.765 1837.53,421.321 1841.68,430.095 1843.06,400.632 1844.44,383.571 1845.82,411.374 1847.21,432.042 1851.35,437.96 1852.74,442.597 1854.12,451.804 1855.5,459.747 1856.88,437.787 1862.41,494.419 1863.79,524.081 1865.18,505.469 1866.56,445.902 1870.71,446.543 1872.09,444.36 1873.47,405.314 1874.85,403.273 1876.24,383.309 1880.38,442.994 1881.77,461.278 1883.15,428.593 1884.53,430.647 1885.91,459.066 1890,458.69 1891.38,427.679 1892.77,429.899 1894.15,358.039 1895.53,309.819 1899.68,312.034 1901.06,310.016 1902.44,341.105 1903.83,339.734 1905.21,325.871 1909.36,295.889 1910.74,282.179 1912.12,284.756 1913.5,308.888 1914.89,289.088 1919.03,284.233 1920.41,282.729 1921.8,240.345 1923.18,231.64 1924.56,217.948 1928.71,241.792 1930.09,241.119 1931.47,225.351 1932.86,224.781 1938.39,222.921 1939.77,181.985 1941.15,164.656 1942.53,199.669 1943.92,245.448 1948.06,249.809 1949.44,281.785 1950.83,294.18 1952.21,269.795 1953.59,349.377 1957.74,341.376 1959.12,340.148 1960.5,291.933 1961.89,356.751 1963.27,359.953 1967.42,390.063 1968.8,418.977 1970.18,421.538 1971.56,415.963 1972.95,391.639 1977.09,388.531 1978.47,403.407 1979.86,538.989 1981.24,544.252 1982.62,608.555 1986.77,566.175 1988.15,566.41 1989.53,563.18 1990.92,405.197 1992.3,358.72 1997.83,386.898 1999.21,413.955 2000.59,364.695 2001.98,366.3 2006.12,333.671 2007.5,325.858 2008.89,337.208 2010.27,311.821 2011.65,345.923 2015.8,405.401 2017.18,398.595 2018.56,373.986 2019.95,406.618 2021.33,414.786 2026.86,372.591 2028.24,364.457 2029.62,332.995 2031.01,286.122 2035.15,292.784 2036.53,325.089 2037.92,320.181 2039.3,324.211 2040.68,299.434 2046.21,279.967 2047.59,269.509 2048.98,256.644 2050.36,252.381 2054.51,243.485 2055.89,275.193 2057.27,274.086 2058.65,267.071 2060.03,292.046 2064.18,276.857 2065.56,256.645 2066.95,246.133 2068.33,254.787 2069.71,253.943 2073.86,253.396 2075.24,298.779 2076.62,266.157 2078.01,242.588 2079.39,217.832 2083.54,193.789 2084.92,192.941 2086.3,155.716 2087.68,173.89 2089.06,184.324 2093.21,157.688 2094.59,165.63 2095.98,150.705 2097.36,153.189 2098.74,151.228 2102.89,155.094 2104.27,143.228 2105.65,159.485 2107.04,156.572 2108.42,153.98 2112.57,211.915 2113.95,207.449 2115.33,203.007 2116.71,219.333 2118.09,303.359 2122.24,301.092 2123.62,311.618 2125.01,318.379 2126.39,282.714 2127.77,295.291 2133.3,301.537 2134.68,243.786 2136.07,224.003 2137.45,208.833 2141.6,189.01 2142.98,240.482 2144.36,260.928 2145.74,279.164 2147.12,276.317 2151.27,253.959 2152.65,264.12 2154.04,296.636 2155.42,319.313 2156.8,312.797 2160.95,341.465 2162.33,350.263 2163.71,305.695 2165.1,347.066 2166.48,346.466 2170.63,301.982 2172.01,270.227 2173.39,297.554 2174.77,288.419 2176.15,308.193 2180.3,306.585 2181.68,289.021 2183.07,297.989 2184.45,260.94 2185.83,302.483 2189.98,292.943 2191.36,279.595 2192.74,284.851 2194.13,294.313 2195.51,271.488 2199.66,267.165 2201.04,237.599 2202.42,229.314 2203.8,231.095 2205.18,189.242 2209.33,221.583 2210.71,233.617 2212.1,262.694 2213.48,263.736 2214.86,243.629 2219.07,223.941 2220.45,216.68 2221.83,264.304 2223.21,191.333 2224.6,209.051 2228.74,219.905 2230.13,163.528 2231.51,164.727 2232.89,168.002 2234.27,148.434 2238.42,106.156 2239.8,92.3935 2241.18,89.6479 2243.95,86.1857 2248.1,119.919 2249.48,141.194 2250.86,122.36 2252.24,200.455 2253.63,172.594 2257.77,181.646 2259.16,182.796 2260.54,159.896 2261.92,163.388 2263.3,188.298 2267.45,182.572 2268.83,194.678 2270.21,178.69 2271.6,196.274 2272.98,192.453 2277.13,217.905 2278.51,226.211 2279.89,195.021 2281.27,191.04 2282.66,176.078 2288.19,189.41 2289.57,191.892 2290.95,161.529 2292.33,160.643 "/>
</svg>
